<?xml version="1.0" encoding="UTF-8"?>
<svg xmlns="http://www.w3.org/2000/svg" width="1450" height="500" viewBox="-76 -30 1450 500">
<defs><marker id="arrowhead" markerWidth="8" markerHeight="6" refX="8" refY="3" orient="auto"><polygon points="0 0, 8 3, 0 6" fill="#000"/></marker></defs>
<switch><g transform="translate(0.5,0.5)">









<rect x="10" y="5" width="1080" height="28" rx="4" ry="4" fill="#fff" stroke="#000" stroke-width="1.5"/><text x="550.0" y="19.0" text-anchor="middle" dominant-baseline="central" fill="#000" font-size="10" font-family="Arial">Fluxo de Prontuário (SOAP)</text>
<rect x="30" y="70" width="1070" height="80" fill="#fff" stroke="#000" stroke-width="1.5"/><rect x="30" y="70" width="18" height="80" fill="#fff" stroke="#000" stroke-width="1"/><text x="39" y="110.0" text-anchor="middle" dominant-baseline="central" fill="#000" font-size="9" font-family="Arial" transform="rotate(-90,39,110.0)">Veterinário</text>
<rect x="0" y="40" width="1100" height="120" rx="6" ry="6" fill="none" stroke="#000" stroke-width="2"/><rect x="0" y="40" width="28" height="120" fill="#e1d5e7" stroke="#000" stroke-width="2"/><text x="14" y="100.0" text-anchor="middle" dominant-baseline="central" fill="#000" font-size="11" font-family="Arial" transform="rotate(-90,14,100.0)">Clínica</text>
<rect x="30" y="205" width="1070" height="80" fill="#fff" stroke="#000" stroke-width="1.5"/><rect x="30" y="205" width="18" height="80" fill="#fff" stroke="#000" stroke-width="1"/><text x="39" y="245.0" text-anchor="middle" dominant-baseline="central" fill="#000" font-size="9" font-family="Arial" transform="rotate(-90,39,245.0)">Tutor</text>
<rect x="0" y="175" width="1100" height="120" rx="6" ry="6" fill="none" stroke="#000" stroke-width="2"/><rect x="0" y="175" width="28" height="120" fill="#e1d5e7" stroke="#000" stroke-width="2"/><text x="14" y="235.0" text-anchor="middle" dominant-baseline="central" fill="#000" font-size="11" font-family="Arial" transform="rotate(-90,14,235.0)">Tutor (Portal)</text>
<ellipse cx="65" cy="110.0" rx="11.0" ry="11.0" fill="#d5e8d4" stroke="#82b366" stroke-width="2"/><text x="65" y="133.0" text-anchor="middle" fill="#000" font-size="9" font-family="Arial">Abrir ficha do pet</text>
<rect x="120" y="87.0" width="140" height="46" rx="4" ry="4" fill="#fff" stroke="#000" stroke-width="1.5"/><text x="190.0" y="110.0" text-anchor="middle" dominant-baseline="central" fill="#000" font-size="10" font-family="Arial">Preencher SOAP
(S+O+A+P)</text>
<rect x="310" y="83.0" width="160" height="54" rx="4" ry="4" fill="#fff" stroke="#000" stroke-width="2"/><rect x="313" y="86.0" width="154" height="48" rx="2" ry="2" fill="none" stroke="#000" stroke-width="1"/><text x="390.0" y="110.0" text-anchor="middle" dominant-baseline="central" fill="#000" font-size="10" font-family="Arial">Adicionar
Anexos</text>
<polygon points="547.0,83.0 574,110.0 547.0,137.0 520,110.0" fill="#ffe6cc" stroke="#d79b00" stroke-width="2"/><text x="547.0" y="110.0" text-anchor="middle" dominant-baseline="central" fill="#000" font-size="18" font-family="Arial">✕</text>
<rect x="650" y="83.0" width="160" height="54" rx="4" ry="4" fill="#fff" stroke="#000" stroke-width="2"/><rect x="653" y="86.0" width="154" height="48" rx="2" ry="2" fill="none" stroke="#000" stroke-width="1"/><text x="730.0" y="110.0" text-anchor="middle" dominant-baseline="central" fill="#000" font-size="10" font-family="Arial">Plano de
Tratamento</text>
<rect x="650" y="222.0" width="140" height="46" rx="4" ry="4" fill="#fff" stroke="#000" stroke-width="1.5"/><text x="720.0" y="245.0" text-anchor="middle" dominant-baseline="central" fill="#000" font-size="10" font-family="Arial">Aprovar/Rejeitar
Plano</text>
<polygon points="877.0,83.0 904,110.0 877.0,137.0 850,110.0" fill="#ffe6cc" stroke="#d79b00" stroke-width="2"/><text x="877.0" y="110.0" text-anchor="middle" dominant-baseline="central" fill="#000" font-size="18" font-family="Arial">✕</text>
<rect x="970" y="87.0" width="140" height="46" rx="4" ry="4" fill="#fff" stroke="#000" stroke-width="1.5"/><text x="1040.0" y="110.0" text-anchor="middle" dominant-baseline="central" fill="#000" font-size="10" font-family="Arial">Executar
Plano</text>
<rect x="650" y="87.0" width="140" height="46" rx="4" ry="4" fill="#fff" stroke="#000" stroke-width="1.5"/><text x="720.0" y="110.0" text-anchor="middle" dominant-baseline="central" fill="#000" font-size="10" font-family="Arial">Prescrever
(se necessário)</text>
<ellipse cx="981.0" cy="110.0" rx="11.0" ry="11.0" fill="#fff" stroke="#000" stroke-width="2"/><text x="981.0" y="133.0" text-anchor="middle" fill="#000" font-size="9" font-family="Arial">Prontuário
Salvo</text>
<ellipse cx="531.0" cy="110.0" rx="11.0" ry="11.0" fill="#fff" stroke="#000" stroke-width="2"/><ellipse cx="531.0" cy="110.0" rx="7.0" ry="7.0" fill="none" stroke="#000" stroke-width="1" stroke-dasharray="2,2"/><text x="531.0" y="133.0" text-anchor="middle" fill="#000" font-size="9" font-family="Arial">Notificação
ao Tutor</text>
<path d="M 76 110 L 91 110 L 91 110 L 120 110" fill="none" stroke="#000" stroke-width="1.5" marker-end="url(#arrowhead)"/>
<path d="M 260 110 L 285 110 L 285 110 L 310 110" fill="none" stroke="#000" stroke-width="1.5" marker-end="url(#arrowhead)"/>
<path d="M 470 110 L 495 110 L 495 110 L 520 110" fill="none" stroke="#000" stroke-width="1.5" marker-end="url(#arrowhead)"/>
<path d="M 574 110 L 612 110 L 612 110 L 650 110" fill="none" stroke="#000" stroke-width="1.5" marker-end="url(#arrowhead)"/>
<path d="M 730 137 L 730 179.5 L 720 179.5 L 720 222" fill="none" stroke="#000" stroke-width="1.5" stroke-dasharray="5,5" marker-end="url(#arrowhead)"/>
<path d="M 790 245 L 820 245 L 820 110 L 850 110" fill="none" stroke="#000" stroke-width="1.5" marker-end="url(#arrowhead)"/>
<path d="M 904 110 L 937 110 L 937 110 L 970 110" fill="none" stroke="#000" stroke-width="1.5" marker-end="url(#arrowhead)"/>
<path d="M 850 110 L 820 110 L 820 110 L 790 110" fill="none" stroke="#000" stroke-width="1.5" stroke-dasharray="5,5" marker-end="url(#arrowhead)"/>
<path d="M 970 110 L 981 110 L 981 110 L 992 110" fill="none" stroke="#000" stroke-width="1.5" marker-end="url(#arrowhead)"/>
<path d="M 650 110 L 596 110 L 596 110 L 542 110" fill="none" stroke="#000" stroke-width="1.5" stroke-dasharray="5,5" marker-end="url(#arrowhead)"/>
<path d="M 542 110 L 531 110 L 531 110 L 520 110" fill="none" stroke="#000" stroke-width="1.5" marker-end="url(#arrowhead)"/>
<!-- Gerar Fatura branch -->
<path d="M 992 110 L 1033 110" fill="none" stroke="#000" stroke-width="1.5" marker-end="url(#arrowhead)"/>
<polygon points="1033.0,110.0 1060,83.0 1087,110.0 1060,137.0" fill="#ffe6cc" stroke="#d79b00" stroke-width="2"/><text x="1060.0" y="110.0" text-anchor="middle" dominant-baseline="central" fill="#000" font-size="8" font-family="Arial">Gerar
Fatura?</text>
<path d="M 1087 110 L 1140 110" fill="none" stroke="#000" stroke-width="1.5" marker-end="url(#arrowhead)"/>
<text x="1110.0" y="103.0" text-anchor="middle" fill="#000" font-size="8" font-family="Arial">Sim</text>
<rect x="1140" y="87.0" width="110" height="46" rx="4" ry="4" fill="#fff" stroke="#000" stroke-width="1.5"/><text x="1195.0" y="110.0" text-anchor="middle" dominant-baseline="central" fill="#000" font-size="8" font-family="Arial">Gerar Fatura
(ServiceTypeMap)</text>
<path d="M 1250 110 L 1290 110" fill="none" stroke="#000" stroke-width="1.5" marker-end="url(#arrowhead)"/>
<ellipse cx="1310.0" cy="110.0" rx="11.0" ry="11.0" fill="#f8cecc" stroke="#b85450" stroke-width="2"/><ellipse cx="1310.0" cy="110.0" rx="7.0" ry="7.0" fill="none" stroke="#b85450" stroke-width="2"/><text x="1310.0" y="133.0" text-anchor="middle" fill="#000" font-size="9" font-family="Arial">Fatura
Pendente</text>
<path d="M 1060 137 L 1060 170" fill="none" stroke="#000" stroke-width="1.5" marker-end="url(#arrowhead)"/>
<text x="1050.0" y="155.0" text-anchor="middle" fill="#000" font-size="8" font-family="Arial">Não</text>
<ellipse cx="1060.0" cy="185.0" rx="11.0" ry="11.0" fill="#f8cecc" stroke="#b85450" stroke-width="2"/><ellipse cx="1060.0" cy="185.0" rx="7.0" ry="7.0" fill="none" stroke="#b85450" stroke-width="2"/><text x="1060.0" y="208.0" text-anchor="middle" fill="#000" font-size="9" font-family="Arial">Fim</text>

</g>
<foreignObject width="1400" height="500"><div xmlns="http://www.w3.org/1999/xhtml"><mxfile host="Generator" modified="2026-05-21T07:35:39.397979" agent="BPMN-PHASEX" version="24.0.5" type="device"><diagram id="05-fluxo-prontuario.svg" name="Page-1"><mxGraphModel dx="0" dy="0" grid="1" gridSize="10" guides="1" page="0" pageWidth="1400" pageHeight="500" math="0" shadow="0"><root><mxCell id="0"/><mxCell id="1" parent="0"/><mxCell id="c182" value="Fluxo de Prontuário (SOAP)" style="text;html=1;strokeColor=none;fillColor=none;align=center;fontSize=14;fontStyle=1" vertex="1" parent="1"><mxGeometry x="10" y="5" width="1080" height="28" as="geometry"/></mxCell><mxCell id="c183" value="Veterinário" style="swimlane;startSize=18;fillColor=#d5e8d4;strokeColor=#000;horizontal=1;" vertex="1" parent="1"><mxGeometry x="30" y="70" width="1070" height="80" as="geometry"/></mxCell><mxCell id="c184" value="Clínica" style="swimlane;startSize=0;fillColor=none;strokeColor=#000;" vertex="1" parent="1"><mxGeometry x="0" y="40" width="1100" height="120" as="geometry"/></mxCell><mxCell id="c185" value="Tutor" style="swimlane;startSize=18;fillColor=#e1d5e7;strokeColor=#000;horizontal=1;" vertex="1" parent="1"><mxGeometry x="30" y="205" width="1070" height="80" as="geometry"/></mxCell><mxCell id="c186" value="Tutor (Portal)" style="swimlane;startSize=0;fillColor=none;strokeColor=#000;" vertex="1" parent="1"><mxGeometry x="0" y="175" width="1100" height="120" as="geometry"/></mxCell><mxCell id="c187" value="Abrir ficha do pet" style="ellipse;whiteSpace=wrap;html=1;fillColor=#d5e8d4;strokeColor=#82b366;" vertex="1" parent="1"><mxGeometry x="40" y="99.0" width="22" height="22" as="geometry"/></mxCell><mxCell id="c188" value="Preencher SOAP
(S+O+A+P)" style="rounded=1;whiteSpace=wrap;html=1;" vertex="1" parent="1"><mxGeometry x="120" y="87.0" width="140" height="46" as="geometry"/></mxCell><mxCell id="c189" value="Adicionar
Anexos" style="rounded=1;whiteSpace=wrap;html=1;fillColor=#fff;strokeColor=#000;container=1;collapsible=0;" vertex="1" parent="1"><mxGeometry x="310" y="83.0" width="160" height="54" as="geometry"/></mxCell><mxCell id="c190" value="Plano de
Tratamento?" style="rhombus;whiteSpace=wrap;html=1;fillColor=#ffe6cc;strokeColor=#d79b00;" vertex="1" parent="1"><mxGeometry x="520" y="83.0" width="54" height="54" as="geometry"/></mxCell><mxCell id="c191" value="Plano de
Tratamento" style="rounded=1;whiteSpace=wrap;html=1;fillColor=#fff;strokeColor=#000;container=1;collapsible=0;" vertex="1" parent="1"><mxGeometry x="650" y="83.0" width="160" height="54" as="geometry"/></mxCell><mxCell id="c192" value="Aprovar/Rejeitar
Plano" style="rounded=1;whiteSpace=wrap;html=1;" vertex="1" parent="1"><mxGeometry x="650" y="222.0" width="140" height="46" as="geometry"/></mxCell><mxCell id="c193" value="Aprovado?" style="rhombus;whiteSpace=wrap;html=1;fillColor=#ffe6cc;strokeColor=#d79b00;" vertex="1" parent="1"><mxGeometry x="850" y="83.0" width="54" height="54" as="geometry"/></mxCell><mxCell id="c194" value="Executar
Plano" style="rounded=1;whiteSpace=wrap;html=1;" vertex="1" parent="1"><mxGeometry x="970" y="87.0" width="140" height="46" as="geometry"/></mxCell><mxCell id="c195" value="Prescrever
(se necessário)" style="rounded=1;whiteSpace=wrap;html=1;" vertex="1" parent="1"><mxGeometry x="650" y="87.0" width="140" height="46" as="geometry"/></mxCell><mxCell id="c196" value="Prontuário
Salvo" style="ellipse;whiteSpace=wrap;html=1;fillColor=#f8cecc;strokeColor=#b85450;" vertex="1" parent="1"><mxGeometry x="970" y="99.0" width="22" height="22" as="geometry"/></mxCell><mxCell id="c197" value="Notificação
ao Tutor" style="rounded=1;whiteSpace=wrap;html=1;" vertex="1" parent="1"><mxGeometry x="520" y="99.0" width="22" height="22" as="geometry"/></mxCell><mxCell id="c198" edge="1" parent="1" source="c187" target="c188" style="edgeStyle=orthogonalEdgeStyle;rounded=0;html=1;"><mxGeometry relative="1" as="geometry"/></mxCell><mxCell id="c199" edge="1" parent="1" source="c188" target="c189" style="edgeStyle=orthogonalEdgeStyle;rounded=0;html=1;"><mxGeometry relative="1" as="geometry"/></mxCell><mxCell id="c200" edge="1" parent="1" source="c189" target="c190" style="edgeStyle=orthogonalEdgeStyle;rounded=0;html=1;"><mxGeometry relative="1" as="geometry"/></mxCell><mxCell id="c201" edge="1" parent="1" source="c190" target="c191" style="edgeStyle=orthogonalEdgeStyle;rounded=0;html=1;"><mxGeometry relative="1" as="geometry"/></mxCell><mxCell id="c202" edge="1" parent="1" source="c191" target="c192" style="edgeStyle=orthogonalEdgeStyle;rounded=0;html=1;dashed=1;"><mxGeometry relative="1" as="geometry"/></mxCell><mxCell id="c203" edge="1" parent="1" source="c192" target="c193" style="edgeStyle=orthogonalEdgeStyle;rounded=0;html=1;"><mxGeometry relative="1" as="geometry"/></mxCell><mxCell id="c204" edge="1" parent="1" source="c193" target="c194" style="edgeStyle=orthogonalEdgeStyle;rounded=0;html=1;"><mxGeometry relative="1" as="geometry"/></mxCell><mxCell id="c205" edge="1" parent="1" source="c193" target="c195" style="edgeStyle=orthogonalEdgeStyle;rounded=0;html=1;dashed=1;"><mxGeometry relative="1" as="geometry"/></mxCell><mxCell id="c206" edge="1" parent="1" source="c194" target="c196" style="edgeStyle=orthogonalEdgeStyle;rounded=0;html=1;"><mxGeometry relative="1" as="geometry"/></mxCell><mxCell id="c207" edge="1" parent="1" source="c191" target="c197" style="edgeStyle=orthogonalEdgeStyle;rounded=0;html=1;dashed=1;"><mxGeometry relative="1" as="geometry"/></mxCell><mxCell id="c208" edge="1" parent="1" source="c197" target="c190" style="edgeStyle=orthogonalEdgeStyle;rounded=0;html=1;"><mxGeometry relative="1" as="geometry"/></mxCell></root></mxGraphModel></diagram></mxfile></div></foreignObject></switch>
</svg>