<svg xmlns="http://www.w3.org/2000/svg" xmlns:xlink="http://www.w3.org/1999/xlink" contentStyleType="text/css" data-diagram-type="ACTIVITY" height="857px" preserveAspectRatio="none" style="width:590px;height:857px;background:#FEFEFE;" version="1.1" viewBox="0 0 590 857" width="590px" zoomAndPan="magnify"><title>Fluxo de Prontu&#225;rio (SOAP)</title><defs/><g><rect fill="#FEFEFE" height="857" style="stroke:none;stroke-width:1;" width="590" x="0" y="0"/><text fill="#000000" font-family="Arial" font-size="14" font-weight="bold" lengthAdjust="spacing" textLength="185.1172" x="201.3993" y="33.1318">Fluxo de Prontu&#225;rio (SOAP)</text><rect fill="none" height="12.6489" style="stroke:none;stroke-width:1;" width="557.9158" x="15" y="48.0986"/><ellipse cx="208.8949" cy="75.7476" fill="#222222" rx="10" ry="10" style="stroke:#222222;stroke-width:1;"/><rect fill="#FFFFFF" height="31.499" rx="12.5" ry="12.5" style="stroke:#333333;stroke-width:0.5;" width="95.5957" x="161.097" y="105.7476"/><text fill="#000000" font-family="Arial" font-size="10" lengthAdjust="spacing" textLength="75.5957" x="171.097" y="125.1274">Abrir ficha do pet</text><rect fill="#FFFFFF" height="31.499" rx="12.5" ry="12.5" style="stroke:#333333;stroke-width:0.5;" width="151.4502" x="133.1698" y="157.2466"/><text fill="#000000" font-family="Arial" font-size="10" lengthAdjust="spacing" textLength="131.4502" x="143.1698" y="176.6265">Preencher SOAP (S+O+A+P)</text><rect fill="#FFFFFF" height="31.499" rx="12.5" ry="12.5" style="stroke:#333333;stroke-width:0.5;" width="97.8223" x="159.9838" y="208.7456"/><text fill="#000000" font-family="Arial" font-size="10" lengthAdjust="spacing" textLength="77.8223" x="169.9838" y="228.1255">Adicionar Anexos</text><polygon fill="#FFFFFF" points="159.4198,260.2446,258.37,260.2446,270.37,272.2446,258.37,284.2446,159.4198,284.2446,147.4198,272.2446,159.4198,260.2446" style="stroke:#333333;stroke-width:0.5;"/><text fill="#000000" font-family="Arial" font-size="10" lengthAdjust="spacing" textLength="98.9502" x="159.4198" y="275.875">Plano de Tratamento?</text><text fill="#000000" font-family="Arial" font-size="9" lengthAdjust="spacing" textLength="20.0171" x="127.4027" y="270.3374">[n&#227;o]</text><text fill="#000000" font-family="Arial" font-size="9" lengthAdjust="spacing" textLength="18.9976" x="270.37" y="270.3374">[sim]</text><rect fill="#FFFFFF" height="31.499" rx="12.5" ry="12.5" style="stroke:#333333;stroke-width:0.5;" width="139.4824" x="21" y="304.2446"/><text fill="#000000" font-family="Arial" font-size="10" lengthAdjust="spacing" textLength="119.4824" x="31" y="323.6245">Prescrever (se necess&#225;rio)</text><rect fill="#FFFFFF" height="31.499" rx="12.5" ry="12.5" style="stroke:#333333;stroke-width:0.5;" width="153.9648" x="250.0662" y="304.2446"/><text fill="#000000" font-family="Arial" font-size="10" lengthAdjust="spacing" textLength="133.9648" x="260.0662" y="323.6245">Elaborar Plano de Tratamento</text><polygon fill="#FFFFFF" points="288.6868,407.2427,365.4104,407.2427,377.4104,419.2427,365.4104,431.2427,288.6868,431.2427,276.6868,419.2427,288.6868,407.2427" style="stroke:#333333;stroke-width:0.5;"/><text fill="#000000" font-family="Arial" font-size="10" lengthAdjust="spacing" textLength="76.7236" x="288.6868" y="422.873">Plano Aprovado?</text><text fill="#000000" font-family="Arial" font-size="9" lengthAdjust="spacing" textLength="20.0171" x="256.6697" y="417.3354">[n&#227;o]</text><text fill="#000000" font-family="Arial" font-size="9" lengthAdjust="spacing" textLength="18.9976" x="377.4104" y="417.3354">[sim]</text><rect fill="#FFFFFF" height="31.499" rx="12.5" ry="12.5" style="stroke:#333333;stroke-width:0.5;" width="139.4824" x="190.4824" y="441.2427"/><text fill="#000000" font-family="Arial" font-size="10" lengthAdjust="spacing" textLength="119.4824" x="200.4824" y="460.6226">Prescrever (se necess&#225;rio)</text><rect fill="#FFFFFF" height="31.499" rx="12.5" ry="12.5" style="stroke:#333333;stroke-width:0.5;" width="87.8174" x="349.9648" y="441.2427"/><text fill="#000000" font-family="Arial" font-size="10" lengthAdjust="spacing" textLength="67.8174" x="359.9648" y="460.6226">Executar Plano</text><polygon fill="#FFFFFF" points="327.0486,478.7417,339.0486,490.7417,327.0486,502.7417,315.0486,490.7417,327.0486,478.7417" style="stroke:#333333;stroke-width:0.5;"/><polygon fill="#FFFFFF" points="208.8949,512.7417,220.8949,524.7417,208.8949,536.7417,196.8949,524.7417,208.8949,512.7417" style="stroke:#333333;stroke-width:0.5;"/><rect fill="#FFFFFF" height="31.499" rx="12.5" ry="12.5" style="stroke:#333333;stroke-width:0.5;" width="93.9307" x="161.9296" y="556.7417"/><text fill="#000000" font-family="Arial" font-size="10" lengthAdjust="spacing" textLength="73.9307" x="171.9296" y="576.1216">Prontu&#225;rio Salvo</text><rect fill="#FFFFFF" height="31.499" rx="12.5" ry="12.5" style="stroke:#333333;stroke-width:0.5;" width="161.709" x="128.0404" y="656.2407"/><text fill="#000000" font-family="Arial" font-size="10" lengthAdjust="spacing" textLength="141.709" x="138.0404" y="675.6206">Gerar Fatura (ServiceTypeMap)</text><rect fill="#FFFFFF" height="31.499" rx="12.5" ry="12.5" style="stroke:#333333;stroke-width:0.5;" width="94.4971" x="161.6464" y="707.7397"/><text fill="#000000" font-family="Arial" font-size="10" lengthAdjust="spacing" textLength="74.4971" x="171.6464" y="727.1196">Fatura Pendente</text><ellipse cx="208.8949" cy="770.2388" fill="none" rx="11" ry="11" style="stroke:#222222;stroke-width:1;"/><ellipse cx="208.8949" cy="770.2388" fill="#222222" rx="6" ry="6" style="stroke:#222222;stroke-width:1;"/><polygon fill="#FFFFFF" points="177.4935,608.2407,240.2963,608.2407,252.2963,620.2407,240.2963,632.2407,177.4935,632.2407,165.4935,620.2407,177.4935,608.2407" style="stroke:#333333;stroke-width:0.5;"/><text fill="#000000" font-family="Arial" font-size="9" lengthAdjust="spacing" textLength="18.9976" x="212.8949" y="640.6826">[sim]</text><text fill="#000000" font-family="Arial" font-size="10" lengthAdjust="spacing" textLength="62.8027" x="177.4935" y="623.8711">Gerar Fatura?</text><ellipse cx="208.8949" cy="834.2388" fill="none" rx="11" ry="11" style="stroke:#222222;stroke-width:1;"/><ellipse cx="208.8949" cy="834.2388" fill="#222222" rx="6" ry="6" style="stroke:#222222;stroke-width:1;"/><line style="stroke:#333333;stroke-width:1.5;" x1="15" x2="15" y1="48.0986" y2="845.2388"/><rect fill="#FFFFFF" height="31.499" rx="12.5" ry="12.5" style="stroke:#333333;stroke-width:0.5;" width="120.6055" x="447.7822" y="355.7437"/><text fill="#000000" font-family="Arial" font-size="10" lengthAdjust="spacing" textLength="100.6055" x="457.7822" y="375.1235">Aprovar/Rejeitar Plano</text><line style="stroke:#333333;stroke-width:1.5;" x1="441.7822" x2="441.7822" y1="48.0986" y2="845.2388"/><line style="stroke:#333333;stroke-width:1.5;" x1="572.3877" x2="572.3877" y1="48.0986" y2="845.2388"/><line style="stroke:#333333;stroke-width:1;" x1="208.8949" x2="208.8949" y1="85.7476" y2="105.7476"/><polygon fill="#333333" points="204.8949,95.7476,208.8949,105.7476,212.8949,95.7476,208.8949,99.7476" style="stroke:#333333;stroke-width:1;"/><line style="stroke:#333333;stroke-width:1;" x1="208.8949" x2="208.8949" y1="137.2466" y2="157.2466"/><polygon fill="#333333" points="204.8949,147.2466,208.8949,157.2466,212.8949,147.2466,208.8949,151.2466" style="stroke:#333333;stroke-width:1;"/><line style="stroke:#333333;stroke-width:1;" x1="208.8949" x2="208.8949" y1="188.7456" y2="208.7456"/><polygon fill="#333333" points="204.8949,198.7456,208.8949,208.7456,212.8949,198.7456,208.8949,202.7456" style="stroke:#333333;stroke-width:1;"/><line style="stroke:#333333;stroke-width:1;" x1="276.6868" x2="260.2236" y1="419.2427" y2="419.2427"/><line style="stroke:#333333;stroke-width:1;" x1="260.2236" x2="260.2236" y1="419.2427" y2="441.2427"/><polygon fill="#333333" points="256.2236,431.2427,260.2236,441.2427,264.2236,431.2427,260.2236,435.2427" style="stroke:#333333;stroke-width:1;"/><line style="stroke:#333333;stroke-width:1;" x1="377.4104" x2="393.8735" y1="419.2427" y2="419.2427"/><line style="stroke:#333333;stroke-width:1;" x1="393.8735" x2="393.8735" y1="419.2427" y2="441.2427"/><polygon fill="#333333" points="389.8735,431.2427,393.8735,441.2427,397.8735,431.2427,393.8735,435.2427" style="stroke:#333333;stroke-width:1;"/><line style="stroke:#333333;stroke-width:1;" x1="260.2236" x2="260.2236" y1="472.7417" y2="490.7417"/><line style="stroke:#333333;stroke-width:1;" x1="260.2236" x2="315.0486" y1="490.7417" y2="490.7417"/><polygon fill="#333333" points="305.0486,486.7417,315.0486,490.7417,305.0486,494.7417,309.0486,490.7417" style="stroke:#333333;stroke-width:1;"/><line style="stroke:#333333;stroke-width:1;" x1="393.8735" x2="393.8735" y1="472.7417" y2="490.7417"/><line style="stroke:#333333;stroke-width:1;" x1="393.8735" x2="339.0486" y1="490.7417" y2="490.7417"/><polygon fill="#333333" points="349.0486,486.7417,339.0486,490.7417,349.0486,494.7417,345.0486,490.7417" style="stroke:#333333;stroke-width:1;"/><line style="stroke:#333333;stroke-width:1;" x1="147.4198" x2="90.7412" y1="272.2446" y2="272.2446"/><line style="stroke:#333333;stroke-width:1;" x1="90.7412" x2="90.7412" y1="272.2446" y2="304.2446"/><polygon fill="#333333" points="86.7412,294.2446,90.7412,304.2446,94.7412,294.2446,90.7412,298.2446" style="stroke:#333333;stroke-width:1;"/><line style="stroke:#333333;stroke-width:1;" x1="270.37" x2="327.0486" y1="272.2446" y2="272.2446"/><line style="stroke:#333333;stroke-width:1;" x1="327.0486" x2="327.0486" y1="272.2446" y2="304.2446"/><polygon fill="#333333" points="323.0486,294.2446,327.0486,304.2446,331.0486,294.2446,327.0486,298.2446" style="stroke:#333333;stroke-width:1;"/><line style="stroke:#333333;stroke-width:1;" x1="90.7412" x2="90.7412" y1="335.7437" y2="524.7417"/><line style="stroke:#333333;stroke-width:1;" x1="90.7412" x2="196.8949" y1="524.7417" y2="524.7417"/><polygon fill="#333333" points="186.8949,520.7417,196.8949,524.7417,186.8949,528.7417,190.8949,524.7417" style="stroke:#333333;stroke-width:1;"/><line style="stroke:#333333;stroke-width:1;" x1="327.0486" x2="327.0486" y1="502.7417" y2="524.7417"/><line style="stroke:#333333;stroke-width:1;" x1="327.0486" x2="220.8949" y1="524.7417" y2="524.7417"/><polygon fill="#333333" points="230.8949,520.7417,220.8949,524.7417,230.8949,528.7417,226.8949,524.7417" style="stroke:#333333;stroke-width:1;"/><line style="stroke:#333333;stroke-width:1;" x1="208.8949" x2="208.8949" y1="240.2446" y2="260.2446"/><polygon fill="#333333" points="204.8949,250.2446,208.8949,260.2446,212.8949,250.2446,208.8949,254.2446" style="stroke:#333333;stroke-width:1;"/><line style="stroke:#333333;stroke-width:1;" x1="208.8949" x2="208.8949" y1="536.7417" y2="556.7417"/><polygon fill="#333333" points="204.8949,546.7417,208.8949,556.7417,212.8949,546.7417,208.8949,550.7417" style="stroke:#333333;stroke-width:1;"/><line style="stroke:#333333;stroke-width:1;" x1="208.8949" x2="208.8949" y1="687.7397" y2="707.7397"/><polygon fill="#333333" points="204.8949,697.7397,208.8949,707.7397,212.8949,697.7397,208.8949,701.7397" style="stroke:#333333;stroke-width:1;"/><line style="stroke:#333333;stroke-width:1;" x1="208.8949" x2="208.8949" y1="739.2388" y2="759.2388"/><polygon fill="#333333" points="204.8949,749.2388,208.8949,759.2388,212.8949,749.2388,208.8949,753.2388" style="stroke:#333333;stroke-width:1;"/><line style="stroke:#333333;stroke-width:1;" x1="208.8949" x2="208.8949" y1="632.2407" y2="656.2407"/><polygon fill="#333333" points="204.8949,646.2407,208.8949,656.2407,212.8949,646.2407,208.8949,650.2407" style="stroke:#333333;stroke-width:1;"/><line style="stroke:#333333;stroke-width:1;" x1="252.2963" x2="299.7494" y1="620.2407" y2="620.2407"/><polygon fill="#333333" points="295.7494,705.7397,299.7494,715.7397,303.7494,705.7397,299.7494,709.7397" style="stroke:#333333;stroke-width:1;"/><line style="stroke:#333333;stroke-width:1;" x1="299.7494" x2="299.7494" y1="620.2407" y2="803.2388"/><line style="stroke:#333333;stroke-width:1;" x1="299.7494" x2="208.8949" y1="803.2388" y2="803.2388"/><line style="stroke:#333333;stroke-width:1;" x1="208.8949" x2="208.8949" y1="803.2388" y2="823.2388"/><polygon fill="#333333" points="204.8949,813.2388,208.8949,823.2388,212.8949,813.2388,208.8949,817.2388" style="stroke:#333333;stroke-width:1;"/><line style="stroke:#333333;stroke-width:1;" x1="208.8949" x2="208.8949" y1="588.2407" y2="608.2407"/><polygon fill="#333333" points="204.8949,598.2407,208.8949,608.2407,212.8949,598.2407,208.8949,602.2407" style="stroke:#333333;stroke-width:1;"/><line style="stroke:#333333;stroke-width:1;" x1="327.0486" x2="327.0486" y1="335.7437" y2="340.7437"/><line style="stroke:#333333;stroke-width:1;" x1="327.0486" x2="508.085" y1="340.7437" y2="340.7437"/><line style="stroke:#333333;stroke-width:1;" x1="508.085" x2="508.085" y1="340.7437" y2="355.7437"/><polygon fill="#333333" points="504.085,345.7437,508.085,355.7437,512.085,345.7437,508.085,349.7437" style="stroke:#333333;stroke-width:1;"/><line style="stroke:#333333;stroke-width:1;" x1="508.085" x2="508.085" y1="387.2427" y2="392.2427"/><line style="stroke:#333333;stroke-width:1;" x1="508.085" x2="327.0486" y1="392.2427" y2="392.2427"/><line style="stroke:#333333;stroke-width:1;" x1="327.0486" x2="327.0486" y1="392.2427" y2="407.2427"/><polygon fill="#333333" points="323.0486,397.2427,327.0486,407.2427,331.0486,397.2427,327.0486,401.2427" style="stroke:#333333;stroke-width:1;"/><text fill="#000000" font-family="Arial" font-size="11" lengthAdjust="spacing" textLength="53.1953" x="201.7935" y="58.4165">Veterin&#225;rio</text><text fill="#000000" font-family="Arial" font-size="11" lengthAdjust="spacing" textLength="25.6738" x="494.248" y="58.4165">Tutor</text><!--SRC=[XL71QiCm3BtxAxHRGc6xfuUHmxhJQ5ZBBcKCrr6fXsC5MGaTv6V6FgK_DZjjrtKKTZ56JthlwUd6UkEw6k7DKDEGlssxnYabLXp2p7KxWWXMJ5ww_ITRWcmnBwjSgU451TdwiJge89f55UMQBSF6cgs6cg15cQgYOaHljiYGPYF3P3uf9rKUeRAsnfBN3AN77OMfKdO3MUMq7vMNh4Ktw8NkSv0jUiXMVlz5hxa2ICJ1CFQHEGi87Ws6C1gAtEXYALi5snoQ7vnU4qUbA-JJs30iEo4UKclPClMQxvxn7QsSHiQcowq1pcuFG_Kre_zP1VXZDjdTeUakjD7NTgCERmhrV9E5TZqTetl4jEDCIyVwREKdXTzml0HoRmqkFrfyqktef3XYLHIAqM2g1Q7s99p-tm00]--></g></svg>