<svg xmlns="http://www.w3.org/2000/svg" xmlns:xlink="http://www.w3.org/1999/xlink" contentStyleType="text/css" data-diagram-type="ACTIVITY" height="699px" preserveAspectRatio="none" style="width:647px;height:699px;background:#FEFEFE;" version="1.1" viewBox="0 0 647 699" width="647px" zoomAndPan="magnify"><title>Fluxo de Prescricao com QR Code</title><defs/><g><rect fill="#FEFEFE" height="699" style="stroke:none;stroke-width:1;" width="647" x="0" y="0"/><text fill="#000000" font-family="Arial" font-size="14" font-weight="bold" lengthAdjust="spacing" textLength="229.5098" x="207.6112" y="33.1318">Fluxo de Prescricao com QR Code</text><rect fill="none" height="12.6489" style="stroke:none;stroke-width:1;" width="614.7322" x="15" y="48.0986"/><ellipse cx="135.3149" cy="75.7476" fill="#222222" rx="10" ry="10" style="stroke:#222222;stroke-width:1;"/><rect fill="#FFFFFF" height="31.499" rx="12.5" ry="12.5" style="stroke:#333333;stroke-width:0.5;" width="85.0391" x="92.7954" y="105.7476"/><text fill="#000000" font-family="Arial" font-size="10" lengthAdjust="spacing" textLength="65.0391" x="102.7954" y="125.1274">Selecionar Pet</text><rect fill="#FFFFFF" height="31.499" rx="12.5" ry="12.5" style="stroke:#333333;stroke-width:0.5;" width="129.4971" x="70.5664" y="157.2466"/><text fill="#000000" font-family="Arial" font-size="10" lengthAdjust="spacing" textLength="109.4971" x="80.5664" y="176.6265">Adicionar Medicamentos</text><rect fill="#FFFFFF" height="31.499" rx="12.5" ry="12.5" style="stroke:#333333;stroke-width:0.5;" width="90.5859" x="90.022" y="256.7456"/><text fill="#000000" font-family="Arial" font-size="10" lengthAdjust="spacing" textLength="70.5859" x="100.022" y="276.1255">Validar ANVISA</text><polygon fill="#FFFFFF" points="81.9458,208.7456,188.6841,208.7456,200.6841,220.7456,188.6841,232.7456,81.9458,232.7456,69.9458,220.7456,81.9458,208.7456" style="stroke:#333333;stroke-width:0.5;"/><text fill="#000000" font-family="Arial" font-size="9" lengthAdjust="spacing" textLength="18.9976" x="139.3149" y="241.1875">[sim]</text><text fill="#000000" font-family="Arial" font-size="10" lengthAdjust="spacing" textLength="106.7383" x="81.9458" y="224.376">Subst&#226;ncia Controlada?</text><text fill="#000000" font-family="Arial" font-size="9" lengthAdjust="spacing" textLength="20.0171" x="200.6841" y="218.8384">[n&#227;o]</text><polygon fill="#FFFFFF" points="135.3149,308.2446,147.3149,320.2446,135.3149,332.2446,123.3149,320.2446,135.3149,308.2446" style="stroke:#333333;stroke-width:0.5;"/><rect fill="#FFFFFF" height="31.499" rx="12.5" ry="12.5" style="stroke:#333333;stroke-width:0.5;" width="119.4727" x="75.5786" y="403.7437"/><text fill="#000000" font-family="Arial" font-size="10" lengthAdjust="spacing" textLength="99.4727" x="85.5786" y="423.1235">Gerar PDF Formatado</text><line style="stroke:#333333;stroke-width:1.5;" x1="68.5146" x2="196.8296" y1="455.2427" y2="455.2427"/><rect fill="#FFFFFF" height="31.499" rx="12.5" ry="12.5" style="stroke:#333333;stroke-width:0.5;" width="95.0293" x="21" y="531.4912"/><text fill="#000000" font-family="Arial" font-size="10" lengthAdjust="spacing" textLength="75.0293" x="31" y="550.8711">Prescri&#231;&#227;o Salva</text><ellipse cx="68.5146" cy="598.7397" fill="none" rx="11" ry="11" style="stroke:#222222;stroke-width:1;"/><ellipse cx="68.5146" cy="598.7397" fill="#222222" rx="6" ry="6" style="stroke:#222222;stroke-width:1;"/><line style="stroke:#333333;stroke-width:1.5;" x1="15" x2="15" y1="48.0986" y2="687.4883"/><rect fill="#FFFFFF" height="31.499" rx="12.5" ry="12.5" style="stroke:#333333;stroke-width:0.5;" width="141.4355" x="237.6841" y="352.2446"/><text fill="#000000" font-family="Arial" font-size="10" lengthAdjust="spacing" textLength="121.4355" x="247.6841" y="371.6245">Gerar Hash SHA-256 + QR</text><rect fill="#FFFFFF" height="31.499" rx="12.5" ry="12.5" style="stroke:#333333;stroke-width:0.5;" width="82.793" x="328.52" y="475.2427"/><text fill="#000000" font-family="Arial" font-size="10" lengthAdjust="spacing" textLength="62.793" x="338.52" y="494.6226">Notificar Tutor</text><line style="stroke:#333333;stroke-width:1.5;" x1="231.6841" x2="231.6841" y1="48.0986" y2="687.4883"/><rect fill="#FFFFFF" height="31.499" rx="12.5" ry="12.5" style="stroke:#333333;stroke-width:0.5;" width="80.5762" x="421.313" y="526.7417"/><text fill="#000000" font-family="Arial" font-size="10" lengthAdjust="spacing" textLength="60.5762" x="431.313" y="546.1216">Receber PDF</text><line style="stroke:#333333;stroke-width:1.5;" x1="415.313" x2="415.313" y1="48.0986" y2="687.4883"/><rect fill="#FFFFFF" height="31.499" rx="12.5" ry="12.5" style="stroke:#333333;stroke-width:0.5;" width="105.6006" x="519.6035" y="582.9902"/><text fill="#000000" font-family="Arial" font-size="10" lengthAdjust="spacing" textLength="85.6006" x="529.6035" y="602.3701">Escaneia QR Code</text><rect fill="#FFFFFF" height="31.499" rx="12.5" ry="12.5" style="stroke:#333333;stroke-width:0.5;" width="96.7041" x="524.0518" y="634.4893"/><text fill="#000000" font-family="Arial" font-size="10" lengthAdjust="spacing" textLength="76.7041" x="534.0518" y="653.8691">Verificar /r/{hash}</text><line style="stroke:#333333;stroke-width:1.5;" x1="510.8892" x2="572.4038" y1="685.9883" y2="685.9883"/><line style="stroke:#333333;stroke-width:1.5;" x1="505.8892" x2="505.8892" y1="48.0986" y2="687.4883"/><line style="stroke:#333333;stroke-width:1.5;" x1="629.2041" x2="629.2041" y1="48.0986" y2="687.4883"/><line style="stroke:#333333;stroke-width:1;" x1="135.3149" x2="135.3149" y1="85.7476" y2="105.7476"/><polygon fill="#333333" points="131.3149,95.7476,135.3149,105.7476,139.3149,95.7476,135.3149,99.7476" style="stroke:#333333;stroke-width:1;"/><line style="stroke:#333333;stroke-width:1;" x1="135.3149" x2="135.3149" y1="137.2466" y2="157.2466"/><polygon fill="#333333" points="131.3149,147.2466,135.3149,157.2466,139.3149,147.2466,135.3149,151.2466" style="stroke:#333333;stroke-width:1;"/><line style="stroke:#333333;stroke-width:1;" x1="135.3149" x2="135.3149" y1="232.7456" y2="256.7456"/><polygon fill="#333333" points="131.3149,246.7456,135.3149,256.7456,139.3149,246.7456,135.3149,250.7456" style="stroke:#333333;stroke-width:1;"/><line style="stroke:#333333;stroke-width:1;" x1="200.6841" x2="212.6841" y1="220.7456" y2="220.7456"/><polygon fill="#333333" points="208.6841,262.4951,212.6841,272.4951,216.6841,262.4951,212.6841,266.4951" style="stroke:#333333;stroke-width:1;"/><line style="stroke:#333333;stroke-width:1;" x1="212.6841" x2="212.6841" y1="220.7456" y2="320.2446"/><line style="stroke:#333333;stroke-width:1;" x1="212.6841" x2="147.3149" y1="320.2446" y2="320.2446"/><polygon fill="#333333" points="157.3149,316.2446,147.3149,320.2446,157.3149,324.2446,153.3149,320.2446" style="stroke:#333333;stroke-width:1;"/><line style="stroke:#333333;stroke-width:1;" x1="135.3149" x2="135.3149" y1="288.2446" y2="308.2446"/><polygon fill="#333333" points="131.3149,298.2446,135.3149,308.2446,139.3149,298.2446,135.3149,302.2446" style="stroke:#333333;stroke-width:1;"/><line style="stroke:#333333;stroke-width:1;" x1="135.3149" x2="135.3149" y1="188.7456" y2="208.7456"/><polygon fill="#333333" points="131.3149,198.7456,135.3149,208.7456,139.3149,198.7456,135.3149,202.7456" style="stroke:#333333;stroke-width:1;"/><line style="stroke:#333333;stroke-width:1;" x1="68.5146" x2="68.5146" y1="562.9902" y2="587.7397"/><polygon fill="#333333" points="64.5146,577.7397,68.5146,587.7397,72.5146,577.7397,68.5146,581.7397" style="stroke:#333333;stroke-width:1;"/><line style="stroke:#333333;stroke-width:1;" x1="68.5146" x2="68.5146" y1="456.7427" y2="531.4912"/><polygon fill="#333333" points="64.5146,521.4912,68.5146,531.4912,72.5146,521.4912,68.5146,525.4912" style="stroke:#333333;stroke-width:1;"/><line style="stroke:#333333;stroke-width:1;" x1="135.3149" x2="135.3149" y1="435.2427" y2="455.2427"/><polygon fill="#333333" points="131.3149,445.2427,135.3149,455.2427,139.3149,445.2427,135.3149,449.2427" style="stroke:#333333;stroke-width:1;"/><line style="stroke:#333333;stroke-width:1;" x1="572.4038" x2="572.4038" y1="614.4893" y2="634.4893"/><polygon fill="#333333" points="568.4038,624.4893,572.4038,634.4893,576.4038,624.4893,572.4038,628.4893" style="stroke:#333333;stroke-width:1;"/><line style="stroke:#333333;stroke-width:1;" x1="572.4038" x2="572.4038" y1="665.9883" y2="685.9883"/><polygon fill="#333333" points="568.4038,675.9883,572.4038,685.9883,576.4038,675.9883,572.4038,679.9883" style="stroke:#333333;stroke-width:1;"/><line style="stroke:#333333;stroke-width:1;" x1="135.3149" x2="135.3149" y1="332.2446" y2="337.2446"/><line style="stroke:#333333;stroke-width:1;" x1="135.3149" x2="308.4019" y1="337.2446" y2="337.2446"/><line style="stroke:#333333;stroke-width:1;" x1="308.4019" x2="308.4019" y1="337.2446" y2="352.2446"/><polygon fill="#333333" points="304.4019,342.2446,308.4019,352.2446,312.4019,342.2446,308.4019,346.2446" style="stroke:#333333;stroke-width:1;"/><line style="stroke:#333333;stroke-width:1;" x1="308.4019" x2="308.4019" y1="383.7437" y2="388.7437"/><line style="stroke:#333333;stroke-width:1;" x1="308.4019" x2="135.3149" y1="388.7437" y2="388.7437"/><line style="stroke:#333333;stroke-width:1;" x1="135.3149" x2="135.3149" y1="388.7437" y2="403.7437"/><polygon fill="#333333" points="131.3149,393.7437,135.3149,403.7437,139.3149,393.7437,135.3149,397.7437" style="stroke:#333333;stroke-width:1;"/><line style="stroke:#333333;stroke-width:1;" x1="369.9165" x2="369.9165" y1="506.7417" y2="511.7417"/><line style="stroke:#333333;stroke-width:1;" x1="369.9165" x2="461.6011" y1="511.7417" y2="511.7417"/><line style="stroke:#333333;stroke-width:1;" x1="461.6011" x2="461.6011" y1="511.7417" y2="526.7417"/><polygon fill="#333333" points="457.6011,516.7417,461.6011,526.7417,465.6011,516.7417,461.6011,520.7417" style="stroke:#333333;stroke-width:1;"/><line style="stroke:#333333;stroke-width:1;" x1="461.6011" x2="461.6011" y1="558.2407" y2="567.9902"/><line style="stroke:#333333;stroke-width:1;" x1="461.6011" x2="572.4038" y1="567.9902" y2="567.9902"/><line style="stroke:#333333;stroke-width:1;" x1="572.4038" x2="572.4038" y1="567.9902" y2="582.9902"/><polygon fill="#333333" points="568.4038,572.9902,572.4038,582.9902,576.4038,572.9902,572.4038,576.9902" style="stroke:#333333;stroke-width:1;"/><line style="stroke:#333333;stroke-width:1;" x1="196.8296" x2="196.8296" y1="456.7427" y2="460.2427"/><line style="stroke:#333333;stroke-width:1;" x1="196.8296" x2="369.9165" y1="460.2427" y2="460.2427"/><line style="stroke:#333333;stroke-width:1;" x1="369.9165" x2="369.9165" y1="460.2427" y2="475.2427"/><polygon fill="#333333" points="365.9165,465.2427,369.9165,475.2427,373.9165,465.2427,369.9165,469.2427" style="stroke:#333333;stroke-width:1;"/><text fill="#000000" font-family="Arial" font-size="11" lengthAdjust="spacing" textLength="53.1953" x="96.7444" y="58.4165">Veterin&#225;rio</text><text fill="#000000" font-family="Arial" font-size="11" lengthAdjust="spacing" textLength="39.7354" x="303.6309" y="58.4165">Sistema</text><text fill="#000000" font-family="Arial" font-size="11" lengthAdjust="spacing" textLength="25.6738" x="447.7642" y="58.4165">Tutor</text><text fill="#000000" font-family="Arial" font-size="11" lengthAdjust="spacing" textLength="36.0776" x="549.5078" y="58.4165">P&#250;blico</text><!--SRC=[NL31IiD04BtlLuot5j62e8Va846jzM29ZVGY8jFDr0viTilkHWJZnwW7_y5hVipfDY1ucvdtvirxSy1McxOcUDAkQPmzthQDKIfoD0HJqxuw4B3q5BHdZGw41dSBk70rATKjAP9dstzuTfqA4NrKMKM6D3kB7agAkSgAceV-bgJ4Xcnq8LUyXb7LhaBiFwrc554RlJDOu_aOueOiZ1vi_-KUnufC8Ea2Dz80P4iqN8jWCL_UL4MkoDQyLbt58LA3dSgkoGiymx21QbOSdPoUmQ4Op_zx7eZbvHIcpZSOiNQvKc5hEEuE3T7xR_415PeNp6KSejlkEO3Fo5P6VxTbQ-uYhoMfX_isEhzRwLALq0LfMb4wcf2o_raPrYw1Lq6Z9Vd6yEKynHN7Uxs9dxnj9DLxofmi_080]--></g></svg>