<?xml version="1.0" encoding="UTF-8"?>
<svg xmlns="http://www.w3.org/2000/svg" width="1206" height="570" viewBox="-76 -30 1206 570">
<defs><marker id="arrowhead" markerWidth="8" markerHeight="6" refX="8" refY="3" orient="auto"><polygon points="0 0, 8 3, 0 6" fill="#000"/></marker></defs>
<switch><g transform="translate(0.5,0.5)">








<rect x="10" y="5" width="1080" height="28" rx="4" ry="4" fill="#fff" stroke="#000" stroke-width="1.5"/><text x="550.0" y="19.0" text-anchor="middle" dominant-baseline="central" fill="#000" font-size="10" font-family="Arial">Fluxo de Prescrição com QR Code</text>
<rect x="30" y="70" width="1070" height="80" fill="#fff" stroke="#000" stroke-width="1.5"/><rect x="30" y="70" width="18" height="80" fill="#fff" stroke="#000" stroke-width="1"/><text x="39" y="110.0" text-anchor="middle" dominant-baseline="central" fill="#000" font-size="9" font-family="Arial" transform="rotate(-90,39,110.0)">Veterinário</text>
<rect x="30" y="150" width="1070" height="80" fill="#fff" stroke="#000" stroke-width="1.5"/><rect x="30" y="150" width="18" height="80" fill="#fff" stroke="#000" stroke-width="1"/><text x="39" y="190.0" text-anchor="middle" dominant-baseline="central" fill="#000" font-size="9" font-family="Arial" transform="rotate(-90,39,190.0)">Sistema</text>
<rect x="0" y="40" width="1100" height="200" rx="6" ry="6" fill="none" stroke="#000" stroke-width="2"/><rect x="0" y="40" width="28" height="200" fill="#e1d5e7" stroke="#000" stroke-width="2"/><text x="14" y="140.0" text-anchor="middle" dominant-baseline="central" fill="#000" font-size="11" font-family="Arial" transform="rotate(-90,14,140.0)">Clínica</text>
<rect x="30" y="285" width="1070" height="80" fill="#fff" stroke="#000" stroke-width="1.5"/><rect x="30" y="285" width="18" height="80" fill="#fff" stroke="#000" stroke-width="1"/><text x="39" y="325.0" text-anchor="middle" dominant-baseline="central" fill="#000" font-size="9" font-family="Arial" transform="rotate(-90,39,325.0)">Tutor</text>
<rect x="0" y="255" width="1100" height="120" rx="6" ry="6" fill="none" stroke="#000" stroke-width="2"/><rect x="0" y="255" width="28" height="120" fill="#e1d5e7" stroke="#000" stroke-width="2"/><text x="14" y="315.0" text-anchor="middle" dominant-baseline="central" fill="#000" font-size="11" font-family="Arial" transform="rotate(-90,14,315.0)">Tutor</text>
<rect x="30" y="420" width="1070" height="80" fill="#fff" stroke="#000" stroke-width="1.5"/><rect x="30" y="420" width="18" height="80" fill="#fff" stroke="#000" stroke-width="1"/><text x="39" y="460.0" text-anchor="middle" dominant-baseline="central" fill="#000" font-size="9" font-family="Arial" transform="rotate(-90,39,460.0)">Público</text>
<rect x="0" y="390" width="1100" height="120" rx="6" ry="6" fill="none" stroke="#000" stroke-width="2"/><rect x="0" y="390" width="28" height="120" fill="#e1d5e7" stroke="#000" stroke-width="2"/><text x="14" y="450.0" text-anchor="middle" dominant-baseline="central" fill="#000" font-size="11" font-family="Arial" transform="rotate(-90,14,450.0)">Público</text>
<ellipse cx="65" cy="110.0" rx="11.0" ry="11.0" fill="#d5e8d4" stroke="#82b366" stroke-width="2"/><text x="65" y="133.0" text-anchor="middle" fill="#000" font-size="9" font-family="Arial">Selecionar Pet</text>
<rect x="120" y="87.0" width="140" height="46" rx="4" ry="4" fill="#fff" stroke="#000" stroke-width="1.5"/><text x="190.0" y="110.0" text-anchor="middle" dominant-baseline="central" fill="#000" font-size="10" font-family="Arial">Adicionar Medicamentos
(fármaco, dose, frequência)</text>
<polygon points="357.0,83.0 384,110.0 357.0,137.0 330,110.0" fill="#ffe6cc" stroke="#d79b00" stroke-width="2"/><text x="357.0" y="110.0" text-anchor="middle" dominant-baseline="central" fill="#000" font-size="18" font-family="Arial">✕</text>
<rect x="480" y="87.0" width="140" height="46" rx="4" ry="4" fill="#fff" stroke="#000" stroke-width="1.5"/><text x="550.0" y="110.0" text-anchor="middle" dominant-baseline="central" fill="#000" font-size="10" font-family="Arial">Validar ANVISA
(Azul/Amarelo)</text>
<ellipse cx="491.0" cy="190.0" rx="11.0" ry="11.0" fill="#fff" stroke="#000" stroke-width="2"/><ellipse cx="491.0" cy="190.0" rx="7.0" ry="7.0" fill="none" stroke="#000" stroke-width="1" stroke-dasharray="2,2"/><text x="491.0" y="213.0" text-anchor="middle" fill="#000" font-size="9" font-family="Arial">Gerar Hash
SHA-256 + QR</text>
<rect x="680" y="87.0" width="140" height="46" rx="4" ry="4" fill="#fff" stroke="#000" stroke-width="1.5"/><text x="750.0" y="110.0" text-anchor="middle" dominant-baseline="central" fill="#000" font-size="10" font-family="Arial">Gerar PDF
Formatado</text>
<ellipse cx="691.0" cy="190.0" rx="11.0" ry="11.0" fill="#fff" stroke="#000" stroke-width="2"/><ellipse cx="691.0" cy="190.0" rx="7.0" ry="7.0" fill="none" stroke="#000" stroke-width="1" stroke-dasharray="2,2"/><text x="691.0" y="213.0" text-anchor="middle" fill="#000" font-size="9" font-family="Arial">Notificar
Tutor</text>
<rect x="680" y="302.0" width="140" height="46" rx="4" ry="4" fill="#fff" stroke="#000" stroke-width="1.5"/><text x="750.0" y="325.0" text-anchor="middle" dominant-baseline="central" fill="#000" font-size="10" font-family="Arial">Receber PDF</text>
<rect x="480" y="437.0" width="140" height="46" rx="4" ry="4" fill="#fff" stroke="#000" stroke-width="1.5"/><text x="550.0" y="460.0" text-anchor="middle" dominant-baseline="central" fill="#000" font-size="10" font-family="Arial">Escaneia QR Code</text>
<rect x="680" y="437.0" width="140" height="46" rx="4" ry="4" fill="#fff" stroke="#000" stroke-width="1.5"/><text x="750.0" y="460.0" text-anchor="middle" dominant-baseline="central" fill="#000" font-size="10" font-family="Arial">Verifica
/r/{hash}</text>
<ellipse cx="911.0" cy="110.0" rx="11.0" ry="11.0" fill="#f8cecc" stroke="#b85450" stroke-width="2"/><ellipse cx="911.0" cy="110.0" rx="7.0" ry="7.0" fill="none" stroke="#b85450" stroke-width="2"/><text x="911.0" y="133.0" text-anchor="middle" fill="#000" font-size="9" font-family="Arial">Prescrição
Salva</text>
<path d="M 76 110 L 91 110 L 91 110 L 120 110" fill="none" stroke="#000" stroke-width="1.5" marker-end="url(#arrowhead)"/>
<path d="M 260 110 L 295 110 L 295 110 L 330 110" fill="none" stroke="#000" stroke-width="1.5" marker-end="url(#arrowhead)"/>
<path d="M 384 110 L 432 110 L 432 110 L 480 110" fill="none" stroke="#000" stroke-width="1.5" marker-end="url(#arrowhead)"/>
<path d="M 550 133 L 550 156 L 491 156 L 491 179" fill="none" stroke="#000" stroke-width="1.5" marker-end="url(#arrowhead)"/>
<path d="M 502 190 L 591 190 L 591 110 L 680 110" fill="none" stroke="#000" stroke-width="1.5" marker-end="url(#arrowhead)"/>
<path d="M 820 110 L 860 110 L 860 110 L 900 110" fill="none" stroke="#000" stroke-width="1.5" marker-end="url(#arrowhead)"/>
<path d="M 750 133 L 750 156 L 691 156 L 691 179" fill="none" stroke="#000" stroke-width="1.5" stroke-dasharray="5,5" marker-end="url(#arrowhead)"/>
<path d="M 691 201 L 691 251.5 L 750 251.5 L 750 302" fill="none" stroke="#000" stroke-width="1.5" stroke-dasharray="5,5" marker-end="url(#arrowhead)"/>
<path d="M 680 325 L 650 325 L 650 460 L 620 460" fill="none" stroke="#000" stroke-width="1.5" stroke-dasharray="5,5" marker-end="url(#arrowhead)"/>
<path d="M 620 460 L 650 460 L 650 460 L 680 460" fill="none" stroke="#000" stroke-width="1.5" marker-end="url(#arrowhead)"/>
</g>
<foreignObject width="1100" height="450"><div xmlns="http://www.w3.org/1999/xhtml"><mxfile host="Generator" modified="2026-05-21T07:35:39.398227" agent="BPMN-PHASEX" version="24.0.5" type="device"><diagram id="06-fluxo-prescricao.svg" name="Page-1"><mxGraphModel dx="0" dy="0" grid="1" gridSize="10" guides="1" page="0" pageWidth="1100" pageHeight="450" math="0" shadow="0"><root><mxCell id="0"/><mxCell id="1" parent="0"/><mxCell id="c209" value="Fluxo de Prescrição com QR Code" style="text;html=1;strokeColor=none;fillColor=none;align=center;fontSize=14;fontStyle=1" vertex="1" parent="1"><mxGeometry x="10" y="5" width="1080" height="28" as="geometry"/></mxCell><mxCell id="c210" value="Veterinário" style="swimlane;startSize=18;fillColor=#d5e8d4;strokeColor=#000;horizontal=1;" vertex="1" parent="1"><mxGeometry x="30" y="70" width="1070" height="80" as="geometry"/></mxCell><mxCell id="c211" value="Sistema" style="swimlane;startSize=18;fillColor=#f5f5f5;strokeColor=#000;horizontal=1;" vertex="1" parent="1"><mxGeometry x="30" y="150" width="1070" height="80" as="geometry"/></mxCell><mxCell id="c212" value="Clínica" style="swimlane;startSize=0;fillColor=none;strokeColor=#000;" vertex="1" parent="1"><mxGeometry x="0" y="40" width="1100" height="200" as="geometry"/></mxCell><mxCell id="c213" value="Tutor" style="swimlane;startSize=18;fillColor=#e1d5e7;strokeColor=#000;horizontal=1;" vertex="1" parent="1"><mxGeometry x="30" y="285" width="1070" height="80" as="geometry"/></mxCell><mxCell id="c214" value="Tutor" style="swimlane;startSize=0;fillColor=none;strokeColor=#000;" vertex="1" parent="1"><mxGeometry x="0" y="255" width="1100" height="120" as="geometry"/></mxCell><mxCell id="c215" value="Público" style="swimlane;startSize=18;fillColor=#f5f5f5;strokeColor=#000;horizontal=1;" vertex="1" parent="1"><mxGeometry x="30" y="420" width="1070" height="80" as="geometry"/></mxCell><mxCell id="c216" value="Público" style="swimlane;startSize=0;fillColor=none;strokeColor=#000;" vertex="1" parent="1"><mxGeometry x="0" y="390" width="1100" height="120" as="geometry"/></mxCell><mxCell id="c217" value="Selecionar Pet" style="ellipse;whiteSpace=wrap;html=1;fillColor=#d5e8d4;strokeColor=#82b366;" vertex="1" parent="1"><mxGeometry x="40" y="99.0" width="22" height="22" as="geometry"/></mxCell><mxCell id="c218" value="Adicionar Medicamentos
(fármaco, dose, frequência)" style="rounded=1;whiteSpace=wrap;html=1;" vertex="1" parent="1"><mxGeometry x="120" y="87.0" width="140" height="46" as="geometry"/></mxCell><mxCell id="c219" value="Substância
Controlada?" style="rhombus;whiteSpace=wrap;html=1;fillColor=#ffe6cc;strokeColor=#d79b00;" vertex="1" parent="1"><mxGeometry x="330" y="83.0" width="54" height="54" as="geometry"/></mxCell><mxCell id="c220" value="Validar ANVISA
(Azul/Amarelo)" style="rounded=1;whiteSpace=wrap;html=1;" vertex="1" parent="1"><mxGeometry x="480" y="87.0" width="140" height="46" as="geometry"/></mxCell><mxCell id="c221" value="Gerar Hash
SHA-256 + QR" style="rounded=1;whiteSpace=wrap;html=1;" vertex="1" parent="1"><mxGeometry x="480" y="179.0" width="22" height="22" as="geometry"/></mxCell><mxCell id="c222" value="Gerar PDF
Formatado" style="rounded=1;whiteSpace=wrap;html=1;" vertex="1" parent="1"><mxGeometry x="680" y="87.0" width="140" height="46" as="geometry"/></mxCell><mxCell id="c223" value="Notificar
Tutor" style="rounded=1;whiteSpace=wrap;html=1;" vertex="1" parent="1"><mxGeometry x="680" y="179.0" width="22" height="22" as="geometry"/></mxCell><mxCell id="c224" value="Receber PDF" style="rounded=1;whiteSpace=wrap;html=1;" vertex="1" parent="1"><mxGeometry x="680" y="302.0" width="140" height="46" as="geometry"/></mxCell><mxCell id="c225" value="Escaneia QR Code" style="rounded=1;whiteSpace=wrap;html=1;" vertex="1" parent="1"><mxGeometry x="480" y="437.0" width="140" height="46" as="geometry"/></mxCell><mxCell id="c226" value="Verifica
/r/{hash}" style="rounded=1;whiteSpace=wrap;html=1;" vertex="1" parent="1"><mxGeometry x="680" y="437.0" width="140" height="46" as="geometry"/></mxCell><mxCell id="c227" value="Prescrição
Salva" style="ellipse;whiteSpace=wrap;html=1;fillColor=#f8cecc;strokeColor=#b85450;" vertex="1" parent="1"><mxGeometry x="900" y="99.0" width="22" height="22" as="geometry"/></mxCell><mxCell id="c228" edge="1" parent="1" source="c217" target="c218" style="edgeStyle=orthogonalEdgeStyle;rounded=0;html=1;"><mxGeometry relative="1" as="geometry"/></mxCell><mxCell id="c229" edge="1" parent="1" source="c218" target="c219" style="edgeStyle=orthogonalEdgeStyle;rounded=0;html=1;"><mxGeometry relative="1" as="geometry"/></mxCell><mxCell id="c230" edge="1" parent="1" source="c219" target="c220" style="edgeStyle=orthogonalEdgeStyle;rounded=0;html=1;"><mxGeometry relative="1" as="geometry"/></mxCell><mxCell id="c231" edge="1" parent="1" source="c220" target="c221" style="edgeStyle=orthogonalEdgeStyle;rounded=0;html=1;"><mxGeometry relative="1" as="geometry"/></mxCell><mxCell id="c232" edge="1" parent="1" source="c221" target="c222" style="edgeStyle=orthogonalEdgeStyle;rounded=0;html=1;"><mxGeometry relative="1" as="geometry"/></mxCell><mxCell id="c233" edge="1" parent="1" source="c222" target="c227" style="edgeStyle=orthogonalEdgeStyle;rounded=0;html=1;"><mxGeometry relative="1" as="geometry"/></mxCell><mxCell id="c234" edge="1" parent="1" source="c222" target="c223" style="edgeStyle=orthogonalEdgeStyle;rounded=0;html=1;dashed=1;"><mxGeometry relative="1" as="geometry"/></mxCell><mxCell id="c235" edge="1" parent="1" source="c223" target="c224" style="edgeStyle=orthogonalEdgeStyle;rounded=0;html=1;dashed=1;"><mxGeometry relative="1" as="geometry"/></mxCell><mxCell id="c236" edge="1" parent="1" source="c224" target="c225" style="edgeStyle=orthogonalEdgeStyle;rounded=0;html=1;dashed=1;"><mxGeometry relative="1" as="geometry"/></mxCell><mxCell id="c237" edge="1" parent="1" source="c225" target="c226" style="edgeStyle=orthogonalEdgeStyle;rounded=0;html=1;"><mxGeometry relative="1" as="geometry"/></mxCell></root></mxGraphModel></diagram></mxfile></div></foreignObject></switch>
</svg>