<svg xmlns="http://www.w3.org/2000/svg" xmlns:xlink="http://www.w3.org/1999/xlink" contentStyleType="text/css" data-diagram-type="ACTIVITY" height="634px" preserveAspectRatio="none" style="width:784px;height:634px;background:#FEFEFE;" version="1.1" viewBox="0 0 784 634" width="784px" zoomAndPan="magnify"><title>Fluxo de Vacinacao</title><defs/><g><rect fill="#FEFEFE" height="634" style="stroke:none;stroke-width:1;" width="784" x="0" y="0"/><text fill="#000000" font-family="Arial" font-size="14" font-weight="bold" lengthAdjust="spacing" textLength="130.71" x="325.5167" y="33.1318">Fluxo de Vacinacao</text><rect fill="none" height="12.6489" style="stroke:none;stroke-width:1;" width="751.7434" x="15" y="48.0986"/><ellipse cx="140.0439" cy="75.7476" fill="#222222" rx="10" ry="10" style="stroke:#222222;stroke-width:1;"/><rect fill="#FFFFFF" height="31.499" rx="12.5" ry="12.5" style="stroke:#333333;stroke-width:0.5;" width="127.0117" x="76.5381" y="105.7476"/><text fill="#000000" font-family="Arial" font-size="10" lengthAdjust="spacing" textLength="107.0117" x="86.5381" y="125.1274">Selecionar Pet + Vacina</text><polygon fill="#FFFFFF" points="103.6353,157.2466,176.4526,157.2466,188.4526,169.2466,176.4526,181.2466,103.6353,181.2466,91.6353,169.2466,103.6353,157.2466" style="stroke:#333333;stroke-width:0.5;"/><text fill="#000000" font-family="Arial" font-size="10" lengthAdjust="spacing" textLength="72.8174" x="103.6353" y="172.877">Protocolo Ativo?</text><text fill="#000000" font-family="Arial" font-size="9" lengthAdjust="spacing" textLength="20.0171" x="71.6182" y="167.3394">[n&#227;o]</text><text fill="#000000" font-family="Arial" font-size="9" lengthAdjust="spacing" textLength="18.9976" x="188.4526" y="167.3394">[sim]</text><rect fill="#FFFFFF" height="31.499" rx="12.5" ry="12.5" style="stroke:#333333;stroke-width:0.5;" width="161.4648" x="131.2158" y="201.2466"/><text fill="#000000" font-family="Arial" font-size="10" lengthAdjust="spacing" textLength="141.4648" x="141.2158" y="220.6265">Sugerir Vacina Dose + Intervalo</text><polygon fill="#FFFFFF" points="140.0439,242.7456,152.0439,254.7456,140.0439,266.7456,128.0439,254.7456,140.0439,242.7456" style="stroke:#333333;stroke-width:0.5;"/><rect fill="#FFFFFF" height="31.499" rx="12.5" ry="12.5" style="stroke:#333333;stroke-width:0.5;" width="83.9209" x="98.0835" y="338.2446"/><text fill="#000000" font-family="Arial" font-size="10" lengthAdjust="spacing" textLength="63.9209" x="108.0835" y="357.6245">Aplicar Vacina</text><line style="stroke:#333333;stroke-width:1.5;" x1="71.8569" x2="204.9009" y1="492.7417" y2="492.7417"/><rect fill="#FFFFFF" height="31.499" rx="12.5" ry="12.5" style="stroke:#333333;stroke-width:0.5;" width="101.7139" x="21" y="512.7417"/><text fill="#000000" font-family="Arial" font-size="10" lengthAdjust="spacing" textLength="81.7139" x="31" y="532.1216">Vacina Registrada</text><ellipse cx="71.8569" cy="590.2407" fill="none" rx="11" ry="11" style="stroke:#222222;stroke-width:1;"/><ellipse cx="71.8569" cy="590.2407" fill="#222222" rx="6" ry="6" style="stroke:#222222;stroke-width:1;"/><line style="stroke:#333333;stroke-width:1.5;" x1="15" x2="15" y1="48.0986" y2="622.7407"/><rect fill="#FFFFFF" height="31.499" rx="12.5" ry="12.5" style="stroke:#333333;stroke-width:0.5;" width="86.1523" x="302.6807" y="201.2466"/><text fill="#000000" font-family="Arial" font-size="10" lengthAdjust="spacing" textLength="66.1523" x="312.6807" y="220.6265">Lan&#231;ar Manual</text><rect fill="#FFFFFF" height="31.499" rx="12.5" ry="12.5" style="stroke:#333333;stroke-width:0.5;" width="129.79" x="352.7661" y="286.7456"/><text fill="#000000" font-family="Arial" font-size="10" lengthAdjust="spacing" textLength="109.79" x="362.7661" y="306.1255">Informar Lote + Validade</text><line style="stroke:#333333;stroke-width:1.5;" x1="296.6807" x2="296.6807" y1="48.0986" y2="622.7407"/><rect fill="#FFFFFF" height="31.499" rx="12.5" ry="12.5" style="stroke:#333333;stroke-width:0.5;" width="118.916" x="504.2407" y="389.7437"/><text fill="#000000" font-family="Arial" font-size="10" lengthAdjust="spacing" textLength="98.916" x="514.2407" y="409.1235">Gerar Certificado PDF</text><rect fill="#FFFFFF" height="31.499" rx="12.5" ry="12.5" style="stroke:#333333;stroke-width:0.5;" width="142.2852" x="492.5562" y="441.2427"/><text fill="#000000" font-family="Arial" font-size="10" lengthAdjust="spacing" textLength="122.2852" x="502.5562" y="460.6226">Agendar Pr&#243;ximo Lembrete</text><line style="stroke:#333333;stroke-width:1.5;" x1="486.5562" x2="486.5562" y1="48.0986" y2="622.7407"/><rect fill="#FFFFFF" height="31.499" rx="12.5" ry="12.5" style="stroke:#333333;stroke-width:0.5;" width="108.374" x="653.8413" y="541.2417"/><text fill="#000000" font-family="Arial" font-size="10" lengthAdjust="spacing" textLength="88.374" x="663.8413" y="560.6216">Receber Certificado</text><line style="stroke:#333333;stroke-width:1.5;" x1="643.8413" x2="708.0283" y1="621.2407" y2="621.2407"/><line style="stroke:#333333;stroke-width:1.5;" x1="638.8413" x2="638.8413" y1="48.0986" y2="622.7407"/><line style="stroke:#333333;stroke-width:1.5;" x1="766.2153" x2="766.2153" y1="48.0986" y2="622.7407"/><line style="stroke:#333333;stroke-width:1;" x1="140.0439" x2="140.0439" y1="85.7476" y2="105.7476"/><polygon fill="#333333" points="136.0439,95.7476,140.0439,105.7476,144.0439,95.7476,140.0439,99.7476" style="stroke:#333333;stroke-width:1;"/><line style="stroke:#333333;stroke-width:1;" x1="188.4526" x2="211.9482" y1="169.2466" y2="169.2466"/><line style="stroke:#333333;stroke-width:1;" x1="211.9482" x2="211.9482" y1="169.2466" y2="201.2466"/><polygon fill="#333333" points="207.9482,191.2466,211.9482,201.2466,215.9482,191.2466,211.9482,195.2466" style="stroke:#333333;stroke-width:1;"/><line style="stroke:#333333;stroke-width:1;" x1="211.9482" x2="211.9482" y1="232.7456" y2="254.7456"/><line style="stroke:#333333;stroke-width:1;" x1="211.9482" x2="152.0439" y1="254.7456" y2="254.7456"/><polygon fill="#333333" points="162.0439,250.7456,152.0439,254.7456,162.0439,258.7456,158.0439,254.7456" style="stroke:#333333;stroke-width:1;"/><line style="stroke:#333333;stroke-width:1;" x1="140.0439" x2="140.0439" y1="137.2466" y2="157.2466"/><polygon fill="#333333" points="136.0439,147.2466,140.0439,157.2466,144.0439,147.2466,140.0439,151.2466" style="stroke:#333333;stroke-width:1;"/><line style="stroke:#333333;stroke-width:1;" x1="71.8569" x2="71.8569" y1="544.2407" y2="579.2407"/><polygon fill="#333333" points="67.8569,569.2407,71.8569,579.2407,75.8569,569.2407,71.8569,573.2407" style="stroke:#333333;stroke-width:1;"/><line style="stroke:#333333;stroke-width:1;" x1="71.8569" x2="71.8569" y1="494.2417" y2="512.7417"/><polygon fill="#333333" points="67.8569,502.7417,71.8569,512.7417,75.8569,502.7417,71.8569,506.7417" style="stroke:#333333;stroke-width:1;"/><line style="stroke:#333333;stroke-width:1;" x1="563.6987" x2="563.6987" y1="421.2427" y2="441.2427"/><polygon fill="#333333" points="559.6987,431.2427,563.6987,441.2427,567.6987,431.2427,563.6987,435.2427" style="stroke:#333333;stroke-width:1;"/><line style="stroke:#333333;stroke-width:1;" x1="708.0283" x2="708.0283" y1="572.7407" y2="621.2407"/><polygon fill="#333333" points="704.0283,611.2407,708.0283,621.2407,712.0283,611.2407,708.0283,615.2407" style="stroke:#333333;stroke-width:1;"/><line style="stroke:#333333;stroke-width:1;" x1="91.6353" x2="79.6353" y1="169.2466" y2="169.2466"/><line style="stroke:#333333;stroke-width:1;" x1="79.6353" x2="79.6353" y1="169.2466" y2="187.2466"/><line style="stroke:#333333;stroke-width:1;" x1="79.6353" x2="345.7568" y1="187.2466" y2="187.2466"/><line style="stroke:#333333;stroke-width:1;" x1="345.7568" x2="345.7568" y1="187.2466" y2="201.2466"/><polygon fill="#333333" points="341.7568,191.2466,345.7568,201.2466,349.7568,191.2466,345.7568,195.2466" style="stroke:#333333;stroke-width:1;"/><line style="stroke:#333333;stroke-width:1;" x1="345.7568" x2="345.7568" y1="232.7456" y2="236.7456"/><line style="stroke:#333333;stroke-width:1;" x1="345.7568" x2="110.0439" y1="236.7456" y2="236.7456"/><line style="stroke:#333333;stroke-width:1;" x1="110.0439" x2="110.0439" y1="236.7456" y2="254.7456"/><line style="stroke:#333333;stroke-width:1;" x1="110.0439" x2="128.0439" y1="254.7456" y2="254.7456"/><polygon fill="#333333" points="118.0439,250.7456,128.0439,254.7456,118.0439,258.7456,122.0439,254.7456" style="stroke:#333333;stroke-width:1;"/><line style="stroke:#333333;stroke-width:1;" x1="140.0439" x2="140.0439" y1="266.7456" y2="271.7456"/><line style="stroke:#333333;stroke-width:1;" x1="140.0439" x2="417.6611" y1="271.7456" y2="271.7456"/><line style="stroke:#333333;stroke-width:1;" x1="417.6611" x2="417.6611" y1="271.7456" y2="286.7456"/><polygon fill="#333333" points="413.6611,276.7456,417.6611,286.7456,421.6611,276.7456,417.6611,280.7456" style="stroke:#333333;stroke-width:1;"/><line style="stroke:#333333;stroke-width:1;" x1="417.6611" x2="417.6611" y1="318.2446" y2="323.2446"/><line style="stroke:#333333;stroke-width:1;" x1="417.6611" x2="140.0439" y1="323.2446" y2="323.2446"/><line style="stroke:#333333;stroke-width:1;" x1="140.0439" x2="140.0439" y1="323.2446" y2="338.2446"/><polygon fill="#333333" points="136.0439,328.2446,140.0439,338.2446,144.0439,328.2446,140.0439,332.2446" style="stroke:#333333;stroke-width:1;"/><line style="stroke:#333333;stroke-width:1;" x1="140.0439" x2="140.0439" y1="369.7437" y2="374.7437"/><line style="stroke:#333333;stroke-width:1;" x1="140.0439" x2="563.6987" y1="374.7437" y2="374.7437"/><line style="stroke:#333333;stroke-width:1;" x1="563.6987" x2="563.6987" y1="374.7437" y2="389.7437"/><polygon fill="#333333" points="559.6987,379.7437,563.6987,389.7437,567.6987,379.7437,563.6987,383.7437" style="stroke:#333333;stroke-width:1;"/><line style="stroke:#333333;stroke-width:1;" x1="204.9009" x2="204.9009" y1="494.2417" y2="497.7417"/><line style="stroke:#333333;stroke-width:1;" x1="204.9009" x2="708.0283" y1="497.7417" y2="497.7417"/><line style="stroke:#333333;stroke-width:1;" x1="708.0283" x2="708.0283" y1="497.7417" y2="541.2417"/><polygon fill="#333333" points="704.0283,531.2417,708.0283,541.2417,712.0283,531.2417,708.0283,535.2417" style="stroke:#333333;stroke-width:1;"/><line style="stroke:#333333;stroke-width:1;" x1="563.6987" x2="563.6987" y1="472.7417" y2="477.7417"/><line style="stroke:#333333;stroke-width:1;" x1="563.6987" x2="140.0439" y1="477.7417" y2="477.7417"/><line style="stroke:#333333;stroke-width:1;" x1="140.0439" x2="140.0439" y1="477.7417" y2="492.7417"/><polygon fill="#333333" points="136.0439,482.7417,140.0439,492.7417,144.0439,482.7417,140.0439,486.7417" style="stroke:#333333;stroke-width:1;"/><text fill="#000000" font-family="Arial" font-size="11" lengthAdjust="spacing" textLength="53.1953" x="129.2427" y="58.4165">Veterin&#225;rio</text><text fill="#000000" font-family="Arial" font-size="11" lengthAdjust="spacing" textLength="69.0938" x="357.0715" y="58.4165">Recepcionista</text><text fill="#000000" font-family="Arial" font-size="11" lengthAdjust="spacing" textLength="39.7354" x="542.8311" y="58.4165">Sistema</text><text fill="#000000" font-family="Arial" font-size="11" lengthAdjust="spacing" textLength="25.6738" x="689.6914" y="58.4165">Tutor</text><!--SRC=[RP11QiD034NtSmfrbn3e0Un52GqfWHH2Kh8ffIXZsHNCZCnu7BBmPKeNFK2Fu8jLTa8XeTkHtllwSyV1khOWUBVYlOJxklNEcCJ94InTUnBGuHuj1xGendHxIXGvz9-HfJDDmfXCjYD7bYLWX0qbc5s8t709aqsK95QSm3pnKHwca3uemEGrz5_oDZK0tPOirOE0LTZfIxR6q7-hxXb3Youtv1fIf65_9gxFK63NLleGBycm4DsVmIhesX6Tg24KN9hRg6mLIebUazQIQBpSSO45vRTLitdjs6BywzRjL45-a3nHrC4ZnSIbxXG2cyKoLwJIrE5JOlzpOY-m9d-8gisDQLIN_grogR2bIWCY5fe5q2IfpmnWXHm6ygLD4aTaQ7MWgnF6nYFm2m00]--></g></svg>