<svg xmlns="http://www.w3.org/2000/svg" xmlns:xlink="http://www.w3.org/1999/xlink" contentStyleType="text/css" data-diagram-type="ACTIVITY" height="480px" preserveAspectRatio="none" style="width:657px;height:480px;background:#FEFEFE;" version="1.1" viewBox="0 0 657 480" width="657px" zoomAndPan="magnify"><title>Fluxo de Exame</title><defs/><g><rect fill="#FEFEFE" height="480" style="stroke:none;stroke-width:1;" width="657" x="0" y="0"/><text fill="#000000" font-family="Arial" font-size="14" font-weight="bold" lengthAdjust="spacing" textLength="106.5928" x="274.0914" y="33.1318">Fluxo de Exame</text><rect fill="none" height="12.6489" style="stroke:none;stroke-width:1;" width="624.7756" x="15" y="48.0986"/><ellipse cx="95.04" cy="75.7476" fill="#222222" rx="10" ry="10" style="stroke:#222222;stroke-width:1;"/><rect fill="#FFFFFF" height="31.499" rx="12.5" ry="12.5" style="stroke:#333333;stroke-width:0.5;" width="89.4678" x="50.3062" y="105.7476"/><text fill="#000000" font-family="Arial" font-size="10" lengthAdjust="spacing" textLength="69.4678" x="60.3062" y="125.1274">Solicitar Exame</text><polygon fill="#FFFFFF" points="82.5327,157.2466,107.5474,157.2466,119.5474,169.2466,107.5474,181.2466,82.5327,181.2466,70.5327,169.2466,82.5327,157.2466" style="stroke:#333333;stroke-width:0.5;"/><text fill="#000000" font-family="Arial" font-size="10" lengthAdjust="spacing" textLength="25.0146" x="82.5327" y="172.877">Tipo?</text><text fill="#000000" font-family="Arial" font-size="9" lengthAdjust="spacing" textLength="50.5327" x="20" y="167.3394">[Laborat&#243;rio]</text><text fill="#000000" font-family="Arial" font-size="9" lengthAdjust="spacing" textLength="37.5117" x="119.5474" y="167.3394">[Imagem]</text><polygon fill="#FFFFFF" points="95.04,242.7456,107.04,254.7456,95.04,266.7456,83.04,254.7456,95.04,242.7456" style="stroke:#333333;stroke-width:0.5;"/><rect fill="#FFFFFF" height="31.499" rx="12.5" ry="12.5" style="stroke:#333333;stroke-width:0.5;" width="36.6602" x="146.2886" y="358.2446"/><text fill="#000000" font-family="Arial" font-size="10" lengthAdjust="spacing" textLength="16.6602" x="156.2886" y="377.6245">Fim</text><ellipse cx="164.6187" cy="435.7437" fill="none" rx="11" ry="11" style="stroke:#222222;stroke-width:1;"/><ellipse cx="164.6187" cy="435.7437" fill="#222222" rx="6" ry="6" style="stroke:#222222;stroke-width:1;"/><line style="stroke:#333333;stroke-width:1.5;" x1="62.71" x2="95.04" y1="466.7437" y2="466.7437"/><line style="stroke:#333333;stroke-width:1.5;" x1="15" x2="15" y1="48.0986" y2="468.2437"/><rect fill="#FFFFFF" height="31.499" rx="12.5" ry="12.5" style="stroke:#333333;stroke-width:0.5;" width="142.5781" x="192.9487" y="201.2466"/><text fill="#000000" font-family="Arial" font-size="10" lengthAdjust="spacing" textLength="122.5781" x="202.9487" y="220.6265">Laborat&#243;rio (coleta + laudo)</text><rect fill="#FFFFFF" height="31.499" rx="12.5" ry="12.5" style="stroke:#333333;stroke-width:0.5;" width="147.5635" x="355.5269" y="201.2466"/><text fill="#000000" font-family="Arial" font-size="10" lengthAdjust="spacing" textLength="127.5635" x="365.5269" y="220.6265">Imagem (laudo + assinatura)</text><rect fill="#FFFFFF" height="31.499" rx="12.5" ry="12.5" style="stroke:#333333;stroke-width:0.5;" width="106.7285" x="293.4089" y="286.7456"/><text fill="#000000" font-family="Arial" font-size="10" lengthAdjust="spacing" textLength="86.7285" x="303.4089" y="306.1255">Resultado Liberado</text><line style="stroke:#333333;stroke-width:1.5;" x1="186.9487" x2="186.9487" y1="48.0986" y2="468.2437"/><line style="stroke:#333333;stroke-width:1.5;" x1="568.6689" x2="634.2476" y1="338.2446" y2="338.2446"/><rect fill="#FFFFFF" height="31.499" rx="12.5" ry="12.5" style="stroke:#333333;stroke-width:0.5;" width="111.1572" x="513.0903" y="386.7446"/><text fill="#000000" font-family="Arial" font-size="10" lengthAdjust="spacing" textLength="91.1572" x="523.0903" y="406.1245">Visualizar Resultado</text><line style="stroke:#333333;stroke-width:1.5;" x1="507.0903" x2="507.0903" y1="48.0986" y2="468.2437"/><line style="stroke:#333333;stroke-width:1.5;" x1="639.2476" x2="639.2476" y1="48.0986" y2="468.2437"/><line style="stroke:#333333;stroke-width:1;" x1="95.04" x2="95.04" y1="85.7476" y2="105.7476"/><polygon fill="#333333" points="91.04,95.7476,95.04,105.7476,99.04,95.7476,95.04,99.7476" style="stroke:#333333;stroke-width:1;"/><line style="stroke:#333333;stroke-width:1;" x1="95.04" x2="95.04" y1="137.2466" y2="157.2466"/><polygon fill="#333333" points="91.04,147.2466,95.04,157.2466,99.04,147.2466,95.04,151.2466" style="stroke:#333333;stroke-width:1;"/><line style="stroke:#333333;stroke-width:1;" x1="164.6187" x2="164.6187" y1="389.7437" y2="424.7437"/><polygon fill="#333333" points="160.6187,414.7437,164.6187,424.7437,168.6187,414.7437,164.6187,418.7437" style="stroke:#333333;stroke-width:1;"/><line style="stroke:#333333;stroke-width:1;" x1="568.6689" x2="568.6689" y1="339.7446" y2="386.7446"/><polygon fill="#333333" points="564.6689,376.7446,568.6689,386.7446,572.6689,376.7446,568.6689,380.7446" style="stroke:#333333;stroke-width:1;"/><line style="stroke:#333333;stroke-width:1;" x1="70.5327" x2="58.5327" y1="169.2466" y2="169.2466"/><line style="stroke:#333333;stroke-width:1;" x1="58.5327" x2="58.5327" y1="169.2466" y2="187.2466"/><line style="stroke:#333333;stroke-width:1;" x1="58.5327" x2="264.2378" y1="187.2466" y2="187.2466"/><line style="stroke:#333333;stroke-width:1;" x1="264.2378" x2="264.2378" y1="187.2466" y2="201.2466"/><polygon fill="#333333" points="260.2378,191.2466,264.2378,201.2466,268.2378,191.2466,264.2378,195.2466" style="stroke:#333333;stroke-width:1;"/><line style="stroke:#333333;stroke-width:1;" x1="119.5474" x2="429.3086" y1="169.2466" y2="169.2466"/><line style="stroke:#333333;stroke-width:1;" x1="429.3086" x2="429.3086" y1="169.2466" y2="201.2466"/><polygon fill="#333333" points="425.3086,191.2466,429.3086,201.2466,433.3086,191.2466,429.3086,195.2466" style="stroke:#333333;stroke-width:1;"/><line style="stroke:#333333;stroke-width:1;" x1="264.2378" x2="264.2378" y1="232.7456" y2="236.7456"/><line style="stroke:#333333;stroke-width:1;" x1="264.2378" x2="65.04" y1="236.7456" y2="236.7456"/><line style="stroke:#333333;stroke-width:1;" x1="65.04" x2="65.04" y1="236.7456" y2="254.7456"/><line style="stroke:#333333;stroke-width:1;" x1="65.04" x2="83.04" y1="254.7456" y2="254.7456"/><polygon fill="#333333" points="73.04,250.7456,83.04,254.7456,73.04,258.7456,77.04,254.7456" style="stroke:#333333;stroke-width:1;"/><line style="stroke:#333333;stroke-width:1;" x1="429.3086" x2="429.3086" y1="232.7456" y2="254.7456"/><line style="stroke:#333333;stroke-width:1;" x1="429.3086" x2="107.04" y1="254.7456" y2="254.7456"/><polygon fill="#333333" points="117.04,250.7456,107.04,254.7456,117.04,258.7456,113.04,254.7456" style="stroke:#333333;stroke-width:1;"/><line style="stroke:#333333;stroke-width:1;" x1="95.04" x2="95.04" y1="266.7456" y2="271.7456"/><line style="stroke:#333333;stroke-width:1;" x1="95.04" x2="346.7732" y1="271.7456" y2="271.7456"/><line style="stroke:#333333;stroke-width:1;" x1="346.7732" x2="346.7732" y1="271.7456" y2="286.7456"/><polygon fill="#333333" points="342.7732,276.7456,346.7732,286.7456,350.7732,276.7456,346.7732,280.7456" style="stroke:#333333;stroke-width:1;"/><line style="stroke:#333333;stroke-width:1;" x1="634.2476" x2="634.2476" y1="339.7446" y2="343.2446"/><line style="stroke:#333333;stroke-width:1;" x1="634.2476" x2="164.6187" y1="343.2446" y2="343.2446"/><line style="stroke:#333333;stroke-width:1;" x1="164.6187" x2="164.6187" y1="343.2446" y2="358.2446"/><polygon fill="#333333" points="160.6187,348.2446,164.6187,358.2446,168.6187,348.2446,164.6187,352.2446" style="stroke:#333333;stroke-width:1;"/><line style="stroke:#333333;stroke-width:1;" x1="568.6689" x2="568.6689" y1="418.2437" y2="452.7437"/><line style="stroke:#333333;stroke-width:1;" x1="568.6689" x2="62.71" y1="452.7437" y2="452.7437"/><line style="stroke:#333333;stroke-width:1;" x1="62.71" x2="62.71" y1="452.7437" y2="466.7437"/><polygon fill="#333333" points="58.71,456.7437,62.71,466.7437,66.71,456.7437,62.71,460.7437" style="stroke:#333333;stroke-width:1;"/><line style="stroke:#333333;stroke-width:1;" x1="346.7732" x2="346.7732" y1="318.2446" y2="323.2446"/><line style="stroke:#333333;stroke-width:1;" x1="346.7732" x2="600.999" y1="323.2446" y2="323.2446"/><line style="stroke:#333333;stroke-width:1;" x1="600.999" x2="600.999" y1="323.2446" y2="338.2446"/><polygon fill="#333333" points="596.999,328.2446,600.999,338.2446,604.999,328.2446,600.999,332.2446" style="stroke:#333333;stroke-width:1;"/><text fill="#000000" font-family="Arial" font-size="11" lengthAdjust="spacing" textLength="53.1953" x="74.3767" y="58.4165">Veterin&#225;rio</text><text fill="#000000" font-family="Arial" font-size="11" lengthAdjust="spacing" textLength="39.7354" x="327.1519" y="58.4165">Sistema</text><text fill="#000000" font-family="Arial" font-size="11" lengthAdjust="spacing" textLength="25.6738" x="560.332" y="58.4165">Tutor</text><!--SRC=[PP11QWCn34NtEeMwcw7G0umNNJLGoAe9sOHIb1ab5TZMOCiGobocP-WHSh5wPg2qTAMF_dzVs7SIUry6nhTUGz3uC9RW0KpCCsvykIfMy-bAWG6c0nidYRVF93f1Dae6tKwzz5Br6dCWPspsCkfZY_RE4PlZbawQo6vVbNjj0N7QIJOED5NT_NQnwTMp4TwZfp9ewu1zvjhn7EZ2uJ-zxh5PuXMZd2MIbKGp6mSvG_V2kNYZwc_bnAaA1v17BpQtxOjfMheEaWjv-QXl-K7S6aIwaCGv_lSJAhMHuEhCfkDyS8b_0m00]--></g></svg>