<svg xmlns="http://www.w3.org/2000/svg" xmlns:xlink="http://www.w3.org/1999/xlink" contentStyleType="text/css" data-diagram-type="ACTIVITY" height="583px" preserveAspectRatio="none" style="width:748px;height:583px;background:#FEFEFE;" version="1.1" viewBox="0 0 748 583" width="748px" zoomAndPan="magnify"><title>Fluxo de Laboratorio</title><defs/><g><rect fill="#FEFEFE" height="583" style="stroke:none;stroke-width:1;" width="748" x="0" y="0"/><text fill="#000000" font-family="Arial" font-size="14" font-weight="bold" lengthAdjust="spacing" textLength="139.2275" x="303.2919" y="33.1318">Fluxo de Laboratorio</text><rect fill="none" height="12.6489" style="stroke:none;stroke-width:1;" width="715.8113" x="15" y="48.0986"/><ellipse cx="70.4702" cy="75.7476" fill="#222222" rx="10" ry="10" style="stroke:#222222;stroke-width:1;"/><rect fill="#FFFFFF" height="31.499" rx="12.5" ry="12.5" style="stroke:#333333;stroke-width:0.5;" width="98.9404" x="21" y="105.7476"/><text fill="#000000" font-family="Arial" font-size="10" lengthAdjust="spacing" textLength="78.9404" x="31" y="125.1274">Pedido de Exame</text><rect fill="#FFFFFF" height="31.499" rx="12.5" ry="12.5" style="stroke:#333333;stroke-width:0.5;" width="36.6602" x="112.2656" y="461.2427"/><text fill="#000000" font-family="Arial" font-size="10" lengthAdjust="spacing" textLength="16.6602" x="122.2656" y="480.6226">Fim</text><ellipse cx="130.5957" cy="538.7417" fill="none" rx="11" ry="11" style="stroke:#222222;stroke-width:1;"/><ellipse cx="130.5957" cy="538.7417" fill="#222222" rx="6" ry="6" style="stroke:#222222;stroke-width:1;"/><line style="stroke:#333333;stroke-width:1.5;" x1="38.1401" x2="70.4702" y1="569.7417" y2="569.7417"/><line style="stroke:#333333;stroke-width:1.5;" x1="15" x2="15" y1="48.0986" y2="571.2417"/><rect fill="#FFFFFF" height="31.499" rx="12.5" ry="12.5" style="stroke:#333333;stroke-width:0.5;" width="92.251" x="244.8711" y="157.2466"/><text fill="#000000" font-family="Arial" font-size="10" lengthAdjust="spacing" textLength="72.251" x="254.8711" y="176.6265">Registrar Coleta</text><rect fill="#FFFFFF" height="31.499" rx="12.5" ry="12.5" style="stroke:#333333;stroke-width:0.5;" width="110.6152" x="158.9258" y="252.7456"/><text fill="#000000" font-family="Arial" font-size="10" lengthAdjust="spacing" textLength="90.6152" x="168.9258" y="272.1255">Lan&#231;amento Manual</text><line style="stroke:#333333;stroke-width:1.5;" x1="152.9258" x2="152.9258" y1="48.0986" y2="571.2417"/><polygon fill="#FFFFFF" points="378.1392,208.7456,487.6655,208.7456,499.6655,220.7456,487.6655,232.7456,378.1392,232.7456,366.1392,220.7456,378.1392,208.7456" style="stroke:#333333;stroke-width:0.5;"/><text fill="#000000" font-family="Arial" font-size="10" lengthAdjust="spacing" textLength="109.5264" x="378.1392" y="224.376">Equipamento Integrado?</text><text fill="#000000" font-family="Arial" font-size="9" lengthAdjust="spacing" textLength="20.0171" x="346.1221" y="218.8384">[n&#227;o]</text><text fill="#000000" font-family="Arial" font-size="9" lengthAdjust="spacing" textLength="18.9976" x="499.6655" y="218.8384">[sim]</text><polygon fill="#FFFFFF" points="432.9023,294.2446,444.9023,306.2446,432.9023,318.2446,420.9023,306.2446,432.9023,294.2446" style="stroke:#333333;stroke-width:0.5;"/><rect fill="#FFFFFF" height="31.499" rx="12.5" ry="12.5" style="stroke:#333333;stroke-width:0.5;" width="106.4551" x="379.6748" y="338.2446"/><text fill="#000000" font-family="Arial" font-size="10" lengthAdjust="spacing" textLength="86.4551" x="389.6748" y="357.6245">Laudo + Conclus&#227;o</text><rect fill="#FFFFFF" height="31.499" rx="12.5" ry="12.5" style="stroke:#333333;stroke-width:0.5;" width="106.7285" x="379.5381" y="389.7437"/><text fill="#000000" font-family="Arial" font-size="10" lengthAdjust="spacing" textLength="86.7285" x="389.5381" y="409.1235">Resultado Liberado</text><line style="stroke:#333333;stroke-width:1.5;" x1="341.1221" x2="341.1221" y1="48.0986" y2="571.2417"/><rect fill="#FFFFFF" height="31.499" rx="12.5" ry="12.5" style="stroke:#333333;stroke-width:0.5;" width="83.3691" x="529.6631" y="252.7456"/><text fill="#000000" font-family="Arial" font-size="10" lengthAdjust="spacing" textLength="63.3691" x="539.6631" y="272.1255">Webhook HL7</text><line style="stroke:#333333;stroke-width:1.5;" x1="523.6631" x2="523.6631" y1="48.0986" y2="571.2417"/><line style="stroke:#333333;stroke-width:1.5;" x1="669.1577" x2="725.2832" y1="441.2427" y2="441.2427"/><rect fill="#FFFFFF" height="31.499" rx="12.5" ry="12.5" style="stroke:#333333;stroke-width:0.5;" width="92.251" x="623.0322" y="489.7427"/><text fill="#000000" font-family="Arial" font-size="10" lengthAdjust="spacing" textLength="72.251" x="633.0322" y="509.1226">Visualizar Portal</text><line style="stroke:#333333;stroke-width:1.5;" x1="617.0322" x2="617.0322" y1="48.0986" y2="571.2417"/><line style="stroke:#333333;stroke-width:1.5;" x1="730.2832" x2="730.2832" y1="48.0986" y2="571.2417"/><line style="stroke:#333333;stroke-width:1;" x1="70.4702" x2="70.4702" y1="85.7476" y2="105.7476"/><polygon fill="#333333" points="66.4702,95.7476,70.4702,105.7476,74.4702,95.7476,70.4702,99.7476" style="stroke:#333333;stroke-width:1;"/><line style="stroke:#333333;stroke-width:1;" x1="130.5957" x2="130.5957" y1="492.7417" y2="527.7417"/><polygon fill="#333333" points="126.5957,517.7417,130.5957,527.7417,134.5957,517.7417,130.5957,521.7417" style="stroke:#333333;stroke-width:1;"/><line style="stroke:#333333;stroke-width:1;" x1="432.9023" x2="432.9023" y1="318.2446" y2="338.2446"/><polygon fill="#333333" points="428.9023,328.2446,432.9023,338.2446,436.9023,328.2446,432.9023,332.2446" style="stroke:#333333;stroke-width:1;"/><line style="stroke:#333333;stroke-width:1;" x1="432.9023" x2="432.9023" y1="369.7437" y2="389.7437"/><polygon fill="#333333" points="428.9023,379.7437,432.9023,389.7437,436.9023,379.7437,432.9023,383.7437" style="stroke:#333333;stroke-width:1;"/><line style="stroke:#333333;stroke-width:1;" x1="669.1577" x2="669.1577" y1="442.7427" y2="489.7427"/><polygon fill="#333333" points="665.1577,479.7427,669.1577,489.7427,673.1577,479.7427,669.1577,483.7427" style="stroke:#333333;stroke-width:1;"/><line style="stroke:#333333;stroke-width:1;" x1="70.4702" x2="70.4702" y1="137.2466" y2="142.2466"/><line style="stroke:#333333;stroke-width:1;" x1="70.4702" x2="290.9966" y1="142.2466" y2="142.2466"/><line style="stroke:#333333;stroke-width:1;" x1="290.9966" x2="290.9966" y1="142.2466" y2="157.2466"/><polygon fill="#333333" points="286.9966,147.2466,290.9966,157.2466,294.9966,147.2466,290.9966,151.2466" style="stroke:#333333;stroke-width:1;"/><line style="stroke:#333333;stroke-width:1;" x1="366.1392" x2="214.2334" y1="220.7456" y2="220.7456"/><line style="stroke:#333333;stroke-width:1;" x1="214.2334" x2="214.2334" y1="220.7456" y2="252.7456"/><polygon fill="#333333" points="210.2334,242.7456,214.2334,252.7456,218.2334,242.7456,214.2334,246.7456" style="stroke:#333333;stroke-width:1;"/><line style="stroke:#333333;stroke-width:1;" x1="499.6655" x2="571.3477" y1="220.7456" y2="220.7456"/><line style="stroke:#333333;stroke-width:1;" x1="571.3477" x2="571.3477" y1="220.7456" y2="252.7456"/><polygon fill="#333333" points="567.3477,242.7456,571.3477,252.7456,575.3477,242.7456,571.3477,246.7456" style="stroke:#333333;stroke-width:1;"/><line style="stroke:#333333;stroke-width:1;" x1="214.2334" x2="214.2334" y1="284.2446" y2="306.2446"/><line style="stroke:#333333;stroke-width:1;" x1="214.2334" x2="420.9023" y1="306.2446" y2="306.2446"/><polygon fill="#333333" points="410.9023,302.2446,420.9023,306.2446,410.9023,310.2446,414.9023,306.2446" style="stroke:#333333;stroke-width:1;"/><line style="stroke:#333333;stroke-width:1;" x1="571.3477" x2="571.3477" y1="284.2446" y2="306.2446"/><line style="stroke:#333333;stroke-width:1;" x1="571.3477" x2="444.9023" y1="306.2446" y2="306.2446"/><polygon fill="#333333" points="454.9023,302.2446,444.9023,306.2446,454.9023,310.2446,450.9023,306.2446" style="stroke:#333333;stroke-width:1;"/><line style="stroke:#333333;stroke-width:1;" x1="290.9966" x2="290.9966" y1="188.7456" y2="193.7456"/><line style="stroke:#333333;stroke-width:1;" x1="290.9966" x2="432.9023" y1="193.7456" y2="193.7456"/><line style="stroke:#333333;stroke-width:1;" x1="432.9023" x2="432.9023" y1="193.7456" y2="208.7456"/><polygon fill="#333333" points="428.9023,198.7456,432.9023,208.7456,436.9023,198.7456,432.9023,202.7456" style="stroke:#333333;stroke-width:1;"/><line style="stroke:#333333;stroke-width:1;" x1="725.2832" x2="725.2832" y1="442.7427" y2="446.2427"/><line style="stroke:#333333;stroke-width:1;" x1="725.2832" x2="130.5957" y1="446.2427" y2="446.2427"/><line style="stroke:#333333;stroke-width:1;" x1="130.5957" x2="130.5957" y1="446.2427" y2="461.2427"/><polygon fill="#333333" points="126.5957,451.2427,130.5957,461.2427,134.5957,451.2427,130.5957,455.2427" style="stroke:#333333;stroke-width:1;"/><line style="stroke:#333333;stroke-width:1;" x1="669.1577" x2="669.1577" y1="521.2417" y2="555.7417"/><line style="stroke:#333333;stroke-width:1;" x1="669.1577" x2="38.1401" y1="555.7417" y2="555.7417"/><line style="stroke:#333333;stroke-width:1;" x1="38.1401" x2="38.1401" y1="555.7417" y2="569.7417"/><polygon fill="#333333" points="34.1401,559.7417,38.1401,569.7417,42.1401,559.7417,38.1401,563.7417" style="stroke:#333333;stroke-width:1;"/><line style="stroke:#333333;stroke-width:1;" x1="432.9023" x2="432.9023" y1="421.2427" y2="426.2427"/><line style="stroke:#333333;stroke-width:1;" x1="432.9023" x2="701.4878" y1="426.2427" y2="426.2427"/><line style="stroke:#333333;stroke-width:1;" x1="701.4878" x2="701.4878" y1="426.2427" y2="441.2427"/><polygon fill="#333333" points="697.4878,431.2427,701.4878,441.2427,705.4878,431.2427,701.4878,435.2427" style="stroke:#333333;stroke-width:1;"/><text fill="#000000" font-family="Arial" font-size="11" lengthAdjust="spacing" textLength="53.1953" x="57.3652" y="58.4165">Veterin&#225;rio</text><text fill="#000000" font-family="Arial" font-size="11" lengthAdjust="spacing" textLength="38.5161" x="227.7659" y="58.4165">T&#233;cnico</text><text fill="#000000" font-family="Arial" font-size="11" lengthAdjust="spacing" textLength="39.7354" x="412.5249" y="58.4165">Sistema</text><text fill="#000000" font-family="Arial" font-size="11" lengthAdjust="spacing" textLength="64.8237" x="537.9358" y="58.4165">Equipamento</text><text fill="#000000" font-family="Arial" font-size="11" lengthAdjust="spacing" textLength="25.6738" x="660.8208" y="58.4165">Tutor</text><!--SRC=[LP31IWCn48RlUOhnrY9u5Re73r9HMA6er8E8J7UdxM2IMPC95DcN4G_YS-oBERjwgAUGpF__-UO_uTZuqXAyD1A2nBEk1E-Sidg2AryE0ZQiSIC9LHABS_sQb1B7uSEklSkAITrYHIstatXvm42Lwn-6xoPoOvB57UquQy84b-99qQRtza01UyTRc2tV2dVcYYfm4vLs2Lkvc8FkASBiAGwVyZnt04UP08iQu_3rvxh5MD1NZdmcSsGEluQZvCdpI9kzo2jSr-ScZYrlZr0iiTWEfqOvjfBjssg4pyMh0K7D6nh9AkTovradecArJD5hpeR0xxRbIfAED9CAS8SSH-t_uinonQ6oCwjq8yma_m40]--></g></svg>