<?xml version="1.0" encoding="UTF-8"?>
<svg xmlns="http://www.w3.org/2000/svg" width="1227" height="650" viewBox="-76 -30 1227 650">
<defs><marker id="arrowhead" markerWidth="8" markerHeight="6" refX="8" refY="3" orient="auto"><polygon points="0 0, 8 3, 0 6" fill="#000"/></marker></defs>
<switch><g transform="translate(0.5,0.5)">







<rect x="10" y="5" width="1080" height="28" rx="4" ry="4" fill="#fff" stroke="#000" stroke-width="1.5"/><text x="550.0" y="19.0" text-anchor="middle" dominant-baseline="central" fill="#000" font-size="10" font-family="Arial">Fluxo de Laboratório</text>
<rect x="30" y="70" width="1070" height="80" fill="#fff" stroke="#000" stroke-width="1.5"/><rect x="30" y="70" width="18" height="80" fill="#fff" stroke="#000" stroke-width="1"/><text x="39" y="110.0" text-anchor="middle" dominant-baseline="central" fill="#000" font-size="9" font-family="Arial" transform="rotate(-90,39,110.0)">Veterinário</text>
<rect x="30" y="150" width="1070" height="80" fill="#fff" stroke="#000" stroke-width="1.5"/><rect x="30" y="150" width="18" height="80" fill="#fff" stroke="#000" stroke-width="1"/><text x="39" y="190.0" text-anchor="middle" dominant-baseline="central" fill="#000" font-size="9" font-family="Arial" transform="rotate(-90,39,190.0)">Técnico</text>
<rect x="30" y="230" width="1070" height="80" fill="#fff" stroke="#000" stroke-width="1.5"/><rect x="30" y="230" width="18" height="80" fill="#fff" stroke="#000" stroke-width="1"/><text x="39" y="270.0" text-anchor="middle" dominant-baseline="central" fill="#000" font-size="9" font-family="Arial" transform="rotate(-90,39,270.0)">Sistema</text>
<rect x="0" y="40" width="1100" height="280" rx="6" ry="6" fill="none" stroke="#000" stroke-width="2"/><rect x="0" y="40" width="28" height="280" fill="#e1d5e7" stroke="#000" stroke-width="2"/><text x="14" y="180.0" text-anchor="middle" dominant-baseline="central" fill="#000" font-size="11" font-family="Arial" transform="rotate(-90,14,180.0)">Clínica</text>
<rect x="30" y="365" width="1070" height="80" fill="#fff" stroke="#000" stroke-width="1.5"/><rect x="30" y="365" width="18" height="80" fill="#fff" stroke="#000" stroke-width="1"/><text x="39" y="405.0" text-anchor="middle" dominant-baseline="central" fill="#000" font-size="9" font-family="Arial" transform="rotate(-90,39,405.0)">Tutor</text>
<rect x="0" y="335" width="1100" height="120" rx="6" ry="6" fill="none" stroke="#000" stroke-width="2"/><rect x="0" y="335" width="28" height="120" fill="#e1d5e7" stroke="#000" stroke-width="2"/><text x="14" y="395.0" text-anchor="middle" dominant-baseline="central" fill="#000" font-size="11" font-family="Arial" transform="rotate(-90,14,395.0)">Tutor</text>
<rect x="30" y="500" width="1070" height="80" fill="#fff" stroke="#000" stroke-width="1.5"/><rect x="30" y="500" width="18" height="80" fill="#fff" stroke="#000" stroke-width="1"/><text x="39" y="540.0" text-anchor="middle" dominant-baseline="central" fill="#000" font-size="9" font-family="Arial" transform="rotate(-90,39,540.0)">Equipamento</text>
<rect x="0" y="470" width="1100" height="120" rx="6" ry="6" fill="none" stroke="#000" stroke-width="2"/><rect x="0" y="470" width="28" height="120" fill="#e1d5e7" stroke="#000" stroke-width="2"/><text x="14" y="530.0" text-anchor="middle" dominant-baseline="central" fill="#000" font-size="11" font-family="Arial" transform="rotate(-90,14,530.0)">Equipamento</text>
<ellipse cx="65" cy="110.0" rx="11.0" ry="11.0" fill="#d5e8d4" stroke="#82b366" stroke-width="2"/><text x="65" y="133.0" text-anchor="middle" fill="#000" font-size="9" font-family="Arial">Pedido de
Exame</text>
<rect x="200" y="167.0" width="140" height="46" rx="4" ry="4" fill="#fff" stroke="#000" stroke-width="1.5"/><text x="270.0" y="190.0" text-anchor="middle" dominant-baseline="central" fill="#000" font-size="10" font-family="Arial">Registrar
Coleta</text>
<polygon points="397.0,243.0 424,270.0 397.0,297.0 370,270.0" fill="#ffe6cc" stroke="#d79b00" stroke-width="2"/><text x="397.0" y="270.0" text-anchor="middle" dominant-baseline="central" fill="#000" font-size="18" font-family="Arial">✕</text>
<rect x="530" y="517.0" width="140" height="46" rx="4" ry="4" fill="#fff" stroke="#000" stroke-width="1.5"/><text x="600.0" y="540.0" text-anchor="middle" dominant-baseline="central" fill="#000" font-size="10" font-family="Arial">Webhook HL7
Importação</text>
<rect x="530" y="167.0" width="140" height="46" rx="4" ry="4" fill="#fff" stroke="#000" stroke-width="1.5"/><text x="600.0" y="190.0" text-anchor="middle" dominant-baseline="central" fill="#000" font-size="10" font-family="Arial">Lançamento
Manual</text>
<rect x="700" y="243.0" width="160" height="54" rx="4" ry="4" fill="#fff" stroke="#000" stroke-width="2"/><rect x="703" y="246.0" width="154" height="48" rx="2" ry="2" fill="none" stroke="#000" stroke-width="1"/><text x="780.0" y="270.0" text-anchor="middle" dominant-baseline="central" fill="#000" font-size="10" font-family="Arial">Laudo +
Conclusão</text>
<ellipse cx="911.0" cy="270.0" rx="11.0" ry="11.0" fill="#fff" stroke="#000" stroke-width="2"/><ellipse cx="911.0" cy="270.0" rx="7.0" ry="7.0" fill="none" stroke="#000" stroke-width="1" stroke-dasharray="2,2"/><text x="911.0" y="293.0" text-anchor="middle" fill="#000" font-size="9" font-family="Arial">Resultado
Liberado</text>
<rect x="900" y="382.0" width="140" height="46" rx="4" ry="4" fill="#fff" stroke="#000" stroke-width="1.5"/><text x="970.0" y="405.0" text-anchor="middle" dominant-baseline="central" fill="#000" font-size="10" font-family="Arial">Visualiza
Portal</text>
<ellipse cx="1061.0" cy="110.0" rx="11.0" ry="11.0" fill="#f8cecc" stroke="#b85450" stroke-width="2"/><ellipse cx="1061.0" cy="110.0" rx="7.0" ry="7.0" fill="none" stroke="#b85450" stroke-width="2"/><text x="1061.0" y="133.0" text-anchor="middle" fill="#000" font-size="9" font-family="Arial">Fim</text>
<path d="M 76 110 L 131 110 L 131 190 L 200 190" fill="none" stroke="#000" stroke-width="1.5" marker-end="url(#arrowhead)"/>
<path d="M 340 190 L 355 190 L 355 270 L 370 270" fill="none" stroke="#000" stroke-width="1.5" marker-end="url(#arrowhead)"/>
<path d="M 397 297 L 397 407 L 600 407 L 600 517" fill="none" stroke="#000" stroke-width="1.5" marker-end="url(#arrowhead)"/>
<path d="M 424 270 L 477 270 L 477 190 L 530 190" fill="none" stroke="#000" stroke-width="1.5" marker-end="url(#arrowhead)"/>
<path d="M 600 517 L 600 407 L 780 407 L 780 297" fill="none" stroke="#000" stroke-width="1.5" marker-end="url(#arrowhead)"/>
<path d="M 670 190 L 685 190 L 685 270 L 700 270" fill="none" stroke="#000" stroke-width="1.5" marker-end="url(#arrowhead)"/>
<path d="M 860 270 L 880 270 L 880 270 L 900 270" fill="none" stroke="#000" stroke-width="1.5" marker-end="url(#arrowhead)"/>
<path d="M 911 281 L 911 331.5 L 970 331.5 L 970 382" fill="none" stroke="#000" stroke-width="1.5" stroke-dasharray="5,5" marker-end="url(#arrowhead)"/>
<path d="M 911 259 L 911 190 L 1061 190 L 1061 121" fill="none" stroke="#000" stroke-width="1.5" marker-end="url(#arrowhead)"/>
</g>
<foreignObject width="1100" height="450"><div xmlns="http://www.w3.org/1999/xhtml"><mxfile host="Generator" modified="2026-05-21T07:35:39.398761" agent="BPMN-PHASEX" version="24.0.5" type="device"><diagram id="09-fluxo-laboratorio.svg" name="Page-1"><mxGraphModel dx="0" dy="0" grid="1" gridSize="10" guides="1" page="0" pageWidth="1100" pageHeight="450" math="0" shadow="0"><root><mxCell id="0"/><mxCell id="1" parent="0"/><mxCell id="c286" value="Fluxo de Laboratório" style="text;html=1;strokeColor=none;fillColor=none;align=center;fontSize=14;fontStyle=1" vertex="1" parent="1"><mxGeometry x="10" y="5" width="1080" height="28" as="geometry"/></mxCell><mxCell id="c287" value="Veterinário" style="swimlane;startSize=18;fillColor=#d5e8d4;strokeColor=#000;horizontal=1;" vertex="1" parent="1"><mxGeometry x="30" y="70" width="1070" height="80" as="geometry"/></mxCell><mxCell id="c288" value="Técnico" style="swimlane;startSize=18;fillColor=#dae8fc;strokeColor=#000;horizontal=1;" vertex="1" parent="1"><mxGeometry x="30" y="150" width="1070" height="80" as="geometry"/></mxCell><mxCell id="c289" value="Sistema" style="swimlane;startSize=18;fillColor=#f5f5f5;strokeColor=#000;horizontal=1;" vertex="1" parent="1"><mxGeometry x="30" y="230" width="1070" height="80" as="geometry"/></mxCell><mxCell id="c290" value="Clínica" style="swimlane;startSize=0;fillColor=none;strokeColor=#000;" vertex="1" parent="1"><mxGeometry x="0" y="40" width="1100" height="280" as="geometry"/></mxCell><mxCell id="c291" value="Tutor" style="swimlane;startSize=18;fillColor=#e1d5e7;strokeColor=#000;horizontal=1;" vertex="1" parent="1"><mxGeometry x="30" y="365" width="1070" height="80" as="geometry"/></mxCell><mxCell id="c292" value="Tutor" style="swimlane;startSize=0;fillColor=none;strokeColor=#000;" vertex="1" parent="1"><mxGeometry x="0" y="335" width="1100" height="120" as="geometry"/></mxCell><mxCell id="c293" value="Equipamento" style="swimlane;startSize=18;fillColor=#f5f5f5;strokeColor=#000;horizontal=1;" vertex="1" parent="1"><mxGeometry x="30" y="500" width="1070" height="80" as="geometry"/></mxCell><mxCell id="c294" value="Equipamento" style="swimlane;startSize=0;fillColor=none;strokeColor=#000;" vertex="1" parent="1"><mxGeometry x="0" y="470" width="1100" height="120" as="geometry"/></mxCell><mxCell id="c295" value="Pedido de
Exame" style="ellipse;whiteSpace=wrap;html=1;fillColor=#d5e8d4;strokeColor=#82b366;" vertex="1" parent="1"><mxGeometry x="40" y="99.0" width="22" height="22" as="geometry"/></mxCell><mxCell id="c296" value="Registrar
Coleta" style="rounded=1;whiteSpace=wrap;html=1;" vertex="1" parent="1"><mxGeometry x="200" y="167.0" width="140" height="46" as="geometry"/></mxCell><mxCell id="c297" value="Equipamento
Integrado?" style="rhombus;whiteSpace=wrap;html=1;fillColor=#ffe6cc;strokeColor=#d79b00;" vertex="1" parent="1"><mxGeometry x="370" y="243.0" width="54" height="54" as="geometry"/></mxCell><mxCell id="c298" value="Webhook HL7
Importação" style="rounded=1;whiteSpace=wrap;html=1;" vertex="1" parent="1"><mxGeometry x="530" y="517.0" width="140" height="46" as="geometry"/></mxCell><mxCell id="c299" value="Lançamento
Manual" style="rounded=1;whiteSpace=wrap;html=1;" vertex="1" parent="1"><mxGeometry x="530" y="167.0" width="140" height="46" as="geometry"/></mxCell><mxCell id="c300" value="Laudo +
Conclusão" style="rounded=1;whiteSpace=wrap;html=1;fillColor=#fff;strokeColor=#000;container=1;collapsible=0;" vertex="1" parent="1"><mxGeometry x="700" y="243.0" width="160" height="54" as="geometry"/></mxCell><mxCell id="c301" value="Resultado
Liberado" style="rounded=1;whiteSpace=wrap;html=1;" vertex="1" parent="1"><mxGeometry x="900" y="259.0" width="22" height="22" as="geometry"/></mxCell><mxCell id="c302" value="Visualiza
Portal" style="rounded=1;whiteSpace=wrap;html=1;" vertex="1" parent="1"><mxGeometry x="900" y="382.0" width="140" height="46" as="geometry"/></mxCell><mxCell id="c303" value="Fim" style="ellipse;whiteSpace=wrap;html=1;fillColor=#f8cecc;strokeColor=#b85450;" vertex="1" parent="1"><mxGeometry x="1050" y="99.0" width="22" height="22" as="geometry"/></mxCell><mxCell id="c304" edge="1" parent="1" source="c295" target="c296" style="edgeStyle=orthogonalEdgeStyle;rounded=0;html=1;"><mxGeometry relative="1" as="geometry"/></mxCell><mxCell id="c305" edge="1" parent="1" source="c296" target="c297" style="edgeStyle=orthogonalEdgeStyle;rounded=0;html=1;"><mxGeometry relative="1" as="geometry"/></mxCell><mxCell id="c306" edge="1" parent="1" source="c297" target="c298" style="edgeStyle=orthogonalEdgeStyle;rounded=0;html=1;"><mxGeometry relative="1" as="geometry"/></mxCell><mxCell id="c307" edge="1" parent="1" source="c297" target="c299" style="edgeStyle=orthogonalEdgeStyle;rounded=0;html=1;"><mxGeometry relative="1" as="geometry"/></mxCell><mxCell id="c308" edge="1" parent="1" source="c298" target="c300" style="edgeStyle=orthogonalEdgeStyle;rounded=0;html=1;"><mxGeometry relative="1" as="geometry"/></mxCell><mxCell id="c309" edge="1" parent="1" source="c299" target="c300" style="edgeStyle=orthogonalEdgeStyle;rounded=0;html=1;"><mxGeometry relative="1" as="geometry"/></mxCell><mxCell id="c310" edge="1" parent="1" source="c300" target="c301" style="edgeStyle=orthogonalEdgeStyle;rounded=0;html=1;"><mxGeometry relative="1" as="geometry"/></mxCell><mxCell id="c311" edge="1" parent="1" source="c301" target="c302" style="edgeStyle=orthogonalEdgeStyle;rounded=0;html=1;dashed=1;"><mxGeometry relative="1" as="geometry"/></mxCell><mxCell id="c312" edge="1" parent="1" source="c301" target="c303" style="edgeStyle=orthogonalEdgeStyle;rounded=0;html=1;"><mxGeometry relative="1" as="geometry"/></mxCell></root></mxGraphModel></diagram></mxfile></div></foreignObject></switch>
</svg>