<svg xmlns="http://www.w3.org/2000/svg" xmlns:xlink="http://www.w3.org/1999/xlink" contentStyleType="text/css" data-diagram-type="ACTIVITY" height="494px" preserveAspectRatio="none" style="width:487px;height:494px;background:#FEFEFE;" version="1.1" viewBox="0 0 487 494" width="487px" zoomAndPan="magnify"><title>Fluxo de Imagem</title><defs/><g><rect fill="#FEFEFE" height="494" style="stroke:none;stroke-width:1;" width="487" x="0" y="0"/><text fill="#000000" font-family="Arial" font-size="14" font-weight="bold" lengthAdjust="spacing" textLength="114.3584" x="184.9401" y="33.1318">Fluxo de Imagem</text><rect fill="none" height="12.6489" style="stroke:none;stroke-width:1;" width="454.2385" x="15" y="48.0986"/><ellipse cx="151.1597" cy="75.7476" fill="#222222" rx="10" ry="10" style="stroke:#222222;stroke-width:1;"/><rect fill="#FFFFFF" height="31.499" rx="12.5" ry="12.5" style="stroke:#333333;stroke-width:0.5;" width="142.2705" x="80.0244" y="105.7476"/><text fill="#000000" font-family="Arial" font-size="10" lengthAdjust="spacing" textLength="122.2705" x="90.0244" y="125.1274">Solicitar Exame de Imagem</text><line style="stroke:#333333;stroke-width:1.5;" x1="81.5811" x2="225.7407" y1="311.7437" y2="311.7437"/><rect fill="#FFFFFF" height="31.499" rx="12.5" ry="12.5" style="stroke:#333333;stroke-width:0.5;" width="121.1621" x="21" y="331.7437"/><text fill="#000000" font-family="Arial" font-size="10" lengthAdjust="spacing" textLength="101.1621" x="31" y="351.1235">Associar ao Prontu&#225;rio</text><rect fill="#FFFFFF" height="31.499" rx="12.5" ry="12.5" style="stroke:#333333;stroke-width:0.5;" width="36.6602" x="63.251" y="387.9922"/><text fill="#000000" font-family="Arial" font-size="10" lengthAdjust="spacing" textLength="16.6602" x="73.251" y="407.3721">Fim</text><ellipse cx="81.5811" cy="450.4912" fill="none" rx="11" ry="11" style="stroke:#222222;stroke-width:1;"/><ellipse cx="81.5811" cy="450.4912" fill="#222222" rx="6" ry="6" style="stroke:#222222;stroke-width:1;"/><line style="stroke:#333333;stroke-width:1.5;" x1="15" x2="15" y1="48.0986" y2="482.9912"/><rect fill="#FFFFFF" height="31.499" rx="12.5" ry="12.5" style="stroke:#333333;stroke-width:0.5;" width="87.7979" x="241.748" y="157.2466"/><text fill="#000000" font-family="Arial" font-size="10" lengthAdjust="spacing" textLength="67.7979" x="251.748" y="176.6265">Upload DICOM</text><rect fill="#FFFFFF" height="31.499" rx="12.5" ry="12.5" style="stroke:#333333;stroke-width:0.5;" width="82.2656" x="244.5142" y="208.7456"/><text fill="#000000" font-family="Arial" font-size="10" lengthAdjust="spacing" textLength="62.2656" x="254.5142" y="228.1255">Redigir Laudo</text><rect fill="#FFFFFF" height="31.499" rx="12.5" ry="12.5" style="stroke:#333333;stroke-width:0.5;" width="97.8125" x="236.7407" y="260.2446"/><text fill="#000000" font-family="Arial" font-size="10" lengthAdjust="spacing" textLength="77.8125" x="246.7407" y="279.6245">Assinatura Digital</text><line style="stroke:#333333;stroke-width:1.5;" x1="230.7407" x2="230.7407" y1="48.0986" y2="482.9912"/><rect fill="#FFFFFF" height="31.499" rx="12.5" ry="12.5" style="stroke:#333333;stroke-width:0.5;" width="111.1572" x="353.5532" y="383.2427"/><text fill="#000000" font-family="Arial" font-size="10" lengthAdjust="spacing" textLength="91.1572" x="363.5532" y="402.6226">Visualizar Resultado</text><line style="stroke:#333333;stroke-width:1.5;" x1="343.5532" x2="409.1318" y1="481.4912" y2="481.4912"/><line style="stroke:#333333;stroke-width:1.5;" x1="338.5532" x2="338.5532" y1="48.0986" y2="482.9912"/><line style="stroke:#333333;stroke-width:1.5;" x1="468.7104" x2="468.7104" y1="48.0986" y2="482.9912"/><line style="stroke:#333333;stroke-width:1;" x1="151.1597" x2="151.1597" y1="85.7476" y2="105.7476"/><polygon fill="#333333" points="147.1597,95.7476,151.1597,105.7476,155.1597,95.7476,151.1597,99.7476" style="stroke:#333333;stroke-width:1;"/><line style="stroke:#333333;stroke-width:1;" x1="81.5811" x2="81.5811" y1="363.2427" y2="387.9922"/><polygon fill="#333333" points="77.5811,377.9922,81.5811,387.9922,85.5811,377.9922,81.5811,381.9922" style="stroke:#333333;stroke-width:1;"/><line style="stroke:#333333;stroke-width:1;" x1="81.5811" x2="81.5811" y1="419.4912" y2="439.4912"/><polygon fill="#333333" points="77.5811,429.4912,81.5811,439.4912,85.5811,429.4912,81.5811,433.4912" style="stroke:#333333;stroke-width:1;"/><line style="stroke:#333333;stroke-width:1;" x1="81.5811" x2="81.5811" y1="313.2437" y2="331.7437"/><polygon fill="#333333" points="77.5811,321.7437,81.5811,331.7437,85.5811,321.7437,81.5811,325.7437" style="stroke:#333333;stroke-width:1;"/><line style="stroke:#333333;stroke-width:1;" x1="285.647" x2="285.647" y1="188.7456" y2="208.7456"/><polygon fill="#333333" points="281.647,198.7456,285.647,208.7456,289.647,198.7456,285.647,202.7456" style="stroke:#333333;stroke-width:1;"/><line style="stroke:#333333;stroke-width:1;" x1="285.647" x2="285.647" y1="240.2446" y2="260.2446"/><polygon fill="#333333" points="281.647,250.2446,285.647,260.2446,289.647,250.2446,285.647,254.2446" style="stroke:#333333;stroke-width:1;"/><line style="stroke:#333333;stroke-width:1;" x1="409.1318" x2="409.1318" y1="414.7417" y2="481.4912"/><polygon fill="#333333" points="405.1318,471.4912,409.1318,481.4912,413.1318,471.4912,409.1318,475.4912" style="stroke:#333333;stroke-width:1;"/><line style="stroke:#333333;stroke-width:1;" x1="151.1597" x2="151.1597" y1="137.2466" y2="142.2466"/><line style="stroke:#333333;stroke-width:1;" x1="151.1597" x2="285.647" y1="142.2466" y2="142.2466"/><line style="stroke:#333333;stroke-width:1;" x1="285.647" x2="285.647" y1="142.2466" y2="157.2466"/><polygon fill="#333333" points="281.647,147.2466,285.647,157.2466,289.647,147.2466,285.647,151.2466" style="stroke:#333333;stroke-width:1;"/><line style="stroke:#333333;stroke-width:1;" x1="225.7407" x2="225.7407" y1="313.2437" y2="316.7437"/><line style="stroke:#333333;stroke-width:1;" x1="225.7407" x2="409.1318" y1="316.7437" y2="316.7437"/><line style="stroke:#333333;stroke-width:1;" x1="409.1318" x2="409.1318" y1="316.7437" y2="383.2427"/><polygon fill="#333333" points="405.1318,373.2427,409.1318,383.2427,413.1318,373.2427,409.1318,377.2427" style="stroke:#333333;stroke-width:1;"/><line style="stroke:#333333;stroke-width:1;" x1="285.647" x2="285.647" y1="291.7437" y2="296.7437"/><line style="stroke:#333333;stroke-width:1;" x1="285.647" x2="151.1597" y1="296.7437" y2="296.7437"/><line style="stroke:#333333;stroke-width:1;" x1="151.1597" x2="151.1597" y1="296.7437" y2="311.7437"/><polygon fill="#333333" points="147.1597,301.7437,151.1597,311.7437,155.1597,301.7437,151.1597,305.7437" style="stroke:#333333;stroke-width:1;"/><text fill="#000000" font-family="Arial" font-size="11" lengthAdjust="spacing" textLength="53.1953" x="96.2727" y="58.4165">Veterin&#225;rio</text><text fill="#000000" font-family="Arial" font-size="11" lengthAdjust="spacing" textLength="60.5376" x="254.3782" y="58.4165">Radiologista</text><text fill="#000000" font-family="Arial" font-size="11" lengthAdjust="spacing" textLength="25.6738" x="390.7949" y="58.4165">Tutor</text><!--SRC=[NOv1IWH134NtEKMym1oWUoME0mEAqewpbT1LD85KfQbAO92-Z6VnObQr2y5L4lx_x-UEyomU8dxCcfBcm-f908nD8fx4RufDF2TQOWBOhj5YuVpzLLWtg4R5O7XJuPdRZeytIl4lCC8sKM0LNRXvDnZULr4AU3m_l3oFC4mnyC85dyY3jlk-LivaNWYFJJ2I4Q2kmWQ8_yeHkrrdRhsa-5eqc-_QsBKJfpwhwVfBG5g8S-TStBJiW2jN9-7FXfXYTJ7gRyGSziGF]--></g></svg>