<svg xmlns="http://www.w3.org/2000/svg" xmlns:xlink="http://www.w3.org/1999/xlink" contentStyleType="text/css" data-diagram-type="ACTIVITY" height="556px" preserveAspectRatio="none" style="width:809px;height:556px;background:#FEFEFE;" version="1.1" viewBox="0 0 809 556" width="809px" zoomAndPan="magnify"><title>Fluxo de Cirurgia</title><defs/><g><rect fill="#FEFEFE" height="556" style="stroke:none;stroke-width:1;" width="809" x="0" y="0"/><text fill="#000000" font-family="Arial" font-size="14" font-weight="bold" lengthAdjust="spacing" textLength="115.124" x="345.8065" y="33.1318">Fluxo de Cirurgia</text><rect fill="none" height="12.6489" style="stroke:none;stroke-width:1;" width="776.7371" x="15" y="48.0986"/><ellipse cx="55.5469" cy="75.7476" fill="#222222" rx="10" ry="10" style="stroke:#222222;stroke-width:1;"/><rect fill="#FFFFFF" height="31.499" rx="12.5" ry="12.5" style="stroke:#333333;stroke-width:0.5;" width="57.8076" x="26.6431" y="105.7476"/><text fill="#000000" font-family="Arial" font-size="10" lengthAdjust="spacing" textLength="37.8076" x="36.6431" y="125.1274">Agendar</text><line style="stroke:#333333;stroke-width:1.5;" x1="15" x2="15" y1="48.0986" y2="544.7427"/><line style="stroke:#333333;stroke-width:1.5;" x1="167.0664" x2="413.4673" y1="157.2466" y2="157.2466"/><rect fill="#FFFFFF" height="31.499" rx="12.5" ry="12.5" style="stroke:#333333;stroke-width:0.5;" width="133.9453" x="100.0938" y="177.2466"/><text fill="#000000" font-family="Arial" font-size="10" lengthAdjust="spacing" textLength="113.9453" x="110.0938" y="196.6265">Avalia&#231;&#227;o Pr&#233;-Anest&#233;sica</text><rect fill="#FFFFFF" height="31.499" rx="12.5" ry="12.5" style="stroke:#333333;stroke-width:0.5;" width="94.4678" x="265.9258" y="296.7456"/><text fill="#000000" font-family="Arial" font-size="10" lengthAdjust="spacing" textLength="74.4678" x="275.9258" y="316.1255">Realizar Cirurgia</text><polygon fill="#FFFFFF" points="287.8691,248.7456,338.4502,248.7456,350.4502,260.7456,338.4502,272.7456,287.8691,272.7456,275.8691,260.7456,287.8691,248.7456" style="stroke:#333333;stroke-width:0.5;"/><text fill="#000000" font-family="Arial" font-size="9" lengthAdjust="spacing" textLength="18.9976" x="317.1597" y="281.1875">[sim]</text><text fill="#000000" font-family="Arial" font-size="10" lengthAdjust="spacing" textLength="50.5811" x="287.8691" y="264.376">Todos OK?</text><text fill="#000000" font-family="Arial" font-size="9" lengthAdjust="spacing" textLength="20.0171" x="350.4502" y="258.8384">[n&#227;o]</text><ellipse cx="392.4673" cy="260.7456" fill="none" rx="11" ry="11" style="stroke:#222222;stroke-width:1;"/><ellipse cx="392.4673" cy="260.7456" fill="#222222" rx="6" ry="6" style="stroke:#222222;stroke-width:1;"/><line style="stroke:#333333;stroke-width:1.5;" x1="242.3384" x2="394.1274" y1="348.2446" y2="348.2446"/><rect fill="#FFFFFF" height="31.499" rx="12.5" ry="12.5" style="stroke:#333333;stroke-width:0.5;" width="133.9355" x="175.3706" y="368.2446"/><text fill="#000000" font-family="Arial" font-size="10" lengthAdjust="spacing" textLength="113.9355" x="185.3706" y="387.6245">Registrar Transoperat&#243;rio</text><rect fill="#FFFFFF" height="31.499" rx="12.5" ry="12.5" style="stroke:#333333;stroke-width:0.5;" width="37.2314" x="223.7227" y="434.7437"/><text fill="#000000" font-family="Arial" font-size="10" lengthAdjust="spacing" textLength="17.2314" x="233.7227" y="454.1235">Alta</text><ellipse cx="242.3384" cy="512.2427" fill="none" rx="11" ry="11" style="stroke:#222222;stroke-width:1;"/><ellipse cx="242.3384" cy="512.2427" fill="#222222" rx="6" ry="6" style="stroke:#222222;stroke-width:1;"/><line style="stroke:#333333;stroke-width:1.5;" x1="94.0938" x2="94.0938" y1="48.0986" y2="544.7427"/><rect fill="#FFFFFF" height="31.499" rx="12.5" ry="12.5" style="stroke:#333333;stroke-width:0.5;" width="103.3545" x="424.4673" y="177.2466"/><text fill="#000000" font-family="Arial" font-size="10" lengthAdjust="spacing" textLength="83.3545" x="434.4673" y="196.6265">Checklist Cir&#250;rgico</text><rect fill="#FFFFFF" height="31.499" rx="12.5" ry="12.5" style="stroke:#333333;stroke-width:0.5;" width="113.6426" x="499.7344" y="396.7446"/><text fill="#000000" font-family="Arial" font-size="10" lengthAdjust="spacing" textLength="93.6426" x="509.7344" y="416.1245">P&#243;s-OP + Prescri&#231;&#227;o</text><rect fill="#FFFFFF" height="31.499" rx="12.5" ry="12.5" style="stroke:#333333;stroke-width:0.5;" width="82.793" x="515.1592" y="463.2437"/><text fill="#000000" font-family="Arial" font-size="10" lengthAdjust="spacing" textLength="62.793" x="525.1592" y="482.6235">Notificar Tutor</text><line style="stroke:#333333;stroke-width:1.5;" x1="475.5879" x2="556.5557" y1="543.2427" y2="543.2427"/><line style="stroke:#333333;stroke-width:1.5;" x1="418.4673" x2="418.4673" y1="48.0986" y2="544.7427"/><rect fill="#FFFFFF" height="31.499" rx="12.5" ry="12.5" style="stroke:#333333;stroke-width:0.5;" width="132.832" x="654.377" y="177.2466"/><text fill="#000000" font-family="Arial" font-size="10" lengthAdjust="spacing" textLength="112.832" x="664.377" y="196.6265">Termo de Consentimento</text><line style="stroke:#333333;stroke-width:1.5;" x1="622.377" x2="720.793" y1="228.7456" y2="228.7456"/><line style="stroke:#333333;stroke-width:1.5;" x1="617.377" x2="617.377" y1="48.0986" y2="544.7427"/><line style="stroke:#333333;stroke-width:1.5;" x1="791.209" x2="791.209" y1="48.0986" y2="544.7427"/><line style="stroke:#333333;stroke-width:1;" x1="55.5469" x2="55.5469" y1="85.7476" y2="105.7476"/><polygon fill="#333333" points="51.5469,95.7476,55.5469,105.7476,59.5469,95.7476,55.5469,99.7476" style="stroke:#333333;stroke-width:1;"/><line style="stroke:#333333;stroke-width:1;" x1="167.0664" x2="167.0664" y1="158.7466" y2="177.2466"/><polygon fill="#333333" points="163.0664,167.2466,167.0664,177.2466,171.0664,167.2466,167.0664,171.2466" style="stroke:#333333;stroke-width:1;"/><line style="stroke:#333333;stroke-width:1;" x1="313.1597" x2="313.1597" y1="272.7456" y2="296.7456"/><polygon fill="#333333" points="309.1597,286.7456,313.1597,296.7456,317.1597,286.7456,313.1597,290.7456" style="stroke:#333333;stroke-width:1;"/><line style="stroke:#333333;stroke-width:1;" x1="350.4502" x2="381.4673" y1="260.7456" y2="260.7456"/><polygon fill="#333333" points="371.4673,256.7456,381.4673,260.7456,371.4673,264.7456,375.4673,260.7456" style="stroke:#333333;stroke-width:1;"/><line style="stroke:#333333;stroke-width:1;" x1="313.1597" x2="313.1597" y1="328.2446" y2="348.2446"/><polygon fill="#333333" points="309.1597,338.2446,313.1597,348.2446,317.1597,338.2446,313.1597,342.2446" style="stroke:#333333;stroke-width:1;"/><line style="stroke:#333333;stroke-width:1;" x1="242.3384" x2="242.3384" y1="399.7437" y2="434.7437"/><polygon fill="#333333" points="238.3384,424.7437,242.3384,434.7437,246.3384,424.7437,242.3384,428.7437" style="stroke:#333333;stroke-width:1;"/><line style="stroke:#333333;stroke-width:1;" x1="242.3384" x2="242.3384" y1="466.2427" y2="501.2427"/><polygon fill="#333333" points="238.3384,491.2427,242.3384,501.2427,246.3384,491.2427,242.3384,495.2427" style="stroke:#333333;stroke-width:1;"/><line style="stroke:#333333;stroke-width:1;" x1="242.3384" x2="242.3384" y1="349.7446" y2="368.2446"/><polygon fill="#333333" points="238.3384,358.2446,242.3384,368.2446,246.3384,358.2446,242.3384,362.2446" style="stroke:#333333;stroke-width:1;"/><line style="stroke:#333333;stroke-width:1;" x1="556.5557" x2="556.5557" y1="428.2437" y2="463.2437"/><polygon fill="#333333" points="552.5557,453.2437,556.5557,463.2437,560.5557,453.2437,556.5557,457.2437" style="stroke:#333333;stroke-width:1;"/><line style="stroke:#333333;stroke-width:1;" x1="556.5557" x2="556.5557" y1="494.7427" y2="543.2427"/><polygon fill="#333333" points="552.5557,533.2427,556.5557,543.2427,560.5557,533.2427,556.5557,537.2427" style="stroke:#333333;stroke-width:1;"/><line style="stroke:#333333;stroke-width:1;" x1="720.793" x2="720.793" y1="208.7456" y2="228.7456"/><polygon fill="#333333" points="716.793,218.7456,720.793,228.7456,724.793,218.7456,720.793,222.7456" style="stroke:#333333;stroke-width:1;"/><line style="stroke:#333333;stroke-width:1;" x1="313.7163" x2="313.7163" y1="158.7466" y2="162.2466"/><line style="stroke:#333333;stroke-width:1;" x1="313.7163" x2="476.1445" y1="162.2466" y2="162.2466"/><line style="stroke:#333333;stroke-width:1;" x1="476.1445" x2="476.1445" y1="162.2466" y2="177.2466"/><polygon fill="#333333" points="472.1445,167.2466,476.1445,177.2466,480.1445,167.2466,476.1445,171.2466" style="stroke:#333333;stroke-width:1;"/><line style="stroke:#333333;stroke-width:1;" x1="413.4673" x2="413.4673" y1="158.7466" y2="162.2466"/><line style="stroke:#333333;stroke-width:1;" x1="413.4673" x2="720.793" y1="162.2466" y2="162.2466"/><line style="stroke:#333333;stroke-width:1;" x1="720.793" x2="720.793" y1="162.2466" y2="177.2466"/><polygon fill="#333333" points="716.793,167.2466,720.793,177.2466,724.793,167.2466,720.793,171.2466" style="stroke:#333333;stroke-width:1;"/><line style="stroke:#333333;stroke-width:1;" x1="167.0664" x2="167.0664" y1="208.7456" y2="214.7456"/><line style="stroke:#333333;stroke-width:1;" x1="167.0664" x2="622.377" y1="214.7456" y2="214.7456"/><line style="stroke:#333333;stroke-width:1;" x1="622.377" x2="622.377" y1="214.7456" y2="228.7456"/><polygon fill="#333333" points="618.377,218.7456,622.377,228.7456,626.377,218.7456,622.377,222.7456" style="stroke:#333333;stroke-width:1;"/><line style="stroke:#333333;stroke-width:1;" x1="476.1445" x2="476.1445" y1="208.7456" y2="214.7456"/><line style="stroke:#333333;stroke-width:1;" x1="476.1445" x2="640.377" y1="214.7456" y2="214.7456"/><line style="stroke:#333333;stroke-width:1;" x1="640.377" x2="640.377" y1="214.7456" y2="228.7456"/><polygon fill="#333333" points="636.377,218.7456,640.377,228.7456,644.377,218.7456,640.377,222.7456" style="stroke:#333333;stroke-width:1;"/><line style="stroke:#333333;stroke-width:1;" x1="55.5469" x2="55.5469" y1="137.2466" y2="142.2466"/><line style="stroke:#333333;stroke-width:1;" x1="55.5469" x2="313.1597" y1="142.2466" y2="142.2466"/><line style="stroke:#333333;stroke-width:1;" x1="313.1597" x2="313.1597" y1="142.2466" y2="157.2466"/><polygon fill="#333333" points="309.1597,147.2466,313.1597,157.2466,317.1597,147.2466,313.1597,151.2466" style="stroke:#333333;stroke-width:1;"/><line style="stroke:#333333;stroke-width:1;" x1="639.8203" x2="639.8203" y1="230.2456" y2="233.7456"/><line style="stroke:#333333;stroke-width:1;" x1="639.8203" x2="313.1597" y1="233.7456" y2="233.7456"/><line style="stroke:#333333;stroke-width:1;" x1="313.1597" x2="313.1597" y1="233.7456" y2="248.7456"/><polygon fill="#333333" points="309.1597,238.7456,313.1597,248.7456,317.1597,238.7456,313.1597,242.7456" style="stroke:#333333;stroke-width:1;"/><line style="stroke:#333333;stroke-width:1;" x1="394.1274" x2="394.1274" y1="349.7446" y2="353.2446"/><line style="stroke:#333333;stroke-width:1;" x1="394.1274" x2="556.5557" y1="353.2446" y2="353.2446"/><line style="stroke:#333333;stroke-width:1;" x1="556.5557" x2="556.5557" y1="353.2446" y2="396.7446"/><polygon fill="#333333" points="552.5557,386.7446,556.5557,396.7446,560.5557,386.7446,556.5557,390.7446" style="stroke:#333333;stroke-width:1;"/><text fill="#000000" font-family="Arial" font-size="11" lengthAdjust="spacing" textLength="69.0938" x="20" y="58.4165">Recepcionista</text><text fill="#000000" font-family="Arial" font-size="11" lengthAdjust="spacing" textLength="53.1953" x="229.6829" y="58.4165">Veterin&#225;rio</text><text fill="#000000" font-family="Arial" font-size="11" lengthAdjust="spacing" textLength="39.7354" x="498.0544" y="58.4165">Sistema</text><text fill="#000000" font-family="Arial" font-size="11" lengthAdjust="spacing" textLength="25.6738" x="691.4561" y="58.4165">Tutor</text><!--SRC=[VP2nIWD148RxVOgrIv3u0Bb2Gi16C24UDYAoR2QNmTsTOtPEHEvbn49IfxFT5tDoGGM5D5Fyk_y__tndc7perc0VFSL8wQBjOZ16K0BOgz2zaDN7ENB73JfZ-XLuQ3rImYokDpfOp7JMG5exhep9RK0nrlPt8C2OoXiZzIfCPyyke2iVvPtiaijkCakGfUmoUbSTVTOr3jF1VQln4DrWd6_1FmKL3ZtAfnRnzCzGTq8yVA-1ux4rfGn9CEfGWpOybZD_kk76ZcfQKxQBwyknbIqaExfFslDXh85Pg3KGCgYOCGxQT0LwpAlZ7pH3FcvE0LX1eqUmccfsALCBxAJizRaQ-0HnrVU-4pYMPPydYwKzLugGFUE0T8Yu8S6DujGD1no_Dty1]--></g></svg>