<svg xmlns="http://www.w3.org/2000/svg" xmlns:xlink="http://www.w3.org/1999/xlink" contentStyleType="text/css" data-diagram-type="ACTIVITY" height="828px" preserveAspectRatio="none" style="width:796px;height:828px;background:#FEFEFE;" version="1.1" viewBox="0 0 796 828" width="796px" zoomAndPan="magnify"><title>Fluxo de Interna&#231;&#227;o</title><defs/><g><rect fill="#FEFEFE" height="828" style="stroke:none;stroke-width:1;" width="796" x="0" y="0"/><text fill="#000000" font-family="Arial" font-size="14" font-weight="bold" lengthAdjust="spacing" textLength="132.248" x="330.4886" y="33.1318">Fluxo de Interna&#231;&#227;o</text><rect fill="none" height="12.6489" style="stroke:none;stroke-width:1;" width="763.2253" x="15" y="48.0986"/><ellipse cx="226.1865" cy="75.7476" fill="#222222" rx="10" ry="10" style="stroke:#222222;stroke-width:1;"/><rect fill="#FFFFFF" height="31.499" rx="12.5" ry="12.5" style="stroke:#333333;stroke-width:0.5;" width="110.6006" x="170.8862" y="105.7476"/><text fill="#000000" font-family="Arial" font-size="10" lengthAdjust="spacing" textLength="90.6006" x="180.8862" y="125.1274">Registrar Interna&#231;&#227;o</text><rect fill="#FFFFFF" height="31.499" rx="12.5" ry="12.5" style="stroke:#333333;stroke-width:0.5;" width="96.1328" x="178.1201" y="355.7437"/><text fill="#000000" font-family="Arial" font-size="10" lengthAdjust="spacing" textLength="76.1328" x="188.1201" y="375.1235">Prescri&#231;&#227;o Di&#225;ria</text><polygon fill="#FFFFFF" points="197.2827,422.2427,255.0903,422.2427,267.0903,434.2427,255.0903,446.2427,197.2827,446.2427,185.2827,434.2427,197.2827,422.2427" style="stroke:#333333;stroke-width:0.5;"/><text fill="#000000" font-family="Arial" font-size="9" lengthAdjust="spacing" textLength="18.9976" x="230.1865" y="454.6846">[sim]</text><text fill="#000000" font-family="Arial" font-size="10" lengthAdjust="spacing" textLength="57.8076" x="197.2827" y="437.873">Alta M&#233;dica?</text><text fill="#000000" font-family="Arial" font-size="9" lengthAdjust="spacing" textLength="20.0171" x="267.0903" y="432.3354">[n&#227;o]</text><polygon fill="#FFFFFF" points="214.1865,512.2427,238.1865,512.2427,250.1865,524.2427,238.1865,536.2427,214.1865,536.2427,202.1865,524.2427,214.1865,512.2427" style="stroke:#333333;stroke-width:0.5;"/><text fill="#000000" font-family="Arial" font-size="10" lengthAdjust="spacing" textLength="22.2412" x="215.0659" y="527.873">[n&#227;o]</text><text fill="#000000" font-family="Arial" font-size="9" lengthAdjust="spacing" textLength="56.5313" x="250.1865" y="522.3354">Continua ciclo</text><line style="stroke:#333333;stroke-width:1.5;" x1="66.5737" x2="383.292" y1="600.2427" y2="600.2427"/><rect fill="#FFFFFF" height="31.499" rx="12.5" ry="12.5" style="stroke:#333333;stroke-width:0.5;" width="91.1475" x="21" y="620.2427"/><text fill="#000000" font-family="Arial" font-size="10" lengthAdjust="spacing" textLength="71.1475" x="31" y="639.6226">Resumo de Alta</text><rect fill="#FFFFFF" height="31.499" rx="12.5" ry="12.5" style="stroke:#333333;stroke-width:0.5;" width="101.1475" x="122.1475" y="620.2427"/><text fill="#000000" font-family="Arial" font-size="10" lengthAdjust="spacing" textLength="81.1475" x="132.1475" y="639.6226">Prescri&#231;&#227;o de Alta</text><rect fill="#FFFFFF" height="31.499" rx="12.5" ry="12.5" style="stroke:#333333;stroke-width:0.5;" width="73.916" x="251.2949" y="620.2427"/><text fill="#000000" font-family="Arial" font-size="10" lengthAdjust="spacing" textLength="53.916" x="261.2949" y="639.6226">Orienta&#231;&#245;es</text><rect fill="#FFFFFF" height="31.499" rx="12.5" ry="12.5" style="stroke:#333333;stroke-width:0.5;" width="96.1621" x="335.2109" y="620.2427"/><text fill="#000000" font-family="Arial" font-size="10" lengthAdjust="spacing" textLength="76.1621" x="345.2109" y="639.6226">Agendar Retorno</text><line style="stroke:#333333;stroke-width:1.5;" x1="66.5737" x2="383.292" y1="671.7417" y2="671.7417"/><ellipse cx="226.1865" cy="805.7397" fill="none" rx="11" ry="11" style="stroke:#222222;stroke-width:1;"/><ellipse cx="226.1865" cy="805.7397" fill="#222222" rx="6" ry="6" style="stroke:#222222;stroke-width:1;"/><line style="stroke:#333333;stroke-width:1.5;" x1="15" x2="15" y1="48.0986" y2="816.7397"/><rect fill="#FFFFFF" height="31.499" rx="12.5" ry="12.5" style="stroke:#333333;stroke-width:0.5;" width="82.793" x="441.373" y="157.2466"/><text fill="#000000" font-family="Arial" font-size="10" lengthAdjust="spacing" textLength="62.793" x="451.373" y="176.6265">Notificar Tutor</text><rect fill="#FFFFFF" height="31.499" rx="12.5" ry="12.5" style="stroke:#333333;stroke-width:0.5;" width="82.793" x="441.373" y="691.7417"/><text fill="#000000" font-family="Arial" font-size="10" lengthAdjust="spacing" textLength="62.793" x="451.373" y="711.1216">Notificar Tutor</text><line style="stroke:#333333;stroke-width:1.5;" x1="435.373" x2="435.373" y1="48.0986" y2="816.7397"/><rect fill="#FFFFFF" height="31.499" rx="12.5" ry="12.5" style="stroke:#333333;stroke-width:0.5;" width="111.7139" x="534.166" y="208.7456"/><text fill="#000000" font-family="Arial" font-size="10" lengthAdjust="spacing" textLength="91.7139" x="544.166" y="228.1255">Recebe Notifica&#231;&#245;es</text><rect fill="#FFFFFF" height="31.499" rx="12.5" ry="12.5" style="stroke:#333333;stroke-width:0.5;" width="111.7139" x="534.166" y="743.2407"/><text fill="#000000" font-family="Arial" font-size="10" lengthAdjust="spacing" textLength="91.7139" x="544.166" y="762.6206">Recebe Notifica&#231;&#245;es</text><line style="stroke:#333333;stroke-width:1.5;" x1="528.166" x2="528.166" y1="48.0986" y2="816.7397"/><rect fill="#FFFFFF" height="31.499" rx="12.5" ry="12.5" style="stroke:#333333;stroke-width:0.5;" width="117.8174" x="655.8799" y="304.2446"/><text fill="#000000" font-family="Arial" font-size="10" lengthAdjust="spacing" textLength="97.8174" x="665.8799" y="323.6245">Ciclo: Evolu&#231;&#227;o Di&#225;ria</text><polygon fill="#FFFFFF" points="714.7886,260.2446,726.7886,272.2446,714.7886,284.2446,702.7886,272.2446,714.7886,260.2446" style="stroke:#333333;stroke-width:0.5;"/><polygon fill="#FFFFFF" points="714.7886,556.2427,726.7886,568.2427,714.7886,580.2427,702.7886,568.2427,714.7886,556.2427" style="stroke:#333333;stroke-width:0.5;"/><line style="stroke:#333333;stroke-width:1.5;" x1="649.8799" x2="649.8799" y1="48.0986" y2="816.7397"/><line style="stroke:#333333;stroke-width:1.5;" x1="777.6973" x2="777.6973" y1="48.0986" y2="816.7397"/><line style="stroke:#333333;stroke-width:1;" x1="226.1865" x2="226.1865" y1="85.7476" y2="105.7476"/><polygon fill="#333333" points="222.1865,95.7476,226.1865,105.7476,230.1865,95.7476,226.1865,99.7476" style="stroke:#333333;stroke-width:1;"/><line style="stroke:#333333;stroke-width:1;" x1="226.1865" x2="226.1865" y1="446.2427" y2="470.2427"/><polygon fill="#333333" points="222.1865,460.2427,226.1865,470.2427,230.1865,460.2427,226.1865,464.2427" style="stroke:#333333;stroke-width:1;"/><line style="stroke:#333333;stroke-width:1;" x1="267.0903" x2="279.0903" y1="434.2427" y2="434.2427"/><polygon fill="#333333" points="275.0903,457.2427,279.0903,467.2427,283.0903,457.2427,279.0903,461.2427" style="stroke:#333333;stroke-width:1;"/><line style="stroke:#333333;stroke-width:1;" x1="279.0903" x2="279.0903" y1="434.2427" y2="492.2427"/><line style="stroke:#333333;stroke-width:1;" x1="279.0903" x2="226.1865" y1="492.2427" y2="492.2427"/><line style="stroke:#333333;stroke-width:1;" x1="226.1865" x2="226.1865" y1="492.2427" y2="512.2427"/><polygon fill="#333333" points="222.1865,502.2427,226.1865,512.2427,230.1865,502.2427,226.1865,506.2427" style="stroke:#333333;stroke-width:1;"/><line style="stroke:#333333;stroke-width:1;" x1="226.1865" x2="226.1865" y1="387.2427" y2="422.2427"/><polygon fill="#333333" points="222.1865,412.2427,226.1865,422.2427,230.1865,412.2427,226.1865,416.2427" style="stroke:#333333;stroke-width:1;"/><line style="stroke:#333333;stroke-width:1;" x1="66.5737" x2="66.5737" y1="601.7427" y2="620.2427"/><polygon fill="#333333" points="62.5737,610.2427,66.5737,620.2427,70.5737,610.2427,66.5737,614.2427" style="stroke:#333333;stroke-width:1;"/><line style="stroke:#333333;stroke-width:1;" x1="172.7212" x2="172.7212" y1="601.7427" y2="620.2427"/><polygon fill="#333333" points="168.7212,610.2427,172.7212,620.2427,176.7212,610.2427,172.7212,614.2427" style="stroke:#333333;stroke-width:1;"/><line style="stroke:#333333;stroke-width:1;" x1="288.2529" x2="288.2529" y1="601.7427" y2="620.2427"/><polygon fill="#333333" points="284.2529,610.2427,288.2529,620.2427,292.2529,610.2427,288.2529,614.2427" style="stroke:#333333;stroke-width:1;"/><line style="stroke:#333333;stroke-width:1;" x1="383.292" x2="383.292" y1="601.7427" y2="620.2427"/><polygon fill="#333333" points="379.292,610.2427,383.292,620.2427,387.292,610.2427,383.292,614.2427" style="stroke:#333333;stroke-width:1;"/><line style="stroke:#333333;stroke-width:1;" x1="66.5737" x2="66.5737" y1="651.7417" y2="671.7417"/><polygon fill="#333333" points="62.5737,661.7417,66.5737,671.7417,70.5737,661.7417,66.5737,665.7417" style="stroke:#333333;stroke-width:1;"/><line style="stroke:#333333;stroke-width:1;" x1="172.7212" x2="172.7212" y1="651.7417" y2="671.7417"/><polygon fill="#333333" points="168.7212,661.7417,172.7212,671.7417,176.7212,661.7417,172.7212,665.7417" style="stroke:#333333;stroke-width:1;"/><line style="stroke:#333333;stroke-width:1;" x1="288.2529" x2="288.2529" y1="651.7417" y2="671.7417"/><polygon fill="#333333" points="284.2529,661.7417,288.2529,671.7417,292.2529,661.7417,288.2529,665.7417" style="stroke:#333333;stroke-width:1;"/><line style="stroke:#333333;stroke-width:1;" x1="383.292" x2="383.292" y1="651.7417" y2="671.7417"/><polygon fill="#333333" points="379.292,661.7417,383.292,671.7417,387.292,661.7417,383.292,665.7417" style="stroke:#333333;stroke-width:1;"/><line style="stroke:#333333;stroke-width:1;" x1="714.7886" x2="714.7886" y1="284.2446" y2="304.2446"/><polygon fill="#333333" points="710.7886,294.2446,714.7886,304.2446,718.7886,294.2446,714.7886,298.2446" style="stroke:#333333;stroke-width:1;"/><line style="stroke:#333333;stroke-width:1;" x1="226.1865" x2="226.1865" y1="137.2466" y2="142.2466"/><line style="stroke:#333333;stroke-width:1;" x1="226.1865" x2="482.7695" y1="142.2466" y2="142.2466"/><line style="stroke:#333333;stroke-width:1;" x1="482.7695" x2="482.7695" y1="142.2466" y2="157.2466"/><polygon fill="#333333" points="478.7695,147.2466,482.7695,157.2466,486.7695,147.2466,482.7695,151.2466" style="stroke:#333333;stroke-width:1;"/><line style="stroke:#333333;stroke-width:1;" x1="482.7695" x2="482.7695" y1="188.7456" y2="193.7456"/><line style="stroke:#333333;stroke-width:1;" x1="482.7695" x2="590.0229" y1="193.7456" y2="193.7456"/><line style="stroke:#333333;stroke-width:1;" x1="590.0229" x2="590.0229" y1="193.7456" y2="208.7456"/><polygon fill="#333333" points="586.0229,198.7456,590.0229,208.7456,594.0229,198.7456,590.0229,202.7456" style="stroke:#333333;stroke-width:1;"/><line style="stroke:#333333;stroke-width:1;" x1="714.7886" x2="714.7886" y1="335.7437" y2="340.7437"/><line style="stroke:#333333;stroke-width:1;" x1="714.7886" x2="226.1865" y1="340.7437" y2="340.7437"/><line style="stroke:#333333;stroke-width:1;" x1="226.1865" x2="226.1865" y1="340.7437" y2="355.7437"/><polygon fill="#333333" points="222.1865,345.7437,226.1865,355.7437,230.1865,345.7437,226.1865,349.7437" style="stroke:#333333;stroke-width:1;"/><line style="stroke:#333333;stroke-width:1;" x1="250.1865" x2="585.1381" y1="524.2427" y2="524.2427"/><polygon fill="#333333" points="581.1381,404.7437,585.1381,394.7437,589.1381,404.7437,585.1381,400.7437" style="stroke:#333333;stroke-width:1;"/><line style="stroke:#333333;stroke-width:1;" x1="585.1381" x2="585.1381" y1="272.2446" y2="524.2427"/><line style="stroke:#333333;stroke-width:1;" x1="585.1381" x2="702.7886" y1="272.2446" y2="272.2446"/><polygon fill="#333333" points="692.7886,268.2446,702.7886,272.2446,692.7886,276.2446,696.7886,272.2446" style="stroke:#333333;stroke-width:1;"/><line style="stroke:#333333;stroke-width:1;" x1="226.1865" x2="226.1865" y1="536.2427" y2="541.2427"/><line style="stroke:#333333;stroke-width:1;" x1="226.1865" x2="714.7886" y1="541.2427" y2="541.2427"/><line style="stroke:#333333;stroke-width:1;" x1="714.7886" x2="714.7886" y1="541.2427" y2="556.2427"/><polygon fill="#333333" points="710.7886,546.2427,714.7886,556.2427,718.7886,546.2427,714.7886,550.2427" style="stroke:#333333;stroke-width:1;"/><line style="stroke:#333333;stroke-width:1;" x1="590.0229" x2="590.0229" y1="240.2446" y2="245.2446"/><line style="stroke:#333333;stroke-width:1;" x1="590.0229" x2="714.7886" y1="245.2446" y2="245.2446"/><line style="stroke:#333333;stroke-width:1;" x1="714.7886" x2="714.7886" y1="245.2446" y2="260.2446"/><polygon fill="#333333" points="710.7886,250.2446,714.7886,260.2446,718.7886,250.2446,714.7886,254.2446" style="stroke:#333333;stroke-width:1;"/><line style="stroke:#333333;stroke-width:1;" x1="714.7886" x2="714.7886" y1="580.2427" y2="585.2427"/><line style="stroke:#333333;stroke-width:1;" x1="714.7886" x2="226.1865" y1="585.2427" y2="585.2427"/><line style="stroke:#333333;stroke-width:1;" x1="226.1865" x2="226.1865" y1="585.2427" y2="600.2427"/><polygon fill="#333333" points="222.1865,590.2427,226.1865,600.2427,230.1865,590.2427,226.1865,594.2427" style="stroke:#333333;stroke-width:1;"/><line style="stroke:#333333;stroke-width:1;" x1="226.1865" x2="226.1865" y1="673.2417" y2="676.7417"/><line style="stroke:#333333;stroke-width:1;" x1="226.1865" x2="482.7695" y1="676.7417" y2="676.7417"/><line style="stroke:#333333;stroke-width:1;" x1="482.7695" x2="482.7695" y1="676.7417" y2="691.7417"/><polygon fill="#333333" points="478.7695,681.7417,482.7695,691.7417,486.7695,681.7417,482.7695,685.7417" style="stroke:#333333;stroke-width:1;"/><line style="stroke:#333333;stroke-width:1;" x1="482.7695" x2="482.7695" y1="723.2407" y2="728.2407"/><line style="stroke:#333333;stroke-width:1;" x1="482.7695" x2="590.0229" y1="728.2407" y2="728.2407"/><line style="stroke:#333333;stroke-width:1;" x1="590.0229" x2="590.0229" y1="728.2407" y2="743.2407"/><polygon fill="#333333" points="586.0229,733.2407,590.0229,743.2407,594.0229,733.2407,590.0229,737.2407" style="stroke:#333333;stroke-width:1;"/><line style="stroke:#333333;stroke-width:1;" x1="590.0229" x2="590.0229" y1="774.7397" y2="779.7397"/><line style="stroke:#333333;stroke-width:1;" x1="590.0229" x2="226.1865" y1="779.7397" y2="779.7397"/><line style="stroke:#333333;stroke-width:1;" x1="226.1865" x2="226.1865" y1="779.7397" y2="794.7397"/><polygon fill="#333333" points="222.1865,784.7397,226.1865,794.7397,230.1865,784.7397,226.1865,788.7397" style="stroke:#333333;stroke-width:1;"/><text fill="#000000" font-family="Arial" font-size="11" lengthAdjust="spacing" textLength="53.1953" x="198.5889" y="58.4165">Veterin&#225;rio</text><text fill="#000000" font-family="Arial" font-size="11" lengthAdjust="spacing" textLength="39.7354" x="461.9019" y="58.4165">Sistema</text><text fill="#000000" font-family="Arial" font-size="11" lengthAdjust="spacing" textLength="25.6738" x="576.186" y="58.4165">Tutor</text><text fill="#000000" font-family="Arial" font-size="11" lengthAdjust="spacing" textLength="53.7969" x="686.8901" y="58.4165">Enfermeiro</text><!--SRC=[fP4zJWCn48LxdsBeaeO3R0eKXI1HyAE0Q112ZZEx6M6FL_u1YhqCea0SW1FinHXl858IKT5v_BxHUtfpH6niNY4y6k-Sv-CsEwjKecGHpcn-zI3YEISChFkF_jqhrTsXZCJzMo3VgPXqIAfQO4Cn1Hrsw8dWD_AFJdUgklI9QZB2tERaGn67HrVM3IuHVWbP_i9OW3dN61nI4Ak0BUga0AeP6Uihc3zxcmSZEAMIHyiAm5v2uQy3HXFe4AKQHbERD5pqdoinFXb3MYF3w9u5VHWBWZQYp97SC08i0-gd8l2AwfzGyB8cYzire0YZcUT4d3MOadQiL6mj3V4N6BCRgYtUauq0kj741sd_Wgu28QTjKtlgj95qKlG2fL-MEyYuiV_lGVQlxzjl]--></g></svg>