<svg xmlns="http://www.w3.org/2000/svg" xmlns:xlink="http://www.w3.org/1999/xlink" contentStyleType="text/css" data-diagram-type="ACTIVITY" height="659px" preserveAspectRatio="none" style="width:413px;height:659px;background:#FEFEFE;" version="1.1" viewBox="0 0 413 659" width="413px" zoomAndPan="magnify"><title>Fluxo de Farm&#225;cia</title><defs/><g><rect fill="#FEFEFE" height="659" style="stroke:none;stroke-width:1;" width="413" x="0" y="0"/><text fill="#000000" font-family="Arial" font-size="14" font-weight="bold" lengthAdjust="spacing" textLength="122.9307" x="143.6842" y="33.1318">Fluxo de Farm&#225;cia</text><rect fill="none" height="12.6489" style="stroke:none;stroke-width:1;" width="380.2991" x="15" y="48.0986"/><ellipse cx="139.9971" cy="75.7476" fill="#222222" rx="10" ry="10" style="stroke:#222222;stroke-width:1;"/><rect fill="#FFFFFF" height="31.499" rx="12.5" ry="12.5" style="stroke:#333333;stroke-width:0.5;" width="101.709" x="89.1426" y="105.7476"/><text fill="#000000" font-family="Arial" font-size="10" lengthAdjust="spacing" textLength="81.709" x="99.1426" y="125.1274">Cadastrar Produto</text><rect fill="#FFFFFF" height="31.499" rx="12.5" ry="12.5" style="stroke:#333333;stroke-width:0.5;" width="130.0439" x="74.9751" y="205.2466"/><text fill="#000000" font-family="Arial" font-size="10" lengthAdjust="spacing" textLength="110.0439" x="84.9751" y="224.6265">Marcar como Controlado</text><polygon fill="#FFFFFF" points="93.0269,157.2466,186.9673,157.2466,198.9673,169.2466,186.9673,181.2466,93.0269,181.2466,81.0269,169.2466,93.0269,157.2466" style="stroke:#333333;stroke-width:0.5;"/><text fill="#000000" font-family="Arial" font-size="9" lengthAdjust="spacing" textLength="18.9976" x="143.9971" y="189.6885">[sim]</text><text fill="#000000" font-family="Arial" font-size="10" lengthAdjust="spacing" textLength="93.9404" x="93.0269" y="172.877">Controlado ANVISA?</text><text fill="#000000" font-family="Arial" font-size="9" lengthAdjust="spacing" textLength="20.0171" x="198.9673" y="167.3394">[n&#227;o]</text><polygon fill="#FFFFFF" points="139.9971,256.7456,151.9971,268.7456,139.9971,280.7456,127.9971,268.7456,139.9971,256.7456" style="stroke:#333333;stroke-width:0.5;"/><rect fill="#FFFFFF" height="31.499" rx="12.5" ry="12.5" style="stroke:#333333;stroke-width:0.5;" width="127.5684" x="76.2129" y="300.7456"/><text fill="#000000" font-family="Arial" font-size="10" lengthAdjust="spacing" textLength="107.5684" x="86.2129" y="320.1255">Registrar Lote+Validade</text><rect fill="#FFFFFF" height="31.499" rx="12.5" ry="12.5" style="stroke:#333333;stroke-width:0.5;" width="91.6895" x="94.1523" y="400.2446"/><text fill="#000000" font-family="Arial" font-size="10" lengthAdjust="spacing" textLength="71.6895" x="104.1523" y="419.6245">Configurar Tiers</text><polygon fill="#FFFFFF" points="96.3618,352.2446,183.6323,352.2446,195.6323,364.2446,183.6323,376.2446,96.3618,376.2446,84.3618,364.2446,96.3618,352.2446" style="stroke:#333333;stroke-width:0.5;"/><text fill="#000000" font-family="Arial" font-size="9" lengthAdjust="spacing" textLength="18.9976" x="143.9971" y="384.6865">[sim]</text><text fill="#000000" font-family="Arial" font-size="10" lengthAdjust="spacing" textLength="87.2705" x="96.3618" y="367.875">Pre&#231;o por Esp&#233;cie?</text><text fill="#000000" font-family="Arial" font-size="9" lengthAdjust="spacing" textLength="20.0171" x="195.6323" y="362.3374">[n&#227;o]</text><polygon fill="#FFFFFF" points="139.9971,451.7437,151.9971,463.7437,139.9971,475.7437,127.9971,463.7437,139.9971,451.7437" style="stroke:#333333;stroke-width:0.5;"/><polygon fill="#FFFFFF" points="88.8545,495.7437,191.1396,495.7437,203.1396,507.7437,191.1396,519.7437,88.8545,519.7437,76.8545,507.7437,88.8545,495.7437" style="stroke:#333333;stroke-width:0.5;"/><text fill="#000000" font-family="Arial" font-size="10" lengthAdjust="spacing" textLength="102.2852" x="88.8545" y="511.374">Venda ou Uso Cl&#237;nico?</text><text fill="#000000" font-family="Arial" font-size="9" lengthAdjust="spacing" textLength="31.0254" x="45.8291" y="505.8364">[Venda]</text><text fill="#000000" font-family="Arial" font-size="9" lengthAdjust="spacing" textLength="51.0161" x="203.1396" y="505.8364">[Uso Cl&#237;nico]</text><rect fill="#FFFFFF" height="31.499" rx="12.5" ry="12.5" style="stroke:#333333;stroke-width:0.5;" width="91.709" x="21" y="539.7437"/><text fill="#000000" font-family="Arial" font-size="10" lengthAdjust="spacing" textLength="71.709" x="31" y="559.1235">Debitar Estoque</text><polygon fill="#FFFFFF" points="139.9971,581.2427,151.9971,593.2427,139.9971,605.2427,127.9971,593.2427,139.9971,581.2427" style="stroke:#333333;stroke-width:0.5;"/><ellipse cx="139.9971" cy="636.2427" fill="none" rx="11" ry="11" style="stroke:#222222;stroke-width:1;"/><ellipse cx="139.9971" cy="636.2427" fill="#222222" rx="6" ry="6" style="stroke:#222222;stroke-width:1;"/><line style="stroke:#333333;stroke-width:1.5;" x1="15" x2="15" y1="48.0986" y2="647.2427"/><rect fill="#FFFFFF" height="31.499" rx="12.5" ry="12.5" style="stroke:#333333;stroke-width:0.5;" width="125.6152" x="265.1558" y="539.7437"/><text fill="#000000" font-family="Arial" font-size="10" lengthAdjust="spacing" textLength="105.6152" x="275.1558" y="559.1235">Consumo no Prontu&#225;rio</text><line style="stroke:#333333;stroke-width:1.5;" x1="259.1558" x2="259.1558" y1="48.0986" y2="647.2427"/><line style="stroke:#333333;stroke-width:1.5;" x1="394.771" x2="394.771" y1="48.0986" y2="647.2427"/><line style="stroke:#333333;stroke-width:1;" x1="139.9971" x2="139.9971" y1="85.7476" y2="105.7476"/><polygon fill="#333333" points="135.9971,95.7476,139.9971,105.7476,143.9971,95.7476,139.9971,99.7476" style="stroke:#333333;stroke-width:1;"/><line style="stroke:#333333;stroke-width:1;" x1="139.9971" x2="139.9971" y1="181.2466" y2="205.2466"/><polygon fill="#333333" points="135.9971,195.2466,139.9971,205.2466,143.9971,195.2466,139.9971,199.2466" style="stroke:#333333;stroke-width:1;"/><line style="stroke:#333333;stroke-width:1;" x1="198.9673" x2="215.019" y1="169.2466" y2="169.2466"/><polygon fill="#333333" points="211.019,210.9961,215.019,220.9961,219.019,210.9961,215.019,214.9961" style="stroke:#333333;stroke-width:1;"/><line style="stroke:#333333;stroke-width:1;" x1="215.019" x2="215.019" y1="169.2466" y2="268.7456"/><line style="stroke:#333333;stroke-width:1;" x1="215.019" x2="151.9971" y1="268.7456" y2="268.7456"/><polygon fill="#333333" points="161.9971,264.7456,151.9971,268.7456,161.9971,272.7456,157.9971,268.7456" style="stroke:#333333;stroke-width:1;"/><line style="stroke:#333333;stroke-width:1;" x1="139.9971" x2="139.9971" y1="236.7456" y2="256.7456"/><polygon fill="#333333" points="135.9971,246.7456,139.9971,256.7456,143.9971,246.7456,139.9971,250.7456" style="stroke:#333333;stroke-width:1;"/><line style="stroke:#333333;stroke-width:1;" x1="139.9971" x2="139.9971" y1="137.2466" y2="157.2466"/><polygon fill="#333333" points="135.9971,147.2466,139.9971,157.2466,143.9971,147.2466,139.9971,151.2466" style="stroke:#333333;stroke-width:1;"/><line style="stroke:#333333;stroke-width:1;" x1="139.9971" x2="139.9971" y1="280.7456" y2="300.7456"/><polygon fill="#333333" points="135.9971,290.7456,139.9971,300.7456,143.9971,290.7456,139.9971,294.7456" style="stroke:#333333;stroke-width:1;"/><line style="stroke:#333333;stroke-width:1;" x1="139.9971" x2="139.9971" y1="376.2446" y2="400.2446"/><polygon fill="#333333" points="135.9971,390.2446,139.9971,400.2446,143.9971,390.2446,139.9971,394.2446" style="stroke:#333333;stroke-width:1;"/><line style="stroke:#333333;stroke-width:1;" x1="195.6323" x2="207.6323" y1="364.2446" y2="364.2446"/><polygon fill="#333333" points="203.6323,405.9941,207.6323,415.9941,211.6323,405.9941,207.6323,409.9941" style="stroke:#333333;stroke-width:1;"/><line style="stroke:#333333;stroke-width:1;" x1="207.6323" x2="207.6323" y1="364.2446" y2="463.7437"/><line style="stroke:#333333;stroke-width:1;" x1="207.6323" x2="151.9971" y1="463.7437" y2="463.7437"/><polygon fill="#333333" points="161.9971,459.7437,151.9971,463.7437,161.9971,467.7437,157.9971,463.7437" style="stroke:#333333;stroke-width:1;"/><line style="stroke:#333333;stroke-width:1;" x1="139.9971" x2="139.9971" y1="431.7437" y2="451.7437"/><polygon fill="#333333" points="135.9971,441.7437,139.9971,451.7437,143.9971,441.7437,139.9971,445.7437" style="stroke:#333333;stroke-width:1;"/><line style="stroke:#333333;stroke-width:1;" x1="139.9971" x2="139.9971" y1="332.2446" y2="352.2446"/><polygon fill="#333333" points="135.9971,342.2446,139.9971,352.2446,143.9971,342.2446,139.9971,346.2446" style="stroke:#333333;stroke-width:1;"/><line style="stroke:#333333;stroke-width:1;" x1="76.8545" x2="66.8545" y1="507.7437" y2="507.7437"/><line style="stroke:#333333;stroke-width:1;" x1="66.8545" x2="66.8545" y1="507.7437" y2="539.7437"/><polygon fill="#333333" points="62.8545,529.7437,66.8545,539.7437,70.8545,529.7437,66.8545,533.7437" style="stroke:#333333;stroke-width:1;"/><line style="stroke:#333333;stroke-width:1;" x1="66.8545" x2="66.8545" y1="571.2427" y2="593.2427"/><line style="stroke:#333333;stroke-width:1;" x1="66.8545" x2="127.9971" y1="593.2427" y2="593.2427"/><polygon fill="#333333" points="117.9971,589.2427,127.9971,593.2427,117.9971,597.2427,121.9971,593.2427" style="stroke:#333333;stroke-width:1;"/><line style="stroke:#333333;stroke-width:1;" x1="139.9971" x2="139.9971" y1="475.7437" y2="495.7437"/><polygon fill="#333333" points="135.9971,485.7437,139.9971,495.7437,143.9971,485.7437,139.9971,489.7437" style="stroke:#333333;stroke-width:1;"/><line style="stroke:#333333;stroke-width:1;" x1="139.9971" x2="139.9971" y1="605.2427" y2="625.2427"/><polygon fill="#333333" points="135.9971,615.2427,139.9971,625.2427,143.9971,615.2427,139.9971,619.2427" style="stroke:#333333;stroke-width:1;"/><line style="stroke:#333333;stroke-width:1;" x1="203.1396" x2="327.9634" y1="507.7437" y2="507.7437"/><line style="stroke:#333333;stroke-width:1;" x1="327.9634" x2="327.9634" y1="507.7437" y2="539.7437"/><polygon fill="#333333" points="323.9634,529.7437,327.9634,539.7437,331.9634,529.7437,327.9634,533.7437" style="stroke:#333333;stroke-width:1;"/><line style="stroke:#333333;stroke-width:1;" x1="327.9634" x2="327.9634" y1="571.2427" y2="593.2427"/><line style="stroke:#333333;stroke-width:1;" x1="327.9634" x2="151.9971" y1="593.2427" y2="593.2427"/><polygon fill="#333333" points="161.9971,589.2427,151.9971,593.2427,161.9971,597.2427,157.9971,593.2427" style="stroke:#333333;stroke-width:1;"/><text fill="#000000" font-family="Arial" font-size="11" lengthAdjust="spacing" textLength="40.3638" x="116.896" y="58.4165">Estoque</text><text fill="#000000" font-family="Arial" font-size="11" lengthAdjust="spacing" textLength="53.1953" x="300.3657" y="58.4165">Veterin&#225;rio</text><!--SRC=[XP1DJiCm48NtFiMmQuN40P85gaeh8G6g-Ca68MJYIHd9yOInBR78PIeMY0MdyCLmsj1srvr7p_E-D- -CN6sZGNYjkMtPNNInjKe52XPXQUCdGnQNMjgqgKahrIzyu8-8lV91Ir35N1ljWsY1bR29WKkbg879d5qGjjempEwgwuVPvHJ2EpgOFBlqnIzJXTPZdZorUG0eRhNKsIO7OJXibmgTeKQfuXxNj2FTSC3pIbiosk38MmccRuQE1HQ-IpyruKbYfZIqZeFb8w7uFMimhF9R0qTuyZcFJR-EQZvORkMTpHM-KIu3nchAVyxnulPdNs508PSsGjoF2NpCzpeUwdCXRgLzZkEskVi3]--></g></svg>