<svg xmlns="http://www.w3.org/2000/svg" xmlns:xlink="http://www.w3.org/1999/xlink" contentStyleType="text/css" data-diagram-type="ACTIVITY" height="385px" preserveAspectRatio="none" style="width:672px;height:385px;background:#FEFEFE;" version="1.1" viewBox="0 0 672 385" width="672px" zoomAndPan="magnify"><title>Fluxo de Subst&#226;ncias Controladas</title><defs/><g><rect fill="#FEFEFE" height="385" style="stroke:none;stroke-width:1;" width="672" x="0" y="0"/><text fill="#000000" font-family="Arial" font-size="14" font-weight="bold" lengthAdjust="spacing" textLength="229.4893" x="219.8309" y="33.1318">Fluxo de Subst&#226;ncias Controladas</text><rect fill="none" height="12.6489" style="stroke:none;stroke-width:1;" width="639.1511" x="15" y="48.0986"/><ellipse cx="114.6646" cy="75.7476" fill="#222222" rx="10" ry="10" style="stroke:#222222;stroke-width:1;"/><rect fill="#FFFFFF" height="31.499" rx="12.5" ry="12.5" style="stroke:#333333;stroke-width:0.5;" width="107.2656" x="61.0317" y="105.7476"/><text fill="#000000" font-family="Arial" font-size="10" lengthAdjust="spacing" textLength="87.2656" x="71.0317" y="125.1274">Compra Controlada</text><rect fill="#FFFFFF" height="31.499" rx="12.5" ry="12.5" style="stroke:#333333;stroke-width:0.5;" width="187.3291" x="21" y="157.2466"/><text fill="#000000" font-family="Arial" font-size="10" lengthAdjust="spacing" textLength="167.3291" x="31" y="176.6265">Registrar Entrada Lote+Validade+Qtd</text><ellipse cx="114.6646" cy="362.7437" fill="none" rx="11" ry="11" style="stroke:#222222;stroke-width:1;"/><ellipse cx="114.6646" cy="362.7437" fill="#222222" rx="6" ry="6" style="stroke:#222222;stroke-width:1;"/><line style="stroke:#333333;stroke-width:1.5;" x1="15" x2="15" y1="48.0986" y2="373.7437"/><rect fill="#FFFFFF" height="31.499" rx="12.5" ry="12.5" style="stroke:#333333;stroke-width:0.5;" width="188.4277" x="218.3291" y="208.7456"/><text fill="#000000" font-family="Arial" font-size="10" lengthAdjust="spacing" textLength="168.4277" x="228.3291" y="228.1255">Sa&#237;da Auditada (quem/pet/prescri&#231;&#227;o)</text><line style="stroke:#333333;stroke-width:1.5;" x1="212.3291" x2="212.3291" y1="48.0986" y2="373.7437"/><line style="stroke:#333333;stroke-width:1.5;" x1="484.0029" x2="605.436" y1="260.2446" y2="260.2446"/><rect fill="#FFFFFF" height="31.499" rx="12.5" ry="12.5" style="stroke:#333333;stroke-width:0.5;" width="134.4922" x="416.7568" y="280.2446"/><text fill="#000000" font-family="Arial" font-size="10" lengthAdjust="spacing" textLength="114.4922" x="426.7568" y="299.6245">Relat&#243;rio Mensal ANVISA</text><rect fill="#FFFFFF" height="31.499" rx="12.5" ry="12.5" style="stroke:#333333;stroke-width:0.5;" width="88.374" x="561.249" y="280.2446"/><text fill="#000000" font-family="Arial" font-size="10" lengthAdjust="spacing" textLength="68.374" x="571.249" y="299.6245">Relat&#243;rio Anual</text><line style="stroke:#333333;stroke-width:1.5;" x1="484.0029" x2="605.436" y1="331.7437" y2="331.7437"/><line style="stroke:#333333;stroke-width:1.5;" x1="410.7568" x2="410.7568" y1="48.0986" y2="373.7437"/><line style="stroke:#333333;stroke-width:1.5;" x1="653.623" x2="653.623" y1="48.0986" y2="373.7437"/><line style="stroke:#333333;stroke-width:1;" x1="114.6646" x2="114.6646" y1="85.7476" y2="105.7476"/><polygon fill="#333333" points="110.6646,95.7476,114.6646,105.7476,118.6646,95.7476,114.6646,99.7476" style="stroke:#333333;stroke-width:1;"/><line style="stroke:#333333;stroke-width:1;" x1="114.6646" x2="114.6646" y1="137.2466" y2="157.2466"/><polygon fill="#333333" points="110.6646,147.2466,114.6646,157.2466,118.6646,147.2466,114.6646,151.2466" style="stroke:#333333;stroke-width:1;"/><line style="stroke:#333333;stroke-width:1;" x1="484.0029" x2="484.0029" y1="261.7446" y2="280.2446"/><polygon fill="#333333" points="480.0029,270.2446,484.0029,280.2446,488.0029,270.2446,484.0029,274.2446" style="stroke:#333333;stroke-width:1;"/><line style="stroke:#333333;stroke-width:1;" x1="605.436" x2="605.436" y1="261.7446" y2="280.2446"/><polygon fill="#333333" points="601.436,270.2446,605.436,280.2446,609.436,270.2446,605.436,274.2446" style="stroke:#333333;stroke-width:1;"/><line style="stroke:#333333;stroke-width:1;" x1="484.0029" x2="484.0029" y1="311.7437" y2="331.7437"/><polygon fill="#333333" points="480.0029,321.7437,484.0029,331.7437,488.0029,321.7437,484.0029,325.7437" style="stroke:#333333;stroke-width:1;"/><line style="stroke:#333333;stroke-width:1;" x1="605.436" x2="605.436" y1="311.7437" y2="331.7437"/><polygon fill="#333333" points="601.436,321.7437,605.436,331.7437,609.436,321.7437,605.436,325.7437" style="stroke:#333333;stroke-width:1;"/><line style="stroke:#333333;stroke-width:1;" x1="114.6646" x2="114.6646" y1="188.7456" y2="193.7456"/><line style="stroke:#333333;stroke-width:1;" x1="114.6646" x2="312.543" y1="193.7456" y2="193.7456"/><line style="stroke:#333333;stroke-width:1;" x1="312.543" x2="312.543" y1="193.7456" y2="208.7456"/><polygon fill="#333333" points="308.543,198.7456,312.543,208.7456,316.543,198.7456,312.543,202.7456" style="stroke:#333333;stroke-width:1;"/><line style="stroke:#333333;stroke-width:1;" x1="312.543" x2="312.543" y1="240.2446" y2="245.2446"/><line style="stroke:#333333;stroke-width:1;" x1="312.543" x2="542.1899" y1="245.2446" y2="245.2446"/><line style="stroke:#333333;stroke-width:1;" x1="542.1899" x2="542.1899" y1="245.2446" y2="260.2446"/><polygon fill="#333333" points="538.1899,250.2446,542.1899,260.2446,546.1899,250.2446,542.1899,254.2446" style="stroke:#333333;stroke-width:1;"/><line style="stroke:#333333;stroke-width:1;" x1="542.1899" x2="542.1899" y1="333.2437" y2="336.7437"/><line style="stroke:#333333;stroke-width:1;" x1="542.1899" x2="114.6646" y1="336.7437" y2="336.7437"/><line style="stroke:#333333;stroke-width:1;" x1="114.6646" x2="114.6646" y1="336.7437" y2="351.7437"/><polygon fill="#333333" points="110.6646,341.7437,114.6646,351.7437,118.6646,341.7437,114.6646,345.7437" style="stroke:#333333;stroke-width:1;"/><text fill="#000000" font-family="Arial" font-size="11" lengthAdjust="spacing" textLength="40.3638" x="93.4827" y="58.4165">Estoque</text><text fill="#000000" font-family="Arial" font-size="11" lengthAdjust="spacing" textLength="53.1953" x="284.9453" y="58.4165">Veterin&#225;rio</text><text fill="#000000" font-family="Arial" font-size="11" lengthAdjust="spacing" textLength="39.7354" x="512.3223" y="58.4165">Sistema</text><!--SRC=[NO-nIWH144Jp_eesKmwyV3TQZXE4Kz25JQNTQOw6cUbnfWSCzcVKmCZ8JzWVSuvBrBJwLLNNXSJPLyVuD6i86gzJ3Hx0n3pZZQ-lYkqurkTYwtkSXGhkD5fMJuuAmB8lfY-L5oX6sQ3RQKYPVa4zGFV8HocMAUE-oKt4Wnfl9lBYoF7cmLp3becDiyJrBOikq8sqVZLqg4xivBbiFM6RsBOfSvcph9_hXrwTd6EBvq3jY-J50B5LUhBrkoNX7ST27eVxwNOS-ZE2T2I9_y0XLl8zS7Jdc3_hDFq0]--></g></svg>