<svg xmlns="http://www.w3.org/2000/svg" xmlns:xlink="http://www.w3.org/1999/xlink" contentStyleType="text/css" data-diagram-type="ACTIVITY" height="1303px" preserveAspectRatio="none" style="width:1019px;height:1303px;background:#FEFEFE;" version="1.1" viewBox="0 0 1019 1303" width="1019px" zoomAndPan="magnify"><title>Diagrama de Atividades UML com raias &#8212; Estoque Inteligente</title><defs/><g><rect fill="#FEFEFE" height="1303" style="stroke:none;stroke-width:1;" width="1019" x="0" y="0"/><text fill="#000000" font-family="Arial" font-size="14" font-weight="bold" lengthAdjust="spacing" textLength="413.1025" x="301.5803" y="33.1318">Diagrama de Atividades UML com raias &#8212; Estoque Inteligente</text><rect fill="none" height="12.6489" style="stroke:none;stroke-width:1;" width="986.2632" x="15" y="48.0986"/><ellipse cx="66.8594" cy="75.7476" fill="#222222" rx="10" ry="10" style="stroke:#222222;stroke-width:1;"/><path d="M132.7188,103.8481 L132.7188,117.4971 L112.7188,121.4971 L132.7188,125.4971 L132.7188,139.146 A0,0 0 0 0 132.7188,139.146 L282.1362,139.146 A0,0 0 0 0 282.1362,139.146 L282.1362,113.8481 L272.1362,103.8481 L132.7188,103.8481 A0,0 0 0 0 132.7188,103.8481" fill="#FEFFDD" style="stroke:#181818;stroke-width:0.5;"/><path d="M272.1362,103.8481 L272.1362,113.8481 L282.1362,113.8481 L272.1362,103.8481" fill="#FEFFDD" style="stroke:#181818;stroke-width:0.5;"/><text fill="#000000" font-family="Arial" font-size="11" lengthAdjust="spacing" textLength="108.8506" x="138.7188" y="119.166">Lead time configurado</text><text fill="#000000" font-family="Arial" font-size="11" lengthAdjust="spacing" textLength="128.4175" x="138.7188" y="131.8149">no cadastro do fornecedor</text><rect fill="#FFFFFF" height="31.499" rx="12.5" ry="12.5" style="stroke:#333333;stroke-width:0.5;" width="91.7188" x="21" y="105.7476"/><text fill="#000000" font-family="Arial" font-size="10" lengthAdjust="spacing" textLength="71.7188" x="31" y="125.1274">Entrega produto</text><ellipse cx="66.8594" cy="170.146" fill="none" rx="11" ry="11" style="stroke:#222222;stroke-width:1;"/><ellipse cx="66.8594" cy="170.146" fill="#222222" rx="6" ry="6" style="stroke:#222222;stroke-width:1;"/><line style="stroke:#333333;stroke-width:1.5;" x1="15" x2="15" y1="48.0986" y2="1291.5723"/><ellipse cx="490.6545" cy="201.146" fill="#222222" rx="10" ry="10" style="stroke:#222222;stroke-width:1;"/><path d="M579.2947,228.6716 L579.2947,248.645 L559.2947,252.645 L579.2947,256.645 L579.2947,276.6184 A0,0 0 0 0 579.2947,276.6184 L731.7307,276.6184 A0,0 0 0 0 731.7307,276.6184 L731.7307,238.6716 L721.7307,228.6716 L579.2947,228.6716 A0,0 0 0 0 579.2947,228.6716" fill="#FEFFDD" style="stroke:#181818;stroke-width:0.5;"/><path d="M721.7307,228.6716 L721.7307,238.6716 L731.7307,238.6716 L721.7307,228.6716" fill="#FEFFDD" style="stroke:#181818;stroke-width:0.5;"/><text fill="#000000" font-family="Arial" font-size="11" lengthAdjust="spacing" textLength="99.6929" x="585.2947" y="243.9895">Comando agendado</text><text fill="#000000" font-family="Arial" font-size="11" lengthAdjust="spacing" textLength="131.436" x="585.2947" y="256.6384">stock:forecast --recalculate</text><text fill="#000000" font-family="Arial" font-size="11" lengthAdjust="spacing" textLength="102.7275" x="585.2947" y="269.2874">(03:00 todos os dias)</text><rect fill="#FFFFFF" height="42.998" rx="12.5" ry="12.5" style="stroke:#333333;stroke-width:0.5;" width="137.2803" x="422.0144" y="231.146"/><text fill="#000000" font-family="Arial" font-size="10" lengthAdjust="spacing" textLength="117.2803" x="432.0144" y="250.5259">Recalcula consumo m&#233;dio</text><text fill="#000000" font-family="Arial" font-size="10" lengthAdjust="spacing" textLength="100.5957" x="432.0144" y="262.0249">di&#225;rio (&#250;ltimos 90 dias)</text><path d="M581.2502,294.719 L581.2502,308.3679 L561.2502,312.3679 L581.2502,316.3679 L581.2502,330.0168 A0,0 0 0 0 581.2502,330.0168 L750.5193,330.0168 A0,0 0 0 0 750.5193,330.0168 L750.5193,304.719 L740.5193,294.719 L581.2502,294.719 A0,0 0 0 0 581.2502,294.719" fill="#FEFFDD" style="stroke:#181818;stroke-width:0.5;"/><path d="M740.5193,294.719 L740.5193,304.719 L750.5193,304.719 L740.5193,294.719" fill="#FEFFDD" style="stroke:#181818;stroke-width:0.5;"/><text fill="#000000" font-family="Arial" font-size="11" lengthAdjust="spacing" textLength="148.269" x="587.2502" y="310.0369">(consumo_m&#233;dio &#215; lead_time)</text><text fill="#000000" font-family="Arial" font-size="11" lengthAdjust="spacing" textLength="106.1113" x="587.2502" y="322.6858">+ estoque_seguran&#231;a</text><rect fill="#FFFFFF" height="31.499" rx="12.5" ry="12.5" style="stroke:#333333;stroke-width:0.5;" width="141.1914" x="420.0588" y="296.6184"/><text fill="#000000" font-family="Arial" font-size="10" lengthAdjust="spacing" textLength="121.1914" x="430.0588" y="315.9983">Calcula ponto de reposi&#231;&#227;o</text><polygon fill="#FFFFFF" points="409.0652,350.0168,572.2439,350.0168,584.2439,362.0168,572.2439,374.0168,409.0652,374.0168,397.0652,362.0168,409.0652,350.0168" style="stroke:#333333;stroke-width:0.5;"/><text fill="#000000" font-family="Arial" font-size="10" lengthAdjust="spacing" textLength="163.1787" x="409.0652" y="365.6472">Estoque atual &lt; ponto de reposi&#231;&#227;o?</text><text fill="#000000" font-family="Arial" font-size="9" lengthAdjust="spacing" textLength="18.9976" x="378.0676" y="360.1096">[sim]</text><text fill="#000000" font-family="Arial" font-size="9" lengthAdjust="spacing" textLength="20.0171" x="584.2439" y="360.1096">[n&#227;o]</text><rect fill="#FFFFFF" height="31.499" rx="12.5" ry="12.5" style="stroke:#333333;stroke-width:0.5;" width="146.7383" x="313.696" y="384.0168"/><text fill="#000000" font-family="Arial" font-size="10" lengthAdjust="spacing" textLength="126.7383" x="323.696" y="403.3967">Calcula sugest&#227;o de compra</text><rect fill="#FFFFFF" height="31.499" rx="12.5" ry="12.5" style="stroke:#333333;stroke-width:0.5;" width="133.9648" x="320.0828" y="435.5159"/><text fill="#000000" font-family="Arial" font-size="10" lengthAdjust="spacing" textLength="113.9648" x="330.0828" y="454.8958">Gera alerta no dashboard</text><rect fill="#FFFFFF" height="31.499" rx="12.5" ry="12.5" style="stroke:#333333;stroke-width:0.5;" width="105.0439" x="334.5432" y="487.0149"/><text fill="#000000" font-family="Arial" font-size="10" lengthAdjust="spacing" textLength="85.0439" x="344.5432" y="506.3948">Dispara notifica&#231;&#227;o</text><rect fill="#FFFFFF" height="31.499" rx="12.5" ry="12.5" style="stroke:#333333;stroke-width:0.5;" width="138.96" x="524.7639" y="384.0168"/><text fill="#000000" font-family="Arial" font-size="10" lengthAdjust="spacing" textLength="118.96" x="534.7639" y="403.3967">Nenhuma a&#231;&#227;o necess&#225;ria</text><polygon fill="#FFFFFF" points="490.6545,524.5139,502.6545,536.5139,490.6545,548.5139,478.6545,536.5139,490.6545,524.5139" style="stroke:#333333;stroke-width:0.5;"/><path d="M570.95,566.0396 L570.95,586.0129 L550.95,590.0129 L570.95,594.0129 L570.95,613.9863 A0,0 0 0 0 570.95,613.9863 L724.5945,613.9863 A0,0 0 0 0 724.5945,613.9863 L724.5945,576.0396 L714.5945,566.0396 L570.95,566.0396 A0,0 0 0 0 570.95,566.0396" fill="#FEFFDD" style="stroke:#181818;stroke-width:0.5;"/><path d="M714.5945,566.0396 L714.5945,576.0396 L724.5945,576.0396 L714.5945,566.0396" fill="#FEFFDD" style="stroke:#181818;stroke-width:0.5;"/><text fill="#000000" font-family="Arial" font-size="11" lengthAdjust="spacing" textLength="99.6929" x="576.95" y="581.3574">Comando agendado</text><text fill="#000000" font-family="Arial" font-size="11" lengthAdjust="spacing" textLength="132.6445" x="576.95" y="594.0063">stock:forecast --alert-expiry</text><text fill="#000000" font-family="Arial" font-size="11" lengthAdjust="spacing" textLength="102.7275" x="576.95" y="606.6553">(06:00 todos os dias)</text><rect fill="#FFFFFF" height="42.998" rx="12.5" ry="12.5" style="stroke:#333333;stroke-width:0.5;" width="120.5908" x="430.3591" y="568.5139"/><text fill="#000000" font-family="Arial" font-size="10" lengthAdjust="spacing" textLength="100.5908" x="440.3591" y="587.8938">Verifica lotes pr&#243;ximos</text><text fill="#000000" font-family="Arial" font-size="10" lengthAdjust="spacing" textLength="65.0391" x="440.3591" y="599.3928">ao vencimento</text><polygon fill="#FFFFFF" points="415.8914,633.9863,565.4177,633.9863,577.4177,645.9863,565.4177,657.9863,415.8914,657.9863,403.8914,645.9863,415.8914,633.9863" style="stroke:#333333;stroke-width:0.5;"/><text fill="#000000" font-family="Arial" font-size="10" lengthAdjust="spacing" textLength="149.5264" x="415.8914" y="649.6167">Lote a vencer nos pr&#243;ximos dias?</text><text fill="#000000" font-family="Arial" font-size="9" lengthAdjust="spacing" textLength="18.9976" x="384.8938" y="644.0791">[sim]</text><text fill="#000000" font-family="Arial" font-size="9" lengthAdjust="spacing" textLength="20.0171" x="577.4177" y="644.0791">[n&#227;o]</text><path d="M448.1899,667.9863 L448.1899,694.2842 L428.1899,698.2842 L448.1899,702.2842 L448.1899,728.582 A0,0 0 0 0 448.1899,728.582 L557.8506,728.582 A0,0 0 0 0 557.8506,728.582 L557.8506,677.9863 L547.8506,667.9863 L448.1899,667.9863 A0,0 0 0 0 448.1899,667.9863" fill="#FEFFDD" style="stroke:#181818;stroke-width:0.5;"/><path d="M547.8506,667.9863 L547.8506,677.9863 L557.8506,677.9863 L547.8506,667.9863" fill="#FEFFDD" style="stroke:#181818;stroke-width:0.5;"/><text fill="#000000" font-family="Arial" font-size="11" lengthAdjust="spacing" textLength="88.6606" x="454.1899" y="683.3042">Vermelho: 15 dias</text><text fill="#000000" font-family="Arial" font-size="11" lengthAdjust="spacing" textLength="78.2783" x="454.1899" y="695.9531">Laranja: 30 dias</text><text fill="#000000" font-family="Arial" font-size="11" lengthAdjust="spacing" textLength="82.543" x="454.1899" y="708.6021">Amarelo: 60 dias</text><text fill="#000000" font-family="Arial" font-size="11" lengthAdjust="spacing" textLength="62.9814" x="454.1899" y="721.251">Azul: 90 dias</text><rect fill="#FFFFFF" height="31.499" rx="12.5" ry="12.5" style="stroke:#333333;stroke-width:0.5;" width="135.0537" x="293.1362" y="682.5347"/><text fill="#000000" font-family="Arial" font-size="10" lengthAdjust="spacing" textLength="115.0537" x="303.1362" y="701.9146">Gera alerta por criticidade</text><rect fill="#FFFFFF" height="31.499" rx="12.5" ry="12.5" style="stroke:#333333;stroke-width:0.5;" width="85.5908" x="577.8506" y="667.9863"/><text fill="#000000" font-family="Arial" font-size="10" lengthAdjust="spacing" textLength="65.5908" x="587.8506" y="687.3662">Nenhum alerta</text><polygon fill="#FFFFFF" points="490.6545,734.582,502.6545,746.582,490.6545,758.582,478.6545,746.582,490.6545,734.582" style="stroke:#333333;stroke-width:0.5;"/><ellipse cx="490.6545" cy="789.582" fill="none" rx="11" ry="11" style="stroke:#222222;stroke-width:1;"/><ellipse cx="490.6545" cy="789.582" fill="#222222" rx="6" ry="6" style="stroke:#222222;stroke-width:1;"/><line style="stroke:#333333;stroke-width:1.5;" x1="287.1362" x2="287.1362" y1="48.0986" y2="1291.5723"/><ellipse cx="888.8538" cy="820.582" fill="#222222" rx="10" ry="10" style="stroke:#222222;stroke-width:1;"/><rect fill="#FFFFFF" height="42.998" rx="12.5" ry="12.5" style="stroke:#333333;stroke-width:0.5;" width="110.0586" x="833.8245" y="850.582"/><text fill="#000000" font-family="Arial" font-size="10" lengthAdjust="spacing" textLength="90.0586" x="843.8245" y="869.9619">Visualiza dashboard</text><text fill="#000000" font-family="Arial" font-size="10" lengthAdjust="spacing" textLength="49.4873" x="843.8245" y="881.4609">de estoque</text><rect fill="#FFFFFF" height="42.998" rx="12.5" ry="12.5" style="stroke:#333333;stroke-width:0.5;" width="101.709" x="837.9993" y="913.5801"/><text fill="#000000" font-family="Arial" font-size="10" lengthAdjust="spacing" textLength="81.709" x="847.9993" y="932.96">Verifica sugest&#245;es</text><text fill="#000000" font-family="Arial" font-size="10" lengthAdjust="spacing" textLength="57.2607" x="847.9993" y="944.459">de reposi&#231;&#227;o</text><rect fill="#FFFFFF" height="31.499" rx="12.5" ry="12.5" style="stroke:#333333;stroke-width:0.5;" width="90.5811" x="843.5632" y="976.5781"/><text fill="#000000" font-family="Arial" font-size="10" lengthAdjust="spacing" textLength="70.5811" x="853.5632" y="995.958">Decide comprar</text><polygon fill="#FFFFFF" points="846.051,1028.0771,931.6565,1028.0771,943.6565,1040.0771,931.6565,1052.0771,846.051,1052.0771,834.051,1040.0771,846.051,1028.0771" style="stroke:#333333;stroke-width:0.5;"/><text fill="#000000" font-family="Arial" font-size="10" lengthAdjust="spacing" textLength="85.6055" x="846.051" y="1043.7075">Compra aprovada?</text><text fill="#000000" font-family="Arial" font-size="9" lengthAdjust="spacing" textLength="18.9976" x="815.0535" y="1038.1699">[sim]</text><text fill="#000000" font-family="Arial" font-size="9" lengthAdjust="spacing" textLength="20.0171" x="943.6565" y="1038.1699">[n&#227;o]</text><rect fill="#FFFFFF" height="31.499" rx="12.5" ry="12.5" style="stroke:#333333;stroke-width:0.5;" width="125.0635" x="761.5193" y="1062.0771"/><text fill="#000000" font-family="Arial" font-size="10" lengthAdjust="spacing" textLength="105.0635" x="771.5193" y="1081.457">Gera pedido de compra</text><rect fill="#FFFFFF" height="31.499" rx="12.5" ry="12.5" style="stroke:#333333;stroke-width:0.5;" width="91.1621" x="778.47" y="1125.0752"/><text fill="#000000" font-family="Arial" font-size="10" lengthAdjust="spacing" textLength="71.1621" x="788.47" y="1144.4551">Recebe produto</text><rect fill="#FFFFFF" height="42.998" rx="12.5" ry="12.5" style="stroke:#333333;stroke-width:0.5;" width="125.0439" x="761.5291" y="1176.5742"/><text fill="#000000" font-family="Arial" font-size="10" lengthAdjust="spacing" textLength="105.0439" x="771.5291" y="1195.9541">Registra movimenta&#231;&#227;o</text><text fill="#000000" font-family="Arial" font-size="10" lengthAdjust="spacing" textLength="47.8174" x="771.5291" y="1207.4531">de entrada</text><rect fill="#FFFFFF" height="42.998" rx="12.5" ry="12.5" style="stroke:#333333;stroke-width:0.5;" width="86.1572" x="910.5779" y="1062.0771"/><text fill="#000000" font-family="Arial" font-size="10" lengthAdjust="spacing" textLength="66.1572" x="920.5779" y="1081.457">Ajusta estoque</text><text fill="#000000" font-family="Arial" font-size="10" lengthAdjust="spacing" textLength="60.6006" x="920.5779" y="1092.9561">de seguran&#231;a</text><polygon fill="#FFFFFF" points="888.8538,1225.5723,900.8538,1237.5723,888.8538,1249.5723,876.8538,1237.5723,888.8538,1225.5723" style="stroke:#333333;stroke-width:0.5;"/><ellipse cx="888.8538" cy="1280.5723" fill="none" rx="11" ry="11" style="stroke:#222222;stroke-width:1;"/><ellipse cx="888.8538" cy="1280.5723" fill="#222222" rx="6" ry="6" style="stroke:#222222;stroke-width:1;"/><line style="stroke:#333333;stroke-width:1.5;" x1="755.5193" x2="755.5193" y1="48.0986" y2="1291.5723"/><line style="stroke:#333333;stroke-width:1.5;" x1="1000.7351" x2="1000.7351" y1="48.0986" y2="1291.5723"/><line style="stroke:#333333;stroke-width:1;" x1="66.8594" x2="66.8594" y1="85.7476" y2="105.7476"/><polygon fill="#333333" points="62.8594,95.7476,66.8594,105.7476,70.8594,95.7476,66.8594,99.7476" style="stroke:#333333;stroke-width:1;"/><line style="stroke:#333333;stroke-width:1;" x1="66.8594" x2="66.8594" y1="137.2466" y2="159.146"/><polygon fill="#333333" points="62.8594,149.146,66.8594,159.146,70.8594,149.146,66.8594,153.146" style="stroke:#333333;stroke-width:1;"/><line style="stroke:#333333;stroke-width:1;" x1="490.6545" x2="490.6545" y1="211.146" y2="231.146"/><polygon fill="#333333" points="486.6545,221.146,490.6545,231.146,494.6545,221.146,490.6545,225.146" style="stroke:#333333;stroke-width:1;"/><line style="stroke:#333333;stroke-width:1;" x1="490.6545" x2="490.6545" y1="274.144" y2="296.6184"/><polygon fill="#333333" points="486.6545,286.6184,490.6545,296.6184,494.6545,286.6184,490.6545,290.6184" style="stroke:#333333;stroke-width:1;"/><line style="stroke:#333333;stroke-width:1;" x1="387.0652" x2="387.0652" y1="415.5159" y2="435.5159"/><polygon fill="#333333" points="383.0652,425.5159,387.0652,435.5159,391.0652,425.5159,387.0652,429.5159" style="stroke:#333333;stroke-width:1;"/><line style="stroke:#333333;stroke-width:1;" x1="387.0652" x2="387.0652" y1="467.0149" y2="487.0149"/><polygon fill="#333333" points="383.0652,477.0149,387.0652,487.0149,391.0652,477.0149,387.0652,481.0149" style="stroke:#333333;stroke-width:1;"/><line style="stroke:#333333;stroke-width:1;" x1="397.0652" x2="387.0652" y1="362.0168" y2="362.0168"/><line style="stroke:#333333;stroke-width:1;" x1="387.0652" x2="387.0652" y1="362.0168" y2="384.0168"/><polygon fill="#333333" points="383.0652,374.0168,387.0652,384.0168,391.0652,374.0168,387.0652,378.0168" style="stroke:#333333;stroke-width:1;"/><line style="stroke:#333333;stroke-width:1;" x1="584.2439" x2="594.2439" y1="362.0168" y2="362.0168"/><line style="stroke:#333333;stroke-width:1;" x1="594.2439" x2="594.2439" y1="362.0168" y2="384.0168"/><polygon fill="#333333" points="590.2439,374.0168,594.2439,384.0168,598.2439,374.0168,594.2439,378.0168" style="stroke:#333333;stroke-width:1;"/><line style="stroke:#333333;stroke-width:1;" x1="387.0652" x2="387.0652" y1="518.5139" y2="536.5139"/><line style="stroke:#333333;stroke-width:1;" x1="387.0652" x2="478.6545" y1="536.5139" y2="536.5139"/><polygon fill="#333333" points="468.6545,532.5139,478.6545,536.5139,468.6545,540.5139,472.6545,536.5139" style="stroke:#333333;stroke-width:1;"/><line style="stroke:#333333;stroke-width:1;" x1="594.2439" x2="594.2439" y1="415.5159" y2="536.5139"/><line style="stroke:#333333;stroke-width:1;" x1="594.2439" x2="502.6545" y1="536.5139" y2="536.5139"/><polygon fill="#333333" points="512.6545,532.5139,502.6545,536.5139,512.6545,540.5139,508.6545,536.5139" style="stroke:#333333;stroke-width:1;"/><line style="stroke:#333333;stroke-width:1;" x1="490.6545" x2="490.6545" y1="328.1174" y2="350.0168"/><polygon fill="#333333" points="486.6545,340.0168,490.6545,350.0168,494.6545,340.0168,490.6545,344.0168" style="stroke:#333333;stroke-width:1;"/><line style="stroke:#333333;stroke-width:1;" x1="490.6545" x2="490.6545" y1="548.5139" y2="568.5139"/><polygon fill="#333333" points="486.6545,558.5139,490.6545,568.5139,494.6545,558.5139,490.6545,562.5139" style="stroke:#333333;stroke-width:1;"/><line style="stroke:#333333;stroke-width:1;" x1="403.8914" x2="360.6631" y1="645.9863" y2="645.9863"/><line style="stroke:#333333;stroke-width:1;" x1="360.6631" x2="360.6631" y1="645.9863" y2="682.5347"/><polygon fill="#333333" points="356.6631,672.5347,360.6631,682.5347,364.6631,672.5347,360.6631,676.5347" style="stroke:#333333;stroke-width:1;"/><line style="stroke:#333333;stroke-width:1;" x1="577.4177" x2="620.646" y1="645.9863" y2="645.9863"/><line style="stroke:#333333;stroke-width:1;" x1="620.646" x2="620.646" y1="645.9863" y2="667.9863"/><polygon fill="#333333" points="616.646,657.9863,620.646,667.9863,624.646,657.9863,620.646,661.9863" style="stroke:#333333;stroke-width:1;"/><line style="stroke:#333333;stroke-width:1;" x1="360.6631" x2="360.6631" y1="714.0337" y2="746.582"/><line style="stroke:#333333;stroke-width:1;" x1="360.6631" x2="478.6545" y1="746.582" y2="746.582"/><polygon fill="#333333" points="468.6545,742.582,478.6545,746.582,468.6545,750.582,472.6545,746.582" style="stroke:#333333;stroke-width:1;"/><line style="stroke:#333333;stroke-width:1;" x1="620.646" x2="620.646" y1="699.4854" y2="746.582"/><line style="stroke:#333333;stroke-width:1;" x1="620.646" x2="502.6545" y1="746.582" y2="746.582"/><polygon fill="#333333" points="512.6545,742.582,502.6545,746.582,512.6545,750.582,508.6545,746.582" style="stroke:#333333;stroke-width:1;"/><line style="stroke:#333333;stroke-width:1;" x1="490.6545" x2="490.6545" y1="611.512" y2="633.9863"/><polygon fill="#333333" points="486.6545,623.9863,490.6545,633.9863,494.6545,623.9863,490.6545,627.9863" style="stroke:#333333;stroke-width:1;"/><line style="stroke:#333333;stroke-width:1;" x1="490.6545" x2="490.6545" y1="758.582" y2="778.582"/><polygon fill="#333333" points="486.6545,768.582,490.6545,778.582,494.6545,768.582,490.6545,772.582" style="stroke:#333333;stroke-width:1;"/><line style="stroke:#333333;stroke-width:1;" x1="888.8538" x2="888.8538" y1="830.582" y2="850.582"/><polygon fill="#333333" points="884.8538,840.582,888.8538,850.582,892.8538,840.582,888.8538,844.582" style="stroke:#333333;stroke-width:1;"/><line style="stroke:#333333;stroke-width:1;" x1="888.8538" x2="888.8538" y1="893.5801" y2="913.5801"/><polygon fill="#333333" points="884.8538,903.5801,888.8538,913.5801,892.8538,903.5801,888.8538,907.5801" style="stroke:#333333;stroke-width:1;"/><line style="stroke:#333333;stroke-width:1;" x1="888.8538" x2="888.8538" y1="956.5781" y2="976.5781"/><polygon fill="#333333" points="884.8538,966.5781,888.8538,976.5781,892.8538,966.5781,888.8538,970.5781" style="stroke:#333333;stroke-width:1;"/><line style="stroke:#333333;stroke-width:1;" x1="824.051" x2="824.051" y1="1093.5762" y2="1125.0752"/><polygon fill="#333333" points="820.051,1115.0752,824.051,1125.0752,828.051,1115.0752,824.051,1119.0752" style="stroke:#333333;stroke-width:1;"/><line style="stroke:#333333;stroke-width:1;" x1="824.051" x2="824.051" y1="1156.5742" y2="1176.5742"/><polygon fill="#333333" points="820.051,1166.5742,824.051,1176.5742,828.051,1166.5742,824.051,1170.5742" style="stroke:#333333;stroke-width:1;"/><line style="stroke:#333333;stroke-width:1;" x1="834.051" x2="824.051" y1="1040.0771" y2="1040.0771"/><line style="stroke:#333333;stroke-width:1;" x1="824.051" x2="824.051" y1="1040.0771" y2="1062.0771"/><polygon fill="#333333" points="820.051,1052.0771,824.051,1062.0771,828.051,1052.0771,824.051,1056.0771" style="stroke:#333333;stroke-width:1;"/><line style="stroke:#333333;stroke-width:1;" x1="943.6565" x2="953.6565" y1="1040.0771" y2="1040.0771"/><line style="stroke:#333333;stroke-width:1;" x1="953.6565" x2="953.6565" y1="1040.0771" y2="1062.0771"/><polygon fill="#333333" points="949.6565,1052.0771,953.6565,1062.0771,957.6565,1052.0771,953.6565,1056.0771" style="stroke:#333333;stroke-width:1;"/><line style="stroke:#333333;stroke-width:1;" x1="824.051" x2="824.051" y1="1219.5723" y2="1237.5723"/><line style="stroke:#333333;stroke-width:1;" x1="824.051" x2="876.8538" y1="1237.5723" y2="1237.5723"/><polygon fill="#333333" points="866.8538,1233.5723,876.8538,1237.5723,866.8538,1241.5723,870.8538,1237.5723" style="stroke:#333333;stroke-width:1;"/><line style="stroke:#333333;stroke-width:1;" x1="953.6565" x2="953.6565" y1="1105.0752" y2="1237.5723"/><line style="stroke:#333333;stroke-width:1;" x1="953.6565" x2="900.8538" y1="1237.5723" y2="1237.5723"/><polygon fill="#333333" points="910.8538,1233.5723,900.8538,1237.5723,910.8538,1241.5723,906.8538,1237.5723" style="stroke:#333333;stroke-width:1;"/><line style="stroke:#333333;stroke-width:1;" x1="888.8538" x2="888.8538" y1="1008.0771" y2="1028.0771"/><polygon fill="#333333" points="884.8538,1018.0771,888.8538,1028.0771,892.8538,1018.0771,888.8538,1022.0771" style="stroke:#333333;stroke-width:1;"/><line style="stroke:#333333;stroke-width:1;" x1="888.8538" x2="888.8538" y1="1249.5723" y2="1269.5723"/><polygon fill="#333333" points="884.8538,1259.5723,888.8538,1269.5723,892.8538,1259.5723,888.8538,1263.5723" style="stroke:#333333;stroke-width:1;"/><text fill="#000000" font-family="Arial" font-size="11" lengthAdjust="spacing" textLength="56.2515" x="122.9424" y="58.4165">Fornecedor</text><text fill="#000000" font-family="Arial" font-size="11" lengthAdjust="spacing" textLength="39.7354" x="501.4601" y="58.4165">Sistema</text><text fill="#000000" font-family="Arial" font-size="11" lengthAdjust="spacing" textLength="88.6499" x="833.8022" y="58.4165">Usu&#225;rio (Estoque)</text><!--SRC=[ZLHDQnH14BtthoXlkqXa9HXmLf2GH15M3qfo4LagqxMxfJtTOtVF4aCE_WZ1itW8diMBr_ad_XAhUsO_N1CH1eQfwgdtwjMhliEsD8qcc9QkgfozLpULKIfoD0J7Z7EF5OBa3oClMQEc0AVF9o2dmIDZW5yVFy59YEvzG_3CHZ8y9tafTVN4UKibQUUlL8ZeeofERFGqHwYzqqrqOsLT9F0yNqG5C27K4BaYAMzdF6yyQYTnww14ZI5w1zh1R5rNaTMGIaXzLmlaAmwHAbpZlQGIJTaOJ1L3Kpcesc-QdTBSVl7iOD3-D8Be0ZmSWPP-XZkSZbo5La1Hkj8T7S4gtnN2Geg727jxVeKYH006e_rYD8Bej5IL9rVTC2sEUaQriz4bQJtLBd1xtNxT5MJGivvshA7z34OqcYQDXfA_2zGfFmsKrBBjDMwG5CzWi1eDnWODFBeHzV4Gue8i35u7hjwamckIePaBX9n9lyZGQu_Zb7zA7W4D-OXfF3ASnRb3htFoc4EDFYKYpxZ4lZKoWGJ3oaS7yeBieX5xTGSW3JM4D1V1a2vufbHnHZxN02Cj1J5E-_qYpKkXWoNPKfImVndfVuQMoU_HHSt-GvxQmR-cbhMS90pCiEGblaKddxz1nssTQkUXz1ovp8iqpixUOWqWpLPa5gw0-mzonHoTY9RsBHQmFze43olqPEJamNRmiZ75oiaIMTE_HVgUsKhjVebEGzClHs-UuNgVpZY8ZVWIDnDNOepUXUEjSVN6-K51xLgyE2PHO6KdFyxQ7kKFGBaPbhBhjqbPasQzQqRPSZgdpQMIGtEv2kI7oYspHJgFIIhHbLj8C6vmvE7RHZfTzTETtgpM7phz1W00]--></g></svg>