<?xml version="1.0" encoding="UTF-8"?>
<svg xmlns="http://www.w3.org/2000/svg" width="1200" height="500" viewBox="0 0 1200 500">
<defs><marker id="arrowhead" markerWidth="8" markerHeight="6" refX="8" refY="3" orient="auto"><polygon points="0 0, 8 3, 0 6" fill="#000"/></marker></defs>
<switch><g transform="translate(0.5,0.5)">











<rect x="10" y="5" width="1180" height="28" rx="4" ry="4" fill="#fff" stroke="#000" stroke-width="1.5"/><text x="600.0" y="19.0" text-anchor="middle" dominant-baseline="central" fill="#000" font-size="10" font-family="Arial">Fluxo de Estoque e Pedidos de Compra</text>
<rect x="30" y="70" width="1170" height="80" fill="#fff" stroke="#000" stroke-width="1.5"/><rect x="30" y="70" width="18" height="80" fill="#fff" stroke="#000" stroke-width="1"/><text x="39" y="110.0" text-anchor="middle" dominant-baseline="central" fill="#000" font-size="9" font-family="Arial" transform="rotate(-90,39,110.0)">Estoque</text>
<rect x="30" y="150" width="1170" height="80" fill="#fff" stroke="#000" stroke-width="1.5"/><rect x="30" y="150" width="18" height="80" fill="#fff" stroke="#000" stroke-width="1"/><text x="39" y="190.0" text-anchor="middle" dominant-baseline="central" fill="#000" font-size="9" font-family="Arial" transform="rotate(-90,39,190.0)">Admin</text>
<rect x="30" y="230" width="1170" height="80" fill="#fff" stroke="#000" stroke-width="1.5"/><rect x="30" y="230" width="18" height="80" fill="#fff" stroke="#000" stroke-width="1"/><text x="39" y="270.0" text-anchor="middle" dominant-baseline="central" fill="#000" font-size="9" font-family="Arial" transform="rotate(-90,39,270.0)">Financeiro</text>
<rect x="0" y="40" width="1200" height="280" rx="6" ry="6" fill="none" stroke="#000" stroke-width="2"/><rect x="0" y="40" width="28" height="280" fill="#e1d5e7" stroke="#000" stroke-width="2"/><text x="14" y="180.0" text-anchor="middle" dominant-baseline="central" fill="#000" font-size="11" font-family="Arial" transform="rotate(-90,14,180.0)">Clínica</text>
<rect x="30" y="365" width="1170" height="80" fill="#fff" stroke="#000" stroke-width="1.5"/><rect x="30" y="365" width="18" height="80" fill="#fff" stroke="#000" stroke-width="1"/><text x="39" y="405.0" text-anchor="middle" dominant-baseline="central" fill="#000" font-size="9" font-family="Arial" transform="rotate(-90,39,405.0)">Fornecedor</text>
<rect x="0" y="335" width="1200" height="120" rx="6" ry="6" fill="none" stroke="#000" stroke-width="2"/><rect x="0" y="335" width="28" height="120" fill="#e1d5e7" stroke="#000" stroke-width="2"/><text x="14" y="395.0" text-anchor="middle" dominant-baseline="central" fill="#000" font-size="11" font-family="Arial" transform="rotate(-90,14,395.0)">Fornecedor</text>
<ellipse cx="51.0" cy="110.0" rx="11.0" ry="11.0" fill="#d5e8d4" stroke="#82b366" stroke-width="2"/><text x="51.0" y="133.0" text-anchor="middle" fill="#000" font-size="9" font-family="Arial">Criar Pedido
(draft)</text>
<rect x="220" y="87.0" width="140" height="46" rx="4" ry="4" fill="#fff" stroke="#000" stroke-width="1.5"/><text x="290.0" y="110.0" text-anchor="middle" dominant-baseline="central" fill="#000" font-size="10" font-family="Arial">Adicionar
Itens+Qtd+Preço</text>
<polygon points="447.0,83.0 474,110.0 447.0,137.0 420,110.0" fill="#ffe6cc" stroke="#d79b00" stroke-width="2"/><text x="447.0" y="110.0" text-anchor="middle" dominant-baseline="central" fill="#000" font-size="18" font-family="Arial">✕</text>
<rect x="600" y="167.0" width="140" height="46" rx="4" ry="4" fill="#fff" stroke="#000" stroke-width="1.5"/><text x="670.0" y="190.0" text-anchor="middle" dominant-baseline="central" fill="#000" font-size="10" font-family="Arial">Aprovação
Necessária</text>
<polygon points="807.0,163.0 834,190.0 807.0,217.0 780,190.0" fill="#ffe6cc" stroke="#d79b00" stroke-width="2"/><text x="807.0" y="190.0" text-anchor="middle" dominant-baseline="central" fill="#000" font-size="18" font-family="Arial">✕</text>
<rect x="780" y="87.0" width="140" height="46" rx="4" ry="4" fill="#fff" stroke="#000" stroke-width="1.5"/><text x="850.0" y="110.0" text-anchor="middle" dominant-baseline="central" fill="#000" font-size="10" font-family="Arial">Rejeitado
(volta a draft)</text>
<rect x="960" y="87.0" width="140" height="46" rx="4" ry="4" fill="#fff" stroke="#000" stroke-width="1.5"/><text x="1030.0" y="110.0" text-anchor="middle" dominant-baseline="central" fill="#000" font-size="10" font-family="Arial">Enviar ao
Fornecedor</text>
<rect x="960" y="382.0" width="140" height="46" rx="4" ry="4" fill="#fff" stroke="#000" stroke-width="1.5"/><text x="1030.0" y="405.0" text-anchor="middle" dominant-baseline="central" fill="#000" font-size="10" font-family="Arial">Receber
Pedido</text>
<polygon points="1167.0,83.0 1194,110.0 1167.0,137.0 1140,110.0" fill="#ffe6cc" stroke="#d79b00" stroke-width="2"/><text x="1167.0" y="110.0" text-anchor="middle" dominant-baseline="central" fill="#000" font-size="18" font-family="Arial">✕</text>
<rect x="1300" y="247.0" width="140" height="46" rx="4" ry="4" fill="#fff" stroke="#000" stroke-width="1.5"/><text x="1370.0" y="270.0" text-anchor="middle" dominant-baseline="central" fill="#000" font-size="10" font-family="Arial">Conciliação
(confere valores)</text>
<ellipse cx="1411.0" cy="110.0" rx="11.0" ry="11.0" fill="#f8cecc" stroke="#b85450" stroke-width="2"/><ellipse cx="1411.0" cy="110.0" rx="7.0" ry="7.0" fill="none" stroke="#b85450" stroke-width="2"/><text x="1411.0" y="133.0" text-anchor="middle" fill="#000" font-size="9" font-family="Arial">Pedido
Finalizado</text>
<path d="M 62 110 L 141 110 L 141 110 L 220 110" fill="none" stroke="#000" stroke-width="1.5" marker-end="url(#arrowhead)"/>
<path d="M 360 110 L 390 110 L 390 110 L 420 110" fill="none" stroke="#000" stroke-width="1.5" marker-end="url(#arrowhead)"/>
<path d="M 474 110 L 537 110 L 537 190 L 600 190" fill="none" stroke="#000" stroke-width="1.5" marker-end="url(#arrowhead)"/>
<path d="M 474 110 L 717 110 L 717 110 L 960 110" fill="none" stroke="#000" stroke-width="1.5" marker-end="url(#arrowhead)"/>
<path d="M 740 190 L 760 190 L 760 190 L 780 190" fill="none" stroke="#000" stroke-width="1.5" marker-end="url(#arrowhead)"/>
<path d="M 834 190 L 897 190 L 897 110 L 960 110" fill="none" stroke="#000" stroke-width="1.5" marker-end="url(#arrowhead)"/>
<path d="M 807 163 L 807 148 L 850 148 L 850 133" fill="none" stroke="#000" stroke-width="1.5" marker-end="url(#arrowhead)"/>
<path d="M 780 110 L 570 110 L 570 110 L 360 110" fill="none" stroke="#000" stroke-width="1.5" marker-end="url(#arrowhead)"/>
<path d="M 1030 133 L 1030 257.5 L 1030 257.5 L 1030 382" fill="none" stroke="#000" stroke-width="1.5" marker-end="url(#arrowhead)"/>
<path d="M 1030 382 L 1030 259.5 L 1167 259.5 L 1167 137" fill="none" stroke="#000" stroke-width="1.5" marker-end="url(#arrowhead)"/>
<path d="M 1194 110 L 1247 110 L 1247 270 L 1300 270" fill="none" stroke="#000" stroke-width="1.5" marker-end="url(#arrowhead)"/>
<path d="M 1194 110 L 1247 110 L 1247 270 L 1300 270" fill="none" stroke="#000" stroke-width="1.5" marker-end="url(#arrowhead)"/>
<path d="M 1370 247 L 1370 184 L 1411 184 L 1411 121" fill="none" stroke="#000" stroke-width="1.5" marker-end="url(#arrowhead)"/>
</g>
<foreignObject width="1200" height="500"><div xmlns="http://www.w3.org/1999/xhtml"><mxfile host="Generator" modified="2026-05-21T07:35:39.399701" agent="BPMN-PHASEX" version="24.0.5" type="device"><diagram id="14-fluxo-estoque.svg" name="Page-1"><mxGraphModel dx="0" dy="0" grid="1" gridSize="10" guides="1" page="0" pageWidth="1200" pageHeight="500" math="0" shadow="0"><root><mxCell id="0"/><mxCell id="1" parent="0"/><mxCell id="c427" value="Fluxo de Estoque e Pedidos de Compra" style="text;html=1;strokeColor=none;fillColor=none;align=center;fontSize=14;fontStyle=1" vertex="1" parent="1"><mxGeometry x="10" y="5" width="1180" height="28" as="geometry"/></mxCell><mxCell id="c428" value="Estoque" style="swimlane;startSize=18;fillColor=#fff2cc;strokeColor=#000;horizontal=1;" vertex="1" parent="1"><mxGeometry x="30" y="70" width="1170" height="80" as="geometry"/></mxCell><mxCell id="c429" value="Admin" style="swimlane;startSize=18;fillColor=#f8cecc;strokeColor=#000;horizontal=1;" vertex="1" parent="1"><mxGeometry x="30" y="150" width="1170" height="80" as="geometry"/></mxCell><mxCell id="c430" value="Financeiro" style="swimlane;startSize=18;fillColor=#ffe6cc;strokeColor=#000;horizontal=1;" vertex="1" parent="1"><mxGeometry x="30" y="230" width="1170" height="80" as="geometry"/></mxCell><mxCell id="c431" value="Clínica" style="swimlane;startSize=0;fillColor=none;strokeColor=#000;" vertex="1" parent="1"><mxGeometry x="0" y="40" width="1200" height="280" as="geometry"/></mxCell><mxCell id="c432" value="Fornecedor" style="swimlane;startSize=18;fillColor=#fff2cc;strokeColor=#000;horizontal=1;" vertex="1" parent="1"><mxGeometry x="30" y="365" width="1170" height="80" as="geometry"/></mxCell><mxCell id="c433" value="Fornecedor" style="swimlane;startSize=0;fillColor=none;strokeColor=#000;" vertex="1" parent="1"><mxGeometry x="0" y="335" width="1200" height="120" as="geometry"/></mxCell><mxCell id="c434" value="Criar Pedido
(draft)" style="ellipse;whiteSpace=wrap;html=1;fillColor=#d5e8d4;strokeColor=#82b366;" vertex="1" parent="1"><mxGeometry x="40" y="99.0" width="22" height="22" as="geometry"/></mxCell><mxCell id="c435" value="Adicionar
Itens+Qtd+Preço" style="rounded=1;whiteSpace=wrap;html=1;" vertex="1" parent="1"><mxGeometry x="220" y="87.0" width="140" height="46" as="geometry"/></mxCell><mxCell id="c436" value="Valor &gt;
Limite?" style="rhombus;whiteSpace=wrap;html=1;fillColor=#ffe6cc;strokeColor=#d79b00;" vertex="1" parent="1"><mxGeometry x="420" y="83.0" width="54" height="54" as="geometry"/></mxCell><mxCell id="c437" value="Aprovação
Necessária" style="rounded=1;whiteSpace=wrap;html=1;" vertex="1" parent="1"><mxGeometry x="600" y="167.0" width="140" height="46" as="geometry"/></mxCell><mxCell id="c438" value="Aprovado?" style="rhombus;whiteSpace=wrap;html=1;fillColor=#ffe6cc;strokeColor=#d79b00;" vertex="1" parent="1"><mxGeometry x="780" y="163.0" width="54" height="54" as="geometry"/></mxCell><mxCell id="c439" value="Rejeitado
(volta a draft)" style="rounded=1;whiteSpace=wrap;html=1;" vertex="1" parent="1"><mxGeometry x="780" y="87.0" width="140" height="46" as="geometry"/></mxCell><mxCell id="c440" value="Enviar ao
Fornecedor" style="rounded=1;whiteSpace=wrap;html=1;" vertex="1" parent="1"><mxGeometry x="960" y="87.0" width="140" height="46" as="geometry"/></mxCell><mxCell id="c441" value="Receber
Pedido" style="rounded=1;whiteSpace=wrap;html=1;" vertex="1" parent="1"><mxGeometry x="960" y="382.0" width="140" height="46" as="geometry"/></mxCell><mxCell id="c442" value="Receb.
Parcial?" style="rhombus;whiteSpace=wrap;html=1;fillColor=#ffe6cc;strokeColor=#d79b00;" vertex="1" parent="1"><mxGeometry x="1140" y="83.0" width="54" height="54" as="geometry"/></mxCell><mxCell id="c443" value="Conciliação
(confere valores)" style="rounded=1;whiteSpace=wrap;html=1;" vertex="1" parent="1"><mxGeometry x="1300" y="247.0" width="140" height="46" as="geometry"/></mxCell><mxCell id="c444" value="Pedido
Finalizado" style="ellipse;whiteSpace=wrap;html=1;fillColor=#f8cecc;strokeColor=#b85450;" vertex="1" parent="1"><mxGeometry x="1400" y="99.0" width="22" height="22" as="geometry"/></mxCell><mxCell id="c445" edge="1" parent="1" source="c434" target="c435" style="edgeStyle=orthogonalEdgeStyle;rounded=0;html=1;"><mxGeometry relative="1" as="geometry"/></mxCell><mxCell id="c446" edge="1" parent="1" source="c435" target="c436" style="edgeStyle=orthogonalEdgeStyle;rounded=0;html=1;"><mxGeometry relative="1" as="geometry"/></mxCell><mxCell id="c447" edge="1" parent="1" source="c436" target="c437" style="edgeStyle=orthogonalEdgeStyle;rounded=0;html=1;"><mxGeometry relative="1" as="geometry"/></mxCell><mxCell id="c448" edge="1" parent="1" source="c436" target="c440" style="edgeStyle=orthogonalEdgeStyle;rounded=0;html=1;"><mxGeometry relative="1" as="geometry"/></mxCell><mxCell id="c449" edge="1" parent="1" source="c437" target="c438" style="edgeStyle=orthogonalEdgeStyle;rounded=0;html=1;"><mxGeometry relative="1" as="geometry"/></mxCell><mxCell id="c450" edge="1" parent="1" source="c438" target="c440" style="edgeStyle=orthogonalEdgeStyle;rounded=0;html=1;"><mxGeometry relative="1" as="geometry"/></mxCell><mxCell id="c451" edge="1" parent="1" source="c438" target="c439" style="edgeStyle=orthogonalEdgeStyle;rounded=0;html=1;"><mxGeometry relative="1" as="geometry"/></mxCell><mxCell id="c452" edge="1" parent="1" source="c439" target="c435" style="edgeStyle=orthogonalEdgeStyle;rounded=0;html=1;"><mxGeometry relative="1" as="geometry"/></mxCell><mxCell id="c453" edge="1" parent="1" source="c440" target="c441" style="edgeStyle=orthogonalEdgeStyle;rounded=0;html=1;"><mxGeometry relative="1" as="geometry"/></mxCell><mxCell id="c454" edge="1" parent="1" source="c441" target="c442" style="edgeStyle=orthogonalEdgeStyle;rounded=0;html=1;"><mxGeometry relative="1" as="geometry"/></mxCell><mxCell id="c455" edge="1" parent="1" source="c442" target="c443" style="edgeStyle=orthogonalEdgeStyle;rounded=0;html=1;"><mxGeometry relative="1" as="geometry"/></mxCell><mxCell id="c456" edge="1" parent="1" source="c442" target="c443" style="edgeStyle=orthogonalEdgeStyle;rounded=0;html=1;"><mxGeometry relative="1" as="geometry"/></mxCell><mxCell id="c457" edge="1" parent="1" source="c443" target="c444" style="edgeStyle=orthogonalEdgeStyle;rounded=0;html=1;"><mxGeometry relative="1" as="geometry"/></mxCell></root></mxGraphModel></diagram></mxfile></div></foreignObject></switch>
</svg>