<svg xmlns="http://www.w3.org/2000/svg" xmlns:xlink="http://www.w3.org/1999/xlink" contentStyleType="text/css" data-diagram-type="ACTIVITY" height="1889px" preserveAspectRatio="none" style="width:1363px;height:1889px;background:#FEFEFE;" version="1.1" viewBox="0 0 1363 1889" width="1363px" zoomAndPan="magnify"><title>Diagrama de Atividades UML com raias &#8212; Pacotes e Assinaturas Petshop</title><defs/><g><rect fill="#FEFEFE" height="1889" style="stroke:none;stroke-width:1;" width="1363" x="0" y="0"/><text fill="#000000" font-family="Arial" font-size="14" font-weight="bold" lengthAdjust="spacing" textLength="492.502" x="433.7827" y="33.1318">Diagrama de Atividades UML com raias &#8212; Pacotes e Assinaturas Petshop</text><rect fill="none" height="12.6489" style="stroke:none;stroke-width:1;" width="1330.0674" x="15" y="48.0986"/><ellipse cx="88.2437" cy="75.7476" fill="#222222" rx="10" ry="10" style="stroke:#222222;stroke-width:1;"/><rect fill="#FFFFFF" height="31.499" rx="12.5" ry="12.5" style="stroke:#333333;stroke-width:0.5;" width="99.4922" x="38.4976" y="105.7476"/><text fill="#000000" font-family="Arial" font-size="10" lengthAdjust="spacing" textLength="79.4922" x="48.4976" y="125.1274">Configurar pacote</text><rect fill="#FFFFFF" height="42.998" rx="12.5" ry="12.5" style="stroke:#333333;stroke-width:0.5;" width="117.2803" x="29.6035" y="201.2466"/><text fill="#000000" font-family="Arial" font-size="10" lengthAdjust="spacing" textLength="87.2607" x="39.6035" y="220.6265">Definir nome, pre&#231;o</text><text fill="#000000" font-family="Arial" font-size="10" lengthAdjust="spacing" textLength="97.2803" x="39.6035" y="232.1255">promocional, validade</text><rect fill="#FFFFFF" height="31.499" rx="12.5" ry="12.5" style="stroke:#333333;stroke-width:0.5;" width="134.4873" x="21" y="277.4941"/><text fill="#000000" font-family="Arial" font-size="10" lengthAdjust="spacing" textLength="114.4873" x="31" y="296.874">Vincular servi&#231;os inclusos</text><polygon fill="#FFFFFF" points="88.2437,157.2466,100.2437,169.2466,88.2437,181.2466,76.2437,169.2466,88.2437,157.2466" style="stroke:#333333;stroke-width:0.5;"/><polygon fill="#FFFFFF" points="55.4434,328.9932,121.0439,328.9932,133.0439,340.9932,121.0439,352.9932,55.4434,352.9932,43.4434,340.9932,55.4434,328.9932" style="stroke:#333333;stroke-width:0.5;"/><text fill="#000000" font-family="Arial" font-size="10" lengthAdjust="spacing" textLength="65.6006" x="55.4434" y="344.6235">Pacote v&#225;lido?</text><text fill="#000000" font-family="Arial" font-size="9" lengthAdjust="spacing" textLength="20.0171" x="133.0439" y="339.0859">[n&#227;o]</text><ellipse cx="88.2437" cy="412.5986" fill="none" rx="11" ry="11" style="stroke:#222222;stroke-width:1;"/><ellipse cx="88.2437" cy="412.5986" fill="#222222" rx="6" ry="6" style="stroke:#222222;stroke-width:1;"/><line style="stroke:#333333;stroke-width:1.5;" x1="15" x2="15" y1="48.0986" y2="1877.5791"/><ellipse cx="332.6025" cy="443.5986" fill="#222222" rx="10" ry="10" style="stroke:#222222;stroke-width:1;"/><rect fill="#FFFFFF" height="31.499" rx="12.5" ry="12.5" style="stroke:#333333;stroke-width:0.5;" width="121.7383" x="271.7334" y="473.5986"/><text fill="#000000" font-family="Arial" font-size="10" lengthAdjust="spacing" textLength="101.7383" x="281.7334" y="492.9785">Vender pacote ao tutor</text><polygon fill="#FFFFFF" points="278.4033,525.0977,386.8018,525.0977,398.8018,537.0977,386.8018,549.0977,278.4033,549.0977,266.4033,537.0977,278.4033,525.0977" style="stroke:#333333;stroke-width:0.5;"/><text fill="#000000" font-family="Arial" font-size="10" lengthAdjust="spacing" textLength="108.3984" x="278.4033" y="540.728">Cliente quer assinatura?</text><text fill="#000000" font-family="Arial" font-size="9" lengthAdjust="spacing" textLength="18.9976" x="247.4058" y="535.1904">[sim]</text><text fill="#000000" font-family="Arial" font-size="9" lengthAdjust="spacing" textLength="20.0171" x="398.8018" y="535.1904">[n&#227;o]</text><rect fill="#FFFFFF" height="31.499" rx="12.5" ry="12.5" style="stroke:#333333;stroke-width:0.5;" width="90.5811" x="211.1128" y="559.0977"/><text fill="#000000" font-family="Arial" font-size="10" lengthAdjust="spacing" textLength="70.5811" x="221.1128" y="578.4775">Criar assinatura</text><rect fill="#FFFFFF" height="31.499" rx="12.5" ry="12.5" style="stroke:#333333;stroke-width:0.5;" width="114.2285" x="199.2891" y="610.5967"/><text fill="#000000" font-family="Arial" font-size="10" lengthAdjust="spacing" textLength="94.2285" x="209.2891" y="629.9766">Vincular pacote + pet</text><rect fill="#FFFFFF" height="31.499" rx="12.5" ry="12.5" style="stroke:#333333;stroke-width:0.5;" width="127.832" x="192.4873" y="662.0957"/><text fill="#000000" font-family="Arial" font-size="10" lengthAdjust="spacing" textLength="107.832" x="202.4873" y="681.4756">Definir usos contratados</text><rect fill="#FFFFFF" height="31.499" rx="12.5" ry="12.5" style="stroke:#333333;stroke-width:0.5;" width="91.1475" x="210.8296" y="713.5947"/><text fill="#000000" font-family="Arial" font-size="10" lengthAdjust="spacing" textLength="71.1475" x="220.8296" y="732.9746">Assinatura ativa</text><rect fill="#FFFFFF" height="31.499" rx="12.5" ry="12.5" style="stroke:#333333;stroke-width:0.5;" width="112.2852" x="352.6592" y="559.0977"/><text fill="#000000" font-family="Arial" font-size="10" lengthAdjust="spacing" textLength="92.2852" x="362.6592" y="578.4775">Venda avulsa avulsa</text><polygon fill="#FFFFFF" points="332.6025,751.0938,344.6025,763.0938,332.6025,775.0938,320.6025,763.0938,332.6025,751.0938" style="stroke:#333333;stroke-width:0.5;"/><ellipse cx="332.6025" cy="806.0938" fill="none" rx="11" ry="11" style="stroke:#222222;stroke-width:1;"/><ellipse cx="332.6025" cy="806.0938" fill="#222222" rx="6" ry="6" style="stroke:#222222;stroke-width:1;"/><line style="stroke:#333333;stroke-width:1.5;" x1="186.4873" x2="186.4873" y1="48.0986" y2="1877.5791"/><ellipse cx="601.2273" cy="837.0938" fill="#222222" rx="10" ry="10" style="stroke:#222222;stroke-width:1;"/><rect fill="#FFFFFF" height="31.499" rx="12.5" ry="12.5" style="stroke:#333333;stroke-width:0.5;" width="109.4824" x="546.4861" y="867.0938"/><text fill="#000000" font-family="Arial" font-size="10" lengthAdjust="spacing" textLength="89.4824" x="556.4861" y="886.4736">Registrar assinatura</text><path d="M675.4143,922.4429 L675.4143,936.0918 L655.4143,940.0918 L675.4143,944.0918 L675.4143,957.7407 A0,0 0 0 0 675.4143,957.7407 L804.6418,957.7407 A0,0 0 0 0 804.6418,957.7407 L804.6418,932.4429 L794.6418,922.4429 L675.4143,922.4429 A0,0 0 0 0 675.4143,922.4429" fill="#FEFFDD" style="stroke:#181818;stroke-width:0.5;"/><path d="M794.6418,922.4429 L794.6418,932.4429 L804.6418,932.4429 L794.6418,922.4429" fill="#FEFFDD" style="stroke:#181818;stroke-width:0.5;"/><text fill="#000000" font-family="Arial" font-size="11" lengthAdjust="spacing" textLength="95.9868" x="681.4143" y="937.7607">Verifica assinaturas</text><text fill="#000000" font-family="Arial" font-size="11" lengthAdjust="spacing" textLength="108.2275" x="681.4143" y="950.4097">expiradas diariamente</text><rect fill="#FFFFFF" height="42.998" rx="12.5" ry="12.5" style="stroke:#333333;stroke-width:0.5;" width="108.374" x="547.0403" y="918.5928"/><text fill="#000000" font-family="Arial" font-size="10" lengthAdjust="spacing" textLength="81.7041" x="557.0403" y="937.9727">Disparar comando</text><text fill="#000000" font-family="Arial" font-size="10" lengthAdjust="spacing" textLength="88.374" x="557.0403" y="949.4717">subscriptions:renew</text><polygon fill="#FFFFFF" points="557.0354,981.5908,645.4192,981.5908,657.4192,993.5908,645.4192,1005.5908,557.0354,1005.5908,545.0354,993.5908,557.0354,981.5908" style="stroke:#333333;stroke-width:0.5;"/><text fill="#000000" font-family="Arial" font-size="10" lengthAdjust="spacing" textLength="88.3838" x="557.0354" y="997.2212">Assinatura expirou?</text><text fill="#000000" font-family="Arial" font-size="9" lengthAdjust="spacing" textLength="18.9976" x="526.0378" y="991.6836">[sim]</text><text fill="#000000" font-family="Arial" font-size="9" lengthAdjust="spacing" textLength="20.0171" x="657.4192" y="991.6836">[n&#227;o]</text><rect fill="#FFFFFF" height="42.998" rx="12.5" ry="12.5" style="stroke:#333333;stroke-width:0.5;" width="120.0293" x="474.9443" y="1015.5908"/><text fill="#000000" font-family="Arial" font-size="10" lengthAdjust="spacing" textLength="100.0293" x="484.9443" y="1034.9707">Renovar com mesmos</text><text fill="#000000" font-family="Arial" font-size="10" lengthAdjust="spacing" textLength="50.5762" x="484.9443" y="1046.4697">par&#226;metros</text><rect fill="#FFFFFF" height="31.499" rx="12.5" ry="12.5" style="stroke:#333333;stroke-width:0.5;" width="116.1621" x="476.8779" y="1078.5889"/><text fill="#000000" font-family="Arial" font-size="10" lengthAdjust="spacing" textLength="96.1621" x="486.8779" y="1097.9688">Nova assinatura ativa</text><rect fill="#FFFFFF" height="31.499" rx="12.5" ry="12.5" style="stroke:#333333;stroke-width:0.5;" width="105.0439" x="614.9736" y="1015.5908"/><text fill="#000000" font-family="Arial" font-size="10" lengthAdjust="spacing" textLength="85.0439" x="624.9736" y="1034.9707">Manter status atual</text><polygon fill="#FFFFFF" points="601.2273,1116.0879,613.2273,1128.0879,601.2273,1140.0879,589.2273,1128.0879,601.2273,1116.0879" style="stroke:#333333;stroke-width:0.5;"/><ellipse cx="601.2273" cy="1171.0879" fill="none" rx="11" ry="11" style="stroke:#222222;stroke-width:1;"/><ellipse cx="601.2273" cy="1171.0879" fill="#222222" rx="6" ry="6" style="stroke:#222222;stroke-width:1;"/><line style="stroke:#333333;stroke-width:1.5;" x1="468.9443" x2="468.9443" y1="48.0986" y2="1877.5791"/><ellipse cx="930.4666" cy="1202.0879" fill="#222222" rx="10" ry="10" style="stroke:#222222;stroke-width:1;"/><rect fill="#FFFFFF" height="31.499" rx="12.5" ry="12.5" style="stroke:#333333;stroke-width:0.5;" width="116.7285" x="872.1023" y="1232.0879"/><text fill="#000000" font-family="Arial" font-size="10" lengthAdjust="spacing" textLength="96.7285" x="882.1023" y="1251.4678">Atender pet na cl&#237;nica</text><path d="M1002.427,1287.437 L1002.427,1301.0859 L982.427,1305.0859 L1002.427,1309.0859 L1002.427,1322.7349 A0,0 0 0 0 1002.427,1322.7349 L1144.4807,1322.7349 A0,0 0 0 0 1144.4807,1322.7349 L1144.4807,1297.437 L1134.4807,1287.437 L1002.427,1287.437 A0,0 0 0 0 1002.427,1287.437" fill="#FEFFDD" style="stroke:#181818;stroke-width:0.5;"/><path d="M1134.4807,1287.437 L1134.4807,1297.437 L1144.4807,1297.437 L1134.4807,1287.437" fill="#FEFFDD" style="stroke:#181818;stroke-width:0.5;"/><text fill="#000000" font-family="Arial" font-size="11" lengthAdjust="spacing" textLength="121.0537" x="1008.427" y="1302.7549">Informa servi&#231;o prestado</text><text fill="#000000" font-family="Arial" font-size="11" lengthAdjust="spacing" textLength="71.5376" x="1008.427" y="1315.4038">e valor original</text><rect fill="#FFFFFF" height="42.998" rx="12.5" ry="12.5" style="stroke:#333333;stroke-width:0.5;" width="103.9209" x="878.5061" y="1283.5869"/><text fill="#000000" font-family="Arial" font-size="10" lengthAdjust="spacing" textLength="83.9209" x="888.5061" y="1302.9668">Registrar consumo</text><text fill="#000000" font-family="Arial" font-size="10" lengthAdjust="spacing" textLength="60.0391" x="888.5061" y="1314.4658">na assinatura</text><rect fill="#FFFFFF" height="31.499" rx="12.5" ry="12.5" style="stroke:#333333;stroke-width:0.5;" width="102.8174" x="879.0579" y="1346.585"/><text fill="#000000" font-family="Arial" font-size="10" lengthAdjust="spacing" textLength="82.8174" x="889.0579" y="1365.9648">Calcular economia</text><rect fill="#FFFFFF" height="31.499" rx="12.5" ry="12.5" style="stroke:#333333;stroke-width:0.5;" width="122.2705" x="869.3313" y="1398.084"/><text fill="#000000" font-family="Arial" font-size="10" lengthAdjust="spacing" textLength="102.2705" x="879.3313" y="1417.4639">Reduzir usos restantes</text><polygon fill="#FFFFFF" points="891.8313,1449.583,969.1018,1449.583,981.1018,1461.583,969.1018,1473.583,891.8313,1473.583,879.8313,1461.583,891.8313,1449.583" style="stroke:#333333;stroke-width:0.5;"/><text fill="#000000" font-family="Arial" font-size="10" lengthAdjust="spacing" textLength="77.2705" x="891.8313" y="1465.2134">Usos esgotados?</text><text fill="#000000" font-family="Arial" font-size="9" lengthAdjust="spacing" textLength="18.9976" x="860.8337" y="1459.6758">[sim]</text><text fill="#000000" font-family="Arial" font-size="9" lengthAdjust="spacing" textLength="20.0171" x="981.1018" y="1459.6758">[n&#227;o]</text><rect fill="#FFFFFF" height="31.499" rx="12.5" ry="12.5" style="stroke:#333333;stroke-width:0.5;" width="79.4629" x="830.0999" y="1483.583"/><text fill="#000000" font-family="Arial" font-size="10" lengthAdjust="spacing" textLength="59.4629" x="840.0999" y="1502.9629">Notificar tutor</text><rect fill="#FFFFFF" height="31.499" rx="12.5" ry="12.5" style="stroke:#333333;stroke-width:0.5;" width="108.3789" x="815.6418" y="1535.082"/><text fill="#000000" font-family="Arial" font-size="10" lengthAdjust="spacing" textLength="88.3789" x="825.6418" y="1554.4619">Oferecer renova&#231;&#227;o</text><rect fill="#FFFFFF" height="31.499" rx="12.5" ry="12.5" style="stroke:#333333;stroke-width:0.5;" width="63.3594" x="959.4221" y="1483.583"/><text fill="#000000" font-family="Arial" font-size="10" lengthAdjust="spacing" textLength="43.3594" x="969.4221" y="1502.9629">Continuar</text><polygon fill="#FFFFFF" points="930.4666,1572.5811,942.4666,1584.5811,930.4666,1596.5811,918.4666,1584.5811,930.4666,1572.5811" style="stroke:#333333;stroke-width:0.5;"/><ellipse cx="930.4666" cy="1627.5811" fill="none" rx="11" ry="11" style="stroke:#222222;stroke-width:1;"/><ellipse cx="930.4666" cy="1627.5811" fill="#222222" rx="6" ry="6" style="stroke:#222222;stroke-width:1;"/><line style="stroke:#333333;stroke-width:1.5;" x1="809.6418" x2="809.6418" y1="48.0986" y2="1877.5791"/><ellipse cx="1252.8757" cy="1658.5811" fill="#222222" rx="10" ry="10" style="stroke:#222222;stroke-width:1;"/><rect fill="#FFFFFF" height="31.499" rx="12.5" ry="12.5" style="stroke:#333333;stroke-width:0.5;" width="108.3838" x="1198.6838" y="1688.5811"/><text fill="#000000" font-family="Arial" font-size="10" lengthAdjust="spacing" textLength="88.3838" x="1208.6838" y="1707.9609">Receber notifica&#231;&#227;o</text><polygon fill="#FFFFFF" points="1231.196,1740.0801,1274.5554,1740.0801,1286.5554,1752.0801,1274.5554,1764.0801,1231.196,1764.0801,1219.196,1752.0801,1231.196,1740.0801" style="stroke:#333333;stroke-width:0.5;"/><text fill="#000000" font-family="Arial" font-size="10" lengthAdjust="spacing" textLength="43.3594" x="1231.196" y="1755.7104">Renovar?</text><text fill="#000000" font-family="Arial" font-size="9" lengthAdjust="spacing" textLength="18.9976" x="1200.1985" y="1750.1729">[sim]</text><text fill="#000000" font-family="Arial" font-size="9" lengthAdjust="spacing" textLength="20.0171" x="1286.5554" y="1750.1729">[n&#227;o]</text><rect fill="#FFFFFF" height="31.499" rx="12.5" ry="12.5" style="stroke:#333333;stroke-width:0.5;" width="92.2607" x="1155.4807" y="1774.0801"/><text fill="#000000" font-family="Arial" font-size="10" lengthAdjust="spacing" textLength="72.2607" x="1165.4807" y="1793.46">Nova assinatura</text><rect fill="#FFFFFF" height="31.499" rx="12.5" ry="12.5" style="stroke:#333333;stroke-width:0.5;" width="72.7979" x="1267.7415" y="1774.0801"/><text fill="#000000" font-family="Arial" font-size="10" lengthAdjust="spacing" textLength="52.7979" x="1277.7415" y="1793.46">Usar avulso</text><polygon fill="#FFFFFF" points="1252.8757,1811.5791,1264.8757,1823.5791,1252.8757,1835.5791,1240.8757,1823.5791,1252.8757,1811.5791" style="stroke:#333333;stroke-width:0.5;"/><ellipse cx="1252.8757" cy="1866.5791" fill="none" rx="11" ry="11" style="stroke:#222222;stroke-width:1;"/><ellipse cx="1252.8757" cy="1866.5791" fill="#222222" rx="6" ry="6" style="stroke:#222222;stroke-width:1;"/><line style="stroke:#333333;stroke-width:1.5;" x1="1149.4807" x2="1149.4807" y1="48.0986" y2="1877.5791"/><line style="stroke:#333333;stroke-width:1.5;" x1="1344.5393" x2="1344.5393" y1="48.0986" y2="1877.5791"/><line style="stroke:#333333;stroke-width:1;" x1="88.2437" x2="88.2437" y1="85.7476" y2="105.7476"/><polygon fill="#333333" points="84.2437,95.7476,88.2437,105.7476,92.2437,95.7476,88.2437,99.7476" style="stroke:#333333;stroke-width:1;"/><line style="stroke:#333333;stroke-width:1;" x1="88.2437" x2="88.2437" y1="244.2446" y2="277.4941"/><polygon fill="#333333" points="84.2437,267.4941,88.2437,277.4941,92.2437,267.4941,88.2437,271.4941" style="stroke:#333333;stroke-width:1;"/><line style="stroke:#333333;stroke-width:1;" x1="88.2437" x2="88.2437" y1="181.2466" y2="201.2466"/><polygon fill="#333333" points="84.2437,191.2466,88.2437,201.2466,92.2437,191.2466,88.2437,195.2466" style="stroke:#333333;stroke-width:1;"/><line style="stroke:#333333;stroke-width:1;" x1="133.0439" x2="167.4873" y1="340.9932" y2="340.9932"/><polygon fill="#333333" points="163.4873,264.2446,167.4873,254.2446,171.4873,264.2446,167.4873,260.2446" style="stroke:#333333;stroke-width:1;"/><line style="stroke:#333333;stroke-width:1;" x1="167.4873" x2="167.4873" y1="169.2466" y2="340.9932"/><line style="stroke:#333333;stroke-width:1;" x1="167.4873" x2="100.2437" y1="169.2466" y2="169.2466"/><polygon fill="#333333" points="110.2437,165.2466,100.2437,169.2466,110.2437,173.2466,106.2437,169.2466" style="stroke:#333333;stroke-width:1;"/><line style="stroke:#333333;stroke-width:1;" x1="88.2437" x2="88.2437" y1="308.9932" y2="328.9932"/><polygon fill="#333333" points="84.2437,318.9932,88.2437,328.9932,92.2437,318.9932,88.2437,322.9932" style="stroke:#333333;stroke-width:1;"/><line style="stroke:#333333;stroke-width:1;" x1="88.2437" x2="88.2437" y1="137.2466" y2="157.2466"/><polygon fill="#333333" points="84.2437,147.2466,88.2437,157.2466,92.2437,147.2466,88.2437,151.2466" style="stroke:#333333;stroke-width:1;"/><line style="stroke:#333333;stroke-width:1;" x1="88.2437" x2="88.2437" y1="352.9932" y2="401.5986"/><polygon fill="#333333" points="84.2437,391.5986,88.2437,401.5986,92.2437,391.5986,88.2437,395.5986" style="stroke:#333333;stroke-width:1;"/><text fill="#000000" font-family="Arial" font-size="9" lengthAdjust="spacing" textLength="35.5034" x="92.2437" y="371.8423">[sim] yes</text><text fill="#000000" font-family="Arial" font-size="9" lengthAdjust="spacing" textLength="86.5503" x="92.2437" y="382.1914">:Pacote criado e ativo</text><line style="stroke:#333333;stroke-width:1;" x1="332.6025" x2="332.6025" y1="453.5986" y2="473.5986"/><polygon fill="#333333" points="328.6025,463.5986,332.6025,473.5986,336.6025,463.5986,332.6025,467.5986" style="stroke:#333333;stroke-width:1;"/><line style="stroke:#333333;stroke-width:1;" x1="256.4033" x2="256.4033" y1="590.5967" y2="610.5967"/><polygon fill="#333333" points="252.4033,600.5967,256.4033,610.5967,260.4033,600.5967,256.4033,604.5967" style="stroke:#333333;stroke-width:1;"/><line style="stroke:#333333;stroke-width:1;" x1="256.4033" x2="256.4033" y1="642.0957" y2="662.0957"/><polygon fill="#333333" points="252.4033,652.0957,256.4033,662.0957,260.4033,652.0957,256.4033,656.0957" style="stroke:#333333;stroke-width:1;"/><line style="stroke:#333333;stroke-width:1;" x1="256.4033" x2="256.4033" y1="693.5947" y2="713.5947"/><polygon fill="#333333" points="252.4033,703.5947,256.4033,713.5947,260.4033,703.5947,256.4033,707.5947" style="stroke:#333333;stroke-width:1;"/><line style="stroke:#333333;stroke-width:1;" x1="266.4033" x2="256.4033" y1="537.0977" y2="537.0977"/><line style="stroke:#333333;stroke-width:1;" x1="256.4033" x2="256.4033" y1="537.0977" y2="559.0977"/><polygon fill="#333333" points="252.4033,549.0977,256.4033,559.0977,260.4033,549.0977,256.4033,553.0977" style="stroke:#333333;stroke-width:1;"/><line style="stroke:#333333;stroke-width:1;" x1="398.8018" x2="408.8018" y1="537.0977" y2="537.0977"/><line style="stroke:#333333;stroke-width:1;" x1="408.8018" x2="408.8018" y1="537.0977" y2="559.0977"/><polygon fill="#333333" points="404.8018,549.0977,408.8018,559.0977,412.8018,549.0977,408.8018,553.0977" style="stroke:#333333;stroke-width:1;"/><line style="stroke:#333333;stroke-width:1;" x1="256.4033" x2="256.4033" y1="745.0938" y2="763.0938"/><line style="stroke:#333333;stroke-width:1;" x1="256.4033" x2="320.6025" y1="763.0938" y2="763.0938"/><polygon fill="#333333" points="310.6025,759.0938,320.6025,763.0938,310.6025,767.0938,314.6025,763.0938" style="stroke:#333333;stroke-width:1;"/><line style="stroke:#333333;stroke-width:1;" x1="408.8018" x2="408.8018" y1="590.5967" y2="763.0938"/><line style="stroke:#333333;stroke-width:1;" x1="408.8018" x2="344.6025" y1="763.0938" y2="763.0938"/><polygon fill="#333333" points="354.6025,759.0938,344.6025,763.0938,354.6025,767.0938,350.6025,763.0938" style="stroke:#333333;stroke-width:1;"/><line style="stroke:#333333;stroke-width:1;" x1="332.6025" x2="332.6025" y1="505.0977" y2="525.0977"/><polygon fill="#333333" points="328.6025,515.0977,332.6025,525.0977,336.6025,515.0977,332.6025,519.0977" style="stroke:#333333;stroke-width:1;"/><line style="stroke:#333333;stroke-width:1;" x1="332.6025" x2="332.6025" y1="775.0938" y2="795.0938"/><polygon fill="#333333" points="328.6025,785.0938,332.6025,795.0938,336.6025,785.0938,332.6025,789.0938" style="stroke:#333333;stroke-width:1;"/><line style="stroke:#333333;stroke-width:1;" x1="601.2273" x2="601.2273" y1="847.0938" y2="867.0938"/><polygon fill="#333333" points="597.2273,857.0938,601.2273,867.0938,605.2273,857.0938,601.2273,861.0938" style="stroke:#333333;stroke-width:1;"/><line style="stroke:#333333;stroke-width:1;" x1="601.2273" x2="601.2273" y1="898.5928" y2="918.5928"/><polygon fill="#333333" points="597.2273,908.5928,601.2273,918.5928,605.2273,908.5928,601.2273,912.5928" style="stroke:#333333;stroke-width:1;"/><line style="stroke:#333333;stroke-width:1;" x1="534.959" x2="534.959" y1="1058.5889" y2="1078.5889"/><polygon fill="#333333" points="530.959,1068.5889,534.959,1078.5889,538.959,1068.5889,534.959,1072.5889" style="stroke:#333333;stroke-width:1;"/><line style="stroke:#333333;stroke-width:1;" x1="545.0354" x2="534.959" y1="993.5908" y2="993.5908"/><line style="stroke:#333333;stroke-width:1;" x1="534.959" x2="534.959" y1="993.5908" y2="1015.5908"/><polygon fill="#333333" points="530.959,1005.5908,534.959,1015.5908,538.959,1005.5908,534.959,1009.5908" style="stroke:#333333;stroke-width:1;"/><line style="stroke:#333333;stroke-width:1;" x1="657.4192" x2="667.4956" y1="993.5908" y2="993.5908"/><line style="stroke:#333333;stroke-width:1;" x1="667.4956" x2="667.4956" y1="993.5908" y2="1015.5908"/><polygon fill="#333333" points="663.4956,1005.5908,667.4956,1015.5908,671.4956,1005.5908,667.4956,1009.5908" style="stroke:#333333;stroke-width:1;"/><line style="stroke:#333333;stroke-width:1;" x1="534.959" x2="534.959" y1="1110.0879" y2="1128.0879"/><line style="stroke:#333333;stroke-width:1;" x1="534.959" x2="589.2273" y1="1128.0879" y2="1128.0879"/><polygon fill="#333333" points="579.2273,1124.0879,589.2273,1128.0879,579.2273,1132.0879,583.2273,1128.0879" style="stroke:#333333;stroke-width:1;"/><line style="stroke:#333333;stroke-width:1;" x1="667.4956" x2="667.4956" y1="1047.0898" y2="1128.0879"/><line style="stroke:#333333;stroke-width:1;" x1="667.4956" x2="613.2273" y1="1128.0879" y2="1128.0879"/><polygon fill="#333333" points="623.2273,1124.0879,613.2273,1128.0879,623.2273,1132.0879,619.2273,1128.0879" style="stroke:#333333;stroke-width:1;"/><line style="stroke:#333333;stroke-width:1;" x1="601.2273" x2="601.2273" y1="961.5908" y2="981.5908"/><polygon fill="#333333" points="597.2273,971.5908,601.2273,981.5908,605.2273,971.5908,601.2273,975.5908" style="stroke:#333333;stroke-width:1;"/><line style="stroke:#333333;stroke-width:1;" x1="601.2273" x2="601.2273" y1="1140.0879" y2="1160.0879"/><polygon fill="#333333" points="597.2273,1150.0879,601.2273,1160.0879,605.2273,1150.0879,601.2273,1154.0879" style="stroke:#333333;stroke-width:1;"/><line style="stroke:#333333;stroke-width:1;" x1="930.4666" x2="930.4666" y1="1212.0879" y2="1232.0879"/><polygon fill="#333333" points="926.4666,1222.0879,930.4666,1232.0879,934.4666,1222.0879,930.4666,1226.0879" style="stroke:#333333;stroke-width:1;"/><line style="stroke:#333333;stroke-width:1;" x1="930.4666" x2="930.4666" y1="1263.5869" y2="1283.5869"/><polygon fill="#333333" points="926.4666,1273.5869,930.4666,1283.5869,934.4666,1273.5869,930.4666,1277.5869" style="stroke:#333333;stroke-width:1;"/><line style="stroke:#333333;stroke-width:1;" x1="930.4666" x2="930.4666" y1="1326.585" y2="1346.585"/><polygon fill="#333333" points="926.4666,1336.585,930.4666,1346.585,934.4666,1336.585,930.4666,1340.585" style="stroke:#333333;stroke-width:1;"/><line style="stroke:#333333;stroke-width:1;" x1="930.4666" x2="930.4666" y1="1378.084" y2="1398.084"/><polygon fill="#333333" points="926.4666,1388.084,930.4666,1398.084,934.4666,1388.084,930.4666,1392.084" style="stroke:#333333;stroke-width:1;"/><line style="stroke:#333333;stroke-width:1;" x1="869.8313" x2="869.8313" y1="1515.082" y2="1535.082"/><polygon fill="#333333" points="865.8313,1525.082,869.8313,1535.082,873.8313,1525.082,869.8313,1529.082" style="stroke:#333333;stroke-width:1;"/><line style="stroke:#333333;stroke-width:1;" x1="879.8313" x2="869.8313" y1="1461.583" y2="1461.583"/><line style="stroke:#333333;stroke-width:1;" x1="869.8313" x2="869.8313" y1="1461.583" y2="1483.583"/><polygon fill="#333333" points="865.8313,1473.583,869.8313,1483.583,873.8313,1473.583,869.8313,1477.583" style="stroke:#333333;stroke-width:1;"/><line style="stroke:#333333;stroke-width:1;" x1="981.1018" x2="991.1018" y1="1461.583" y2="1461.583"/><line style="stroke:#333333;stroke-width:1;" x1="991.1018" x2="991.1018" y1="1461.583" y2="1483.583"/><polygon fill="#333333" points="987.1018,1473.583,991.1018,1483.583,995.1018,1473.583,991.1018,1477.583" style="stroke:#333333;stroke-width:1;"/><line style="stroke:#333333;stroke-width:1;" x1="869.8313" x2="869.8313" y1="1566.5811" y2="1584.5811"/><line style="stroke:#333333;stroke-width:1;" x1="869.8313" x2="918.4666" y1="1584.5811" y2="1584.5811"/><polygon fill="#333333" points="908.4666,1580.5811,918.4666,1584.5811,908.4666,1588.5811,912.4666,1584.5811" style="stroke:#333333;stroke-width:1;"/><line style="stroke:#333333;stroke-width:1;" x1="991.1018" x2="991.1018" y1="1515.082" y2="1584.5811"/><line style="stroke:#333333;stroke-width:1;" x1="991.1018" x2="942.4666" y1="1584.5811" y2="1584.5811"/><polygon fill="#333333" points="952.4666,1580.5811,942.4666,1584.5811,952.4666,1588.5811,948.4666,1584.5811" style="stroke:#333333;stroke-width:1;"/><line style="stroke:#333333;stroke-width:1;" x1="930.4666" x2="930.4666" y1="1429.583" y2="1449.583"/><polygon fill="#333333" points="926.4666,1439.583,930.4666,1449.583,934.4666,1439.583,930.4666,1443.583" style="stroke:#333333;stroke-width:1;"/><line style="stroke:#333333;stroke-width:1;" x1="930.4666" x2="930.4666" y1="1596.5811" y2="1616.5811"/><polygon fill="#333333" points="926.4666,1606.5811,930.4666,1616.5811,934.4666,1606.5811,930.4666,1610.5811" style="stroke:#333333;stroke-width:1;"/><line style="stroke:#333333;stroke-width:1;" x1="1252.8757" x2="1252.8757" y1="1668.5811" y2="1688.5811"/><polygon fill="#333333" points="1248.8757,1678.5811,1252.8757,1688.5811,1256.8757,1678.5811,1252.8757,1682.5811" style="stroke:#333333;stroke-width:1;"/><line style="stroke:#333333;stroke-width:1;" x1="1219.196" x2="1201.6111" y1="1752.0801" y2="1752.0801"/><line style="stroke:#333333;stroke-width:1;" x1="1201.6111" x2="1201.6111" y1="1752.0801" y2="1774.0801"/><polygon fill="#333333" points="1197.6111,1764.0801,1201.6111,1774.0801,1205.6111,1764.0801,1201.6111,1768.0801" style="stroke:#333333;stroke-width:1;"/><line style="stroke:#333333;stroke-width:1;" x1="1286.5554" x2="1304.1404" y1="1752.0801" y2="1752.0801"/><line style="stroke:#333333;stroke-width:1;" x1="1304.1404" x2="1304.1404" y1="1752.0801" y2="1774.0801"/><polygon fill="#333333" points="1300.1404,1764.0801,1304.1404,1774.0801,1308.1404,1764.0801,1304.1404,1768.0801" style="stroke:#333333;stroke-width:1;"/><line style="stroke:#333333;stroke-width:1;" x1="1201.6111" x2="1201.6111" y1="1805.5791" y2="1823.5791"/><line style="stroke:#333333;stroke-width:1;" x1="1201.6111" x2="1240.8757" y1="1823.5791" y2="1823.5791"/><polygon fill="#333333" points="1230.8757,1819.5791,1240.8757,1823.5791,1230.8757,1827.5791,1234.8757,1823.5791" style="stroke:#333333;stroke-width:1;"/><line style="stroke:#333333;stroke-width:1;" x1="1304.1404" x2="1304.1404" y1="1805.5791" y2="1823.5791"/><line style="stroke:#333333;stroke-width:1;" x1="1304.1404" x2="1264.8757" y1="1823.5791" y2="1823.5791"/><polygon fill="#333333" points="1274.8757,1819.5791,1264.8757,1823.5791,1274.8757,1827.5791,1270.8757,1823.5791" style="stroke:#333333;stroke-width:1;"/><line style="stroke:#333333;stroke-width:1;" x1="1252.8757" x2="1252.8757" y1="1720.0801" y2="1740.0801"/><polygon fill="#333333" points="1248.8757,1730.0801,1252.8757,1740.0801,1256.8757,1730.0801,1252.8757,1734.0801" style="stroke:#333333;stroke-width:1;"/><line style="stroke:#333333;stroke-width:1;" x1="1252.8757" x2="1252.8757" y1="1835.5791" y2="1855.5791"/><polygon fill="#333333" points="1248.8757,1845.5791,1252.8757,1855.5791,1256.8757,1845.5791,1252.8757,1849.5791" style="stroke:#333333;stroke-width:1;"/><text fill="#000000" font-family="Arial" font-size="11" lengthAdjust="spacing" textLength="80.7114" x="60.3879" y="58.4165">Admin / Estoque</text><text fill="#000000" font-family="Arial" font-size="11" lengthAdjust="spacing" textLength="128.4175" x="263.5071" y="58.4165">Atendente / Recepcionista</text><text fill="#000000" font-family="Arial" font-size="11" lengthAdjust="spacing" textLength="39.7354" x="619.4254" y="58.4165">Sistema</text><text fill="#000000" font-family="Arial" font-size="11" lengthAdjust="spacing" textLength="50.1553" x="954.4836" y="58.4165">Atendente</text><text fill="#000000" font-family="Arial" font-size="11" lengthAdjust="spacing" textLength="25.6738" x="1234.1731" y="58.4165">Tutor</text><!--SRC=[TPJ1RjH038RlynJcref2xni9XBOSa6Yf2ksbgf2RU7SjPSPXFDa2we67u0M0GqyynRu9Ju8dsUncotAAvF7O___PaoSSohgj23wMuhs4vqthQ-SIfvhWX74UqIFO-Ql4Iwwm8eNBqxTWsH2HKU7Fj-zmZgKaEx4qLGwOscWdvvHq8Orpzwygpm6EuRKc-TJIlTE4CRd9LCACvvOSeUbA52vIGvWSmEI4PXmuGX1FHz14MZs8nPieNagMWFKHBB7kH1NvmfLvQMkhfHINRDaAdJiL7Uh2tOBDs44l69Qh7tPVNXu2AnnSXzKlkJbqprvSA_iR-4Bg9klCCZ9MOWRHE4XX1dfZYK95mHAEuO9AQh8mDdSRYrSvOR07A93Q9B5mZcTmCAsvksnC8k06dUb92mgcAEiupDwcrd-SicjuNVqfD9IACRlitMOLKiHa-hKxtCweSsErg5RQ-i-LJRMTBjjQXuzbXOfdW_FtvfByrkS5pIqI7ucSdB0scAEsC1WgSThUgi5iae7IIQH0TuKBMNta-I8F_eeYpxZ4KI6rC7rkE69bUrKP2aQVoMLDa6ztE4V6kcnfzv2ye23BNX1uKY-vk6bS_VIKuXhHcQMC-l-NqocQ25kuP6bgMItMZpXjDcH3ge_4F2i826Mz-XtCRZ5cQ2FJreiBk8DpXzERC9DeZtFOzln4D4yvmyelGoA89TljUijfCiMwNngo9kAvRrorNuTrwQgOO2EHeLxc6EbSkWNQ0_HCKZUlEAosnTxDADfpY5Oiqruz6B4z-Epz9mujnaVGFkH2ezKgwPRoZw1ljAwMnQs7kLVLSfVTFyqlDIzhtctPQVyN]--></g></svg>