<svg xmlns="http://www.w3.org/2000/svg" xmlns:xlink="http://www.w3.org/1999/xlink" contentStyleType="text/css" data-diagram-type="ACTIVITY" height="807px" preserveAspectRatio="none" style="width:676px;height:807px;background:#FEFEFE;" version="1.1" viewBox="0 0 676 807" width="676px" zoomAndPan="magnify"><title>Fluxo de Estoque e Pedidos de Compra</title><defs/><g><rect fill="#FEFEFE" height="807" style="stroke:none;stroke-width:1;" width="676" x="0" y="0"/><text fill="#000000" font-family="Arial" font-size="14" font-weight="bold" lengthAdjust="spacing" textLength="263.71" x="204.9432" y="33.1318">Fluxo de Estoque e Pedidos de Compra</text><rect fill="none" height="12.6489" style="stroke:none;stroke-width:1;" width="643.5963" x="15" y="48.0986"/><ellipse cx="142.0342" cy="75.7476" fill="#222222" rx="10" ry="10" style="stroke:#222222;stroke-width:1;"/><rect fill="#FFFFFF" height="31.499" rx="12.5" ry="12.5" style="stroke:#333333;stroke-width:0.5;" width="105.0293" x="89.5195" y="105.7476"/><text fill="#000000" font-family="Arial" font-size="10" lengthAdjust="spacing" textLength="85.0293" x="99.5195" y="125.1274">Criar Pedido (draft)</text><rect fill="#FFFFFF" height="31.499" rx="12.5" ry="12.5" style="stroke:#333333;stroke-width:0.5;" width="140.0684" x="72" y="211.1885"/><text fill="#000000" font-family="Arial" font-size="10" lengthAdjust="spacing" textLength="120.0684" x="82" y="230.5684">Adicionar Itens+Qtd+Pre&#231;o</text><polygon fill="#FFFFFF" points="108.5454,262.6875,175.5229,262.6875,187.5229,274.6875,175.5229,286.6875,108.5454,286.6875,96.5454,274.6875,108.5454,262.6875" style="stroke:#333333;stroke-width:0.5;"/><text fill="#000000" font-family="Arial" font-size="10" lengthAdjust="spacing" textLength="66.9775" x="108.5454" y="278.3179">Valor &gt; Limite?</text><text fill="#000000" font-family="Arial" font-size="9" lengthAdjust="spacing" textLength="20.0171" x="76.5283" y="272.7803">[n&#227;o]</text><text fill="#000000" font-family="Arial" font-size="9" lengthAdjust="spacing" textLength="18.9976" x="187.5229" y="272.7803">[sim]</text><rect fill="#FFFFFF" height="31.499" rx="12.5" ry="12.5" style="stroke:#333333;stroke-width:0.5;" width="123.9404" x="109.3065" y="402.1865"/><text fill="#000000" font-family="Arial" font-size="10" lengthAdjust="spacing" textLength="103.9404" x="119.3065" y="421.5664">Rejeitado (volta a draft)</text><polygon fill="#FFFFFF" points="108.5454,157.2466,175.5229,157.2466,187.5229,169.2466,175.5229,181.2466,108.5454,181.2466,96.5454,169.2466,108.5454,157.2466" style="stroke:#333333;stroke-width:0.5;"/><text fill="#000000" font-family="Arial" font-size="9" lengthAdjust="spacing" textLength="33.5083" x="146.0342" y="189.6885">[verifica]</text><text fill="#000000" font-family="Arial" font-size="10" lengthAdjust="spacing" textLength="66.9775" x="108.5454" y="172.877">Valor &gt; Limite?</text><rect fill="#FFFFFF" height="31.499" rx="12.5" ry="12.5" style="stroke:#333333;stroke-width:0.5;" width="116.1621" x="83.9531" y="475.6855"/><text fill="#000000" font-family="Arial" font-size="10" lengthAdjust="spacing" textLength="96.1621" x="93.9531" y="495.0654">Enviar ao Fornecedor</text><polygon fill="#FFFFFF" points="106.7388,578.6836,177.3296,578.6836,189.3296,590.6836,177.3296,602.6836,106.7388,602.6836,94.7388,590.6836,106.7388,578.6836" style="stroke:#333333;stroke-width:0.5;"/><text fill="#000000" font-family="Arial" font-size="9" lengthAdjust="spacing" textLength="18.9976" x="146.0342" y="611.1255">[sim]</text><text fill="#000000" font-family="Arial" font-size="10" lengthAdjust="spacing" textLength="70.5908" x="106.7388" y="594.314">Receb. Parcial?</text><polygon fill="#FFFFFF" points="142.0342,678.1826,154.0342,690.1826,142.0342,702.1826,130.0342,690.1826,142.0342,678.1826" style="stroke:#333333;stroke-width:0.5;"/><rect fill="#FFFFFF" height="31.499" rx="12.5" ry="12.5" style="stroke:#333333;stroke-width:0.5;" width="99.4971" x="92.2856" y="722.1826"/><text fill="#000000" font-family="Arial" font-size="10" lengthAdjust="spacing" textLength="79.4971" x="102.2856" y="741.5625">Pedido Finalizado</text><ellipse cx="142.0342" cy="784.6816" fill="none" rx="11" ry="11" style="stroke:#222222;stroke-width:1;"/><ellipse cx="142.0342" cy="784.6816" fill="#222222" rx="6" ry="6" style="stroke:#222222;stroke-width:1;"/><line style="stroke:#333333;stroke-width:1.5;" x1="15" x2="15" y1="48.0986" y2="795.6816"/><rect fill="#FFFFFF" height="31.499" rx="12.5" ry="12.5" style="stroke:#333333;stroke-width:0.5;" width="120.6055" x="272.2469" y="306.6875"/><text fill="#000000" font-family="Arial" font-size="10" lengthAdjust="spacing" textLength="100.6055" x="282.2469" y="326.0674">Aprova&#231;&#227;o Necess&#225;ria</text><polygon fill="#FFFFFF" points="308.3651,358.1865,356.7343,358.1865,368.7343,370.1865,356.7343,382.1865,308.3651,382.1865,296.3651,370.1865,308.3651,358.1865" style="stroke:#333333;stroke-width:0.5;"/><text fill="#000000" font-family="Arial" font-size="10" lengthAdjust="spacing" textLength="48.3691" x="308.3651" y="373.8169">Aprovado?</text><text fill="#000000" font-family="Arial" font-size="9" lengthAdjust="spacing" textLength="20.0171" x="276.348" y="368.2793">[n&#227;o]</text><text fill="#000000" font-family="Arial" font-size="9" lengthAdjust="spacing" textLength="18.9976" x="368.7343" y="368.2793">[sim]</text><line style="stroke:#333333;stroke-width:1.5;" x1="266.2469" x2="266.2469" y1="48.0986" y2="795.6816"/><rect fill="#FFFFFF" height="31.499" rx="12.5" ry="12.5" style="stroke:#333333;stroke-width:0.5;" width="91.7139" x="402.8524" y="527.1846"/><text fill="#000000" font-family="Arial" font-size="10" lengthAdjust="spacing" textLength="71.7139" x="412.8524" y="546.5645">Receber Pedido</text><line style="stroke:#333333;stroke-width:1.5;" x1="396.8524" x2="396.8524" y1="48.0986" y2="795.6816"/><rect fill="#FFFFFF" height="31.499" rx="12.5" ry="12.5" style="stroke:#333333;stroke-width:0.5;" width="149.502" x="504.5663" y="626.6836"/><text fill="#000000" font-family="Arial" font-size="10" lengthAdjust="spacing" textLength="129.502" x="514.5663" y="646.0635">Concilia&#231;&#227;o (confere valores)</text><line style="stroke:#333333;stroke-width:1.5;" x1="498.5663" x2="498.5663" y1="48.0986" y2="795.6816"/><line style="stroke:#333333;stroke-width:1.5;" x1="658.0682" x2="658.0682" y1="48.0986" y2="795.6816"/><line style="stroke:#333333;stroke-width:1;" x1="142.0342" x2="142.0342" y1="85.7476" y2="105.7476"/><polygon fill="#333333" points="138.0342,95.7476,142.0342,105.7476,146.0342,95.7476,142.0342,99.7476" style="stroke:#333333;stroke-width:1;"/><line style="stroke:#333333;stroke-width:1;" x1="96.5454" x2="65.0233" y1="274.6875" y2="274.6875"/><line style="stroke:#333333;stroke-width:1;" x1="65.0233" x2="65.0233" y1="274.6875" y2="306.6875"/><line style="stroke:#333333;stroke-width:1;" x1="65.0233" x2="34" y1="306.6875" y2="306.6875"/><polygon fill="#333333" points="44,302.6875,34,306.6875,44,310.6875,40,306.6875" style="stroke:#333333;stroke-width:1;"/><line style="stroke:#333333;stroke-width:1;" x1="142.0342" x2="142.0342" y1="242.6875" y2="262.6875"/><polygon fill="#333333" points="138.0342,252.6875,142.0342,262.6875,146.0342,252.6875,142.0342,256.6875" style="stroke:#333333;stroke-width:1;"/><line style="stroke:#333333;stroke-width:1;" x1="142.0342" x2="142.0342" y1="181.2466" y2="211.1885"/><polygon fill="#333333" points="138.0342,201.1885,142.0342,211.1885,146.0342,201.1885,142.0342,205.1885" style="stroke:#333333;stroke-width:1;"/><line style="stroke:#333333;stroke-width:1;" x1="332.5497" x2="332.5497" y1="438.6855" y2="443.6855"/><line style="stroke:#333333;stroke-width:1;" x1="332.5497" x2="247.2469" y1="443.6855" y2="443.6855"/><polygon fill="#333333" points="243.2469,331.2625,247.2469,321.2625,251.2469,331.2625,247.2469,327.2625" style="stroke:#333333;stroke-width:1;"/><line style="stroke:#333333;stroke-width:1;" x1="247.2469" x2="247.2469" y1="169.2466" y2="443.6855"/><line style="stroke:#333333;stroke-width:1;" x1="247.2469" x2="187.5229" y1="169.2466" y2="169.2466"/><polygon fill="#333333" points="197.5229,165.2466,187.5229,169.2466,197.5229,173.2466,193.5229,169.2466" style="stroke:#333333;stroke-width:1;"/><line style="stroke:#333333;stroke-width:1;" x1="96.5454" x2="34" y1="169.2466" y2="169.2466"/><polygon fill="#333333" points="30,317.2625,34,327.2625,38,317.2625,34,321.2625" style="stroke:#333333;stroke-width:1;"/><line style="stroke:#333333;stroke-width:1;" x1="34" x2="34" y1="169.2466" y2="455.6855"/><line style="stroke:#333333;stroke-width:1;" x1="34" x2="142.0342" y1="455.6855" y2="455.6855"/><line style="stroke:#333333;stroke-width:1;" x1="142.0342" x2="142.0342" y1="455.6855" y2="475.6855"/><polygon fill="#333333" points="138.0342,465.6855,142.0342,475.6855,146.0342,465.6855,142.0342,469.6855" style="stroke:#333333;stroke-width:1;"/><line style="stroke:#333333;stroke-width:1;" x1="380.7343" x2="238.2469" y1="388.1865" y2="388.1865"/><line style="stroke:#333333;stroke-width:1;" x1="238.2469" x2="238.2469" y1="388.1865" y2="402.1865"/><line style="stroke:#333333;stroke-width:1;" x1="238.2469" x2="34" y1="402.1865" y2="402.1865"/><polygon fill="#333333" points="44,398.1865,34,402.1865,44,406.1865,40,402.1865" style="stroke:#333333;stroke-width:1;"/><line style="stroke:#333333;stroke-width:1;" x1="142.0342" x2="142.0342" y1="137.2466" y2="157.2466"/><polygon fill="#333333" points="138.0342,147.2466,142.0342,157.2466,146.0342,147.2466,142.0342,151.2466" style="stroke:#333333;stroke-width:1;"/><line style="stroke:#333333;stroke-width:1;" x1="94.7388" x2="58" y1="590.6836" y2="590.6836"/><polygon fill="#333333" points="54,632.4331,58,642.4331,62,632.4331,58,636.4331" style="stroke:#333333;stroke-width:1;"/><line style="stroke:#333333;stroke-width:1;" x1="58" x2="58" y1="590.6836" y2="690.1826"/><line style="stroke:#333333;stroke-width:1;" x1="58" x2="130.0342" y1="690.1826" y2="690.1826"/><polygon fill="#333333" points="120.0342,686.1826,130.0342,690.1826,120.0342,694.1826,124.0342,690.1826" style="stroke:#333333;stroke-width:1;"/><line style="stroke:#333333;stroke-width:1;" x1="142.0342" x2="142.0342" y1="702.1826" y2="722.1826"/><polygon fill="#333333" points="138.0342,712.1826,142.0342,722.1826,146.0342,712.1826,142.0342,716.1826" style="stroke:#333333;stroke-width:1;"/><line style="stroke:#333333;stroke-width:1;" x1="142.0342" x2="142.0342" y1="753.6816" y2="773.6816"/><polygon fill="#333333" points="138.0342,763.6816,142.0342,773.6816,146.0342,763.6816,142.0342,767.6816" style="stroke:#333333;stroke-width:1;"/><line style="stroke:#333333;stroke-width:1;" x1="332.5497" x2="332.5497" y1="338.1865" y2="358.1865"/><polygon fill="#333333" points="328.5497,348.1865,332.5497,358.1865,336.5497,348.1865,332.5497,352.1865" style="stroke:#333333;stroke-width:1;"/><line style="stroke:#333333;stroke-width:1;" x1="296.3651" x2="171.2767" y1="370.1865" y2="370.1865"/><line style="stroke:#333333;stroke-width:1;" x1="171.2767" x2="171.2767" y1="370.1865" y2="402.1865"/><polygon fill="#333333" points="167.2767,392.1865,171.2767,402.1865,175.2767,392.1865,171.2767,396.1865" style="stroke:#333333;stroke-width:1;"/><line style="stroke:#333333;stroke-width:1;" x1="368.7343" x2="380.7343" y1="370.1865" y2="370.1865"/><line style="stroke:#333333;stroke-width:1;" x1="380.7343" x2="380.7343" y1="370.1865" y2="388.1865"/><line style="stroke:#333333;stroke-width:1;" x1="171.2767" x2="171.2767" y1="433.6855" y2="437.6855"/><line style="stroke:#333333;stroke-width:1;" x1="171.2767" x2="332.5497" y1="437.6855" y2="437.6855"/><line style="stroke:#333333;stroke-width:1;" x1="332.5497" x2="332.5497" y1="437.6855" y2="438.6855"/><line style="stroke:#333333;stroke-width:1;" x1="187.5229" x2="332.5497" y1="274.6875" y2="274.6875"/><line style="stroke:#333333;stroke-width:1;" x1="332.5497" x2="332.5497" y1="274.6875" y2="306.6875"/><polygon fill="#333333" points="328.5497,296.6875,332.5497,306.6875,336.5497,296.6875,332.5497,300.6875" style="stroke:#333333;stroke-width:1;"/><line style="stroke:#333333;stroke-width:1;" x1="142.0342" x2="142.0342" y1="507.1846" y2="512.1846"/><line style="stroke:#333333;stroke-width:1;" x1="142.0342" x2="448.7094" y1="512.1846" y2="512.1846"/><line style="stroke:#333333;stroke-width:1;" x1="448.7094" x2="448.7094" y1="512.1846" y2="527.1846"/><polygon fill="#333333" points="444.7094,517.1846,448.7094,527.1846,452.7094,517.1846,448.7094,521.1846" style="stroke:#333333;stroke-width:1;"/><line style="stroke:#333333;stroke-width:1;" x1="142.0342" x2="142.0342" y1="602.6836" y2="614.6836"/><line style="stroke:#333333;stroke-width:1;" x1="142.0342" x2="579.3173" y1="614.6836" y2="614.6836"/><line style="stroke:#333333;stroke-width:1;" x1="579.3173" x2="579.3173" y1="614.6836" y2="626.6836"/><polygon fill="#333333" points="575.3173,616.6836,579.3173,626.6836,583.3173,616.6836,579.3173,620.6836" style="stroke:#333333;stroke-width:1;"/><line style="stroke:#333333;stroke-width:1;" x1="579.3173" x2="579.3173" y1="658.1826" y2="666.1826"/><line style="stroke:#333333;stroke-width:1;" x1="579.3173" x2="142.0342" y1="666.1826" y2="666.1826"/><line style="stroke:#333333;stroke-width:1;" x1="142.0342" x2="142.0342" y1="666.1826" y2="678.1826"/><polygon fill="#333333" points="138.0342,668.1826,142.0342,678.1826,146.0342,668.1826,142.0342,672.1826" style="stroke:#333333;stroke-width:1;"/><line style="stroke:#333333;stroke-width:1;" x1="448.7094" x2="448.7094" y1="558.6836" y2="563.6836"/><line style="stroke:#333333;stroke-width:1;" x1="448.7094" x2="142.0342" y1="563.6836" y2="563.6836"/><line style="stroke:#333333;stroke-width:1;" x1="142.0342" x2="142.0342" y1="563.6836" y2="578.6836"/><polygon fill="#333333" points="138.0342,568.6836,142.0342,578.6836,146.0342,568.6836,142.0342,572.6836" style="stroke:#333333;stroke-width:1;"/><text fill="#000000" font-family="Arial" font-size="11" lengthAdjust="spacing" textLength="40.3638" x="120.4416" y="58.4165">Estoque</text><text fill="#000000" font-family="Arial" font-size="11" lengthAdjust="spacing" textLength="31.1792" x="315.9601" y="58.4165">Admin</text><text fill="#000000" font-family="Arial" font-size="11" lengthAdjust="spacing" textLength="56.2515" x="419.5836" y="58.4165">Fornecedor</text><text fill="#000000" font-family="Arial" font-size="11" lengthAdjust="spacing" textLength="51.3584" x="552.6381" y="58.4165">Financeiro</text><!--SRC=[RL71IWCn4BtdAyRRbe8Vi0Mbb1O4aTg3boAI9hDqD9kfIRgAxC-8Xtv8Vyp9TciBzf9Czis-UU_D5NdZjXRXnN1Tix_UR6kdLABa46Pk-yaWu3GcVjyY8CpHakMOFqwutWIjLDkZhOf9XwJAII0T-aueRD1L6eoK-bYJS1PFsd606xYdcXBU3e0Y5Ci60rLazFD00PHZIuRO2yjTGX-7ZyaEvm7tEnOU0AekqAGrUY7o-n_kI01M0VMRLEYYp5r6gdkW7TkQVDlLvNWJkD7xdVm73sWmnlst6EW67KOTEYnV729iV_uFxtA1hqX9P_CDkwH1mp64ZF-JSr8geBTKgUCjPvVQUSZbr3SvNyqmu-15iUKWQjlJIveMKgtmk8NHEK6srC7NCDV1a7OdOqTHxOoyzWOfSBPLJjWRSjJ7L1Zs5GQ49Yy1enWxw3sNsUy_4pdwqbc4O9jV]--></g></svg>