<svg xmlns="http://www.w3.org/2000/svg" xmlns:xlink="http://www.w3.org/1999/xlink" contentStyleType="text/css" height="1660px" preserveAspectRatio="none" style="width:814px;height:1660px;background:#FEFEFE;" version="1.1" viewBox="0 0 814 1660" width="814px" zoomAndPan="magnify"><title>Fluxo de Faturamento, NFSe, NFC-e e Comiss&#245;es</title><defs/><g><rect fill="#FEFEFE" height="1660" style="stroke:none;stroke-width:1.0;" width="814" x="0" y="0"/><text fill="#000000" font-family="Arial" font-size="14" font-weight="bold" lengthAdjust="spacing" textLength="329.0615" x="240.9811" y="33.1318">Fluxo de Faturamento, NFSe, NFC-e e Comiss&#245;es</text><rect fill="none" height="12.6489" style="stroke:none;stroke-width:1.0;" width="781.0237" x="15" y="48.0986"/><ellipse cx="84.6353" cy="75.7476" fill="#222222" rx="10" ry="10" style="stroke:#222222;stroke-width:1.0;"/><rect fill="#FFFFFF" height="31.499" rx="12.5" ry="12.5" style="stroke:#333333;stroke-width:0.5;" width="85.0342" x="42.1182" y="105.7476"/><text fill="#000000" font-family="Arial" font-size="10" lengthAdjust="spacing" textLength="65.0342" x="52.1182" y="125.1274">Fatura Gerada</text><rect fill="#FFFFFF" height="31.499" rx="12.5" ry="12.5" style="stroke:#333333;stroke-width:0.5;" width="127.2705" x="21" y="157.2466"/><text fill="#000000" font-family="Arial" font-size="10" lengthAdjust="spacing" textLength="107.2705" x="31" y="176.6265">Adicionar Itens/Servi&#231;os</text><line style="stroke:#333333;stroke-width:1.5;" x1="15" x2="15" y1="48.0986" y2="1648.231"/><rect fill="#FFFFFF" height="31.499" rx="12.5" ry="12.5" style="stroke:#333333;stroke-width:0.5;" width="162.832" x="158.2705" y="208.7456"/><text fill="#000000" font-family="Arial" font-size="10" lengthAdjust="spacing" textLength="142.832" x="168.2705" y="228.1255">Pagar (Dinheiro/Cart&#227;o/PIX/MP)</text><line style="stroke:#333333;stroke-width:1.5;" x1="152.2705" x2="152.2705" y1="48.0986" y2="1648.231"/><rect fill="#FFFFFF" height="31.499" rx="12.5" ry="12.5" style="stroke:#333333;stroke-width:0.5;" width="111.1621" x="375.7627" y="308.2446"/><text fill="#000000" font-family="Arial" font-size="10" lengthAdjust="spacing" textLength="91.1621" x="385.7627" y="327.6245">InvoicePaid (evento)</text><rect fill="#FFFFFF" height="31.499" rx="12.5" ry="12.5" style="stroke:#333333;stroke-width:0.5;" width="73.8916" x="394.3979" y="455.7437"/><text fill="#000000" font-family="Arial" font-size="10" lengthAdjust="spacing" textLength="53.8916" x="404.3979" y="475.1235">Emitir NFSe</text><rect fill="#FFFFFF" height="31.499" rx="12.5" ry="12.5" style="stroke:#333333;stroke-width:0.5;" width="93.3545" x="384.6665" y="507.2427"/><text fill="#000000" font-family="Arial" font-size="10" lengthAdjust="spacing" textLength="73.3545" x="394.6665" y="526.6226">Processar NFSe</text><rect fill="#FFFFFF" height="31.499" rx="12.5" ry="12.5" style="stroke:#333333;stroke-width:0.5;" width="103.0811" x="379.8032" y="573.7417"/><text fill="#000000" font-family="Arial" font-size="10" lengthAdjust="spacing" textLength="83.0811" x="389.8032" y="593.1216">Salvar XML + PDF</text><polygon fill="#FFFFFF" points="399.9399,407.7437,462.7476,407.7437,474.7476,419.7437,462.7476,431.7437,399.9399,431.7437,387.9399,419.7437,399.9399,407.7437" style="stroke:#333333;stroke-width:0.5;"/><text fill="#000000" font-family="Arial" font-size="9" lengthAdjust="spacing" textLength="18.9976" x="435.3438" y="440.1855">[sim]</text><text fill="#000000" font-family="Arial" font-size="10" lengthAdjust="spacing" textLength="62.8076" x="399.9399" y="423.374">NFSe Config?</text><text fill="#000000" font-family="Arial" font-size="9" lengthAdjust="spacing" textLength="20.0171" x="367.9229" y="417.8364">[n&#227;o]</text><polygon fill="#FFFFFF" points="431.3438,676.7397,443.3438,688.7397,431.3438,700.7397,419.3438,688.7397,431.3438,676.7397" style="stroke:#333333;stroke-width:0.5;"/><polygon fill="#FFFFFF" points="388.2725,359.7437,474.415,359.7437,486.415,371.7437,474.415,383.7437,388.2725,383.7437,376.2725,371.7437,388.2725,359.7437" style="stroke:#333333;stroke-width:0.5;"/><text fill="#000000" font-family="Arial" font-size="9" lengthAdjust="spacing" textLength="18.9976" x="435.3438" y="392.1855">[sim]</text><text fill="#000000" font-family="Arial" font-size="10" lengthAdjust="spacing" textLength="86.1426" x="388.2725" y="375.374">Tem Itens Servi&#231;o?</text><text fill="#000000" font-family="Arial" font-size="9" lengthAdjust="spacing" textLength="20.0171" x="356.2554" y="369.8364">[n&#227;o]</text><polygon fill="#FFFFFF" points="431.3438,720.7397,443.3438,732.7397,431.3438,744.7397,419.3438,732.7397,431.3438,720.7397" style="stroke:#333333;stroke-width:0.5;"/><rect fill="#FFFFFF" height="31.499" rx="12.5" ry="12.5" style="stroke:#333333;stroke-width:0.5;" width="133.9111" x="364.3882" y="860.7397"/><text fill="#000000" font-family="Arial" font-size="10" lengthAdjust="spacing" textLength="113.9111" x="374.3882" y="880.1196">Emitir NFC-e (modelo 65)</text><rect fill="#FFFFFF" height="31.499" rx="12.5" ry="12.5" style="stroke:#333333;stroke-width:0.5;" width="97.2363" x="382.7256" y="912.2388"/><text fill="#000000" font-family="Arial" font-size="10" lengthAdjust="spacing" textLength="77.2363" x="392.7256" y="931.6187">Processar NFC-e</text><rect fill="#FFFFFF" height="31.499" rx="12.5" ry="12.5" style="stroke:#333333;stroke-width:0.5;" width="116.9727" x="372.8574" y="978.7378"/><text fill="#000000" font-family="Arial" font-size="10" lengthAdjust="spacing" textLength="96.9727" x="382.8574" y="998.1177">Salvar XML + DANFE</text><rect fill="#FFFFFF" height="31.499" rx="12.5" ry="12.5" style="stroke:#333333;stroke-width:0.5;" width="93.9307" x="384.3784" y="1030.2368"/><text fill="#000000" font-family="Arial" font-size="10" lengthAdjust="spacing" textLength="73.9307" x="394.3784" y="1049.6167">Deduzir Estoque</text><polygon fill="#FFFFFF" points="397.999,812.7397,464.6885,812.7397,476.6885,824.7397,464.6885,836.7397,397.999,836.7397,385.999,824.7397,397.999,812.7397" style="stroke:#333333;stroke-width:0.5;"/><text fill="#000000" font-family="Arial" font-size="9" lengthAdjust="spacing" textLength="18.9976" x="435.3438" y="845.1816">[sim]</text><text fill="#000000" font-family="Arial" font-size="10" lengthAdjust="spacing" textLength="66.6895" x="397.999" y="828.3701">NFC-e Config?</text><text fill="#000000" font-family="Arial" font-size="9" lengthAdjust="spacing" textLength="20.0171" x="476.6885" y="822.8325">[n&#227;o]</text><polygon fill="#FFFFFF" points="431.3438,1081.7358,443.3438,1093.7358,431.3438,1105.7358,419.3438,1093.7358,431.3438,1081.7358" style="stroke:#333333;stroke-width:0.5;"/><polygon fill="#FFFFFF" points="387.4326,764.7397,475.2549,764.7397,487.2549,776.7397,475.2549,788.7397,387.4326,788.7397,375.4326,776.7397,387.4326,764.7397" style="stroke:#333333;stroke-width:0.5;"/><text fill="#000000" font-family="Arial" font-size="9" lengthAdjust="spacing" textLength="18.9976" x="435.3438" y="797.1816">[sim]</text><text fill="#000000" font-family="Arial" font-size="10" lengthAdjust="spacing" textLength="87.8223" x="387.4326" y="780.3701">Tem Itens Produto?</text><text fill="#000000" font-family="Arial" font-size="9" lengthAdjust="spacing" textLength="20.0171" x="487.2549" y="774.8325">[n&#227;o]</text><polygon fill="#FFFFFF" points="431.3438,1125.7358,443.3438,1137.7358,431.3438,1149.7358,419.3438,1137.7358,431.3438,1125.7358" style="stroke:#333333;stroke-width:0.5;"/><rect fill="#FFFFFF" height="31.499" rx="12.5" ry="12.5" style="stroke:#333333;stroke-width:0.5;" width="103.916" x="379.3857" y="1217.7358"/><text fill="#000000" font-family="Arial" font-size="10" lengthAdjust="spacing" textLength="83.916" x="389.3857" y="1237.1157">Calcular Comiss&#227;o</text><rect fill="#FFFFFF" height="31.499" rx="12.5" ry="12.5" style="stroke:#333333;stroke-width:0.5;" width="113.3789" x="374.6543" y="1269.2349"/><text fill="#000000" font-family="Arial" font-size="10" lengthAdjust="spacing" textLength="93.3789" x="384.6543" y="1288.6147">Commission pending</text><polygon fill="#FFFFFF" points="390.4917,1169.7358,472.1958,1169.7358,484.1958,1181.7358,472.1958,1193.7358,390.4917,1193.7358,378.4917,1181.7358,390.4917,1169.7358" style="stroke:#333333;stroke-width:0.5;"/><text fill="#000000" font-family="Arial" font-size="9" lengthAdjust="spacing" textLength="18.9976" x="435.3438" y="1202.1777">[sim]</text><text fill="#000000" font-family="Arial" font-size="10" lengthAdjust="spacing" textLength="81.7041" x="390.4917" y="1185.3662">Comiss&#227;o Config?</text><text fill="#000000" font-family="Arial" font-size="9" lengthAdjust="spacing" textLength="20.0171" x="358.4746" y="1179.8286">[n&#227;o]</text><polygon fill="#FFFFFF" points="431.3438,1372.2329,443.3438,1384.2329,431.3438,1396.2329,419.3438,1384.2329,431.3438,1372.2329" style="stroke:#333333;stroke-width:0.5;"/><rect fill="#FFFFFF" height="31.499" rx="12.5" ry="12.5" style="stroke:#333333;stroke-width:0.5;" width="109.4922" x="376.5977" y="1464.2329"/><text fill="#000000" font-family="Arial" font-size="10" lengthAdjust="spacing" textLength="89.4922" x="386.5977" y="1483.6128">Transa&#231;&#227;o Banc&#225;ria</text><rect fill="#FFFFFF" height="31.499" rx="12.5" ry="12.5" style="stroke:#333333;stroke-width:0.5;" width="71.6943" x="395.4966" y="1530.7319"/><text fill="#000000" font-family="Arial" font-size="10" lengthAdjust="spacing" textLength="51.6943" x="405.4966" y="1550.1118">Reconcilied</text><polygon fill="#FFFFFF" points="376.3145,1416.2329,486.373,1416.2329,498.373,1428.2329,486.373,1440.2329,376.3145,1440.2329,364.3145,1428.2329,376.3145,1416.2329" style="stroke:#333333;stroke-width:0.5;"/><text fill="#000000" font-family="Arial" font-size="9" lengthAdjust="spacing" textLength="18.9976" x="435.3438" y="1448.6748">[sim]</text><text fill="#000000" font-family="Arial" font-size="10" lengthAdjust="spacing" textLength="110.0586" x="376.3145" y="1431.8633">Concilia&#231;&#227;o Autom&#225;tica?</text><text fill="#000000" font-family="Arial" font-size="9" lengthAdjust="spacing" textLength="20.0171" x="498.373" y="1426.3257">[n&#227;o]</text><polygon fill="#FFFFFF" points="431.3438,1582.231,443.3438,1594.231,431.3438,1606.231,419.3438,1594.231,431.3438,1582.231" style="stroke:#333333;stroke-width:0.5;"/><polygon fill="#FFFFFF" points="416.8857,260.2446,445.8018,260.2446,457.8018,272.2446,445.8018,284.2446,416.8857,284.2446,404.8857,272.2446,416.8857,260.2446" style="stroke:#333333;stroke-width:0.5;"/><text fill="#000000" font-family="Arial" font-size="9" lengthAdjust="spacing" textLength="18.9976" x="435.3438" y="292.6865">[sim]</text><text fill="#000000" font-family="Arial" font-size="10" lengthAdjust="spacing" textLength="28.916" x="416.8857" y="275.875">Pago?</text><text fill="#000000" font-family="Arial" font-size="9" lengthAdjust="spacing" textLength="20.0171" x="457.8018" y="270.3374">[n&#227;o]</text><ellipse cx="499.8188" cy="272.2446" fill="none" rx="11" ry="11" style="stroke:#222222;stroke-width:1.0;"/><ellipse cx="499.8188" cy="272.2446" fill="#222222" rx="6" ry="6" style="stroke:#222222;stroke-width:1.0;"/><ellipse cx="431.3438" cy="1637.231" fill="none" rx="11" ry="11" style="stroke:#222222;stroke-width:1.0;"/><ellipse cx="431.3438" cy="1637.231" fill="#222222" rx="6" ry="6" style="stroke:#222222;stroke-width:1.0;"/><line style="stroke:#333333;stroke-width:1.5;" x1="325.1025" x2="325.1025" y1="48.0986" y2="1648.231"/><rect fill="#FFFFFF" height="31.499" rx="12.5" ry="12.5" style="stroke:#333333;stroke-width:0.5;" width="134.4824" x="555.2993" y="625.2407"/><text fill="#000000" font-family="Arial" font-size="10" lengthAdjust="spacing" textLength="114.4824" x="565.2993" y="644.6206">Receber NFSe por E-mail</text><line style="stroke:#333333;stroke-width:1.5;" x1="549.2993" x2="549.2993" y1="48.0986" y2="1648.231"/><rect fill="#FFFFFF" height="31.499" rx="12.5" ry="12.5" style="stroke:#333333;stroke-width:0.5;" width="91.7139" x="699.7817" y="1320.7339"/><text fill="#000000" font-family="Arial" font-size="10" lengthAdjust="spacing" textLength="71.7139" x="709.7817" y="1340.1138">Financeiro paga</text><line style="stroke:#333333;stroke-width:1.5;" x1="693.7817" x2="693.7817" y1="48.0986" y2="1648.231"/><line style="stroke:#333333;stroke-width:1.5;" x1="795.4956" x2="795.4956" y1="48.0986" y2="1648.231"/><line style="stroke:#333333;stroke-width:1.0;" x1="84.6353" x2="84.6353" y1="85.7476" y2="105.7476"/><polygon fill="#333333" points="80.6353,95.7476,84.6353,105.7476,88.6353,95.7476,84.6353,99.7476" style="stroke:#333333;stroke-width:1.0;"/><line style="stroke:#333333;stroke-width:1.0;" x1="84.6353" x2="84.6353" y1="137.2466" y2="157.2466"/><polygon fill="#333333" points="80.6353,147.2466,84.6353,157.2466,88.6353,147.2466,84.6353,151.2466" style="stroke:#333333;stroke-width:1.0;"/><line style="stroke:#333333;stroke-width:1.0;" x1="431.3438" x2="431.3438" y1="487.2427" y2="507.2427"/><polygon fill="#333333" points="427.3438,497.2427,431.3438,507.2427,435.3438,497.2427,431.3438,501.2427" style="stroke:#333333;stroke-width:1.0;"/><line style="stroke:#333333;stroke-width:1.0;" x1="431.3438" x2="431.3438" y1="538.7417" y2="573.7417"/><polygon fill="#333333" points="427.3438,563.7417,431.3438,573.7417,435.3438,563.7417,431.3438,567.7417" style="stroke:#333333;stroke-width:1.0;"/><line style="stroke:#333333;stroke-width:1.0;" x1="431.3438" x2="431.3438" y1="431.7437" y2="455.7437"/><polygon fill="#333333" points="427.3438,445.7437,431.3438,455.7437,435.3438,445.7437,431.3438,449.7437" style="stroke:#333333;stroke-width:1.0;"/><line style="stroke:#333333;stroke-width:1.0;" x1="387.9399" x2="354.1025" y1="419.7437" y2="419.7437"/><polygon fill="#333333" points="350.1025,546.2417,354.1025,556.2417,358.1025,546.2417,354.1025,550.2417" style="stroke:#333333;stroke-width:1.0;"/><line style="stroke:#333333;stroke-width:1.0;" x1="354.1025" x2="354.1025" y1="419.7437" y2="688.7397"/><line style="stroke:#333333;stroke-width:1.0;" x1="354.1025" x2="419.3438" y1="688.7397" y2="688.7397"/><polygon fill="#333333" points="409.3438,684.7397,419.3438,688.7397,409.3438,692.7397,413.3438,688.7397" style="stroke:#333333;stroke-width:1.0;"/><line style="stroke:#333333;stroke-width:1.0;" x1="431.3438" x2="431.3438" y1="383.7437" y2="407.7437"/><polygon fill="#333333" points="427.3438,397.7437,431.3438,407.7437,435.3438,397.7437,431.3438,401.7437" style="stroke:#333333;stroke-width:1.0;"/><line style="stroke:#333333;stroke-width:1.0;" x1="376.2725" x2="344.1025" y1="371.7437" y2="371.7437"/><polygon fill="#333333" points="340.1025,546.2417,344.1025,556.2417,348.1025,546.2417,344.1025,550.2417" style="stroke:#333333;stroke-width:1.0;"/><line style="stroke:#333333;stroke-width:1.0;" x1="344.1025" x2="344.1025" y1="371.7437" y2="732.7397"/><line style="stroke:#333333;stroke-width:1.0;" x1="344.1025" x2="419.3438" y1="732.7397" y2="732.7397"/><polygon fill="#333333" points="409.3438,728.7397,419.3438,732.7397,409.3438,736.7397,413.3438,732.7397" style="stroke:#333333;stroke-width:1.0;"/><line style="stroke:#333333;stroke-width:1.0;" x1="431.3438" x2="431.3438" y1="700.7397" y2="720.7397"/><polygon fill="#333333" points="427.3438,710.7397,431.3438,720.7397,435.3438,710.7397,431.3438,714.7397" style="stroke:#333333;stroke-width:1.0;"/><line style="stroke:#333333;stroke-width:1.0;" x1="431.3438" x2="431.3438" y1="339.7437" y2="359.7437"/><polygon fill="#333333" points="427.3438,349.7437,431.3438,359.7437,435.3438,349.7437,431.3438,353.7437" style="stroke:#333333;stroke-width:1.0;"/><line style="stroke:#333333;stroke-width:1.0;" x1="431.3438" x2="431.3438" y1="892.2388" y2="912.2388"/><polygon fill="#333333" points="427.3438,902.2388,431.3438,912.2388,435.3438,902.2388,431.3438,906.2388" style="stroke:#333333;stroke-width:1.0;"/><line style="stroke:#333333;stroke-width:1.0;" x1="431.3438" x2="431.3438" y1="943.7378" y2="978.7378"/><polygon fill="#333333" points="427.3438,968.7378,431.3438,978.7378,435.3438,968.7378,431.3438,972.7378" style="stroke:#333333;stroke-width:1.0;"/><line style="stroke:#333333;stroke-width:1.0;" x1="431.3438" x2="431.3438" y1="1010.2368" y2="1030.2368"/><polygon fill="#333333" points="427.3438,1020.2368,431.3438,1030.2368,435.3438,1020.2368,431.3438,1024.2368" style="stroke:#333333;stroke-width:1.0;"/><line style="stroke:#333333;stroke-width:1.0;" x1="431.3438" x2="431.3438" y1="836.7397" y2="860.7397"/><polygon fill="#333333" points="427.3438,850.7397,431.3438,860.7397,435.3438,850.7397,431.3438,854.7397" style="stroke:#333333;stroke-width:1.0;"/><line style="stroke:#333333;stroke-width:1.0;" x1="476.6885" x2="508.2993" y1="824.7397" y2="824.7397"/><polygon fill="#333333" points="504.2993,951.2378,508.2993,961.2378,512.2993,951.2378,508.2993,955.2378" style="stroke:#333333;stroke-width:1.0;"/><line style="stroke:#333333;stroke-width:1.0;" x1="508.2993" x2="508.2993" y1="824.7397" y2="1093.7358"/><line style="stroke:#333333;stroke-width:1.0;" x1="508.2993" x2="443.3438" y1="1093.7358" y2="1093.7358"/><polygon fill="#333333" points="453.3438,1089.7358,443.3438,1093.7358,453.3438,1097.7358,449.3438,1093.7358" style="stroke:#333333;stroke-width:1.0;"/><line style="stroke:#333333;stroke-width:1.0;" x1="431.3438" x2="431.3438" y1="1061.7358" y2="1081.7358"/><polygon fill="#333333" points="427.3438,1071.7358,431.3438,1081.7358,435.3438,1071.7358,431.3438,1075.7358" style="stroke:#333333;stroke-width:1.0;"/><line style="stroke:#333333;stroke-width:1.0;" x1="431.3438" x2="431.3438" y1="788.7397" y2="812.7397"/><polygon fill="#333333" points="427.3438,802.7397,431.3438,812.7397,435.3438,802.7397,431.3438,806.7397" style="stroke:#333333;stroke-width:1.0;"/><line style="stroke:#333333;stroke-width:1.0;" x1="487.2549" x2="530.2993" y1="776.7397" y2="776.7397"/><polygon fill="#333333" points="526.2993,951.2378,530.2993,961.2378,534.2993,951.2378,530.2993,955.2378" style="stroke:#333333;stroke-width:1.0;"/><line style="stroke:#333333;stroke-width:1.0;" x1="530.2993" x2="530.2993" y1="776.7397" y2="1137.7358"/><line style="stroke:#333333;stroke-width:1.0;" x1="530.2993" x2="443.3438" y1="1137.7358" y2="1137.7358"/><polygon fill="#333333" points="453.3438,1133.7358,443.3438,1137.7358,453.3438,1141.7358,449.3438,1137.7358" style="stroke:#333333;stroke-width:1.0;"/><line style="stroke:#333333;stroke-width:1.0;" x1="431.3438" x2="431.3438" y1="1105.7358" y2="1125.7358"/><polygon fill="#333333" points="427.3438,1115.7358,431.3438,1125.7358,435.3438,1115.7358,431.3438,1119.7358" style="stroke:#333333;stroke-width:1.0;"/><line style="stroke:#333333;stroke-width:1.0;" x1="431.3438" x2="431.3438" y1="744.7397" y2="764.7397"/><polygon fill="#333333" points="427.3438,754.7397,431.3438,764.7397,435.3438,754.7397,431.3438,758.7397" style="stroke:#333333;stroke-width:1.0;"/><line style="stroke:#333333;stroke-width:1.0;" x1="431.3438" x2="431.3438" y1="1249.2349" y2="1269.2349"/><polygon fill="#333333" points="427.3438,1259.2349,431.3438,1269.2349,435.3438,1259.2349,431.3438,1263.2349" style="stroke:#333333;stroke-width:1.0;"/><line style="stroke:#333333;stroke-width:1.0;" x1="431.3438" x2="431.3438" y1="1193.7358" y2="1217.7358"/><polygon fill="#333333" points="427.3438,1207.7358,431.3438,1217.7358,435.3438,1207.7358,431.3438,1211.7358" style="stroke:#333333;stroke-width:1.0;"/><line style="stroke:#333333;stroke-width:1.0;" x1="378.4917" x2="364.6543" y1="1181.7358" y2="1181.7358"/><polygon fill="#333333" points="360.6543,1274.9844,364.6543,1284.9844,368.6543,1274.9844,364.6543,1278.9844" style="stroke:#333333;stroke-width:1.0;"/><line style="stroke:#333333;stroke-width:1.0;" x1="364.6543" x2="364.6543" y1="1181.7358" y2="1384.2329"/><line style="stroke:#333333;stroke-width:1.0;" x1="364.6543" x2="419.3438" y1="1384.2329" y2="1384.2329"/><polygon fill="#333333" points="409.3438,1380.2329,419.3438,1384.2329,409.3438,1388.2329,413.3438,1384.2329" style="stroke:#333333;stroke-width:1.0;"/><line style="stroke:#333333;stroke-width:1.0;" x1="431.3438" x2="431.3438" y1="1149.7358" y2="1169.7358"/><polygon fill="#333333" points="427.3438,1159.7358,431.3438,1169.7358,435.3438,1159.7358,431.3438,1163.7358" style="stroke:#333333;stroke-width:1.0;"/><line style="stroke:#333333;stroke-width:1.0;" x1="431.3438" x2="431.3438" y1="1495.7319" y2="1530.7319"/><polygon fill="#333333" points="427.3438,1520.7319,431.3438,1530.7319,435.3438,1520.7319,431.3438,1524.7319" style="stroke:#333333;stroke-width:1.0;"/><line style="stroke:#333333;stroke-width:1.0;" x1="431.3438" x2="431.3438" y1="1440.2329" y2="1464.2329"/><polygon fill="#333333" points="427.3438,1454.2329,431.3438,1464.2329,435.3438,1454.2329,431.3438,1458.2329" style="stroke:#333333;stroke-width:1.0;"/><line style="stroke:#333333;stroke-width:1.0;" x1="498.373" x2="510.373" y1="1428.2329" y2="1428.2329"/><polygon fill="#333333" points="506.373,1503.2319,510.373,1513.2319,514.373,1503.2319,510.373,1507.2319" style="stroke:#333333;stroke-width:1.0;"/><line style="stroke:#333333;stroke-width:1.0;" x1="510.373" x2="510.373" y1="1428.2329" y2="1594.231"/><line style="stroke:#333333;stroke-width:1.0;" x1="510.373" x2="443.3438" y1="1594.231" y2="1594.231"/><polygon fill="#333333" points="453.3438,1590.231,443.3438,1594.231,453.3438,1598.231,449.3438,1594.231" style="stroke:#333333;stroke-width:1.0;"/><line style="stroke:#333333;stroke-width:1.0;" x1="431.3438" x2="431.3438" y1="1562.231" y2="1582.231"/><polygon fill="#333333" points="427.3438,1572.231,431.3438,1582.231,435.3438,1572.231,431.3438,1576.231" style="stroke:#333333;stroke-width:1.0;"/><line style="stroke:#333333;stroke-width:1.0;" x1="431.3438" x2="431.3438" y1="1396.2329" y2="1416.2329"/><polygon fill="#333333" points="427.3438,1406.2329,431.3438,1416.2329,435.3438,1406.2329,431.3438,1410.2329" style="stroke:#333333;stroke-width:1.0;"/><line style="stroke:#333333;stroke-width:1.0;" x1="431.3438" x2="431.3438" y1="284.2446" y2="308.2446"/><polygon fill="#333333" points="427.3438,298.2446,431.3438,308.2446,435.3438,298.2446,431.3438,302.2446" style="stroke:#333333;stroke-width:1.0;"/><line style="stroke:#333333;stroke-width:1.0;" x1="457.8018" x2="488.8188" y1="272.2446" y2="272.2446"/><polygon fill="#333333" points="478.8188,268.2446,488.8188,272.2446,478.8188,276.2446,482.8188,272.2446" style="stroke:#333333;stroke-width:1.0;"/><line style="stroke:#333333;stroke-width:1.0;" x1="431.3438" x2="431.3438" y1="1606.231" y2="1626.231"/><polygon fill="#333333" points="427.3438,1616.231,431.3438,1626.231,435.3438,1616.231,431.3438,1620.231" style="stroke:#333333;stroke-width:1.0;"/><line style="stroke:#333333;stroke-width:1.0;" x1="84.6353" x2="84.6353" y1="188.7456" y2="193.7456"/><line style="stroke:#333333;stroke-width:1.0;" x1="84.6353" x2="239.6865" y1="193.7456" y2="193.7456"/><line style="stroke:#333333;stroke-width:1.0;" x1="239.6865" x2="239.6865" y1="193.7456" y2="208.7456"/><polygon fill="#333333" points="235.6865,198.7456,239.6865,208.7456,243.6865,198.7456,239.6865,202.7456" style="stroke:#333333;stroke-width:1.0;"/><line style="stroke:#333333;stroke-width:1.0;" x1="431.3438" x2="431.3438" y1="605.2407" y2="610.2407"/><line style="stroke:#333333;stroke-width:1.0;" x1="431.3438" x2="622.5405" y1="610.2407" y2="610.2407"/><line style="stroke:#333333;stroke-width:1.0;" x1="622.5405" x2="622.5405" y1="610.2407" y2="625.2407"/><polygon fill="#333333" points="618.5405,615.2407,622.5405,625.2407,626.5405,615.2407,622.5405,619.2407" style="stroke:#333333;stroke-width:1.0;"/><line style="stroke:#333333;stroke-width:1.0;" x1="622.5405" x2="622.5405" y1="656.7397" y2="664.7397"/><line style="stroke:#333333;stroke-width:1.0;" x1="622.5405" x2="431.3438" y1="664.7397" y2="664.7397"/><line style="stroke:#333333;stroke-width:1.0;" x1="431.3438" x2="431.3438" y1="664.7397" y2="676.7397"/><polygon fill="#333333" points="427.3438,666.7397,431.3438,676.7397,435.3438,666.7397,431.3438,670.7397" style="stroke:#333333;stroke-width:1.0;"/><line style="stroke:#333333;stroke-width:1.0;" x1="431.3438" x2="431.3438" y1="1300.7339" y2="1305.7339"/><line style="stroke:#333333;stroke-width:1.0;" x1="431.3438" x2="745.6387" y1="1305.7339" y2="1305.7339"/><line style="stroke:#333333;stroke-width:1.0;" x1="745.6387" x2="745.6387" y1="1305.7339" y2="1320.7339"/><polygon fill="#333333" points="741.6387,1310.7339,745.6387,1320.7339,749.6387,1310.7339,745.6387,1314.7339" style="stroke:#333333;stroke-width:1.0;"/><line style="stroke:#333333;stroke-width:1.0;" x1="745.6387" x2="745.6387" y1="1352.2329" y2="1360.2329"/><line style="stroke:#333333;stroke-width:1.0;" x1="745.6387" x2="431.3438" y1="1360.2329" y2="1360.2329"/><line style="stroke:#333333;stroke-width:1.0;" x1="431.3438" x2="431.3438" y1="1360.2329" y2="1372.2329"/><polygon fill="#333333" points="427.3438,1362.2329,431.3438,1372.2329,435.3438,1362.2329,431.3438,1366.2329" style="stroke:#333333;stroke-width:1.0;"/><line style="stroke:#333333;stroke-width:1.0;" x1="239.6865" x2="239.6865" y1="240.2446" y2="245.2446"/><line style="stroke:#333333;stroke-width:1.0;" x1="239.6865" x2="431.3438" y1="245.2446" y2="245.2446"/><line style="stroke:#333333;stroke-width:1.0;" x1="431.3438" x2="431.3438" y1="245.2446" y2="260.2446"/><polygon fill="#333333" points="427.3438,250.2446,431.3438,260.2446,435.3438,250.2446,431.3438,254.2446" style="stroke:#333333;stroke-width:1.0;"/><text fill="#000000" font-family="Arial" font-size="11" lengthAdjust="spacing" textLength="53.1953" x="57.0376" y="58.4165">Veterin&#225;rio</text><text fill="#000000" font-family="Arial" font-size="11" lengthAdjust="spacing" textLength="103.936" x="186.7185" y="58.4165">Tutor / Recepcionista</text><text fill="#000000" font-family="Arial" font-size="11" lengthAdjust="spacing" textLength="39.7354" x="417.3333" y="58.4165">Sistema</text><text fill="#000000" font-family="Arial" font-size="11" lengthAdjust="spacing" textLength="25.6738" x="608.7036" y="58.4165">Tutor</text><text fill="#000000" font-family="Arial" font-size="11" lengthAdjust="spacing" textLength="51.3584" x="718.9595" y="58.4165">Financeiro</text><!--SRC=[dLDDQzj04BtlhvZUPDfKf_OW7OfhMyNG156R4YYbRAInCx0VwkxAbA8_4tB8B-Wlq1_BR6J7uAZ5z2B1p7jltxoTVKMcKcsDyAEoMblpjccr4Y9GK0Y5QdzPu6OXG-kaHXFi6xWgLXY_imi4X9dLv7t_1xqGtLSCwCZqTuvi9toGBeXi8CCdTBAMkSYcDLLaZNIm36XykaAte_x1-fmLrcsm3bBuWXKs4KQiqecib5ic97CojqZEfZEMxkzjMYwlqyjo4gahXg9cC6qWORpzC85mYmQIRuQXtoS2m0VR25GUkUX9FzMofTbPgh2KL4E2kpWb2m94dJNgmIOSR8wedWWEp1WJfsCsj1sXZ93OoK9J8FUKS7webSvMwBqyAQ-asd7j-l8pl8PoNXmQGuBT0HPplC612mr7kxZGajI0HbFJHXp_nmXFXsSJDUkUFtjSZlyTFd8JRMjK5jw_cumcmPZnAERJgsBnt9fZtVvcqGLV_CyMpnjxlzBtzkyJlF2VpQIgMiKsdjdvli7lYWkyoj344yrsQ7G56McgkCt3RMN70ZIyxla_BPgA5Cd-8TgSyjNe_YvG9S_okdRI-3tt8nyPtwlSs-M56RInFXeOlYA-daS0]--></g></svg>