<?xml version="1.0" encoding="UTF-8"?>
<svg xmlns="http://www.w3.org/2000/svg" width="1677" height="785" viewBox="-76 -30 1677 785">
<defs><marker id="arrowhead" markerWidth="8" markerHeight="6" refX="8" refY="3" orient="auto"><polygon points="0 0, 8 3, 0 6" fill="#000"/></marker></defs>
<switch><g transform="translate(0.5,0.5)">



















<rect x="10" y="5" width="1280" height="28" rx="4" ry="4" fill="#fff" stroke="#000" stroke-width="1.5"/><text x="650.0" y="19.0" text-anchor="middle" dominant-baseline="central" fill="#000" font-size="10" font-family="Arial">Fluxo de Faturamento, NFSe e Comissões</text>
<rect x="30" y="70" width="1270" height="80" fill="#fff" stroke="#000" stroke-width="1.5"/><rect x="30" y="70" width="18" height="80" fill="#fff" stroke="#000" stroke-width="1"/><text x="39" y="110.0" text-anchor="middle" dominant-baseline="central" fill="#000" font-size="9" font-family="Arial" transform="rotate(-90,39,110.0)">Veterinário</text>
<rect x="30" y="150" width="1270" height="80" fill="#fff" stroke="#000" stroke-width="1.5"/><rect x="30" y="150" width="18" height="80" fill="#fff" stroke="#000" stroke-width="1"/><text x="39" y="190.0" text-anchor="middle" dominant-baseline="central" fill="#000" font-size="9" font-family="Arial" transform="rotate(-90,39,190.0)">Financeiro</text>
<rect x="30" y="230" width="1270" height="80" fill="#fff" stroke="#000" stroke-width="1.5"/><rect x="30" y="230" width="18" height="80" fill="#fff" stroke="#000" stroke-width="1"/><text x="39" y="270.0" text-anchor="middle" dominant-baseline="central" fill="#000" font-size="9" font-family="Arial" transform="rotate(-90,39,270.0)">Sistema</text>
<rect x="0" y="40" width="1300" height="280" rx="6" ry="6" fill="none" stroke="#000" stroke-width="2"/><rect x="0" y="40" width="28" height="280" fill="#e1d5e7" stroke="#000" stroke-width="2"/><text x="14" y="180.0" text-anchor="middle" dominant-baseline="central" fill="#000" font-size="11" font-family="Arial" transform="rotate(-90,14,180.0)">Clínica</text>
<rect x="30" y="365" width="1270" height="80" fill="#fff" stroke="#000" stroke-width="1.5"/><rect x="30" y="365" width="18" height="80" fill="#fff" stroke="#000" stroke-width="1"/><text x="39" y="405.0" text-anchor="middle" dominant-baseline="central" fill="#000" font-size="9" font-family="Arial" transform="rotate(-90,39,405.0)">Tutor</text>
<rect x="0" y="335" width="1300" height="120" rx="6" ry="6" fill="none" stroke="#000" stroke-width="2"/><rect x="0" y="335" width="28" height="120" fill="#e1d5e7" stroke="#000" stroke-width="2"/><text x="14" y="395.0" text-anchor="middle" dominant-baseline="central" fill="#000" font-size="11" font-family="Arial" transform="rotate(-90,14,395.0)">Tutor</text>
<rect x="30" y="500" width="1270" height="80" fill="#fff" stroke="#000" stroke-width="1.5"/><rect x="30" y="500" width="18" height="80" fill="#fff" stroke="#000" stroke-width="1"/><text x="39" y="540.0" text-anchor="middle" dominant-baseline="central" fill="#000" font-size="9" font-family="Arial" transform="rotate(-90,39,540.0)">Webmania</text>
<rect x="0" y="470" width="1300" height="120" rx="6" ry="6" fill="none" stroke="#000" stroke-width="2"/><rect x="0" y="470" width="28" height="120" fill="#e1d5e7" stroke="#000" stroke-width="2"/><text x="14" y="530.0" text-anchor="middle" dominant-baseline="central" fill="#000" font-size="11" font-family="Arial" transform="rotate(-90,14,530.0)">Webmania®</text>
<rect x="30" y="635" width="1270" height="80" fill="#fff" stroke="#000" stroke-width="1.5"/><rect x="30" y="635" width="18" height="80" fill="#fff" stroke="#000" stroke-width="1"/><text x="39" y="675.0" text-anchor="middle" dominant-baseline="central" fill="#000" font-size="9" font-family="Arial" transform="rotate(-90,39,675.0)">Banco</text>
<rect x="0" y="605" width="1300" height="120" rx="6" ry="6" fill="none" stroke="#000" stroke-width="2"/><rect x="0" y="605" width="28" height="120" fill="#e1d5e7" stroke="#000" stroke-width="2"/><text x="14" y="665.0" text-anchor="middle" dominant-baseline="central" fill="#000" font-size="11" font-family="Arial" transform="rotate(-90,14,665.0)">Banco</text>
<ellipse cx="65" cy="190.0" rx="11.0" ry="11.0" fill="#d5e8d4" stroke="#82b366" stroke-width="2"/><text x="65" y="213.0" text-anchor="middle" fill="#000" font-size="9" font-family="Arial">Fatura
Gerada</text>
<rect x="200" y="167.0" width="140" height="46" rx="4" ry="4" fill="#fff" stroke="#000" stroke-width="1.5"/><text x="270.0" y="190.0" text-anchor="middle" dominant-baseline="central" fill="#000" font-size="10" font-family="Arial">Adicionar
Itens/Serviços</text>
<rect x="200" y="382.0" width="140" height="46" rx="4" ry="4" fill="#fff" stroke="#000" stroke-width="1.5"/><text x="270.0" y="405.0" text-anchor="middle" dominant-baseline="central" fill="#000" font-size="10" font-family="Arial">Pagar
(Dinheiro/Cartão/PIX)</text>
<polygon points="427.0,163.0 454,190.0 427.0,217.0 400,190.0" fill="#ffe6cc" stroke="#d79b00" stroke-width="2"/><text x="427.0" y="190.0" text-anchor="middle" dominant-baseline="central" fill="#000" font-size="18" font-family="Arial">✕</text>
<ellipse cx="591.0" cy="270.0" rx="11.0" ry="11.0" fill="#fff" stroke="#000" stroke-width="2"/><ellipse cx="591.0" cy="270.0" rx="7.0" ry="7.0" fill="none" stroke="#000" stroke-width="1" stroke-dasharray="2,2"/><text x="591.0" y="293.0" text-anchor="middle" fill="#000" font-size="9" font-family="Arial">InvoicePaid
(evento)</text>
<polygon points="777.0,243.0 804,270.0 777.0,297.0 750,270.0" fill="#dae8fc" stroke="#6c8ebf" stroke-width="2"/><text x="777.0" y="270.0" text-anchor="middle" dominant-baseline="central" fill="#000" font-size="18" font-family="Arial">+</text>
<polygon points="927.0,163.0 954,190.0 927.0,217.0 900,190.0" fill="#ffe6cc" stroke="#d79b00" stroke-width="2"/><text x="927.0" y="190.0" text-anchor="middle" dominant-baseline="central" fill="#000" font-size="18" font-family="Arial">✕</text>
<rect x="1050" y="167.0" width="140" height="46" rx="4" ry="4" fill="#fff" stroke="#000" stroke-width="1.5"/><text x="1120.0" y="190.0" text-anchor="middle" dominant-baseline="central" fill="#000" font-size="10" font-family="Arial">Emitir NFSe</text>
<rect x="1050" y="517.0" width="140" height="46" rx="4" ry="4" fill="#fff" stroke="#000" stroke-width="1.5"/><text x="1120.0" y="540.0" text-anchor="middle" dominant-baseline="central" fill="#000" font-size="10" font-family="Arial">Processar
NFSe</text>
<rect x="1050" y="247.0" width="140" height="46" rx="4" ry="4" fill="#fff" stroke="#000" stroke-width="1.5"/><text x="1120.0" y="270.0" text-anchor="middle" dominant-baseline="central" fill="#000" font-size="10" font-family="Arial">Salvar XML
+ PDF</text>
<rect x="1230" y="382.0" width="140" height="46" rx="4" ry="4" fill="#fff" stroke="#000" stroke-width="1.5"/><text x="1300.0" y="405.0" text-anchor="middle" dominant-baseline="central" fill="#000" font-size="10" font-family="Arial">Receber NFSe
por E-mail</text>
<polygon points="927.0,163.0 954,190.0 927.0,217.0 900,190.0" fill="#ffe6cc" stroke="#d79b00" stroke-width="2"/><text x="927.0" y="190.0" text-anchor="middle" dominant-baseline="central" fill="#000" font-size="18" font-family="Arial">✕</text>
<rect x="1050" y="223.0" width="140" height="46" rx="4" ry="4" fill="#fff" stroke="#000" stroke-width="1.5"/><text x="1120.0" y="246.0" text-anchor="middle" dominant-baseline="central" fill="#000" font-size="10" font-family="Arial">Calcular
Comissão</text>
<rect x="1230" y="167.0" width="140" height="46" rx="4" ry="4" fill="#fff" stroke="#000" stroke-width="1.5"/><text x="1300.0" y="190.0" text-anchor="middle" dominant-baseline="central" fill="#000" font-size="10" font-family="Arial">Commission
pending</text>
<rect x="1380" y="167.0" width="140" height="46" rx="4" ry="4" fill="#fff" stroke="#000" stroke-width="1.5"/><text x="1450.0" y="190.0" text-anchor="middle" dominant-baseline="central" fill="#000" font-size="10" font-family="Arial">Financeiro
paga</text>
<polygon points="927.0,163.0 954,190.0 927.0,217.0 900,190.0" fill="#ffe6cc" stroke="#d79b00" stroke-width="2"/><text x="927.0" y="190.0" text-anchor="middle" dominant-baseline="central" fill="#000" font-size="18" font-family="Arial">✕</text>
<rect x="1050" y="652.0" width="140" height="46" rx="4" ry="4" fill="#fff" stroke="#000" stroke-width="1.5"/><text x="1120.0" y="675.0" text-anchor="middle" dominant-baseline="central" fill="#000" font-size="10" font-family="Arial">Transação
Bancária</text>
<rect x="1050" y="303.0" width="140" height="46" rx="4" ry="4" fill="#fff" stroke="#000" stroke-width="1.5"/><text x="1120.0" y="326.0" text-anchor="middle" dominant-baseline="central" fill="#000" font-size="10" font-family="Arial">Reconcilied</text>
<ellipse cx="1511.0" cy="190.0" rx="11.0" ry="11.0" fill="#f8cecc" stroke="#b85450" stroke-width="2"/><ellipse cx="1511.0" cy="190.0" rx="7.0" ry="7.0" fill="none" stroke="#b85450" stroke-width="2"/><text x="1511.0" y="213.0" text-anchor="middle" fill="#000" font-size="9" font-family="Arial">Fim</text>
<path d="M 76 190 L 131 190 L 131 190 L 200 190" fill="none" stroke="#000" stroke-width="1.5" marker-end="url(#arrowhead)"/>
<path d="M 270 213 L 267 270" fill="none" stroke="#000" stroke-width="1.5" marker-end="url(#arrowhead)"/>
<path d="M 267 324 L 270 382" fill="none" stroke="#000" stroke-width="1.5" marker-end="url(#arrowhead)"/>
<path d="M 270 382 L 270 299.5 L 427 299.5 L 427 217" fill="none" stroke="#000" stroke-width="1.5" marker-end="url(#arrowhead)"/>
<path d="M 454 190 L 517 190 L 517 270 L 580 270" fill="none" stroke="#000" stroke-width="1.5" marker-end="url(#arrowhead)"/>
<path d="M 602 270 L 676 270 L 676 270 L 750 270" fill="none" stroke="#000" stroke-width="1.5" marker-end="url(#arrowhead)"/>
<path d="M 804 270 L 852 270 L 852 190 L 900 190" fill="none" stroke="#000" stroke-width="1.5" marker-end="url(#arrowhead)"/>
<path d="M 954 190 L 1002 190 L 1002 190 L 1050 190" fill="none" stroke="#000" stroke-width="1.5" marker-end="url(#arrowhead)"/>
<path d="M 1120 269 L 1120 365 L 1120 365 L 1120 517" fill="none" stroke="#000" stroke-width="1.5" marker-end="url(#arrowhead)"/>
<path d="M 1120 517 L 1120 405 L 1120 405 L 1120 349" fill="none" stroke="#000" stroke-width="1.5" marker-end="url(#arrowhead)"/>
<path d="M 1190 270 L 1210 270 L 1210 405 L 1230 405" fill="none" stroke="#000" stroke-width="1.5" stroke-dasharray="5,5" marker-end="url(#arrowhead)"/>
<path d="M 804 270 L 852 270 L 852 190 L 900 190" fill="none" stroke="#000" stroke-width="1.5" marker-end="url(#arrowhead)"/>
<path d="M 954 190 L 1002 190 L 1002 190 L 1050 190" fill="none" stroke="#000" stroke-width="1.5" marker-end="url(#arrowhead)"/>
<path d="M 1190 190 L 1210 190 L 1210 190 L 1230 190" fill="none" stroke="#000" stroke-width="1.5" marker-end="url(#arrowhead)"/>
<path d="M 1370 190 L 1375 190 L 1375 190 L 1380 190" fill="none" stroke="#000" stroke-width="1.5" marker-end="url(#arrowhead)"/>
<path d="M 804 270 L 852 270 L 852 190 L 900 190" fill="none" stroke="#000" stroke-width="1.5" marker-end="url(#arrowhead)"/>
<path d="M 927 217 L 927 434.5 L 1120 434.5 L 1120 652" fill="none" stroke="#000" stroke-width="1.5" marker-end="url(#arrowhead)"/>
<path d="M 1120 652 L 1120 472.5 L 1120 472.5 L 1120 349" fill="none" stroke="#000" stroke-width="1.5" marker-end="url(#arrowhead)"/>
<path d="M 1190 190 L 1345 190 L 1345 190 L 1500 190" fill="none" stroke="#000" stroke-width="1.5" marker-end="url(#arrowhead)"/>
<path d="M 1520 190 L 1510 190 L 1510 190 L 1500 190" fill="none" stroke="#000" stroke-width="1.5" marker-end="url(#arrowhead)"/>
<path d="M 1190 270 L 1345 270 L 1345 190 L 1500 190" fill="none" stroke="#000" stroke-width="1.5" marker-end="url(#arrowhead)"/>
<!-- 3 origens da fatura -->
<rect x="0" y="80" width="100" height="36" rx="4" ry="4" fill="#d5e8d4" stroke="#82b366" stroke-width="1.5"/><text x="50.0" y="98.0" text-anchor="middle" dominant-baseline="central" fill="#000" font-size="8" font-family="Arial">Auto-faturamento</text>
<path d="M 50 116 L 50 150 L 65 150 L 65 179" fill="none" stroke="#000" stroke-width="1.5" stroke-dasharray="3,3" marker-end="url(#arrowhead)"/>
<rect x="0" y="150" width="100" height="36" rx="4" ry="4" fill="#ffe6cc" stroke="#d79b00" stroke-width="1.5"/><text x="50.0" y="168.0" text-anchor="middle" dominant-baseline="central" fill="#000" font-size="8" font-family="Arial">Financeiro Manual</text>
<path d="M 100 168 L 65 168 L 65 179" fill="none" stroke="#000" stroke-width="1.5" stroke-dasharray="3,3" marker-end="url(#arrowhead)"/>
<rect x="0" y="260" width="100" height="36" rx="4" ry="4" fill="#d5e8d4" stroke="#82b366" stroke-width="1.5"/><text x="50.0" y="278.0" text-anchor="middle" dominant-baseline="central" fill="#000" font-size="8" font-family="Arial">Prontuário (Fatura)</text>
<path d="M 50 260 L 50 230 L 65 230 L 65 179" fill="none" stroke="#000" stroke-width="1.5" stroke-dasharray="3,3" marker-end="url(#arrowhead)"/>

<!-- Cancelar fatura -->
<polygon points="240.0,297.0 267,270.0 294,297.0 267,324.0" fill="#ffe6cc" stroke="#d79b00" stroke-width="2"/><text x="267.0" y="297.0" text-anchor="middle" dominant-baseline="central" fill="#000" font-size="8" font-family="Arial">Cancelar?</text>
<rect x="350" y="274.0" width="100" height="46" rx="4" ry="4" fill="#fff" stroke="#000" stroke-width="1.5"/><text x="400.0" y="297.0" text-anchor="middle" dominant-baseline="central" fill="#000" font-size="10" font-family="Arial">Fatura
Cancelada</text>
<path d="M 294 297 L 315 297 L 315 297 L 350 297" fill="none" stroke="#000" stroke-width="1.5" marker-end="url(#arrowhead)"/>
<text x="320.0" y="290.0" text-anchor="middle" fill="#000" font-size="8" font-family="Arial">Sim</text>
<ellipse cx="510.0" cy="297.0" rx="11.0" ry="11.0" fill="#f8cecc" stroke="#b85450" stroke-width="2"/><ellipse cx="510.0" cy="297.0" rx="7.0" ry="7.0" fill="none" stroke="#b85450" stroke-width="2"/><text x="510.0" y="320.0" text-anchor="middle" fill="#000" font-size="9" font-family="Arial">Fim</text>
<path d="M 450 297 L 475 297 L 475 297 L 499 297" fill="none" stroke="#000" stroke-width="1.5" marker-end="url(#arrowhead)"/>
<text x="250.0" y="310.0" text-anchor="middle" fill="#000" font-size="8" font-family="Arial">Não</text>

<!-- ServiceTypeMap annotation -->
<rect x="140" y="140" width="90" height="26" rx="2" ry="2" fill="#fff" stroke="#000" stroke-width="1" stroke-dasharray="2,2"/><text x="185.0" y="153.0" text-anchor="middle" fill="#000" font-size="7" font-family="Arial">ServiceTypeMap</text>
<path d="M 185 166 L 185 178 L 200 178" fill="none" stroke="#000" stroke-width="1" stroke-dasharray="2,2" marker-end="url(#arrowhead)"/>
</g>
<foreignObject width="1300" height="600"><div xmlns="http://www.w3.org/1999/xhtml"><mxfile host="Generator" modified="2026-05-21T07:35:39.400015" agent="BPMN-PHASEX" version="24.0.5" type="device"><diagram id="15-fluxo-fatura.svg" name="Page-1"><mxGraphModel dx="0" dy="0" grid="1" gridSize="10" guides="1" page="0" pageWidth="1300" pageHeight="600" math="0" shadow="0"><root><mxCell id="0"/><mxCell id="1" parent="0"/><mxCell id="c475" value="Fluxo de Faturamento, NFSe e Comissões" style="text;html=1;strokeColor=none;fillColor=none;align=center;fontSize=14;fontStyle=1" vertex="1" parent="1"><mxGeometry x="10" y="5" width="1280" height="28" as="geometry"/></mxCell><mxCell id="c476" value="Veterinário" style="swimlane;startSize=18;fillColor=#d5e8d4;strokeColor=#000;horizontal=1;" vertex="1" parent="1"><mxGeometry x="30" y="70" width="1270" height="80" as="geometry"/></mxCell><mxCell id="c477" value="Financeiro" style="swimlane;startSize=18;fillColor=#ffe6cc;strokeColor=#000;horizontal=1;" vertex="1" parent="1"><mxGeometry x="30" y="150" width="1270" height="80" as="geometry"/></mxCell><mxCell id="c478" value="Sistema" style="swimlane;startSize=18;fillColor=#f5f5f5;strokeColor=#000;horizontal=1;" vertex="1" parent="1"><mxGeometry x="30" y="230" width="1270" height="80" as="geometry"/></mxCell><mxCell id="c479" value="Clínica" style="swimlane;startSize=0;fillColor=none;strokeColor=#000;" vertex="1" parent="1"><mxGeometry x="0" y="40" width="1300" height="280" as="geometry"/></mxCell><mxCell id="c480" value="Tutor" style="swimlane;startSize=18;fillColor=#e1d5e7;strokeColor=#000;horizontal=1;" vertex="1" parent="1"><mxGeometry x="30" y="365" width="1270" height="80" as="geometry"/></mxCell><mxCell id="c481" value="Tutor" style="swimlane;startSize=0;fillColor=none;strokeColor=#000;" vertex="1" parent="1"><mxGeometry x="0" y="335" width="1300" height="120" as="geometry"/></mxCell><mxCell id="c482" value="Webmania" style="swimlane;startSize=18;fillColor=#ffe6cc;strokeColor=#000;horizontal=1;" vertex="1" parent="1"><mxGeometry x="30" y="500" width="1270" height="80" as="geometry"/></mxCell><mxCell id="c483" value="Webmania®" style="swimlane;startSize=0;fillColor=none;strokeColor=#000;" vertex="1" parent="1"><mxGeometry x="0" y="470" width="1300" height="120" as="geometry"/></mxCell><mxCell id="c484" value="Banco" style="swimlane;startSize=18;fillColor=#ffe6cc;strokeColor=#000;horizontal=1;" vertex="1" parent="1"><mxGeometry x="30" y="635" width="1270" height="80" as="geometry"/></mxCell><mxCell id="c485" value="Banco" style="swimlane;startSize=0;fillColor=none;strokeColor=#000;" vertex="1" parent="1"><mxGeometry x="0" y="605" width="1300" height="120" as="geometry"/></mxCell><mxCell id="c486" value="Fatura
Gerada" style="ellipse;whiteSpace=wrap;html=1;fillColor=#d5e8d4;strokeColor=#82b366;" vertex="1" parent="1"><mxGeometry x="40" y="179.0" width="22" height="22" as="geometry"/></mxCell><mxCell id="c487" value="Adicionar
Itens/Serviços" style="rounded=1;whiteSpace=wrap;html=1;" vertex="1" parent="1"><mxGeometry x="200" y="167.0" width="140" height="46" as="geometry"/></mxCell><mxCell id="c488" value="Pagar
(Dinheiro/Cartão/PIX)" style="rounded=1;whiteSpace=wrap;html=1;" vertex="1" parent="1"><mxGeometry x="200" y="382.0" width="140" height="46" as="geometry"/></mxCell><mxCell id="c489" value="Pago?" style="rhombus;whiteSpace=wrap;html=1;fillColor=#ffe6cc;strokeColor=#d79b00;" vertex="1" parent="1"><mxGeometry x="400" y="163.0" width="54" height="54" as="geometry"/></mxCell><mxCell id="c490" value="InvoicePaid
(evento)" style="rounded=1;whiteSpace=wrap;html=1;" vertex="1" parent="1"><mxGeometry x="580" y="259.0" width="22" height="22" as="geometry"/></mxCell><mxCell id="c491" value="" style="rhombus;whiteSpace=wrap;html=1;fillColor=#dae8fc;strokeColor=#6c8ebf;" vertex="1" parent="1"><mxGeometry x="750" y="243.0" width="54" height="54" as="geometry"/></mxCell><mxCell id="c492" value="NFSe
Config?" style="rhombus;whiteSpace=wrap;html=1;fillColor=#ffe6cc;strokeColor=#d79b00;" vertex="1" parent="1"><mxGeometry x="900" y="163.0" width="54" height="54" as="geometry"/></mxCell><mxCell id="c493" value="Emitir NFSe" style="rounded=1;whiteSpace=wrap;html=1;" vertex="1" parent="1"><mxGeometry x="1050" y="167.0" width="140" height="46" as="geometry"/></mxCell><mxCell id="c494" value="Processar
NFSe" style="rounded=1;whiteSpace=wrap;html=1;" vertex="1" parent="1"><mxGeometry x="1050" y="517.0" width="140" height="46" as="geometry"/></mxCell><mxCell id="c495" value="Salvar XML
+ PDF" style="rounded=1;whiteSpace=wrap;html=1;" vertex="1" parent="1"><mxGeometry x="1050" y="247.0" width="140" height="46" as="geometry"/></mxCell><mxCell id="c496" value="Receber NFSe
por E-mail" style="rounded=1;whiteSpace=wrap;html=1;" vertex="1" parent="1"><mxGeometry x="1230" y="382.0" width="140" height="46" as="geometry"/></mxCell><mxCell id="c497" value="Comissão
Config?" style="rhombus;whiteSpace=wrap;html=1;fillColor=#ffe6cc;strokeColor=#d79b00;" vertex="1" parent="1"><mxGeometry x="900" y="163.0" width="54" height="54" as="geometry"/></mxCell><mxCell id="c498" value="Calcular
Comissão" style="rounded=1;whiteSpace=wrap;html=1;" vertex="1" parent="1"><mxGeometry x="1050" y="223.0" width="140" height="46" as="geometry"/></mxCell><mxCell id="c499" value="Commission
pending" style="rounded=1;whiteSpace=wrap;html=1;" vertex="1" parent="1"><mxGeometry x="1230" y="167.0" width="140" height="46" as="geometry"/></mxCell><mxCell id="c500" value="Financeiro
paga" style="rounded=1;whiteSpace=wrap;html=1;" vertex="1" parent="1"><mxGeometry x="1380" y="167.0" width="140" height="46" as="geometry"/></mxCell><mxCell id="c501" value="Conciliação
Automática?" style="rhombus;whiteSpace=wrap;html=1;fillColor=#ffe6cc;strokeColor=#d79b00;" vertex="1" parent="1"><mxGeometry x="900" y="163.0" width="54" height="54" as="geometry"/></mxCell><mxCell id="c502" value="Transação
Bancária" style="rounded=1;whiteSpace=wrap;html=1;" vertex="1" parent="1"><mxGeometry x="1050" y="652.0" width="140" height="46" as="geometry"/></mxCell><mxCell id="c503" value="Reconcilied" style="rounded=1;whiteSpace=wrap;html=1;" vertex="1" parent="1"><mxGeometry x="1050" y="303.0" width="140" height="46" as="geometry"/></mxCell><mxCell id="c504" value="Fim" style="ellipse;whiteSpace=wrap;html=1;fillColor=#f8cecc;strokeColor=#b85450;" vertex="1" parent="1"><mxGeometry x="1500" y="179.0" width="22" height="22" as="geometry"/></mxCell><mxCell id="c505" edge="1" parent="1" source="c486" target="c487" style="edgeStyle=orthogonalEdgeStyle;rounded=0;html=1;"><mxGeometry relative="1" as="geometry"/></mxCell><mxCell id="c506" edge="1" parent="1" source="c487" target="c488" style="edgeStyle=orthogonalEdgeStyle;rounded=0;html=1;"><mxGeometry relative="1" as="geometry"/></mxCell><mxCell id="c507" edge="1" parent="1" source="c488" target="c489" style="edgeStyle=orthogonalEdgeStyle;rounded=0;html=1;"><mxGeometry relative="1" as="geometry"/></mxCell><mxCell id="c508" edge="1" parent="1" source="c489" target="c490" style="edgeStyle=orthogonalEdgeStyle;rounded=0;html=1;"><mxGeometry relative="1" as="geometry"/></mxCell><mxCell id="c509" edge="1" parent="1" source="c490" target="c491" style="edgeStyle=orthogonalEdgeStyle;rounded=0;html=1;"><mxGeometry relative="1" as="geometry"/></mxCell><mxCell id="c510" edge="1" parent="1" source="c491" target="c492" style="edgeStyle=orthogonalEdgeStyle;rounded=0;html=1;"><mxGeometry relative="1" as="geometry"/></mxCell><mxCell id="c511" edge="1" parent="1" source="c492" target="c493" style="edgeStyle=orthogonalEdgeStyle;rounded=0;html=1;"><mxGeometry relative="1" as="geometry"/></mxCell><mxCell id="c512" edge="1" parent="1" source="c493" target="c494" style="edgeStyle=orthogonalEdgeStyle;rounded=0;html=1;"><mxGeometry relative="1" as="geometry"/></mxCell><mxCell id="c513" edge="1" parent="1" source="c494" target="c495" style="edgeStyle=orthogonalEdgeStyle;rounded=0;html=1;"><mxGeometry relative="1" as="geometry"/></mxCell><mxCell id="c514" edge="1" parent="1" source="c495" target="c496" style="edgeStyle=orthogonalEdgeStyle;rounded=0;html=1;dashed=1;"><mxGeometry relative="1" as="geometry"/></mxCell><mxCell id="c515" edge="1" parent="1" source="c491" target="c497" style="edgeStyle=orthogonalEdgeStyle;rounded=0;html=1;"><mxGeometry relative="1" as="geometry"/></mxCell><mxCell id="c516" edge="1" parent="1" source="c497" target="c498" style="edgeStyle=orthogonalEdgeStyle;rounded=0;html=1;"><mxGeometry relative="1" as="geometry"/></mxCell><mxCell id="c517" edge="1" parent="1" source="c498" target="c499" style="edgeStyle=orthogonalEdgeStyle;rounded=0;html=1;"><mxGeometry relative="1" as="geometry"/></mxCell><mxCell id="c518" edge="1" parent="1" source="c499" target="c500" style="edgeStyle=orthogonalEdgeStyle;rounded=0;html=1;"><mxGeometry relative="1" as="geometry"/></mxCell><mxCell id="c519" edge="1" parent="1" source="c491" target="c501" style="edgeStyle=orthogonalEdgeStyle;rounded=0;html=1;"><mxGeometry relative="1" as="geometry"/></mxCell><mxCell id="c520" edge="1" parent="1" source="c501" target="c502" style="edgeStyle=orthogonalEdgeStyle;rounded=0;html=1;"><mxGeometry relative="1" as="geometry"/></mxCell><mxCell id="c521" edge="1" parent="1" source="c502" target="c503" style="edgeStyle=orthogonalEdgeStyle;rounded=0;html=1;"><mxGeometry relative="1" as="geometry"/></mxCell><mxCell id="c522" edge="1" parent="1" source="c493" target="c504" style="edgeStyle=orthogonalEdgeStyle;rounded=0;html=1;"><mxGeometry relative="1" as="geometry"/></mxCell><mxCell id="c523" edge="1" parent="1" source="c500" target="c504" style="edgeStyle=orthogonalEdgeStyle;rounded=0;html=1;"><mxGeometry relative="1" as="geometry"/></mxCell><mxCell id="c524" edge="1" parent="1" source="c503" target="c504" style="edgeStyle=orthogonalEdgeStyle;rounded=0;html=1;"><mxGeometry relative="1" as="geometry"/></mxCell></root></mxGraphModel></diagram></mxfile></div></foreignObject></switch>
</svg>