<svg xmlns="http://www.w3.org/2000/svg" xmlns:xlink="http://www.w3.org/1999/xlink" contentStyleType="text/css" data-diagram-type="ACTIVITY" height="409px" preserveAspectRatio="none" style="width:480px;height:409px;background:#FEFEFE;" version="1.1" viewBox="0 0 480 409" width="480px" zoomAndPan="magnify"><title>Fluxo de Concilia&#231;&#227;o Banc&#225;ria</title><defs/><g><rect fill="#FEFEFE" height="409" style="stroke:none;stroke-width:1;" width="480" x="0" y="0"/><text fill="#000000" font-family="Arial" font-size="14" font-weight="bold" lengthAdjust="spacing" textLength="203.0615" x="136.973" y="33.1318">Fluxo de Concilia&#231;&#227;o Banc&#225;ria</text><rect fill="none" height="12.6489" style="stroke:none;stroke-width:1;" width="447.0076" x="15" y="48.0986"/><ellipse cx="103.2339" cy="75.7476" fill="#222222" rx="10" ry="10" style="stroke:#222222;stroke-width:1;"/><rect fill="#FFFFFF" height="31.499" rx="12.5" ry="12.5" style="stroke:#333333;stroke-width:0.5;" width="164.4678" x="21" y="105.7476"/><text fill="#000000" font-family="Arial" font-size="10" lengthAdjust="spacing" textLength="144.4678" x="31" y="125.1274">Importar Extrato (OFX/QIF/CSV)</text><rect fill="#FFFFFF" height="31.499" rx="12.5" ry="12.5" style="stroke:#333333;stroke-width:0.5;" width="120.0391" x="43.2144" y="157.2466"/><text fill="#000000" font-family="Arial" font-size="10" lengthAdjust="spacing" textLength="100.0391" x="53.2144" y="176.6265">Processar Transa&#231;&#245;es</text><line style="stroke:#333333;stroke-width:1.5;" x1="15" x2="15" y1="48.0986" y2="397.7437"/><rect fill="#FFFFFF" height="31.499" rx="12.5" ry="12.5" style="stroke:#333333;stroke-width:0.5;" width="136.1719" x="253.312" y="208.7456"/><text fill="#000000" font-family="Arial" font-size="10" lengthAdjust="spacing" textLength="116.1719" x="263.312" y="228.1255">Sugerir Correspond&#234;ncias</text><polygon fill="#FFFFFF" points="278.6001,260.2446,364.1958,260.2446,376.1958,272.2446,364.1958,284.2446,278.6001,284.2446,266.6001,272.2446,278.6001,260.2446" style="stroke:#333333;stroke-width:0.5;"/><text fill="#000000" font-family="Arial" font-size="10" lengthAdjust="spacing" textLength="85.5957" x="278.6001" y="275.875">Match Autom&#225;tico?</text><text fill="#000000" font-family="Arial" font-size="9" lengthAdjust="spacing" textLength="20.0171" x="246.583" y="270.3374">[n&#227;o]</text><text fill="#000000" font-family="Arial" font-size="9" lengthAdjust="spacing" textLength="18.9976" x="376.1958" y="270.3374">[sim]</text><rect fill="#FFFFFF" height="31.499" rx="12.5" ry="12.5" style="stroke:#333333;stroke-width:0.5;" width="110.8545" x="195.4678" y="294.2446"/><text fill="#000000" font-family="Arial" font-size="10" lengthAdjust="spacing" textLength="90.8545" x="205.4678" y="313.6245">Arrastar + Confirmar</text><rect fill="#FFFFFF" height="31.499" rx="12.5" ry="12.5" style="stroke:#333333;stroke-width:0.5;" width="131.1572" x="326.3223" y="294.2446"/><text fill="#000000" font-family="Arial" font-size="10" lengthAdjust="spacing" textLength="111.1572" x="336.3223" y="313.6245">Reconcilied (Autom&#225;tico)</text><polygon fill="#FFFFFF" points="321.3979,331.7437,333.3979,343.7437,321.3979,355.7437,309.3979,343.7437,321.3979,331.7437" style="stroke:#333333;stroke-width:0.5;"/><ellipse cx="321.3979" cy="386.7437" fill="none" rx="11" ry="11" style="stroke:#222222;stroke-width:1;"/><ellipse cx="321.3979" cy="386.7437" fill="#222222" rx="6" ry="6" style="stroke:#222222;stroke-width:1;"/><line style="stroke:#333333;stroke-width:1.5;" x1="189.4678" x2="189.4678" y1="48.0986" y2="397.7437"/><line style="stroke:#333333;stroke-width:1.5;" x1="461.4795" x2="461.4795" y1="48.0986" y2="397.7437"/><line style="stroke:#333333;stroke-width:1;" x1="103.2339" x2="103.2339" y1="85.7476" y2="105.7476"/><polygon fill="#333333" points="99.2339,95.7476,103.2339,105.7476,107.2339,95.7476,103.2339,99.7476" style="stroke:#333333;stroke-width:1;"/><line style="stroke:#333333;stroke-width:1;" x1="103.2339" x2="103.2339" y1="137.2466" y2="157.2466"/><polygon fill="#333333" points="99.2339,147.2466,103.2339,157.2466,107.2339,147.2466,103.2339,151.2466" style="stroke:#333333;stroke-width:1;"/><line style="stroke:#333333;stroke-width:1;" x1="266.6001" x2="250.895" y1="272.2446" y2="272.2446"/><line style="stroke:#333333;stroke-width:1;" x1="250.895" x2="250.895" y1="272.2446" y2="294.2446"/><polygon fill="#333333" points="246.895,284.2446,250.895,294.2446,254.895,284.2446,250.895,288.2446" style="stroke:#333333;stroke-width:1;"/><line style="stroke:#333333;stroke-width:1;" x1="376.1958" x2="391.9009" y1="272.2446" y2="272.2446"/><line style="stroke:#333333;stroke-width:1;" x1="391.9009" x2="391.9009" y1="272.2446" y2="294.2446"/><polygon fill="#333333" points="387.9009,284.2446,391.9009,294.2446,395.9009,284.2446,391.9009,288.2446" style="stroke:#333333;stroke-width:1;"/><line style="stroke:#333333;stroke-width:1;" x1="250.895" x2="250.895" y1="325.7437" y2="343.7437"/><line style="stroke:#333333;stroke-width:1;" x1="250.895" x2="309.3979" y1="343.7437" y2="343.7437"/><polygon fill="#333333" points="299.3979,339.7437,309.3979,343.7437,299.3979,347.7437,303.3979,343.7437" style="stroke:#333333;stroke-width:1;"/><line style="stroke:#333333;stroke-width:1;" x1="391.9009" x2="391.9009" y1="325.7437" y2="343.7437"/><line style="stroke:#333333;stroke-width:1;" x1="391.9009" x2="333.3979" y1="343.7437" y2="343.7437"/><polygon fill="#333333" points="343.3979,339.7437,333.3979,343.7437,343.3979,347.7437,339.3979,343.7437" style="stroke:#333333;stroke-width:1;"/><line style="stroke:#333333;stroke-width:1;" x1="321.3979" x2="321.3979" y1="240.2446" y2="260.2446"/><polygon fill="#333333" points="317.3979,250.2446,321.3979,260.2446,325.3979,250.2446,321.3979,254.2446" style="stroke:#333333;stroke-width:1;"/><line style="stroke:#333333;stroke-width:1;" x1="321.3979" x2="321.3979" y1="355.7437" y2="375.7437"/><polygon fill="#333333" points="317.3979,365.7437,321.3979,375.7437,325.3979,365.7437,321.3979,369.7437" style="stroke:#333333;stroke-width:1;"/><line style="stroke:#333333;stroke-width:1;" x1="103.2339" x2="103.2339" y1="188.7456" y2="193.7456"/><line style="stroke:#333333;stroke-width:1;" x1="103.2339" x2="321.3979" y1="193.7456" y2="193.7456"/><line style="stroke:#333333;stroke-width:1;" x1="321.3979" x2="321.3979" y1="193.7456" y2="208.7456"/><polygon fill="#333333" points="317.3979,198.7456,321.3979,208.7456,325.3979,198.7456,321.3979,202.7456" style="stroke:#333333;stroke-width:1;"/><text fill="#000000" font-family="Arial" font-size="11" lengthAdjust="spacing" textLength="39.7354" x="82.3662" y="58.4165">Sistema</text><text fill="#000000" font-family="Arial" font-size="11" lengthAdjust="spacing" textLength="51.3584" x="299.7944" y="58.4165">Financeiro</text><!--SRC=[JOzDIiH048NtTOfobo0u-sGXus1W5k9FH0GHQJeLfw2xArHtO1QvpE12SEy9-c9sc8sxWlfuxtiN7AoR1y8FAzvBk9fcxm0I9qVOkVaeM9ux2POTc_oTlmHlJB3vf6m0bfvZ8cyMYCbeWcRl9z5oukqngKc2rNttkddSTvjT_rAtq3oeM8gn4CzgGbmZVocsi7GSIYwnoW9DFt-IifPYLOgJX27_50LJGE0HgpkJx06tSnAVJucjNDUO3XImUWj5yRq6n6QhQbOjl5m7ZApUQ0la8XKiiZzJJsJFwsZ0wbzYaQKmy0Xbcan_]--></g></svg>