<svg xmlns="http://www.w3.org/2000/svg" xmlns:xlink="http://www.w3.org/1999/xlink" contentStyleType="text/css" data-diagram-type="ACTIVITY" height="1163px" preserveAspectRatio="none" style="width:611px;height:1163px;background:#FEFEFE;" version="1.1" viewBox="0 0 611 1163" width="611px" zoomAndPan="magnify"><title>Fluxo de Faturamento, NFSe e Comiss&#245;es</title><defs/><g><rect fill="#FEFEFE" height="1163" style="stroke:none;stroke-width:1;" width="611" x="0" y="0"/><text fill="#000000" font-family="Arial" font-size="14" font-weight="bold" lengthAdjust="spacing" textLength="280.0615" x="164.1117" y="33.1318">Fluxo de Faturamento, NFSe e Comiss&#245;es</text><rect fill="none" height="12.6489" style="stroke:none;stroke-width:1;" width="578.2849" x="15" y="48.0986"/><ellipse cx="84.6353" cy="75.7476" fill="#222222" rx="10" ry="10" style="stroke:#222222;stroke-width:1;"/><rect fill="#FFFFFF" height="31.499" rx="12.5" ry="12.5" style="stroke:#333333;stroke-width:0.5;" width="85.0342" x="42.1182" y="105.7476"/><text fill="#000000" font-family="Arial" font-size="10" lengthAdjust="spacing" textLength="65.0342" x="52.1182" y="125.1274">Fatura Gerada</text><rect fill="#FFFFFF" height="31.499" rx="12.5" ry="12.5" style="stroke:#333333;stroke-width:0.5;" width="127.2705" x="21" y="157.2466"/><text fill="#000000" font-family="Arial" font-size="10" lengthAdjust="spacing" textLength="107.2705" x="31" y="176.6265">Adicionar Itens/Servi&#231;os</text><line style="stroke:#333333;stroke-width:1.5;" x1="15" x2="15" y1="48.0986" y2="1151.2349"/><rect fill="#FFFFFF" height="31.499" rx="12.5" ry="12.5" style="stroke:#333333;stroke-width:0.5;" width="145.0537" x="158.2705" y="208.7456"/><text fill="#000000" font-family="Arial" font-size="10" lengthAdjust="spacing" textLength="125.0537" x="168.2705" y="228.1255">Pagar (Dinheiro/Cart&#227;o/PIX)</text><rect fill="#FFFFFF" height="31.499" rx="12.5" ry="12.5" style="stroke:#333333;stroke-width:0.5;" width="134.4824" x="163.5562" y="577.2407"/><text fill="#000000" font-family="Arial" font-size="10" lengthAdjust="spacing" textLength="114.4824" x="173.5562" y="596.6206">Receber NFSe por E-mail</text><line style="stroke:#333333;stroke-width:1.5;" x1="152.2705" x2="152.2705" y1="48.0986" y2="1151.2349"/><rect fill="#FFFFFF" height="31.499" rx="12.5" ry="12.5" style="stroke:#333333;stroke-width:0.5;" width="111.1621" x="337.4326" y="308.2446"/><text fill="#000000" font-family="Arial" font-size="10" lengthAdjust="spacing" textLength="91.1621" x="347.4326" y="327.6245">InvoicePaid (evento)</text><rect fill="#FFFFFF" height="31.499" rx="12.5" ry="12.5" style="stroke:#333333;stroke-width:0.5;" width="73.8916" x="356.0679" y="407.7437"/><text fill="#000000" font-family="Arial" font-size="10" lengthAdjust="spacing" textLength="53.8916" x="366.0679" y="427.1235">Emitir NFSe</text><rect fill="#FFFFFF" height="31.499" rx="12.5" ry="12.5" style="stroke:#333333;stroke-width:0.5;" width="93.3545" x="346.3364" y="459.2427"/><text fill="#000000" font-family="Arial" font-size="10" lengthAdjust="spacing" textLength="73.3545" x="356.3364" y="478.6226">Processar NFSe</text><rect fill="#FFFFFF" height="31.499" rx="12.5" ry="12.5" style="stroke:#333333;stroke-width:0.5;" width="103.0811" x="341.4731" y="525.7417"/><text fill="#000000" font-family="Arial" font-size="10" lengthAdjust="spacing" textLength="83.0811" x="351.4731" y="545.1216">Salvar XML + PDF</text><polygon fill="#FFFFFF" points="361.6099,359.7437,424.4175,359.7437,436.4175,371.7437,424.4175,383.7437,361.6099,383.7437,349.6099,371.7437,361.6099,359.7437" style="stroke:#333333;stroke-width:0.5;"/><text fill="#000000" font-family="Arial" font-size="9" lengthAdjust="spacing" textLength="18.9976" x="397.0137" y="392.1855">[sim]</text><text fill="#000000" font-family="Arial" font-size="10" lengthAdjust="spacing" textLength="62.8076" x="361.6099" y="375.374">NFSe Config?</text><text fill="#000000" font-family="Arial" font-size="9" lengthAdjust="spacing" textLength="20.0171" x="436.4175" y="369.8364">[n&#227;o]</text><polygon fill="#FFFFFF" points="393.0137,628.7397,405.0137,640.7397,393.0137,652.7397,381.0137,640.7397,393.0137,628.7397" style="stroke:#333333;stroke-width:0.5;"/><rect fill="#FFFFFF" height="31.499" rx="12.5" ry="12.5" style="stroke:#333333;stroke-width:0.5;" width="103.916" x="341.0557" y="720.7397"/><text fill="#000000" font-family="Arial" font-size="10" lengthAdjust="spacing" textLength="83.916" x="351.0557" y="740.1196">Calcular Comiss&#227;o</text><rect fill="#FFFFFF" height="31.499" rx="12.5" ry="12.5" style="stroke:#333333;stroke-width:0.5;" width="113.3789" x="336.3242" y="772.2388"/><text fill="#000000" font-family="Arial" font-size="10" lengthAdjust="spacing" textLength="93.3789" x="346.3242" y="791.6187">Commission pending</text><polygon fill="#FFFFFF" points="352.1616,672.7397,433.8657,672.7397,445.8657,684.7397,433.8657,696.7397,352.1616,696.7397,340.1616,684.7397,352.1616,672.7397" style="stroke:#333333;stroke-width:0.5;"/><text fill="#000000" font-family="Arial" font-size="9" lengthAdjust="spacing" textLength="18.9976" x="397.0137" y="705.1816">[sim]</text><text fill="#000000" font-family="Arial" font-size="10" lengthAdjust="spacing" textLength="81.7041" x="352.1616" y="688.3701">Comiss&#227;o Config?</text><text fill="#000000" font-family="Arial" font-size="9" lengthAdjust="spacing" textLength="20.0171" x="320.1445" y="682.8325">[n&#227;o]</text><polygon fill="#FFFFFF" points="393.0137,875.2368,405.0137,887.2368,393.0137,899.2368,381.0137,887.2368,393.0137,875.2368" style="stroke:#333333;stroke-width:0.5;"/><rect fill="#FFFFFF" height="31.499" rx="12.5" ry="12.5" style="stroke:#333333;stroke-width:0.5;" width="109.4922" x="338.2676" y="967.2368"/><text fill="#000000" font-family="Arial" font-size="10" lengthAdjust="spacing" textLength="89.4922" x="348.2676" y="986.6167">Transa&#231;&#227;o Banc&#225;ria</text><rect fill="#FFFFFF" height="31.499" rx="12.5" ry="12.5" style="stroke:#333333;stroke-width:0.5;" width="71.6943" x="357.1665" y="1033.7358"/><text fill="#000000" font-family="Arial" font-size="10" lengthAdjust="spacing" textLength="51.6943" x="367.1665" y="1053.1157">Reconcilied</text><polygon fill="#FFFFFF" points="337.9844,919.2368,448.043,919.2368,460.043,931.2368,448.043,943.2368,337.9844,943.2368,325.9844,931.2368,337.9844,919.2368" style="stroke:#333333;stroke-width:0.5;"/><text fill="#000000" font-family="Arial" font-size="9" lengthAdjust="spacing" textLength="18.9976" x="397.0137" y="951.6787">[sim]</text><text fill="#000000" font-family="Arial" font-size="10" lengthAdjust="spacing" textLength="110.0586" x="337.9844" y="934.8672">Concilia&#231;&#227;o Autom&#225;tica?</text><text fill="#000000" font-family="Arial" font-size="9" lengthAdjust="spacing" textLength="20.0171" x="460.043" y="929.3296">[n&#227;o]</text><polygon fill="#FFFFFF" points="393.0137,1085.2349,405.0137,1097.2349,393.0137,1109.2349,381.0137,1097.2349,393.0137,1085.2349" style="stroke:#333333;stroke-width:0.5;"/><polygon fill="#FFFFFF" points="378.5557,260.2446,407.4717,260.2446,419.4717,272.2446,407.4717,284.2446,378.5557,284.2446,366.5557,272.2446,378.5557,260.2446" style="stroke:#333333;stroke-width:0.5;"/><text fill="#000000" font-family="Arial" font-size="9" lengthAdjust="spacing" textLength="18.9976" x="397.0137" y="292.6865">[sim]</text><text fill="#000000" font-family="Arial" font-size="10" lengthAdjust="spacing" textLength="28.916" x="378.5557" y="275.875">Pago?</text><text fill="#000000" font-family="Arial" font-size="9" lengthAdjust="spacing" textLength="20.0171" x="419.4717" y="270.3374">[n&#227;o]</text><ellipse cx="461.4888" cy="272.2446" fill="none" rx="11" ry="11" style="stroke:#222222;stroke-width:1;"/><ellipse cx="461.4888" cy="272.2446" fill="#222222" rx="6" ry="6" style="stroke:#222222;stroke-width:1;"/><ellipse cx="393.0137" cy="1140.2349" fill="none" rx="11" ry="11" style="stroke:#222222;stroke-width:1;"/><ellipse cx="393.0137" cy="1140.2349" fill="#222222" rx="6" ry="6" style="stroke:#222222;stroke-width:1;"/><line style="stroke:#333333;stroke-width:1.5;" x1="307.3242" x2="307.3242" y1="48.0986" y2="1151.2349"/><rect fill="#FFFFFF" height="31.499" rx="12.5" ry="12.5" style="stroke:#333333;stroke-width:0.5;" width="91.7139" x="497.043" y="823.7378"/><text fill="#000000" font-family="Arial" font-size="10" lengthAdjust="spacing" textLength="71.7139" x="507.043" y="843.1177">Financeiro paga</text><line style="stroke:#333333;stroke-width:1.5;" x1="491.043" x2="491.043" y1="48.0986" y2="1151.2349"/><line style="stroke:#333333;stroke-width:1.5;" x1="592.7568" x2="592.7568" y1="48.0986" y2="1151.2349"/><line style="stroke:#333333;stroke-width:1;" x1="84.6353" x2="84.6353" y1="85.7476" y2="105.7476"/><polygon fill="#333333" points="80.6353,95.7476,84.6353,105.7476,88.6353,95.7476,84.6353,99.7476" style="stroke:#333333;stroke-width:1;"/><line style="stroke:#333333;stroke-width:1;" x1="84.6353" x2="84.6353" y1="137.2466" y2="157.2466"/><polygon fill="#333333" points="80.6353,147.2466,84.6353,157.2466,88.6353,147.2466,84.6353,151.2466" style="stroke:#333333;stroke-width:1;"/><line style="stroke:#333333;stroke-width:1;" x1="393.0137" x2="393.0137" y1="439.2427" y2="459.2427"/><polygon fill="#333333" points="389.0137,449.2427,393.0137,459.2427,397.0137,449.2427,393.0137,453.2427" style="stroke:#333333;stroke-width:1;"/><line style="stroke:#333333;stroke-width:1;" x1="393.0137" x2="393.0137" y1="490.7417" y2="525.7417"/><polygon fill="#333333" points="389.0137,515.7417,393.0137,525.7417,397.0137,515.7417,393.0137,519.7417" style="stroke:#333333;stroke-width:1;"/><line style="stroke:#333333;stroke-width:1;" x1="393.0137" x2="393.0137" y1="383.7437" y2="407.7437"/><polygon fill="#333333" points="389.0137,397.7437,393.0137,407.7437,397.0137,397.7437,393.0137,401.7437" style="stroke:#333333;stroke-width:1;"/><line style="stroke:#333333;stroke-width:1;" x1="436.4175" x2="470.2549" y1="371.7437" y2="371.7437"/><polygon fill="#333333" points="466.2549,498.2417,470.2549,508.2417,474.2549,498.2417,470.2549,502.2417" style="stroke:#333333;stroke-width:1;"/><line style="stroke:#333333;stroke-width:1;" x1="470.2549" x2="470.2549" y1="371.7437" y2="640.7397"/><line style="stroke:#333333;stroke-width:1;" x1="470.2549" x2="405.0137" y1="640.7397" y2="640.7397"/><polygon fill="#333333" points="415.0137,636.7397,405.0137,640.7397,415.0137,644.7397,411.0137,640.7397" style="stroke:#333333;stroke-width:1;"/><line style="stroke:#333333;stroke-width:1;" x1="393.0137" x2="393.0137" y1="339.7437" y2="359.7437"/><polygon fill="#333333" points="389.0137,349.7437,393.0137,359.7437,397.0137,349.7437,393.0137,353.7437" style="stroke:#333333;stroke-width:1;"/><line style="stroke:#333333;stroke-width:1;" x1="393.0137" x2="393.0137" y1="752.2388" y2="772.2388"/><polygon fill="#333333" points="389.0137,762.2388,393.0137,772.2388,397.0137,762.2388,393.0137,766.2388" style="stroke:#333333;stroke-width:1;"/><line style="stroke:#333333;stroke-width:1;" x1="393.0137" x2="393.0137" y1="696.7397" y2="720.7397"/><polygon fill="#333333" points="389.0137,710.7397,393.0137,720.7397,397.0137,710.7397,393.0137,714.7397" style="stroke:#333333;stroke-width:1;"/><line style="stroke:#333333;stroke-width:1;" x1="340.1616" x2="326.3242" y1="684.7397" y2="684.7397"/><polygon fill="#333333" points="322.3242,777.9883,326.3242,787.9883,330.3242,777.9883,326.3242,781.9883" style="stroke:#333333;stroke-width:1;"/><line style="stroke:#333333;stroke-width:1;" x1="326.3242" x2="326.3242" y1="684.7397" y2="887.2368"/><line style="stroke:#333333;stroke-width:1;" x1="326.3242" x2="381.0137" y1="887.2368" y2="887.2368"/><polygon fill="#333333" points="371.0137,883.2368,381.0137,887.2368,371.0137,891.2368,375.0137,887.2368" style="stroke:#333333;stroke-width:1;"/><line style="stroke:#333333;stroke-width:1;" x1="393.0137" x2="393.0137" y1="652.7397" y2="672.7397"/><polygon fill="#333333" points="389.0137,662.7397,393.0137,672.7397,397.0137,662.7397,393.0137,666.7397" style="stroke:#333333;stroke-width:1;"/><line style="stroke:#333333;stroke-width:1;" x1="393.0137" x2="393.0137" y1="998.7358" y2="1033.7358"/><polygon fill="#333333" points="389.0137,1023.7358,393.0137,1033.7358,397.0137,1023.7358,393.0137,1027.7358" style="stroke:#333333;stroke-width:1;"/><line style="stroke:#333333;stroke-width:1;" x1="393.0137" x2="393.0137" y1="943.2368" y2="967.2368"/><polygon fill="#333333" points="389.0137,957.2368,393.0137,967.2368,397.0137,957.2368,393.0137,961.2368" style="stroke:#333333;stroke-width:1;"/><line style="stroke:#333333;stroke-width:1;" x1="460.043" x2="472.043" y1="931.2368" y2="931.2368"/><polygon fill="#333333" points="468.043,1006.2358,472.043,1016.2358,476.043,1006.2358,472.043,1010.2358" style="stroke:#333333;stroke-width:1;"/><line style="stroke:#333333;stroke-width:1;" x1="472.043" x2="472.043" y1="931.2368" y2="1097.2349"/><line style="stroke:#333333;stroke-width:1;" x1="472.043" x2="405.0137" y1="1097.2349" y2="1097.2349"/><polygon fill="#333333" points="415.0137,1093.2349,405.0137,1097.2349,415.0137,1101.2349,411.0137,1097.2349" style="stroke:#333333;stroke-width:1;"/><line style="stroke:#333333;stroke-width:1;" x1="393.0137" x2="393.0137" y1="1065.2349" y2="1085.2349"/><polygon fill="#333333" points="389.0137,1075.2349,393.0137,1085.2349,397.0137,1075.2349,393.0137,1079.2349" style="stroke:#333333;stroke-width:1;"/><line style="stroke:#333333;stroke-width:1;" x1="393.0137" x2="393.0137" y1="899.2368" y2="919.2368"/><polygon fill="#333333" points="389.0137,909.2368,393.0137,919.2368,397.0137,909.2368,393.0137,913.2368" style="stroke:#333333;stroke-width:1;"/><line style="stroke:#333333;stroke-width:1;" x1="393.0137" x2="393.0137" y1="284.2446" y2="308.2446"/><polygon fill="#333333" points="389.0137,298.2446,393.0137,308.2446,397.0137,298.2446,393.0137,302.2446" style="stroke:#333333;stroke-width:1;"/><line style="stroke:#333333;stroke-width:1;" x1="419.4717" x2="450.4888" y1="272.2446" y2="272.2446"/><polygon fill="#333333" points="440.4888,268.2446,450.4888,272.2446,440.4888,276.2446,444.4888,272.2446" style="stroke:#333333;stroke-width:1;"/><line style="stroke:#333333;stroke-width:1;" x1="393.0137" x2="393.0137" y1="1109.2349" y2="1129.2349"/><polygon fill="#333333" points="389.0137,1119.2349,393.0137,1129.2349,397.0137,1119.2349,393.0137,1123.2349" style="stroke:#333333;stroke-width:1;"/><line style="stroke:#333333;stroke-width:1;" x1="84.6353" x2="84.6353" y1="188.7456" y2="193.7456"/><line style="stroke:#333333;stroke-width:1;" x1="84.6353" x2="230.7974" y1="193.7456" y2="193.7456"/><line style="stroke:#333333;stroke-width:1;" x1="230.7974" x2="230.7974" y1="193.7456" y2="208.7456"/><polygon fill="#333333" points="226.7974,198.7456,230.7974,208.7456,234.7974,198.7456,230.7974,202.7456" style="stroke:#333333;stroke-width:1;"/><line style="stroke:#333333;stroke-width:1;" x1="393.0137" x2="393.0137" y1="557.2407" y2="562.2407"/><line style="stroke:#333333;stroke-width:1;" x1="393.0137" x2="230.7974" y1="562.2407" y2="562.2407"/><line style="stroke:#333333;stroke-width:1;" x1="230.7974" x2="230.7974" y1="562.2407" y2="577.2407"/><polygon fill="#333333" points="226.7974,567.2407,230.7974,577.2407,234.7974,567.2407,230.7974,571.2407" style="stroke:#333333;stroke-width:1;"/><line style="stroke:#333333;stroke-width:1;" x1="230.7974" x2="230.7974" y1="608.7397" y2="616.7397"/><line style="stroke:#333333;stroke-width:1;" x1="230.7974" x2="393.0137" y1="616.7397" y2="616.7397"/><line style="stroke:#333333;stroke-width:1;" x1="393.0137" x2="393.0137" y1="616.7397" y2="628.7397"/><polygon fill="#333333" points="389.0137,618.7397,393.0137,628.7397,397.0137,618.7397,393.0137,622.7397" style="stroke:#333333;stroke-width:1;"/><line style="stroke:#333333;stroke-width:1;" x1="393.0137" x2="393.0137" y1="803.7378" y2="808.7378"/><line style="stroke:#333333;stroke-width:1;" x1="393.0137" x2="542.8999" y1="808.7378" y2="808.7378"/><line style="stroke:#333333;stroke-width:1;" x1="542.8999" x2="542.8999" y1="808.7378" y2="823.7378"/><polygon fill="#333333" points="538.8999,813.7378,542.8999,823.7378,546.8999,813.7378,542.8999,817.7378" style="stroke:#333333;stroke-width:1;"/><line style="stroke:#333333;stroke-width:1;" x1="542.8999" x2="542.8999" y1="855.2368" y2="863.2368"/><line style="stroke:#333333;stroke-width:1;" x1="542.8999" x2="393.0137" y1="863.2368" y2="863.2368"/><line style="stroke:#333333;stroke-width:1;" x1="393.0137" x2="393.0137" y1="863.2368" y2="875.2368"/><polygon fill="#333333" points="389.0137,865.2368,393.0137,875.2368,397.0137,865.2368,393.0137,869.2368" style="stroke:#333333;stroke-width:1;"/><line style="stroke:#333333;stroke-width:1;" x1="230.7974" x2="230.7974" y1="240.2446" y2="245.2446"/><line style="stroke:#333333;stroke-width:1;" x1="230.7974" x2="393.0137" y1="245.2446" y2="245.2446"/><line style="stroke:#333333;stroke-width:1;" x1="393.0137" x2="393.0137" y1="245.2446" y2="260.2446"/><polygon fill="#333333" points="389.0137,250.2446,393.0137,260.2446,397.0137,250.2446,393.0137,254.2446" style="stroke:#333333;stroke-width:1;"/><text fill="#000000" font-family="Arial" font-size="11" lengthAdjust="spacing" textLength="53.1953" x="57.0376" y="58.4165">Veterin&#225;rio</text><text fill="#000000" font-family="Arial" font-size="11" lengthAdjust="spacing" textLength="25.6738" x="216.9604" y="58.4165">Tutor</text><text fill="#000000" font-family="Arial" font-size="11" lengthAdjust="spacing" textLength="39.7354" x="379.3159" y="58.4165">Sistema</text><text fill="#000000" font-family="Arial" font-size="11" lengthAdjust="spacing" textLength="51.3584" x="516.2207" y="58.4165">Financeiro</text><!--SRC=[bPBFYjj03CRlynJgBQ5_SeyFPPjTbq1RJBEKXR8KTQna1JCZCpCEFVXbbZti4_G9_6BLnEw6bbBQYmT_8ttwIPfd7AphMu8lLhoNyAhhlJCcStO4jUk_2UXbZRcFw2baUG4VwXq1mKOyfpH-fsJCy8aoHGxZVMGPJCeOirbFMV2M8hPOcVL5ovObO8Hjff1MEuf77XybLMQuxhF4mQmRFEZzufB37N6KrKQTnWTPDTkRPQM5TfmoUHmCxs6XmV9w2VcE0Ym-1usxNHg0bAKpv1AfcDYVjFKs78KjDSWjBEXOMb53WE9pwcWZOS-7FzZzvgHULvupnzCWgabfebXA2NyHT-YEgjoyVmVFeRci9_bdgwUGZsJfAqrPq4c4gvSUsPL82YtlzJotFC7ESt-G_o7UeBEzKvYdx9bH_ukWQu6kL0o7cRBcWC6M7SoePm4wNTBV4ODbnpW-5imBxTUFzvaj_XFhTSIGvjmtMh8yAgoUvZLvKti6cBwchFq7]--></g></svg>