<svg xmlns="http://www.w3.org/2000/svg" xmlns:xlink="http://www.w3.org/1999/xlink" contentStyleType="text/css" height="1474px" preserveAspectRatio="none" style="width:1037px;height:1474px;background:#FEFEFE;" version="1.1" viewBox="0 0 1037 1474" width="1037px" zoomAndPan="magnify"><title>Fluxo de Agendamento e Consulta</title><defs/><g><rect fill="#FEFEFE" height="1474" style="stroke:none;stroke-width:1.0;" width="1037" x="0" y="0"/><text fill="#000000" font-family="Arial" font-size="14" font-weight="bold" lengthAdjust="spacing" textLength="230.2412" x="401.9847" y="33.1318">Fluxo de Agendamento e Consulta</text><rect fill="none" height="12.6489" style="stroke:none;stroke-width:1.0;" width="1004.2106" x="15" y="48.0986"/><ellipse cx="225.3201" cy="75.7476" fill="#222222" rx="10" ry="10" style="stroke:#222222;stroke-width:1.0;"/><polygon fill="#FFFFFF" points="206.1477,105.7476,244.4924,105.7476,256.4924,117.7476,244.4924,129.7476,206.1477,129.7476,194.1477,117.7476,206.1477,105.7476" style="stroke:#333333;stroke-width:0.5;"/><text fill="#000000" font-family="Arial" font-size="10" lengthAdjust="spacing" textLength="38.3447" x="206.1477" y="121.3779">Origem?</text><text fill="#000000" font-family="Arial" font-size="9" lengthAdjust="spacing" textLength="28.5117" x="165.636" y="115.8403">[Portal]</text><text fill="#000000" font-family="Arial" font-size="9" lengthAdjust="spacing" textLength="45.5273" x="256.4924" y="115.8403">[Recep&#231;&#227;o]</text><rect fill="#FFFFFF" height="31.499" rx="12.5" ry="12.5" style="stroke:#333333;stroke-width:0.5;" width="202.3047" x="21" y="252.7456"/><text fill="#000000" font-family="Arial" font-size="10" lengthAdjust="spacing" textLength="182.3047" x="31" y="272.1255">VetAvailabilityService::getAvailableVets()</text><rect fill="#FFFFFF" height="31.499" rx="12.5" ry="12.5" style="stroke:#333333;stroke-width:0.5;" width="170.9033" x="36.7007" y="304.2446"/><text fill="#000000" font-family="Arial" font-size="10" lengthAdjust="spacing" textLength="150.9033" x="46.7007" y="323.6245">Filtrar por branch_id + is_vet_shift</text><rect fill="#FFFFFF" height="31.499" rx="12.5" ry="12.5" style="stroke:#333333;stroke-width:0.5;" width="140.0391" x="52.1328" y="355.7437"/><text fill="#000000" font-family="Arial" font-size="10" lengthAdjust="spacing" textLength="120.0391" x="62.1328" y="375.1235">Exibir Hor&#225;rios Dispon&#237;veis</text><polygon fill="#FFFFFF" points="225.3201,500.2407,237.3201,512.2407,225.3201,524.2407,213.3201,512.2407,225.3201,500.2407" style="stroke:#333333;stroke-width:0.5;"/><rect fill="#FFFFFF" height="31.499" rx="12.5" ry="12.5" style="stroke:#333333;stroke-width:0.5;" width="99.5068" x="175.5667" y="544.2407"/><text fill="#000000" font-family="Arial" font-size="10" lengthAdjust="spacing" textLength="79.5068" x="185.5667" y="563.6206">Status: Agendado</text><rect fill="#FFFFFF" height="31.499" rx="12.5" ry="12.5" style="stroke:#333333;stroke-width:0.5;" width="55.5908" x="197.5247" y="639.7397"/><text fill="#000000" font-family="Arial" font-size="10" lengthAdjust="spacing" textLength="35.5908" x="207.5247" y="659.1196">pending</text><polygon fill="#FFFFFF" points="225.3201,595.7397,237.3201,607.7397,225.3201,619.7397,213.3201,607.7397,225.3201,595.7397" style="stroke:#333333;stroke-width:0.5;"/><polygon fill="#FFFFFF" points="225.3201,825.2388,237.3201,837.2388,225.3201,849.2388,213.3201,837.2388,225.3201,825.2388" style="stroke:#333333;stroke-width:0.5;"/><rect fill="#FFFFFF" height="31.499" rx="12.5" ry="12.5" style="stroke:#333333;stroke-width:0.5;" width="105.5957" x="172.5222" y="869.2388"/><text fill="#000000" font-family="Arial" font-size="10" lengthAdjust="spacing" textLength="85.5957" x="182.5222" y="888.6187">Status: Confirmado</text><rect fill="#FFFFFF" height="31.499" rx="12.5" ry="12.5" style="stroke:#333333;stroke-width:0.5;" width="81.709" x="184.4656" y="920.7378"/><text fill="#000000" font-family="Arial" font-size="10" lengthAdjust="spacing" textLength="61.709" x="194.4656" y="940.1177">Lembrete 24h</text><rect fill="#FFFFFF" height="31.499" rx="12.5" ry="12.5" style="stroke:#333333;stroke-width:0.5;" width="76.1475" x="187.2463" y="972.2368"/><text fill="#000000" font-family="Arial" font-size="10" lengthAdjust="spacing" textLength="56.1475" x="197.2463" y="991.6167">Lembrete 2h</text><rect fill="#FFFFFF" height="31.499" rx="12.5" ry="12.5" style="stroke:#333333;stroke-width:0.5;" width="101.7188" x="74.7726" y="1222.2329"/><text fill="#000000" font-family="Arial" font-size="10" lengthAdjust="spacing" textLength="81.7188" x="84.7726" y="1241.6128">Status: Cancelado</text><rect fill="#FFFFFF" height="31.499" rx="12.5" ry="12.5" style="stroke:#333333;stroke-width:0.5;" width="66.1523" x="92.5558" y="1288.7319"/><text fill="#000000" font-family="Arial" font-size="10" lengthAdjust="spacing" textLength="46.1523" x="102.5558" y="1308.1118">Reagenda</text><rect fill="#FFFFFF" height="31.499" rx="12.5" ry="12.5" style="stroke:#333333;stroke-width:0.5;" width="57.1582" x="97.0529" y="1355.231"/><text fill="#000000" font-family="Arial" font-size="10" lengthAdjust="spacing" textLength="37.1582" x="107.0529" y="1374.6108">-&gt;|Volta|</text><polygon fill="#FFFFFF" points="289.1561,1222.2329,360.8602,1222.2329,372.8602,1234.2329,360.8602,1246.2329,289.1561,1246.2329,277.1561,1234.2329,289.1561,1222.2329" style="stroke:#333333;stroke-width:0.5;"/><text fill="#000000" font-family="Arial" font-size="10" lengthAdjust="spacing" textLength="71.7041" x="289.1561" y="1237.8633">Tutor Presente?</text><text fill="#000000" font-family="Arial" font-size="9" lengthAdjust="spacing" textLength="18.9976" x="258.1586" y="1232.3257">[sim]</text><text fill="#000000" font-family="Arial" font-size="9" lengthAdjust="spacing" textLength="20.0171" x="372.8602" y="1232.3257">[n&#227;o]</text><rect fill="#FFFFFF" height="31.499" rx="12.5" ry="12.5" style="stroke:#333333;stroke-width:0.5;" width="99.4873" x="207.0455" y="1256.2329"/><text fill="#000000" font-family="Arial" font-size="10" lengthAdjust="spacing" textLength="79.4873" x="217.0455" y="1275.6128">Status: Finalizado</text><rect fill="#FFFFFF" height="31.499" rx="12.5" ry="12.5" style="stroke:#333333;stroke-width:0.5;" width="100.5957" x="206.4913" y="1322.7319"/><text fill="#000000" font-family="Arial" font-size="10" lengthAdjust="spacing" textLength="80.5957" x="216.4913" y="1342.1118">Auto-Faturamento</text><rect fill="#FFFFFF" height="31.499" rx="12.5" ry="12.5" style="stroke:#333333;stroke-width:0.5;" width="132.2803" x="327.087" y="1256.2329"/><text fill="#000000" font-family="Arial" font-size="10" lengthAdjust="spacing" textLength="112.2803" x="337.087" y="1275.6128">Status: N&#227;o Compareceu</text><polygon fill="#FFFFFF" points="325.0082,1360.231,337.0082,1372.231,325.0082,1384.231,313.0082,1372.231,325.0082,1360.231" style="stroke:#333333;stroke-width:0.5;"/><ellipse cx="225.3201" cy="1451.73" fill="none" rx="11" ry="11" style="stroke:#222222;stroke-width:1.0;"/><ellipse cx="225.3201" cy="1451.73" fill="#222222" rx="6" ry="6" style="stroke:#222222;stroke-width:1.0;"/><line style="stroke:#333333;stroke-width:1.5;" x1="15" x2="15" y1="48.0986" y2="1462.73"/><rect fill="#FFFFFF" height="31.499" rx="12.5" ry="12.5" style="stroke:#333333;stroke-width:0.5;" width="81.6943" x="505.6344" y="149.7476"/><text fill="#000000" font-family="Arial" font-size="10" lengthAdjust="spacing" textLength="61.6943" x="515.6344" y="169.1274">Acessa Portal</text><rect fill="#FFFFFF" height="31.499" rx="12.5" ry="12.5" style="stroke:#333333;stroke-width:0.5;" width="152.0215" x="470.4708" y="201.2466"/><text fill="#000000" font-family="Arial" font-size="10" lengthAdjust="spacing" textLength="132.0215" x="480.4708" y="220.6265">Selecionar Servi&#231;o + Unidade</text><rect fill="#FFFFFF" height="31.499" rx="12.5" ry="12.5" style="stroke:#333333;stroke-width:0.5;" width="154.2285" x="469.3673" y="407.2427"/><text fill="#000000" font-family="Arial" font-size="10" lengthAdjust="spacing" textLength="134.2285" x="479.3673" y="426.6226">Escolher Veterin&#225;rio + Hor&#225;rio</text><rect fill="#FFFFFF" height="31.499" rx="12.5" ry="12.5" style="stroke:#333333;stroke-width:0.5;" width="128.9453" x="482.0089" y="458.7417"/><text fill="#000000" font-family="Arial" font-size="10" lengthAdjust="spacing" textLength="108.9453" x="492.0089" y="478.1216">Confirmar Agendamento</text><line style="stroke:#333333;stroke-width:1.5;" x1="463.3673" x2="463.3673" y1="48.0986" y2="1462.73"/><rect fill="#FFFFFF" height="31.499" rx="12.5" ry="12.5" style="stroke:#333333;stroke-width:0.5;" width="134.7852" x="729.2748" y="149.7476"/><text fill="#000000" font-family="Arial" font-size="10" lengthAdjust="spacing" textLength="114.7852" x="739.2748" y="169.1274">Calend&#225;rio + Dados Tutor</text><rect fill="#FFFFFF" height="31.499" rx="12.5" ry="12.5" style="stroke:#333333;stroke-width:0.5;" width="170.3662" x="711.4843" y="201.2466"/><text fill="#000000" font-family="Arial" font-size="10" lengthAdjust="spacing" textLength="150.3662" x="721.4843" y="220.6265">Selecionar Unidade + Profissional</text><rect fill="#FFFFFF" height="31.499" rx="12.5" ry="12.5" style="stroke:#333333;stroke-width:0.5;" width="57.8076" x="767.7635" y="252.7456"/><text fill="#000000" font-family="Arial" font-size="10" lengthAdjust="spacing" textLength="37.8076" x="777.7635" y="272.1255">Agendar</text><polygon fill="#FFFFFF" points="654.5958,691.2388,732.4034,691.2388,744.4034,703.2388,732.4034,715.2388,654.5958,715.2388,642.5958,703.2388,654.5958,691.2388" style="stroke:#333333;stroke-width:0.5;"/><text fill="#000000" font-family="Arial" font-size="9" lengthAdjust="spacing" textLength="18.9976" x="697.4996" y="723.6807">[sim]</text><text fill="#000000" font-family="Arial" font-size="10" lengthAdjust="spacing" textLength="77.8076" x="654.5958" y="706.8691">Tutor Confirmou?</text><text fill="#000000" font-family="Arial" font-size="9" lengthAdjust="spacing" textLength="20.0171" x="744.4034" y="701.3315">[n&#227;o]</text><polygon fill="#FFFFFF" points="681.4996,781.2388,705.4996,781.2388,717.4996,793.2388,705.4996,805.2388,681.4996,805.2388,669.4996,793.2388,681.4996,781.2388" style="stroke:#333333;stroke-width:0.5;"/><text fill="#000000" font-family="Arial" font-size="10" lengthAdjust="spacing" textLength="22.2412" x="682.379" y="796.8691">[n&#227;o]</text><text fill="#000000" font-family="Arial" font-size="9" lengthAdjust="spacing" textLength="49.043" x="717.4996" y="791.3315">Aguardando</text><line style="stroke:#333333;stroke-width:1.5;" x1="627.5958" x2="627.5958" y1="48.0986" y2="1462.73"/><rect fill="#FFFFFF" height="31.499" rx="12.5" ry="12.5" style="stroke:#333333;stroke-width:0.5;" width="88.9209" x="908.806" y="1023.7358"/><text fill="#000000" font-family="Arial" font-size="10" lengthAdjust="spacing" textLength="68.9209" x="918.806" y="1043.1157">Iniciar Consulta</text><rect fill="#FFFFFF" height="31.499" rx="12.5" ry="12.5" style="stroke:#333333;stroke-width:0.5;" width="122.832" x="891.8505" y="1075.2349"/><text fill="#000000" font-family="Arial" font-size="10" lengthAdjust="spacing" textLength="102.832" x="901.8505" y="1094.6147">Status: Em Andamento</text><rect fill="#FFFFFF" height="31.499" rx="12.5" ry="12.5" style="stroke:#333333;stroke-width:0.5;" width="106.7188" x="899.9071" y="1126.7339"/><text fill="#000000" font-family="Arial" font-size="10" lengthAdjust="spacing" textLength="86.7188" x="909.9071" y="1146.1138">Consulta Realizada</text><polygon fill="#FFFFFF" points="927.9711,1178.2329,978.5619,1178.2329,990.5619,1190.2329,978.5619,1202.2329,927.9711,1202.2329,915.9711,1190.2329,927.9711,1178.2329" style="stroke:#333333;stroke-width:0.5;"/><text fill="#000000" font-family="Arial" font-size="10" lengthAdjust="spacing" textLength="50.5908" x="927.9711" y="1193.8633">Conclu&#237;da?</text><text fill="#000000" font-family="Arial" font-size="9" lengthAdjust="spacing" textLength="20.0171" x="895.954" y="1188.3257">[n&#227;o]</text><text fill="#000000" font-family="Arial" font-size="9" lengthAdjust="spacing" textLength="18.9976" x="990.5619" y="1188.3257">[sim]</text><polygon fill="#FFFFFF" points="953.2665,1396.73,965.2665,1408.73,953.2665,1420.73,941.2665,1408.73,953.2665,1396.73" style="stroke:#333333;stroke-width:0.5;"/><line style="stroke:#333333;stroke-width:1.5;" x1="885.8505" x2="885.8505" y1="48.0986" y2="1462.73"/><line style="stroke:#333333;stroke-width:1.5;" x1="1018.6825" x2="1018.6825" y1="48.0986" y2="1462.73"/><line style="stroke:#333333;stroke-width:1.0;" x1="122.1523" x2="122.1523" y1="284.2446" y2="304.2446"/><polygon fill="#333333" points="118.1523,294.2446,122.1523,304.2446,126.1523,294.2446,122.1523,298.2446" style="stroke:#333333;stroke-width:1.0;"/><line style="stroke:#333333;stroke-width:1.0;" x1="122.1523" x2="122.1523" y1="335.7437" y2="355.7437"/><polygon fill="#333333" points="118.1523,345.7437,122.1523,355.7437,126.1523,345.7437,122.1523,349.7437" style="stroke:#333333;stroke-width:1.0;"/><line style="stroke:#333333;stroke-width:1.0;" x1="225.3201" x2="225.3201" y1="85.7476" y2="105.7476"/><polygon fill="#333333" points="221.3201,95.7476,225.3201,105.7476,229.3201,95.7476,225.3201,99.7476" style="stroke:#333333;stroke-width:1.0;"/><line style="stroke:#333333;stroke-width:1.0;" x1="225.3201" x2="225.3201" y1="524.2407" y2="544.2407"/><polygon fill="#333333" points="221.3201,534.2407,225.3201,544.2407,229.3201,534.2407,225.3201,538.2407" style="stroke:#333333;stroke-width:1.0;"/><line style="stroke:#333333;stroke-width:1.0;" x1="225.3201" x2="225.3201" y1="619.7397" y2="639.7397"/><polygon fill="#333333" points="221.3201,629.7397,225.3201,639.7397,229.3201,629.7397,225.3201,633.7397" style="stroke:#333333;stroke-width:1.0;"/><line style="stroke:#333333;stroke-width:1.0;" x1="225.3201" x2="225.3201" y1="575.7397" y2="595.7397"/><polygon fill="#333333" points="221.3201,585.7397,225.3201,595.7397,229.3201,585.7397,225.3201,589.7397" style="stroke:#333333;stroke-width:1.0;"/><line style="stroke:#333333;stroke-width:1.0;" x1="225.3201" x2="225.3201" y1="849.2388" y2="869.2388"/><polygon fill="#333333" points="221.3201,859.2388,225.3201,869.2388,229.3201,859.2388,225.3201,863.2388" style="stroke:#333333;stroke-width:1.0;"/><line style="stroke:#333333;stroke-width:1.0;" x1="225.3201" x2="225.3201" y1="900.7378" y2="920.7378"/><polygon fill="#333333" points="221.3201,910.7378,225.3201,920.7378,229.3201,910.7378,225.3201,914.7378" style="stroke:#333333;stroke-width:1.0;"/><line style="stroke:#333333;stroke-width:1.0;" x1="225.3201" x2="225.3201" y1="952.2368" y2="972.2368"/><polygon fill="#333333" points="221.3201,962.2368,225.3201,972.2368,229.3201,962.2368,225.3201,966.2368" style="stroke:#333333;stroke-width:1.0;"/><line style="stroke:#333333;stroke-width:1.0;" x1="125.632" x2="125.632" y1="1253.7319" y2="1288.7319"/><polygon fill="#333333" points="121.632,1278.7319,125.632,1288.7319,129.632,1278.7319,125.632,1282.7319" style="stroke:#333333;stroke-width:1.0;"/><line style="stroke:#333333;stroke-width:1.0;" x1="125.632" x2="125.632" y1="1320.231" y2="1355.231"/><polygon fill="#333333" points="121.632,1345.231,125.632,1355.231,129.632,1345.231,125.632,1349.231" style="stroke:#333333;stroke-width:1.0;"/><line style="stroke:#333333;stroke-width:1.0;" x1="256.7892" x2="256.7892" y1="1287.7319" y2="1322.7319"/><polygon fill="#333333" points="252.7892,1312.7319,256.7892,1322.7319,260.7892,1312.7319,256.7892,1316.7319" style="stroke:#333333;stroke-width:1.0;"/><line style="stroke:#333333;stroke-width:1.0;" x1="277.1561" x2="256.7892" y1="1234.2329" y2="1234.2329"/><line style="stroke:#333333;stroke-width:1.0;" x1="256.7892" x2="256.7892" y1="1234.2329" y2="1256.2329"/><polygon fill="#333333" points="252.7892,1246.2329,256.7892,1256.2329,260.7892,1246.2329,256.7892,1250.2329" style="stroke:#333333;stroke-width:1.0;"/><line style="stroke:#333333;stroke-width:1.0;" x1="372.8602" x2="393.2272" y1="1234.2329" y2="1234.2329"/><line style="stroke:#333333;stroke-width:1.0;" x1="393.2272" x2="393.2272" y1="1234.2329" y2="1256.2329"/><polygon fill="#333333" points="389.2272,1246.2329,393.2272,1256.2329,397.2272,1246.2329,393.2272,1250.2329" style="stroke:#333333;stroke-width:1.0;"/><line style="stroke:#333333;stroke-width:1.0;" x1="256.7892" x2="256.7892" y1="1354.231" y2="1372.231"/><line style="stroke:#333333;stroke-width:1.0;" x1="256.7892" x2="313.0082" y1="1372.231" y2="1372.231"/><polygon fill="#333333" points="303.0082,1368.231,313.0082,1372.231,303.0082,1376.231,307.0082,1372.231" style="stroke:#333333;stroke-width:1.0;"/><line style="stroke:#333333;stroke-width:1.0;" x1="393.2272" x2="393.2272" y1="1287.7319" y2="1372.231"/><line style="stroke:#333333;stroke-width:1.0;" x1="393.2272" x2="337.0082" y1="1372.231" y2="1372.231"/><polygon fill="#333333" points="347.0082,1368.231,337.0082,1372.231,347.0082,1376.231,343.0082,1372.231" style="stroke:#333333;stroke-width:1.0;"/><line style="stroke:#333333;stroke-width:1.0;" x1="546.4816" x2="546.4816" y1="181.2466" y2="201.2466"/><polygon fill="#333333" points="542.4816,191.2466,546.4816,201.2466,550.4816,191.2466,546.4816,195.2466" style="stroke:#333333;stroke-width:1.0;"/><line style="stroke:#333333;stroke-width:1.0;" x1="546.4816" x2="546.4816" y1="438.7417" y2="458.7417"/><polygon fill="#333333" points="542.4816,448.7417,546.4816,458.7417,550.4816,448.7417,546.4816,452.7417" style="stroke:#333333;stroke-width:1.0;"/><line style="stroke:#333333;stroke-width:1.0;" x1="796.6674" x2="796.6674" y1="181.2466" y2="201.2466"/><polygon fill="#333333" points="792.6674,191.2466,796.6674,201.2466,800.6674,191.2466,796.6674,195.2466" style="stroke:#333333;stroke-width:1.0;"/><line style="stroke:#333333;stroke-width:1.0;" x1="796.6674" x2="796.6674" y1="232.7456" y2="252.7456"/><polygon fill="#333333" points="792.6674,242.7456,796.6674,252.7456,800.6674,242.7456,796.6674,246.7456" style="stroke:#333333;stroke-width:1.0;"/><line style="stroke:#333333;stroke-width:1.0;" x1="693.4996" x2="693.4996" y1="715.2388" y2="739.2388"/><polygon fill="#333333" points="689.4996,729.2388,693.4996,739.2388,697.4996,729.2388,693.4996,733.2388" style="stroke:#333333;stroke-width:1.0;"/><line style="stroke:#333333;stroke-width:1.0;" x1="744.4034" x2="756.4034" y1="703.2388" y2="703.2388"/><polygon fill="#333333" points="752.4034,726.2388,756.4034,736.2388,760.4034,726.2388,756.4034,730.2388" style="stroke:#333333;stroke-width:1.0;"/><line style="stroke:#333333;stroke-width:1.0;" x1="756.4034" x2="756.4034" y1="703.2388" y2="761.2388"/><line style="stroke:#333333;stroke-width:1.0;" x1="756.4034" x2="693.4996" y1="761.2388" y2="761.2388"/><line style="stroke:#333333;stroke-width:1.0;" x1="693.4996" x2="693.4996" y1="761.2388" y2="781.2388"/><polygon fill="#333333" points="689.4996,771.2388,693.4996,781.2388,697.4996,771.2388,693.4996,775.2388" style="stroke:#333333;stroke-width:1.0;"/><line style="stroke:#333333;stroke-width:1.0;" x1="953.2665" x2="953.2665" y1="1055.2349" y2="1075.2349"/><polygon fill="#333333" points="949.2665,1065.2349,953.2665,1075.2349,957.2665,1065.2349,953.2665,1069.2349" style="stroke:#333333;stroke-width:1.0;"/><line style="stroke:#333333;stroke-width:1.0;" x1="953.2665" x2="953.2665" y1="1106.7339" y2="1126.7339"/><polygon fill="#333333" points="949.2665,1116.7339,953.2665,1126.7339,957.2665,1116.7339,953.2665,1120.7339" style="stroke:#333333;stroke-width:1.0;"/><line style="stroke:#333333;stroke-width:1.0;" x1="953.2665" x2="953.2665" y1="1158.2329" y2="1178.2329"/><polygon fill="#333333" points="949.2665,1168.2329,953.2665,1178.2329,957.2665,1168.2329,953.2665,1172.2329" style="stroke:#333333;stroke-width:1.0;"/><line style="stroke:#333333;stroke-width:1.0;" x1="546.4816" x2="546.4816" y1="232.7456" y2="237.7456"/><line style="stroke:#333333;stroke-width:1.0;" x1="546.4816" x2="122.1523" y1="237.7456" y2="237.7456"/><line style="stroke:#333333;stroke-width:1.0;" x1="122.1523" x2="122.1523" y1="237.7456" y2="252.7456"/><polygon fill="#333333" points="118.1523,242.7456,122.1523,252.7456,126.1523,242.7456,122.1523,246.7456" style="stroke:#333333;stroke-width:1.0;"/><line style="stroke:#333333;stroke-width:1.0;" x1="122.1523" x2="122.1523" y1="387.2427" y2="392.2427"/><line style="stroke:#333333;stroke-width:1.0;" x1="122.1523" x2="546.4816" y1="392.2427" y2="392.2427"/><line style="stroke:#333333;stroke-width:1.0;" x1="546.4816" x2="546.4816" y1="392.2427" y2="407.2427"/><polygon fill="#333333" points="542.4816,397.2427,546.4816,407.2427,550.4816,397.2427,546.4816,401.2427" style="stroke:#333333;stroke-width:1.0;"/><line style="stroke:#333333;stroke-width:1.0;" x1="194.1477" x2="182.1477" y1="117.7476" y2="117.7476"/><line style="stroke:#333333;stroke-width:1.0;" x1="182.1477" x2="182.1477" y1="117.7476" y2="135.7476"/><line style="stroke:#333333;stroke-width:1.0;" x1="182.1477" x2="546.4816" y1="135.7476" y2="135.7476"/><line style="stroke:#333333;stroke-width:1.0;" x1="546.4816" x2="546.4816" y1="135.7476" y2="149.7476"/><polygon fill="#333333" points="542.4816,139.7476,546.4816,149.7476,550.4816,139.7476,546.4816,143.7476" style="stroke:#333333;stroke-width:1.0;"/><line style="stroke:#333333;stroke-width:1.0;" x1="256.4924" x2="796.6674" y1="117.7476" y2="117.7476"/><line style="stroke:#333333;stroke-width:1.0;" x1="796.6674" x2="796.6674" y1="117.7476" y2="149.7476"/><polygon fill="#333333" points="792.6674,139.7476,796.6674,149.7476,800.6674,139.7476,796.6674,143.7476" style="stroke:#333333;stroke-width:1.0;"/><line style="stroke:#333333;stroke-width:1.0;" x1="546.4816" x2="546.4816" y1="490.2407" y2="494.2407"/><line style="stroke:#333333;stroke-width:1.0;" x1="546.4816" x2="195.3201" y1="494.2407" y2="494.2407"/><line style="stroke:#333333;stroke-width:1.0;" x1="195.3201" x2="195.3201" y1="494.2407" y2="512.2407"/><line style="stroke:#333333;stroke-width:1.0;" x1="195.3201" x2="213.3201" y1="512.2407" y2="512.2407"/><polygon fill="#333333" points="203.3201,508.2407,213.3201,512.2407,203.3201,516.2407,207.3201,512.2407" style="stroke:#333333;stroke-width:1.0;"/><line style="stroke:#333333;stroke-width:1.0;" x1="796.6674" x2="796.6674" y1="284.2446" y2="512.2407"/><line style="stroke:#333333;stroke-width:1.0;" x1="796.6674" x2="237.3201" y1="512.2407" y2="512.2407"/><polygon fill="#333333" points="247.3201,508.2407,237.3201,512.2407,247.3201,516.2407,243.3201,512.2407" style="stroke:#333333;stroke-width:1.0;"/><line style="stroke:#333333;stroke-width:1.0;" x1="225.3201" x2="225.3201" y1="671.2388" y2="676.2388"/><line style="stroke:#333333;stroke-width:1.0;" x1="225.3201" x2="693.4996" y1="676.2388" y2="676.2388"/><line style="stroke:#333333;stroke-width:1.0;" x1="693.4996" x2="693.4996" y1="676.2388" y2="691.2388"/><polygon fill="#333333" points="689.4996,681.2388,693.4996,691.2388,697.4996,681.2388,693.4996,685.2388" style="stroke:#333333;stroke-width:1.0;"/><line style="stroke:#333333;stroke-width:1.0;" x1="717.4996" x2="762.4034" y1="793.2388" y2="793.2388"/><polygon fill="#333333" points="758.4034,706.9893,762.4034,696.9893,766.4034,706.9893,762.4034,702.9893" style="stroke:#333333;stroke-width:1.0;"/><line style="stroke:#333333;stroke-width:1.0;" x1="762.4034" x2="762.4034" y1="607.7397" y2="793.2388"/><line style="stroke:#333333;stroke-width:1.0;" x1="762.4034" x2="237.3201" y1="607.7397" y2="607.7397"/><polygon fill="#333333" points="247.3201,603.7397,237.3201,607.7397,247.3201,611.7397,243.3201,607.7397" style="stroke:#333333;stroke-width:1.0;"/><line style="stroke:#333333;stroke-width:1.0;" x1="693.4996" x2="693.4996" y1="805.2388" y2="810.2388"/><line style="stroke:#333333;stroke-width:1.0;" x1="693.4996" x2="225.3201" y1="810.2388" y2="810.2388"/><line style="stroke:#333333;stroke-width:1.0;" x1="225.3201" x2="225.3201" y1="810.2388" y2="825.2388"/><polygon fill="#333333" points="221.3201,815.2388,225.3201,825.2388,229.3201,815.2388,225.3201,819.2388" style="stroke:#333333;stroke-width:1.0;"/><line style="stroke:#333333;stroke-width:1.0;" x1="225.3201" x2="225.3201" y1="1003.7358" y2="1008.7358"/><line style="stroke:#333333;stroke-width:1.0;" x1="225.3201" x2="953.2665" y1="1008.7358" y2="1008.7358"/><line style="stroke:#333333;stroke-width:1.0;" x1="953.2665" x2="953.2665" y1="1008.7358" y2="1023.7358"/><polygon fill="#333333" points="949.2665,1013.7358,953.2665,1023.7358,957.2665,1013.7358,953.2665,1017.7358" style="stroke:#333333;stroke-width:1.0;"/><line style="stroke:#333333;stroke-width:1.0;" x1="915.9711" x2="125.632" y1="1190.2329" y2="1190.2329"/><line style="stroke:#333333;stroke-width:1.0;" x1="125.632" x2="125.632" y1="1190.2329" y2="1222.2329"/><polygon fill="#333333" points="121.632,1212.2329,125.632,1222.2329,129.632,1212.2329,125.632,1216.2329" style="stroke:#333333;stroke-width:1.0;"/><line style="stroke:#333333;stroke-width:1.0;" x1="990.5619" x2="1002.5619" y1="1190.2329" y2="1190.2329"/><line style="stroke:#333333;stroke-width:1.0;" x1="1002.5619" x2="1002.5619" y1="1190.2329" y2="1208.2329"/><line style="stroke:#333333;stroke-width:1.0;" x1="1002.5619" x2="325.0082" y1="1208.2329" y2="1208.2329"/><line style="stroke:#333333;stroke-width:1.0;" x1="325.0082" x2="325.0082" y1="1208.2329" y2="1222.2329"/><polygon fill="#333333" points="321.0082,1212.2329,325.0082,1222.2329,329.0082,1212.2329,325.0082,1216.2329" style="stroke:#333333;stroke-width:1.0;"/><line style="stroke:#333333;stroke-width:1.0;" x1="125.632" x2="125.632" y1="1386.73" y2="1408.73"/><line style="stroke:#333333;stroke-width:1.0;" x1="125.632" x2="941.2665" y1="1408.73" y2="1408.73"/><polygon fill="#333333" points="931.2665,1404.73,941.2665,1408.73,931.2665,1412.73,935.2665,1408.73" style="stroke:#333333;stroke-width:1.0;"/><line style="stroke:#333333;stroke-width:1.0;" x1="325.0082" x2="325.0082" y1="1384.231" y2="1390.73"/><line style="stroke:#333333;stroke-width:1.0;" x1="325.0082" x2="983.2665" y1="1390.73" y2="1390.73"/><line style="stroke:#333333;stroke-width:1.0;" x1="983.2665" x2="983.2665" y1="1390.73" y2="1408.73"/><line style="stroke:#333333;stroke-width:1.0;" x1="983.2665" x2="965.2665" y1="1408.73" y2="1408.73"/><polygon fill="#333333" points="975.2665,1404.73,965.2665,1408.73,975.2665,1412.73,971.2665,1408.73" style="stroke:#333333;stroke-width:1.0;"/><line style="stroke:#333333;stroke-width:1.0;" x1="953.2665" x2="953.2665" y1="1420.73" y2="1425.73"/><line style="stroke:#333333;stroke-width:1.0;" x1="953.2665" x2="225.3201" y1="1425.73" y2="1425.73"/><line style="stroke:#333333;stroke-width:1.0;" x1="225.3201" x2="225.3201" y1="1425.73" y2="1440.73"/><polygon fill="#333333" points="221.3201,1430.73,225.3201,1440.73,229.3201,1430.73,225.3201,1434.73" style="stroke:#333333;stroke-width:1.0;"/><text fill="#000000" font-family="Arial" font-size="11" lengthAdjust="spacing" textLength="39.7354" x="219.316" y="58.4165">Sistema</text><text fill="#000000" font-family="Arial" font-size="11" lengthAdjust="spacing" textLength="25.6738" x="532.6447" y="58.4165">Tutor</text><text fill="#000000" font-family="Arial" font-size="11" lengthAdjust="spacing" textLength="69.0938" x="722.1763" y="58.4165">Recepcionista</text><text fill="#000000" font-family="Arial" font-size="11" lengthAdjust="spacing" textLength="53.1953" x="925.6688" y="58.4165">Veterin&#225;rio</text><!--SRC=[TLFBZjD04BpxAvfR8XGEY9CZWQBTH20XY3Qm5uIYZjs9Mundh9bnM91_1d7Oqtw5VuoUSMmdgt2AfnzLrTMT5wmpLUS4syoKfT6lghfKIUBPAuALgXyCI79n89rZITeR8BWnsjNAOv8q6tQUIcmIvz7wXFSm-MpvGEMxAVY2D4o-hOtrgBvF4u3cI-sDRUGhNMJa74ANd8V8XXHbR3HQs90zSljeu2LyrPnZJg5Y99FgU_AB8xB27Ilsls97Hcbw6EAAfCPDfX5ynSfRGQwCXPr5dHLRpWMUtVP8VkiAtljOk7pW7LjuRspxnx9nSCkkChfzEXAx-UKCIvSPLP058IBBEdO8QDyS0SMiFTjIkCzCd2Ua78avTvHHrJwsVqrdK7m75sJKRj0RLDBMGzzYBfgYXEUcdPoIehKrUtOkX3jhEsRfa1_UdwyjtNZqjKjFud9HbbYg27tegqAzFaZichImxAW4JZEQUjowxaSw3UguZ4yG-mb_X4JKqf71pu8L3Mso5fWi3ZNQ77LkfbSLzyP6pUb7AWNO4xn-Kro-mxCvtv1WVD2SCThXakSZxBA4nRYc9ErBu8vGyM_CfJZUkIJadzC-vNXbwejR7HJBtP6AWYKgUD7py9ZDtZRtHWLVd_archosv4GKZMoZf-TqPuGhrftco1WEGP1cAqdQVi1XGOFq_w9zaWfnhApGoYdKys67fwjotbJ_0000]--></g></svg>