<svg xmlns="http://www.w3.org/2000/svg" xmlns:xlink="http://www.w3.org/1999/xlink" contentStyleType="text/css" data-diagram-type="ACTIVITY" height="929px" preserveAspectRatio="none" style="width:766px;height:929px;background:#FEFEFE;" version="1.1" viewBox="0 0 766 929" width="766px" zoomAndPan="magnify"><title>Fluxo de Agendamento e Consulta</title><defs/><g><rect fill="#FEFEFE" height="929" style="stroke:none;stroke-width:1;" width="766" x="0" y="0"/><text fill="#000000" font-family="Arial" font-size="14" font-weight="bold" lengthAdjust="spacing" textLength="230.2412" x="266.6259" y="33.1318">Fluxo de Agendamento e Consulta</text><rect fill="none" height="12.6489" style="stroke:none;stroke-width:1;" width="733.4929" x="15" y="48.0986"/><ellipse cx="105.7632" cy="75.7476" fill="#222222" rx="10" ry="10" style="stroke:#222222;stroke-width:1;"/><polygon fill="#FFFFFF" points="86.5908,105.7476,124.9355,105.7476,136.9355,117.7476,124.9355,129.7476,86.5908,129.7476,74.5908,117.7476,86.5908,105.7476" style="stroke:#333333;stroke-width:0.5;"/><text fill="#000000" font-family="Arial" font-size="10" lengthAdjust="spacing" textLength="38.3447" x="86.5908" y="121.3779">Origem?</text><text fill="#000000" font-family="Arial" font-size="9" lengthAdjust="spacing" textLength="28.5117" x="46.0791" y="115.8403">[Portal]</text><text fill="#000000" font-family="Arial" font-size="9" lengthAdjust="spacing" textLength="45.5273" x="136.9355" y="115.8403">[Recep&#231;&#227;o]</text><polygon fill="#FFFFFF" points="105.7632,191.2466,117.7632,203.2466,105.7632,215.2466,93.7632,203.2466,105.7632,191.2466" style="stroke:#333333;stroke-width:0.5;"/><rect fill="#FFFFFF" height="31.499" rx="12.5" ry="12.5" style="stroke:#333333;stroke-width:0.5;" width="55.5908" x="77.9678" y="279.2466"/><text fill="#000000" font-family="Arial" font-size="10" lengthAdjust="spacing" textLength="35.5908" x="87.9678" y="298.6265">pending</text><polygon fill="#FFFFFF" points="105.7632,235.2466,117.7632,247.2466,105.7632,259.2466,93.7632,247.2466,105.7632,235.2466" style="stroke:#333333;stroke-width:0.5;"/><polygon fill="#FFFFFF" points="105.7632,464.7456,117.7632,476.7456,105.7632,488.7456,93.7632,476.7456,105.7632,464.7456" style="stroke:#333333;stroke-width:0.5;"/><rect fill="#FFFFFF" height="31.499" rx="12.5" ry="12.5" style="stroke:#333333;stroke-width:0.5;" width="63.9063" x="73.8101" y="508.7456"/><text fill="#000000" font-family="Arial" font-size="10" lengthAdjust="spacing" textLength="43.9063" x="83.8101" y="528.1255">confirmed</text><rect fill="#FFFFFF" height="31.499" rx="12.5" ry="12.5" style="stroke:#333333;stroke-width:0.5;" width="81.709" x="64.9087" y="560.2446"/><text fill="#000000" font-family="Arial" font-size="10" lengthAdjust="spacing" textLength="61.709" x="74.9087" y="579.6245">Lembrete 24h</text><rect fill="#FFFFFF" height="31.499" rx="12.5" ry="12.5" style="stroke:#333333;stroke-width:0.5;" width="76.1475" x="67.6895" y="611.7437"/><text fill="#000000" font-family="Arial" font-size="10" lengthAdjust="spacing" textLength="56.1475" x="77.6895" y="631.1235">Lembrete 2h</text><rect fill="#FFFFFF" height="31.499" rx="12.5" ry="12.5" style="stroke:#333333;stroke-width:0.5;" width="66.1523" x="21" y="758.7417"/><text fill="#000000" font-family="Arial" font-size="10" lengthAdjust="spacing" textLength="46.1523" x="31" y="778.1216">Reagenda</text><rect fill="#FFFFFF" height="31.499" rx="12.5" ry="12.5" style="stroke:#333333;stroke-width:0.5;" width="57.1582" x="25.4971" y="810.2407"/><text fill="#000000" font-family="Arial" font-size="10" lengthAdjust="spacing" textLength="37.1582" x="35.4971" y="829.6206">-&gt;|Volta|</text><rect fill="#FFFFFF" height="31.499" rx="12.5" ry="12.5" style="stroke:#333333;stroke-width:0.5;" width="100.5957" x="107.1523" y="758.7417"/><text fill="#000000" font-family="Arial" font-size="10" lengthAdjust="spacing" textLength="80.5957" x="117.1523" y="778.1216">Auto-Faturamento</text><ellipse cx="105.7632" cy="906.7397" fill="none" rx="11" ry="11" style="stroke:#222222;stroke-width:1;"/><ellipse cx="105.7632" cy="906.7397" fill="#222222" rx="6" ry="6" style="stroke:#222222;stroke-width:1;"/><line style="stroke:#333333;stroke-width:1.5;" x1="15" x2="15" y1="48.0986" y2="917.7397"/><rect fill="#FFFFFF" height="31.499" rx="12.5" ry="12.5" style="stroke:#333333;stroke-width:0.5;" width="177.2949" x="217.748" y="149.7476"/><text fill="#000000" font-family="Arial" font-size="10" lengthAdjust="spacing" textLength="157.2949" x="227.748" y="169.1274">Acessa Portal Pet+Servi&#231;o+Hor&#225;rio</text><line style="stroke:#333333;stroke-width:1.5;" x1="211.748" x2="211.748" y1="48.0986" y2="917.7397"/><rect fill="#FFFFFF" height="31.499" rx="12.5" ry="12.5" style="stroke:#333333;stroke-width:0.5;" width="134.7852" x="485.5742" y="149.7476"/><text fill="#000000" font-family="Arial" font-size="10" lengthAdjust="spacing" textLength="114.7852" x="495.5742" y="169.1274">Calend&#225;rio + Dados Tutor</text><polygon fill="#FFFFFF" points="426.043,330.7456,503.8506,330.7456,515.8506,342.7456,503.8506,354.7456,426.043,354.7456,414.043,342.7456,426.043,330.7456" style="stroke:#333333;stroke-width:0.5;"/><text fill="#000000" font-family="Arial" font-size="9" lengthAdjust="spacing" textLength="18.9976" x="468.9468" y="363.1875">[sim]</text><text fill="#000000" font-family="Arial" font-size="10" lengthAdjust="spacing" textLength="77.8076" x="426.043" y="346.376">Tutor Confirmou?</text><text fill="#000000" font-family="Arial" font-size="9" lengthAdjust="spacing" textLength="20.0171" x="515.8506" y="340.8384">[n&#227;o]</text><polygon fill="#FFFFFF" points="452.9468,420.7456,476.9468,420.7456,488.9468,432.7456,476.9468,444.7456,452.9468,444.7456,440.9468,432.7456,452.9468,420.7456" style="stroke:#333333;stroke-width:0.5;"/><text fill="#000000" font-family="Arial" font-size="10" lengthAdjust="spacing" textLength="22.2412" x="453.8262" y="436.376">[n&#227;o]</text><text fill="#000000" font-family="Arial" font-size="9" lengthAdjust="spacing" textLength="49.043" x="488.9468" y="430.8384">Aguardando</text><line style="stroke:#333333;stroke-width:1.5;" x1="399.043" x2="399.043" y1="48.0986" y2="917.7397"/><rect fill="#FFFFFF" height="31.499" rx="12.5" ry="12.5" style="stroke:#333333;stroke-width:0.5;" width="106.7188" x="633.3125" y="663.2427"/><text fill="#000000" font-family="Arial" font-size="10" lengthAdjust="spacing" textLength="86.7188" x="643.3125" y="682.6226">Consulta Realizada</text><polygon fill="#FFFFFF" points="661.3765,714.7417,711.9673,714.7417,723.9673,726.7417,711.9673,738.7417,661.3765,738.7417,649.3765,726.7417,661.3765,714.7417" style="stroke:#333333;stroke-width:0.5;"/><text fill="#000000" font-family="Arial" font-size="10" lengthAdjust="spacing" textLength="50.5908" x="661.3765" y="730.3721">Conclu&#237;da?</text><text fill="#000000" font-family="Arial" font-size="9" lengthAdjust="spacing" textLength="20.0171" x="629.3594" y="724.8345">[n&#227;o]</text><text fill="#000000" font-family="Arial" font-size="9" lengthAdjust="spacing" textLength="18.9976" x="723.9673" y="724.8345">[sim]</text><polygon fill="#FFFFFF" points="686.6719,851.7397,698.6719,863.7397,686.6719,875.7397,674.6719,863.7397,686.6719,851.7397" style="stroke:#333333;stroke-width:0.5;"/><line style="stroke:#333333;stroke-width:1.5;" x1="624.3594" x2="624.3594" y1="48.0986" y2="917.7397"/><line style="stroke:#333333;stroke-width:1.5;" x1="747.9648" x2="747.9648" y1="48.0986" y2="917.7397"/><line style="stroke:#333333;stroke-width:1;" x1="105.7632" x2="105.7632" y1="85.7476" y2="105.7476"/><polygon fill="#333333" points="101.7632,95.7476,105.7632,105.7476,109.7632,95.7476,105.7632,99.7476" style="stroke:#333333;stroke-width:1;"/><line style="stroke:#333333;stroke-width:1;" x1="105.7632" x2="105.7632" y1="259.2466" y2="279.2466"/><polygon fill="#333333" points="101.7632,269.2466,105.7632,279.2466,109.7632,269.2466,105.7632,273.2466" style="stroke:#333333;stroke-width:1;"/><line style="stroke:#333333;stroke-width:1;" x1="105.7632" x2="105.7632" y1="215.2466" y2="235.2466"/><polygon fill="#333333" points="101.7632,225.2466,105.7632,235.2466,109.7632,225.2466,105.7632,229.2466" style="stroke:#333333;stroke-width:1;"/><line style="stroke:#333333;stroke-width:1;" x1="105.7632" x2="105.7632" y1="488.7456" y2="508.7456"/><polygon fill="#333333" points="101.7632,498.7456,105.7632,508.7456,109.7632,498.7456,105.7632,502.7456" style="stroke:#333333;stroke-width:1;"/><line style="stroke:#333333;stroke-width:1;" x1="105.7632" x2="105.7632" y1="540.2446" y2="560.2446"/><polygon fill="#333333" points="101.7632,550.2446,105.7632,560.2446,109.7632,550.2446,105.7632,554.2446" style="stroke:#333333;stroke-width:1;"/><line style="stroke:#333333;stroke-width:1;" x1="105.7632" x2="105.7632" y1="591.7437" y2="611.7437"/><polygon fill="#333333" points="101.7632,601.7437,105.7632,611.7437,109.7632,601.7437,105.7632,605.7437" style="stroke:#333333;stroke-width:1;"/><line style="stroke:#333333;stroke-width:1;" x1="54.0762" x2="54.0762" y1="790.2407" y2="810.2407"/><polygon fill="#333333" points="50.0762,800.2407,54.0762,810.2407,58.0762,800.2407,54.0762,804.2407" style="stroke:#333333;stroke-width:1;"/><line style="stroke:#333333;stroke-width:1;" x1="464.9468" x2="464.9468" y1="354.7456" y2="378.7456"/><polygon fill="#333333" points="460.9468,368.7456,464.9468,378.7456,468.9468,368.7456,464.9468,372.7456" style="stroke:#333333;stroke-width:1;"/><line style="stroke:#333333;stroke-width:1;" x1="515.8506" x2="527.8506" y1="342.7456" y2="342.7456"/><polygon fill="#333333" points="523.8506,365.7456,527.8506,375.7456,531.8506,365.7456,527.8506,369.7456" style="stroke:#333333;stroke-width:1;"/><line style="stroke:#333333;stroke-width:1;" x1="527.8506" x2="527.8506" y1="342.7456" y2="400.7456"/><line style="stroke:#333333;stroke-width:1;" x1="527.8506" x2="464.9468" y1="400.7456" y2="400.7456"/><line style="stroke:#333333;stroke-width:1;" x1="464.9468" x2="464.9468" y1="400.7456" y2="420.7456"/><polygon fill="#333333" points="460.9468,410.7456,464.9468,420.7456,468.9468,410.7456,464.9468,414.7456" style="stroke:#333333;stroke-width:1;"/><line style="stroke:#333333;stroke-width:1;" x1="686.6719" x2="686.6719" y1="694.7417" y2="714.7417"/><polygon fill="#333333" points="682.6719,704.7417,686.6719,714.7417,690.6719,704.7417,686.6719,708.7417" style="stroke:#333333;stroke-width:1;"/><line style="stroke:#333333;stroke-width:1;" x1="74.5908" x2="62.5908" y1="117.7476" y2="117.7476"/><line style="stroke:#333333;stroke-width:1;" x1="62.5908" x2="62.5908" y1="117.7476" y2="135.7476"/><line style="stroke:#333333;stroke-width:1;" x1="62.5908" x2="306.3955" y1="135.7476" y2="135.7476"/><line style="stroke:#333333;stroke-width:1;" x1="306.3955" x2="306.3955" y1="135.7476" y2="149.7476"/><polygon fill="#333333" points="302.3955,139.7476,306.3955,149.7476,310.3955,139.7476,306.3955,143.7476" style="stroke:#333333;stroke-width:1;"/><line style="stroke:#333333;stroke-width:1;" x1="136.9355" x2="552.9668" y1="117.7476" y2="117.7476"/><line style="stroke:#333333;stroke-width:1;" x1="552.9668" x2="552.9668" y1="117.7476" y2="149.7476"/><polygon fill="#333333" points="548.9668,139.7476,552.9668,149.7476,556.9668,139.7476,552.9668,143.7476" style="stroke:#333333;stroke-width:1;"/><line style="stroke:#333333;stroke-width:1;" x1="306.3955" x2="306.3955" y1="181.2466" y2="185.2466"/><line style="stroke:#333333;stroke-width:1;" x1="306.3955" x2="75.7632" y1="185.2466" y2="185.2466"/><line style="stroke:#333333;stroke-width:1;" x1="75.7632" x2="75.7632" y1="185.2466" y2="203.2466"/><line style="stroke:#333333;stroke-width:1;" x1="75.7632" x2="93.7632" y1="203.2466" y2="203.2466"/><polygon fill="#333333" points="83.7632,199.2466,93.7632,203.2466,83.7632,207.2466,87.7632,203.2466" style="stroke:#333333;stroke-width:1;"/><line style="stroke:#333333;stroke-width:1;" x1="552.9668" x2="552.9668" y1="181.2466" y2="203.2466"/><line style="stroke:#333333;stroke-width:1;" x1="552.9668" x2="117.7632" y1="203.2466" y2="203.2466"/><polygon fill="#333333" points="127.7632,199.2466,117.7632,203.2466,127.7632,207.2466,123.7632,203.2466" style="stroke:#333333;stroke-width:1;"/><line style="stroke:#333333;stroke-width:1;" x1="105.7632" x2="105.7632" y1="310.7456" y2="315.7456"/><line style="stroke:#333333;stroke-width:1;" x1="105.7632" x2="464.9468" y1="315.7456" y2="315.7456"/><line style="stroke:#333333;stroke-width:1;" x1="464.9468" x2="464.9468" y1="315.7456" y2="330.7456"/><polygon fill="#333333" points="460.9468,320.7456,464.9468,330.7456,468.9468,320.7456,464.9468,324.7456" style="stroke:#333333;stroke-width:1;"/><line style="stroke:#333333;stroke-width:1;" x1="488.9468" x2="533.8506" y1="432.7456" y2="432.7456"/><polygon fill="#333333" points="529.8506,346.4961,533.8506,336.4961,537.8506,346.4961,533.8506,342.4961" style="stroke:#333333;stroke-width:1;"/><line style="stroke:#333333;stroke-width:1;" x1="533.8506" x2="533.8506" y1="247.2466" y2="432.7456"/><line style="stroke:#333333;stroke-width:1;" x1="533.8506" x2="117.7632" y1="247.2466" y2="247.2466"/><polygon fill="#333333" points="127.7632,243.2466,117.7632,247.2466,127.7632,251.2466,123.7632,247.2466" style="stroke:#333333;stroke-width:1;"/><line style="stroke:#333333;stroke-width:1;" x1="464.9468" x2="464.9468" y1="444.7456" y2="449.7456"/><line style="stroke:#333333;stroke-width:1;" x1="464.9468" x2="105.7632" y1="449.7456" y2="449.7456"/><line style="stroke:#333333;stroke-width:1;" x1="105.7632" x2="105.7632" y1="449.7456" y2="464.7456"/><polygon fill="#333333" points="101.7632,454.7456,105.7632,464.7456,109.7632,454.7456,105.7632,458.7456" style="stroke:#333333;stroke-width:1;"/><line style="stroke:#333333;stroke-width:1;" x1="105.7632" x2="105.7632" y1="643.2427" y2="648.2427"/><line style="stroke:#333333;stroke-width:1;" x1="105.7632" x2="686.6719" y1="648.2427" y2="648.2427"/><line style="stroke:#333333;stroke-width:1;" x1="686.6719" x2="686.6719" y1="648.2427" y2="663.2427"/><polygon fill="#333333" points="682.6719,653.2427,686.6719,663.2427,690.6719,653.2427,686.6719,657.2427" style="stroke:#333333;stroke-width:1;"/><line style="stroke:#333333;stroke-width:1;" x1="649.3765" x2="54.0762" y1="726.7417" y2="726.7417"/><line style="stroke:#333333;stroke-width:1;" x1="54.0762" x2="54.0762" y1="726.7417" y2="758.7417"/><polygon fill="#333333" points="50.0762,748.7417,54.0762,758.7417,58.0762,748.7417,54.0762,752.7417" style="stroke:#333333;stroke-width:1;"/><line style="stroke:#333333;stroke-width:1;" x1="723.9673" x2="735.9673" y1="726.7417" y2="726.7417"/><line style="stroke:#333333;stroke-width:1;" x1="735.9673" x2="735.9673" y1="726.7417" y2="744.7417"/><line style="stroke:#333333;stroke-width:1;" x1="735.9673" x2="157.4502" y1="744.7417" y2="744.7417"/><line style="stroke:#333333;stroke-width:1;" x1="157.4502" x2="157.4502" y1="744.7417" y2="758.7417"/><polygon fill="#333333" points="153.4502,748.7417,157.4502,758.7417,161.4502,748.7417,157.4502,752.7417" style="stroke:#333333;stroke-width:1;"/><line style="stroke:#333333;stroke-width:1;" x1="54.0762" x2="54.0762" y1="841.7397" y2="863.7397"/><line style="stroke:#333333;stroke-width:1;" x1="54.0762" x2="674.6719" y1="863.7397" y2="863.7397"/><polygon fill="#333333" points="664.6719,859.7397,674.6719,863.7397,664.6719,867.7397,668.6719,863.7397" style="stroke:#333333;stroke-width:1;"/><line style="stroke:#333333;stroke-width:1;" x1="157.4502" x2="157.4502" y1="790.2407" y2="845.7397"/><line style="stroke:#333333;stroke-width:1;" x1="157.4502" x2="716.6719" y1="845.7397" y2="845.7397"/><line style="stroke:#333333;stroke-width:1;" x1="716.6719" x2="716.6719" y1="845.7397" y2="863.7397"/><line style="stroke:#333333;stroke-width:1;" x1="716.6719" x2="698.6719" y1="863.7397" y2="863.7397"/><polygon fill="#333333" points="708.6719,859.7397,698.6719,863.7397,708.6719,867.7397,704.6719,863.7397" style="stroke:#333333;stroke-width:1;"/><line style="stroke:#333333;stroke-width:1;" x1="686.6719" x2="686.6719" y1="875.7397" y2="880.7397"/><line style="stroke:#333333;stroke-width:1;" x1="686.6719" x2="105.7632" y1="880.7397" y2="880.7397"/><line style="stroke:#333333;stroke-width:1;" x1="105.7632" x2="105.7632" y1="880.7397" y2="895.7397"/><polygon fill="#333333" points="101.7632,885.7397,105.7632,895.7397,109.7632,885.7397,105.7632,889.7397" style="stroke:#333333;stroke-width:1;"/><text fill="#000000" font-family="Arial" font-size="11" lengthAdjust="spacing" textLength="39.7354" x="93.5063" y="58.4165">Sistema</text><text fill="#000000" font-family="Arial" font-size="11" lengthAdjust="spacing" textLength="25.6738" x="292.5586" y="58.4165">Tutor</text><text fill="#000000" font-family="Arial" font-size="11" lengthAdjust="spacing" textLength="69.0938" x="477.1543" y="58.4165">Recepcionista</text><text fill="#000000" font-family="Arial" font-size="11" lengthAdjust="spacing" textLength="53.1953" x="659.5645" y="58.4165">Veterin&#225;rio</text><!--SRC=[RLBDIWCn4BxdASPRIwa7yTI2ibJ4Ww2ez28YusQw3IQP9ScgoBwCUF3aK-oBEPkrjOgtVCn-VpExPtnf6qrmNx9pxFVhnbcbaacMuDGsBmmoB2ho6Xtvn42mO1yRcr2fzjh4H0vR5HE6fCmAHXV1LEIEnv3Mv65qUyaXeRqRAu3sfaaSMddDYf9YH1Y6S4bfSatXoNGVF3dZqBq5mtD5Df8eN559TVVHlVEWad5fs8ivPhK5MWcOMJ214zGS8Nk9XjTcjPiqK4sOUbRTptmrL_-AzbsoHjztPOBZvgUKtuJvZXYDon3W8H0-zeFiEvZ1yzfOsjB0H1WLLOD1ezSytaqtAmSpqX9hTavEz1B1mU7wD-vXkvHdC3xt5khcBd15QCqhQfIF-Xeoa2Dtdnh_QV3ZBIiHPZxrNC1qUjGksVRR-DFo5wMG7KrFCJLX-46sAu-9woy0]--></g></svg>