<svg xmlns="http://www.w3.org/2000/svg" xmlns:xlink="http://www.w3.org/1999/xlink" contentStyleType="text/css" data-diagram-type="ACTIVITY" height="787px" preserveAspectRatio="none" style="width:484px;height:787px;background:#FEFEFE;" version="1.1" viewBox="0 0 484 787" width="484px" zoomAndPan="magnify"><title>Fluxo de Cadastro de Tutor e Pet</title><defs/><g><rect fill="#FEFEFE" height="787" style="stroke:none;stroke-width:1;" width="484" x="0" y="0"/><text fill="#000000" font-family="Arial" font-size="14" font-weight="bold" lengthAdjust="spacing" textLength="219.3652" x="131.2357" y="33.1318">Fluxo de Cadastro de Tutor e Pet</text><rect fill="none" height="12.6489" style="stroke:none;stroke-width:1;" width="451.8367" x="15" y="48.0986"/><ellipse cx="143.8394" cy="75.7476" fill="#222222" rx="10" ry="10" style="stroke:#222222;stroke-width:1;"/><rect fill="#FFFFFF" height="31.499" rx="12.5" ry="12.5" style="stroke:#333333;stroke-width:0.5;" width="90.0244" x="98.8271" y="105.7476"/><text fill="#000000" font-family="Arial" font-size="10" lengthAdjust="spacing" textLength="70.0244" x="108.8271" y="125.1274">Cadastrar Tutor</text><rect fill="#FFFFFF" height="31.499" rx="12.5" ry="12.5" style="stroke:#333333;stroke-width:0.5;" width="245.6787" x="21" y="157.2466"/><text fill="#000000" font-family="Arial" font-size="10" lengthAdjust="spacing" textLength="225.6787" x="31" y="176.6265">Preencher Nome+CPF+Email+Telefone+Endere&#231;o</text><rect fill="#FFFFFF" height="31.499" rx="12.5" ry="12.5" style="stroke:#333333;stroke-width:0.5;" width="181.1816" x="53.2485" y="311.7437"/><text fill="#000000" font-family="Arial" font-size="10" lengthAdjust="spacing" textLength="161.1816" x="63.2485" y="331.1235">Cadastrar Pet (nome, esp&#233;cie, ra&#231;a)</text><rect fill="#FFFFFF" height="31.499" rx="12.5" ry="12.5" style="stroke:#333333;stroke-width:0.5;" width="106.1328" x="90.7729" y="411.2427"/><text fill="#000000" font-family="Arial" font-size="10" lengthAdjust="spacing" textLength="86.1328" x="100.7729" y="430.6226">Registrar Microchip</text><polygon fill="#FFFFFF" points="119.6646,363.2427,168.0142,363.2427,180.0142,375.2427,168.0142,387.2427,119.6646,387.2427,107.6646,375.2427,119.6646,363.2427" style="stroke:#333333;stroke-width:0.5;"/><text fill="#000000" font-family="Arial" font-size="9" lengthAdjust="spacing" textLength="18.9976" x="147.8394" y="395.6846">[sim]</text><text fill="#000000" font-family="Arial" font-size="10" lengthAdjust="spacing" textLength="48.3496" x="119.6646" y="378.873">Microchip?</text><text fill="#000000" font-family="Arial" font-size="9" lengthAdjust="spacing" textLength="20.0171" x="180.0142" y="373.3354">[n&#227;o]</text><polygon fill="#FFFFFF" points="143.8394,462.7417,155.8394,474.7417,143.8394,486.7417,131.8394,474.7417,143.8394,462.7417" style="stroke:#333333;stroke-width:0.5;"/><rect fill="#FFFFFF" height="31.499" rx="12.5" ry="12.5" style="stroke:#333333;stroke-width:0.5;" width="107.5342" x="90.0723" y="506.7417"/><text fill="#000000" font-family="Arial" font-size="10" lengthAdjust="spacing" textLength="87.5342" x="100.0723" y="526.1216">RG Animal + &#211;rg&#227;o</text><rect fill="#FFFFFF" height="31.499" rx="12.5" ry="12.5" style="stroke:#333333;stroke-width:0.5;" width="102.8223" x="92.4282" y="606.2407"/><text fill="#000000" font-family="Arial" font-size="10" lengthAdjust="spacing" textLength="82.8223" x="102.4282" y="625.6206">Adicionar V&#237;nculos</text><polygon fill="#FFFFFF" points="97.7017,558.2407,189.9771,558.2407,201.9771,570.2407,189.9771,582.2407,97.7017,582.2407,85.7017,570.2407,97.7017,558.2407" style="stroke:#333333;stroke-width:0.5;"/><text fill="#000000" font-family="Arial" font-size="9" lengthAdjust="spacing" textLength="18.9976" x="147.8394" y="590.6826">[sim]</text><text fill="#000000" font-family="Arial" font-size="10" lengthAdjust="spacing" textLength="92.2754" x="97.7017" y="573.8711">V&#237;nculos Adicionais?</text><text fill="#000000" font-family="Arial" font-size="9" lengthAdjust="spacing" textLength="20.0171" x="201.9771" y="568.3335">[n&#227;o]</text><polygon fill="#FFFFFF" points="143.8394,657.7397,155.8394,669.7397,143.8394,681.7397,131.8394,669.7397,143.8394,657.7397" style="stroke:#333333;stroke-width:0.5;"/><line style="stroke:#333333;stroke-width:1.5;" x1="15" x2="15" y1="48.0986" y2="775.2388"/><rect fill="#FFFFFF" height="31.499" rx="12.5" ry="12.5" style="stroke:#333333;stroke-width:0.5;" width="102.251" x="318.3682" y="208.7456"/><text fill="#000000" font-family="Arial" font-size="10" lengthAdjust="spacing" textLength="82.251" x="328.3682" y="228.1255">Validar CPF &#218;nico</text><rect fill="#FFFFFF" height="31.499" rx="12.5" ry="12.5" style="stroke:#333333;stroke-width:0.5;" width="185.6299" x="276.6787" y="260.2446"/><text fill="#000000" font-family="Arial" font-size="10" lengthAdjust="spacing" textLength="165.6299" x="286.6787" y="279.6245">Registrar Prefer&#234;ncias de Notifica&#231;&#227;o</text><rect fill="#FFFFFF" height="31.499" rx="12.5" ry="12.5" style="stroke:#333333;stroke-width:0.5;" width="113.3838" x="312.8018" y="701.7397"/><text fill="#000000" font-family="Arial" font-size="10" lengthAdjust="spacing" textLength="93.3838" x="322.8018" y="721.1196">Timeline do Paciente</text><ellipse cx="369.4937" cy="764.2388" fill="none" rx="11" ry="11" style="stroke:#222222;stroke-width:1;"/><ellipse cx="369.4937" cy="764.2388" fill="#222222" rx="6" ry="6" style="stroke:#222222;stroke-width:1;"/><line style="stroke:#333333;stroke-width:1.5;" x1="270.6787" x2="270.6787" y1="48.0986" y2="775.2388"/><line style="stroke:#333333;stroke-width:1.5;" x1="466.3086" x2="466.3086" y1="48.0986" y2="775.2388"/><line style="stroke:#333333;stroke-width:1;" x1="143.8394" x2="143.8394" y1="85.7476" y2="105.7476"/><polygon fill="#333333" points="139.8394,95.7476,143.8394,105.7476,147.8394,95.7476,143.8394,99.7476" style="stroke:#333333;stroke-width:1;"/><line style="stroke:#333333;stroke-width:1;" x1="143.8394" x2="143.8394" y1="137.2466" y2="157.2466"/><polygon fill="#333333" points="139.8394,147.2466,143.8394,157.2466,147.8394,147.2466,143.8394,151.2466" style="stroke:#333333;stroke-width:1;"/><line style="stroke:#333333;stroke-width:1;" x1="143.8394" x2="143.8394" y1="387.2427" y2="411.2427"/><polygon fill="#333333" points="139.8394,401.2427,143.8394,411.2427,147.8394,401.2427,143.8394,405.2427" style="stroke:#333333;stroke-width:1;"/><line style="stroke:#333333;stroke-width:1;" x1="180.0142" x2="206.9058" y1="375.2427" y2="375.2427"/><polygon fill="#333333" points="202.9058,416.9922,206.9058,426.9922,210.9058,416.9922,206.9058,420.9922" style="stroke:#333333;stroke-width:1;"/><line style="stroke:#333333;stroke-width:1;" x1="206.9058" x2="206.9058" y1="375.2427" y2="474.7417"/><line style="stroke:#333333;stroke-width:1;" x1="206.9058" x2="155.8394" y1="474.7417" y2="474.7417"/><polygon fill="#333333" points="165.8394,470.7417,155.8394,474.7417,165.8394,478.7417,161.8394,474.7417" style="stroke:#333333;stroke-width:1;"/><line style="stroke:#333333;stroke-width:1;" x1="143.8394" x2="143.8394" y1="442.7417" y2="462.7417"/><polygon fill="#333333" points="139.8394,452.7417,143.8394,462.7417,147.8394,452.7417,143.8394,456.7417" style="stroke:#333333;stroke-width:1;"/><line style="stroke:#333333;stroke-width:1;" x1="143.8394" x2="143.8394" y1="343.2427" y2="363.2427"/><polygon fill="#333333" points="139.8394,353.2427,143.8394,363.2427,147.8394,353.2427,143.8394,357.2427" style="stroke:#333333;stroke-width:1;"/><line style="stroke:#333333;stroke-width:1;" x1="143.8394" x2="143.8394" y1="486.7417" y2="506.7417"/><polygon fill="#333333" points="139.8394,496.7417,143.8394,506.7417,147.8394,496.7417,143.8394,500.7417" style="stroke:#333333;stroke-width:1;"/><line style="stroke:#333333;stroke-width:1;" x1="143.8394" x2="143.8394" y1="582.2407" y2="606.2407"/><polygon fill="#333333" points="139.8394,596.2407,143.8394,606.2407,147.8394,596.2407,143.8394,600.2407" style="stroke:#333333;stroke-width:1;"/><line style="stroke:#333333;stroke-width:1;" x1="201.9771" x2="213.9771" y1="570.2407" y2="570.2407"/><polygon fill="#333333" points="209.9771,611.9902,213.9771,621.9902,217.9771,611.9902,213.9771,615.9902" style="stroke:#333333;stroke-width:1;"/><line style="stroke:#333333;stroke-width:1;" x1="213.9771" x2="213.9771" y1="570.2407" y2="669.7397"/><line style="stroke:#333333;stroke-width:1;" x1="213.9771" x2="155.8394" y1="669.7397" y2="669.7397"/><polygon fill="#333333" points="165.8394,665.7397,155.8394,669.7397,165.8394,673.7397,161.8394,669.7397" style="stroke:#333333;stroke-width:1;"/><line style="stroke:#333333;stroke-width:1;" x1="143.8394" x2="143.8394" y1="637.7397" y2="657.7397"/><polygon fill="#333333" points="139.8394,647.7397,143.8394,657.7397,147.8394,647.7397,143.8394,651.7397" style="stroke:#333333;stroke-width:1;"/><line style="stroke:#333333;stroke-width:1;" x1="143.8394" x2="143.8394" y1="538.2407" y2="558.2407"/><polygon fill="#333333" points="139.8394,548.2407,143.8394,558.2407,147.8394,548.2407,143.8394,552.2407" style="stroke:#333333;stroke-width:1;"/><line style="stroke:#333333;stroke-width:1;" x1="369.4937" x2="369.4937" y1="240.2446" y2="260.2446"/><polygon fill="#333333" points="365.4937,250.2446,369.4937,260.2446,373.4937,250.2446,369.4937,254.2446" style="stroke:#333333;stroke-width:1;"/><line style="stroke:#333333;stroke-width:1;" x1="369.4937" x2="369.4937" y1="733.2388" y2="753.2388"/><polygon fill="#333333" points="365.4937,743.2388,369.4937,753.2388,373.4937,743.2388,369.4937,747.2388" style="stroke:#333333;stroke-width:1;"/><line style="stroke:#333333;stroke-width:1;" x1="143.8394" x2="143.8394" y1="188.7456" y2="193.7456"/><line style="stroke:#333333;stroke-width:1;" x1="143.8394" x2="369.4937" y1="193.7456" y2="193.7456"/><line style="stroke:#333333;stroke-width:1;" x1="369.4937" x2="369.4937" y1="193.7456" y2="208.7456"/><polygon fill="#333333" points="365.4937,198.7456,369.4937,208.7456,373.4937,198.7456,369.4937,202.7456" style="stroke:#333333;stroke-width:1;"/><line style="stroke:#333333;stroke-width:1;" x1="369.4937" x2="369.4937" y1="291.7437" y2="296.7437"/><line style="stroke:#333333;stroke-width:1;" x1="369.4937" x2="143.8394" y1="296.7437" y2="296.7437"/><line style="stroke:#333333;stroke-width:1;" x1="143.8394" x2="143.8394" y1="296.7437" y2="311.7437"/><polygon fill="#333333" points="139.8394,301.7437,143.8394,311.7437,147.8394,301.7437,143.8394,305.7437" style="stroke:#333333;stroke-width:1;"/><line style="stroke:#333333;stroke-width:1;" x1="143.8394" x2="143.8394" y1="681.7397" y2="686.7397"/><line style="stroke:#333333;stroke-width:1;" x1="143.8394" x2="369.4937" y1="686.7397" y2="686.7397"/><line style="stroke:#333333;stroke-width:1;" x1="369.4937" x2="369.4937" y1="686.7397" y2="701.7397"/><polygon fill="#333333" points="365.4937,691.7397,369.4937,701.7397,373.4937,691.7397,369.4937,695.7397" style="stroke:#333333;stroke-width:1;"/><text fill="#000000" font-family="Arial" font-size="11" lengthAdjust="spacing" textLength="69.0938" x="108.2925" y="58.4165">Recepcionista</text><text fill="#000000" font-family="Arial" font-size="11" lengthAdjust="spacing" textLength="39.7354" x="348.626" y="58.4165">Sistema</text><!--SRC=[XP31IWCn48RlUOhnrhBY0-mUf9JMasMffHSH2SbiEv1CbYGB7leMthnwA0e-HLxCQQkbUF4IPfZv__-RN14RDrY4PnEy3tpJ3zufbIaxXBaRNWB8SAgjJZaUwzMGGmI45hDIkoKQx0q5ffJrJiaJiwf_zdKyRJUgRYCYcor6M0IFrRITLpEloLKhTDW5nch65YEMVMZKxa7Sq8jVlTQEhFY80CeRav5nlSGDdUp5jiDOFjcGJWUwHSZKaT5bNzuFJd_uBiY47qOiCDU0gIyVXgIA8jJZHYdgO7HF9WQpfVvs37cB3AD75jUdiKANKBf4NXg02w2pfb78bZebj7SmOVBQGGNbDMwEOCU0TVbYCxYGO6Bf0Aaf_PlrknhXB3zdNNpSYZmwOWGReDLo76UKs9H3_mq0]--></g></svg>