<svg xmlns="http://www.w3.org/2000/svg" xmlns:xlink="http://www.w3.org/1999/xlink" contentStyleType="text/css" data-diagram-type="ACTIVITY" height="809px" preserveAspectRatio="none" style="width:593px;height:809px;background:#FEFEFE;" version="1.1" viewBox="0 0 593 809" width="593px" zoomAndPan="magnify"><title>Fluxo de Conv&#234;nio, Claims e CVI</title><defs/><g><rect fill="#FEFEFE" height="809" style="stroke:none;stroke-width:1;" width="593" x="0" y="0"/><text fill="#000000" font-family="Arial" font-size="14" font-weight="bold" lengthAdjust="spacing" textLength="217.8203" x="186.2025" y="33.1318">Fluxo de Conv&#234;nio, Claims e CVI</text><rect fill="none" height="12.6489" style="stroke:none;stroke-width:1;" width="560.2253" x="15" y="48.0986"/><ellipse cx="87.9775" cy="75.7476" fill="#222222" rx="10" ry="10" style="stroke:#222222;stroke-width:1;"/><rect fill="#FFFFFF" height="31.499" rx="12.5" ry="12.5" style="stroke:#333333;stroke-width:0.5;" width="108.9355" x="33.5098" y="105.7476"/><text fill="#000000" font-family="Arial" font-size="10" lengthAdjust="spacing" textLength="88.9355" x="43.5098" y="125.1274">Cadastrar Conv&#234;nio</text><rect fill="#FFFFFF" height="31.499" rx="12.5" ry="12.5" style="stroke:#333333;stroke-width:0.5;" width="133.9551" x="21" y="157.2466"/><text fill="#000000" font-family="Arial" font-size="10" lengthAdjust="spacing" textLength="113.9551" x="31" y="176.6265">Tabela de Procedimentos</text><rect fill="#FFFFFF" height="31.499" rx="12.5" ry="12.5" style="stroke:#333333;stroke-width:0.5;" width="115.6055" x="30.1748" y="208.7456"/><text fill="#000000" font-family="Arial" font-size="10" lengthAdjust="spacing" textLength="95.6055" x="40.1748" y="228.1255">Realizar Atendimento</text><rect fill="#FFFFFF" height="31.499" rx="12.5" ry="12.5" style="stroke:#333333;stroke-width:0.5;" width="114.4971" x="30.729" y="308.2446"/><text fill="#000000" font-family="Arial" font-size="10" lengthAdjust="spacing" textLength="94.4971" x="40.729" y="327.6245">Faturamento de Guia</text><rect fill="#FFFFFF" height="31.499" rx="12.5" ry="12.5" style="stroke:#333333;stroke-width:0.5;" width="112.8369" x="31.5591" y="359.7437"/><text fill="#000000" font-family="Arial" font-size="10" lengthAdjust="spacing" textLength="92.8369" x="41.5591" y="379.1235">Lote de Faturamento</text><polygon fill="#FFFFFF" points="45.4458,260.2446,130.5093,260.2446,142.5093,272.2446,130.5093,284.2446,45.4458,284.2446,33.4458,272.2446,45.4458,260.2446" style="stroke:#333333;stroke-width:0.5;"/><text fill="#000000" font-family="Arial" font-size="9" lengthAdjust="spacing" textLength="18.9976" x="91.9775" y="292.6865">[sim]</text><text fill="#000000" font-family="Arial" font-size="10" lengthAdjust="spacing" textLength="85.0635" x="45.4458" y="275.875">Pet &#233; Conveniado?</text><text fill="#000000" font-family="Arial" font-size="9" lengthAdjust="spacing" textLength="20.0171" x="142.5093" y="270.3374">[n&#227;o]</text><ellipse cx="184.5264" cy="272.2446" fill="none" rx="11" ry="11" style="stroke:#222222;stroke-width:1;"/><ellipse cx="184.5264" cy="272.2446" fill="#222222" rx="6" ry="6" style="stroke:#222222;stroke-width:1;"/><line style="stroke:#333333;stroke-width:1.5;" x1="15" x2="15" y1="48.0986" y2="797.7378"/><rect fill="#FFFFFF" height="31.499" rx="12.5" ry="12.5" style="stroke:#333333;stroke-width:0.5;" width="107.2754" x="235.5337" y="411.2427"/><text fill="#000000" font-family="Arial" font-size="10" lengthAdjust="spacing" textLength="87.2754" x="245.5337" y="430.6226">Enviar ao Conv&#234;nio</text><rect fill="#FFFFFF" height="31.499" rx="12.5" ry="12.5" style="stroke:#333333;stroke-width:0.5;" width="167.29" x="205.5264" y="613.7397"/><text fill="#000000" font-family="Arial" font-size="10" lengthAdjust="spacing" textLength="147.29" x="215.5264" y="633.1196">claims:auto-file API Porto Seguro</text><rect fill="#FFFFFF" height="31.499" rx="12.5" ry="12.5" style="stroke:#333333;stroke-width:0.5;" width="122.2656" x="228.0386" y="680.2388"/><text fill="#000000" font-family="Arial" font-size="10" lengthAdjust="spacing" textLength="102.2656" x="238.0386" y="699.6187">Webhook POST /api/...</text><polygon fill="#FFFFFF" points="249.1567,565.7397,329.186,565.7397,341.186,577.7397,329.186,589.7397,249.1567,589.7397,237.1567,577.7397,249.1567,565.7397" style="stroke:#333333;stroke-width:0.5;"/><text fill="#000000" font-family="Arial" font-size="9" lengthAdjust="spacing" textLength="18.9976" x="293.1714" y="598.1816">[sim]</text><text fill="#000000" font-family="Arial" font-size="10" lengthAdjust="spacing" textLength="80.0293" x="249.1567" y="581.3701">Auto-Claim Ativo?</text><text fill="#000000" font-family="Arial" font-size="9" lengthAdjust="spacing" textLength="20.0171" x="341.186" y="575.8325">[n&#227;o]</text><polygon fill="#FFFFFF" points="289.1714,731.7378,301.1714,743.7378,289.1714,755.7378,277.1714,743.7378,289.1714,731.7378" style="stroke:#333333;stroke-width:0.5;"/><ellipse cx="289.1714" cy="786.7378" fill="none" rx="11" ry="11" style="stroke:#222222;stroke-width:1;"/><ellipse cx="289.1714" cy="786.7378" fill="#222222" rx="6" ry="6" style="stroke:#222222;stroke-width:1;"/><line style="stroke:#333333;stroke-width:1.5;" x1="199.5264" x2="199.5264" y1="48.0986" y2="797.7378"/><rect fill="#FFFFFF" height="31.499" rx="12.5" ry="12.5" style="stroke:#333333;stroke-width:0.5;" width="88.916" x="444.7988" y="462.7417"/><text fill="#000000" font-family="Arial" font-size="10" lengthAdjust="spacing" textLength="68.916" x="454.7988" y="482.1216">Processar Guia</text><rect fill="#FFFFFF" height="31.499" rx="12.5" ry="12.5" style="stroke:#333333;stroke-width:0.5;" width="162.8809" x="407.8164" y="514.2407"/><text fill="#000000" font-family="Arial" font-size="10" lengthAdjust="spacing" textLength="142.8809" x="417.8164" y="533.6206">Status: Pago/Glosado/Pendente</text><line style="stroke:#333333;stroke-width:1.5;" x1="401.8164" x2="401.8164" y1="48.0986" y2="797.7378"/><line style="stroke:#333333;stroke-width:1.5;" x1="574.6973" x2="574.6973" y1="48.0986" y2="797.7378"/><line style="stroke:#333333;stroke-width:1;" x1="87.9775" x2="87.9775" y1="85.7476" y2="105.7476"/><polygon fill="#333333" points="83.9775,95.7476,87.9775,105.7476,91.9775,95.7476,87.9775,99.7476" style="stroke:#333333;stroke-width:1;"/><line style="stroke:#333333;stroke-width:1;" x1="87.9775" x2="87.9775" y1="137.2466" y2="157.2466"/><polygon fill="#333333" points="83.9775,147.2466,87.9775,157.2466,91.9775,147.2466,87.9775,151.2466" style="stroke:#333333;stroke-width:1;"/><line style="stroke:#333333;stroke-width:1;" x1="87.9775" x2="87.9775" y1="188.7456" y2="208.7456"/><polygon fill="#333333" points="83.9775,198.7456,87.9775,208.7456,91.9775,198.7456,87.9775,202.7456" style="stroke:#333333;stroke-width:1;"/><line style="stroke:#333333;stroke-width:1;" x1="87.9775" x2="87.9775" y1="339.7437" y2="359.7437"/><polygon fill="#333333" points="83.9775,349.7437,87.9775,359.7437,91.9775,349.7437,87.9775,353.7437" style="stroke:#333333;stroke-width:1;"/><line style="stroke:#333333;stroke-width:1;" x1="87.9775" x2="87.9775" y1="284.2446" y2="308.2446"/><polygon fill="#333333" points="83.9775,298.2446,87.9775,308.2446,91.9775,298.2446,87.9775,302.2446" style="stroke:#333333;stroke-width:1;"/><line style="stroke:#333333;stroke-width:1;" x1="142.5093" x2="173.5264" y1="272.2446" y2="272.2446"/><polygon fill="#333333" points="163.5264,268.2446,173.5264,272.2446,163.5264,276.2446,167.5264,272.2446" style="stroke:#333333;stroke-width:1;"/><line style="stroke:#333333;stroke-width:1;" x1="87.9775" x2="87.9775" y1="240.2446" y2="260.2446"/><polygon fill="#333333" points="83.9775,250.2446,87.9775,260.2446,91.9775,250.2446,87.9775,254.2446" style="stroke:#333333;stroke-width:1;"/><line style="stroke:#333333;stroke-width:1;" x1="289.1714" x2="289.1714" y1="645.2388" y2="680.2388"/><polygon fill="#333333" points="285.1714,670.2388,289.1714,680.2388,293.1714,670.2388,289.1714,674.2388" style="stroke:#333333;stroke-width:1;"/><line style="stroke:#333333;stroke-width:1;" x1="289.1714" x2="289.1714" y1="589.7397" y2="613.7397"/><polygon fill="#333333" points="285.1714,603.7397,289.1714,613.7397,293.1714,603.7397,289.1714,607.7397" style="stroke:#333333;stroke-width:1;"/><line style="stroke:#333333;stroke-width:1;" x1="341.186" x2="382.8164" y1="577.7397" y2="577.7397"/><polygon fill="#333333" points="378.8164,652.7388,382.8164,662.7388,386.8164,652.7388,382.8164,656.7388" style="stroke:#333333;stroke-width:1;"/><line style="stroke:#333333;stroke-width:1;" x1="382.8164" x2="382.8164" y1="577.7397" y2="743.7378"/><line style="stroke:#333333;stroke-width:1;" x1="382.8164" x2="301.1714" y1="743.7378" y2="743.7378"/><polygon fill="#333333" points="311.1714,739.7378,301.1714,743.7378,311.1714,747.7378,307.1714,743.7378" style="stroke:#333333;stroke-width:1;"/><line style="stroke:#333333;stroke-width:1;" x1="289.1714" x2="289.1714" y1="711.7378" y2="731.7378"/><polygon fill="#333333" points="285.1714,721.7378,289.1714,731.7378,293.1714,721.7378,289.1714,725.7378" style="stroke:#333333;stroke-width:1;"/><line style="stroke:#333333;stroke-width:1;" x1="289.1714" x2="289.1714" y1="755.7378" y2="775.7378"/><polygon fill="#333333" points="285.1714,765.7378,289.1714,775.7378,293.1714,765.7378,289.1714,769.7378" style="stroke:#333333;stroke-width:1;"/><line style="stroke:#333333;stroke-width:1;" x1="489.2568" x2="489.2568" y1="494.2407" y2="514.2407"/><polygon fill="#333333" points="485.2568,504.2407,489.2568,514.2407,493.2568,504.2407,489.2568,508.2407" style="stroke:#333333;stroke-width:1;"/><line style="stroke:#333333;stroke-width:1;" x1="87.9775" x2="87.9775" y1="391.2427" y2="396.2427"/><line style="stroke:#333333;stroke-width:1;" x1="87.9775" x2="289.1714" y1="396.2427" y2="396.2427"/><line style="stroke:#333333;stroke-width:1;" x1="289.1714" x2="289.1714" y1="396.2427" y2="411.2427"/><polygon fill="#333333" points="285.1714,401.2427,289.1714,411.2427,293.1714,401.2427,289.1714,405.2427" style="stroke:#333333;stroke-width:1;"/><line style="stroke:#333333;stroke-width:1;" x1="289.1714" x2="289.1714" y1="442.7417" y2="447.7417"/><line style="stroke:#333333;stroke-width:1;" x1="289.1714" x2="489.2568" y1="447.7417" y2="447.7417"/><line style="stroke:#333333;stroke-width:1;" x1="489.2568" x2="489.2568" y1="447.7417" y2="462.7417"/><polygon fill="#333333" points="485.2568,452.7417,489.2568,462.7417,493.2568,452.7417,489.2568,456.7417" style="stroke:#333333;stroke-width:1;"/><line style="stroke:#333333;stroke-width:1;" x1="489.2568" x2="489.2568" y1="545.7397" y2="550.7397"/><line style="stroke:#333333;stroke-width:1;" x1="489.2568" x2="289.1714" y1="550.7397" y2="550.7397"/><line style="stroke:#333333;stroke-width:1;" x1="289.1714" x2="289.1714" y1="550.7397" y2="565.7397"/><polygon fill="#333333" points="285.1714,555.7397,289.1714,565.7397,293.1714,555.7397,289.1714,559.7397" style="stroke:#333333;stroke-width:1;"/><text fill="#000000" font-family="Arial" font-size="11" lengthAdjust="spacing" textLength="53.1953" x="80.6655" y="58.4165">Veterin&#225;rio</text><text fill="#000000" font-family="Arial" font-size="11" lengthAdjust="spacing" textLength="39.7354" x="280.8037" y="58.4165">Sistema</text><text fill="#000000" font-family="Arial" font-size="11" lengthAdjust="spacing" textLength="52.5884" x="461.9626" y="58.4165">Operadora</text><!--SRC=[RL7DIiD04BxlKwot5ZIvfmSfnPQ2q61AFOZ8c4pRmSrEsDqKaRoCUDBNo8ivcugMucKFttpx_SnSa2rDMw5-AhcksIPDMnkb0WM3UcxQLzOodB4zz5-M-5BF353jjM2RfLBT1WCwilsx8-wK3-22ocPGWGyEtD_7YShMy8m6ebpkkCIAQhI1lKpk40oz2NqQqFxW4wLegqSv1jr_3Zfe2Ig-7kkmHwj73xR_uCUnqje7RXGQZm9wgWSicqDe7GnIqNBH4amYVii18t0oZtXNa0zOGnSvD_P0aWRuDBzmLWqwYU2EhA65zqBy5I-2gFfCvx3ZT67O2plDfPFOuBbDh3Tj0ryDAvNkTFYltLanSIc74sGG_sv9xZJDbpfd9qqBtBLk22kyUtpUCx_eV5MiTGeDfKcIn5bSybOTNnMtzmq0]--></g></svg>