<?xml version="1.0" encoding="UTF-8"?>
<svg xmlns="http://www.w3.org/2000/svg" width="1477" height="699" viewBox="-76 -30 1477 699">
<defs><marker id="arrowhead" markerWidth="8" markerHeight="6" refX="8" refY="3" orient="auto"><polygon points="0 0, 8 3, 0 6" fill="#000"/></marker></defs>
<switch><g transform="translate(0.5,0.5)">


















<rect x="10" y="5" width="1280" height="28" rx="4" ry="4" fill="#fff" stroke="#000" stroke-width="1.5"/><text x="650.0" y="19.0" text-anchor="middle" dominant-baseline="central" fill="#000" font-size="10" font-family="Arial">Fluxo de Convênio, Claims e CVI</text>
<rect x="30" y="70" width="1270" height="80" fill="#fff" stroke="#000" stroke-width="1.5"/><rect x="30" y="70" width="18" height="80" fill="#fff" stroke="#000" stroke-width="1"/><text x="39" y="110.0" text-anchor="middle" dominant-baseline="central" fill="#000" font-size="9" font-family="Arial" transform="rotate(-90,39,110.0)">Financeiro</text>
<rect x="30" y="150" width="1270" height="80" fill="#fff" stroke="#000" stroke-width="1.5"/><rect x="30" y="150" width="18" height="80" fill="#fff" stroke="#000" stroke-width="1"/><text x="39" y="190.0" text-anchor="middle" dominant-baseline="central" fill="#000" font-size="9" font-family="Arial" transform="rotate(-90,39,190.0)">Veterinário</text>
<rect x="30" y="230" width="1270" height="80" fill="#fff" stroke="#000" stroke-width="1.5"/><rect x="30" y="230" width="18" height="80" fill="#fff" stroke="#000" stroke-width="1"/><text x="39" y="270.0" text-anchor="middle" dominant-baseline="central" fill="#000" font-size="9" font-family="Arial" transform="rotate(-90,39,270.0)">Sistema</text>
<rect x="0" y="40" width="1300" height="280" rx="6" ry="6" fill="none" stroke="#000" stroke-width="2"/><rect x="0" y="40" width="28" height="280" fill="#e1d5e7" stroke="#000" stroke-width="2"/><text x="14" y="180.0" text-anchor="middle" dominant-baseline="central" fill="#000" font-size="11" font-family="Arial" transform="rotate(-90,14,180.0)">Clínica</text>
<rect x="30" y="365" width="1270" height="80" fill="#fff" stroke="#000" stroke-width="1.5"/><rect x="30" y="365" width="18" height="80" fill="#fff" stroke="#000" stroke-width="1"/><text x="39" y="405.0" text-anchor="middle" dominant-baseline="central" fill="#000" font-size="9" font-family="Arial" transform="rotate(-90,39,405.0)">Tutor</text>
<rect x="0" y="335" width="1300" height="120" rx="6" ry="6" fill="none" stroke="#000" stroke-width="2"/><rect x="0" y="335" width="28" height="120" fill="#e1d5e7" stroke="#000" stroke-width="2"/><text x="14" y="395.0" text-anchor="middle" dominant-baseline="central" fill="#000" font-size="11" font-family="Arial" transform="rotate(-90,14,395.0)">Tutor</text>
<rect x="30" y="500" width="1270" height="80" fill="#fff" stroke="#000" stroke-width="1.5"/><rect x="30" y="500" width="18" height="80" fill="#fff" stroke="#000" stroke-width="1"/><text x="39" y="540.0" text-anchor="middle" dominant-baseline="central" fill="#000" font-size="9" font-family="Arial" transform="rotate(-90,39,540.0)">Operadora</text>
<rect x="0" y="470" width="1300" height="120" rx="6" ry="6" fill="none" stroke="#000" stroke-width="2"/><rect x="0" y="470" width="28" height="120" fill="#e1d5e7" stroke="#000" stroke-width="2"/><text x="14" y="530.0" text-anchor="middle" dominant-baseline="central" fill="#000" font-size="11" font-family="Arial" transform="rotate(-90,14,530.0)">Operadora</text>
<ellipse cx="65" cy="110.0" rx="11.0" ry="11.0" fill="#d5e8d4" stroke="#82b366" stroke-width="2"/><text x="65" y="133.0" text-anchor="middle" fill="#000" font-size="9" font-family="Arial">Cadastrar
Convênio</text>
<rect x="200" y="87.0" width="140" height="46" rx="4" ry="4" fill="#fff" stroke="#000" stroke-width="1.5"/><text x="270.0" y="110.0" text-anchor="middle" dominant-baseline="central" fill="#000" font-size="10" font-family="Arial">Tabela de
Procedimentos</text>
<rect x="200" y="167.0" width="140" height="46" rx="4" ry="4" fill="#fff" stroke="#000" stroke-width="1.5"/><text x="270.0" y="190.0" text-anchor="middle" dominant-baseline="central" fill="#000" font-size="10" font-family="Arial">Atendimento
Realizado</text>
<polygon points="427.0,83.0 454,110.0 427.0,137.0 400,110.0" fill="#ffe6cc" stroke="#d79b00" stroke-width="2"/><text x="427.0" y="110.0" text-anchor="middle" dominant-baseline="central" fill="#000" font-size="18" font-family="Arial">✕</text>
<rect x="580" y="87.0" width="140" height="46" rx="4" ry="4" fill="#fff" stroke="#000" stroke-width="1.5"/><text x="650.0" y="110.0" text-anchor="middle" dominant-baseline="central" fill="#000" font-size="10" font-family="Arial">Faturamento
de Guia</text>
<rect x="580" y="143.0" width="140" height="46" rx="4" ry="4" fill="#fff" stroke="#000" stroke-width="1.5"/><text x="650.0" y="166.0" text-anchor="middle" dominant-baseline="central" fill="#000" font-size="10" font-family="Arial">Lote de
Faturamento</text>
<rect x="780" y="247.0" width="140" height="46" rx="4" ry="4" fill="#fff" stroke="#000" stroke-width="1.5"/><text x="850.0" y="270.0" text-anchor="middle" dominant-baseline="central" fill="#000" font-size="10" font-family="Arial">Enviar ao
Convênio</text>
<rect x="780" y="517.0" width="140" height="46" rx="4" ry="4" fill="#fff" stroke="#000" stroke-width="1.5"/><text x="850.0" y="540.0" text-anchor="middle" dominant-baseline="central" fill="#000" font-size="10" font-family="Arial">Processar
Guia</text>
<rect x="960" y="87.0" width="140" height="46" rx="4" ry="4" fill="#fff" stroke="#000" stroke-width="1.5"/><text x="1030.0" y="110.0" text-anchor="middle" dominant-baseline="central" fill="#000" font-size="10" font-family="Arial">Status:
Pago/Glosado/Pendente</text>
<polygon points="607.0,83.0 634,110.0 607.0,137.0 580,110.0" fill="#ffe6cc" stroke="#d79b00" stroke-width="2"/><text x="607.0" y="110.0" text-anchor="middle" dominant-baseline="central" fill="#000" font-size="18" font-family="Arial">✕</text>
<rect x="780" y="303.0" width="140" height="46" rx="4" ry="4" fill="#fff" stroke="#000" stroke-width="1.5"/><text x="850.0" y="326.0" text-anchor="middle" dominant-baseline="central" fill="#000" font-size="10" font-family="Arial">claims:auto-file
API Porto Seguro</text>
<rect x="780" y="573.0" width="140" height="46" rx="4" ry="4" fill="#fff" stroke="#000" stroke-width="1.5"/><text x="850.0" y="596.0" text-anchor="middle" dominant-baseline="central" fill="#000" font-size="10" font-family="Arial">Webhook
POST /api/...</text>
<rect x="960" y="247.0" width="140" height="46" rx="4" ry="4" fill="#fff" stroke="#000" stroke-width="1.5"/><text x="1030.0" y="270.0" text-anchor="middle" dominant-baseline="central" fill="#000" font-size="10" font-family="Arial">Atualizar
Status</text>
<rect x="580" y="167.0" width="140" height="46" rx="4" ry="4" fill="#fff" stroke="#000" stroke-width="1.5"/><text x="650.0" y="190.0" text-anchor="middle" dominant-baseline="central" fill="#000" font-size="10" font-family="Arial">Solicitar
CVI</text>
<polygon points="807.0,163.0 834,190.0 807.0,217.0 780,190.0" fill="#ffe6cc" stroke="#d79b00" stroke-width="2"/><text x="807.0" y="190.0" text-anchor="middle" dominant-baseline="central" fill="#000" font-size="18" font-family="Arial">✕</text>
<rect x="960" y="303.0" width="140" height="46" rx="4" ry="4" fill="#fff" stroke="#000" stroke-width="1.5"/><text x="1030.0" y="326.0" text-anchor="middle" dominant-baseline="central" fill="#000" font-size="10" font-family="Arial">Gerar CVI
N° CRMV</text>
<rect x="960" y="382.0" width="140" height="46" rx="4" ry="4" fill="#fff" stroke="#000" stroke-width="1.5"/><text x="1030.0" y="405.0" text-anchor="middle" dominant-baseline="central" fill="#000" font-size="10" font-family="Arial">Receber
PDF CVI</text>
<ellipse cx="1311.0" cy="110.0" rx="11.0" ry="11.0" fill="#f8cecc" stroke="#b85450" stroke-width="2"/><ellipse cx="1311.0" cy="110.0" rx="7.0" ry="7.0" fill="none" stroke="#b85450" stroke-width="2"/><text x="1311.0" y="133.0" text-anchor="middle" fill="#000" font-size="9" font-family="Arial">Fim</text>
<path d="M 76 110 L 131 110 L 131 110 L 200 110" fill="none" stroke="#000" stroke-width="1.5" marker-end="url(#arrowhead)"/>
<path d="M 76 110 L 131 110 L 131 190 L 200 190" fill="none" stroke="#000" stroke-width="1.5" marker-end="url(#arrowhead)"/>
<path d="M 340 190 L 370 190 L 370 110 L 400 110" fill="none" stroke="#000" stroke-width="1.5" marker-end="url(#arrowhead)"/>
<path d="M 454 110 L 517 110 L 517 110 L 580 110" fill="none" stroke="#000" stroke-width="1.5" marker-end="url(#arrowhead)"/>
<path d="M 650 143 L 650 110 L 650 110 L 650 189" fill="none" stroke="#000" stroke-width="1.5" marker-end="url(#arrowhead)"/>
<path d="M 720 110 L 750 110 L 750 270 L 780 270" fill="none" stroke="#000" stroke-width="1.5" marker-end="url(#arrowhead)"/>
<path d="M 850 349 L 850 405 L 850 405 L 850 573" fill="none" stroke="#000" stroke-width="1.5" marker-end="url(#arrowhead)"/>
<path d="M 850 573 L 850 325 L 1030 325 L 1030 133" fill="none" stroke="#000" stroke-width="1.5" marker-end="url(#arrowhead)"/>
<path d="M 454 110 L 517 110 L 517 110 L 580 110" fill="none" stroke="#000" stroke-width="1.5" marker-end="url(#arrowhead)"/>
<path d="M 634 110 L 707 110 L 707 270 L 780 270" fill="none" stroke="#000" stroke-width="1.5" marker-end="url(#arrowhead)"/>
<path d="M 850 349 L 850 405 L 850 405 L 850 573" fill="none" stroke="#000" stroke-width="1.5" marker-end="url(#arrowhead)"/>
<path d="M 850 573 L 850 405 L 1030 405 L 1030 349" fill="none" stroke="#000" stroke-width="1.5" marker-end="url(#arrowhead)"/>
<path d="M 454 110 L 517 110 L 517 190 L 580 190" fill="none" stroke="#000" stroke-width="1.5" marker-end="url(#arrowhead)"/>
<path d="M 720 190 L 750 190 L 750 190 L 780 190" fill="none" stroke="#000" stroke-width="1.5" marker-end="url(#arrowhead)"/>
<path d="M 834 190 L 897 190 L 897 270 L 960 270" fill="none" stroke="#000" stroke-width="1.5" marker-end="url(#arrowhead)"/>
<path d="M 1030 349 L 1030 337.5 L 1030 337.5 L 1030 382" fill="none" stroke="#000" stroke-width="1.5" stroke-dasharray="5,5" marker-end="url(#arrowhead)"/>
<path d="M 1100 110 L 1200 110 L 1200 110 L 1300 110" fill="none" stroke="#000" stroke-width="1.5" marker-end="url(#arrowhead)"/>
<path d="M 1100 270 L 1200 270 L 1200 110 L 1300 110" fill="none" stroke="#000" stroke-width="1.5" marker-end="url(#arrowhead)"/>
<path d="M 1100 270 L 1200 270 L 1200 110 L 1300 110" fill="none" stroke="#000" stroke-width="1.5" marker-end="url(#arrowhead)"/>
</g>
<foreignObject width="1300" height="699"><div xmlns="http://www.w3.org/1999/xhtml"><mxfile host="Generator" modified="2026-05-21T07:35:39.400927" agent="BPMN-PHASEX" version="24.0.5" type="device"><diagram id="18-fluxo-convenio.svg" name="Page-1"><mxGraphModel dx="0" dy="0" grid="1" gridSize="10" guides="1" page="0" pageWidth="1300" pageHeight="699" math="0" shadow="0"><root><mxCell id="0"/><mxCell id="1" parent="0"/><mxCell id="c611" value="Fluxo de Convênio, Claims e CVI" style="text;html=1;strokeColor=none;fillColor=none;align=center;fontSize=14;fontStyle=1" vertex="1" parent="1"><mxGeometry x="10" y="5" width="1280" height="28" as="geometry"/></mxCell><mxCell id="c612" value="Financeiro" style="swimlane;startSize=18;fillColor=#ffe6cc;strokeColor=#000;horizontal=1;" vertex="1" parent="1"><mxGeometry x="30" y="70" width="1270" height="80" as="geometry"/></mxCell><mxCell id="c613" value="Veterinário" style="swimlane;startSize=18;fillColor=#d5e8d4;strokeColor=#000;horizontal=1;" vertex="1" parent="1"><mxGeometry x="30" y="150" width="1270" height="80" as="geometry"/></mxCell><mxCell id="c614" value="Sistema" style="swimlane;startSize=18;fillColor=#f5f5f5;strokeColor=#000;horizontal=1;" vertex="1" parent="1"><mxGeometry x="30" y="230" width="1270" height="80" as="geometry"/></mxCell><mxCell id="c615" value="Clínica" style="swimlane;startSize=0;fillColor=none;strokeColor=#000;" vertex="1" parent="1"><mxGeometry x="0" y="40" width="1300" height="280" as="geometry"/></mxCell><mxCell id="c616" value="Tutor" style="swimlane;startSize=18;fillColor=#e1d5e7;strokeColor=#000;horizontal=1;" vertex="1" parent="1"><mxGeometry x="30" y="365" width="1270" height="80" as="geometry"/></mxCell><mxCell id="c617" value="Tutor" style="swimlane;startSize=0;fillColor=none;strokeColor=#000;" vertex="1" parent="1"><mxGeometry x="0" y="335" width="1300" height="120" as="geometry"/></mxCell><mxCell id="c618" value="Operadora" style="swimlane;startSize=18;fillColor=#ffe6cc;strokeColor=#000;horizontal=1;" vertex="1" parent="1"><mxGeometry x="30" y="500" width="1270" height="80" as="geometry"/></mxCell><mxCell id="c619" value="Operadora" style="swimlane;startSize=0;fillColor=none;strokeColor=#000;" vertex="1" parent="1"><mxGeometry x="0" y="470" width="1300" height="120" as="geometry"/></mxCell><mxCell id="c620" value="Cadastrar
Convênio" style="ellipse;whiteSpace=wrap;html=1;fillColor=#d5e8d4;strokeColor=#82b366;" vertex="1" parent="1"><mxGeometry x="40" y="99.0" width="22" height="22" as="geometry"/></mxCell><mxCell id="c621" value="Tabela de
Procedimentos" style="rounded=1;whiteSpace=wrap;html=1;" vertex="1" parent="1"><mxGeometry x="200" y="87.0" width="140" height="46" as="geometry"/></mxCell><mxCell id="c622" value="Atendimento
Realizado" style="rounded=1;whiteSpace=wrap;html=1;" vertex="1" parent="1"><mxGeometry x="200" y="167.0" width="140" height="46" as="geometry"/></mxCell><mxCell id="c623" value="Pet é
Conveniado?" style="rhombus;whiteSpace=wrap;html=1;fillColor=#ffe6cc;strokeColor=#d79b00;" vertex="1" parent="1"><mxGeometry x="400" y="83.0" width="54" height="54" as="geometry"/></mxCell><mxCell id="c624" value="Faturamento
de Guia" style="rounded=1;whiteSpace=wrap;html=1;" vertex="1" parent="1"><mxGeometry x="580" y="87.0" width="140" height="46" as="geometry"/></mxCell><mxCell id="c625" value="Lote de
Faturamento" style="rounded=1;whiteSpace=wrap;html=1;" vertex="1" parent="1"><mxGeometry x="580" y="143.0" width="140" height="46" as="geometry"/></mxCell><mxCell id="c626" value="Enviar ao
Convênio" style="rounded=1;whiteSpace=wrap;html=1;" vertex="1" parent="1"><mxGeometry x="780" y="247.0" width="140" height="46" as="geometry"/></mxCell><mxCell id="c627" value="Processar
Guia" style="rounded=1;whiteSpace=wrap;html=1;" vertex="1" parent="1"><mxGeometry x="780" y="517.0" width="140" height="46" as="geometry"/></mxCell><mxCell id="c628" value="Status:
Pago/Glosado/Pendente" style="rounded=1;whiteSpace=wrap;html=1;" vertex="1" parent="1"><mxGeometry x="960" y="87.0" width="140" height="46" as="geometry"/></mxCell><mxCell id="c629" value="Auto-Claim
Ativo?" style="rhombus;whiteSpace=wrap;html=1;fillColor=#ffe6cc;strokeColor=#d79b00;" vertex="1" parent="1"><mxGeometry x="580" y="83.0" width="54" height="54" as="geometry"/></mxCell><mxCell id="c630" value="claims:auto-file
API Porto Seguro" style="rounded=1;whiteSpace=wrap;html=1;" vertex="1" parent="1"><mxGeometry x="780" y="303.0" width="140" height="46" as="geometry"/></mxCell><mxCell id="c631" value="Webhook
POST /api/..." style="rounded=1;whiteSpace=wrap;html=1;" vertex="1" parent="1"><mxGeometry x="780" y="573.0" width="140" height="46" as="geometry"/></mxCell><mxCell id="c632" value="Atualizar
Status" style="rounded=1;whiteSpace=wrap;html=1;" vertex="1" parent="1"><mxGeometry x="960" y="247.0" width="140" height="46" as="geometry"/></mxCell><mxCell id="c633" value="Solicitar
CVI" style="rounded=1;whiteSpace=wrap;html=1;" vertex="1" parent="1"><mxGeometry x="580" y="167.0" width="140" height="46" as="geometry"/></mxCell><mxCell id="c634" value="Requisitos
OK?" style="rhombus;whiteSpace=wrap;html=1;fillColor=#ffe6cc;strokeColor=#d79b00;" vertex="1" parent="1"><mxGeometry x="780" y="163.0" width="54" height="54" as="geometry"/></mxCell><mxCell id="c635" value="Gerar CVI
N° CRMV" style="rounded=1;whiteSpace=wrap;html=1;" vertex="1" parent="1"><mxGeometry x="960" y="303.0" width="140" height="46" as="geometry"/></mxCell><mxCell id="c636" value="Receber
PDF CVI" style="rounded=1;whiteSpace=wrap;html=1;" vertex="1" parent="1"><mxGeometry x="960" y="382.0" width="140" height="46" as="geometry"/></mxCell><mxCell id="c637" value="Fim" style="ellipse;whiteSpace=wrap;html=1;fillColor=#f8cecc;strokeColor=#b85450;" vertex="1" parent="1"><mxGeometry x="1300" y="99.0" width="22" height="22" as="geometry"/></mxCell><mxCell id="c638" edge="1" parent="1" source="c620" target="c621" style="edgeStyle=orthogonalEdgeStyle;rounded=0;html=1;"><mxGeometry relative="1" as="geometry"/></mxCell><mxCell id="c639" edge="1" parent="1" source="c620" target="c622" style="edgeStyle=orthogonalEdgeStyle;rounded=0;html=1;"><mxGeometry relative="1" as="geometry"/></mxCell><mxCell id="c640" edge="1" parent="1" source="c622" target="c623" style="edgeStyle=orthogonalEdgeStyle;rounded=0;html=1;"><mxGeometry relative="1" as="geometry"/></mxCell><mxCell id="c641" edge="1" parent="1" source="c623" target="c624" style="edgeStyle=orthogonalEdgeStyle;rounded=0;html=1;"><mxGeometry relative="1" as="geometry"/></mxCell><mxCell id="c642" edge="1" parent="1" source="c624" target="c625" style="edgeStyle=orthogonalEdgeStyle;rounded=0;html=1;"><mxGeometry relative="1" as="geometry"/></mxCell><mxCell id="c643" edge="1" parent="1" source="c625" target="c626" style="edgeStyle=orthogonalEdgeStyle;rounded=0;html=1;"><mxGeometry relative="1" as="geometry"/></mxCell><mxCell id="c644" edge="1" parent="1" source="c626" target="c627" style="edgeStyle=orthogonalEdgeStyle;rounded=0;html=1;"><mxGeometry relative="1" as="geometry"/></mxCell><mxCell id="c645" edge="1" parent="1" source="c627" target="c628" style="edgeStyle=orthogonalEdgeStyle;rounded=0;html=1;"><mxGeometry relative="1" as="geometry"/></mxCell><mxCell id="c646" edge="1" parent="1" source="c623" target="c629" style="edgeStyle=orthogonalEdgeStyle;rounded=0;html=1;"><mxGeometry relative="1" as="geometry"/></mxCell><mxCell id="c647" edge="1" parent="1" source="c629" target="c630" style="edgeStyle=orthogonalEdgeStyle;rounded=0;html=1;"><mxGeometry relative="1" as="geometry"/></mxCell><mxCell id="c648" edge="1" parent="1" source="c630" target="c631" style="edgeStyle=orthogonalEdgeStyle;rounded=0;html=1;"><mxGeometry relative="1" as="geometry"/></mxCell><mxCell id="c649" edge="1" parent="1" source="c631" target="c632" style="edgeStyle=orthogonalEdgeStyle;rounded=0;html=1;"><mxGeometry relative="1" as="geometry"/></mxCell><mxCell id="c650" edge="1" parent="1" source="c623" target="c633" style="edgeStyle=orthogonalEdgeStyle;rounded=0;html=1;"><mxGeometry relative="1" as="geometry"/></mxCell><mxCell id="c651" edge="1" parent="1" source="c633" target="c634" style="edgeStyle=orthogonalEdgeStyle;rounded=0;html=1;"><mxGeometry relative="1" as="geometry"/></mxCell><mxCell id="c652" edge="1" parent="1" source="c634" target="c635" style="edgeStyle=orthogonalEdgeStyle;rounded=0;html=1;"><mxGeometry relative="1" as="geometry"/></mxCell><mxCell id="c653" edge="1" parent="1" source="c635" target="c636" style="edgeStyle=orthogonalEdgeStyle;rounded=0;html=1;dashed=1;"><mxGeometry relative="1" as="geometry"/></mxCell><mxCell id="c654" edge="1" parent="1" source="c628" target="c637" style="edgeStyle=orthogonalEdgeStyle;rounded=0;html=1;"><mxGeometry relative="1" as="geometry"/></mxCell><mxCell id="c655" edge="1" parent="1" source="c632" target="c637" style="edgeStyle=orthogonalEdgeStyle;rounded=0;html=1;"><mxGeometry relative="1" as="geometry"/></mxCell><mxCell id="c656" edge="1" parent="1" source="c635" target="c637" style="edgeStyle=orthogonalEdgeStyle;rounded=0;html=1;"><mxGeometry relative="1" as="geometry"/></mxCell></root></mxGraphModel></diagram></mxfile></div></foreignObject></switch>
</svg>