<svg xmlns="http://www.w3.org/2000/svg" xmlns:xlink="http://www.w3.org/1999/xlink" contentStyleType="text/css" data-diagram-type="ACTIVITY" height="578px" preserveAspectRatio="none" style="width:518px;height:578px;background:#FEFEFE;" version="1.1" viewBox="0 0 518 578" width="518px" zoomAndPan="magnify"><title>Fluxo de Relat&#243;rios</title><defs/><g><rect fill="#FEFEFE" height="578" style="stroke:none;stroke-width:1;" width="518" x="0" y="0"/><text fill="#000000" font-family="Arial" font-size="14" font-weight="bold" lengthAdjust="spacing" textLength="129.9102" x="192.5917" y="33.1318">Fluxo de Relat&#243;rios</text><rect fill="none" height="12.6489" style="stroke:none;stroke-width:1;" width="485.0935" x="15" y="48.0986"/><ellipse cx="179.0933" cy="75.7476" fill="#222222" rx="10" ry="10" style="stroke:#222222;stroke-width:1;"/><rect fill="#FFFFFF" height="31.499" rx="12.5" ry="12.5" style="stroke:#333333;stroke-width:0.5;" width="139.4971" x="109.3447" y="105.7476"/><text fill="#000000" font-family="Arial" font-size="10" lengthAdjust="spacing" textLength="119.4971" x="119.3447" y="125.1274">Acessar M&#243;dulo Relat&#243;rios</text><rect fill="#FFFFFF" height="31.499" rx="12.5" ry="12.5" style="stroke:#333333;stroke-width:0.5;" width="128.1006" x="115.043" y="157.2466"/><text fill="#000000" font-family="Arial" font-size="10" lengthAdjust="spacing" textLength="108.1006" x="125.043" y="176.6265">Selecionar Tipo + Filtros</text><polygon fill="#FFFFFF" points="49.3447,208.7456,92.1377,208.7456,104.1377,220.7456,92.1377,232.7456,49.3447,232.7456,37.3447,220.7456,49.3447,208.7456" style="stroke:#333333;stroke-width:0.5;"/><text fill="#000000" font-family="Arial" font-size="9" lengthAdjust="spacing" textLength="44.0156" x="74.7412" y="241.1875">[Visualizar]</text><text fill="#000000" font-family="Arial" font-size="10" lengthAdjust="spacing" textLength="42.793" x="49.3447" y="224.376">Formato?</text><rect fill="#FFFFFF" height="31.499" rx="12.5" ry="12.5" style="stroke:#333333;stroke-width:0.5;" width="99.4824" x="21" y="263.0947"/><text fill="#000000" font-family="Arial" font-size="10" lengthAdjust="spacing" textLength="79.4824" x="31" y="282.4746">Visualizar na Tela</text><polygon fill="#FFFFFF" points="161.874,208.7456,187.4307,208.7456,199.4307,220.7456,187.4307,232.7456,161.874,232.7456,149.874,220.7456,161.874,208.7456" style="stroke:#333333;stroke-width:0.5;"/><text fill="#000000" font-family="Arial" font-size="10" lengthAdjust="spacing" textLength="25.5566" x="161.874" y="224.376">[PDF]</text><text fill="#000000" font-family="Arial" font-size="9" lengthAdjust="spacing" textLength="27.0088" x="199.4307" y="218.8384">[Excel]</text><rect fill="#FFFFFF" height="31.499" rx="12.5" ry="12.5" style="stroke:#333333;stroke-width:0.5;" width="68.3398" x="140.4824" y="252.7456"/><text fill="#000000" font-family="Arial" font-size="10" lengthAdjust="spacing" textLength="48.3398" x="150.4824" y="272.1255">Gerar PDF</text><rect fill="#FFFFFF" height="31.499" rx="12.5" ry="12.5" style="stroke:#333333;stroke-width:0.5;" width="108.3643" x="228.8223" y="260.9202"/><text fill="#000000" font-family="Arial" font-size="10" lengthAdjust="spacing" textLength="88.3643" x="238.8223" y="280.3">Exportar Excel/CSV</text><line style="stroke:#333333;stroke-width:1.5;" x1="15" x2="15" y1="48.0986" y2="566.5918"/><rect fill="#FFFFFF" height="31.499" rx="12.5" ry="12.5" style="stroke:#333333;stroke-width:0.5;" width="123.3789" x="347.1865" y="382.5938"/><text fill="#000000" font-family="Arial" font-size="10" lengthAdjust="spacing" textLength="103.3789" x="357.1865" y="401.9736">Configurar Recorr&#234;ncia</text><rect fill="#FFFFFF" height="31.499" rx="12.5" ry="12.5" style="stroke:#333333;stroke-width:0.5;" width="96.6895" x="360.5313" y="449.0928"/><text fill="#000000" font-family="Arial" font-size="10" lengthAdjust="spacing" textLength="76.6895" x="370.5313" y="468.4727">Enviar por E-mail</text><polygon fill="#FFFFFF" points="373.2949,334.5938,444.457,334.5938,456.457,346.5938,444.457,358.5938,373.2949,358.5938,361.2949,346.5938,373.2949,334.5938" style="stroke:#333333;stroke-width:0.5;"/><text fill="#000000" font-family="Arial" font-size="9" lengthAdjust="spacing" textLength="18.9976" x="412.876" y="367.0356">[sim]</text><text fill="#000000" font-family="Arial" font-size="10" lengthAdjust="spacing" textLength="71.1621" x="373.2949" y="350.2241">Agendar Envio?</text><text fill="#000000" font-family="Arial" font-size="9" lengthAdjust="spacing" textLength="20.0171" x="456.457" y="344.6865">[n&#227;o]</text><polygon fill="#FFFFFF" points="408.876,500.5918,420.876,512.5918,408.876,524.5918,396.876,512.5918,408.876,500.5918" style="stroke:#333333;stroke-width:0.5;"/><ellipse cx="408.876" cy="555.5918" fill="none" rx="11" ry="11" style="stroke:#222222;stroke-width:1;"/><ellipse cx="408.876" cy="555.5918" fill="#222222" rx="6" ry="6" style="stroke:#222222;stroke-width:1;"/><line style="stroke:#333333;stroke-width:1.5;" x1="341.1865" x2="341.1865" y1="48.0986" y2="566.5918"/><line style="stroke:#333333;stroke-width:1.5;" x1="499.5654" x2="499.5654" y1="48.0986" y2="566.5918"/><line style="stroke:#333333;stroke-width:1;" x1="179.0933" x2="179.0933" y1="85.7476" y2="105.7476"/><polygon fill="#333333" points="175.0933,95.7476,179.0933,105.7476,183.0933,95.7476,179.0933,99.7476" style="stroke:#333333;stroke-width:1;"/><line style="stroke:#333333;stroke-width:1;" x1="179.0933" x2="179.0933" y1="137.2466" y2="157.2466"/><polygon fill="#333333" points="175.0933,147.2466,179.0933,157.2466,183.0933,147.2466,179.0933,151.2466" style="stroke:#333333;stroke-width:1;"/><line style="stroke:#333333;stroke-width:1;" x1="70.7412" x2="70.7412" y1="232.7456" y2="263.0947"/><polygon fill="#333333" points="66.7412,253.0947,70.7412,263.0947,74.7412,253.0947,70.7412,257.0947" style="stroke:#333333;stroke-width:1;"/><line style="stroke:#333333;stroke-width:1;" x1="70.7412" x2="70.7412" y1="294.5938" y2="314.5938"/><polygon fill="#333333" points="66.7412,304.5938,70.7412,314.5938,74.7412,304.5938,70.7412,308.5938" style="stroke:#333333;stroke-width:1;"/><line style="stroke:#333333;stroke-width:1;" x1="174.6523" x2="174.6523" y1="232.7456" y2="252.7456"/><polygon fill="#333333" points="170.6523,242.7456,174.6523,252.7456,178.6523,242.7456,174.6523,246.7456" style="stroke:#333333;stroke-width:1;"/><line style="stroke:#333333;stroke-width:1;" x1="174.6523" x2="174.6523" y1="284.2446" y2="314.5938"/><polygon fill="#333333" points="170.6523,304.5938,174.6523,314.5938,178.6523,304.5938,174.6523,308.5938" style="stroke:#333333;stroke-width:1;"/><line style="stroke:#333333;stroke-width:1;" x1="104.1377" x2="149.874" y1="220.7456" y2="220.7456"/><polygon fill="#333333" points="139.874,216.7456,149.874,220.7456,139.874,224.7456,143.874,220.7456" style="stroke:#333333;stroke-width:1;"/><line style="stroke:#333333;stroke-width:1;" x1="179.0933" x2="179.0933" y1="188.7456" y2="193.7456"/><line style="stroke:#333333;stroke-width:1;" x1="179.0933" x2="70.7412" y1="193.7456" y2="193.7456"/><line style="stroke:#333333;stroke-width:1;" x1="70.7412" x2="70.7412" y1="193.7456" y2="208.7456"/><polygon fill="#333333" points="66.7412,198.7456,70.7412,208.7456,74.7412,198.7456,70.7412,202.7456" style="stroke:#333333;stroke-width:1;"/><line style="stroke:#333333;stroke-width:1;" x1="199.4307" x2="283.0044" y1="220.7456" y2="220.7456"/><line style="stroke:#333333;stroke-width:1;" x1="283.0044" x2="283.0044" y1="220.7456" y2="260.9202"/><polygon fill="#333333" points="279.0044,250.9202,283.0044,260.9202,287.0044,250.9202,283.0044,254.9202" style="stroke:#333333;stroke-width:1;"/><line style="stroke:#333333;stroke-width:1;" x1="283.0044" x2="283.0044" y1="292.4192" y2="314.5938"/><polygon fill="#333333" points="279.0044,304.5938,283.0044,314.5938,287.0044,304.5938,283.0044,308.5938" style="stroke:#333333;stroke-width:1;"/><line style="stroke:#333333;stroke-width:1;" x1="70.7412" x2="283.0044" y1="314.5938" y2="314.5938"/><line style="stroke:#333333;stroke-width:1;" x1="408.876" x2="408.876" y1="414.0928" y2="449.0928"/><polygon fill="#333333" points="404.876,439.0928,408.876,449.0928,412.876,439.0928,408.876,443.0928" style="stroke:#333333;stroke-width:1;"/><line style="stroke:#333333;stroke-width:1;" x1="408.876" x2="408.876" y1="358.5938" y2="382.5938"/><polygon fill="#333333" points="404.876,372.5938,408.876,382.5938,412.876,372.5938,408.876,376.5938" style="stroke:#333333;stroke-width:1;"/><line style="stroke:#333333;stroke-width:1;" x1="456.457" x2="480.5654" y1="346.5938" y2="346.5938"/><polygon fill="#333333" points="476.5654,421.5928,480.5654,431.5928,484.5654,421.5928,480.5654,425.5928" style="stroke:#333333;stroke-width:1;"/><line style="stroke:#333333;stroke-width:1;" x1="480.5654" x2="480.5654" y1="346.5938" y2="512.5918"/><line style="stroke:#333333;stroke-width:1;" x1="480.5654" x2="420.876" y1="512.5918" y2="512.5918"/><polygon fill="#333333" points="430.876,508.5918,420.876,512.5918,430.876,516.5918,426.876,512.5918" style="stroke:#333333;stroke-width:1;"/><line style="stroke:#333333;stroke-width:1;" x1="408.876" x2="408.876" y1="480.5918" y2="500.5918"/><polygon fill="#333333" points="404.876,490.5918,408.876,500.5918,412.876,490.5918,408.876,494.5918" style="stroke:#333333;stroke-width:1;"/><line style="stroke:#333333;stroke-width:1;" x1="408.876" x2="408.876" y1="524.5918" y2="544.5918"/><polygon fill="#333333" points="404.876,534.5918,408.876,544.5918,412.876,534.5918,408.876,538.5918" style="stroke:#333333;stroke-width:1;"/><line style="stroke:#333333;stroke-width:1;" x1="179.0933" x2="179.0933" y1="314.5938" y2="319.5938"/><line style="stroke:#333333;stroke-width:1;" x1="179.0933" x2="408.876" y1="319.5938" y2="319.5938"/><line style="stroke:#333333;stroke-width:1;" x1="408.876" x2="408.876" y1="319.5938" y2="334.5938"/><polygon fill="#333333" points="404.876,324.5938,408.876,334.5938,412.876,324.5938,408.876,328.5938" style="stroke:#333333;stroke-width:1;"/><text fill="#000000" font-family="Arial" font-size="11" lengthAdjust="spacing" textLength="37.9038" x="159.1414" y="58.4165">Usu&#225;rio</text><text fill="#000000" font-family="Arial" font-size="11" lengthAdjust="spacing" textLength="39.7354" x="400.5083" y="58.4165">Sistema</text><!--SRC=[JOzDJiCm48NtFiMmQuM0VRf0LKbO8Q6cT5CXPBcJTYJR4_a7HIYNGUpOzWYv69C6GNUUUP_VUtD5tjYyHtWpx1pxspOxgrIYP14gcpi64TTeTHfEWJWgrR_4F7pAkrSnwP1KiJGOemxmD9pssV8blb15ZHODiHTWGot3DLHaKnWrHGtCAWvE9xwVGpgYXzbkIp5hInywlCuLGF4_WzUm4VE5GXjn_BnxVgWcwX63039EeaXbPz1EOjcr7AGid7TtgtehbDzJ8-VK51CwtP_BB0-o7Zd_JXUL_F35ulHh7CbDjYls3Hto6Bn6mo4CtzwGr1iZnK7saWlbZTDa_n9ZulO7]--></g></svg>