<svg xmlns="http://www.w3.org/2000/svg" xmlns:xlink="http://www.w3.org/1999/xlink" contentStyleType="text/css" data-diagram-type="ACTIVITY" height="437px" preserveAspectRatio="none" style="width:1043px;height:437px;background:#FEFEFE;" version="1.1" viewBox="0 0 1043 437" width="1043px" zoomAndPan="magnify"><title>Fluxo de Auditoria e LGPD</title><defs/><g><rect fill="#FEFEFE" height="437" style="stroke:none;stroke-width:1;" width="1043" x="0" y="0"/><text fill="#000000" font-family="Arial" font-size="14" font-weight="bold" lengthAdjust="spacing" textLength="177.3447" x="431.765" y="33.1318">Fluxo de Auditoria e LGPD</text><rect fill="none" height="12.6489" style="stroke:none;stroke-width:1;" width="1010.8748" x="15" y="48.0986"/><ellipse cx="86.3101" cy="75.7476" fill="#222222" rx="10" ry="10" style="stroke:#222222;stroke-width:1;"/><rect fill="#FFFFFF" height="31.499" rx="12.5" ry="12.5" style="stroke:#333333;stroke-width:0.5;" width="117.251" x="27.6846" y="105.7476"/><text fill="#000000" font-family="Arial" font-size="10" lengthAdjust="spacing" textLength="97.251" x="37.6846" y="125.1274">Solicitar Direito LGPD</text><rect fill="#FFFFFF" height="31.499" rx="12.5" ry="12.5" style="stroke:#333333;stroke-width:0.5;" width="130.6201" x="21" y="351.7437"/><text fill="#000000" font-family="Arial" font-size="10" lengthAdjust="spacing" textLength="110.6201" x="31" y="371.1235">Resposta em at&#233; 15 dias</text><ellipse cx="86.3101" cy="414.2427" fill="none" rx="11" ry="11" style="stroke:#222222;stroke-width:1;"/><ellipse cx="86.3101" cy="414.2427" fill="#222222" rx="6" ry="6" style="stroke:#222222;stroke-width:1;"/><line style="stroke:#333333;stroke-width:1.5;" x1="15" x2="15" y1="48.0986" y2="425.2427"/><rect fill="#FFFFFF" height="31.499" rx="12.5" ry="12.5" style="stroke:#333333;stroke-width:0.5;" width="110.0537" x="297.2061" y="157.2466"/><text fill="#000000" font-family="Arial" font-size="10" lengthAdjust="spacing" textLength="90.0537" x="307.2061" y="176.6265">Tipo de Solicita&#231;&#227;o?</text><line style="stroke:#333333;stroke-width:1.5;" x1="224.4131" x2="555.0967" y1="208.7456" y2="208.7456"/><rect fill="#FFFFFF" height="31.499" rx="12.5" ry="12.5" style="stroke:#333333;stroke-width:0.5;" width="125.5859" x="161.6201" y="228.7456"/><text fill="#000000" font-family="Arial" font-size="10" lengthAdjust="spacing" textLength="105.5859" x="171.6201" y="248.1255">Exportar Dados (JSON)</text><rect fill="#FFFFFF" height="31.499" rx="12.5" ry="12.5" style="stroke:#333333;stroke-width:0.5;" width="127.8369" x="417.2598" y="228.7456"/><text fill="#000000" font-family="Arial" font-size="10" lengthAdjust="spacing" textLength="107.8369" x="427.2598" y="248.1255">Revogar Consentimento</text><rect fill="#FFFFFF" height="31.499" rx="12.5" ry="12.5" style="stroke:#333333;stroke-width:0.5;" width="102.8125" x="300.8267" y="300.2446"/><text fill="#000000" font-family="Arial" font-size="10" lengthAdjust="spacing" textLength="82.8125" x="310.8267" y="319.6245">Registrar Auditoria</text><line style="stroke:#333333;stroke-width:1.5;" x1="155.6201" x2="155.6201" y1="48.0986" y2="425.2427"/><rect fill="#FFFFFF" height="31.499" rx="12.5" ry="12.5" style="stroke:#333333;stroke-width:0.5;" width="77.8076" x="566.0967" y="228.7456"/><text fill="#000000" font-family="Arial" font-size="10" lengthAdjust="spacing" textLength="57.8076" x="576.0967" y="248.1255">Editar Dados</text><line style="stroke:#333333;stroke-width:1.5;" x1="560.0967" x2="560.0967" y1="48.0986" y2="425.2427"/><rect fill="#FFFFFF" height="31.499" rx="12.5" ry="12.5" style="stroke:#333333;stroke-width:0.5;" width="70.0195" x="684.9043" y="228.7456"/><text fill="#000000" font-family="Arial" font-size="10" lengthAdjust="spacing" textLength="50.0195" x="694.9043" y="248.1255">Anonimizar</text><rect fill="#FFFFFF" height="31.499" rx="12.5" ry="12.5" style="stroke:#333333;stroke-width:0.5;" width="152.2754" x="764.9238" y="228.7456"/><text fill="#000000" font-family="Arial" font-size="10" lengthAdjust="spacing" textLength="132.2754" x="774.9238" y="248.1255">Exportar Formato Estruturado</text><rect fill="#FFFFFF" height="31.499" rx="12.5" ry="12.5" style="stroke:#333333;stroke-width:0.5;" width="76.1475" x="945.1992" y="228.7456"/><text fill="#000000" font-family="Arial" font-size="10" lengthAdjust="spacing" textLength="56.1475" x="955.1992" y="248.1255">Auditar Logs</text><line style="stroke:#333333;stroke-width:1.5;" x1="652.9043" x2="983.2729" y1="280.2446" y2="280.2446"/><line style="stroke:#333333;stroke-width:1.5;" x1="647.9043" x2="647.9043" y1="48.0986" y2="425.2427"/><line style="stroke:#333333;stroke-width:1.5;" x1="1025.3467" x2="1025.3467" y1="48.0986" y2="425.2427"/><line style="stroke:#333333;stroke-width:1;" x1="86.3101" x2="86.3101" y1="85.7476" y2="105.7476"/><polygon fill="#333333" points="82.3101,95.7476,86.3101,105.7476,90.3101,95.7476,86.3101,99.7476" style="stroke:#333333;stroke-width:1;"/><line style="stroke:#333333;stroke-width:1;" x1="86.3101" x2="86.3101" y1="383.2427" y2="403.2427"/><polygon fill="#333333" points="82.3101,393.2427,86.3101,403.2427,90.3101,393.2427,86.3101,397.2427" style="stroke:#333333;stroke-width:1;"/><line style="stroke:#333333;stroke-width:1;" x1="224.4131" x2="224.4131" y1="210.2456" y2="228.7456"/><polygon fill="#333333" points="220.4131,218.7456,224.4131,228.7456,228.4131,218.7456,224.4131,222.7456" style="stroke:#333333;stroke-width:1;"/><line style="stroke:#333333;stroke-width:1;" x1="481.1782" x2="481.1782" y1="210.2456" y2="228.7456"/><polygon fill="#333333" points="477.1782,218.7456,481.1782,228.7456,485.1782,218.7456,481.1782,222.7456" style="stroke:#333333;stroke-width:1;"/><line style="stroke:#333333;stroke-width:1;" x1="352.2329" x2="352.2329" y1="188.7456" y2="208.7456"/><polygon fill="#333333" points="348.2329,198.7456,352.2329,208.7456,356.2329,198.7456,352.2329,202.7456" style="stroke:#333333;stroke-width:1;"/><line style="stroke:#333333;stroke-width:1;" x1="719.9141" x2="719.9141" y1="260.2446" y2="280.2446"/><polygon fill="#333333" points="715.9141,270.2446,719.9141,280.2446,723.9141,270.2446,719.9141,274.2446" style="stroke:#333333;stroke-width:1;"/><line style="stroke:#333333;stroke-width:1;" x1="841.0615" x2="841.0615" y1="260.2446" y2="280.2446"/><polygon fill="#333333" points="837.0615,270.2446,841.0615,280.2446,845.0615,270.2446,841.0615,274.2446" style="stroke:#333333;stroke-width:1;"/><line style="stroke:#333333;stroke-width:1;" x1="983.2729" x2="983.2729" y1="260.2446" y2="280.2446"/><polygon fill="#333333" points="979.2729,270.2446,983.2729,280.2446,987.2729,270.2446,983.2729,274.2446" style="stroke:#333333;stroke-width:1;"/><line style="stroke:#333333;stroke-width:1;" x1="86.3101" x2="86.3101" y1="137.2466" y2="142.2466"/><line style="stroke:#333333;stroke-width:1;" x1="86.3101" x2="352.2329" y1="142.2466" y2="142.2466"/><line style="stroke:#333333;stroke-width:1;" x1="352.2329" x2="352.2329" y1="142.2466" y2="157.2466"/><polygon fill="#333333" points="348.2329,147.2466,352.2329,157.2466,356.2329,147.2466,352.2329,151.2466" style="stroke:#333333;stroke-width:1;"/><line style="stroke:#333333;stroke-width:1;" x1="292.2061" x2="292.2061" y1="210.2456" y2="213.7456"/><line style="stroke:#333333;stroke-width:1;" x1="292.2061" x2="605.0005" y1="213.7456" y2="213.7456"/><line style="stroke:#333333;stroke-width:1;" x1="605.0005" x2="605.0005" y1="213.7456" y2="228.7456"/><polygon fill="#333333" points="601.0005,218.7456,605.0005,228.7456,609.0005,218.7456,605.0005,222.7456" style="stroke:#333333;stroke-width:1;"/><line style="stroke:#333333;stroke-width:1;" x1="292.2061" x2="292.2061" y1="210.2456" y2="213.7456"/><line style="stroke:#333333;stroke-width:1;" x1="292.2061" x2="719.9141" y1="213.7456" y2="213.7456"/><line style="stroke:#333333;stroke-width:1;" x1="719.9141" x2="719.9141" y1="213.7456" y2="228.7456"/><polygon fill="#333333" points="715.9141,218.7456,719.9141,228.7456,723.9141,218.7456,719.9141,222.7456" style="stroke:#333333;stroke-width:1;"/><line style="stroke:#333333;stroke-width:1;" x1="400.9473" x2="400.9473" y1="210.2456" y2="213.7456"/><line style="stroke:#333333;stroke-width:1;" x1="400.9473" x2="841.0615" y1="213.7456" y2="213.7456"/><line style="stroke:#333333;stroke-width:1;" x1="841.0615" x2="841.0615" y1="213.7456" y2="228.7456"/><polygon fill="#333333" points="837.0615,218.7456,841.0615,228.7456,845.0615,218.7456,841.0615,222.7456" style="stroke:#333333;stroke-width:1;"/><line style="stroke:#333333;stroke-width:1;" x1="555.0967" x2="555.0967" y1="210.2456" y2="213.7456"/><line style="stroke:#333333;stroke-width:1;" x1="555.0967" x2="983.2729" y1="213.7456" y2="213.7456"/><line style="stroke:#333333;stroke-width:1;" x1="983.2729" x2="983.2729" y1="213.7456" y2="228.7456"/><polygon fill="#333333" points="979.2729,218.7456,983.2729,228.7456,987.2729,218.7456,983.2729,222.7456" style="stroke:#333333;stroke-width:1;"/><line style="stroke:#333333;stroke-width:1;" x1="224.4131" x2="224.4131" y1="260.2446" y2="266.2446"/><line style="stroke:#333333;stroke-width:1;" x1="224.4131" x2="652.9043" y1="266.2446" y2="266.2446"/><line style="stroke:#333333;stroke-width:1;" x1="652.9043" x2="652.9043" y1="266.2446" y2="280.2446"/><polygon fill="#333333" points="648.9043,270.2446,652.9043,280.2446,656.9043,270.2446,652.9043,274.2446" style="stroke:#333333;stroke-width:1;"/><line style="stroke:#333333;stroke-width:1;" x1="605.0005" x2="605.0005" y1="260.2446" y2="266.2446"/><line style="stroke:#333333;stroke-width:1;" x1="605.0005" x2="670.9043" y1="266.2446" y2="266.2446"/><line style="stroke:#333333;stroke-width:1;" x1="670.9043" x2="670.9043" y1="266.2446" y2="280.2446"/><polygon fill="#333333" points="666.9043,270.2446,670.9043,280.2446,674.9043,270.2446,670.9043,274.2446" style="stroke:#333333;stroke-width:1;"/><line style="stroke:#333333;stroke-width:1;" x1="481.1782" x2="481.1782" y1="260.2446" y2="266.2446"/><line style="stroke:#333333;stroke-width:1;" x1="481.1782" x2="931.1992" y1="266.2446" y2="266.2446"/><line style="stroke:#333333;stroke-width:1;" x1="931.1992" x2="931.1992" y1="266.2446" y2="280.2446"/><polygon fill="#333333" points="927.1992,270.2446,931.1992,280.2446,935.1992,270.2446,931.1992,274.2446" style="stroke:#333333;stroke-width:1;"/><line style="stroke:#333333;stroke-width:1;" x1="792.3472" x2="792.3472" y1="281.7446" y2="285.2446"/><line style="stroke:#333333;stroke-width:1;" x1="792.3472" x2="352.2329" y1="285.2446" y2="285.2446"/><line style="stroke:#333333;stroke-width:1;" x1="352.2329" x2="352.2329" y1="285.2446" y2="300.2446"/><polygon fill="#333333" points="348.2329,290.2446,352.2329,300.2446,356.2329,290.2446,352.2329,294.2446" style="stroke:#333333;stroke-width:1;"/><line style="stroke:#333333;stroke-width:1;" x1="352.2329" x2="352.2329" y1="331.7437" y2="336.7437"/><line style="stroke:#333333;stroke-width:1;" x1="352.2329" x2="86.3101" y1="336.7437" y2="336.7437"/><line style="stroke:#333333;stroke-width:1;" x1="86.3101" x2="86.3101" y1="336.7437" y2="351.7437"/><polygon fill="#333333" points="82.3101,341.7437,86.3101,351.7437,90.3101,341.7437,86.3101,345.7437" style="stroke:#333333;stroke-width:1;"/><text fill="#000000" font-family="Arial" font-size="11" lengthAdjust="spacing" textLength="25.6738" x="72.4731" y="58.4165">Tutor</text><text fill="#000000" font-family="Arial" font-size="11" lengthAdjust="spacing" textLength="39.7354" x="337.9907" y="58.4165">Sistema</text><text fill="#000000" font-family="Arial" font-size="11" lengthAdjust="spacing" textLength="31.1792" x="588.4109" y="58.4165">Admin</text><text fill="#000000" font-family="Arial" font-size="11" lengthAdjust="spacing" textLength="34.853" x="819.199" y="58.4165">Auditor</text><!--SRC=[VP71QiCm38RlVWhjjbq6E-oI74POsy4essXw7oOsGM1RnfP76NcR7SQU8oysDTdQGg4N8wplbtv9LnWwLuo5zuwyft0RYtTACRApi79bHo39fXXaIgZ1mlhfRQ7Ki2toCQZCEh6gMdBOeSImm6I5dR1Qk1OpMwy7LMqnJiN-sV5x_AA7MkNea1N04GMebhj8QQgd3MMuVcvVNsx-MD2znh1NDCPZc7c31_eSc-rFO1CeeCTFdIvYX_uhIbxBFClCgN19qk1CU6fyOp-e5zqZXMm3evU7BZigi_SrzMBT1ZClv7Hr6zjBd0GwNA8-ta3IEP9S0gm7pUCFtDs3GRrV15Fy1G00]--></g></svg>