<svg xmlns="http://www.w3.org/2000/svg" xmlns:xlink="http://www.w3.org/1999/xlink" contentStyleType="text/css" data-diagram-type="ACTIVITY" height="592px" preserveAspectRatio="none" style="width:464px;height:592px;background:#FEFEFE;" version="1.1" viewBox="0 0 464 592" width="464px" zoomAndPan="magnify"><title>Fluxo de Notifica&#231;&#245;es</title><defs/><g><rect fill="#FEFEFE" height="592" style="stroke:none;stroke-width:1;" width="464" x="0" y="0"/><text fill="#000000" font-family="Arial" font-size="14" font-weight="bold" lengthAdjust="spacing" textLength="144.6963" x="158.2709" y="33.1318">Fluxo de Notifica&#231;&#245;es</text><rect fill="none" height="12.6489" style="stroke:none;stroke-width:1;" width="431.238" x="15" y="48.0986"/><ellipse cx="171.9741" cy="75.7476" fill="#222222" rx="10" ry="10" style="stroke:#222222;stroke-width:1;"/><rect fill="#FFFFFF" height="31.499" rx="12.5" ry="12.5" style="stroke:#333333;stroke-width:0.5;" width="104.502" x="119.7231" y="105.7476"/><text fill="#000000" font-family="Arial" font-size="10" lengthAdjust="spacing" textLength="84.502" x="129.7231" y="125.1274">Evento de Neg&#243;cio</text><rect fill="#FFFFFF" height="31.499" rx="12.5" ry="12.5" style="stroke:#333333;stroke-width:0.5;" width="115.5908" x="114.1787" y="157.2466"/><text fill="#000000" font-family="Arial" font-size="10" lengthAdjust="spacing" textLength="95.5908" x="124.1787" y="176.6265">Verificar Prefer&#234;ncias</text><polygon fill="#FFFFFF" points="121.6665,208.7456,222.2817,208.7456,234.2817,220.7456,222.2817,232.7456,121.6665,232.7456,109.6665,220.7456,121.6665,208.7456" style="stroke:#333333;stroke-width:0.5;"/><text fill="#000000" font-family="Arial" font-size="10" lengthAdjust="spacing" textLength="100.6152" x="121.6665" y="224.376">Tutor optou por notifs?</text><text fill="#000000" font-family="Arial" font-size="9" lengthAdjust="spacing" textLength="20.0171" x="234.2817" y="218.8384">[n&#227;o]</text><ellipse cx="276.2988" cy="220.7456" fill="none" rx="11" ry="11" style="stroke:#222222;stroke-width:1;"/><ellipse cx="276.2988" cy="220.7456" fill="#222222" rx="6" ry="6" style="stroke:#222222;stroke-width:1;"/><rect fill="#FFFFFF" height="31.499" rx="12.5" ry="12.5" style="stroke:#333333;stroke-width:0.5;" width="113.9404" x="115.0039" y="252.7456"/><text fill="#000000" font-family="Arial" font-size="10" lengthAdjust="spacing" textLength="93.9404" x="125.0039" y="272.1255">Hierarquia de Canais</text><line style="stroke:#333333;stroke-width:1.5;" x1="77.2993" x2="293.0454" y1="304.2446" y2="304.2446"/><rect fill="#FFFFFF" height="31.499" rx="12.5" ry="12.5" style="stroke:#333333;stroke-width:0.5;" width="101.1279" x="26.7354" y="324.2446"/><text fill="#000000" font-family="Arial" font-size="10" lengthAdjust="spacing" textLength="81.1279" x="36.7354" y="343.6245">WhatsApp (Z-API)</text><rect fill="#FFFFFF" height="31.499" rx="12.5" ry="12.5" style="stroke:#333333;stroke-width:0.5;" width="85.0146" x="155.8633" y="324.2446"/><text fill="#000000" font-family="Arial" font-size="10" lengthAdjust="spacing" textLength="65.0146" x="165.8633" y="343.6245">SMS (fallback)</text><rect fill="#FFFFFF" height="31.499" rx="12.5" ry="12.5" style="stroke:#333333;stroke-width:0.5;" width="48.335" x="268.8779" y="324.2446"/><text fill="#000000" font-family="Arial" font-size="10" lengthAdjust="spacing" textLength="28.335" x="278.8779" y="343.6245">E-mail</text><line style="stroke:#333333;stroke-width:1.5;" x1="77.2993" x2="293.0454" y1="375.7437" y2="375.7437"/><rect fill="#FFFFFF" height="31.499" rx="12.5" ry="12.5" style="stroke:#333333;stroke-width:0.5;" width="131.7334" x="106.1074" y="395.7437"/><text fill="#000000" font-family="Arial" font-size="10" lengthAdjust="spacing" textLength="111.7334" x="116.1074" y="415.1235">Registrar Log de Entrega</text><polygon fill="#FFFFFF" points="153.9053,447.2427,190.043,447.2427,202.043,459.2427,190.043,471.2427,153.9053,471.2427,141.9053,459.2427,153.9053,447.2427" style="stroke:#333333;stroke-width:0.5;"/><text fill="#000000" font-family="Arial" font-size="10" lengthAdjust="spacing" textLength="36.1377" x="153.9053" y="462.873">Falhou?</text><text fill="#000000" font-family="Arial" font-size="9" lengthAdjust="spacing" textLength="18.9976" x="122.9077" y="457.3354">[sim]</text><text fill="#000000" font-family="Arial" font-size="9" lengthAdjust="spacing" textLength="20.0171" x="202.043" y="457.3354">[n&#227;o]</text><rect fill="#FFFFFF" height="31.499" rx="12.5" ry="12.5" style="stroke:#333333;stroke-width:0.5;" width="149.7998" x="21" y="491.2427"/><text fill="#000000" font-family="Arial" font-size="10" lengthAdjust="spacing" textLength="129.7998" x="31" y="510.6226">3 tentativas + desativar canal</text><ellipse cx="95.8999" cy="553.7417" fill="none" rx="11" ry="11" style="stroke:#222222;stroke-width:1;"/><ellipse cx="95.8999" cy="553.7417" fill="#222222" rx="6" ry="6" style="stroke:#222222;stroke-width:1;"/><line style="stroke:#333333;stroke-width:1.5;" x1="15" x2="15" y1="48.0986" y2="580.7417"/><rect fill="#FFFFFF" height="31.499" rx="12.5" ry="12.5" style="stroke:#333333;stroke-width:0.5;" width="114.4971" x="327.2129" y="491.2427"/><text fill="#000000" font-family="Arial" font-size="10" lengthAdjust="spacing" textLength="94.4971" x="337.2129" y="510.6226">Notifica&#231;&#227;o Recebida</text><ellipse cx="384.4614" cy="553.7417" fill="none" rx="11" ry="11" style="stroke:#222222;stroke-width:1;"/><ellipse cx="384.4614" cy="553.7417" fill="#222222" rx="6" ry="6" style="stroke:#222222;stroke-width:1;"/><line style="stroke:#333333;stroke-width:1.5;" x1="321.2129" x2="321.2129" y1="48.0986" y2="580.7417"/><line style="stroke:#333333;stroke-width:1.5;" x1="445.71" x2="445.71" y1="48.0986" y2="580.7417"/><line style="stroke:#333333;stroke-width:1;" x1="171.9741" x2="171.9741" y1="85.7476" y2="105.7476"/><polygon fill="#333333" points="167.9741,95.7476,171.9741,105.7476,175.9741,95.7476,171.9741,99.7476" style="stroke:#333333;stroke-width:1;"/><line style="stroke:#333333;stroke-width:1;" x1="171.9741" x2="171.9741" y1="137.2466" y2="157.2466"/><polygon fill="#333333" points="167.9741,147.2466,171.9741,157.2466,175.9741,147.2466,171.9741,151.2466" style="stroke:#333333;stroke-width:1;"/><line style="stroke:#333333;stroke-width:1;" x1="171.9741" x2="171.9741" y1="232.7456" y2="252.7456"/><polygon fill="#333333" points="167.9741,242.7456,171.9741,252.7456,175.9741,242.7456,171.9741,246.7456" style="stroke:#333333;stroke-width:1;"/><line style="stroke:#333333;stroke-width:1;" x1="234.2817" x2="265.2988" y1="220.7456" y2="220.7456"/><polygon fill="#333333" points="255.2988,216.7456,265.2988,220.7456,255.2988,224.7456,259.2988,220.7456" style="stroke:#333333;stroke-width:1;"/><line style="stroke:#333333;stroke-width:1;" x1="171.9741" x2="171.9741" y1="188.7456" y2="208.7456"/><polygon fill="#333333" points="167.9741,198.7456,171.9741,208.7456,175.9741,198.7456,171.9741,202.7456" style="stroke:#333333;stroke-width:1;"/><line style="stroke:#333333;stroke-width:1;" x1="77.2993" x2="77.2993" y1="305.7446" y2="324.2446"/><polygon fill="#333333" points="73.2993,314.2446,77.2993,324.2446,81.2993,314.2446,77.2993,318.2446" style="stroke:#333333;stroke-width:1;"/><line style="stroke:#333333;stroke-width:1;" x1="198.3706" x2="198.3706" y1="305.7446" y2="324.2446"/><polygon fill="#333333" points="194.3706,314.2446,198.3706,324.2446,202.3706,314.2446,198.3706,318.2446" style="stroke:#333333;stroke-width:1;"/><line style="stroke:#333333;stroke-width:1;" x1="293.0454" x2="293.0454" y1="305.7446" y2="324.2446"/><polygon fill="#333333" points="289.0454,314.2446,293.0454,324.2446,297.0454,314.2446,293.0454,318.2446" style="stroke:#333333;stroke-width:1;"/><line style="stroke:#333333;stroke-width:1;" x1="77.2993" x2="77.2993" y1="355.7437" y2="375.7437"/><polygon fill="#333333" points="73.2993,365.7437,77.2993,375.7437,81.2993,365.7437,77.2993,369.7437" style="stroke:#333333;stroke-width:1;"/><line style="stroke:#333333;stroke-width:1;" x1="198.3706" x2="198.3706" y1="355.7437" y2="375.7437"/><polygon fill="#333333" points="194.3706,365.7437,198.3706,375.7437,202.3706,365.7437,198.3706,369.7437" style="stroke:#333333;stroke-width:1;"/><line style="stroke:#333333;stroke-width:1;" x1="293.0454" x2="293.0454" y1="355.7437" y2="375.7437"/><polygon fill="#333333" points="289.0454,365.7437,293.0454,375.7437,297.0454,365.7437,293.0454,369.7437" style="stroke:#333333;stroke-width:1;"/><line style="stroke:#333333;stroke-width:1;" x1="171.9741" x2="171.9741" y1="284.2446" y2="304.2446"/><polygon fill="#333333" points="167.9741,294.2446,171.9741,304.2446,175.9741,294.2446,171.9741,298.2446" style="stroke:#333333;stroke-width:1;"/><line style="stroke:#333333;stroke-width:1;" x1="171.9741" x2="171.9741" y1="377.2437" y2="395.7437"/><polygon fill="#333333" points="167.9741,385.7437,171.9741,395.7437,175.9741,385.7437,171.9741,389.7437" style="stroke:#333333;stroke-width:1;"/><line style="stroke:#333333;stroke-width:1;" x1="95.8999" x2="95.8999" y1="522.7417" y2="542.7417"/><polygon fill="#333333" points="91.8999,532.7417,95.8999,542.7417,99.8999,532.7417,95.8999,536.7417" style="stroke:#333333;stroke-width:1;"/><line style="stroke:#333333;stroke-width:1;" x1="141.9053" x2="95.8999" y1="459.2427" y2="459.2427"/><line style="stroke:#333333;stroke-width:1;" x1="95.8999" x2="95.8999" y1="459.2427" y2="491.2427"/><polygon fill="#333333" points="91.8999,481.2427,95.8999,491.2427,99.8999,481.2427,95.8999,485.2427" style="stroke:#333333;stroke-width:1;"/><line style="stroke:#333333;stroke-width:1;" x1="171.9741" x2="171.9741" y1="427.2427" y2="447.2427"/><polygon fill="#333333" points="167.9741,437.2427,171.9741,447.2427,175.9741,437.2427,171.9741,441.2427" style="stroke:#333333;stroke-width:1;"/><line style="stroke:#333333;stroke-width:1;" x1="384.4614" x2="384.4614" y1="522.7417" y2="542.7417"/><polygon fill="#333333" points="380.4614,532.7417,384.4614,542.7417,388.4614,532.7417,384.4614,536.7417" style="stroke:#333333;stroke-width:1;"/><line style="stroke:#333333;stroke-width:1;" x1="202.043" x2="384.4614" y1="459.2427" y2="459.2427"/><line style="stroke:#333333;stroke-width:1;" x1="384.4614" x2="384.4614" y1="459.2427" y2="491.2427"/><polygon fill="#333333" points="380.4614,481.2427,384.4614,491.2427,388.4614,481.2427,384.4614,485.2427" style="stroke:#333333;stroke-width:1;"/><text fill="#000000" font-family="Arial" font-size="11" lengthAdjust="spacing" textLength="39.7354" x="148.2388" y="58.4165">Sistema</text><text fill="#000000" font-family="Arial" font-size="11" lengthAdjust="spacing" textLength="25.6738" x="370.6245" y="58.4165">Tutor</text><!--SRC=[PL3DIiD04BxlKuot5AaNRyb1YhGeg9HM51IHwNQI36vsu-waUCZRz21u5PyWB-OchLZnDl1zy_qTiTMcMHCyQrTLpfxKJMMK4XP3C3FDcuC8tZZXd3LsxzqN1QNQ9GUX2biL1BseTBeXApig5TsdPfUfz8xyyELXxYadttrOpHWofJY7vBOHvy7LuXgeusLxZt0s0Yd9Gl9ekwrx6Yc08AvMPDUSAvLUC7dqhmrZRtQE5ZaAXjgmH6fwNwA4ILr3yZ2Up2z7UmYmGBOzONczX2H7OrQeN_x3qt65RBBURgUfqWKLiMmqXIjNzAPJAvuAtDUOeIbTynixS3MaJaz1uYOelC40n_4n3BS77KD7YvzY9j1XstROfUqL3bRVEbYGfXMlCVipoJS0]--></g></svg>