<svg xmlns="http://www.w3.org/2000/svg" xmlns:xlink="http://www.w3.org/1999/xlink" contentStyleType="text/css" height="637px" preserveAspectRatio="none" style="width:755px;height:637px;background:#FEFEFE;" version="1.1" viewBox="0 0 755 637" width="755px" zoomAndPan="magnify"><title>Fluxo de Notifica&#231;&#245;es</title><defs/><g><rect fill="#FEFEFE" height="637" style="stroke:none;stroke-width:1.0;" width="755" x="0" y="0"/><text fill="#000000" font-family="Arial" font-size="14" font-weight="bold" lengthAdjust="spacing" textLength="144.6963" x="303.9994" y="33.1318">Fluxo de Notifica&#231;&#245;es</text><rect fill="none" height="12.6489" style="stroke:none;stroke-width:1.0;" width="722.6951" x="15" y="48.0986"/><ellipse cx="323.335" cy="75.7476" fill="#222222" rx="10" ry="10" style="stroke:#222222;stroke-width:1.0;"/><rect fill="#FFFFFF" height="31.499" rx="12.5" ry="12.5" style="stroke:#333333;stroke-width:0.5;" width="104.502" x="271.084" y="105.7476"/><text fill="#000000" font-family="Arial" font-size="10" lengthAdjust="spacing" textLength="84.502" x="281.084" y="125.1274">Evento de Neg&#243;cio</text><rect fill="#FFFFFF" height="31.499" rx="12.5" ry="12.5" style="stroke:#333333;stroke-width:0.5;" width="115.5908" x="265.5396" y="157.2466"/><text fill="#000000" font-family="Arial" font-size="10" lengthAdjust="spacing" textLength="95.5908" x="275.5396" y="176.6265">Verificar Prefer&#234;ncias</text><polygon fill="#FFFFFF" points="273.0273,208.7456,373.6426,208.7456,385.6426,220.7456,373.6426,232.7456,273.0273,232.7456,261.0273,220.7456,273.0273,208.7456" style="stroke:#333333;stroke-width:0.5;"/><text fill="#000000" font-family="Arial" font-size="10" lengthAdjust="spacing" textLength="100.6152" x="273.0273" y="224.376">Tutor optou por notifs?</text><text fill="#000000" font-family="Arial" font-size="9" lengthAdjust="spacing" textLength="20.0171" x="385.6426" y="218.8384">[n&#227;o]</text><ellipse cx="427.6597" cy="220.7456" fill="none" rx="11" ry="11" style="stroke:#222222;stroke-width:1.0;"/><ellipse cx="427.6597" cy="220.7456" fill="#222222" rx="6" ry="6" style="stroke:#222222;stroke-width:1.0;"/><rect fill="#FFFFFF" height="31.499" rx="12.5" ry="12.5" style="stroke:#333333;stroke-width:0.5;" width="140.0635" x="253.3032" y="252.7456"/><text fill="#000000" font-family="Arial" font-size="10" lengthAdjust="spacing" textLength="120.0635" x="263.3032" y="272.1255">Definir Prioridade de Canal</text><line style="stroke:#333333;stroke-width:1.5;" x1="54.0664" x2="480.144" y1="304.2446" y2="304.2446"/><path d="M107.1328,320.5691 L107.1328,353.1914 L87.1328,357.1914 L107.1328,361.1914 L107.1328,393.8137 A0,0 0 0 0 107.1328,393.8137 L219.2158,393.8137 A0,0 0 0 0 219.2158,393.8137 L219.2158,330.5691 L209.2158,320.5691 L107.1328,320.5691 A0,0 0 0 0 107.1328,320.5691 " fill="#FEFFDD" style="stroke:#181818;stroke-width:0.5;"/><path d="M209.2158,320.5691 L209.2158,330.5691 L219.2158,330.5691 L209.2158,320.5691 " fill="#FEFFDD" style="stroke:#181818;stroke-width:0.5;"/><text fill="#000000" font-family="Arial" font-size="11" lengthAdjust="spacing" textLength="59.3076" x="113.1328" y="335.887">Provedores:</text><text fill="#000000" font-family="Arial" font-size="11" lengthAdjust="spacing" textLength="34.8315" x="113.1328" y="348.5359">- Z-API</text><text fill="#000000" font-family="Arial" font-size="11" lengthAdjust="spacing" textLength="31.7808" x="113.1328" y="361.1848">- Weni</text><text fill="#000000" font-family="Arial" font-size="11" lengthAdjust="spacing" textLength="91.083" x="113.1328" y="373.8337">- Cloud API (Meta)</text><text fill="#000000" font-family="Arial" font-size="11" lengthAdjust="spacing" textLength="34.8315" x="113.1328" y="386.4827">- Twilio</text><rect fill="#FFFFFF" height="31.499" rx="12.5" ry="12.5" style="stroke:#333333;stroke-width:0.5;" width="66.1328" x="21" y="341.4419"/><text fill="#000000" font-family="Arial" font-size="10" lengthAdjust="spacing" textLength="46.1328" x="31" y="360.8218">WhatsApp</text><path d="M352.2305,326.8936 L352.2305,353.1914 L332.2305,357.1914 L352.2305,361.1914 L352.2305,387.4893 A0,0 0 0 0 352.2305,387.4893 L445.9766,387.4893 A0,0 0 0 0 445.9766,387.4893 L445.9766,336.8936 L435.9766,326.8936 L352.2305,326.8936 A0,0 0 0 0 352.2305,326.8936 " fill="#FEFFDD" style="stroke:#181818;stroke-width:0.5;"/><path d="M435.9766,326.8936 L435.9766,336.8936 L445.9766,336.8936 L435.9766,326.8936 " fill="#FEFFDD" style="stroke:#181818;stroke-width:0.5;"/><text fill="#000000" font-family="Arial" font-size="11" lengthAdjust="spacing" textLength="59.3076" x="358.2305" y="342.2114">Provedores:</text><text fill="#000000" font-family="Arial" font-size="11" lengthAdjust="spacing" textLength="34.8315" x="358.2305" y="354.8604">- Twilio</text><text fill="#000000" font-family="Arial" font-size="11" lengthAdjust="spacing" textLength="39.7354" x="358.2305" y="367.5093">- Zenvio</text><text fill="#000000" font-family="Arial" font-size="11" lengthAdjust="spacing" textLength="72.7461" x="358.2305" y="380.1582">- Amazon SNS</text><rect fill="#FFFFFF" height="31.499" rx="12.5" ry="12.5" style="stroke:#333333;stroke-width:0.5;" width="85.0146" x="247.2158" y="341.4419"/><text fill="#000000" font-family="Arial" font-size="10" lengthAdjust="spacing" textLength="65.0146" x="257.2158" y="360.8218">SMS (fallback)</text><path d="M524.3115,314.2446 L524.3115,353.1914 L504.3115,357.1914 L524.3115,361.1914 L524.3115,400.1382 A0,0 0 0 0 524.3115,400.1382 L607.6699,400.1382 A0,0 0 0 0 607.6699,400.1382 L607.6699,324.2446 L597.6699,314.2446 L524.3115,314.2446 A0,0 0 0 0 524.3115,314.2446 " fill="#FEFFDD" style="stroke:#181818;stroke-width:0.5;"/><path d="M597.6699,314.2446 L597.6699,324.2446 L607.6699,324.2446 L597.6699,314.2446 " fill="#FEFFDD" style="stroke:#181818;stroke-width:0.5;"/><text fill="#000000" font-family="Arial" font-size="11" lengthAdjust="spacing" textLength="59.3076" x="530.3115" y="329.5625">Provedores:</text><text fill="#000000" font-family="Arial" font-size="11" lengthAdjust="spacing" textLength="62.3584" x="530.3115" y="342.2114">- MailerSend</text><text fill="#000000" font-family="Arial" font-size="11" lengthAdjust="spacing" textLength="37.2754" x="530.3115" y="354.8604">- SMTP</text><text fill="#000000" font-family="Arial" font-size="11" lengthAdjust="spacing" textLength="45.2407" x="530.3115" y="367.5093">- Mailgun</text><text fill="#000000" font-family="Arial" font-size="11" lengthAdjust="spacing" textLength="28.73" x="530.3115" y="380.1582">- SES</text><text fill="#000000" font-family="Arial" font-size="11" lengthAdjust="spacing" textLength="53.1899" x="530.3115" y="392.8071">- SendGrid</text><rect fill="#FFFFFF" height="31.499" rx="12.5" ry="12.5" style="stroke:#333333;stroke-width:0.5;" width="48.335" x="455.9766" y="341.4419"/><text fill="#000000" font-family="Arial" font-size="10" lengthAdjust="spacing" textLength="28.335" x="465.9766" y="360.8218">E-mail</text><line style="stroke:#333333;stroke-width:1.5;" x1="54.0664" x2="480.144" y1="420.1382" y2="420.1382"/><rect fill="#FFFFFF" height="31.499" rx="12.5" ry="12.5" style="stroke:#333333;stroke-width:0.5;" width="129.4971" x="258.5864" y="440.1382"/><text fill="#000000" font-family="Arial" font-size="10" lengthAdjust="spacing" textLength="109.4971" x="268.5864" y="459.5181">Registrar NotificationLog</text><polygon fill="#FFFFFF" points="305.2661,491.6372,341.4038,491.6372,353.4038,503.6372,341.4038,515.6372,305.2661,515.6372,293.2661,503.6372,305.2661,491.6372" style="stroke:#333333;stroke-width:0.5;"/><text fill="#000000" font-family="Arial" font-size="10" lengthAdjust="spacing" textLength="36.1377" x="305.2661" y="507.2676">Falhou?</text><text fill="#000000" font-family="Arial" font-size="9" lengthAdjust="spacing" textLength="18.9976" x="274.2686" y="501.73">[sim]</text><text fill="#000000" font-family="Arial" font-size="9" lengthAdjust="spacing" textLength="20.0171" x="353.4038" y="501.73">[n&#227;o]</text><rect fill="#FFFFFF" height="31.499" rx="12.5" ry="12.5" style="stroke:#333333;stroke-width:0.5;" width="149.7998" x="172.3608" y="535.6372"/><text fill="#000000" font-family="Arial" font-size="10" lengthAdjust="spacing" textLength="129.7998" x="182.3608" y="555.0171">3 tentativas + desativar canal</text><ellipse cx="247.2607" cy="598.1362" fill="none" rx="11" ry="11" style="stroke:#222222;stroke-width:1.0;"/><ellipse cx="247.2607" cy="598.1362" fill="#222222" rx="6" ry="6" style="stroke:#222222;stroke-width:1.0;"/><line style="stroke:#333333;stroke-width:1.5;" x1="15" x2="15" y1="48.0986" y2="625.1362"/><rect fill="#FFFFFF" height="31.499" rx="12.5" ry="12.5" style="stroke:#333333;stroke-width:0.5;" width="114.4971" x="618.6699" y="535.6372"/><text fill="#000000" font-family="Arial" font-size="10" lengthAdjust="spacing" textLength="94.4971" x="628.6699" y="555.0171">Notifica&#231;&#227;o Recebida</text><ellipse cx="675.9185" cy="598.1362" fill="none" rx="11" ry="11" style="stroke:#222222;stroke-width:1.0;"/><ellipse cx="675.9185" cy="598.1362" fill="#222222" rx="6" ry="6" style="stroke:#222222;stroke-width:1.0;"/><line style="stroke:#333333;stroke-width:1.5;" x1="612.6699" x2="612.6699" y1="48.0986" y2="625.1362"/><line style="stroke:#333333;stroke-width:1.5;" x1="737.167" x2="737.167" y1="48.0986" y2="625.1362"/><line style="stroke:#333333;stroke-width:1.0;" x1="323.335" x2="323.335" y1="85.7476" y2="105.7476"/><polygon fill="#333333" points="319.335,95.7476,323.335,105.7476,327.335,95.7476,323.335,99.7476" style="stroke:#333333;stroke-width:1.0;"/><line style="stroke:#333333;stroke-width:1.0;" x1="323.335" x2="323.335" y1="137.2466" y2="157.2466"/><polygon fill="#333333" points="319.335,147.2466,323.335,157.2466,327.335,147.2466,323.335,151.2466" style="stroke:#333333;stroke-width:1.0;"/><line style="stroke:#333333;stroke-width:1.0;" x1="323.335" x2="323.335" y1="232.7456" y2="252.7456"/><polygon fill="#333333" points="319.335,242.7456,323.335,252.7456,327.335,242.7456,323.335,246.7456" style="stroke:#333333;stroke-width:1.0;"/><line style="stroke:#333333;stroke-width:1.0;" x1="385.6426" x2="416.6597" y1="220.7456" y2="220.7456"/><polygon fill="#333333" points="406.6597,216.7456,416.6597,220.7456,406.6597,224.7456,410.6597,220.7456" style="stroke:#333333;stroke-width:1.0;"/><line style="stroke:#333333;stroke-width:1.0;" x1="323.335" x2="323.335" y1="188.7456" y2="208.7456"/><polygon fill="#333333" points="319.335,198.7456,323.335,208.7456,327.335,198.7456,323.335,202.7456" style="stroke:#333333;stroke-width:1.0;"/><line style="stroke:#333333;stroke-width:1.0;" x1="54.0664" x2="54.0664" y1="305.7446" y2="341.4419"/><polygon fill="#333333" points="50.0664,331.4419,54.0664,341.4419,58.0664,331.4419,54.0664,335.4419" style="stroke:#333333;stroke-width:1.0;"/><line style="stroke:#333333;stroke-width:1.0;" x1="289.7231" x2="289.7231" y1="305.7446" y2="341.4419"/><polygon fill="#333333" points="285.7231,331.4419,289.7231,341.4419,293.7231,331.4419,289.7231,335.4419" style="stroke:#333333;stroke-width:1.0;"/><line style="stroke:#333333;stroke-width:1.0;" x1="480.144" x2="480.144" y1="305.7446" y2="341.4419"/><polygon fill="#333333" points="476.144,331.4419,480.144,341.4419,484.144,331.4419,480.144,335.4419" style="stroke:#333333;stroke-width:1.0;"/><line style="stroke:#333333;stroke-width:1.0;" x1="54.0664" x2="54.0664" y1="372.9409" y2="420.1382"/><polygon fill="#333333" points="50.0664,410.1382,54.0664,420.1382,58.0664,410.1382,54.0664,414.1382" style="stroke:#333333;stroke-width:1.0;"/><line style="stroke:#333333;stroke-width:1.0;" x1="289.7231" x2="289.7231" y1="372.9409" y2="420.1382"/><polygon fill="#333333" points="285.7231,410.1382,289.7231,420.1382,293.7231,410.1382,289.7231,414.1382" style="stroke:#333333;stroke-width:1.0;"/><line style="stroke:#333333;stroke-width:1.0;" x1="480.144" x2="480.144" y1="372.9409" y2="420.1382"/><polygon fill="#333333" points="476.144,410.1382,480.144,420.1382,484.144,410.1382,480.144,414.1382" style="stroke:#333333;stroke-width:1.0;"/><line style="stroke:#333333;stroke-width:1.0;" x1="323.335" x2="323.335" y1="284.2446" y2="304.2446"/><polygon fill="#333333" points="319.335,294.2446,323.335,304.2446,327.335,294.2446,323.335,298.2446" style="stroke:#333333;stroke-width:1.0;"/><line style="stroke:#333333;stroke-width:1.0;" x1="323.335" x2="323.335" y1="421.6382" y2="440.1382"/><polygon fill="#333333" points="319.335,430.1382,323.335,440.1382,327.335,430.1382,323.335,434.1382" style="stroke:#333333;stroke-width:1.0;"/><line style="stroke:#333333;stroke-width:1.0;" x1="247.2607" x2="247.2607" y1="567.1362" y2="587.1362"/><polygon fill="#333333" points="243.2607,577.1362,247.2607,587.1362,251.2607,577.1362,247.2607,581.1362" style="stroke:#333333;stroke-width:1.0;"/><line style="stroke:#333333;stroke-width:1.0;" x1="293.2661" x2="247.2607" y1="503.6372" y2="503.6372"/><line style="stroke:#333333;stroke-width:1.0;" x1="247.2607" x2="247.2607" y1="503.6372" y2="535.6372"/><polygon fill="#333333" points="243.2607,525.6372,247.2607,535.6372,251.2607,525.6372,247.2607,529.6372" style="stroke:#333333;stroke-width:1.0;"/><line style="stroke:#333333;stroke-width:1.0;" x1="323.335" x2="323.335" y1="471.6372" y2="491.6372"/><polygon fill="#333333" points="319.335,481.6372,323.335,491.6372,327.335,481.6372,323.335,485.6372" style="stroke:#333333;stroke-width:1.0;"/><line style="stroke:#333333;stroke-width:1.0;" x1="675.9185" x2="675.9185" y1="567.1362" y2="587.1362"/><polygon fill="#333333" points="671.9185,577.1362,675.9185,587.1362,679.9185,577.1362,675.9185,581.1362" style="stroke:#333333;stroke-width:1.0;"/><line style="stroke:#333333;stroke-width:1.0;" x1="353.4038" x2="675.9185" y1="503.6372" y2="503.6372"/><line style="stroke:#333333;stroke-width:1.0;" x1="675.9185" x2="675.9185" y1="503.6372" y2="535.6372"/><polygon fill="#333333" points="671.9185,525.6372,675.9185,535.6372,679.9185,525.6372,675.9185,529.6372" style="stroke:#333333;stroke-width:1.0;"/><text fill="#000000" font-family="Arial" font-size="11" lengthAdjust="spacing" textLength="39.7354" x="293.9673" y="58.4165">Sistema</text><text fill="#000000" font-family="Arial" font-size="11" lengthAdjust="spacing" textLength="25.6738" x="662.0815" y="58.4165">Tutor</text><!--SRC=[ZLB1Qjj04BtlLqnkDiMvz2OVYacSKAY3iKm3BQ5Cf94yTBKZTbTk2FwR70Avbdw1VYmZMNQTImZiuStEx7l3ldV6BhDDJl0haweITrutbJKcShG4LxPv4D3cZKGkECFskVr7mPXToY5IXJiJ8lfealcMNDoFKjd-pLYc9lbEld_bOUcf8D- -k8mnJ8tX0aRh9ee7gQCqK2jodKRuCeQu8GUZdwvzahkn0GXHQaCkvyAOv98ATjmnidZEKHNrNA13gxoXjXprINAxmHXcTJtLGea9F9URhWFwKhQKYwUGzFK4Vancowy3lYN70xomqkIWBHWjAE9uk5x_OSkYXQxKS-zL0KjarscdYnH61LfxZzdlyOSsE7Bswv3R7ejPXO_Y8Br9tr6SJofa-o6bXGwIJvLfk4WNw-L9hspSeJ5F3qYdh_MpJpTGiFziawoer3HujVaGayZYlaav67s5TYFDVsC3LxsloMU8cXgTtcA0J-fZwB67R6_dmNeRw3GFkpuvkuxX99TF0YlAw5upCNqJcbS0]--></g></svg>