<svg xmlns="http://www.w3.org/2000/svg" xmlns:xlink="http://www.w3.org/1999/xlink" contentStyleType="text/css" data-diagram-type="ACTIVITY" height="750px" preserveAspectRatio="none" style="width:584px;height:750px;background:#FEFEFE;" version="1.1" viewBox="0 0 584 750" width="584px" zoomAndPan="magnify"><title>Fluxo de Chat Tutor &#8596; Cl&#237;nica</title><defs/><g><rect fill="#FEFEFE" height="750" style="stroke:none;stroke-width:1;" width="584" x="0" y="0"/><text fill="#000000" font-family="Arial" font-size="14" font-weight="bold" lengthAdjust="spacing" textLength="199.8965" x="190.9061" y="33.1318">Fluxo de Chat Tutor &#8596; Cl&#237;nica</text><rect fill="none" height="12.6489" style="stroke:none;stroke-width:1;" width="551.7087" x="15" y="48.0986"/><ellipse cx="75.187" cy="75.7476" fill="#222222" rx="10" ry="10" style="stroke:#222222;stroke-width:1;"/><rect fill="#FFFFFF" height="31.499" rx="12.5" ry="12.5" style="stroke:#333333;stroke-width:0.5;" width="65.0146" x="42.6797" y="105.7476"/><text fill="#000000" font-family="Arial" font-size="10" lengthAdjust="spacing" textLength="45.0146" x="52.6797" y="125.1274">Abrir Chat</text><rect fill="#FFFFFF" height="31.499" rx="12.5" ry="12.5" style="stroke:#333333;stroke-width:0.5;" width="100.5908" x="24.8916" y="367.2446"/><text fill="#000000" font-family="Arial" font-size="10" lengthAdjust="spacing" textLength="80.5908" x="34.8916" y="386.6245">Enviar Mensagem</text><rect fill="#FFFFFF" height="31.499" rx="12.5" ry="12.5" style="stroke:#333333;stroke-width:0.5;" width="108.374" x="21" y="664.7397"/><text fill="#000000" font-family="Arial" font-size="10" lengthAdjust="spacing" textLength="88.374" x="31" y="684.1196">Visualizar Resposta</text><ellipse cx="75.187" cy="727.2388" fill="none" rx="11" ry="11" style="stroke:#222222;stroke-width:1;"/><ellipse cx="75.187" cy="727.2388" fill="#222222" rx="6" ry="6" style="stroke:#222222;stroke-width:1;"/><line style="stroke:#333333;stroke-width:1.5;" x1="15" x2="15" y1="48.0986" y2="738.2388"/><rect fill="#FFFFFF" height="31.499" rx="12.5" ry="12.5" style="stroke:#333333;stroke-width:0.5;" width="113.3643" x="215.6274" y="271.7456"/><text fill="#000000" font-family="Arial" font-size="10" lengthAdjust="spacing" textLength="93.3643" x="225.6274" y="291.1255">Anexar Imagem/PDF</text><polygon fill="#FFFFFF" points="255.3516,157.2466,289.2676,157.2466,301.2676,169.2466,289.2676,181.2466,255.3516,181.2466,243.3516,169.2466,255.3516,157.2466" style="stroke:#333333;stroke-width:0.5;"/><text fill="#000000" font-family="Arial" font-size="9" lengthAdjust="spacing" textLength="18.9976" x="276.3096" y="189.6885">[sim]</text><text fill="#000000" font-family="Arial" font-size="10" lengthAdjust="spacing" textLength="33.916" x="255.3516" y="172.877">Anexo?</text><polygon fill="#FFFFFF" points="272.3096,323.2446,284.3096,335.2446,272.3096,347.2446,260.3096,335.2446,272.3096,323.2446" style="stroke:#333333;stroke-width:0.5;"/><rect fill="#FFFFFF" height="31.499" rx="12.5" ry="12.5" style="stroke:#333333;stroke-width:0.5;" width="105.625" x="219.4971" y="470.2427"/><text fill="#000000" font-family="Arial" font-size="10" lengthAdjust="spacing" textLength="85.625" x="229.4971" y="489.6226">Badge de N&#227;o Lido</text><rect fill="#FFFFFF" height="31.499" rx="12.5" ry="12.5" style="stroke:#333333;stroke-width:0.5;" width="86.6895" x="228.9648" y="521.7417"/><text fill="#000000" font-family="Arial" font-size="10" lengthAdjust="spacing" textLength="66.6895" x="238.9648" y="541.1216">Abrir Conversa</text><line style="stroke:#333333;stroke-width:1.5;" x1="186.3345" x2="333.27" y1="573.2407" y2="573.2407"/><rect fill="#FFFFFF" height="31.499" rx="12.5" ry="12.5" style="stroke:#333333;stroke-width:0.5;" width="93.9209" x="139.374" y="593.2407"/><text fill="#000000" font-family="Arial" font-size="10" lengthAdjust="spacing" textLength="73.9209" x="149.374" y="612.6206">Digitar Resposta</text><line style="stroke:#333333;stroke-width:1.5;" x1="133.374" x2="133.374" y1="48.0986" y2="738.2388"/><rect fill="#FFFFFF" height="31.499" rx="12.5" ry="12.5" style="stroke:#333333;stroke-width:0.5;" width="108.3594" x="375.0654" y="205.2466"/><text fill="#000000" font-family="Arial" font-size="10" lengthAdjust="spacing" textLength="88.3594" x="385.0654" y="224.6265">Validar (m&#225;x 10MB)</text><rect fill="#FFFFFF" height="31.499" rx="12.5" ry="12.5" style="stroke:#333333;stroke-width:0.5;" width="145.6104" x="356.4399" y="418.7437"/><text fill="#000000" font-family="Arial" font-size="10" lengthAdjust="spacing" textLength="125.6104" x="366.4399" y="438.1235">Persiste em chat_messages</text><rect fill="#FFFFFF" height="31.499" rx="12.5" ry="12.5" style="stroke:#333333;stroke-width:0.5;" width="143.9502" x="418.2305" y="593.2407"/><text fill="#000000" font-family="Arial" font-size="10" lengthAdjust="spacing" textLength="123.9502" x="428.2305" y="612.6206">Notifica&#231;&#227;o Push/WhatsApp</text><line style="stroke:#333333;stroke-width:1.5;" x1="343.27" x2="490.2056" y1="644.7397" y2="644.7397"/><line style="stroke:#333333;stroke-width:1.5;" x1="338.27" x2="338.27" y1="48.0986" y2="738.2388"/><line style="stroke:#333333;stroke-width:1.5;" x1="566.1807" x2="566.1807" y1="48.0986" y2="738.2388"/><line style="stroke:#333333;stroke-width:1;" x1="75.187" x2="75.187" y1="85.7476" y2="105.7476"/><polygon fill="#333333" points="71.187,95.7476,75.187,105.7476,79.187,95.7476,75.187,99.7476" style="stroke:#333333;stroke-width:1;"/><line style="stroke:#333333;stroke-width:1;" x1="75.187" x2="75.187" y1="696.2388" y2="716.2388"/><polygon fill="#333333" points="71.187,706.2388,75.187,716.2388,79.187,706.2388,75.187,710.2388" style="stroke:#333333;stroke-width:1;"/><line style="stroke:#333333;stroke-width:1;" x1="243.3516" x2="205.6274" y1="169.2466" y2="169.2466"/><polygon fill="#333333" points="201.6274,244.2456,205.6274,254.2456,209.6274,244.2456,205.6274,248.2456" style="stroke:#333333;stroke-width:1;"/><line style="stroke:#333333;stroke-width:1;" x1="205.6274" x2="205.6274" y1="169.2466" y2="335.2446"/><line style="stroke:#333333;stroke-width:1;" x1="205.6274" x2="260.3096" y1="335.2446" y2="335.2446"/><polygon fill="#333333" points="250.3096,331.2446,260.3096,335.2446,250.3096,339.2446,254.3096,335.2446" style="stroke:#333333;stroke-width:1;"/><line style="stroke:#333333;stroke-width:1;" x1="272.3096" x2="272.3096" y1="303.2446" y2="323.2446"/><polygon fill="#333333" points="268.3096,313.2446,272.3096,323.2446,276.3096,313.2446,272.3096,317.2446" style="stroke:#333333;stroke-width:1;"/><line style="stroke:#333333;stroke-width:1;" x1="272.3096" x2="272.3096" y1="501.7417" y2="521.7417"/><polygon fill="#333333" points="268.3096,511.7417,272.3096,521.7417,276.3096,511.7417,272.3096,515.7417" style="stroke:#333333;stroke-width:1;"/><line style="stroke:#333333;stroke-width:1;" x1="186.3345" x2="186.3345" y1="574.7407" y2="593.2407"/><polygon fill="#333333" points="182.3345,583.2407,186.3345,593.2407,190.3345,583.2407,186.3345,587.2407" style="stroke:#333333;stroke-width:1;"/><line style="stroke:#333333;stroke-width:1;" x1="272.3096" x2="272.3096" y1="553.2407" y2="573.2407"/><polygon fill="#333333" points="268.3096,563.2407,272.3096,573.2407,276.3096,563.2407,272.3096,567.2407" style="stroke:#333333;stroke-width:1;"/><line style="stroke:#333333;stroke-width:1;" x1="490.2056" x2="490.2056" y1="624.7397" y2="644.7397"/><polygon fill="#333333" points="486.2056,634.7397,490.2056,644.7397,494.2056,634.7397,490.2056,638.7397" style="stroke:#333333;stroke-width:1;"/><line style="stroke:#333333;stroke-width:1;" x1="429.2451" x2="429.2451" y1="236.7456" y2="254.2456"/><line style="stroke:#333333;stroke-width:1;" x1="429.2451" x2="272.3096" y1="254.2456" y2="254.2456"/><line style="stroke:#333333;stroke-width:1;" x1="272.3096" x2="272.3096" y1="254.2456" y2="271.7456"/><polygon fill="#333333" points="268.3096,261.7456,272.3096,271.7456,276.3096,261.7456,272.3096,265.7456" style="stroke:#333333;stroke-width:1;"/><line style="stroke:#333333;stroke-width:1;" x1="272.3096" x2="272.3096" y1="181.2466" y2="193.2466"/><line style="stroke:#333333;stroke-width:1;" x1="272.3096" x2="429.2451" y1="193.2466" y2="193.2466"/><line style="stroke:#333333;stroke-width:1;" x1="429.2451" x2="429.2451" y1="193.2466" y2="205.2466"/><polygon fill="#333333" points="425.2451,195.2466,429.2451,205.2466,433.2451,195.2466,429.2451,199.2466" style="stroke:#333333;stroke-width:1;"/><line style="stroke:#333333;stroke-width:1;" x1="75.187" x2="75.187" y1="137.2466" y2="142.2466"/><line style="stroke:#333333;stroke-width:1;" x1="75.187" x2="272.3096" y1="142.2466" y2="142.2466"/><line style="stroke:#333333;stroke-width:1;" x1="272.3096" x2="272.3096" y1="142.2466" y2="157.2466"/><polygon fill="#333333" points="268.3096,147.2466,272.3096,157.2466,276.3096,147.2466,272.3096,151.2466" style="stroke:#333333;stroke-width:1;"/><line style="stroke:#333333;stroke-width:1;" x1="272.3096" x2="272.3096" y1="347.2446" y2="352.2446"/><line style="stroke:#333333;stroke-width:1;" x1="272.3096" x2="75.187" y1="352.2446" y2="352.2446"/><line style="stroke:#333333;stroke-width:1;" x1="75.187" x2="75.187" y1="352.2446" y2="367.2446"/><polygon fill="#333333" points="71.187,357.2446,75.187,367.2446,79.187,357.2446,75.187,361.2446" style="stroke:#333333;stroke-width:1;"/><line style="stroke:#333333;stroke-width:1;" x1="75.187" x2="75.187" y1="398.7437" y2="403.7437"/><line style="stroke:#333333;stroke-width:1;" x1="75.187" x2="429.2451" y1="403.7437" y2="403.7437"/><line style="stroke:#333333;stroke-width:1;" x1="429.2451" x2="429.2451" y1="403.7437" y2="418.7437"/><polygon fill="#333333" points="425.2451,408.7437,429.2451,418.7437,433.2451,408.7437,429.2451,412.7437" style="stroke:#333333;stroke-width:1;"/><line style="stroke:#333333;stroke-width:1;" x1="429.2451" x2="429.2451" y1="450.2427" y2="455.2427"/><line style="stroke:#333333;stroke-width:1;" x1="429.2451" x2="272.3096" y1="455.2427" y2="455.2427"/><line style="stroke:#333333;stroke-width:1;" x1="272.3096" x2="272.3096" y1="455.2427" y2="470.2427"/><polygon fill="#333333" points="268.3096,460.2427,272.3096,470.2427,276.3096,460.2427,272.3096,464.2427" style="stroke:#333333;stroke-width:1;"/><line style="stroke:#333333;stroke-width:1;" x1="333.27" x2="333.27" y1="574.7407" y2="578.2407"/><line style="stroke:#333333;stroke-width:1;" x1="333.27" x2="490.2056" y1="578.2407" y2="578.2407"/><line style="stroke:#333333;stroke-width:1;" x1="490.2056" x2="490.2056" y1="578.2407" y2="593.2407"/><polygon fill="#333333" points="486.2056,583.2407,490.2056,593.2407,494.2056,583.2407,490.2056,587.2407" style="stroke:#333333;stroke-width:1;"/><line style="stroke:#333333;stroke-width:1;" x1="186.3345" x2="186.3345" y1="624.7397" y2="630.7397"/><line style="stroke:#333333;stroke-width:1;" x1="186.3345" x2="343.27" y1="630.7397" y2="630.7397"/><line style="stroke:#333333;stroke-width:1;" x1="343.27" x2="343.27" y1="630.7397" y2="644.7397"/><polygon fill="#333333" points="339.27,634.7397,343.27,644.7397,347.27,634.7397,343.27,638.7397" style="stroke:#333333;stroke-width:1;"/><line style="stroke:#333333;stroke-width:1;" x1="429.2451" x2="429.2451" y1="646.2397" y2="649.7397"/><line style="stroke:#333333;stroke-width:1;" x1="429.2451" x2="75.187" y1="649.7397" y2="649.7397"/><line style="stroke:#333333;stroke-width:1;" x1="75.187" x2="75.187" y1="649.7397" y2="664.7397"/><polygon fill="#333333" points="71.187,654.7397,75.187,664.7397,79.187,654.7397,75.187,658.7397" style="stroke:#333333;stroke-width:1;"/><text fill="#000000" font-family="Arial" font-size="11" lengthAdjust="spacing" textLength="25.6738" x="61.3501" y="58.4165">Tutor</text><text fill="#000000" font-family="Arial" font-size="11" lengthAdjust="spacing" textLength="57.4761" x="207.084" y="58.4165">Funcion&#225;rio</text><text fill="#000000" font-family="Arial" font-size="11" lengthAdjust="spacing" textLength="39.7354" x="432.3577" y="58.4165">Sistema</text><!--SRC=[PP0zJWCn58Hxd-BH9Gs1ThT0-I4I4eaYGA50A3AxpkP9jj_AFr64jkO4N22YeE8KUnDEmdE84WKws_DfF3DdQ0iTImMBWemXUrv7euK86BI2iOuR0XQ7AndW8GPoyFts3aFTVbaif13Dxh4HFaWNHDP_SUXsTCxQEDe2oRPRXzG8N4AdRzM6hheGLif2vycZUUuAWEOUVL16DdpEvb9ZAHrqJBlTmEN5PD3D4tFgnc0oO-x6o4gPtcmqpeMo9IwFgR9hkqP69ihw1ALGXw-ocN8-NK0PA3ZomYYVCFy_UpQGPQNI4jFsW-0MIyeFRScksKdcmjSQGqesmWfv4BXJlYQUPY-1h2JQltsd5739OxQVoNeM_Qhto6bylwvtXNvTZvtcw2DFz7hg7wZ-0G00]--></g></svg>