<svg xmlns="http://www.w3.org/2000/svg" xmlns:xlink="http://www.w3.org/1999/xlink" contentStyleType="text/css" data-diagram-type="ACTIVITY" height="806px" preserveAspectRatio="none" style="width:646px;height:806px;background:#FEFEFE;" version="1.1" viewBox="0 0 646 806" width="646px" zoomAndPan="magnify"><title>Fluxo de Auto-Update e Configura&#231;&#245;es</title><defs/><g><rect fill="#FEFEFE" height="806" style="stroke:none;stroke-width:1;" width="646" x="0" y="0"/><text fill="#000000" font-family="Arial" font-size="14" font-weight="bold" lengthAdjust="spacing" textLength="259.0137" x="192.1947" y="33.1318">Fluxo de Auto-Update e Configura&#231;&#245;es</text><rect fill="none" height="12.6489" style="stroke:none;stroke-width:1;" width="613.4031" x="15" y="48.0986"/><ellipse cx="108.8223" cy="75.7476" fill="#222222" rx="10" ry="10" style="stroke:#222222;stroke-width:1;"/><rect fill="#FFFFFF" height="31.499" rx="12.5" ry="12.5" style="stroke:#333333;stroke-width:0.5;" width="153.6816" x="31.9814" y="105.7476"/><text fill="#000000" font-family="Arial" font-size="10" lengthAdjust="spacing" textLength="133.6816" x="41.9814" y="125.1274">Acessar Config. &gt; Atualiza&#231;&#227;o</text><rect fill="#FFFFFF" height="31.499" rx="12.5" ry="12.5" style="stroke:#333333;stroke-width:0.5;" width="175.6445" x="21" y="157.2466"/><text fill="#000000" font-family="Arial" font-size="10" lengthAdjust="spacing" textLength="155.6445" x="31" y="176.6265">Configurar Token + Repo + Branch</text><rect fill="#FFFFFF" height="31.499" rx="12.5" ry="12.5" style="stroke:#333333;stroke-width:0.5;" width="96.1572" x="136.1079" y="407.2427"/><text fill="#000000" font-family="Arial" font-size="10" lengthAdjust="spacing" textLength="76.1572" x="146.1079" y="426.6226">Exibir Changelog</text><rect fill="#FFFFFF" height="31.499" rx="12.5" ry="12.5" style="stroke:#333333;stroke-width:0.5;" width="105.0439" x="131.6646" y="458.7417"/><text fill="#000000" font-family="Arial" font-size="10" lengthAdjust="spacing" textLength="85.0439" x="141.6646" y="478.1216">Aplicar Atualiza&#231;&#227;o</text><line style="stroke:#333333;stroke-width:1.5;" x1="15" x2="15" y1="48.0986" y2="794.7378"/><rect fill="#FFFFFF" height="31.499" rx="12.5" ry="12.5" style="stroke:#333333;stroke-width:0.5;" width="116.1523" x="312.6147" y="208.7456"/><text fill="#000000" font-family="Arial" font-size="10" lengthAdjust="spacing" textLength="96.1523" x="322.6147" y="228.1255">Verificar Atualiza&#231;&#245;es</text><rect fill="#FFFFFF" height="31.499" rx="12.5" ry="12.5" style="stroke:#333333;stroke-width:0.5;" width="167.8369" x="286.7725" y="311.7437"/><text fill="#000000" font-family="Arial" font-size="10" lengthAdjust="spacing" textLength="147.8369" x="296.7725" y="331.1235">Comparar Hash Local vs Remoto</text><polygon fill="#FFFFFF" points="317.3267,363.2427,424.0552,363.2427,436.0552,375.2427,424.0552,387.2427,317.3267,387.2427,305.3267,375.2427,317.3267,363.2427" style="stroke:#333333;stroke-width:0.5;"/><text fill="#000000" font-family="Arial" font-size="10" lengthAdjust="spacing" textLength="106.7285" x="317.3267" y="378.873">Atualiza&#231;&#227;o Dispon&#237;vel?</text><text fill="#000000" font-family="Arial" font-size="9" lengthAdjust="spacing" textLength="20.0171" x="285.3096" y="373.3354">[n&#227;o]</text><text fill="#000000" font-family="Arial" font-size="9" lengthAdjust="spacing" textLength="18.9976" x="436.0552" y="373.3354">[sim]</text><rect fill="#FFFFFF" height="31.499" rx="12.5" ry="12.5" style="stroke:#333333;stroke-width:0.5;" width="97.2363" x="246.7085" y="407.2427"/><text fill="#000000" font-family="Arial" font-size="10" lengthAdjust="spacing" textLength="77.2363" x="256.7085" y="426.6226">(voltar a verificar)</text><rect fill="#FFFFFF" height="31.499" rx="12.5" ry="12.5" style="stroke:#333333;stroke-width:0.5;" width="163.9502" x="364.0801" y="510.2407"/><text fill="#000000" font-family="Arial" font-size="10" lengthAdjust="spacing" textLength="143.9502" x="374.0801" y="529.6206">down &#8594; git pull &#8594; migrate &#8594; up</text><rect fill="#FFFFFF" height="31.499" rx="12.5" ry="12.5" style="stroke:#333333;stroke-width:0.5;" width="135.6104" x="378.25" y="609.7397"/><text fill="#000000" font-family="Arial" font-size="10" lengthAdjust="spacing" textLength="115.6104" x="388.25" y="629.1196">Abortar Restaurar Backup</text><polygon fill="#FFFFFF" points="411.0405,561.7397,481.0698,561.7397,493.0698,573.7397,481.0698,585.7397,411.0405,585.7397,399.0405,573.7397,411.0405,561.7397" style="stroke:#333333;stroke-width:0.5;"/><text fill="#000000" font-family="Arial" font-size="9" lengthAdjust="spacing" textLength="18.9976" x="450.0552" y="594.1816">[sim]</text><text fill="#000000" font-family="Arial" font-size="10" lengthAdjust="spacing" textLength="70.0293" x="411.0405" y="577.3701">Merge Conflict?</text><text fill="#000000" font-family="Arial" font-size="9" lengthAdjust="spacing" textLength="20.0171" x="493.0698" y="571.8325">[n&#227;o]</text><polygon fill="#FFFFFF" points="446.0552,661.2388,458.0552,673.2388,446.0552,685.2388,434.0552,673.2388,446.0552,661.2388" style="stroke:#333333;stroke-width:0.5;"/><rect fill="#FFFFFF" height="31.499" rx="12.5" ry="12.5" style="stroke:#333333;stroke-width:0.5;" width="102.2412" x="394.9346" y="705.2388"/><text fill="#000000" font-family="Arial" font-size="10" lengthAdjust="spacing" textLength="82.2412" x="404.9346" y="724.6187">Registrar Hist&#243;rico</text><ellipse cx="446.0552" cy="767.7378" fill="none" rx="11" ry="11" style="stroke:#222222;stroke-width:1;"/><ellipse cx="446.0552" cy="767.7378" fill="#222222" rx="6" ry="6" style="stroke:#222222;stroke-width:1;"/><line style="stroke:#333333;stroke-width:1.5;" x1="240.7085" x2="240.7085" y1="48.0986" y2="794.7378"/><rect fill="#FFFFFF" height="31.499" rx="12.5" ry="12.5" style="stroke:#333333;stroke-width:0.5;" width="75.0146" x="548.8604" y="260.2446"/><text fill="#000000" font-family="Arial" font-size="10" lengthAdjust="spacing" textLength="55.0146" x="558.8604" y="279.6245">git ls-remote</text><line style="stroke:#333333;stroke-width:1.5;" x1="542.8604" x2="542.8604" y1="48.0986" y2="794.7378"/><line style="stroke:#333333;stroke-width:1.5;" x1="627.875" x2="627.875" y1="48.0986" y2="794.7378"/><line style="stroke:#333333;stroke-width:1;" x1="108.8223" x2="108.8223" y1="85.7476" y2="105.7476"/><polygon fill="#333333" points="104.8223,95.7476,108.8223,105.7476,112.8223,95.7476,108.8223,99.7476" style="stroke:#333333;stroke-width:1;"/><line style="stroke:#333333;stroke-width:1;" x1="108.8223" x2="108.8223" y1="137.2466" y2="157.2466"/><polygon fill="#333333" points="104.8223,147.2466,108.8223,157.2466,112.8223,147.2466,108.8223,151.2466" style="stroke:#333333;stroke-width:1;"/><line style="stroke:#333333;stroke-width:1;" x1="184.1865" x2="184.1865" y1="438.7417" y2="458.7417"/><polygon fill="#333333" points="180.1865,448.7417,184.1865,458.7417,188.1865,448.7417,184.1865,452.7417" style="stroke:#333333;stroke-width:1;"/><line style="stroke:#333333;stroke-width:1;" x1="446.0552" x2="446.0552" y1="585.7397" y2="609.7397"/><polygon fill="#333333" points="442.0552,599.7397,446.0552,609.7397,450.0552,599.7397,446.0552,603.7397" style="stroke:#333333;stroke-width:1;"/><line style="stroke:#333333;stroke-width:1;" x1="493.0698" x2="523.8604" y1="573.7397" y2="573.7397"/><polygon fill="#333333" points="519.8604,615.4893,523.8604,625.4893,527.8604,615.4893,523.8604,619.4893" style="stroke:#333333;stroke-width:1;"/><line style="stroke:#333333;stroke-width:1;" x1="523.8604" x2="523.8604" y1="573.7397" y2="673.2388"/><line style="stroke:#333333;stroke-width:1;" x1="523.8604" x2="458.0552" y1="673.2388" y2="673.2388"/><polygon fill="#333333" points="468.0552,669.2388,458.0552,673.2388,468.0552,677.2388,464.0552,673.2388" style="stroke:#333333;stroke-width:1;"/><line style="stroke:#333333;stroke-width:1;" x1="446.0552" x2="446.0552" y1="641.2388" y2="661.2388"/><polygon fill="#333333" points="442.0552,651.2388,446.0552,661.2388,450.0552,651.2388,446.0552,655.2388" style="stroke:#333333;stroke-width:1;"/><line style="stroke:#333333;stroke-width:1;" x1="446.0552" x2="446.0552" y1="541.7397" y2="561.7397"/><polygon fill="#333333" points="442.0552,551.7397,446.0552,561.7397,450.0552,551.7397,446.0552,555.7397" style="stroke:#333333;stroke-width:1;"/><line style="stroke:#333333;stroke-width:1;" x1="446.0552" x2="446.0552" y1="685.2388" y2="705.2388"/><polygon fill="#333333" points="442.0552,695.2388,446.0552,705.2388,450.0552,695.2388,446.0552,699.2388" style="stroke:#333333;stroke-width:1;"/><line style="stroke:#333333;stroke-width:1;" x1="446.0552" x2="446.0552" y1="736.7378" y2="756.7378"/><polygon fill="#333333" points="442.0552,746.7378,446.0552,756.7378,450.0552,746.7378,446.0552,750.7378" style="stroke:#333333;stroke-width:1;"/><line style="stroke:#333333;stroke-width:1;" x1="305.3267" x2="295.3267" y1="375.2427" y2="375.2427"/><line style="stroke:#333333;stroke-width:1;" x1="295.3267" x2="295.3267" y1="375.2427" y2="407.2427"/><polygon fill="#333333" points="291.3267,397.2427,295.3267,407.2427,299.3267,397.2427,295.3267,401.2427" style="stroke:#333333;stroke-width:1;"/><line style="stroke:#333333;stroke-width:1;" x1="295.3267" x2="295.3267" y1="438.7417" y2="794.7378"/><line style="stroke:#333333;stroke-width:1;" x1="295.3267" x2="370.6909" y1="794.7378" y2="794.7378"/><line style="stroke:#333333;stroke-width:1;" x1="370.6909" x2="370.6909" y1="343.2427" y2="363.2427"/><polygon fill="#333333" points="366.6909,353.2427,370.6909,363.2427,374.6909,353.2427,370.6909,357.2427" style="stroke:#333333;stroke-width:1;"/><line style="stroke:#333333;stroke-width:1;" x1="108.8223" x2="108.8223" y1="188.7456" y2="193.7456"/><line style="stroke:#333333;stroke-width:1;" x1="108.8223" x2="370.6909" y1="193.7456" y2="193.7456"/><line style="stroke:#333333;stroke-width:1;" x1="370.6909" x2="370.6909" y1="193.7456" y2="208.7456"/><polygon fill="#333333" points="366.6909,198.7456,370.6909,208.7456,374.6909,198.7456,370.6909,202.7456" style="stroke:#333333;stroke-width:1;"/><line style="stroke:#333333;stroke-width:1;" x1="370.6909" x2="370.6909" y1="240.2446" y2="245.2446"/><line style="stroke:#333333;stroke-width:1;" x1="370.6909" x2="586.3677" y1="245.2446" y2="245.2446"/><line style="stroke:#333333;stroke-width:1;" x1="586.3677" x2="586.3677" y1="245.2446" y2="260.2446"/><polygon fill="#333333" points="582.3677,250.2446,586.3677,260.2446,590.3677,250.2446,586.3677,254.2446" style="stroke:#333333;stroke-width:1;"/><line style="stroke:#333333;stroke-width:1;" x1="586.3677" x2="586.3677" y1="291.7437" y2="296.7437"/><line style="stroke:#333333;stroke-width:1;" x1="586.3677" x2="370.6909" y1="296.7437" y2="296.7437"/><line style="stroke:#333333;stroke-width:1;" x1="370.6909" x2="370.6909" y1="296.7437" y2="311.7437"/><polygon fill="#333333" points="366.6909,301.7437,370.6909,311.7437,374.6909,301.7437,370.6909,305.7437" style="stroke:#333333;stroke-width:1;"/><line style="stroke:#333333;stroke-width:1;" x1="184.1865" x2="184.1865" y1="490.2407" y2="495.2407"/><line style="stroke:#333333;stroke-width:1;" x1="184.1865" x2="446.0552" y1="495.2407" y2="495.2407"/><line style="stroke:#333333;stroke-width:1;" x1="446.0552" x2="446.0552" y1="495.2407" y2="510.2407"/><polygon fill="#333333" points="442.0552,500.2407,446.0552,510.2407,450.0552,500.2407,446.0552,504.2407" style="stroke:#333333;stroke-width:1;"/><line style="stroke:#333333;stroke-width:1;" x1="436.0552" x2="448.0552" y1="375.2427" y2="375.2427"/><line style="stroke:#333333;stroke-width:1;" x1="448.0552" x2="448.0552" y1="375.2427" y2="393.2427"/><line style="stroke:#333333;stroke-width:1;" x1="448.0552" x2="184.1865" y1="393.2427" y2="393.2427"/><line style="stroke:#333333;stroke-width:1;" x1="184.1865" x2="184.1865" y1="393.2427" y2="407.2427"/><polygon fill="#333333" points="180.1865,397.2427,184.1865,407.2427,188.1865,397.2427,184.1865,401.2427" style="stroke:#333333;stroke-width:1;"/><text fill="#000000" font-family="Arial" font-size="11" lengthAdjust="spacing" textLength="31.1792" x="112.2646" y="58.4165">Admin</text><text fill="#000000" font-family="Arial" font-size="11" lengthAdjust="spacing" textLength="39.7354" x="371.9167" y="58.4165">Sistema</text><text fill="#000000" font-family="Arial" font-size="11" lengthAdjust="spacing" textLength="34.2354" x="568.25" y="58.4165">GitHub</text><!--SRC=[NP5BJYCn48RtFaNDBX620tGaKFFC0ZPXO3D2oEckT4hOBikFJ8IovW1SWSMiM25Ea9lCIIWt93nMxhQ_-kl_gtwHQqnk4MuRjfRTdi_MA9Ke6OHJavSCybZdnBjNljK90U68tOow7FJwt_eLerAhkhNaLYec7PAgwWPZrE63suDzg5FMXkvBmHEFLBLL2F2Rxz313apGino7GRjcFXBDIue9hLwfwXe3pQWH-8kED2xK6QLndWhKKG8JTmDQJlYz_eYjrwNNMCSvd7EZ3IoYT1HKt2YQmU2RGpYcwDcjdnTe3eQGvk9myCV9oyrG0LI31Hk92XeM6sl3aK8JKR18jgSsGn7-P4bJaddCjUlGS3SgbxKtFpELsPJAhNN1MlxhuF_38vI0FXlJ_rZgGbb6-Sw-hoefBZ1qx_iHxVHfVUEfj9roADudADlgDt2ecxkY0V2HO1iKNKkpebrDi1DF_GpbNBy4QhXKnCHUzTWR]--></g></svg>