<svg xmlns="http://www.w3.org/2000/svg" xmlns:xlink="http://www.w3.org/1999/xlink" contentStyleType="text/css" data-diagram-type="ACTIVITY" height="663px" preserveAspectRatio="none" style="width:572px;height:663px;background:#FEFEFE;" version="1.1" viewBox="0 0 572 663" width="572px" zoomAndPan="magnify"><title>Fluxo de Emerg&#234;ncia</title><defs/><g><rect fill="#FEFEFE" height="663" style="stroke:none;stroke-width:1;" width="572" x="0" y="0"/><text fill="#000000" font-family="Arial" font-size="14" font-weight="bold" lengthAdjust="spacing" textLength="140.8203" x="214.4264" y="33.1318">Fluxo de Emerg&#234;ncia</text><rect fill="none" height="12.6489" style="stroke:none;stroke-width:1;" width="539.6731" x="15" y="48.0986"/><ellipse cx="138.0884" cy="75.7476" fill="#222222" rx="10" ry="10" style="stroke:#222222;stroke-width:1;"/><rect fill="#FFFFFF" height="31.499" rx="12.5" ry="12.5" style="stroke:#333333;stroke-width:0.5;" width="137.8418" x="69.1675" y="105.7476"/><text fill="#000000" font-family="Arial" font-size="10" lengthAdjust="spacing" textLength="117.8418" x="79.1675" y="125.1274">Pet chega em Emerg&#234;ncia</text><rect fill="#FFFFFF" height="31.499" rx="12.5" ry="12.5" style="stroke:#333333;stroke-width:0.5;" width="96.1475" x="90.0146" y="208.7456"/><text fill="#000000" font-family="Arial" font-size="10" lengthAdjust="spacing" textLength="76.1475" x="100.0146" y="228.1255">Buscar Protocolo</text><rect fill="#FFFFFF" height="31.499" rx="12.5" ry="12.5" style="stroke:#333333;stroke-width:0.5;" width="112.2754" x="81.9507" y="311.7437"/><text fill="#000000" font-family="Arial" font-size="10" lengthAdjust="spacing" textLength="92.2754" x="91.9507" y="331.1235">Selecionar Protocolo</text><rect fill="#FFFFFF" height="31.499" rx="12.5" ry="12.5" style="stroke:#333333;stroke-width:0.5;" width="118.3887" x="78.894" y="363.2427"/><text fill="#000000" font-family="Arial" font-size="10" lengthAdjust="spacing" textLength="98.3887" x="88.894" y="382.6226">Seguir Passo a Passo</text><line style="stroke:#333333;stroke-width:1.5;" x1="82.6919" x2="213.7803" y1="414.7417" y2="414.7417"/><rect fill="#FFFFFF" height="31.499" rx="12.5" ry="12.5" style="stroke:#333333;stroke-width:0.5;" width="123.3838" x="21" y="434.7417"/><text fill="#000000" font-family="Arial" font-size="10" lengthAdjust="spacing" textLength="103.3838" x="31" y="454.1216">Registrar no Prontu&#225;rio</text><polygon fill="#FFFFFF" points="118.0762,506.2407,158.1006,506.2407,170.1006,518.2407,158.1006,530.2407,118.0762,530.2407,106.0762,518.2407,118.0762,506.2407" style="stroke:#333333;stroke-width:0.5;"/><text fill="#000000" font-family="Arial" font-size="9" lengthAdjust="spacing" textLength="18.9976" x="142.0884" y="538.6826">[sim]</text><text fill="#000000" font-family="Arial" font-size="10" lengthAdjust="spacing" textLength="40.0244" x="118.0762" y="521.8711">Internar?</text><text fill="#000000" font-family="Arial" font-size="9" lengthAdjust="spacing" textLength="20.0171" x="170.1006" y="516.3335">[n&#227;o]</text><line style="stroke:#333333;stroke-width:1.5;" x1="15" x2="15" y1="48.0986" y2="651.7397"/><rect fill="#FFFFFF" height="31.499" rx="12.5" ry="12.5" style="stroke:#333333;stroke-width:0.5;" width="118.9404" x="224.7803" y="157.2466"/><text fill="#000000" font-family="Arial" font-size="10" lengthAdjust="spacing" textLength="98.9404" x="234.7803" y="176.6265">Autorizar Atendimento</text><line style="stroke:#333333;stroke-width:1.5;" x1="218.7803" x2="218.7803" y1="48.0986" y2="651.7397"/><rect fill="#FFFFFF" height="31.499" rx="12.5" ry="12.5" style="stroke:#333333;stroke-width:0.5;" width="158.6719" x="353.7207" y="260.2446"/><text fill="#000000" font-family="Arial" font-size="10" lengthAdjust="spacing" textLength="138.6719" x="363.7207" y="279.6245">Filtrar por Esp&#233;cie + Gravidade</text><rect fill="#FFFFFF" height="31.499" rx="12.5" ry="12.5" style="stroke:#333333;stroke-width:0.5;" width="82.793" x="467.3521" y="434.7417"/><text fill="#000000" font-family="Arial" font-size="10" lengthAdjust="spacing" textLength="62.793" x="477.3521" y="454.1216">Notificar Tutor</text><line style="stroke:#333333;stroke-width:1.5;" x1="377.6602" x2="508.7485" y1="486.2407" y2="486.2407"/><rect fill="#FFFFFF" height="31.499" rx="12.5" ry="12.5" style="stroke:#333333;stroke-width:0.5;" width="94.4873" x="385.813" y="554.2407"/><text fill="#000000" font-family="Arial" font-size="10" lengthAdjust="spacing" textLength="74.4873" x="395.813" y="573.6206">Fluxo Interna&#231;&#227;o</text><ellipse cx="433.0566" cy="616.7397" fill="none" rx="11" ry="11" style="stroke:#222222;stroke-width:1;"/><ellipse cx="433.0566" cy="616.7397" fill="#222222" rx="6" ry="6" style="stroke:#222222;stroke-width:1;"/><ellipse cx="507.0859" cy="518.2407" fill="none" rx="11" ry="11" style="stroke:#222222;stroke-width:1;"/><ellipse cx="507.0859" cy="518.2407" fill="#222222" rx="6" ry="6" style="stroke:#222222;stroke-width:1;"/><line style="stroke:#333333;stroke-width:1.5;" x1="347.7207" x2="347.7207" y1="48.0986" y2="651.7397"/><line style="stroke:#333333;stroke-width:1.5;" x1="554.145" x2="554.145" y1="48.0986" y2="651.7397"/><line style="stroke:#333333;stroke-width:1;" x1="138.0884" x2="138.0884" y1="85.7476" y2="105.7476"/><polygon fill="#333333" points="134.0884,95.7476,138.0884,105.7476,142.0884,95.7476,138.0884,99.7476" style="stroke:#333333;stroke-width:1;"/><line style="stroke:#333333;stroke-width:1;" x1="138.0884" x2="138.0884" y1="343.2427" y2="363.2427"/><polygon fill="#333333" points="134.0884,353.2427,138.0884,363.2427,142.0884,353.2427,138.0884,357.2427" style="stroke:#333333;stroke-width:1;"/><line style="stroke:#333333;stroke-width:1;" x1="82.6919" x2="82.6919" y1="416.2417" y2="434.7417"/><polygon fill="#333333" points="78.6919,424.7417,82.6919,434.7417,86.6919,424.7417,82.6919,428.7417" style="stroke:#333333;stroke-width:1;"/><line style="stroke:#333333;stroke-width:1;" x1="138.0884" x2="138.0884" y1="394.7417" y2="414.7417"/><polygon fill="#333333" points="134.0884,404.7417,138.0884,414.7417,142.0884,404.7417,138.0884,408.7417" style="stroke:#333333;stroke-width:1;"/><line style="stroke:#333333;stroke-width:1;" x1="508.7485" x2="508.7485" y1="466.2407" y2="486.2407"/><polygon fill="#333333" points="504.7485,476.2407,508.7485,486.2407,512.7485,476.2407,508.7485,480.2407" style="stroke:#333333;stroke-width:1;"/><line style="stroke:#333333;stroke-width:1;" x1="433.0566" x2="433.0566" y1="585.7397" y2="605.7397"/><polygon fill="#333333" points="429.0566,595.7397,433.0566,605.7397,437.0566,595.7397,433.0566,599.7397" style="stroke:#333333;stroke-width:1;"/><line style="stroke:#333333;stroke-width:1;" x1="138.0884" x2="138.0884" y1="137.2466" y2="142.2466"/><line style="stroke:#333333;stroke-width:1;" x1="138.0884" x2="284.2505" y1="142.2466" y2="142.2466"/><line style="stroke:#333333;stroke-width:1;" x1="284.2505" x2="284.2505" y1="142.2466" y2="157.2466"/><polygon fill="#333333" points="280.2505,147.2466,284.2505,157.2466,288.2505,147.2466,284.2505,151.2466" style="stroke:#333333;stroke-width:1;"/><line style="stroke:#333333;stroke-width:1;" x1="284.2505" x2="284.2505" y1="188.7456" y2="193.7456"/><line style="stroke:#333333;stroke-width:1;" x1="284.2505" x2="138.0884" y1="193.7456" y2="193.7456"/><line style="stroke:#333333;stroke-width:1;" x1="138.0884" x2="138.0884" y1="193.7456" y2="208.7456"/><polygon fill="#333333" points="134.0884,198.7456,138.0884,208.7456,142.0884,198.7456,138.0884,202.7456" style="stroke:#333333;stroke-width:1;"/><line style="stroke:#333333;stroke-width:1;" x1="138.0884" x2="138.0884" y1="240.2446" y2="245.2446"/><line style="stroke:#333333;stroke-width:1;" x1="138.0884" x2="433.0566" y1="245.2446" y2="245.2446"/><line style="stroke:#333333;stroke-width:1;" x1="433.0566" x2="433.0566" y1="245.2446" y2="260.2446"/><polygon fill="#333333" points="429.0566,250.2446,433.0566,260.2446,437.0566,250.2446,433.0566,254.2446" style="stroke:#333333;stroke-width:1;"/><line style="stroke:#333333;stroke-width:1;" x1="433.0566" x2="433.0566" y1="291.7437" y2="296.7437"/><line style="stroke:#333333;stroke-width:1;" x1="433.0566" x2="138.0884" y1="296.7437" y2="296.7437"/><line style="stroke:#333333;stroke-width:1;" x1="138.0884" x2="138.0884" y1="296.7437" y2="311.7437"/><polygon fill="#333333" points="134.0884,301.7437,138.0884,311.7437,142.0884,301.7437,138.0884,305.7437" style="stroke:#333333;stroke-width:1;"/><line style="stroke:#333333;stroke-width:1;" x1="213.7803" x2="213.7803" y1="416.2417" y2="419.7417"/><line style="stroke:#333333;stroke-width:1;" x1="213.7803" x2="508.7485" y1="419.7417" y2="419.7417"/><line style="stroke:#333333;stroke-width:1;" x1="508.7485" x2="508.7485" y1="419.7417" y2="434.7417"/><polygon fill="#333333" points="504.7485,424.7417,508.7485,434.7417,512.7485,424.7417,508.7485,428.7417" style="stroke:#333333;stroke-width:1;"/><line style="stroke:#333333;stroke-width:1;" x1="82.6919" x2="82.6919" y1="466.2407" y2="472.2407"/><line style="stroke:#333333;stroke-width:1;" x1="82.6919" x2="377.6602" y1="472.2407" y2="472.2407"/><line style="stroke:#333333;stroke-width:1;" x1="377.6602" x2="377.6602" y1="472.2407" y2="486.2407"/><polygon fill="#333333" points="373.6602,476.2407,377.6602,486.2407,381.6602,476.2407,377.6602,480.2407" style="stroke:#333333;stroke-width:1;"/><line style="stroke:#333333;stroke-width:1;" x1="138.0884" x2="138.0884" y1="530.2407" y2="542.2407"/><line style="stroke:#333333;stroke-width:1;" x1="138.0884" x2="433.0566" y1="542.2407" y2="542.2407"/><line style="stroke:#333333;stroke-width:1;" x1="433.0566" x2="433.0566" y1="542.2407" y2="554.2407"/><polygon fill="#333333" points="429.0566,544.2407,433.0566,554.2407,437.0566,544.2407,433.0566,548.2407" style="stroke:#333333;stroke-width:1;"/><line style="stroke:#333333;stroke-width:1;" x1="433.0566" x2="433.0566" y1="487.7407" y2="491.2407"/><line style="stroke:#333333;stroke-width:1;" x1="433.0566" x2="138.0884" y1="491.2407" y2="491.2407"/><line style="stroke:#333333;stroke-width:1;" x1="138.0884" x2="138.0884" y1="491.2407" y2="506.2407"/><polygon fill="#333333" points="134.0884,496.2407,138.0884,506.2407,142.0884,496.2407,138.0884,500.2407" style="stroke:#333333;stroke-width:1;"/><text fill="#000000" font-family="Arial" font-size="11" lengthAdjust="spacing" textLength="53.1953" x="90.2925" y="58.4165">Veterin&#225;rio</text><text fill="#000000" font-family="Arial" font-size="11" lengthAdjust="spacing" textLength="25.6738" x="270.4136" y="58.4165">Tutor</text><text fill="#000000" font-family="Arial" font-size="11" lengthAdjust="spacing" textLength="39.7354" x="431.0652" y="58.4165">Sistema</text><!--SRC=[RL7DIWCn4BxdASPRY-03x1waGYjUf5Zn8Y8XEzqE99abcOX8NqOyYBx6lfYpku9QUnhu_kQRv8IYywL1U7GS0iUphWHlZ91uX9KlpmnABWEcjl-CZgmn-piKJ1JxrqIyDrbi4bEjKS3jiBM0uRU-LiDj4KvxKos6IIysmK8mDXGm2jV_4gkBafsArec57VjHig4i6AooA_AIbEuumJ9t_OSZX5EuJFQ96jlWaS0DUdJ4yM-emcqXXMpE37QQwiwT9p40rGsskdNO5NamHYbZOZr9mBQMeWf_ogdfceMsDFGVpwwDNZeb7jQYBSokeYBQwtmEiiC8i_jCuM5-63hznBUuV-_Vj0D05kuC-engYugDlWdKrzr-0G00]--></g></svg>