<svg xmlns="http://www.w3.org/2000/svg" xmlns:xlink="http://www.w3.org/1999/xlink" contentStyleType="text/css" data-diagram-type="ACTIVITY" height="334px" preserveAspectRatio="none" style="width:879px;height:334px;background:#FEFEFE;" version="1.1" viewBox="0 0 879 334" width="879px" zoomAndPan="magnify"><title>Fluxo Mobile (Veterin&#225;rio em Campo)</title><defs/><g><rect fill="#FEFEFE" height="334" style="stroke:none;stroke-width:1;" width="879" x="0" y="0"/><text fill="#000000" font-family="Arial" font-size="14" font-weight="bold" lengthAdjust="spacing" textLength="247.3652" x="314.7552" y="33.1318">Fluxo Mobile (Veterin&#225;rio em Campo)</text><rect fill="none" height="12.6489" style="stroke:none;stroke-width:1;" width="846.8757" x="15" y="48.0986"/><ellipse cx="175.7876" cy="75.7476" fill="#222222" rx="10" ry="10" style="stroke:#222222;stroke-width:1;"/><rect fill="#FFFFFF" height="31.499" rx="12.5" ry="12.5" style="stroke:#333333;stroke-width:0.5;" width="116.1475" x="117.7139" y="105.7476"/><text fill="#000000" font-family="Arial" font-size="10" lengthAdjust="spacing" textLength="96.1475" x="127.7139" y="125.1274">Acessar /m no celular</text><rect fill="#FFFFFF" height="31.499" rx="12.5" ry="12.5" style="stroke:#333333;stroke-width:0.5;" width="93.3838" x="129.0957" y="157.2466"/><text fill="#000000" font-family="Arial" font-size="10" lengthAdjust="spacing" textLength="73.3838" x="139.0957" y="176.6265">A&#231;&#227;o Desejada?</text><line style="stroke:#333333;stroke-width:1.5;" x1="64.0811" x2="370.0137" y1="208.7456" y2="208.7456"/><rect fill="#FFFFFF" height="31.499" rx="12.5" ry="12.5" style="stroke:#333333;stroke-width:0.5;" width="86.1621" x="21" y="228.7456"/><text fill="#000000" font-family="Arial" font-size="10" lengthAdjust="spacing" textLength="66.1621" x="31" y="248.1255">Agenda do Dia</text><rect fill="#FFFFFF" height="31.499" rx="12.5" ry="12.5" style="stroke:#333333;stroke-width:0.5;" width="101.167" x="117.1621" y="228.7456"/><text fill="#000000" font-family="Arial" font-size="10" lengthAdjust="spacing" textLength="81.167" x="127.1621" y="248.1255">Vacina&#231;&#227;o R&#225;pida</text><rect fill="#FFFFFF" height="31.499" rx="12.5" ry="12.5" style="stroke:#333333;stroke-width:0.5;" width="116.1523" x="243.8613" y="228.7456"/><text fill="#000000" font-family="Arial" font-size="10" lengthAdjust="spacing" textLength="96.1523" x="253.8613" y="248.1255">Scanner (C&#243;digo/QR)</text><ellipse cx="175.7876" cy="311.2446" fill="none" rx="11" ry="11" style="stroke:#222222;stroke-width:1;"/><ellipse cx="175.7876" cy="311.2446" fill="#222222" rx="6" ry="6" style="stroke:#222222;stroke-width:1;"/><line style="stroke:#333333;stroke-width:1.5;" x1="15" x2="15" y1="48.0986" y2="322.2446"/><rect fill="#FFFFFF" height="31.499" rx="12.5" ry="12.5" style="stroke:#333333;stroke-width:0.5;" width="82.2559" x="394.0137" y="228.7456"/><text fill="#000000" font-family="Arial" font-size="10" lengthAdjust="spacing" textLength="62.2559" x="404.0137" y="248.1255">Pesquisar Pet</text><rect fill="#FFFFFF" height="31.499" rx="12.5" ry="12.5" style="stroke:#333333;stroke-width:0.5;" width="123.3643" x="486.2695" y="228.7456"/><text fill="#000000" font-family="Arial" font-size="10" lengthAdjust="spacing" textLength="103.3643" x="496.2695" y="248.1255">Check-in (confirma&#231;&#227;o)</text><rect fill="#FFFFFF" height="31.499" rx="12.5" ry="12.5" style="stroke:#333333;stroke-width:0.5;" width="88.9111" x="655.6338" y="228.7456"/><text fill="#000000" font-family="Arial" font-size="10" lengthAdjust="spacing" textLength="68.9111" x="665.6338" y="248.1255">Chat com Tutor</text><rect fill="#FFFFFF" height="31.499" rx="12.5" ry="12.5" style="stroke:#333333;stroke-width:0.5;" width="102.8027" x="754.5449" y="228.7456"/><text fill="#000000" font-family="Arial" font-size="10" lengthAdjust="spacing" textLength="82.8027" x="764.5449" y="248.1255">Visualizar Triagem</text><line style="stroke:#333333;stroke-width:1.5;" x1="380.0137" x2="805.9463" y1="280.2446" y2="280.2446"/><line style="stroke:#333333;stroke-width:1.5;" x1="375.0137" x2="375.0137" y1="48.0986" y2="322.2446"/><line style="stroke:#333333;stroke-width:1.5;" x1="861.3477" x2="861.3477" y1="48.0986" y2="322.2446"/><line style="stroke:#333333;stroke-width:1;" x1="175.7876" x2="175.7876" y1="85.7476" y2="105.7476"/><polygon fill="#333333" points="171.7876,95.7476,175.7876,105.7476,179.7876,95.7476,175.7876,99.7476" style="stroke:#333333;stroke-width:1;"/><line style="stroke:#333333;stroke-width:1;" x1="175.7876" x2="175.7876" y1="137.2466" y2="157.2466"/><polygon fill="#333333" points="171.7876,147.2466,175.7876,157.2466,179.7876,147.2466,175.7876,151.2466" style="stroke:#333333;stroke-width:1;"/><line style="stroke:#333333;stroke-width:1;" x1="64.0811" x2="64.0811" y1="210.2456" y2="228.7456"/><polygon fill="#333333" points="60.0811,218.7456,64.0811,228.7456,68.0811,218.7456,64.0811,222.7456" style="stroke:#333333;stroke-width:1;"/><line style="stroke:#333333;stroke-width:1;" x1="167.7456" x2="167.7456" y1="210.2456" y2="228.7456"/><polygon fill="#333333" points="163.7456,218.7456,167.7456,228.7456,171.7456,218.7456,167.7456,222.7456" style="stroke:#333333;stroke-width:1;"/><line style="stroke:#333333;stroke-width:1;" x1="301.9375" x2="301.9375" y1="210.2456" y2="228.7456"/><polygon fill="#333333" points="297.9375,218.7456,301.9375,228.7456,305.9375,218.7456,301.9375,222.7456" style="stroke:#333333;stroke-width:1;"/><line style="stroke:#333333;stroke-width:1;" x1="175.7876" x2="175.7876" y1="188.7456" y2="208.7456"/><polygon fill="#333333" points="171.7876,198.7456,175.7876,208.7456,179.7876,198.7456,175.7876,202.7456" style="stroke:#333333;stroke-width:1;"/><line style="stroke:#333333;stroke-width:1;" x1="435.1416" x2="435.1416" y1="260.2446" y2="280.2446"/><polygon fill="#333333" points="431.1416,270.2446,435.1416,280.2446,439.1416,270.2446,435.1416,274.2446" style="stroke:#333333;stroke-width:1;"/><line style="stroke:#333333;stroke-width:1;" x1="547.9517" x2="547.9517" y1="260.2446" y2="280.2446"/><polygon fill="#333333" points="543.9517,270.2446,547.9517,280.2446,551.9517,270.2446,547.9517,274.2446" style="stroke:#333333;stroke-width:1;"/><line style="stroke:#333333;stroke-width:1;" x1="700.0894" x2="700.0894" y1="260.2446" y2="280.2446"/><polygon fill="#333333" points="696.0894,270.2446,700.0894,280.2446,704.0894,270.2446,700.0894,274.2446" style="stroke:#333333;stroke-width:1;"/><line style="stroke:#333333;stroke-width:1;" x1="805.9463" x2="805.9463" y1="260.2446" y2="280.2446"/><polygon fill="#333333" points="801.9463,270.2446,805.9463,280.2446,809.9463,270.2446,805.9463,274.2446" style="stroke:#333333;stroke-width:1;"/><line style="stroke:#333333;stroke-width:1;" x1="112.1621" x2="112.1621" y1="210.2456" y2="213.7456"/><line style="stroke:#333333;stroke-width:1;" x1="112.1621" x2="435.1416" y1="213.7456" y2="213.7456"/><line style="stroke:#333333;stroke-width:1;" x1="435.1416" x2="435.1416" y1="213.7456" y2="228.7456"/><polygon fill="#333333" points="431.1416,218.7456,435.1416,228.7456,439.1416,218.7456,435.1416,222.7456" style="stroke:#333333;stroke-width:1;"/><line style="stroke:#333333;stroke-width:1;" x1="112.1621" x2="112.1621" y1="210.2456" y2="213.7456"/><line style="stroke:#333333;stroke-width:1;" x1="112.1621" x2="547.9517" y1="213.7456" y2="213.7456"/><line style="stroke:#333333;stroke-width:1;" x1="547.9517" x2="547.9517" y1="213.7456" y2="228.7456"/><polygon fill="#333333" points="543.9517,218.7456,547.9517,228.7456,551.9517,218.7456,547.9517,222.7456" style="stroke:#333333;stroke-width:1;"/><line style="stroke:#333333;stroke-width:1;" x1="365.0137" x2="365.0137" y1="210.2456" y2="213.7456"/><line style="stroke:#333333;stroke-width:1;" x1="365.0137" x2="700.0894" y1="213.7456" y2="213.7456"/><line style="stroke:#333333;stroke-width:1;" x1="700.0894" x2="700.0894" y1="213.7456" y2="228.7456"/><polygon fill="#333333" points="696.0894,218.7456,700.0894,228.7456,704.0894,218.7456,700.0894,222.7456" style="stroke:#333333;stroke-width:1;"/><line style="stroke:#333333;stroke-width:1;" x1="370.0137" x2="370.0137" y1="210.2456" y2="213.7456"/><line style="stroke:#333333;stroke-width:1;" x1="370.0137" x2="805.9463" y1="213.7456" y2="213.7456"/><line style="stroke:#333333;stroke-width:1;" x1="805.9463" x2="805.9463" y1="213.7456" y2="228.7456"/><polygon fill="#333333" points="801.9463,218.7456,805.9463,228.7456,809.9463,218.7456,805.9463,222.7456" style="stroke:#333333;stroke-width:1;"/><line style="stroke:#333333;stroke-width:1;" x1="64.0811" x2="64.0811" y1="260.2446" y2="266.2446"/><line style="stroke:#333333;stroke-width:1;" x1="64.0811" x2="380.0137" y1="266.2446" y2="266.2446"/><line style="stroke:#333333;stroke-width:1;" x1="380.0137" x2="380.0137" y1="266.2446" y2="280.2446"/><polygon fill="#333333" points="376.0137,270.2446,380.0137,280.2446,384.0137,270.2446,380.0137,274.2446" style="stroke:#333333;stroke-width:1;"/><line style="stroke:#333333;stroke-width:1;" x1="167.7456" x2="167.7456" y1="260.2446" y2="266.2446"/><line style="stroke:#333333;stroke-width:1;" x1="167.7456" x2="623.6338" y1="266.2446" y2="266.2446"/><line style="stroke:#333333;stroke-width:1;" x1="623.6338" x2="623.6338" y1="266.2446" y2="280.2446"/><polygon fill="#333333" points="619.6338,270.2446,623.6338,280.2446,627.6338,270.2446,623.6338,274.2446" style="stroke:#333333;stroke-width:1;"/><line style="stroke:#333333;stroke-width:1;" x1="301.9375" x2="301.9375" y1="260.2446" y2="266.2446"/><line style="stroke:#333333;stroke-width:1;" x1="301.9375" x2="641.6338" y1="266.2446" y2="266.2446"/><line style="stroke:#333333;stroke-width:1;" x1="641.6338" x2="641.6338" y1="266.2446" y2="280.2446"/><polygon fill="#333333" points="637.6338,270.2446,641.6338,280.2446,645.6338,270.2446,641.6338,274.2446" style="stroke:#333333;stroke-width:1;"/><line style="stroke:#333333;stroke-width:1;" x1="631.6758" x2="631.6758" y1="281.7446" y2="285.2446"/><line style="stroke:#333333;stroke-width:1;" x1="631.6758" x2="175.7876" y1="285.2446" y2="285.2446"/><line style="stroke:#333333;stroke-width:1;" x1="175.7876" x2="175.7876" y1="285.2446" y2="300.2446"/><polygon fill="#333333" points="171.7876,290.2446,175.7876,300.2446,179.7876,290.2446,175.7876,294.2446" style="stroke:#333333;stroke-width:1;"/><text fill="#000000" font-family="Arial" font-size="11" lengthAdjust="spacing" textLength="53.1953" x="168.4092" y="58.4165">Veterin&#225;rio</text><text fill="#000000" font-family="Arial" font-size="11" lengthAdjust="spacing" textLength="39.7354" x="598.313" y="58.4165">Sistema</text><!--SRC=[VP1DJiCm48NtFiMmInVGVR90LH0xfD9MsQB17j81snFy8o6KorGiE017oCLmAGiW4ilnUtxpvZjZhsqs17TQd1D_CMHdbKgSBC6rpIy2DtBFPQWwIXJOJuV00kIWHJV8Ggdnfp2gc30aLQyqnOW1bWwyW2QRBOP65M5wdzu4hYZI8ngyR5GSB2S5KAzwyWR159Nn-nsmH_P57RSS4paSZyurnUVCn_mrfR_EkjsJVZfd3vKM_y31uTVEnIpoT_FoiqFD_kI6pNGOsCnwr5kDtbE0gfq-3FUolDqi_YtRxZ51mGkxd2JCyZgE6Is_bcDsWR4drwZ2uKHbJbU6Jm00]--></g></svg>