<svg xmlns="http://www.w3.org/2000/svg" xmlns:xlink="http://www.w3.org/1999/xlink" contentStyleType="text/css" data-diagram-type="ACTIVITY" height="658px" preserveAspectRatio="none" style="width:656px;height:658px;background:#FEFEFE;" version="1.1" viewBox="0 0 656 658" width="656px" zoomAndPan="magnify"><title>Fluxo de Triagem Manchester</title><defs/><g><rect fill="#FEFEFE" height="658" style="stroke:none;stroke-width:1;" width="656" x="0" y="0"/><text fill="#000000" font-family="Arial" font-size="14" font-weight="bold" lengthAdjust="spacing" textLength="197.6064" x="227.8158" y="33.1318">Fluxo de Triagem Manchester</text><rect fill="none" height="12.6489" style="stroke:none;stroke-width:1;" width="623.238" x="15" y="48.0986"/><ellipse cx="77.4111" cy="75.7476" fill="#222222" rx="10" ry="10" style="stroke:#222222;stroke-width:1;"/><rect fill="#FFFFFF" height="31.499" rx="12.5" ry="12.5" style="stroke:#333333;stroke-width:0.5;" width="112.8223" x="21" y="105.7476"/><text fill="#000000" font-family="Arial" font-size="10" lengthAdjust="spacing" textLength="92.8223" x="31" y="125.1274">Tutor chega com Pet</text><line style="stroke:#333333;stroke-width:1.5;" x1="15" x2="15" y1="48.0986" y2="646.7397"/><rect fill="#FFFFFF" height="31.499" rx="12.5" ry="12.5" style="stroke:#333333;stroke-width:0.5;" width="160.8936" x="143.8223" y="157.2466"/><text fill="#000000" font-family="Arial" font-size="10" lengthAdjust="spacing" textLength="140.8936" x="153.8223" y="176.6265">Registrar Queixa + Sinais Vitais</text><rect fill="#FFFFFF" height="31.499" rx="12.5" ry="12.5" style="stroke:#333333;stroke-width:0.5;" width="144.4727" x="152.0327" y="208.7456"/><text fill="#000000" font-family="Arial" font-size="10" lengthAdjust="spacing" textLength="124.4727" x="162.0327" y="228.1255">Classificar Manchester (cor)</text><ellipse cx="224.269" cy="635.7397" fill="none" rx="11" ry="11" style="stroke:#222222;stroke-width:1;"/><ellipse cx="224.269" cy="635.7397" fill="#222222" rx="6" ry="6" style="stroke:#222222;stroke-width:1;"/><line style="stroke:#333333;stroke-width:1.5;" x1="137.8223" x2="137.8223" y1="48.0986" y2="646.7397"/><rect fill="#FFFFFF" height="31.499" rx="12.5" ry="12.5" style="stroke:#333333;stroke-width:0.5;" width="116.6992" x="328.5015" y="260.2446"/><text fill="#000000" font-family="Arial" font-size="10" lengthAdjust="spacing" textLength="96.6992" x="338.5015" y="279.6245">Temporizador (cor++)</text><rect fill="#FFFFFF" height="31.499" rx="12.5" ry="12.5" style="stroke:#333333;stroke-width:0.5;" width="101.7041" x="335.999" y="359.7437"/><text fill="#000000" font-family="Arial" font-size="10" lengthAdjust="spacing" textLength="81.7041" x="345.999" y="379.1235">Escalar Prioridade</text><rect fill="#FFFFFF" height="31.499" rx="12.5" ry="12.5" style="stroke:#333333;stroke-width:0.5;" width="97.2607" x="338.2207" y="426.2427"/><text fill="#000000" font-family="Arial" font-size="10" lengthAdjust="spacing" textLength="77.2607" x="348.2207" y="445.6226">Sugerir Protocolo</text><polygon fill="#FFFFFF" points="335.7158,311.7437,437.9863,311.7437,449.9863,323.7437,437.9863,335.7437,335.7158,335.7437,323.7158,323.7437,335.7158,311.7437" style="stroke:#333333;stroke-width:0.5;"/><text fill="#000000" font-family="Arial" font-size="9" lengthAdjust="spacing" textLength="18.9976" x="390.8511" y="344.1855">[sim]</text><text fill="#000000" font-family="Arial" font-size="10" lengthAdjust="spacing" textLength="102.2705" x="335.7158" y="327.374">Tempo M&#225;x Excedido?</text><text fill="#000000" font-family="Arial" font-size="9" lengthAdjust="spacing" textLength="20.0171" x="449.9863" y="321.8364">[n&#227;o]</text><polygon fill="#FFFFFF" points="386.8511,477.7417,398.8511,489.7417,386.8511,501.7417,374.8511,489.7417,386.8511,477.7417" style="stroke:#333333;stroke-width:0.5;"/><line style="stroke:#333333;stroke-width:1.5;" x1="308.7158" x2="308.7158" y1="48.0986" y2="646.7397"/><rect fill="#FFFFFF" height="31.499" rx="12.5" ry="12.5" style="stroke:#333333;stroke-width:0.5;" width="115.6055" x="502.5454" y="521.7417"/><text fill="#000000" font-family="Arial" font-size="10" lengthAdjust="spacing" textLength="95.6055" x="512.5454" y="541.1216">Realizar Atendimento</text><rect fill="#FFFFFF" height="31.499" rx="12.5" ry="12.5" style="stroke:#333333;stroke-width:0.5;" width="146.7236" x="486.9863" y="573.2407"/><text fill="#000000" font-family="Arial" font-size="10" lengthAdjust="spacing" textLength="126.7236" x="496.9863" y="592.6206">Registrar na Timeline do Pet</text><line style="stroke:#333333;stroke-width:1.5;" x1="480.9863" x2="480.9863" y1="48.0986" y2="646.7397"/><line style="stroke:#333333;stroke-width:1.5;" x1="637.71" x2="637.71" y1="48.0986" y2="646.7397"/><line style="stroke:#333333;stroke-width:1;" x1="77.4111" x2="77.4111" y1="85.7476" y2="105.7476"/><polygon fill="#333333" points="73.4111,95.7476,77.4111,105.7476,81.4111,95.7476,77.4111,99.7476" style="stroke:#333333;stroke-width:1;"/><line style="stroke:#333333;stroke-width:1;" x1="224.269" x2="224.269" y1="188.7456" y2="208.7456"/><polygon fill="#333333" points="220.269,198.7456,224.269,208.7456,228.269,198.7456,224.269,202.7456" style="stroke:#333333;stroke-width:1;"/><line style="stroke:#333333;stroke-width:1;" x1="386.8511" x2="386.8511" y1="391.2427" y2="426.2427"/><polygon fill="#333333" points="382.8511,416.2427,386.8511,426.2427,390.8511,416.2427,386.8511,420.2427" style="stroke:#333333;stroke-width:1;"/><line style="stroke:#333333;stroke-width:1;" x1="386.8511" x2="386.8511" y1="335.7437" y2="359.7437"/><polygon fill="#333333" points="382.8511,349.7437,386.8511,359.7437,390.8511,349.7437,386.8511,353.7437" style="stroke:#333333;stroke-width:1;"/><line style="stroke:#333333;stroke-width:1;" x1="449.9863" x2="461.9863" y1="323.7437" y2="323.7437"/><polygon fill="#333333" points="457.9863,398.7427,461.9863,408.7427,465.9863,398.7427,461.9863,402.7427" style="stroke:#333333;stroke-width:1;"/><line style="stroke:#333333;stroke-width:1;" x1="461.9863" x2="461.9863" y1="323.7437" y2="489.7417"/><line style="stroke:#333333;stroke-width:1;" x1="461.9863" x2="398.8511" y1="489.7417" y2="489.7417"/><polygon fill="#333333" points="408.8511,485.7417,398.8511,489.7417,408.8511,493.7417,404.8511,489.7417" style="stroke:#333333;stroke-width:1;"/><line style="stroke:#333333;stroke-width:1;" x1="386.8511" x2="386.8511" y1="457.7417" y2="477.7417"/><polygon fill="#333333" points="382.8511,467.7417,386.8511,477.7417,390.8511,467.7417,386.8511,471.7417" style="stroke:#333333;stroke-width:1;"/><line style="stroke:#333333;stroke-width:1;" x1="386.8511" x2="386.8511" y1="291.7437" y2="311.7437"/><polygon fill="#333333" points="382.8511,301.7437,386.8511,311.7437,390.8511,301.7437,386.8511,305.7437" style="stroke:#333333;stroke-width:1;"/><line style="stroke:#333333;stroke-width:1;" x1="560.3481" x2="560.3481" y1="553.2407" y2="573.2407"/><polygon fill="#333333" points="556.3481,563.2407,560.3481,573.2407,564.3481,563.2407,560.3481,567.2407" style="stroke:#333333;stroke-width:1;"/><line style="stroke:#333333;stroke-width:1;" x1="77.4111" x2="77.4111" y1="137.2466" y2="142.2466"/><line style="stroke:#333333;stroke-width:1;" x1="77.4111" x2="224.269" y1="142.2466" y2="142.2466"/><line style="stroke:#333333;stroke-width:1;" x1="224.269" x2="224.269" y1="142.2466" y2="157.2466"/><polygon fill="#333333" points="220.269,147.2466,224.269,157.2466,228.269,147.2466,224.269,151.2466" style="stroke:#333333;stroke-width:1;"/><line style="stroke:#333333;stroke-width:1;" x1="224.269" x2="224.269" y1="240.2446" y2="245.2446"/><line style="stroke:#333333;stroke-width:1;" x1="224.269" x2="386.8511" y1="245.2446" y2="245.2446"/><line style="stroke:#333333;stroke-width:1;" x1="386.8511" x2="386.8511" y1="245.2446" y2="260.2446"/><polygon fill="#333333" points="382.8511,250.2446,386.8511,260.2446,390.8511,250.2446,386.8511,254.2446" style="stroke:#333333;stroke-width:1;"/><line style="stroke:#333333;stroke-width:1;" x1="386.8511" x2="386.8511" y1="501.7417" y2="506.7417"/><line style="stroke:#333333;stroke-width:1;" x1="386.8511" x2="560.3481" y1="506.7417" y2="506.7417"/><line style="stroke:#333333;stroke-width:1;" x1="560.3481" x2="560.3481" y1="506.7417" y2="521.7417"/><polygon fill="#333333" points="556.3481,511.7417,560.3481,521.7417,564.3481,511.7417,560.3481,515.7417" style="stroke:#333333;stroke-width:1;"/><line style="stroke:#333333;stroke-width:1;" x1="560.3481" x2="560.3481" y1="604.7397" y2="609.7397"/><line style="stroke:#333333;stroke-width:1;" x1="560.3481" x2="224.269" y1="609.7397" y2="609.7397"/><line style="stroke:#333333;stroke-width:1;" x1="224.269" x2="224.269" y1="609.7397" y2="624.7397"/><polygon fill="#333333" points="220.269,614.7397,224.269,624.7397,228.269,614.7397,224.269,618.7397" style="stroke:#333333;stroke-width:1;"/><text fill="#000000" font-family="Arial" font-size="11" lengthAdjust="spacing" textLength="25.6738" x="63.5742" y="58.4165">Tutor</text><text fill="#000000" font-family="Arial" font-size="11" lengthAdjust="spacing" textLength="69.0938" x="188.7222" y="58.4165">Recepcionista</text><text fill="#000000" font-family="Arial" font-size="11" lengthAdjust="spacing" textLength="39.7354" x="374.9834" y="58.4165">Sistema</text><text fill="#000000" font-family="Arial" font-size="11" lengthAdjust="spacing" textLength="53.1953" x="532.7505" y="58.4165">Veterin&#225;rio</text><!--SRC=[TL3BQWCn3BpxAzJRXa0_O7CefQItG1vBBgKKOIiRWMqjjXQMafy9_PJyMBNf8QUUBCsCHXe_SVPn30HVNbAI_3oCAJgdh97WFOwJW95TOUmfmGQpFrDLAivTkb6bN5nLBEhQUmV6zWXc1LlIbOdsv6dmB9bDTt7jddgh2XROZSGJmX8Ed94h75djiPdsBMAjV69lgiT6QBoKnUnvC0TAirj7QP32tnZaZrykPmMVeBbJiBbT9rXFdW87ULc0dYb3yv5lF_AvS1GhMLSvMGFGhgl7Q4ktXSqrO20pC_mmzbHunaN5IvILenpuPBSSoKxZVBlQo3qUHZkdmAlEYaHPPOxqY9qHEiCZPu8W_tnJLHb-0G00]--></g></svg>