<?xml version="1.0" encoding="UTF-8"?>
<svg xmlns="http://www.w3.org/2000/svg" width="1277" height="515" viewBox="-76 -30 1277 515">
<defs><marker id="arrowhead" markerWidth="8" markerHeight="6" refX="8" refY="3" orient="auto"><polygon points="0 0, 8 3, 0 6" fill="#000"/></marker></defs>
<switch><g transform="translate(0.5,0.5)">








<rect x="10" y="5" width="1080" height="28" rx="4" ry="4" fill="#fff" stroke="#000" stroke-width="1.5"/><text x="550.0" y="19.0" text-anchor="middle" dominant-baseline="central" fill="#000" font-size="10" font-family="Arial">Fluxo de Triagem Manchester</text>
<rect x="30" y="70" width="1070" height="80" fill="#fff" stroke="#000" stroke-width="1.5"/><rect x="30" y="70" width="18" height="80" fill="#fff" stroke="#000" stroke-width="1"/><text x="39" y="110.0" text-anchor="middle" dominant-baseline="central" fill="#000" font-size="9" font-family="Arial" transform="rotate(-90,39,110.0)">Recepcionista</text>
<rect x="30" y="150" width="1070" height="80" fill="#fff" stroke="#000" stroke-width="1.5"/><rect x="30" y="150" width="18" height="80" fill="#fff" stroke="#000" stroke-width="1"/><text x="39" y="190.0" text-anchor="middle" dominant-baseline="central" fill="#000" font-size="9" font-family="Arial" transform="rotate(-90,39,190.0)">Veterinário</text>
<rect x="30" y="230" width="1070" height="80" fill="#fff" stroke="#000" stroke-width="1.5"/><rect x="30" y="230" width="18" height="80" fill="#fff" stroke="#000" stroke-width="1"/><text x="39" y="270.0" text-anchor="middle" dominant-baseline="central" fill="#000" font-size="9" font-family="Arial" transform="rotate(-90,39,270.0)">Sistema</text>
<rect x="0" y="40" width="1100" height="280" rx="6" ry="6" fill="none" stroke="#000" stroke-width="2"/><rect x="0" y="40" width="28" height="280" fill="#e1d5e7" stroke="#000" stroke-width="2"/><text x="14" y="180.0" text-anchor="middle" dominant-baseline="central" fill="#000" font-size="11" font-family="Arial" transform="rotate(-90,14,180.0)">Clínica</text>
<rect x="30" y="365" width="1070" height="80" fill="#fff" stroke="#000" stroke-width="1.5"/><rect x="30" y="365" width="18" height="80" fill="#fff" stroke="#000" stroke-width="1"/><text x="39" y="405.0" text-anchor="middle" dominant-baseline="central" fill="#000" font-size="9" font-family="Arial" transform="rotate(-90,39,405.0)">Tutor</text>
<rect x="0" y="335" width="1100" height="120" rx="6" ry="6" fill="none" stroke="#000" stroke-width="2"/><rect x="0" y="335" width="28" height="120" fill="#e1d5e7" stroke="#000" stroke-width="2"/><text x="14" y="395.0" text-anchor="middle" dominant-baseline="central" fill="#000" font-size="11" font-family="Arial" transform="rotate(-90,14,395.0)">Tutor</text>
<ellipse cx="65" cy="110.0" rx="11.0" ry="11.0" fill="#d5e8d4" stroke="#82b366" stroke-width="2"/><text x="65" y="133.0" text-anchor="middle" fill="#000" font-size="9" font-family="Arial">Tutor chega
com Pet</text>
<rect x="220" y="87.0" width="140" height="46" rx="4" ry="4" fill="#fff" stroke="#000" stroke-width="1.5"/><text x="290.0" y="110.0" text-anchor="middle" dominant-baseline="central" fill="#000" font-size="10" font-family="Arial">Registrar Queixa
+ Sinais Vitais</text>
<rect x="420" y="87.0" width="140" height="46" rx="4" ry="4" fill="#fff" stroke="#000" stroke-width="1.5"/><text x="490.0" y="110.0" text-anchor="middle" dominant-baseline="central" fill="#000" font-size="10" font-family="Arial">Classificar
Manchester (cor)</text>
<ellipse cx="431.0" cy="270.0" rx="11.0" ry="11.0" fill="#fff" stroke="#d79b00" stroke-width="2"/><circle cx="431.0" cy="270.0" r="6" fill="none" stroke="#d79b00" stroke-width="1"/><text x="431.0" y="293.0" text-anchor="middle" fill="#000" font-size="8" font-family="Arial">Temporizador
(cor++)</text>
<polygon points="627.0,243.0 654,270.0 627.0,297.0 600,270.0" fill="#ffe6cc" stroke="#d79b00" stroke-width="2"/><text x="627.0" y="270.0" text-anchor="middle" dominant-baseline="central" fill="#000" font-size="18" font-family="Arial">✕</text>
<rect x="760" y="247.0" width="140" height="46" rx="4" ry="4" fill="#fff" stroke="#000" stroke-width="1.5"/><text x="830.0" y="270.0" text-anchor="middle" dominant-baseline="central" fill="#000" font-size="10" font-family="Arial">Escalar
Prioridade</text>
<rect x="760" y="247.0" width="140" height="46" rx="4" ry="4" fill="#fff" stroke="#000" stroke-width="1.5"/><text x="830.0" y="270.0" text-anchor="middle" dominant-baseline="central" fill="#000" font-size="10" font-family="Arial">Sugerir
Protocolo</text>
<rect x="760" y="167.0" width="140" height="46" rx="4" ry="4" fill="#fff" stroke="#000" stroke-width="1.5"/><text x="830.0" y="190.0" text-anchor="middle" dominant-baseline="central" fill="#000" font-size="10" font-family="Arial">Realizar
Atendimento</text>
<rect x="960" y="167.0" width="140" height="46" rx="4" ry="4" fill="#fff" stroke="#000" stroke-width="1.5"/><text x="1030.0" y="190.0" text-anchor="middle" dominant-baseline="central" fill="#000" font-size="10" font-family="Arial">Registrar na
Timeline do Pet</text>
<ellipse cx="1111.0" cy="110.0" rx="11.0" ry="11.0" fill="#f8cecc" stroke="#b85450" stroke-width="2"/><ellipse cx="1111.0" cy="110.0" rx="7.0" ry="7.0" fill="none" stroke="#b85450" stroke-width="2"/><text x="1111.0" y="133.0" text-anchor="middle" fill="#000" font-size="9" font-family="Arial">Fim</text>
<path d="M 76 110 L 141 110 L 141 110 L 220 110" fill="none" stroke="#000" stroke-width="1.5" marker-end="url(#arrowhead)"/>
<path d="M 360 110 L 390 110 L 390 110 L 420 110" fill="none" stroke="#000" stroke-width="1.5" marker-end="url(#arrowhead)"/>
<path d="M 490 133 L 490 196 L 431 196 L 431 259" fill="none" stroke="#000" stroke-width="1.5" marker-end="url(#arrowhead)"/>
<path d="M 442 270 L 521 270 L 521 270 L 600 270" fill="none" stroke="#000" stroke-width="1.5" marker-end="url(#arrowhead)"/>
<path d="M 654 270 L 707 270 L 707 270 L 760 270" fill="none" stroke="#000" stroke-width="1.5" marker-end="url(#arrowhead)"/>
<path d="M 654 270 L 707 270 L 707 190 L 760 190" fill="none" stroke="#000" stroke-width="1.5" marker-end="url(#arrowhead)"/>
<path d="M 830 247 L 830 270 L 830 270 L 830 293" fill="none" stroke="#000" stroke-width="1.5" marker-end="url(#arrowhead)"/>
<path d="M 830 247 L 830 230 L 830 230 L 830 213" fill="none" stroke="#000" stroke-width="1.5" marker-end="url(#arrowhead)"/>
<path d="M 900 190 L 930 190 L 930 190 L 960 190" fill="none" stroke="#000" stroke-width="1.5" marker-end="url(#arrowhead)"/>
<path d="M 1100 190 L 1100 190 L 1100 110 L 1100 110" fill="none" stroke="#000" stroke-width="1.5" marker-end="url(#arrowhead)"/>
</g>
<foreignObject width="1100" height="450"><div xmlns="http://www.w3.org/1999/xhtml"><mxfile host="Generator" modified="2026-05-21T07:35:39.401952" agent="BPMN-PHASEX" version="24.0.5" type="device"><diagram id="28-fluxo-triagem.svg" name="Page-1"><mxGraphModel dx="0" dy="0" grid="1" gridSize="10" guides="1" page="0" pageWidth="1100" pageHeight="450" math="0" shadow="0"><root><mxCell id="0"/><mxCell id="1" parent="0"/><mxCell id="c813" value="Fluxo de Triagem Manchester" style="text;html=1;strokeColor=none;fillColor=none;align=center;fontSize=14;fontStyle=1" vertex="1" parent="1"><mxGeometry x="10" y="5" width="1080" height="28" as="geometry"/></mxCell><mxCell id="c814" value="Recepcionista" style="swimlane;startSize=18;fillColor=#dae8fc;strokeColor=#000;horizontal=1;" vertex="1" parent="1"><mxGeometry x="30" y="70" width="1070" height="80" as="geometry"/></mxCell><mxCell id="c815" value="Veterinário" style="swimlane;startSize=18;fillColor=#d5e8d4;strokeColor=#000;horizontal=1;" vertex="1" parent="1"><mxGeometry x="30" y="150" width="1070" height="80" as="geometry"/></mxCell><mxCell id="c816" value="Sistema" style="swimlane;startSize=18;fillColor=#f5f5f5;strokeColor=#000;horizontal=1;" vertex="1" parent="1"><mxGeometry x="30" y="230" width="1070" height="80" as="geometry"/></mxCell><mxCell id="c817" value="Clínica" style="swimlane;startSize=0;fillColor=none;strokeColor=#000;" vertex="1" parent="1"><mxGeometry x="0" y="40" width="1100" height="280" as="geometry"/></mxCell><mxCell id="c818" value="Tutor" style="swimlane;startSize=18;fillColor=#e1d5e7;strokeColor=#000;horizontal=1;" vertex="1" parent="1"><mxGeometry x="30" y="365" width="1070" height="80" as="geometry"/></mxCell><mxCell id="c819" value="Tutor" style="swimlane;startSize=0;fillColor=none;strokeColor=#000;" vertex="1" parent="1"><mxGeometry x="0" y="335" width="1100" height="120" as="geometry"/></mxCell><mxCell id="c820" value="Tutor chega
com Pet" style="ellipse;whiteSpace=wrap;html=1;fillColor=#d5e8d4;strokeColor=#82b366;" vertex="1" parent="1"><mxGeometry x="40" y="99.0" width="22" height="22" as="geometry"/></mxCell><mxCell id="c821" value="Registrar Queixa
+ Sinais Vitais" style="rounded=1;whiteSpace=wrap;html=1;" vertex="1" parent="1"><mxGeometry x="220" y="87.0" width="140" height="46" as="geometry"/></mxCell><mxCell id="c822" value="Classificar
Manchester (cor)" style="rounded=1;whiteSpace=wrap;html=1;" vertex="1" parent="1"><mxGeometry x="420" y="87.0" width="140" height="46" as="geometry"/></mxCell><mxCell id="c823" value="Temporizador
(cor++)" style="rounded=1;whiteSpace=wrap;html=1;" vertex="1" parent="1"><mxGeometry x="420" y="259.0" width="22" height="22" as="geometry"/></mxCell><mxCell id="c824" value="Tempo Máx
Excedido?" style="rhombus;whiteSpace=wrap;html=1;fillColor=#ffe6cc;strokeColor=#d79b00;" vertex="1" parent="1"><mxGeometry x="600" y="243.0" width="54" height="54" as="geometry"/></mxCell><mxCell id="c825" value="Escalar
Prioridade" style="rounded=1;whiteSpace=wrap;html=1;" vertex="1" parent="1"><mxGeometry x="760" y="247.0" width="140" height="46" as="geometry"/></mxCell><mxCell id="c826" value="Sugerir
Protocolo" style="rounded=1;whiteSpace=wrap;html=1;" vertex="1" parent="1"><mxGeometry x="760" y="247.0" width="140" height="46" as="geometry"/></mxCell><mxCell id="c827" value="Realizar
Atendimento" style="rounded=1;whiteSpace=wrap;html=1;" vertex="1" parent="1"><mxGeometry x="760" y="167.0" width="140" height="46" as="geometry"/></mxCell><mxCell id="c828" value="Registrar na
Timeline do Pet" style="rounded=1;whiteSpace=wrap;html=1;" vertex="1" parent="1"><mxGeometry x="960" y="167.0" width="140" height="46" as="geometry"/></mxCell><mxCell id="c829" value="Fim" style="ellipse;whiteSpace=wrap;html=1;fillColor=#f8cecc;strokeColor=#b85450;" vertex="1" parent="1"><mxGeometry x="1100" y="99.0" width="22" height="22" as="geometry"/></mxCell><mxCell id="c830" edge="1" parent="1" source="c820" target="c821" style="edgeStyle=orthogonalEdgeStyle;rounded=0;html=1;"><mxGeometry relative="1" as="geometry"/></mxCell><mxCell id="c831" edge="1" parent="1" source="c821" target="c822" style="edgeStyle=orthogonalEdgeStyle;rounded=0;html=1;"><mxGeometry relative="1" as="geometry"/></mxCell><mxCell id="c832" edge="1" parent="1" source="c822" target="c823" style="edgeStyle=orthogonalEdgeStyle;rounded=0;html=1;"><mxGeometry relative="1" as="geometry"/></mxCell><mxCell id="c833" edge="1" parent="1" source="c823" target="c824" style="edgeStyle=orthogonalEdgeStyle;rounded=0;html=1;"><mxGeometry relative="1" as="geometry"/></mxCell><mxCell id="c834" edge="1" parent="1" source="c824" target="c825" style="edgeStyle=orthogonalEdgeStyle;rounded=0;html=1;"><mxGeometry relative="1" as="geometry"/></mxCell><mxCell id="c835" edge="1" parent="1" source="c824" target="c827" style="edgeStyle=orthogonalEdgeStyle;rounded=0;html=1;"><mxGeometry relative="1" as="geometry"/></mxCell><mxCell id="c836" edge="1" parent="1" source="c825" target="c826" style="edgeStyle=orthogonalEdgeStyle;rounded=0;html=1;"><mxGeometry relative="1" as="geometry"/></mxCell><mxCell id="c837" edge="1" parent="1" source="c826" target="c827" style="edgeStyle=orthogonalEdgeStyle;rounded=0;html=1;"><mxGeometry relative="1" as="geometry"/></mxCell><mxCell id="c838" edge="1" parent="1" source="c827" target="c828" style="edgeStyle=orthogonalEdgeStyle;rounded=0;html=1;"><mxGeometry relative="1" as="geometry"/></mxCell><mxCell id="c839" edge="1" parent="1" source="c828" target="c829" style="edgeStyle=orthogonalEdgeStyle;rounded=0;html=1;"><mxGeometry relative="1" as="geometry"/></mxCell></root></mxGraphModel></diagram></mxfile></div></foreignObject></switch>
</svg>