<svg xmlns="http://www.w3.org/2000/svg" xmlns:xlink="http://www.w3.org/1999/xlink" contentStyleType="text/css" data-diagram-type="ACTIVITY" height="967px" preserveAspectRatio="none" style="width:611px;height:967px;background:#FEFEFE;" version="1.1" viewBox="0 0 611 967" width="611px" zoomAndPan="magnify"><title>Fluxo de Hospedagem</title><defs/><g><rect fill="#FEFEFE" height="967" style="stroke:none;stroke-width:1;" width="611" x="0" y="0"/><text fill="#000000" font-family="Arial" font-size="14" font-weight="bold" lengthAdjust="spacing" textLength="149.3584" x="229.4608" y="33.1318">Fluxo de Hospedagem</text><rect fill="none" height="12.6489" style="stroke:none;stroke-width:1;" width="578.28" x="15" y="48.0986"/><ellipse cx="106.9136" cy="75.7476" fill="#222222" rx="10" ry="10" style="stroke:#222222;stroke-width:1;"/><rect fill="#FFFFFF" height="31.499" rx="12.5" ry="12.5" style="stroke:#333333;stroke-width:0.5;" width="117.8271" x="48" y="105.7476"/><text fill="#000000" font-family="Arial" font-size="10" lengthAdjust="spacing" textLength="97.8271" x="58" y="125.1274">Solicitar Hospedagem</text><polygon fill="#FFFFFF" points="77.7314,157.2466,136.0957,157.2466,148.0957,169.2466,136.0957,181.2466,77.7314,181.2466,65.7314,169.2466,77.7314,157.2466" style="stroke:#333333;stroke-width:0.5;"/><text fill="#000000" font-family="Arial" font-size="9" lengthAdjust="spacing" textLength="20.0171" x="110.9136" y="189.6885">[n&#227;o]</text><text fill="#000000" font-family="Arial" font-size="10" lengthAdjust="spacing" textLength="58.3643" x="77.7314" y="172.877">Vacinas OK?</text><polygon fill="#FFFFFF" points="106.9136,256.7456,118.9136,268.7456,106.9136,280.7456,94.9136,268.7456,106.9136,256.7456" style="stroke:#333333;stroke-width:0.5;"/><rect fill="#FFFFFF" height="31.499" rx="12.5" ry="12.5" style="stroke:#333333;stroke-width:0.5;" width="109.4922" x="52.1675" y="300.7456"/><text fill="#000000" font-family="Arial" font-size="10" lengthAdjust="spacing" textLength="89.4922" x="62.1675" y="320.1255">Alocar Acomoda&#231;&#227;o</text><rect fill="#FFFFFF" height="31.499" rx="12.5" ry="12.5" style="stroke:#333333;stroke-width:0.5;" width="104.4922" x="54.6675" y="400.2446"/><text fill="#000000" font-family="Arial" font-size="10" lengthAdjust="spacing" textLength="84.4922" x="64.6675" y="419.6245">Agendar Grooming</text><polygon fill="#FFFFFF" points="73,352.2446,140.8271,352.2446,152.8271,364.2446,140.8271,376.2446,73,376.2446,61,364.2446,73,352.2446" style="stroke:#333333;stroke-width:0.5;"/><text fill="#000000" font-family="Arial" font-size="9" lengthAdjust="spacing" textLength="18.9976" x="110.9136" y="384.6865">[sim]</text><text fill="#000000" font-family="Arial" font-size="10" lengthAdjust="spacing" textLength="67.8271" x="73" y="367.875">Banho e Tosa?</text><polygon fill="#FFFFFF" points="106.9136,451.7437,118.9136,463.7437,106.9136,475.7437,94.9136,463.7437,106.9136,451.7437" style="stroke:#333333;stroke-width:0.5;"/><polygon fill="#FFFFFF" points="81.3447,767.9912,132.4824,767.9912,144.4824,779.9912,132.4824,791.9912,81.3447,791.9912,69.3447,779.9912,81.3447,767.9912" style="stroke:#333333;stroke-width:0.5;"/><text fill="#000000" font-family="Arial" font-size="10" lengthAdjust="spacing" textLength="51.1377" x="81.3447" y="783.6216">Check-out?</text><text fill="#000000" font-family="Arial" font-size="9" lengthAdjust="spacing" textLength="20.0171" x="144.4824" y="778.084">[n&#227;o]</text><rect fill="#FFFFFF" height="31.499" rx="12.5" ry="12.5" style="stroke:#333333;stroke-width:0.5;" width="77.2412" x="68.293" y="830.2476"/><text fill="#000000" font-family="Arial" font-size="10" lengthAdjust="spacing" textLength="57.2412" x="78.293" y="849.6274">Gerar Fatura</text><line style="stroke:#333333;stroke-width:1.5;" x1="15" x2="15" y1="48.0986" y2="955.2456"/><rect fill="#FFFFFF" height="31.499" rx="12.5" ry="12.5" style="stroke:#333333;stroke-width:0.5;" width="181.1963" x="209.4307" y="205.2466"/><text fill="#000000" font-family="Arial" font-size="10" lengthAdjust="spacing" textLength="161.1963" x="219.4307" y="224.6265">Assinar Termo de Responsabilidade</text><rect fill="#FFFFFF" height="31.499" rx="12.5" ry="12.5" style="stroke:#333333;stroke-width:0.5;" width="64.4678" x="267.7949" y="639.2427"/><text fill="#000000" font-family="Arial" font-size="10" lengthAdjust="spacing" textLength="44.4678" x="277.7949" y="658.6226">Notificado</text><ellipse cx="300.0288" cy="714.9912" fill="none" rx="11" ry="11" style="stroke:#222222;stroke-width:1;"/><ellipse cx="300.0288" cy="714.9912" fill="#222222" rx="6" ry="6" style="stroke:#222222;stroke-width:1;"/><rect fill="#FFFFFF" height="31.499" rx="12.5" ry="12.5" style="stroke:#333333;stroke-width:0.5;" width="105.5957" x="247.231" y="881.7466"/><text fill="#000000" font-family="Arial" font-size="10" lengthAdjust="spacing" textLength="85.5957" x="257.231" y="901.1265">Pagar e Retirar Pet</text><ellipse cx="300.0288" cy="944.2456" fill="none" rx="11" ry="11" style="stroke:#222222;stroke-width:1;"/><ellipse cx="300.0288" cy="944.2456" fill="#222222" rx="6" ry="6" style="stroke:#222222;stroke-width:1;"/><line style="stroke:#333333;stroke-width:1.5;" x1="203.4307" x2="203.4307" y1="48.0986" y2="955.2456"/><rect fill="#FFFFFF" height="31.499" rx="12.5" ry="12.5" style="stroke:#333333;stroke-width:0.5;" width="188.125" x="400.627" y="539.7437"/><text fill="#000000" font-family="Arial" font-size="10" lengthAdjust="spacing" textLength="168.125" x="410.627" y="559.1235">Ciclo Di&#225;rio: Alim+Med+Pas+Limpeza</text><polygon fill="#FFFFFF" points="461.3398,591.2427,528.0391,591.2427,540.0391,603.2427,528.0391,615.2427,461.3398,615.2427,449.3398,603.2427,461.3398,591.2427" style="stroke:#333333;stroke-width:0.5;"/><text fill="#000000" font-family="Arial" font-size="9" lengthAdjust="spacing" textLength="18.9976" x="498.6895" y="623.6846">[sim]</text><text fill="#000000" font-family="Arial" font-size="10" lengthAdjust="spacing" textLength="66.6992" x="461.3398" y="606.873">Intercorr&#234;ncia?</text><polygon fill="#FFFFFF" points="494.6895,495.7437,506.6895,507.7437,494.6895,519.7437,482.6895,507.7437,494.6895,495.7437" style="stroke:#333333;stroke-width:0.5;"/><line style="stroke:#333333;stroke-width:1.5;" x1="394.627" x2="394.627" y1="48.0986" y2="955.2456"/><line style="stroke:#333333;stroke-width:1.5;" x1="592.752" x2="592.752" y1="48.0986" y2="955.2456"/><line style="stroke:#333333;stroke-width:1;" x1="106.9136" x2="106.9136" y1="85.7476" y2="105.7476"/><polygon fill="#333333" points="102.9136,95.7476,106.9136,105.7476,110.9136,95.7476,106.9136,99.7476" style="stroke:#333333;stroke-width:1;"/><line style="stroke:#333333;stroke-width:1;" x1="65.7314" x2="34" y1="169.2466" y2="169.2466"/><polygon fill="#333333" points="30,210.9961,34,220.9961,38,210.9961,34,214.9961" style="stroke:#333333;stroke-width:1;"/><line style="stroke:#333333;stroke-width:1;" x1="34" x2="34" y1="169.2466" y2="268.7456"/><line style="stroke:#333333;stroke-width:1;" x1="34" x2="94.9136" y1="268.7456" y2="268.7456"/><polygon fill="#333333" points="84.9136,264.7456,94.9136,268.7456,84.9136,272.7456,88.9136,268.7456" style="stroke:#333333;stroke-width:1;"/><line style="stroke:#333333;stroke-width:1;" x1="106.9136" x2="106.9136" y1="137.2466" y2="157.2466"/><polygon fill="#333333" points="102.9136,147.2466,106.9136,157.2466,110.9136,147.2466,106.9136,151.2466" style="stroke:#333333;stroke-width:1;"/><line style="stroke:#333333;stroke-width:1;" x1="106.9136" x2="106.9136" y1="280.7456" y2="300.7456"/><polygon fill="#333333" points="102.9136,290.7456,106.9136,300.7456,110.9136,290.7456,106.9136,294.7456" style="stroke:#333333;stroke-width:1;"/><line style="stroke:#333333;stroke-width:1;" x1="106.9136" x2="106.9136" y1="376.2446" y2="400.2446"/><polygon fill="#333333" points="102.9136,390.2446,106.9136,400.2446,110.9136,390.2446,106.9136,394.2446" style="stroke:#333333;stroke-width:1;"/><line style="stroke:#333333;stroke-width:1;" x1="152.8271" x2="169.1597" y1="364.2446" y2="364.2446"/><polygon fill="#333333" points="165.1597,405.9941,169.1597,415.9941,173.1597,405.9941,169.1597,409.9941" style="stroke:#333333;stroke-width:1;"/><line style="stroke:#333333;stroke-width:1;" x1="169.1597" x2="169.1597" y1="364.2446" y2="463.7437"/><line style="stroke:#333333;stroke-width:1;" x1="169.1597" x2="118.9136" y1="463.7437" y2="463.7437"/><polygon fill="#333333" points="128.9136,459.7437,118.9136,463.7437,128.9136,467.7437,124.9136,463.7437" style="stroke:#333333;stroke-width:1;"/><line style="stroke:#333333;stroke-width:1;" x1="106.9136" x2="106.9136" y1="431.7437" y2="451.7437"/><polygon fill="#333333" points="102.9136,441.7437,106.9136,451.7437,110.9136,441.7437,106.9136,445.7437" style="stroke:#333333;stroke-width:1;"/><line style="stroke:#333333;stroke-width:1;" x1="106.9136" x2="106.9136" y1="332.2446" y2="352.2446"/><polygon fill="#333333" points="102.9136,342.2446,106.9136,352.2446,110.9136,342.2446,106.9136,346.2446" style="stroke:#333333;stroke-width:1;"/><line style="stroke:#333333;stroke-width:1;" x1="106.9136" x2="106.9136" y1="791.9912" y2="830.2476"/><polygon fill="#333333" points="102.9136,820.2476,106.9136,830.2476,110.9136,820.2476,106.9136,824.2476" style="stroke:#333333;stroke-width:1;"/><text fill="#000000" font-family="Arial" font-size="9" lengthAdjust="spacing" textLength="87.5171" x="110.9136" y="810.8403">[sim] :Calcular Di&#225;rias</text><line style="stroke:#333333;stroke-width:1;" x1="300.0288" x2="300.0288" y1="670.7417" y2="703.9912"/><polygon fill="#333333" points="296.0288,693.9912,300.0288,703.9912,304.0288,693.9912,300.0288,697.9912" style="stroke:#333333;stroke-width:1;"/><line style="stroke:#333333;stroke-width:1;" x1="300.0288" x2="300.0288" y1="913.2456" y2="933.2456"/><polygon fill="#333333" points="296.0288,923.2456,300.0288,933.2456,304.0288,923.2456,300.0288,927.2456" style="stroke:#333333;stroke-width:1;"/><line style="stroke:#333333;stroke-width:1;" x1="540.0391" x2="552.0391" y1="603.2427" y2="603.2427"/><polygon fill="#333333" points="548.0391,680.7417,552.0391,690.7417,556.0391,680.7417,552.0391,684.7417" style="stroke:#333333;stroke-width:1;"/><line style="stroke:#333333;stroke-width:1;" x1="552.0391" x2="552.0391" y1="603.2427" y2="752.9912"/><line style="stroke:#333333;stroke-width:1;" x1="552.0391" x2="106.9136" y1="752.9912" y2="752.9912"/><line style="stroke:#333333;stroke-width:1;" x1="106.9136" x2="106.9136" y1="752.9912" y2="767.9912"/><polygon fill="#333333" points="102.9136,757.9912,106.9136,767.9912,110.9136,757.9912,106.9136,761.9912" style="stroke:#333333;stroke-width:1;"/><line style="stroke:#333333;stroke-width:1;" x1="494.6895" x2="494.6895" y1="571.2427" y2="591.2427"/><polygon fill="#333333" points="490.6895,581.2427,494.6895,591.2427,498.6895,581.2427,494.6895,585.2427" style="stroke:#333333;stroke-width:1;"/><line style="stroke:#333333;stroke-width:1;" x1="494.6895" x2="494.6895" y1="519.7437" y2="539.7437"/><polygon fill="#333333" points="490.6895,529.7437,494.6895,539.7437,498.6895,529.7437,494.6895,533.7437" style="stroke:#333333;stroke-width:1;"/><line style="stroke:#333333;stroke-width:1;" x1="106.9136" x2="106.9136" y1="181.2466" y2="193.2466"/><line style="stroke:#333333;stroke-width:1;" x1="106.9136" x2="300.0288" y1="193.2466" y2="193.2466"/><line style="stroke:#333333;stroke-width:1;" x1="300.0288" x2="300.0288" y1="193.2466" y2="205.2466"/><polygon fill="#333333" points="296.0288,195.2466,300.0288,205.2466,304.0288,195.2466,300.0288,199.2466" style="stroke:#333333;stroke-width:1;"/><line style="stroke:#333333;stroke-width:1;" x1="300.0288" x2="300.0288" y1="236.7456" y2="244.7456"/><line style="stroke:#333333;stroke-width:1;" x1="300.0288" x2="106.9136" y1="244.7456" y2="244.7456"/><line style="stroke:#333333;stroke-width:1;" x1="106.9136" x2="106.9136" y1="244.7456" y2="256.7456"/><polygon fill="#333333" points="102.9136,246.7456,106.9136,256.7456,110.9136,246.7456,106.9136,250.7456" style="stroke:#333333;stroke-width:1;"/><line style="stroke:#333333;stroke-width:1;" x1="494.6895" x2="494.6895" y1="615.2427" y2="627.2427"/><line style="stroke:#333333;stroke-width:1;" x1="494.6895" x2="300.0288" y1="627.2427" y2="627.2427"/><line style="stroke:#333333;stroke-width:1;" x1="300.0288" x2="300.0288" y1="627.2427" y2="639.2427"/><polygon fill="#333333" points="296.0288,629.2427,300.0288,639.2427,304.0288,629.2427,300.0288,633.2427" style="stroke:#333333;stroke-width:1;"/><line style="stroke:#333333;stroke-width:1;" x1="144.4824" x2="398.1377" y1="779.9912" y2="779.9912"/><polygon fill="#333333" points="394.1377,651.2427,398.1377,641.2427,402.1377,651.2427,398.1377,647.2427" style="stroke:#333333;stroke-width:1;"/><line style="stroke:#333333;stroke-width:1;" x1="398.1377" x2="398.1377" y1="507.7437" y2="779.9912"/><line style="stroke:#333333;stroke-width:1;" x1="398.1377" x2="482.6895" y1="507.7437" y2="507.7437"/><polygon fill="#333333" points="472.6895,503.7437,482.6895,507.7437,472.6895,511.7437,476.6895,507.7437" style="stroke:#333333;stroke-width:1;"/><line style="stroke:#333333;stroke-width:1;" x1="106.9136" x2="106.9136" y1="475.7437" y2="480.7437"/><line style="stroke:#333333;stroke-width:1;" x1="106.9136" x2="494.6895" y1="480.7437" y2="480.7437"/><line style="stroke:#333333;stroke-width:1;" x1="494.6895" x2="494.6895" y1="480.7437" y2="495.7437"/><polygon fill="#333333" points="490.6895,485.7437,494.6895,495.7437,498.6895,485.7437,494.6895,489.7437" style="stroke:#333333;stroke-width:1;"/><line style="stroke:#333333;stroke-width:1;" x1="106.9136" x2="106.9136" y1="861.7466" y2="866.7466"/><line style="stroke:#333333;stroke-width:1;" x1="106.9136" x2="300.0288" y1="866.7466" y2="866.7466"/><line style="stroke:#333333;stroke-width:1;" x1="300.0288" x2="300.0288" y1="866.7466" y2="881.7466"/><polygon fill="#333333" points="296.0288,871.7466,300.0288,881.7466,304.0288,871.7466,300.0288,875.7466" style="stroke:#333333;stroke-width:1;"/><text fill="#000000" font-family="Arial" font-size="11" lengthAdjust="spacing" textLength="69.0938" x="74.6685" y="58.4165">Recepcionista</text><text fill="#000000" font-family="Arial" font-size="11" lengthAdjust="spacing" textLength="25.6738" x="286.1919" y="58.4165">Tutor</text><text fill="#000000" font-family="Arial" font-size="11" lengthAdjust="spacing" textLength="39.7354" x="473.8218" y="58.4165">Sistema</text><!--SRC=[RP7RIWCn48RlynJZNQNe0-o2iYeUy5JQues8ZDbfEvXabYIB8lioueNWQ_J5dAqjYdgp39C_ytspsU9WNLiJt5lnNi9kqtfdJERi28vT-ooWXwUI6gfnJjwORaoM6iiIE6NiZ7vYDiL475lM-aUuD8PdCBX1om4JN9_lRqDUK831RLY-oTss0UYcRPROQLLKAMakmfIYNs77b1e92H_OSOqrbNt-5vv2pJDZYig9rRkLhY4rBjzr_Xf_W64XG32LXDy2YVsANrHp7Q4tJwA8vp0lDoExYHB8AoDIGvZxy25R9t34ozV8Ka3bs0ylgHwEC0qls3VqWae5wBbd8LEq4kFo8rZ-1_rpUPrz9PbdRB6MSjL8MHejrZP_D_-oWgS5wrCD3XTa7tUapShXzFs7T_PMF5L7PrkdYtxPOrBHueIYTeunjr75Dph52EVQxXyWSnyOKIvDx_C9]--></g></svg>