<svg xmlns="http://www.w3.org/2000/svg" xmlns:xlink="http://www.w3.org/1999/xlink" contentStyleType="text/css" data-diagram-type="ACTIVITY" height="715px" preserveAspectRatio="none" style="width:802px;height:715px;background:#FEFEFE;" version="1.1" viewBox="0 0 802 715" width="802px" zoomAndPan="magnify"><title>Fluxo de Odontologia</title><defs/><g><rect fill="#FEFEFE" height="715" style="stroke:none;stroke-width:1;" width="802" x="0" y="0"/><text fill="#000000" font-family="Arial" font-size="14" font-weight="bold" lengthAdjust="spacing" textLength="143.876" x="327.7191" y="33.1318">Fluxo de Odontologia</text><rect fill="none" height="12.6489" style="stroke:none;stroke-width:1;" width="769.3142" x="15" y="48.0986"/><ellipse cx="270.6299" cy="75.7476" fill="#222222" rx="10" ry="10" style="stroke:#222222;stroke-width:1;"/><rect fill="#FFFFFF" height="31.499" rx="12.5" ry="12.5" style="stroke:#333333;stroke-width:0.5;" width="130.0537" x="205.603" y="105.7476"/><text fill="#000000" font-family="Arial" font-size="10" lengthAdjust="spacing" textLength="110.0537" x="215.603" y="125.1274">Abrir Ficha Odontol&#243;gica</text><rect fill="#FFFFFF" height="31.499" rx="12.5" ry="12.5" style="stroke:#333333;stroke-width:0.5;" width="88.9209" x="226.1694" y="157.2466"/><text fill="#000000" font-family="Arial" font-size="10" lengthAdjust="spacing" textLength="68.9209" x="236.1694" y="176.6265">Clicar no Dente</text><line style="stroke:#333333;stroke-width:1.5;" x1="80.4629" x2="476.9102" y1="308.2446" y2="308.2446"/><rect fill="#FFFFFF" height="31.499" rx="12.5" ry="12.5" style="stroke:#333333;stroke-width:0.5;" width="118.9258" x="21" y="328.2446"/><text fill="#000000" font-family="Arial" font-size="10" lengthAdjust="spacing" textLength="98.9258" x="31" y="347.6245">Profilaxia (Raspagem)</text><rect fill="#FFFFFF" height="31.499" rx="12.5" ry="12.5" style="stroke:#333333;stroke-width:0.5;" width="134.4727" x="149.9258" y="328.2446"/><text fill="#000000" font-family="Arial" font-size="10" lengthAdjust="spacing" textLength="114.4727" x="159.9258" y="347.6245">Extra&#231;&#227;o (Raio-X OBRIG)</text><rect fill="#FFFFFF" height="31.499" rx="12.5" ry="12.5" style="stroke:#333333;stroke-width:0.5;" width="111.1621" x="312.3984" y="328.2446"/><text fill="#000000" font-family="Arial" font-size="10" lengthAdjust="spacing" textLength="91.1621" x="322.3984" y="347.6245">Restaura&#231;&#227;o / Canal</text><rect fill="#FFFFFF" height="31.499" rx="12.5" ry="12.5" style="stroke:#333333;stroke-width:0.5;" width="86.6992" x="433.5605" y="328.2446"/><text fill="#000000" font-family="Arial" font-size="10" lengthAdjust="spacing" textLength="66.6992" x="443.5605" y="347.6245">Gengivectomia</text><line style="stroke:#333333;stroke-width:1.5;" x1="80.4629" x2="476.9102" y1="379.7437" y2="379.7437"/><rect fill="#FFFFFF" height="31.499" rx="12.5" ry="12.5" style="stroke:#333333;stroke-width:0.5;" width="121.1572" x="210.0513" y="451.2427"/><text fill="#000000" font-family="Arial" font-size="10" lengthAdjust="spacing" textLength="101.1572" x="220.0513" y="470.6226">Realizar Procedimento</text><rect fill="#FFFFFF" height="31.499" rx="12.5" ry="12.5" style="stroke:#333333;stroke-width:0.5;" width="105.0244" x="218.1177" y="502.7417"/><text fill="#000000" font-family="Arial" font-size="10" lengthAdjust="spacing" textLength="85.0244" x="228.1177" y="522.1216">Prescri&#231;&#227;o P&#243;s-OP</text><rect fill="#FFFFFF" height="31.499" rx="12.5" ry="12.5" style="stroke:#333333;stroke-width:0.5;" width="96.1621" x="222.5488" y="554.2407"/><text fill="#000000" font-family="Arial" font-size="10" lengthAdjust="spacing" textLength="76.1621" x="232.5488" y="573.6206">Agendar Retorno</text><polygon fill="#FFFFFF" points="210.6006,260.2446,330.6592,260.2446,342.6592,272.2446,330.6592,284.2446,210.6006,284.2446,198.6006,272.2446,210.6006,260.2446" style="stroke:#333333;stroke-width:0.5;"/><text fill="#000000" font-family="Arial" font-size="9" lengthAdjust="spacing" textLength="18.9976" x="274.6299" y="292.6865">[sim]</text><text fill="#000000" font-family="Arial" font-size="10" lengthAdjust="spacing" textLength="120.0586" x="210.6006" y="275.875">Procedimento Necess&#225;rio?</text><text fill="#000000" font-family="Arial" font-size="9" lengthAdjust="spacing" textLength="20.0171" x="342.6592" y="270.3374">[n&#227;o]</text><ellipse cx="384.6763" cy="272.2446" fill="none" rx="11" ry="11" style="stroke:#222222;stroke-width:1;"/><ellipse cx="384.6763" cy="272.2446" fill="#222222" rx="6" ry="6" style="stroke:#222222;stroke-width:1;"/><line style="stroke:#333333;stroke-width:1.5;" x1="15" x2="15" y1="48.0986" y2="703.2388"/><rect fill="#FFFFFF" height="31.499" rx="12.5" ry="12.5" style="stroke:#333333;stroke-width:0.5;" width="108.9307" x="533.3115" y="208.7456"/><text fill="#000000" font-family="Arial" font-size="10" lengthAdjust="spacing" textLength="88.9307" x="543.3115" y="228.1255">Exibir Odontograma</text><rect fill="#FFFFFF" height="31.499" rx="12.5" ry="12.5" style="stroke:#333333;stroke-width:0.5;" width="115.0342" x="530.2598" y="605.7397"/><text fill="#000000" font-family="Arial" font-size="10" lengthAdjust="spacing" textLength="95.0342" x="540.2598" y="625.1196">Registrar na Timeline</text><ellipse cx="587.7769" cy="668.2388" fill="none" rx="11" ry="11" style="stroke:#222222;stroke-width:1;"/><ellipse cx="587.7769" cy="668.2388" fill="#222222" rx="6" ry="6" style="stroke:#222222;stroke-width:1;"/><line style="stroke:#333333;stroke-width:1.5;" x1="524.2598" x2="524.2598" y1="48.0986" y2="703.2388"/><rect fill="#FFFFFF" height="31.499" rx="12.5" ry="12.5" style="stroke:#333333;stroke-width:0.5;" width="124.4922" x="655.2939" y="399.7437"/><text fill="#000000" font-family="Arial" font-size="10" lengthAdjust="spacing" textLength="104.4922" x="665.2939" y="419.1235">Autorizar Procedimento</text><line style="stroke:#333333;stroke-width:1.5;" x1="649.2939" x2="649.2939" y1="48.0986" y2="703.2388"/><line style="stroke:#333333;stroke-width:1.5;" x1="783.7861" x2="783.7861" y1="48.0986" y2="703.2388"/><line style="stroke:#333333;stroke-width:1;" x1="270.6299" x2="270.6299" y1="85.7476" y2="105.7476"/><polygon fill="#333333" points="266.6299,95.7476,270.6299,105.7476,274.6299,95.7476,270.6299,99.7476" style="stroke:#333333;stroke-width:1;"/><line style="stroke:#333333;stroke-width:1;" x1="270.6299" x2="270.6299" y1="137.2466" y2="157.2466"/><polygon fill="#333333" points="266.6299,147.2466,270.6299,157.2466,274.6299,147.2466,270.6299,151.2466" style="stroke:#333333;stroke-width:1;"/><line style="stroke:#333333;stroke-width:1;" x1="80.4629" x2="80.4629" y1="309.7446" y2="328.2446"/><polygon fill="#333333" points="76.4629,318.2446,80.4629,328.2446,84.4629,318.2446,80.4629,322.2446" style="stroke:#333333;stroke-width:1;"/><line style="stroke:#333333;stroke-width:1;" x1="217.1621" x2="217.1621" y1="309.7446" y2="328.2446"/><polygon fill="#333333" points="213.1621,318.2446,217.1621,328.2446,221.1621,318.2446,217.1621,322.2446" style="stroke:#333333;stroke-width:1;"/><line style="stroke:#333333;stroke-width:1;" x1="367.9795" x2="367.9795" y1="309.7446" y2="328.2446"/><polygon fill="#333333" points="363.9795,318.2446,367.9795,328.2446,371.9795,318.2446,367.9795,322.2446" style="stroke:#333333;stroke-width:1;"/><line style="stroke:#333333;stroke-width:1;" x1="476.9102" x2="476.9102" y1="309.7446" y2="328.2446"/><polygon fill="#333333" points="472.9102,318.2446,476.9102,328.2446,480.9102,318.2446,476.9102,322.2446" style="stroke:#333333;stroke-width:1;"/><line style="stroke:#333333;stroke-width:1;" x1="80.4629" x2="80.4629" y1="359.7437" y2="379.7437"/><polygon fill="#333333" points="76.4629,369.7437,80.4629,379.7437,84.4629,369.7437,80.4629,373.7437" style="stroke:#333333;stroke-width:1;"/><line style="stroke:#333333;stroke-width:1;" x1="217.1621" x2="217.1621" y1="359.7437" y2="379.7437"/><polygon fill="#333333" points="213.1621,369.7437,217.1621,379.7437,221.1621,369.7437,217.1621,373.7437" style="stroke:#333333;stroke-width:1;"/><line style="stroke:#333333;stroke-width:1;" x1="367.9795" x2="367.9795" y1="359.7437" y2="379.7437"/><polygon fill="#333333" points="363.9795,369.7437,367.9795,379.7437,371.9795,369.7437,367.9795,373.7437" style="stroke:#333333;stroke-width:1;"/><line style="stroke:#333333;stroke-width:1;" x1="476.9102" x2="476.9102" y1="359.7437" y2="379.7437"/><polygon fill="#333333" points="472.9102,369.7437,476.9102,379.7437,480.9102,369.7437,476.9102,373.7437" style="stroke:#333333;stroke-width:1;"/><line style="stroke:#333333;stroke-width:1;" x1="270.6299" x2="270.6299" y1="482.7417" y2="502.7417"/><polygon fill="#333333" points="266.6299,492.7417,270.6299,502.7417,274.6299,492.7417,270.6299,496.7417" style="stroke:#333333;stroke-width:1;"/><line style="stroke:#333333;stroke-width:1;" x1="270.6299" x2="270.6299" y1="534.2407" y2="554.2407"/><polygon fill="#333333" points="266.6299,544.2407,270.6299,554.2407,274.6299,544.2407,270.6299,548.2407" style="stroke:#333333;stroke-width:1;"/><line style="stroke:#333333;stroke-width:1;" x1="270.6299" x2="270.6299" y1="284.2446" y2="308.2446"/><polygon fill="#333333" points="266.6299,298.2446,270.6299,308.2446,274.6299,298.2446,270.6299,302.2446" style="stroke:#333333;stroke-width:1;"/><line style="stroke:#333333;stroke-width:1;" x1="342.6592" x2="373.6763" y1="272.2446" y2="272.2446"/><polygon fill="#333333" points="363.6763,268.2446,373.6763,272.2446,363.6763,276.2446,367.6763,272.2446" style="stroke:#333333;stroke-width:1;"/><line style="stroke:#333333;stroke-width:1;" x1="587.7769" x2="587.7769" y1="637.2388" y2="657.2388"/><polygon fill="#333333" points="583.7769,647.2388,587.7769,657.2388,591.7769,647.2388,587.7769,651.2388" style="stroke:#333333;stroke-width:1;"/><line style="stroke:#333333;stroke-width:1;" x1="270.6299" x2="270.6299" y1="188.7456" y2="193.7456"/><line style="stroke:#333333;stroke-width:1;" x1="270.6299" x2="587.7769" y1="193.7456" y2="193.7456"/><line style="stroke:#333333;stroke-width:1;" x1="587.7769" x2="587.7769" y1="193.7456" y2="208.7456"/><polygon fill="#333333" points="583.7769,198.7456,587.7769,208.7456,591.7769,198.7456,587.7769,202.7456" style="stroke:#333333;stroke-width:1;"/><line style="stroke:#333333;stroke-width:1;" x1="270.6299" x2="270.6299" y1="381.2437" y2="384.7437"/><line style="stroke:#333333;stroke-width:1;" x1="270.6299" x2="717.54" y1="384.7437" y2="384.7437"/><line style="stroke:#333333;stroke-width:1;" x1="717.54" x2="717.54" y1="384.7437" y2="399.7437"/><polygon fill="#333333" points="713.54,389.7437,717.54,399.7437,721.54,389.7437,717.54,393.7437" style="stroke:#333333;stroke-width:1;"/><line style="stroke:#333333;stroke-width:1;" x1="717.54" x2="717.54" y1="431.2427" y2="436.2427"/><line style="stroke:#333333;stroke-width:1;" x1="717.54" x2="270.6299" y1="436.2427" y2="436.2427"/><line style="stroke:#333333;stroke-width:1;" x1="270.6299" x2="270.6299" y1="436.2427" y2="451.2427"/><polygon fill="#333333" points="266.6299,441.2427,270.6299,451.2427,274.6299,441.2427,270.6299,445.2427" style="stroke:#333333;stroke-width:1;"/><line style="stroke:#333333;stroke-width:1;" x1="270.6299" x2="270.6299" y1="585.7397" y2="590.7397"/><line style="stroke:#333333;stroke-width:1;" x1="270.6299" x2="587.7769" y1="590.7397" y2="590.7397"/><line style="stroke:#333333;stroke-width:1;" x1="587.7769" x2="587.7769" y1="590.7397" y2="605.7397"/><polygon fill="#333333" points="583.7769,595.7397,587.7769,605.7397,591.7769,595.7397,587.7769,599.7397" style="stroke:#333333;stroke-width:1;"/><line style="stroke:#333333;stroke-width:1;" x1="587.7769" x2="587.7769" y1="240.2446" y2="245.2446"/><line style="stroke:#333333;stroke-width:1;" x1="587.7769" x2="270.6299" y1="245.2446" y2="245.2446"/><line style="stroke:#333333;stroke-width:1;" x1="270.6299" x2="270.6299" y1="245.2446" y2="260.2446"/><polygon fill="#333333" points="266.6299,250.2446,270.6299,260.2446,274.6299,250.2446,270.6299,254.2446" style="stroke:#333333;stroke-width:1;"/><text fill="#000000" font-family="Arial" font-size="11" lengthAdjust="spacing" textLength="53.1953" x="243.0322" y="58.4165">Veterin&#225;rio</text><text fill="#000000" font-family="Arial" font-size="11" lengthAdjust="spacing" textLength="39.7354" x="566.9092" y="58.4165">Sistema</text><text fill="#000000" font-family="Arial" font-size="11" lengthAdjust="spacing" textLength="25.6738" x="703.7031" y="58.4165">Tutor</text><!--SRC=[RP7DJi904CVl-nJZ3GxelJqOH21UX5HYJ8mnGpkKIVQ3x6vDO_eoneCFm2FqnHnQ8HevxUpCR_xpTS4srrL1y9exOvozt5L6AnKvQeAPhce74bmKpaQdNSceLFD8aJpRziEpQrI8wADAnclF7cQSR_68j_kISqnLCj7oUh0ERib6IaNZWKCaWurAfZMl9RFFAJqQJF_Lu0qCbjxbLB0H1GVtb5C8NVHw275B5WRFjlrqBqC54ABRATA1n1dOzBwTvYWlG29A6zPOCy8Wmx33aimmFJA09RBjoMaTFRPVediWsOsUO76JtStFqnd9BgfZmXLCqA8-Iyx9bln6UNI6yK2GBVe6nMvMLNI-4IiP7on-bztzdZxjgByRwigZFiDs0rF8FVTzBTjz62sMNM1SIc79o4Zgs1_XqsawpL9-_d0yX9L8QhQKdbPi2zvy0m00]--></g></svg>