<svg xmlns="http://www.w3.org/2000/svg" xmlns:xlink="http://www.w3.org/1999/xlink" contentStyleType="text/css" data-diagram-type="ACTIVITY" height="712px" preserveAspectRatio="none" style="width:896px;height:712px;background:#FEFEFE;" version="1.1" viewBox="0 0 896 712" width="896px" zoomAndPan="magnify"><title>Fluxo de Zoonoses e Notifica&#231;&#227;o Compuls&#243;ria</title><defs/><g><rect fill="#FEFEFE" height="712" style="stroke:none;stroke-width:1;" width="896" x="0" y="0"/><text fill="#000000" font-family="Arial" font-size="14" font-weight="bold" lengthAdjust="spacing" textLength="308.0479" x="292.517" y="33.1318">Fluxo de Zoonoses e Notifica&#231;&#227;o Compuls&#243;ria</text><rect fill="none" height="12.6489" style="stroke:none;stroke-width:1;" width="863.0818" x="15" y="48.0986"/><ellipse cx="157.5562" cy="75.7476" fill="#222222" rx="10" ry="10" style="stroke:#222222;stroke-width:1;"/><rect fill="#FFFFFF" height="31.499" rx="12.5" ry="12.5" style="stroke:#333333;stroke-width:0.5;" width="117.2754" x="98.9185" y="105.7476"/><text fill="#000000" font-family="Arial" font-size="10" lengthAdjust="spacing" textLength="97.2754" x="108.9185" y="125.1274">Diagnosticar Zoonose</text><polygon fill="#FFFFFF" points="100.5859,157.2466,214.5264,157.2466,226.5264,169.2466,214.5264,181.2466,100.5859,181.2466,88.5859,169.2466,100.5859,157.2466" style="stroke:#333333;stroke-width:0.5;"/><text fill="#000000" font-family="Arial" font-size="9" lengthAdjust="spacing" textLength="18.9976" x="161.5562" y="189.6885">[sim]</text><text fill="#000000" font-family="Arial" font-size="10" lengthAdjust="spacing" textLength="113.9404" x="100.5859" y="172.877">Notifica&#231;&#227;o Compuls&#243;ria?</text><text fill="#000000" font-family="Arial" font-size="9" lengthAdjust="spacing" textLength="20.0171" x="226.5264" y="167.3394">[n&#227;o]</text><ellipse cx="268.5435" cy="169.2466" fill="none" rx="11" ry="11" style="stroke:#222222;stroke-width:1;"/><ellipse cx="268.5435" cy="169.2466" fill="#222222" rx="6" ry="6" style="stroke:#222222;stroke-width:1;"/><rect fill="#FFFFFF" height="31.499" rx="12.5" ry="12.5" style="stroke:#333333;stroke-width:0.5;" width="126.6895" x="94.2114" y="262.6875"/><text fill="#000000" font-family="Arial" font-size="10" lengthAdjust="spacing" textLength="106.6895" x="104.2114" y="282.0674">Gerar Formul&#225;rio Oficial</text><rect fill="#FFFFFF" height="31.499" rx="12.5" ry="12.5" style="stroke:#333333;stroke-width:0.5;" width="150.0732" x="82.5195" y="314.1865"/><text fill="#000000" font-family="Arial" font-size="10" lengthAdjust="spacing" textLength="130.0732" x="92.5195" y="333.5664">Enviar ao &#211;rg&#227;o Competente</text><line style="stroke:#333333;stroke-width:1.5;" x1="77.1377" x2="236.8638" y1="520.1826" y2="520.1826"/><rect fill="#FFFFFF" height="31.499" rx="12.5" ry="12.5" style="stroke:#333333;stroke-width:0.5;" width="112.2754" x="21" y="540.1826"/><text fill="#000000" font-family="Arial" font-size="10" lengthAdjust="spacing" textLength="92.2754" x="31" y="559.5625">Medidas de Controle</text><line style="stroke:#333333;stroke-width:1.5;" x1="15" x2="15" y1="48.0986" y2="700.1807"/><rect fill="#FFFFFF" height="31.499" rx="12.5" ry="12.5" style="stroke:#333333;stroke-width:0.5;" width="186.7676" x="341.8857" y="211.1885"/><text fill="#000000" font-family="Arial" font-size="10" lengthAdjust="spacing" textLength="166.7676" x="351.8857" y="230.5684">Prazos: Raiva 24h / Leptospirose 24h</text><rect fill="#FFFFFF" height="31.499" rx="12.5" ry="12.5" style="stroke:#333333;stroke-width:0.5;" width="105.5908" x="382.4741" y="417.1846"/><text fill="#000000" font-family="Arial" font-size="10" lengthAdjust="spacing" textLength="85.5908" x="392.4741" y="436.5645">Registrar Protocolo</text><rect fill="#FFFFFF" height="31.499" rx="12.5" ry="12.5" style="stroke:#333333;stroke-width:0.5;" width="130.6152" x="289.5435" y="606.6816"/><text fill="#000000" font-family="Arial" font-size="10" lengthAdjust="spacing" textLength="110.6152" x="299.5435" y="626.0615">Relat&#243;rio Epidemiol&#243;gico</text><line style="stroke:#333333;stroke-width:1.5;" x1="283.5435" x2="283.5435" y1="48.0986" y2="700.1807"/><rect fill="#FFFFFF" height="31.499" rx="12.5" ry="12.5" style="stroke:#333333;stroke-width:0.5;" width="110.0439" x="538.6533" y="365.6855"/><text fill="#000000" font-family="Arial" font-size="10" lengthAdjust="spacing" textLength="90.0439" x="548.6533" y="385.0654">Receber Notifica&#231;&#227;o</text><line style="stroke:#333333;stroke-width:1.5;" x1="532.6533" x2="532.6533" y1="48.0986" y2="700.1807"/><rect fill="#FFFFFF" height="31.499" rx="12.5" ry="12.5" style="stroke:#333333;stroke-width:0.5;" width="112.2607" x="671.6973" y="468.6836"/><text fill="#000000" font-family="Arial" font-size="10" lengthAdjust="spacing" textLength="92.2607" x="681.6973" y="488.0635">Informar Diagn&#243;stico</text><rect fill="#FFFFFF" height="31.499" rx="12.5" ry="12.5" style="stroke:#333333;stroke-width:0.5;" width="132.8369" x="740.7168" y="573.4321"/><text fill="#000000" font-family="Arial" font-size="10" lengthAdjust="spacing" textLength="112.8369" x="750.7168" y="592.812">Encaminhamento M&#233;dico</text><line style="stroke:#333333;stroke-width:1.5;" x1="657.6973" x2="807.1353" y1="658.1807" y2="658.1807"/><ellipse cx="727.8276" cy="689.1807" fill="none" rx="11" ry="11" style="stroke:#222222;stroke-width:1;"/><ellipse cx="727.8276" cy="689.1807" fill="#222222" rx="6" ry="6" style="stroke:#222222;stroke-width:1;"/><line style="stroke:#333333;stroke-width:1.5;" x1="652.6973" x2="652.6973" y1="48.0986" y2="700.1807"/><line style="stroke:#333333;stroke-width:1.5;" x1="877.5537" x2="877.5537" y1="48.0986" y2="700.1807"/><line style="stroke:#333333;stroke-width:1;" x1="157.5562" x2="157.5562" y1="85.7476" y2="105.7476"/><polygon fill="#333333" points="153.5562,95.7476,157.5562,105.7476,161.5562,95.7476,157.5562,99.7476" style="stroke:#333333;stroke-width:1;"/><line style="stroke:#333333;stroke-width:1;" x1="157.5562" x2="157.5562" y1="181.2466" y2="196.1885"/><line style="stroke:#333333;stroke-width:1;" x1="157.5562" x2="435.2695" y1="196.1885" y2="196.1885"/><line style="stroke:#333333;stroke-width:1;" x1="435.2695" x2="435.2695" y1="196.1885" y2="211.1885"/><polygon fill="#333333" points="431.2695,201.1885,435.2695,211.1885,439.2695,201.1885,435.2695,205.1885" style="stroke:#333333;stroke-width:1;"/><line style="stroke:#333333;stroke-width:1;" x1="226.5264" x2="257.5435" y1="169.2466" y2="169.2466"/><polygon fill="#333333" points="247.5435,165.2466,257.5435,169.2466,247.5435,173.2466,251.5435,169.2466" style="stroke:#333333;stroke-width:1;"/><line style="stroke:#333333;stroke-width:1;" x1="157.5562" x2="157.5562" y1="137.2466" y2="157.2466"/><polygon fill="#333333" points="153.5562,147.2466,157.5562,157.2466,161.5562,147.2466,157.5562,151.2466" style="stroke:#333333;stroke-width:1;"/><line style="stroke:#333333;stroke-width:1;" x1="157.5562" x2="157.5562" y1="294.1865" y2="314.1865"/><polygon fill="#333333" points="153.5562,304.1865,157.5562,314.1865,161.5562,304.1865,157.5562,308.1865" style="stroke:#333333;stroke-width:1;"/><line style="stroke:#333333;stroke-width:1;" x1="77.1377" x2="77.1377" y1="521.6826" y2="540.1826"/><polygon fill="#333333" points="73.1377,530.1826,77.1377,540.1826,81.1377,530.1826,77.1377,534.1826" style="stroke:#333333;stroke-width:1;"/><line style="stroke:#333333;stroke-width:1;" x1="807.1353" x2="807.1353" y1="604.9312" y2="658.1807"/><polygon fill="#333333" points="803.1353,648.1807,807.1353,658.1807,811.1353,648.1807,807.1353,652.1807" style="stroke:#333333;stroke-width:1;"/><line style="stroke:#333333;stroke-width:1;" x1="727.8276" x2="727.8276" y1="659.6807" y2="678.1807"/><polygon fill="#333333" points="723.8276,668.1807,727.8276,678.1807,731.8276,668.1807,727.8276,672.1807" style="stroke:#333333;stroke-width:1;"/><line style="stroke:#333333;stroke-width:1;" x1="435.2695" x2="435.2695" y1="242.6875" y2="247.6875"/><line style="stroke:#333333;stroke-width:1;" x1="435.2695" x2="157.5562" y1="247.6875" y2="247.6875"/><line style="stroke:#333333;stroke-width:1;" x1="157.5562" x2="157.5562" y1="247.6875" y2="262.6875"/><polygon fill="#333333" points="153.5562,252.6875,157.5562,262.6875,161.5562,252.6875,157.5562,256.6875" style="stroke:#333333;stroke-width:1;"/><line style="stroke:#333333;stroke-width:1;" x1="157.5562" x2="157.5562" y1="345.6855" y2="350.6855"/><line style="stroke:#333333;stroke-width:1;" x1="157.5562" x2="593.6753" y1="350.6855" y2="350.6855"/><line style="stroke:#333333;stroke-width:1;" x1="593.6753" x2="593.6753" y1="350.6855" y2="365.6855"/><polygon fill="#333333" points="589.6753,355.6855,593.6753,365.6855,597.6753,355.6855,593.6753,359.6855" style="stroke:#333333;stroke-width:1;"/><line style="stroke:#333333;stroke-width:1;" x1="593.6753" x2="593.6753" y1="397.1846" y2="402.1846"/><line style="stroke:#333333;stroke-width:1;" x1="593.6753" x2="435.2695" y1="402.1846" y2="402.1846"/><line style="stroke:#333333;stroke-width:1;" x1="435.2695" x2="435.2695" y1="402.1846" y2="417.1846"/><polygon fill="#333333" points="431.2695,407.1846,435.2695,417.1846,439.2695,407.1846,435.2695,411.1846" style="stroke:#333333;stroke-width:1;"/><line style="stroke:#333333;stroke-width:1;" x1="435.2695" x2="435.2695" y1="448.6836" y2="453.6836"/><line style="stroke:#333333;stroke-width:1;" x1="435.2695" x2="727.8276" y1="453.6836" y2="453.6836"/><line style="stroke:#333333;stroke-width:1;" x1="727.8276" x2="727.8276" y1="453.6836" y2="468.6836"/><polygon fill="#333333" points="723.8276,458.6836,727.8276,468.6836,731.8276,458.6836,727.8276,462.6836" style="stroke:#333333;stroke-width:1;"/><line style="stroke:#333333;stroke-width:1;" x1="77.1377" x2="77.1377" y1="571.6816" y2="589.1816"/><line style="stroke:#333333;stroke-width:1;" x1="77.1377" x2="354.8511" y1="589.1816" y2="589.1816"/><line style="stroke:#333333;stroke-width:1;" x1="354.8511" x2="354.8511" y1="589.1816" y2="606.6816"/><polygon fill="#333333" points="350.8511,596.6816,354.8511,606.6816,358.8511,596.6816,354.8511,600.6816" style="stroke:#333333;stroke-width:1;"/><line style="stroke:#333333;stroke-width:1;" x1="236.8638" x2="236.8638" y1="521.6826" y2="525.1826"/><line style="stroke:#333333;stroke-width:1;" x1="236.8638" x2="807.1353" y1="525.1826" y2="525.1826"/><line style="stroke:#333333;stroke-width:1;" x1="807.1353" x2="807.1353" y1="525.1826" y2="573.4321"/><polygon fill="#333333" points="803.1353,563.4321,807.1353,573.4321,811.1353,563.4321,807.1353,567.4321" style="stroke:#333333;stroke-width:1;"/><line style="stroke:#333333;stroke-width:1;" x1="354.8511" x2="354.8511" y1="638.1807" y2="644.1807"/><line style="stroke:#333333;stroke-width:1;" x1="354.8511" x2="657.6973" y1="644.1807" y2="644.1807"/><line style="stroke:#333333;stroke-width:1;" x1="657.6973" x2="657.6973" y1="644.1807" y2="658.1807"/><polygon fill="#333333" points="653.6973,648.1807,657.6973,658.1807,661.6973,648.1807,657.6973,652.1807" style="stroke:#333333;stroke-width:1;"/><line style="stroke:#333333;stroke-width:1;" x1="727.8276" x2="727.8276" y1="500.1826" y2="505.1826"/><line style="stroke:#333333;stroke-width:1;" x1="727.8276" x2="157.5562" y1="505.1826" y2="505.1826"/><line style="stroke:#333333;stroke-width:1;" x1="157.5562" x2="157.5562" y1="505.1826" y2="520.1826"/><polygon fill="#333333" points="153.5562,510.1826,157.5562,520.1826,161.5562,510.1826,157.5562,514.1826" style="stroke:#333333;stroke-width:1;"/><text fill="#000000" font-family="Arial" font-size="11" lengthAdjust="spacing" textLength="53.1953" x="122.6741" y="58.4165">Veterin&#225;rio</text><text fill="#000000" font-family="Arial" font-size="11" lengthAdjust="spacing" textLength="39.7354" x="388.2307" y="58.4165">Sistema</text><text fill="#000000" font-family="Arial" font-size="11" lengthAdjust="spacing" textLength="47.083" x="569.1338" y="58.4165">Vigil&#226;ncia</text><text fill="#000000" font-family="Arial" font-size="11" lengthAdjust="spacing" textLength="25.6738" x="752.2886" y="58.4165">Tutor</text><!--SRC=[TP5DIWD148NtVOfoPpOAucgoS14J4Vm9KLme8krCPLBGtJLqrmIHtC8Jg0jndIFqnQmPVo2Akw7glLVVlDwYKBgsGhWhsNiEEqthdJ52uX0chdrWqEKrS-242H3EM6XEfSrl-PLXnBvfNShhIDQOrHKAHWhvEHAlJ18RnHI7P6jrYvhYTzBG69h3zlzX1mEG1GROlWcwkXqOW2JS67G9TPZ8wmn3HNCzUq59qDkLAQRHFd8gO6PfQM5lVm6xS8ADS6eewjrkDFm3MXnXLBO9Hz-wVWRdYaNM3Kqn3alIfMN8Jx7-vbH_4EoZg2QNNuBADMc69TvZtAnfkC4umrg_kuFJoC8bkrvmsGf7NH-7kNBejkyjhxlYEa5g78dMy8iTe3Z5YYgRkeSQSP38Ji5K-7DIDJDqLhfc6SODLUY9NLxNVNIV3BQs53hR5uYQng6qdiB2UlrPXjFyNlK6xVsJndHlyW40]--></g></svg>