<?xml version="1.0" encoding="UTF-8"?>
<svg xmlns="http://www.w3.org/2000/svg" width="1206" height="570" viewBox="-76 -30 1206 570">
<defs><marker id="arrowhead" markerWidth="8" markerHeight="6" refX="8" refY="3" orient="auto"><polygon points="0 0, 8 3, 0 6" fill="#000"/></marker></defs>
<switch><g transform="translate(0.5,0.5)">










<rect x="10" y="5" width="1080" height="28" rx="4" ry="4" fill="#fff" stroke="#000" stroke-width="1.5"/><text x="550.0" y="19.0" text-anchor="middle" dominant-baseline="central" fill="#000" font-size="10" font-family="Arial">Fluxo de Zoonoses e Notificação Compulsória</text>
<rect x="30" y="70" width="1070" height="80" fill="#fff" stroke="#000" stroke-width="1.5"/><rect x="30" y="70" width="18" height="80" fill="#fff" stroke="#000" stroke-width="1"/><text x="39" y="110.0" text-anchor="middle" dominant-baseline="central" fill="#000" font-size="9" font-family="Arial" transform="rotate(-90,39,110.0)">Veterinário</text>
<rect x="30" y="150" width="1070" height="80" fill="#fff" stroke="#000" stroke-width="1.5"/><rect x="30" y="150" width="18" height="80" fill="#fff" stroke="#000" stroke-width="1"/><text x="39" y="190.0" text-anchor="middle" dominant-baseline="central" fill="#000" font-size="9" font-family="Arial" transform="rotate(-90,39,190.0)">Sistema</text>
<rect x="0" y="40" width="1100" height="200" rx="6" ry="6" fill="none" stroke="#000" stroke-width="2"/><rect x="0" y="40" width="28" height="200" fill="#e1d5e7" stroke="#000" stroke-width="2"/><text x="14" y="140.0" text-anchor="middle" dominant-baseline="central" fill="#000" font-size="11" font-family="Arial" transform="rotate(-90,14,140.0)">Clínica</text>
<rect x="30" y="285" width="1070" height="80" fill="#fff" stroke="#000" stroke-width="1.5"/><rect x="30" y="285" width="18" height="80" fill="#fff" stroke="#000" stroke-width="1"/><text x="39" y="325.0" text-anchor="middle" dominant-baseline="central" fill="#000" font-size="9" font-family="Arial" transform="rotate(-90,39,325.0)">Tutor</text>
<rect x="0" y="255" width="1100" height="120" rx="6" ry="6" fill="none" stroke="#000" stroke-width="2"/><rect x="0" y="255" width="28" height="120" fill="#e1d5e7" stroke="#000" stroke-width="2"/><text x="14" y="315.0" text-anchor="middle" dominant-baseline="central" fill="#000" font-size="11" font-family="Arial" transform="rotate(-90,14,315.0)">Tutor</text>
<rect x="30" y="420" width="1070" height="80" fill="#fff" stroke="#000" stroke-width="1.5"/><rect x="30" y="420" width="18" height="80" fill="#fff" stroke="#000" stroke-width="1"/><text x="39" y="460.0" text-anchor="middle" dominant-baseline="central" fill="#000" font-size="9" font-family="Arial" transform="rotate(-90,39,460.0)">Vigilância</text>
<rect x="0" y="390" width="1100" height="120" rx="6" ry="6" fill="none" stroke="#000" stroke-width="2"/><rect x="0" y="390" width="28" height="120" fill="#e1d5e7" stroke="#000" stroke-width="2"/><text x="14" y="450.0" text-anchor="middle" dominant-baseline="central" fill="#000" font-size="11" font-family="Arial" transform="rotate(-90,14,450.0)">Vigilância Sanitária</text>
<ellipse cx="65" cy="110.0" rx="11.0" ry="11.0" fill="#d5e8d4" stroke="#82b366" stroke-width="2"/><text x="65" y="133.0" text-anchor="middle" fill="#000" font-size="9" font-family="Arial">Diagnosticar
Zoonose</text>
<polygon points="247.0,163.0 274,190.0 247.0,217.0 220,190.0" fill="#ffe6cc" stroke="#d79b00" stroke-width="2"/><text x="247.0" y="190.0" text-anchor="middle" dominant-baseline="central" fill="#000" font-size="18" font-family="Arial">✕</text>
<rect x="420" y="167.0" width="140" height="46" rx="4" ry="4" fill="#fff" stroke="#000" stroke-width="1.5"/><text x="490.0" y="190.0" text-anchor="middle" dominant-baseline="central" fill="#000" font-size="10" font-family="Arial">Prazos: Raiva
24h / Leptospirose 24h</text>
<rect x="420" y="87.0" width="140" height="46" rx="4" ry="4" fill="#fff" stroke="#000" stroke-width="1.5"/><text x="490.0" y="110.0" text-anchor="middle" dominant-baseline="central" fill="#000" font-size="10" font-family="Arial">Gerar Formulário
Oficial</text>
<rect x="620" y="87.0" width="140" height="46" rx="4" ry="4" fill="#fff" stroke="#000" stroke-width="1.5"/><text x="690.0" y="110.0" text-anchor="middle" dominant-baseline="central" fill="#000" font-size="10" font-family="Arial">Enviar ao
Órgão Competente</text>
<rect x="620" y="437.0" width="140" height="46" rx="4" ry="4" fill="#fff" stroke="#000" stroke-width="1.5"/><text x="690.0" y="460.0" text-anchor="middle" dominant-baseline="central" fill="#000" font-size="10" font-family="Arial">Receber
Notificação</text>
<rect x="620" y="167.0" width="140" height="46" rx="4" ry="4" fill="#fff" stroke="#000" stroke-width="1.5"/><text x="690.0" y="190.0" text-anchor="middle" dominant-baseline="central" fill="#000" font-size="10" font-family="Arial">Registrar
Protocolo</text>
<rect x="420" y="302.0" width="140" height="46" rx="4" ry="4" fill="#fff" stroke="#000" stroke-width="1.5"/><text x="490.0" y="325.0" text-anchor="middle" dominant-baseline="central" fill="#000" font-size="10" font-family="Arial">Informar
Diagnóstico</text>
<rect x="820" y="87.0" width="140" height="46" rx="4" ry="4" fill="#fff" stroke="#000" stroke-width="1.5"/><text x="890.0" y="110.0" text-anchor="middle" dominant-baseline="central" fill="#000" font-size="10" font-family="Arial">Medidas de
Controle</text>
<rect x="820" y="302.0" width="140" height="46" rx="4" ry="4" fill="#fff" stroke="#000" stroke-width="1.5"/><text x="890.0" y="325.0" text-anchor="middle" dominant-baseline="central" fill="#000" font-size="10" font-family="Arial">Encaminhamento
Médico</text>
<rect x="820" y="167.0" width="140" height="46" rx="4" ry="4" fill="#fff" stroke="#000" stroke-width="1.5"/><text x="890.0" y="190.0" text-anchor="middle" dominant-baseline="central" fill="#000" font-size="10" font-family="Arial">Relatório
Epidemiológico</text>
<ellipse cx="1031.0" cy="110.0" rx="11.0" ry="11.0" fill="#f8cecc" stroke="#b85450" stroke-width="2"/><ellipse cx="1031.0" cy="110.0" rx="7.0" ry="7.0" fill="none" stroke="#b85450" stroke-width="2"/><text x="1031.0" y="133.0" text-anchor="middle" fill="#000" font-size="9" font-family="Arial">Fim</text>
<path d="M 76 110 L 141 110 L 141 190 L 220 190" fill="none" stroke="#000" stroke-width="1.5" marker-end="url(#arrowhead)"/>
<path d="M 274 190 L 347 190 L 347 190 L 420 190" fill="none" stroke="#000" stroke-width="1.5" marker-end="url(#arrowhead)"/>
<path d="M 274 190 L 647 190 L 647 110 L 1020 110" fill="none" stroke="#000" stroke-width="1.5" marker-end="url(#arrowhead)"/>
<path d="M 490 167 L 490 150 L 490 150 L 490 133" fill="none" stroke="#000" stroke-width="1.5" marker-end="url(#arrowhead)"/>
<path d="M 560 110 L 590 110 L 590 110 L 620 110" fill="none" stroke="#000" stroke-width="1.5" marker-end="url(#arrowhead)"/>
<path d="M 690 133 L 690 285 L 690 285 L 690 437" fill="none" stroke="#000" stroke-width="1.5" marker-end="url(#arrowhead)"/>
<path d="M 690 133 L 690 150 L 690 150 L 690 167" fill="none" stroke="#000" stroke-width="1.5" marker-end="url(#arrowhead)"/>
<path d="M 620 190 L 590 190 L 590 325 L 560 325" fill="none" stroke="#000" stroke-width="1.5" marker-end="url(#arrowhead)"/>
<path d="M 560 325 L 690 325 L 690 110 L 820 110" fill="none" stroke="#000" stroke-width="1.5" marker-end="url(#arrowhead)"/>
<path d="M 560 325 L 690 325 L 690 325 L 820 325" fill="none" stroke="#000" stroke-width="1.5" marker-end="url(#arrowhead)"/>
<path d="M 890 133 L 890 150 L 890 150 L 890 167" fill="none" stroke="#000" stroke-width="1.5" marker-end="url(#arrowhead)"/>
<path d="M 960 190 L 990 190 L 990 110 L 1020 110" fill="none" stroke="#000" stroke-width="1.5" marker-end="url(#arrowhead)"/>
</g>
<foreignObject width="1100" height="500"><div xmlns="http://www.w3.org/1999/xhtml"><mxfile host="Generator" modified="2026-05-21T07:35:39.402474" agent="BPMN-PHASEX" version="24.0.5" type="device"><diagram id="31-fluxo-zoonoses.svg" name="Page-1"><mxGraphModel dx="0" dy="0" grid="1" gridSize="10" guides="1" page="0" pageWidth="1100" pageHeight="500" math="0" shadow="0"><root><mxCell id="0"/><mxCell id="1" parent="0"/><mxCell id="c915" value="Fluxo de Zoonoses e Notificação Compulsória" style="text;html=1;strokeColor=none;fillColor=none;align=center;fontSize=14;fontStyle=1" vertex="1" parent="1"><mxGeometry x="10" y="5" width="1080" height="28" as="geometry"/></mxCell><mxCell id="c916" value="Veterinário" style="swimlane;startSize=18;fillColor=#d5e8d4;strokeColor=#000;horizontal=1;" vertex="1" parent="1"><mxGeometry x="30" y="70" width="1070" height="80" as="geometry"/></mxCell><mxCell id="c917" value="Sistema" style="swimlane;startSize=18;fillColor=#f5f5f5;strokeColor=#000;horizontal=1;" vertex="1" parent="1"><mxGeometry x="30" y="150" width="1070" height="80" as="geometry"/></mxCell><mxCell id="c918" value="Clínica" style="swimlane;startSize=0;fillColor=none;strokeColor=#000;" vertex="1" parent="1"><mxGeometry x="0" y="40" width="1100" height="200" as="geometry"/></mxCell><mxCell id="c919" value="Tutor" style="swimlane;startSize=18;fillColor=#e1d5e7;strokeColor=#000;horizontal=1;" vertex="1" parent="1"><mxGeometry x="30" y="285" width="1070" height="80" as="geometry"/></mxCell><mxCell id="c920" value="Tutor" style="swimlane;startSize=0;fillColor=none;strokeColor=#000;" vertex="1" parent="1"><mxGeometry x="0" y="255" width="1100" height="120" as="geometry"/></mxCell><mxCell id="c921" value="Vigilância" style="swimlane;startSize=18;fillColor=#f8cecc;strokeColor=#000;horizontal=1;" vertex="1" parent="1"><mxGeometry x="30" y="420" width="1070" height="80" as="geometry"/></mxCell><mxCell id="c922" value="Vigilância Sanitária" style="swimlane;startSize=0;fillColor=none;strokeColor=#000;" vertex="1" parent="1"><mxGeometry x="0" y="390" width="1100" height="120" as="geometry"/></mxCell><mxCell id="c923" value="Diagnosticar
Zoonose" style="ellipse;whiteSpace=wrap;html=1;fillColor=#d5e8d4;strokeColor=#82b366;" vertex="1" parent="1"><mxGeometry x="40" y="99.0" width="22" height="22" as="geometry"/></mxCell><mxCell id="c924" value="Notificação
Compulsória?" style="rhombus;whiteSpace=wrap;html=1;fillColor=#ffe6cc;strokeColor=#d79b00;" vertex="1" parent="1"><mxGeometry x="220" y="163.0" width="54" height="54" as="geometry"/></mxCell><mxCell id="c925" value="Prazos: Raiva
24h / Leptospirose 24h" style="rounded=1;whiteSpace=wrap;html=1;" vertex="1" parent="1"><mxGeometry x="420" y="167.0" width="140" height="46" as="geometry"/></mxCell><mxCell id="c926" value="Gerar Formulário
Oficial" style="rounded=1;whiteSpace=wrap;html=1;" vertex="1" parent="1"><mxGeometry x="420" y="87.0" width="140" height="46" as="geometry"/></mxCell><mxCell id="c927" value="Enviar ao
Órgão Competente" style="rounded=1;whiteSpace=wrap;html=1;" vertex="1" parent="1"><mxGeometry x="620" y="87.0" width="140" height="46" as="geometry"/></mxCell><mxCell id="c928" value="Receber
Notificação" style="rounded=1;whiteSpace=wrap;html=1;" vertex="1" parent="1"><mxGeometry x="620" y="437.0" width="140" height="46" as="geometry"/></mxCell><mxCell id="c929" value="Registrar
Protocolo" style="rounded=1;whiteSpace=wrap;html=1;" vertex="1" parent="1"><mxGeometry x="620" y="167.0" width="140" height="46" as="geometry"/></mxCell><mxCell id="c930" value="Informar
Diagnóstico" style="rounded=1;whiteSpace=wrap;html=1;" vertex="1" parent="1"><mxGeometry x="420" y="302.0" width="140" height="46" as="geometry"/></mxCell><mxCell id="c931" value="Medidas de
Controle" style="rounded=1;whiteSpace=wrap;html=1;" vertex="1" parent="1"><mxGeometry x="820" y="87.0" width="140" height="46" as="geometry"/></mxCell><mxCell id="c932" value="Encaminhamento
Médico" style="rounded=1;whiteSpace=wrap;html=1;" vertex="1" parent="1"><mxGeometry x="820" y="302.0" width="140" height="46" as="geometry"/></mxCell><mxCell id="c933" value="Relatório
Epidemiológico" style="rounded=1;whiteSpace=wrap;html=1;" vertex="1" parent="1"><mxGeometry x="820" y="167.0" width="140" height="46" as="geometry"/></mxCell><mxCell id="c934" value="Fim" style="ellipse;whiteSpace=wrap;html=1;fillColor=#f8cecc;strokeColor=#b85450;" vertex="1" parent="1"><mxGeometry x="1020" y="99.0" width="22" height="22" as="geometry"/></mxCell><mxCell id="c935" edge="1" parent="1" source="c923" target="c924" style="edgeStyle=orthogonalEdgeStyle;rounded=0;html=1;"><mxGeometry relative="1" as="geometry"/></mxCell><mxCell id="c936" edge="1" parent="1" source="c924" target="c925" style="edgeStyle=orthogonalEdgeStyle;rounded=0;html=1;"><mxGeometry relative="1" as="geometry"/></mxCell><mxCell id="c937" edge="1" parent="1" source="c924" target="c934" style="edgeStyle=orthogonalEdgeStyle;rounded=0;html=1;"><mxGeometry relative="1" as="geometry"/></mxCell><mxCell id="c938" edge="1" parent="1" source="c925" target="c926" style="edgeStyle=orthogonalEdgeStyle;rounded=0;html=1;"><mxGeometry relative="1" as="geometry"/></mxCell><mxCell id="c939" edge="1" parent="1" source="c926" target="c927" style="edgeStyle=orthogonalEdgeStyle;rounded=0;html=1;"><mxGeometry relative="1" as="geometry"/></mxCell><mxCell id="c940" edge="1" parent="1" source="c927" target="c928" style="edgeStyle=orthogonalEdgeStyle;rounded=0;html=1;"><mxGeometry relative="1" as="geometry"/></mxCell><mxCell id="c941" edge="1" parent="1" source="c927" target="c929" style="edgeStyle=orthogonalEdgeStyle;rounded=0;html=1;"><mxGeometry relative="1" as="geometry"/></mxCell><mxCell id="c942" edge="1" parent="1" source="c929" target="c930" style="edgeStyle=orthogonalEdgeStyle;rounded=0;html=1;"><mxGeometry relative="1" as="geometry"/></mxCell><mxCell id="c943" edge="1" parent="1" source="c930" target="c931" style="edgeStyle=orthogonalEdgeStyle;rounded=0;html=1;"><mxGeometry relative="1" as="geometry"/></mxCell><mxCell id="c944" edge="1" parent="1" source="c930" target="c932" style="edgeStyle=orthogonalEdgeStyle;rounded=0;html=1;"><mxGeometry relative="1" as="geometry"/></mxCell><mxCell id="c945" edge="1" parent="1" source="c931" target="c933" style="edgeStyle=orthogonalEdgeStyle;rounded=0;html=1;"><mxGeometry relative="1" as="geometry"/></mxCell><mxCell id="c946" edge="1" parent="1" source="c933" target="c934" style="edgeStyle=orthogonalEdgeStyle;rounded=0;html=1;"><mxGeometry relative="1" as="geometry"/></mxCell></root></mxGraphModel></diagram></mxfile></div></foreignObject></switch>
</svg>