<svg xmlns="http://www.w3.org/2000/svg" xmlns:xlink="http://www.w3.org/1999/xlink" contentStyleType="text/css" data-diagram-type="ACTIVITY" height="1187px" preserveAspectRatio="none" style="width:1235px;height:1187px;background:#FEFEFE;" version="1.1" viewBox="0 0 1235 1187" width="1235px" zoomAndPan="magnify"><title>Fluxo de Pagamento via Gateway</title><defs/><g><rect fill="#FEFEFE" height="1187" style="stroke:#FFFFFF00;stroke-width:1;" width="1235" x="0" y="0"/><text fill="#000000" font-family="Arial" font-size="14" font-weight="bold" lengthAdjust="spacing" textLength="221.7373" x="505.1941" y="33.1318">Fluxo de Pagamento via Gateway</text><rect fill="#FFFFFF" fill-opacity="0.00000" height="12.6489" style="stroke:#FFFFFF00;stroke-width:1;" width="1202.1255" x="15" y="48.0986"/><ellipse cx="106.3027" cy="75.7476" fill="#222222" rx="10" ry="10" style="stroke:#222222;stroke-width:1;"/><rect fill="#FFFFFF" height="31.499" rx="12.5" ry="12.5" style="stroke:#333333;stroke-width:0.5;" width="108.9307" x="51.8374" y="105.7476"/><text fill="#000000" font-family="Arial" font-size="10" lengthAdjust="spacing" textLength="88.9307" x="61.8374" y="125.1274">Configurar Gateway</text><rect fill="#FFFFFF" height="31.499" rx="12.5" ry="12.5" style="stroke:#333333;stroke-width:0.5;" width="170.6055" x="21" y="157.2466"/><text fill="#000000" font-family="Arial" font-size="10" lengthAdjust="spacing" textLength="150.6055" x="31" y="176.6265">Definir Canal (PDV/Portal/Ambos)</text><rect fill="#FFFFFF" height="31.499" rx="12.5" ry="12.5" style="stroke:#333333;stroke-width:0.5;" width="124.7754" x="43.915" y="208.7456"/><text fill="#000000" font-family="Arial" font-size="10" lengthAdjust="spacing" textLength="104.7754" x="53.915" y="228.1255">Provedor + Credenciais</text><rect fill="#FFFFFF" height="31.499" rx="12.5" ry="12.5" style="stroke:#333333;stroke-width:0.5;" width="45.5615" x="83.522" y="260.2446"/><text fill="#000000" font-family="Arial" font-size="10" lengthAdjust="spacing" textLength="25.5615" x="93.522" y="279.6245">Ativar</text><line style="stroke:#333333;stroke-width:1.5;" x1="15" x2="15" y1="48.0986" y2="1175.231"/><rect fill="#FFFFFF" height="31.499" rx="12.5" ry="12.5" style="stroke:#333333;stroke-width:0.5;" width="84.4727" x="456.8922" y="311.7437"/><text fill="#000000" font-family="Arial" font-size="10" lengthAdjust="spacing" textLength="64.4727" x="466.8922" y="331.1235">Gateway Ativo</text><polygon fill="#FFFFFF" points="464.524,517.7397,533.733,517.7397,545.733,529.7397,533.733,541.7397,464.524,541.7397,452.524,529.7397,464.524,517.7397" style="stroke:#333333;stroke-width:0.5;"/><text fill="#000000" font-family="Arial" font-size="10" lengthAdjust="spacing" textLength="69.209" x="464.524" y="533.3701">Canal = Portal?</text><text fill="#000000" font-family="Arial" font-size="9" lengthAdjust="spacing" textLength="18.9976" x="433.5265" y="527.8325">[sim]</text><text fill="#000000" font-family="Arial" font-size="9" lengthAdjust="spacing" textLength="20.0171" x="545.733" y="527.8325">[n&#227;o]</text><rect fill="#FFFFFF" height="31.499" rx="12.5" ry="12.5" style="stroke:#333333;stroke-width:0.5;" width="142.9834" x="263.835" y="561.7397"/><text fill="#000000" font-family="Arial" font-size="10" lengthAdjust="spacing" textLength="122.9834" x="273.835" y="581.1196">PaymentService@checkout</text><polygon fill="#FFFFFF" points="291.9771,613.2388,378.6763,613.2388,390.6763,625.2388,378.6763,637.2388,291.9771,637.2388,279.9771,625.2388,291.9771,613.2388" style="stroke:#333333;stroke-width:0.5;"/><text fill="#000000" font-family="Arial" font-size="10" lengthAdjust="spacing" textLength="86.6992" x="291.9771" y="628.8691">Tem Gateway PIX?</text><text fill="#000000" font-family="Arial" font-size="9" lengthAdjust="spacing" textLength="18.9976" x="260.9795" y="623.3315">[sim]</text><text fill="#000000" font-family="Arial" font-size="9" lengthAdjust="spacing" textLength="20.0171" x="390.6763" y="623.3315">[n&#227;o]</text><rect fill="#FFFFFF" height="31.499" rx="12.5" ry="12.5" style="stroke:#333333;stroke-width:0.5;" width="108.3643" x="207.9255" y="647.2388"/><text fill="#000000" font-family="Arial" font-size="10" lengthAdjust="spacing" textLength="88.3643" x="217.9255" y="666.6187">Exibir QR Code PIX</text><rect fill="#FFFFFF" height="31.499" rx="12.5" ry="12.5" style="stroke:#333333;stroke-width:0.5;" width="144.5117" x="336.2898" y="647.2388"/><text fill="#000000" font-family="Arial" font-size="10" lengthAdjust="spacing" textLength="124.5117" x="346.2898" y="666.6187">Redirecionar para Checkout</text><polygon fill="#FFFFFF" points="335.3267,684.7378,347.3267,696.7378,335.3267,708.7378,323.3267,696.7378,335.3267,684.7378" style="stroke:#333333;stroke-width:0.5;"/><rect fill="#FFFFFF" height="31.499" rx="12.5" ry="12.5" style="stroke:#333333;stroke-width:0.5;" width="107.2754" x="281.689" y="797.7358"/><text fill="#000000" font-family="Arial" font-size="10" lengthAdjust="spacing" textLength="87.2754" x="291.689" y="817.1157">Webhook Recebido</text><rect fill="#FFFFFF" height="31.499" rx="12.5" ry="12.5" style="stroke:#333333;stroke-width:0.5;" width="135.5908" x="267.5313" y="849.2349"/><text fill="#000000" font-family="Arial" font-size="10" lengthAdjust="spacing" textLength="115.5908" x="277.5313" y="868.6147">Provider::verifyWebhook()</text><rect fill="#FFFFFF" height="31.499" rx="12.5" ry="12.5" style="stroke:#333333;stroke-width:0.5;" width="158.9648" x="255.8442" y="900.7339"/><text fill="#000000" font-family="Arial" font-size="10" lengthAdjust="spacing" textLength="138.9648" x="265.8442" y="920.1138">Consulta API Real do Provedor</text><polygon fill="#FFFFFF" points="279.7383,952.2329,390.915,952.2329,402.915,964.2329,390.915,976.2329,279.7383,976.2329,267.7383,964.2329,279.7383,952.2329" style="stroke:#333333;stroke-width:0.5;"/><text fill="#000000" font-family="Arial" font-size="10" lengthAdjust="spacing" textLength="111.1768" x="279.7383" y="967.8633">Pagamento Confirmado?</text><text fill="#000000" font-family="Arial" font-size="9" lengthAdjust="spacing" textLength="18.9976" x="248.7407" y="962.3257">[sim]</text><text fill="#000000" font-family="Arial" font-size="9" lengthAdjust="spacing" textLength="20.0171" x="402.915" y="962.3257">[n&#227;o]</text><rect fill="#FFFFFF" height="31.499" rx="12.5" ry="12.5" style="stroke:#333333;stroke-width:0.5;" width="93.3691" x="211.0537" y="986.2329"/><text fill="#000000" font-family="Arial" font-size="10" lengthAdjust="spacing" textLength="73.3691" x="221.0537" y="1005.6128">Atualizar Invoice</text><rect fill="#FFFFFF" height="31.499" rx="12.5" ry="12.5" style="stroke:#333333;stroke-width:0.5;" width="112.2656" x="201.6055" y="1037.7319"/><text fill="#000000" font-family="Arial" font-size="10" lengthAdjust="spacing" textLength="92.2656" x="211.6055" y="1057.1118">Disparar InvoicePaid</text><rect fill="#FFFFFF" height="31.499" rx="12.5" ry="12.5" style="stroke:#333333;stroke-width:0.5;" width="88.3594" x="368.7354" y="986.2329"/><text fill="#000000" font-family="Arial" font-size="10" lengthAdjust="spacing" textLength="68.3594" x="378.7354" y="1005.6128">Registrar Falha</text><polygon fill="#FFFFFF" points="335.3267,1075.231,347.3267,1087.231,335.3267,1099.231,323.3267,1087.231,335.3267,1075.231" style="stroke:#333333;stroke-width:0.5;"/><rect fill="#FFFFFF" height="31.499" rx="12.5" ry="12.5" style="stroke:#333333;stroke-width:0.5;" width="133.5352" x="596.1628" y="679.7378"/><text fill="#000000" font-family="Arial" font-size="10" lengthAdjust="spacing" textLength="113.5352" x="606.1628" y="699.1177">PaymentService@charge</text><polygon fill="#FFFFFF" points="622.3591,733.7358,703.5017,733.7358,715.5017,745.7358,703.5017,757.7358,622.3591,757.7358,610.3591,745.7358,622.3591,733.7358" style="stroke:#333333;stroke-width:0.5;"/><text fill="#000000" font-family="Arial" font-size="10" lengthAdjust="spacing" textLength="81.1426" x="622.3591" y="749.3662">Tem Credenciais?</text><text fill="#000000" font-family="Arial" font-size="9" lengthAdjust="spacing" textLength="18.9976" x="591.3616" y="743.8286">[sim]</text><text fill="#000000" font-family="Arial" font-size="9" lengthAdjust="spacing" textLength="20.0171" x="715.5017" y="743.8286">[n&#227;o]</text><rect fill="#FFFFFF" height="31.499" rx="12.5" ry="12.5" style="stroke:#333333;stroke-width:0.5;" width="142.2705" x="520.8015" y="767.7358"/><text fill="#000000" font-family="Arial" font-size="10" lengthAdjust="spacing" textLength="122.2705" x="530.8015" y="787.1157">Provider::charge() API Real</text><rect fill="#FFFFFF" height="31.499" rx="12.5" ry="12.5" style="stroke:#333333;stroke-width:0.5;" width="101.7041" x="683.072" y="767.7358"/><text fill="#000000" font-family="Arial" font-size="10" lengthAdjust="spacing" textLength="81.7041" x="693.072" y="787.1157">Fallback Simulado</text><polygon fill="#FFFFFF" points="662.9304,805.2349,674.9304,817.2349,662.9304,829.2349,650.9304,817.2349,662.9304,805.2349" style="stroke:#333333;stroke-width:0.5;"/><rect fill="#FFFFFF" height="31.499" rx="12.5" ry="12.5" style="stroke:#333333;stroke-width:0.5;" width="156.1914" x="584.8347" y="849.2349"/><text fill="#000000" font-family="Arial" font-size="10" lengthAdjust="spacing" textLength="136.1914" x="594.8347" y="868.6147">Salvar gateway_transaction_id</text><rect fill="#FFFFFF" height="31.499" rx="12.5" ry="12.5" style="stroke:#333333;stroke-width:0.5;" width="90.0342" x="617.9133" y="900.7339"/><text fill="#000000" font-family="Arial" font-size="10" lengthAdjust="spacing" textLength="70.0342" x="627.9133" y="920.1138">Atualizar Status</text><polygon fill="#FFFFFF" points="499.1285,1109.231,511.1285,1121.231,499.1285,1133.231,487.1285,1121.231,499.1285,1109.231" style="stroke:#333333;stroke-width:0.5;"/><line style="stroke:#333333;stroke-width:1.5;" x1="195.6055" x2="195.6055" y1="48.0986" y2="1175.231"/><rect fill="#FFFFFF" height="31.499" rx="12.5" ry="12.5" style="stroke:#333333;stroke-width:0.5;" width="87.8174" x="813.9509" y="363.2427"/><text fill="#000000" font-family="Arial" font-size="10" lengthAdjust="spacing" textLength="67.8174" x="823.9509" y="382.6226">Painel do Tutor</text><rect fill="#FFFFFF" height="31.499" rx="12.5" ry="12.5" style="stroke:#333333;stroke-width:0.5;" width="95.6006" x="810.0593" y="414.7417"/><text fill="#000000" font-family="Arial" font-size="10" lengthAdjust="spacing" textLength="75.6006" x="820.0593" y="434.1216">Seleciona Fatura</text><rect fill="#FFFFFF" height="31.499" rx="12.5" ry="12.5" style="stroke:#333333;stroke-width:0.5;" width="126.167" x="794.7761" y="466.2407"/><text fill="#000000" font-family="Arial" font-size="10" lengthAdjust="spacing" textLength="106.167" x="804.7761" y="485.6206">Clique em Pagar Online</text><line style="stroke:#333333;stroke-width:1.5;" x1="788.7761" x2="788.7761" y1="48.0986" y2="1175.231"/><rect fill="#FFFFFF" height="31.499" rx="12.5" ry="12.5" style="stroke:#333333;stroke-width:0.5;" width="118.9404" x="930.9431" y="731.2368"/><text fill="#000000" font-family="Arial" font-size="10" lengthAdjust="spacing" textLength="98.9404" x="940.9431" y="750.6167">Processar Pagamento</text><line style="stroke:#333333;stroke-width:1.5;" x1="924.9431" x2="924.9431" y1="48.0986" y2="1175.231"/><rect fill="#FFFFFF" height="31.499" rx="12.5" ry="12.5" style="stroke:#333333;stroke-width:0.5;" width="121.7139" x="1090.8835" y="561.7397"/><text fill="#000000" font-family="Arial" font-size="10" lengthAdjust="spacing" textLength="101.7139" x="1100.8835" y="581.1196">Acessa Fatura no PDV</text><rect fill="#FFFFFF" height="31.499" rx="12.5" ry="12.5" style="stroke:#333333;stroke-width:0.5;" width="98.3643" x="1102.5583" y="613.2388"/><text fill="#000000" font-family="Arial" font-size="10" lengthAdjust="spacing" textLength="78.3643" x="1112.5583" y="632.6187">Clique em Cobrar</text><rect fill="#FFFFFF" height="31.499" rx="12.5" ry="12.5" style="stroke:#333333;stroke-width:0.5;" width="118.9551" x="1092.2629" y="952.2329"/><text fill="#000000" font-family="Arial" font-size="10" lengthAdjust="spacing" textLength="98.9551" x="1102.2629" y="971.6128">Pagamento Conclu&#237;do</text><ellipse cx="1069.8835" cy="1164.231" fill="#FFFFFF" fill-opacity="0.00000" rx="11" ry="11" style="stroke:#222222;stroke-width:1;"/><ellipse cx="1069.8835" cy="1164.231" fill="#222222" rx="6" ry="6" style="stroke:#222222;stroke-width:1;"/><line style="stroke:#333333;stroke-width:1.5;" x1="1053.8835" x2="1053.8835" y1="48.0986" y2="1175.231"/><line style="stroke:#333333;stroke-width:1.5;" x1="1216.5974" x2="1216.5974" y1="48.0986" y2="1175.231"/><line style="stroke:#333333;stroke-width:1;" x1="106.3027" x2="106.3027" y1="85.7476" y2="105.7476"/><polygon fill="#333333" points="102.3027,95.7476,106.3027,105.7476,110.3027,95.7476,106.3027,99.7476" style="stroke:#333333;stroke-width:1;"/><line style="stroke:#333333;stroke-width:1;" x1="106.3027" x2="106.3027" y1="137.2466" y2="157.2466"/><polygon fill="#333333" points="102.3027,147.2466,106.3027,157.2466,110.3027,147.2466,106.3027,151.2466" style="stroke:#333333;stroke-width:1;"/><line style="stroke:#333333;stroke-width:1;" x1="106.3027" x2="106.3027" y1="188.7456" y2="208.7456"/><polygon fill="#333333" points="102.3027,198.7456,106.3027,208.7456,110.3027,198.7456,106.3027,202.7456" style="stroke:#333333;stroke-width:1;"/><line style="stroke:#333333;stroke-width:1;" x1="106.3027" x2="106.3027" y1="240.2446" y2="260.2446"/><polygon fill="#333333" points="102.3027,250.2446,106.3027,260.2446,110.3027,250.2446,106.3027,254.2446" style="stroke:#333333;stroke-width:1;"/><line style="stroke:#333333;stroke-width:1;" x1="279.9771" x2="262.1077" y1="625.2388" y2="625.2388"/><line style="stroke:#333333;stroke-width:1;" x1="262.1077" x2="262.1077" y1="625.2388" y2="647.2388"/><polygon fill="#333333" points="258.1077,637.2388,262.1077,647.2388,266.1077,637.2388,262.1077,641.2388" style="stroke:#333333;stroke-width:1;"/><line style="stroke:#333333;stroke-width:1;" x1="390.6763" x2="408.5457" y1="625.2388" y2="625.2388"/><line style="stroke:#333333;stroke-width:1;" x1="408.5457" x2="408.5457" y1="625.2388" y2="647.2388"/><polygon fill="#333333" points="404.5457,637.2388,408.5457,647.2388,412.5457,637.2388,408.5457,641.2388" style="stroke:#333333;stroke-width:1;"/><line style="stroke:#333333;stroke-width:1;" x1="262.1077" x2="262.1077" y1="678.7378" y2="696.7378"/><line style="stroke:#333333;stroke-width:1;" x1="262.1077" x2="323.3267" y1="696.7378" y2="696.7378"/><polygon fill="#333333" points="313.3267,692.7378,323.3267,696.7378,313.3267,700.7378,317.3267,696.7378" style="stroke:#333333;stroke-width:1;"/><line style="stroke:#333333;stroke-width:1;" x1="408.5457" x2="408.5457" y1="678.7378" y2="696.7378"/><line style="stroke:#333333;stroke-width:1;" x1="408.5457" x2="347.3267" y1="696.7378" y2="696.7378"/><polygon fill="#333333" points="357.3267,692.7378,347.3267,696.7378,357.3267,700.7378,353.3267,696.7378" style="stroke:#333333;stroke-width:1;"/><line style="stroke:#333333;stroke-width:1;" x1="335.3267" x2="335.3267" y1="593.2388" y2="613.2388"/><polygon fill="#333333" points="331.3267,603.2388,335.3267,613.2388,339.3267,603.2388,335.3267,607.2388" style="stroke:#333333;stroke-width:1;"/><line style="stroke:#333333;stroke-width:1;" x1="335.3267" x2="335.3267" y1="829.2349" y2="849.2349"/><polygon fill="#333333" points="331.3267,839.2349,335.3267,849.2349,339.3267,839.2349,335.3267,843.2349" style="stroke:#333333;stroke-width:1;"/><line style="stroke:#333333;stroke-width:1;" x1="335.3267" x2="335.3267" y1="880.7339" y2="900.7339"/><polygon fill="#333333" points="331.3267,890.7339,335.3267,900.7339,339.3267,890.7339,335.3267,894.7339" style="stroke:#333333;stroke-width:1;"/><line style="stroke:#333333;stroke-width:1;" x1="257.7383" x2="257.7383" y1="1017.7319" y2="1037.7319"/><polygon fill="#333333" points="253.7383,1027.7319,257.7383,1037.7319,261.7383,1027.7319,257.7383,1031.7319" style="stroke:#333333;stroke-width:1;"/><line style="stroke:#333333;stroke-width:1;" x1="267.7383" x2="257.7383" y1="964.2329" y2="964.2329"/><line style="stroke:#333333;stroke-width:1;" x1="257.7383" x2="257.7383" y1="964.2329" y2="986.2329"/><polygon fill="#333333" points="253.7383,976.2329,257.7383,986.2329,261.7383,976.2329,257.7383,980.2329" style="stroke:#333333;stroke-width:1;"/><line style="stroke:#333333;stroke-width:1;" x1="402.915" x2="412.915" y1="964.2329" y2="964.2329"/><line style="stroke:#333333;stroke-width:1;" x1="412.915" x2="412.915" y1="964.2329" y2="986.2329"/><polygon fill="#333333" points="408.915,976.2329,412.915,986.2329,416.915,976.2329,412.915,980.2329" style="stroke:#333333;stroke-width:1;"/><line style="stroke:#333333;stroke-width:1;" x1="257.7383" x2="257.7383" y1="1069.231" y2="1087.231"/><line style="stroke:#333333;stroke-width:1;" x1="257.7383" x2="323.3267" y1="1087.231" y2="1087.231"/><polygon fill="#333333" points="313.3267,1083.231,323.3267,1087.231,313.3267,1091.231,317.3267,1087.231" style="stroke:#333333;stroke-width:1;"/><line style="stroke:#333333;stroke-width:1;" x1="412.915" x2="412.915" y1="1017.7319" y2="1087.231"/><line style="stroke:#333333;stroke-width:1;" x1="412.915" x2="347.3267" y1="1087.231" y2="1087.231"/><polygon fill="#333333" points="357.3267,1083.231,347.3267,1087.231,357.3267,1091.231,353.3267,1087.231" style="stroke:#333333;stroke-width:1;"/><line style="stroke:#333333;stroke-width:1;" x1="335.3267" x2="335.3267" y1="932.2329" y2="952.2329"/><polygon fill="#333333" points="331.3267,942.2329,335.3267,952.2329,339.3267,942.2329,335.3267,946.2329" style="stroke:#333333;stroke-width:1;"/><line style="stroke:#333333;stroke-width:1;" x1="610.3591" x2="591.9368" y1="745.7358" y2="745.7358"/><line style="stroke:#333333;stroke-width:1;" x1="591.9368" x2="591.9368" y1="745.7358" y2="767.7358"/><polygon fill="#333333" points="587.9368,757.7358,591.9368,767.7358,595.9368,757.7358,591.9368,761.7358" style="stroke:#333333;stroke-width:1;"/><line style="stroke:#333333;stroke-width:1;" x1="715.5017" x2="733.9241" y1="745.7358" y2="745.7358"/><line style="stroke:#333333;stroke-width:1;" x1="733.9241" x2="733.9241" y1="745.7358" y2="767.7358"/><polygon fill="#333333" points="729.9241,757.7358,733.9241,767.7358,737.9241,757.7358,733.9241,761.7358" style="stroke:#333333;stroke-width:1;"/><line style="stroke:#333333;stroke-width:1;" x1="591.9368" x2="591.9368" y1="799.2349" y2="817.2349"/><line style="stroke:#333333;stroke-width:1;" x1="591.9368" x2="650.9304" y1="817.2349" y2="817.2349"/><polygon fill="#333333" points="640.9304,813.2349,650.9304,817.2349,640.9304,821.2349,644.9304,817.2349" style="stroke:#333333;stroke-width:1;"/><line style="stroke:#333333;stroke-width:1;" x1="733.9241" x2="733.9241" y1="799.2349" y2="817.2349"/><line style="stroke:#333333;stroke-width:1;" x1="733.9241" x2="674.9304" y1="817.2349" y2="817.2349"/><polygon fill="#333333" points="684.9304,813.2349,674.9304,817.2349,684.9304,821.2349,680.9304,817.2349" style="stroke:#333333;stroke-width:1;"/><line style="stroke:#333333;stroke-width:1;" x1="662.9304" x2="662.9304" y1="711.2368" y2="733.7358"/><polygon fill="#333333" points="658.9304,723.7358,662.9304,733.7358,666.9304,723.7358,662.9304,727.7358" style="stroke:#333333;stroke-width:1;"/><line style="stroke:#333333;stroke-width:1;" x1="662.9304" x2="662.9304" y1="829.2349" y2="849.2349"/><polygon fill="#333333" points="658.9304,839.2349,662.9304,849.2349,666.9304,839.2349,662.9304,843.2349" style="stroke:#333333;stroke-width:1;"/><line style="stroke:#333333;stroke-width:1;" x1="662.9304" x2="662.9304" y1="880.7339" y2="900.7339"/><polygon fill="#333333" points="658.9304,890.7339,662.9304,900.7339,666.9304,890.7339,662.9304,894.7339" style="stroke:#333333;stroke-width:1;"/><line style="stroke:#333333;stroke-width:1;" x1="452.524" x2="335.3267" y1="529.7397" y2="529.7397"/><line style="stroke:#333333;stroke-width:1;" x1="335.3267" x2="335.3267" y1="529.7397" y2="561.7397"/><polygon fill="#333333" points="331.3267,551.7397,335.3267,561.7397,339.3267,551.7397,335.3267,555.7397" style="stroke:#333333;stroke-width:1;"/><line style="stroke:#333333;stroke-width:1;" x1="335.3267" x2="335.3267" y1="1099.231" y2="1121.231"/><line style="stroke:#333333;stroke-width:1;" x1="335.3267" x2="487.1285" y1="1121.231" y2="1121.231"/><polygon fill="#333333" points="477.1285,1117.231,487.1285,1121.231,477.1285,1125.231,481.1285,1121.231" style="stroke:#333333;stroke-width:1;"/><line style="stroke:#333333;stroke-width:1;" x1="857.8596" x2="857.8596" y1="394.7417" y2="414.7417"/><polygon fill="#333333" points="853.8596,404.7417,857.8596,414.7417,861.8596,404.7417,857.8596,408.7417" style="stroke:#333333;stroke-width:1;"/><line style="stroke:#333333;stroke-width:1;" x1="857.8596" x2="857.8596" y1="446.2407" y2="466.2407"/><polygon fill="#333333" points="853.8596,456.2407,857.8596,466.2407,861.8596,456.2407,857.8596,460.2407" style="stroke:#333333;stroke-width:1;"/><line style="stroke:#333333;stroke-width:1;" x1="1151.7405" x2="1151.7405" y1="593.2388" y2="613.2388"/><polygon fill="#333333" points="1147.7405,603.2388,1151.7405,613.2388,1155.7405,603.2388,1151.7405,607.2388" style="stroke:#333333;stroke-width:1;"/><line style="stroke:#333333;stroke-width:1;" x1="106.3027" x2="106.3027" y1="291.7437" y2="296.7437"/><line style="stroke:#333333;stroke-width:1;" x1="106.3027" x2="499.1285" y1="296.7437" y2="296.7437"/><line style="stroke:#333333;stroke-width:1;" x1="499.1285" x2="499.1285" y1="296.7437" y2="311.7437"/><polygon fill="#333333" points="495.1285,301.7437,499.1285,311.7437,503.1285,301.7437,499.1285,305.7437" style="stroke:#333333;stroke-width:1;"/><line style="stroke:#333333;stroke-width:1;" x1="499.1285" x2="499.1285" y1="343.2427" y2="348.2427"/><line style="stroke:#333333;stroke-width:1;" x1="499.1285" x2="857.8596" y1="348.2427" y2="348.2427"/><line style="stroke:#333333;stroke-width:1;" x1="857.8596" x2="857.8596" y1="348.2427" y2="363.2427"/><polygon fill="#333333" points="853.8596,353.2427,857.8596,363.2427,861.8596,353.2427,857.8596,357.2427" style="stroke:#333333;stroke-width:1;"/><line style="stroke:#333333;stroke-width:1;" x1="335.3267" x2="335.3267" y1="708.7378" y2="716.2368"/><line style="stroke:#333333;stroke-width:1;" x1="335.3267" x2="990.4133" y1="716.2368" y2="716.2368"/><line style="stroke:#333333;stroke-width:1;" x1="990.4133" x2="990.4133" y1="716.2368" y2="731.2368"/><polygon fill="#333333" points="986.4133,721.2368,990.4133,731.2368,994.4133,721.2368,990.4133,725.2368" style="stroke:#333333;stroke-width:1;"/><line style="stroke:#333333;stroke-width:1;" x1="990.4133" x2="990.4133" y1="762.7358" y2="780.2358"/><line style="stroke:#333333;stroke-width:1;" x1="990.4133" x2="335.3267" y1="780.2358" y2="780.2358"/><line style="stroke:#333333;stroke-width:1;" x1="335.3267" x2="335.3267" y1="780.2358" y2="797.7358"/><polygon fill="#333333" points="331.3267,787.7358,335.3267,797.7358,339.3267,787.7358,335.3267,791.7358" style="stroke:#333333;stroke-width:1;"/><line style="stroke:#333333;stroke-width:1;" x1="1151.7405" x2="1151.7405" y1="644.7378" y2="662.2378"/><line style="stroke:#333333;stroke-width:1;" x1="1151.7405" x2="662.9304" y1="662.2378" y2="662.2378"/><line style="stroke:#333333;stroke-width:1;" x1="662.9304" x2="662.9304" y1="662.2378" y2="679.7378"/><polygon fill="#333333" points="658.9304,669.7378,662.9304,679.7378,666.9304,669.7378,662.9304,673.7378" style="stroke:#333333;stroke-width:1;"/><line style="stroke:#333333;stroke-width:1;" x1="662.9304" x2="662.9304" y1="932.2329" y2="937.2329"/><line style="stroke:#333333;stroke-width:1;" x1="662.9304" x2="1151.7405" y1="937.2329" y2="937.2329"/><line style="stroke:#333333;stroke-width:1;" x1="1151.7405" x2="1151.7405" y1="937.2329" y2="952.2329"/><polygon fill="#333333" points="1147.7405,942.2329,1151.7405,952.2329,1155.7405,942.2329,1151.7405,946.2329" style="stroke:#333333;stroke-width:1;"/><line style="stroke:#333333;stroke-width:1;" x1="545.733" x2="1151.7405" y1="529.7397" y2="529.7397"/><line style="stroke:#333333;stroke-width:1;" x1="1151.7405" x2="1151.7405" y1="529.7397" y2="561.7397"/><polygon fill="#333333" points="1147.7405,551.7397,1151.7405,561.7397,1155.7405,551.7397,1151.7405,555.7397" style="stroke:#333333;stroke-width:1;"/><line style="stroke:#333333;stroke-width:1;" x1="1151.7405" x2="1151.7405" y1="983.7319" y2="1121.231"/><line style="stroke:#333333;stroke-width:1;" x1="1151.7405" x2="511.1285" y1="1121.231" y2="1121.231"/><polygon fill="#333333" points="521.1285,1117.231,511.1285,1121.231,521.1285,1125.231,517.1285,1121.231" style="stroke:#333333;stroke-width:1;"/><line style="stroke:#333333;stroke-width:1;" x1="857.8596" x2="857.8596" y1="497.7397" y2="502.7397"/><line style="stroke:#333333;stroke-width:1;" x1="857.8596" x2="499.1285" y1="502.7397" y2="502.7397"/><line style="stroke:#333333;stroke-width:1;" x1="499.1285" x2="499.1285" y1="502.7397" y2="517.7397"/><polygon fill="#333333" points="495.1285,507.7397,499.1285,517.7397,503.1285,507.7397,499.1285,511.7397" style="stroke:#333333;stroke-width:1;"/><line style="stroke:#333333;stroke-width:1;" x1="499.1285" x2="499.1285" y1="1133.231" y2="1138.231"/><line style="stroke:#333333;stroke-width:1;" x1="499.1285" x2="1069.8835" y1="1138.231" y2="1138.231"/><line style="stroke:#333333;stroke-width:1;" x1="1069.8835" x2="1069.8835" y1="1138.231" y2="1153.231"/><polygon fill="#333333" points="1065.8835,1143.231,1069.8835,1153.231,1073.8835,1143.231,1069.8835,1147.231" style="stroke:#333333;stroke-width:1;"/><text fill="#000000" font-family="Arial" font-size="11" lengthAdjust="spacing" textLength="31.1792" x="89.7131" y="58.4165">Admin</text><text fill="#000000" font-family="Arial" font-size="11" lengthAdjust="spacing" textLength="39.7354" x="472.3231" y="58.4165">Sistema</text><text fill="#000000" font-family="Arial" font-size="11" lengthAdjust="spacing" textLength="25.6738" x="844.0227" y="58.4165">Tutor</text><text fill="#000000" font-family="Arial" font-size="11" lengthAdjust="spacing" textLength="85.5991" x="946.6138" y="58.4165">Provedor Externo</text><text fill="#000000" font-family="Arial" font-size="11" lengthAdjust="spacing" textLength="131.4575" x="1069.5117" y="58.4165">Veterin&#225;rio / Recepcionista</text><!--SRC=[ZPJFZjf03CRlUGht1gfKxg2gHM6fE3KbAxfILI4dCM0n6TF998KgBrFrtAVO5wkJy6-NNQcdIEFFOty_E_E6RMhAZ62PIfwBVRShSnC4dhqXc9foBw312DUOa_K25IDyGay_yH04zJZBsTP1uT7vO1YANV6wTEXEab4mdD2ABJi8qQA1NZHP329n7irWd2TIz5KIEQae4mTl8NIKaKqPkT30s7E5RgI5OYuyvLW7m-FDqCIa2TsNNfm68cHB1ZA1zaJJOpAKibY4ANfjIuz2mpzA0ifRImu-MwDPJohm2dfTi- -Xw_H37_o6BFI-5Pn_xmS0MkpGy8Z9LPpIntH3wLPAFz9Oat-l1KwDHhE7smlqYhiz9yhbonn2QH3F7ffiCWMfpZx-aPDmJXcxpeY37Jg4yAeSsOnN-gtF5E_sdfoLkktJIKf5eOdd4JP95xUg-Kh9HcGBSqefuQmLj3FXZDnmM97ZrU4ewlNRg4wwA8r764SppSCM-wc14uJBqhIBuNBCv4KIOr-YuL_QvCnMeZn7tVc4YyRk-LWddBtAQAsE6kqKpGOlO9vhwmKf7RQFlnqB35hJkuQjfdSunYsmuyg0LL-JHMVwl3kX90xT3SYRfK2tfkkLkDhk5q5Se7UvlVuPy2k-rQr9CDr2p7bfi1lUQIM6CHhzVs3TRU9I-TW2Kwzkbnt9A_InLyF5wByGFPciFX-FVvl2NLbz36Jt3m00]--></g></svg>