<svg xmlns="http://www.w3.org/2000/svg" xmlns:xlink="http://www.w3.org/1999/xlink" contentStyleType="text/css" data-diagram-type="ACTIVITY" height="1075px" preserveAspectRatio="none" style="width:728px;height:1075px;background:#FEFEFE;" version="1.1" viewBox="0 0 728 1075" width="728px" zoomAndPan="magnify"><title>Fluxo de Pagamento PIX</title><defs/><g><rect fill="#FEFEFE" height="1075" style="stroke:none;stroke-width:1;" width="728" x="0" y="0"/><rect fill="#FFFFCC" height="49.9219" rx="2.5" ry="2.5" style="stroke:#FFDD88;stroke-width:3;" width="717.8162" x="5" y="5"/><text fill="#000000" font-family="monospace" font-size="10" lengthAdjust="spacing" textLength="295.0049" x="10" y="20">The&#160;syntax&#160;using&#160;the&#160;|&#160;character&#160;is&#160;now&#160;obsolete.</text><text fill="#000000" font-family="monospace" font-size="10" lengthAdjust="spacing" textLength="288.9844" x="10" y="31.6406">Please&#160;use&#160;the&#160;&lt;&lt;procedure&gt;&gt;&#160;stereotype&#160;instead.</text><text fill="#000000" font-family="monospace" font-size="10" lengthAdjust="spacing" textLength="397.3535" x="10" y="43.2813">For&#160;more&#160;details,&#160;visit&#160;https://plantuml.com/activity-diagram-beta</text><text fill="#000000" font-family="Arial" font-size="14" font-weight="bold" lengthAdjust="spacing" textLength="163.3652" x="273.7255" y="93.0537">Fluxo de Pagamento PIX</text><rect fill="none" height="12.6489" style="stroke:none;stroke-width:1;" width="680.8162" x="15" y="108.0205"/><ellipse cx="95.0625" cy="135.6694" fill="#222222" rx="10" ry="10" style="stroke:#222222;stroke-width:1;"/><rect fill="#FFFFFF" height="31.499" rx="12.5" ry="12.5" style="stroke:#333333;stroke-width:0.5;" width="127.8271" x="31.1489" y="165.6694"/><text fill="#000000" font-family="Arial" font-size="10" lengthAdjust="spacing" textLength="107.8271" x="41.1489" y="185.0493">Configurar Gateway PIX</text><rect fill="#FFFFFF" height="31.499" rx="12.5" ry="12.5" style="stroke:#333333;stroke-width:0.5;" width="148.125" x="21" y="217.1685"/><text fill="#000000" font-family="Arial" font-size="10" lengthAdjust="spacing" textLength="128.125" x="31" y="236.5483">Definir Chave PIX + Unidade</text><rect fill="#FFFFFF" height="31.499" rx="12.5" ry="12.5" style="stroke:#333333;stroke-width:0.5;" width="45.5615" x="72.2817" y="268.6675"/><text fill="#000000" font-family="Arial" font-size="10" lengthAdjust="spacing" textLength="25.5615" x="82.2817" y="288.0474">Ativar</text><line style="stroke:#333333;stroke-width:1.5;" x1="15" x2="15" y1="108.0205" y2="1063.1528"/><rect fill="#FFFFFF" height="31.499" rx="12.5" ry="12.5" style="stroke:#333333;stroke-width:0.5;" width="103.3691" x="208.4438" y="320.1665"/><text fill="#000000" font-family="Arial" font-size="10" lengthAdjust="spacing" textLength="83.3691" x="218.4438" y="339.5464">Gateway PIX Ativo</text><rect fill="#FFFFFF" height="31.499" style="stroke:#333333;stroke-width:0.5;" width="114.4873" x="202.8848" y="371.6655"/><line style="stroke:#333333;stroke-width:0.5;" x1="207.8848" x2="207.8848" y1="371.6655" y2="403.1646"/><line style="stroke:#333333;stroke-width:0.5;" x1="312.3721" x2="312.3721" y1="371.6655" y2="403.1646"/><text fill="#000000" font-family="Arial" font-size="10" lengthAdjust="spacing" textLength="94.4873" x="212.8848" y="391.0454">Tutor / Recepcionista</text><rect fill="#FFFFFF" height="31.499" rx="12.5" ry="12.5" style="stroke:#333333;stroke-width:0.5;" width="133.3838" x="193.4365" y="423.1646"/><text fill="#000000" font-family="Arial" font-size="10" lengthAdjust="spacing" textLength="113.3838" x="203.4365" y="442.5444">Acessa Fatura em Aberto</text><rect fill="#FFFFFF" height="31.499" rx="12.5" ry="12.5" style="stroke:#333333;stroke-width:0.5;" width="137.8223" x="191.2173" y="474.6636"/><text fill="#000000" font-family="Arial" font-size="10" lengthAdjust="spacing" textLength="117.8223" x="201.2173" y="494.0435">Clique em Gerar QR Code</text><rect fill="#FFFFFF" height="31.499" rx="12.5" ry="12.5" style="stroke:#333333;stroke-width:0.5;" width="157.8369" x="181.21" y="526.1626"/><text fill="#000000" font-family="Arial" font-size="10" lengthAdjust="spacing" textLength="137.8369" x="191.21" y="545.5425">PixService::generateQRCode()</text><rect fill="#FFFFFF" height="31.499" rx="12.5" ry="12.5" style="stroke:#333333;stroke-width:0.5;" width="162.0068" x="179.125" y="577.6616"/><text fill="#000000" font-family="Arial" font-size="10" lengthAdjust="spacing" textLength="142.0068" x="189.125" y="597.0415">Gerar Payload EMV + QR Code</text><rect fill="#FFFFFF" height="31.499" rx="12.5" ry="12.5" style="stroke:#333333;stroke-width:0.5;" width="125.6006" x="197.3281" y="629.1606"/><text fill="#000000" font-family="Arial" font-size="10" lengthAdjust="spacing" textLength="105.6006" x="207.3281" y="648.5405">Exibir QR Code na Tela</text><rect fill="#FFFFFF" height="31.499" rx="12.5" ry="12.5" style="stroke:#333333;stroke-width:0.5;" width="157.0068" x="181.625" y="938.1548"/><text fill="#000000" font-family="Arial" font-size="10" lengthAdjust="spacing" textLength="137.0068" x="191.625" y="957.5347">Atualizar Fatura (status = paid)</text><rect fill="#FFFFFF" height="31.499" rx="12.5" ry="12.5" style="stroke:#333333;stroke-width:0.5;" width="112.2656" x="203.9956" y="989.6538"/><text fill="#000000" font-family="Arial" font-size="10" lengthAdjust="spacing" textLength="92.2656" x="213.9956" y="1009.0337">Disparar InvoicePaid</text><ellipse cx="260.1284" cy="1052.1528" fill="none" rx="11" ry="11" style="stroke:#222222;stroke-width:1;"/><ellipse cx="260.1284" cy="1052.1528" fill="#222222" rx="6" ry="6" style="stroke:#222222;stroke-width:1;"/><line style="stroke:#333333;stroke-width:1.5;" x1="173.125" x2="173.125" y1="108.0205" y2="1063.1528"/><rect fill="#FFFFFF" height="31.499" rx="12.5" ry="12.5" style="stroke:#333333;stroke-width:0.5;" width="106.709" x="373.9248" y="680.6597"/><text fill="#000000" font-family="Arial" font-size="10" lengthAdjust="spacing" textLength="86.709" x="383.9248" y="700.0396">Escanear QR Code</text><rect fill="#FFFFFF" height="31.499" rx="12.5" ry="12.5" style="stroke:#333333;stroke-width:0.5;" width="152.2949" x="351.1318" y="732.1587"/><text fill="#000000" font-family="Arial" font-size="10" lengthAdjust="spacing" textLength="132.2949" x="361.1318" y="751.5386">Confirmar Pagamento no App</text><line style="stroke:#333333;stroke-width:1.5;" x1="345.1318" x2="345.1318" y1="108.0205" y2="1063.1528"/><rect fill="#FFFFFF" height="31.499" rx="12.5" ry="12.5" style="stroke:#333333;stroke-width:0.5;" width="177.8613" x="513.4268" y="783.6577"/><text fill="#000000" font-family="Arial" font-size="10" lengthAdjust="spacing" textLength="157.8613" x="523.4268" y="803.0376">Registrar Pagamento Manualmente</text><rect fill="#FFFFFF" height="31.499" rx="12.5" ry="12.5" style="stroke:#333333;stroke-width:0.5;" width="124.4775" x="540.1187" y="835.1567"/><text fill="#000000" font-family="Arial" font-size="10" lengthAdjust="spacing" textLength="104.4775" x="550.1187" y="854.5366">Selecionar Forma (PIX)</text><rect fill="#FFFFFF" height="31.499" rx="12.5" ry="12.5" style="stroke:#333333;stroke-width:0.5;" width="63.8965" x="570.4092" y="886.6558"/><text fill="#000000" font-family="Arial" font-size="10" lengthAdjust="spacing" textLength="43.8965" x="580.4092" y="906.0356">Confirmar</text><line style="stroke:#333333;stroke-width:1.5;" x1="507.4268" x2="507.4268" y1="108.0205" y2="1063.1528"/><line style="stroke:#333333;stroke-width:1.5;" x1="695.2881" x2="695.2881" y1="108.0205" y2="1063.1528"/><line style="stroke:#333333;stroke-width:1;" x1="95.0625" x2="95.0625" y1="145.6694" y2="165.6694"/><polygon fill="#333333" points="91.0625,155.6694,95.0625,165.6694,99.0625,155.6694,95.0625,159.6694" style="stroke:#333333;stroke-width:1;"/><line style="stroke:#333333;stroke-width:1;" x1="95.0625" x2="95.0625" y1="197.1685" y2="217.1685"/><polygon fill="#333333" points="91.0625,207.1685,95.0625,217.1685,99.0625,207.1685,95.0625,211.1685" style="stroke:#333333;stroke-width:1;"/><line style="stroke:#333333;stroke-width:1;" x1="95.0625" x2="95.0625" y1="248.6675" y2="268.6675"/><polygon fill="#333333" points="91.0625,258.6675,95.0625,268.6675,99.0625,258.6675,95.0625,262.6675" style="stroke:#333333;stroke-width:1;"/><line style="stroke:#333333;stroke-width:1;" x1="260.1284" x2="260.1284" y1="351.6655" y2="371.6655"/><polygon fill="#333333" points="256.1284,361.6655,260.1284,371.6655,264.1284,361.6655,260.1284,365.6655" style="stroke:#333333;stroke-width:1;"/><line style="stroke:#333333;stroke-width:1;" x1="260.1284" x2="260.1284" y1="403.1646" y2="423.1646"/><polygon fill="#333333" points="256.1284,413.1646,260.1284,423.1646,264.1284,413.1646,260.1284,417.1646" style="stroke:#333333;stroke-width:1;"/><line style="stroke:#333333;stroke-width:1;" x1="260.1284" x2="260.1284" y1="454.6636" y2="474.6636"/><polygon fill="#333333" points="256.1284,464.6636,260.1284,474.6636,264.1284,464.6636,260.1284,468.6636" style="stroke:#333333;stroke-width:1;"/><line style="stroke:#333333;stroke-width:1;" x1="260.1284" x2="260.1284" y1="506.1626" y2="526.1626"/><polygon fill="#333333" points="256.1284,516.1626,260.1284,526.1626,264.1284,516.1626,260.1284,520.1626" style="stroke:#333333;stroke-width:1;"/><line style="stroke:#333333;stroke-width:1;" x1="260.1284" x2="260.1284" y1="557.6616" y2="577.6616"/><polygon fill="#333333" points="256.1284,567.6616,260.1284,577.6616,264.1284,567.6616,260.1284,571.6616" style="stroke:#333333;stroke-width:1;"/><line style="stroke:#333333;stroke-width:1;" x1="260.1284" x2="260.1284" y1="609.1606" y2="629.1606"/><polygon fill="#333333" points="256.1284,619.1606,260.1284,629.1606,264.1284,619.1606,260.1284,623.1606" style="stroke:#333333;stroke-width:1;"/><line style="stroke:#333333;stroke-width:1;" x1="260.1284" x2="260.1284" y1="969.6538" y2="989.6538"/><polygon fill="#333333" points="256.1284,979.6538,260.1284,989.6538,264.1284,979.6538,260.1284,983.6538" style="stroke:#333333;stroke-width:1;"/><line style="stroke:#333333;stroke-width:1;" x1="260.1284" x2="260.1284" y1="1021.1528" y2="1041.1528"/><polygon fill="#333333" points="256.1284,1031.1528,260.1284,1041.1528,264.1284,1031.1528,260.1284,1035.1528" style="stroke:#333333;stroke-width:1;"/><line style="stroke:#333333;stroke-width:1;" x1="427.2793" x2="427.2793" y1="712.1587" y2="732.1587"/><polygon fill="#333333" points="423.2793,722.1587,427.2793,732.1587,431.2793,722.1587,427.2793,726.1587" style="stroke:#333333;stroke-width:1;"/><line style="stroke:#333333;stroke-width:1;" x1="602.3574" x2="602.3574" y1="815.1567" y2="835.1567"/><polygon fill="#333333" points="598.3574,825.1567,602.3574,835.1567,606.3574,825.1567,602.3574,829.1567" style="stroke:#333333;stroke-width:1;"/><line style="stroke:#333333;stroke-width:1;" x1="602.3574" x2="602.3574" y1="866.6558" y2="886.6558"/><polygon fill="#333333" points="598.3574,876.6558,602.3574,886.6558,606.3574,876.6558,602.3574,880.6558" style="stroke:#333333;stroke-width:1;"/><line style="stroke:#333333;stroke-width:1;" x1="95.0625" x2="95.0625" y1="300.1665" y2="305.1665"/><line style="stroke:#333333;stroke-width:1;" x1="95.0625" x2="260.1284" y1="305.1665" y2="305.1665"/><line style="stroke:#333333;stroke-width:1;" x1="260.1284" x2="260.1284" y1="305.1665" y2="320.1665"/><polygon fill="#333333" points="256.1284,310.1665,260.1284,320.1665,264.1284,310.1665,260.1284,314.1665" style="stroke:#333333;stroke-width:1;"/><line style="stroke:#333333;stroke-width:1;" x1="260.1284" x2="260.1284" y1="660.6597" y2="665.6597"/><line style="stroke:#333333;stroke-width:1;" x1="260.1284" x2="427.2793" y1="665.6597" y2="665.6597"/><line style="stroke:#333333;stroke-width:1;" x1="427.2793" x2="427.2793" y1="665.6597" y2="680.6597"/><polygon fill="#333333" points="423.2793,670.6597,427.2793,680.6597,431.2793,670.6597,427.2793,674.6597" style="stroke:#333333;stroke-width:1;"/><line style="stroke:#333333;stroke-width:1;" x1="427.2793" x2="427.2793" y1="763.6577" y2="768.6577"/><line style="stroke:#333333;stroke-width:1;" x1="427.2793" x2="602.3574" y1="768.6577" y2="768.6577"/><line style="stroke:#333333;stroke-width:1;" x1="602.3574" x2="602.3574" y1="768.6577" y2="783.6577"/><polygon fill="#333333" points="598.3574,773.6577,602.3574,783.6577,606.3574,773.6577,602.3574,777.6577" style="stroke:#333333;stroke-width:1;"/><line style="stroke:#333333;stroke-width:1;" x1="602.3574" x2="602.3574" y1="918.1548" y2="923.1548"/><line style="stroke:#333333;stroke-width:1;" x1="602.3574" x2="260.1284" y1="923.1548" y2="923.1548"/><line style="stroke:#333333;stroke-width:1;" x1="260.1284" x2="260.1284" y1="923.1548" y2="938.1548"/><polygon fill="#333333" points="256.1284,928.1548,260.1284,938.1548,264.1284,928.1548,260.1284,932.1548" style="stroke:#333333;stroke-width:1;"/><text fill="#000000" font-family="Arial" font-size="11" lengthAdjust="spacing" textLength="31.1792" x="78.4729" y="118.3384">Admin</text><text fill="#000000" font-family="Arial" font-size="11" lengthAdjust="spacing" textLength="39.7354" x="239.2607" y="118.3384">Sistema</text><text fill="#000000" font-family="Arial" font-size="11" lengthAdjust="spacing" textLength="25.6738" x="413.4424" y="118.3384">Tutor</text><text fill="#000000" font-family="Arial" font-size="11" lengthAdjust="spacing" textLength="69.0938" x="566.8105" y="118.3384">Recepcionista</text><!--SRC=[NP3DRi8m48JlVehj3LIflHlr4F4d3aWXqAgtQacMT2N7JXqxXOg7xnfK57gpTcU-MSy3szB4Yk2ZT4tZx5CR6wDKu6085YOU7SWonneRii51ldfNwfnL3TkpwWBweFJKsGFNqQE79GRwnbEIJPIUqO4jUvX-Oazf1e_mQhd2YcIR1UxHJmItvIvGWsUb1tv8UoThlOl1UNY6WafgItPMv4cSbTHr20iCaWtKGBOd7yIYfuQ_8gNHaj9PcmAcBeKEit8-RidtN9BMDLaH1jeKIJSQ2-FgpF5a75OmNx_9yJUEdXzvppSmM8GT6Km1bsi5F-zAj3GClnRbcmlshr3h86lRPFp_lO9gUVaxzHfjH9FUYRSbGyaWaeKJBeoaj_4mwFx7MH0p_oJvjREH98NOmGkqo5LophXhCMMkRE-acbpc0kc2Qty1]--></g></svg>