<svg xmlns="http://www.w3.org/2000/svg" xmlns:xlink="http://www.w3.org/1999/xlink" contentStyleType="text/css" height="1403px" preserveAspectRatio="none" style="width:1464px;height:1403px;background:#FEFEFE;" version="1.1" viewBox="0 0 1464 1403" width="1464px" zoomAndPan="magnify"><title>Fluxo de Pagamento</title><defs/><g><rect fill="#FEFEFE" height="1403" style="stroke:none;stroke-width:1.0;" width="1464" x="0" y="0"/><text fill="#000000" font-family="Arial" font-size="14" font-weight="bold" lengthAdjust="spacing" textLength="136.9102" x="662.5032" y="33.1318">Fluxo de Pagamento</text><rect fill="none" height="12.6489" style="stroke:none;stroke-width:1.0;" width="1431.9165" x="15" y="48.0986"/><ellipse cx="185.3738" cy="75.7476" fill="#222222" rx="10" ry="10" style="stroke:#222222;stroke-width:1.0;"/><rect fill="#FFFFFF" height="31.499" rx="12.5" ry="12.5" style="stroke:#333333;stroke-width:0.5;" width="108.9307" x="130.9084" y="105.7476"/><text fill="#000000" font-family="Arial" font-size="10" lengthAdjust="spacing" textLength="88.9307" x="140.9084" y="125.1274">Configurar Gateway</text><polygon fill="#FFFFFF" points="162.3049,157.2466,208.4426,157.2466,220.4426,169.2466,208.4426,181.2466,162.3049,181.2466,150.3049,169.2466,162.3049,157.2466" style="stroke:#333333;stroke-width:0.5;"/><text fill="#000000" font-family="Arial" font-size="10" lengthAdjust="spacing" textLength="46.1377" x="162.3049" y="172.877">Provedor?</text><text fill="#000000" font-family="Arial" font-size="9" lengthAdjust="spacing" textLength="19.5073" x="130.7976" y="167.3394">[PIX]</text><text fill="#000000" font-family="Arial" font-size="9" lengthAdjust="spacing" textLength="63.5361" x="220.4426" y="167.3394">[Mercado Pago]</text><rect fill="#FFFFFF" height="31.499" rx="12.5" ry="12.5" style="stroke:#333333;stroke-width:0.5;" width="148.125" x="21" y="191.2466"/><text fill="#000000" font-family="Arial" font-size="10" lengthAdjust="spacing" textLength="128.125" x="31" y="210.6265">Definir Chave PIX + Unidade</text><rect fill="#FFFFFF" height="31.499" rx="12.5" ry="12.5" style="stroke:#333333;stroke-width:0.5;" width="173.1201" x="189.125" y="191.2466"/><text fill="#000000" font-family="Arial" font-size="10" lengthAdjust="spacing" textLength="153.1201" x="199.125" y="210.6265">Definir Access Token + Public Key</text><polygon fill="#FFFFFF" points="185.3738,228.7456,197.3738,240.7456,185.3738,252.7456,173.3738,240.7456,185.3738,228.7456" style="stroke:#333333;stroke-width:0.5;"/><rect fill="#FFFFFF" height="31.499" rx="12.5" ry="12.5" style="stroke:#333333;stroke-width:0.5;" width="131.7188" x="119.5144" y="272.7456"/><text fill="#000000" font-family="Arial" font-size="10" lengthAdjust="spacing" textLength="111.7188" x="129.5144" y="292.1255">Selecionar Canal (Portal)</text><rect fill="#FFFFFF" height="31.499" rx="12.5" ry="12.5" style="stroke:#333333;stroke-width:0.5;" width="45.5615" x="162.593" y="324.2446"/><text fill="#000000" font-family="Arial" font-size="10" lengthAdjust="spacing" textLength="25.5615" x="172.593" y="343.6245">Ativar</text><line style="stroke:#333333;stroke-width:1.5;" x1="15" x2="15" y1="48.0986" y2="1391.229"/><rect fill="#FFFFFF" height="31.499" rx="12.5" ry="12.5" style="stroke:#333333;stroke-width:0.5;" width="118.9258" x="512.5112" y="375.7437"/><text fill="#000000" font-family="Arial" font-size="10" lengthAdjust="spacing" textLength="98.9258" x="522.5112" y="395.1235">Gateway Ativo (portal)</text><rect fill="#FFFFFF" height="31.499" style="stroke:#333333;stroke-width:0.5;" width="114.4873" x="514.7305" y="427.2427"/><line style="stroke:#333333;stroke-width:0.5;" x1="519.7305" x2="519.7305" y1="427.2427" y2="458.7417"/><line style="stroke:#333333;stroke-width:0.5;" x1="624.2178" x2="624.2178" y1="427.2427" y2="458.7417"/><text fill="#000000" font-family="Arial" font-size="10" lengthAdjust="spacing" textLength="94.4873" x="524.7305" y="446.6226">Tutor / Recepcionista</text><polygon fill="#FFFFFF" points="549.4619,478.7417,594.4863,478.7417,606.4863,490.7417,594.4863,502.7417,549.4619,502.7417,537.4619,490.7417,549.4619,478.7417" style="stroke:#333333;stroke-width:0.5;"/><text fill="#000000" font-family="Arial" font-size="10" lengthAdjust="spacing" textLength="45.0244" x="549.4619" y="494.3721">Gateway?</text><text fill="#000000" font-family="Arial" font-size="9" lengthAdjust="spacing" textLength="19.5073" x="517.9546" y="488.8345">[PIX]</text><text fill="#000000" font-family="Arial" font-size="9" lengthAdjust="spacing" textLength="63.5361" x="606.4863" y="488.8345">[Mercado Pago]</text><rect fill="#FFFFFF" height="31.499" rx="12.5" ry="12.5" style="stroke:#333333;stroke-width:0.5;" width="133.3838" x="427.4807" y="512.7417"/><text fill="#000000" font-family="Arial" font-size="10" lengthAdjust="spacing" textLength="113.3838" x="437.4807" y="532.1216">Acessa Fatura em Aberto</text><rect fill="#FFFFFF" height="31.499" rx="12.5" ry="12.5" style="stroke:#333333;stroke-width:0.5;" width="137.8223" x="425.2615" y="564.2407"/><text fill="#000000" font-family="Arial" font-size="10" lengthAdjust="spacing" textLength="117.8223" x="435.2615" y="583.6206">Clique em Gerar QR Code</text><rect fill="#FFFFFF" height="31.499" rx="12.5" ry="12.5" style="stroke:#333333;stroke-width:0.5;" width="133.3838" x="583.0837" y="512.7417"/><text fill="#000000" font-family="Arial" font-size="10" lengthAdjust="spacing" textLength="113.3838" x="593.0837" y="532.1216">Acessa Fatura em Aberto</text><rect fill="#FFFFFF" height="31.499" rx="12.5" ry="12.5" style="stroke:#333333;stroke-width:0.5;" width="126.167" x="586.6921" y="564.2407"/><text fill="#000000" font-family="Arial" font-size="10" lengthAdjust="spacing" textLength="106.167" x="596.6921" y="583.6206">Clique em Pagar Online</text><polygon fill="#FFFFFF" points="571.9741,601.7397,583.9741,613.7397,571.9741,625.7397,559.9741,613.7397,571.9741,601.7397" style="stroke:#333333;stroke-width:0.5;"/><polygon fill="#FFFFFF" points="549.4619,645.7397,594.4863,645.7397,606.4863,657.7397,594.4863,669.7397,549.4619,669.7397,537.4619,657.7397,549.4619,645.7397" style="stroke:#333333;stroke-width:0.5;"/><text fill="#000000" font-family="Arial" font-size="10" lengthAdjust="spacing" textLength="45.0244" x="549.4619" y="661.3701">Gateway?</text><text fill="#000000" font-family="Arial" font-size="9" lengthAdjust="spacing" textLength="19.5073" x="517.9546" y="655.8325">[PIX]</text><text fill="#000000" font-family="Arial" font-size="9" lengthAdjust="spacing" textLength="63.5361" x="606.4863" y="655.8325">[Mercado Pago]</text><rect fill="#FFFFFF" height="31.499" rx="12.5" ry="12.5" style="stroke:#333333;stroke-width:0.5;" width="157.8369" x="374.3301" y="679.7397"/><text fill="#000000" font-family="Arial" font-size="10" lengthAdjust="spacing" textLength="137.8369" x="384.3301" y="699.1196">PixService::generateQRCode()</text><rect fill="#FFFFFF" height="31.499" rx="12.5" ry="12.5" style="stroke:#333333;stroke-width:0.5;" width="162.0068" x="372.2451" y="731.2388"/><text fill="#000000" font-family="Arial" font-size="10" lengthAdjust="spacing" textLength="142.0068" x="382.2451" y="750.6187">Gerar Payload EMV + QR Code</text><rect fill="#FFFFFF" height="31.499" rx="12.5" ry="12.5" style="stroke:#333333;stroke-width:0.5;" width="125.6006" x="390.4482" y="797.7378"/><text fill="#000000" font-family="Arial" font-size="10" lengthAdjust="spacing" textLength="105.6006" x="400.4482" y="817.1177">Exibir QR Code na Tela</text><rect fill="#FFFFFF" height="31.499" rx="12.5" ry="12.5" style="stroke:#333333;stroke-width:0.5;" width="171.7383" x="604.8306" y="679.7397"/><text fill="#000000" font-family="Arial" font-size="10" lengthAdjust="spacing" textLength="151.7383" x="614.8306" y="699.1196">MercadoPagoProvider::checkout()</text><polygon fill="#FFFFFF" points="668.1802,731.2388,713.2192,731.2388,725.2192,743.2388,713.2192,755.2388,668.1802,755.2388,656.1802,743.2388,668.1802,731.2388" style="stroke:#333333;stroke-width:0.5;"/><text fill="#000000" font-family="Arial" font-size="10" lengthAdjust="spacing" textLength="45.0391" x="668.1802" y="746.8691">Sandbox?</text><text fill="#000000" font-family="Arial" font-size="9" lengthAdjust="spacing" textLength="18.9976" x="637.1826" y="741.3315">[sim]</text><text fill="#000000" font-family="Arial" font-size="9" lengthAdjust="spacing" textLength="20.0171" x="725.2192" y="741.3315">[n&#227;o]</text><rect fill="#FFFFFF" height="31.499" rx="12.5" ry="12.5" style="stroke:#333333;stroke-width:0.5;" width="127.29" x="564.252" y="765.2388"/><text fill="#000000" font-family="Arial" font-size="10" lengthAdjust="spacing" textLength="107.29" x="574.252" y="784.6187">Usar sandbox_init_point</text><rect fill="#FFFFFF" height="31.499" rx="12.5" ry="12.5" style="stroke:#333333;stroke-width:0.5;" width="83.9209" x="711.542" y="765.2388"/><text fill="#000000" font-family="Arial" font-size="10" lengthAdjust="spacing" textLength="63.9209" x="721.542" y="784.6187">Usar init_point</text><polygon fill="#FFFFFF" points="690.6997,802.7378,702.6997,814.7378,690.6997,826.7378,678.6997,814.7378,690.6997,802.7378" style="stroke:#333333;stroke-width:0.5;"/><rect fill="#FFFFFF" height="31.499" rx="12.5" ry="12.5" style="stroke:#333333;stroke-width:0.5;" width="153.3984" x="614.0005" y="849.2368"/><text fill="#000000" font-family="Arial" font-size="10" lengthAdjust="spacing" textLength="133.3984" x="624.0005" y="868.6167">Redirecionar ao Checkout MP</text><polygon fill="#FFFFFF" points="571.9741,886.7358,583.9741,898.7358,571.9741,910.7358,559.9741,898.7358,571.9741,886.7358" style="stroke:#333333;stroke-width:0.5;"/><rect fill="#FFFFFF" height="31.499" rx="12.5" ry="12.5" style="stroke:#333333;stroke-width:0.5;" width="155.0586" x="599.3435" y="1077.7339"/><text fill="#000000" font-family="Arial" font-size="10" lengthAdjust="spacing" textLength="135.0586" x="609.3435" y="1097.1138">Receber Retorno (querystring)</text><rect fill="#FFFFFF" height="31.499" rx="12.5" ry="12.5" style="stroke:#333333;stroke-width:0.5;" width="201.7334" x="576.0061" y="1129.2329"/><text fill="#000000" font-family="Arial" font-size="10" lengthAdjust="spacing" textLength="181.7334" x="586.0061" y="1148.6128">Consultar API MP via processWebhook()</text><rect fill="#FFFFFF" height="31.499" rx="12.5" ry="12.5" style="stroke:#333333;stroke-width:0.5;" width="173.4277" x="590.1589" y="1180.7319"/><text fill="#000000" font-family="Arial" font-size="10" lengthAdjust="spacing" textLength="153.4277" x="600.1589" y="1200.1118">Validar Status Real do Pagamento</text><rect fill="#FFFFFF" height="31.499" rx="12.5" ry="12.5" style="stroke:#333333;stroke-width:0.5;" width="157.0068" x="493.4707" y="1266.231"/><text fill="#000000" font-family="Arial" font-size="10" lengthAdjust="spacing" textLength="137.0068" x="503.4707" y="1285.6108">Atualizar Fatura (status = paid)</text><rect fill="#FFFFFF" height="31.499" rx="12.5" ry="12.5" style="stroke:#333333;stroke-width:0.5;" width="112.2656" x="515.8413" y="1317.73"/><text fill="#000000" font-family="Arial" font-size="10" lengthAdjust="spacing" textLength="92.2656" x="525.8413" y="1337.1099">Disparar InvoicePaid</text><ellipse cx="571.9741" cy="1380.229" fill="none" rx="11" ry="11" style="stroke:#222222;stroke-width:1.0;"/><ellipse cx="571.9741" cy="1380.229" fill="#222222" rx="6" ry="6" style="stroke:#222222;stroke-width:1.0;"/><line style="stroke:#333333;stroke-width:1.5;" x1="366.2451" x2="366.2451" y1="48.0986" y2="1391.229"/><polygon fill="#FFFFFF" points="963.9968,930.7358,1009.0212,930.7358,1021.0212,942.7358,1009.0212,954.7358,963.9968,954.7358,951.9968,942.7358,963.9968,930.7358" style="stroke:#333333;stroke-width:0.5;"/><text fill="#000000" font-family="Arial" font-size="10" lengthAdjust="spacing" textLength="45.0244" x="963.9968" y="946.3662">Gateway?</text><text fill="#000000" font-family="Arial" font-size="9" lengthAdjust="spacing" textLength="19.5073" x="932.4895" y="940.8286">[PIX]</text><text fill="#000000" font-family="Arial" font-size="9" lengthAdjust="spacing" textLength="63.5361" x="1021.0212" y="940.8286">[Mercado Pago]</text><rect fill="#FFFFFF" height="31.499" rx="12.5" ry="12.5" style="stroke:#333333;stroke-width:0.5;" width="106.709" x="828.2559" y="974.7358"/><text fill="#000000" font-family="Arial" font-size="10" lengthAdjust="spacing" textLength="86.709" x="838.2559" y="994.1157">Escanear QR Code</text><rect fill="#FFFFFF" height="31.499" rx="12.5" ry="12.5" style="stroke:#333333;stroke-width:0.5;" width="152.2949" x="805.4629" y="1026.2349"/><text fill="#000000" font-family="Arial" font-size="10" lengthAdjust="spacing" textLength="132.2949" x="815.4629" y="1045.6147">Confirmar Pagamento no App</text><polygon fill="#FFFFFF" points="986.509,1222.231,998.509,1234.231,986.509,1246.231,974.509,1234.231,986.509,1222.231" style="stroke:#333333;stroke-width:0.5;"/><line style="stroke:#333333;stroke-width:1.5;" x1="799.4629" x2="799.4629" y1="48.0986" y2="1391.229"/><rect fill="#FFFFFF" height="31.499" rx="12.5" ry="12.5" style="stroke:#333333;stroke-width:0.5;" width="177.8613" x="1095.5574" y="1077.7339"/><text fill="#000000" font-family="Arial" font-size="10" lengthAdjust="spacing" textLength="157.8613" x="1105.5574" y="1097.1138">Registrar Pagamento Manualmente</text><rect fill="#FFFFFF" height="31.499" rx="12.5" ry="12.5" style="stroke:#333333;stroke-width:0.5;" width="158.9697" x="1283.4187" y="974.7358"/><text fill="#000000" font-family="Arial" font-size="10" lengthAdjust="spacing" textLength="138.9697" x="1293.4187" y="994.1157">Preencher Dados Cart&#227;o/Saldo</text><rect fill="#FFFFFF" height="31.499" rx="12.5" ry="12.5" style="stroke:#333333;stroke-width:0.5;" width="117.8223" x="1303.9924" y="1026.2349"/><text fill="#000000" font-family="Arial" font-size="10" lengthAdjust="spacing" textLength="97.8223" x="1313.9924" y="1045.6147">Confirmar Pagamento</text><line style="stroke:#333333;stroke-width:1.5;" x1="1089.5574" x2="1089.5574" y1="48.0986" y2="1391.229"/><line style="stroke:#333333;stroke-width:1.5;" x1="1446.3884" x2="1446.3884" y1="48.0986" y2="1391.229"/><line style="stroke:#333333;stroke-width:1.0;" x1="185.3738" x2="185.3738" y1="85.7476" y2="105.7476"/><polygon fill="#333333" points="181.3738,95.7476,185.3738,105.7476,189.3738,95.7476,185.3738,99.7476" style="stroke:#333333;stroke-width:1.0;"/><line style="stroke:#333333;stroke-width:1.0;" x1="150.3049" x2="95.0625" y1="169.2466" y2="169.2466"/><line style="stroke:#333333;stroke-width:1.0;" x1="95.0625" x2="95.0625" y1="169.2466" y2="191.2466"/><polygon fill="#333333" points="91.0625,181.2466,95.0625,191.2466,99.0625,181.2466,95.0625,185.2466" style="stroke:#333333;stroke-width:1.0;"/><line style="stroke:#333333;stroke-width:1.0;" x1="220.4426" x2="275.6851" y1="169.2466" y2="169.2466"/><line style="stroke:#333333;stroke-width:1.0;" x1="275.6851" x2="275.6851" y1="169.2466" y2="191.2466"/><polygon fill="#333333" points="271.6851,181.2466,275.6851,191.2466,279.6851,181.2466,275.6851,185.2466" style="stroke:#333333;stroke-width:1.0;"/><line style="stroke:#333333;stroke-width:1.0;" x1="95.0625" x2="95.0625" y1="222.7456" y2="240.7456"/><line style="stroke:#333333;stroke-width:1.0;" x1="95.0625" x2="173.3738" y1="240.7456" y2="240.7456"/><polygon fill="#333333" points="163.3738,236.7456,173.3738,240.7456,163.3738,244.7456,167.3738,240.7456" style="stroke:#333333;stroke-width:1.0;"/><line style="stroke:#333333;stroke-width:1.0;" x1="275.6851" x2="275.6851" y1="222.7456" y2="240.7456"/><line style="stroke:#333333;stroke-width:1.0;" x1="275.6851" x2="197.3738" y1="240.7456" y2="240.7456"/><polygon fill="#333333" points="207.3738,236.7456,197.3738,240.7456,207.3738,244.7456,203.3738,240.7456" style="stroke:#333333;stroke-width:1.0;"/><line style="stroke:#333333;stroke-width:1.0;" x1="185.3738" x2="185.3738" y1="137.2466" y2="157.2466"/><polygon fill="#333333" points="181.3738,147.2466,185.3738,157.2466,189.3738,147.2466,185.3738,151.2466" style="stroke:#333333;stroke-width:1.0;"/><line style="stroke:#333333;stroke-width:1.0;" x1="185.3738" x2="185.3738" y1="252.7456" y2="272.7456"/><polygon fill="#333333" points="181.3738,262.7456,185.3738,272.7456,189.3738,262.7456,185.3738,266.7456" style="stroke:#333333;stroke-width:1.0;"/><line style="stroke:#333333;stroke-width:1.0;" x1="185.3738" x2="185.3738" y1="304.2446" y2="324.2446"/><polygon fill="#333333" points="181.3738,314.2446,185.3738,324.2446,189.3738,314.2446,185.3738,318.2446" style="stroke:#333333;stroke-width:1.0;"/><line style="stroke:#333333;stroke-width:1.0;" x1="571.9741" x2="571.9741" y1="407.2427" y2="427.2427"/><polygon fill="#333333" points="567.9741,417.2427,571.9741,427.2427,575.9741,417.2427,571.9741,421.2427" style="stroke:#333333;stroke-width:1.0;"/><line style="stroke:#333333;stroke-width:1.0;" x1="494.1726" x2="494.1726" y1="544.2407" y2="564.2407"/><polygon fill="#333333" points="490.1726,554.2407,494.1726,564.2407,498.1726,554.2407,494.1726,558.2407" style="stroke:#333333;stroke-width:1.0;"/><line style="stroke:#333333;stroke-width:1.0;" x1="649.7756" x2="649.7756" y1="544.2407" y2="564.2407"/><polygon fill="#333333" points="645.7756,554.2407,649.7756,564.2407,653.7756,554.2407,649.7756,558.2407" style="stroke:#333333;stroke-width:1.0;"/><line style="stroke:#333333;stroke-width:1.0;" x1="537.4619" x2="494.1726" y1="490.7417" y2="490.7417"/><line style="stroke:#333333;stroke-width:1.0;" x1="494.1726" x2="494.1726" y1="490.7417" y2="512.7417"/><polygon fill="#333333" points="490.1726,502.7417,494.1726,512.7417,498.1726,502.7417,494.1726,506.7417" style="stroke:#333333;stroke-width:1.0;"/><line style="stroke:#333333;stroke-width:1.0;" x1="606.4863" x2="649.7756" y1="490.7417" y2="490.7417"/><line style="stroke:#333333;stroke-width:1.0;" x1="649.7756" x2="649.7756" y1="490.7417" y2="512.7417"/><polygon fill="#333333" points="645.7756,502.7417,649.7756,512.7417,653.7756,502.7417,649.7756,506.7417" style="stroke:#333333;stroke-width:1.0;"/><line style="stroke:#333333;stroke-width:1.0;" x1="494.1726" x2="494.1726" y1="595.7397" y2="613.7397"/><line style="stroke:#333333;stroke-width:1.0;" x1="494.1726" x2="559.9741" y1="613.7397" y2="613.7397"/><polygon fill="#333333" points="549.9741,609.7397,559.9741,613.7397,549.9741,617.7397,553.9741,613.7397" style="stroke:#333333;stroke-width:1.0;"/><line style="stroke:#333333;stroke-width:1.0;" x1="649.7756" x2="649.7756" y1="595.7397" y2="613.7397"/><line style="stroke:#333333;stroke-width:1.0;" x1="649.7756" x2="583.9741" y1="613.7397" y2="613.7397"/><polygon fill="#333333" points="593.9741,609.7397,583.9741,613.7397,593.9741,617.7397,589.9741,613.7397" style="stroke:#333333;stroke-width:1.0;"/><line style="stroke:#333333;stroke-width:1.0;" x1="571.9741" x2="571.9741" y1="458.7417" y2="478.7417"/><polygon fill="#333333" points="567.9741,468.7417,571.9741,478.7417,575.9741,468.7417,571.9741,472.7417" style="stroke:#333333;stroke-width:1.0;"/><line style="stroke:#333333;stroke-width:1.0;" x1="453.2485" x2="453.2485" y1="711.2388" y2="731.2388"/><polygon fill="#333333" points="449.2485,721.2388,453.2485,731.2388,457.2485,721.2388,453.2485,725.2388" style="stroke:#333333;stroke-width:1.0;"/><line style="stroke:#333333;stroke-width:1.0;" x1="453.2485" x2="453.2485" y1="762.7378" y2="797.7378"/><polygon fill="#333333" points="449.2485,787.7378,453.2485,797.7378,457.2485,787.7378,453.2485,791.7378" style="stroke:#333333;stroke-width:1.0;"/><line style="stroke:#333333;stroke-width:1.0;" x1="656.1802" x2="627.897" y1="743.2388" y2="743.2388"/><line style="stroke:#333333;stroke-width:1.0;" x1="627.897" x2="627.897" y1="743.2388" y2="765.2388"/><polygon fill="#333333" points="623.897,755.2388,627.897,765.2388,631.897,755.2388,627.897,759.2388" style="stroke:#333333;stroke-width:1.0;"/><line style="stroke:#333333;stroke-width:1.0;" x1="725.2192" x2="753.5024" y1="743.2388" y2="743.2388"/><line style="stroke:#333333;stroke-width:1.0;" x1="753.5024" x2="753.5024" y1="743.2388" y2="765.2388"/><polygon fill="#333333" points="749.5024,755.2388,753.5024,765.2388,757.5024,755.2388,753.5024,759.2388" style="stroke:#333333;stroke-width:1.0;"/><line style="stroke:#333333;stroke-width:1.0;" x1="627.897" x2="627.897" y1="796.7378" y2="814.7378"/><line style="stroke:#333333;stroke-width:1.0;" x1="627.897" x2="678.6997" y1="814.7378" y2="814.7378"/><polygon fill="#333333" points="668.6997,810.7378,678.6997,814.7378,668.6997,818.7378,672.6997,814.7378" style="stroke:#333333;stroke-width:1.0;"/><line style="stroke:#333333;stroke-width:1.0;" x1="753.5024" x2="753.5024" y1="796.7378" y2="814.7378"/><line style="stroke:#333333;stroke-width:1.0;" x1="753.5024" x2="702.6997" y1="814.7378" y2="814.7378"/><polygon fill="#333333" points="712.6997,810.7378,702.6997,814.7378,712.6997,818.7378,708.6997,814.7378" style="stroke:#333333;stroke-width:1.0;"/><line style="stroke:#333333;stroke-width:1.0;" x1="690.6997" x2="690.6997" y1="711.2388" y2="731.2388"/><polygon fill="#333333" points="686.6997,721.2388,690.6997,731.2388,694.6997,721.2388,690.6997,725.2388" style="stroke:#333333;stroke-width:1.0;"/><line style="stroke:#333333;stroke-width:1.0;" x1="690.6997" x2="690.6997" y1="826.7378" y2="849.2368"/><polygon fill="#333333" points="686.6997,839.2368,690.6997,849.2368,694.6997,839.2368,690.6997,843.2368" style="stroke:#333333;stroke-width:1.0;"/><line style="stroke:#333333;stroke-width:1.0;" x1="537.4619" x2="453.2485" y1="657.7397" y2="657.7397"/><line style="stroke:#333333;stroke-width:1.0;" x1="453.2485" x2="453.2485" y1="657.7397" y2="679.7397"/><polygon fill="#333333" points="449.2485,669.7397,453.2485,679.7397,457.2485,669.7397,453.2485,673.7397" style="stroke:#333333;stroke-width:1.0;"/><line style="stroke:#333333;stroke-width:1.0;" x1="606.4863" x2="690.6997" y1="657.7397" y2="657.7397"/><line style="stroke:#333333;stroke-width:1.0;" x1="690.6997" x2="690.6997" y1="657.7397" y2="679.7397"/><polygon fill="#333333" points="686.6997,669.7397,690.6997,679.7397,694.6997,669.7397,690.6997,673.7397" style="stroke:#333333;stroke-width:1.0;"/><line style="stroke:#333333;stroke-width:1.0;" x1="453.2485" x2="453.2485" y1="829.2368" y2="898.7358"/><line style="stroke:#333333;stroke-width:1.0;" x1="453.2485" x2="559.9741" y1="898.7358" y2="898.7358"/><polygon fill="#333333" points="549.9741,894.7358,559.9741,898.7358,549.9741,902.7358,553.9741,898.7358" style="stroke:#333333;stroke-width:1.0;"/><line style="stroke:#333333;stroke-width:1.0;" x1="690.6997" x2="690.6997" y1="880.7358" y2="898.7358"/><line style="stroke:#333333;stroke-width:1.0;" x1="690.6997" x2="583.9741" y1="898.7358" y2="898.7358"/><polygon fill="#333333" points="593.9741,894.7358,583.9741,898.7358,593.9741,902.7358,589.9741,898.7358" style="stroke:#333333;stroke-width:1.0;"/><line style="stroke:#333333;stroke-width:1.0;" x1="571.9741" x2="571.9741" y1="625.7397" y2="645.7397"/><polygon fill="#333333" points="567.9741,635.7397,571.9741,645.7397,575.9741,635.7397,571.9741,639.7397" style="stroke:#333333;stroke-width:1.0;"/><line style="stroke:#333333;stroke-width:1.0;" x1="676.8728" x2="676.8728" y1="1109.2329" y2="1129.2329"/><polygon fill="#333333" points="672.8728,1119.2329,676.8728,1129.2329,680.8728,1119.2329,676.8728,1123.2329" style="stroke:#333333;stroke-width:1.0;"/><line style="stroke:#333333;stroke-width:1.0;" x1="676.8728" x2="676.8728" y1="1160.7319" y2="1180.7319"/><polygon fill="#333333" points="672.8728,1170.7319,676.8728,1180.7319,680.8728,1170.7319,676.8728,1174.7319" style="stroke:#333333;stroke-width:1.0;"/><line style="stroke:#333333;stroke-width:1.0;" x1="571.9741" x2="571.9741" y1="1297.73" y2="1317.73"/><polygon fill="#333333" points="567.9741,1307.73,571.9741,1317.73,575.9741,1307.73,571.9741,1311.73" style="stroke:#333333;stroke-width:1.0;"/><line style="stroke:#333333;stroke-width:1.0;" x1="571.9741" x2="571.9741" y1="1349.229" y2="1369.229"/><polygon fill="#333333" points="567.9741,1359.229,571.9741,1369.229,575.9741,1359.229,571.9741,1363.229" style="stroke:#333333;stroke-width:1.0;"/><line style="stroke:#333333;stroke-width:1.0;" x1="881.6104" x2="881.6104" y1="1006.2349" y2="1026.2349"/><polygon fill="#333333" points="877.6104,1016.2349,881.6104,1026.2349,885.6104,1016.2349,881.6104,1020.2349" style="stroke:#333333;stroke-width:1.0;"/><line style="stroke:#333333;stroke-width:1.0;" x1="951.9968" x2="881.6104" y1="942.7358" y2="942.7358"/><line style="stroke:#333333;stroke-width:1.0;" x1="881.6104" x2="881.6104" y1="942.7358" y2="974.7358"/><polygon fill="#333333" points="877.6104,964.7358,881.6104,974.7358,885.6104,964.7358,881.6104,968.7358" style="stroke:#333333;stroke-width:1.0;"/><line style="stroke:#333333;stroke-width:1.0;" x1="1362.9036" x2="1362.9036" y1="1006.2349" y2="1026.2349"/><polygon fill="#333333" points="1358.9036,1016.2349,1362.9036,1026.2349,1366.9036,1016.2349,1362.9036,1020.2349" style="stroke:#333333;stroke-width:1.0;"/><line style="stroke:#333333;stroke-width:1.0;" x1="185.3738" x2="185.3738" y1="355.7437" y2="360.7437"/><line style="stroke:#333333;stroke-width:1.0;" x1="185.3738" x2="571.9741" y1="360.7437" y2="360.7437"/><line style="stroke:#333333;stroke-width:1.0;" x1="571.9741" x2="571.9741" y1="360.7437" y2="375.7437"/><polygon fill="#333333" points="567.9741,365.7437,571.9741,375.7437,575.9741,365.7437,571.9741,369.7437" style="stroke:#333333;stroke-width:1.0;"/><line style="stroke:#333333;stroke-width:1.0;" x1="881.6104" x2="881.6104" y1="1057.7339" y2="1062.7339"/><line style="stroke:#333333;stroke-width:1.0;" x1="881.6104" x2="1184.488" y1="1062.7339" y2="1062.7339"/><line style="stroke:#333333;stroke-width:1.0;" x1="1184.488" x2="1184.488" y1="1062.7339" y2="1077.7339"/><polygon fill="#333333" points="1180.488,1067.7339,1184.488,1077.7339,1188.488,1067.7339,1184.488,1071.7339" style="stroke:#333333;stroke-width:1.0;"/><line style="stroke:#333333;stroke-width:1.0;" x1="1362.9036" x2="1362.9036" y1="1057.7339" y2="1062.7339"/><line style="stroke:#333333;stroke-width:1.0;" x1="1362.9036" x2="676.8728" y1="1062.7339" y2="1062.7339"/><line style="stroke:#333333;stroke-width:1.0;" x1="676.8728" x2="676.8728" y1="1062.7339" y2="1077.7339"/><polygon fill="#333333" points="672.8728,1067.7339,676.8728,1077.7339,680.8728,1067.7339,676.8728,1071.7339" style="stroke:#333333;stroke-width:1.0;"/><line style="stroke:#333333;stroke-width:1.0;" x1="1021.0212" x2="1362.9036" y1="942.7358" y2="942.7358"/><line style="stroke:#333333;stroke-width:1.0;" x1="1362.9036" x2="1362.9036" y1="942.7358" y2="974.7358"/><polygon fill="#333333" points="1358.9036,964.7358,1362.9036,974.7358,1366.9036,964.7358,1362.9036,968.7358" style="stroke:#333333;stroke-width:1.0;"/><line style="stroke:#333333;stroke-width:1.0;" x1="1184.488" x2="1184.488" y1="1109.2329" y2="1216.231"/><line style="stroke:#333333;stroke-width:1.0;" x1="1184.488" x2="956.509" y1="1216.231" y2="1216.231"/><line style="stroke:#333333;stroke-width:1.0;" x1="956.509" x2="956.509" y1="1216.231" y2="1234.231"/><line style="stroke:#333333;stroke-width:1.0;" x1="956.509" x2="974.509" y1="1234.231" y2="1234.231"/><polygon fill="#333333" points="964.509,1230.231,974.509,1234.231,964.509,1238.231,968.509,1234.231" style="stroke:#333333;stroke-width:1.0;"/><line style="stroke:#333333;stroke-width:1.0;" x1="676.8728" x2="676.8728" y1="1212.231" y2="1216.231"/><line style="stroke:#333333;stroke-width:1.0;" x1="676.8728" x2="1016.509" y1="1216.231" y2="1216.231"/><line style="stroke:#333333;stroke-width:1.0;" x1="1016.509" x2="1016.509" y1="1216.231" y2="1234.231"/><line style="stroke:#333333;stroke-width:1.0;" x1="1016.509" x2="998.509" y1="1234.231" y2="1234.231"/><polygon fill="#333333" points="1008.509,1230.231,998.509,1234.231,1008.509,1238.231,1004.509,1234.231" style="stroke:#333333;stroke-width:1.0;"/><line style="stroke:#333333;stroke-width:1.0;" x1="571.9741" x2="571.9741" y1="910.7358" y2="915.7358"/><line style="stroke:#333333;stroke-width:1.0;" x1="571.9741" x2="986.509" y1="915.7358" y2="915.7358"/><line style="stroke:#333333;stroke-width:1.0;" x1="986.509" x2="986.509" y1="915.7358" y2="930.7358"/><polygon fill="#333333" points="982.509,920.7358,986.509,930.7358,990.509,920.7358,986.509,924.7358" style="stroke:#333333;stroke-width:1.0;"/><line style="stroke:#333333;stroke-width:1.0;" x1="986.509" x2="986.509" y1="1246.231" y2="1251.231"/><line style="stroke:#333333;stroke-width:1.0;" x1="986.509" x2="571.9741" y1="1251.231" y2="1251.231"/><line style="stroke:#333333;stroke-width:1.0;" x1="571.9741" x2="571.9741" y1="1251.231" y2="1266.231"/><polygon fill="#333333" points="567.9741,1256.231,571.9741,1266.231,575.9741,1256.231,571.9741,1260.231" style="stroke:#333333;stroke-width:1.0;"/><text fill="#000000" font-family="Arial" font-size="11" lengthAdjust="spacing" textLength="31.1792" x="175.033" y="58.4165">Admin</text><text fill="#000000" font-family="Arial" font-size="11" lengthAdjust="spacing" textLength="39.7354" x="562.9863" y="58.4165">Sistema</text><text fill="#000000" font-family="Arial" font-size="11" lengthAdjust="spacing" textLength="25.6738" x="931.6732" y="58.4165">Tutor</text><text fill="#000000" font-family="Arial" font-size="11" lengthAdjust="spacing" textLength="69.0938" x="1233.426" y="58.4165">Recepcionista</text><!--SRC=[ZPF1Rjim38RlVWhkbg30UdSm34QQ5i4Gp4tQhi0m58pD94HaqPFaB1toDdkKlTWenscRRijs4qIH_FZhvnksXMbAWeT2gahisxgfJ9843eRWqZHR0GtckCIAR90asMLbnNQN-80k9EbGx8ANZKC7LnZe6puE4bv0BtUoeLBS-pw45LdeVSx7zr_w2K1wGGksx62umesM7j_36TnQBh6aGKB6apwUa2kmbDXOZhEoeY3luKRMMlKCycPkk80Ff7t9bhn8qXaPAbYi8WtHeb4OSG5DVv2aMU0Dke6ECMCVgC9TadRS46C2lVhmE4blcY0Epc5A1TMnfEPeHfolI_h3U5daGxZ4eAe0LP3DoGKPnDZGyDU6ukKLHSckfp2KasF_NxNuFmu-MiEM3Zgy6F4qSCxR6RaD5vIcIx8A5kXw6hbw_RRFdZN7HoDOmcXofxe_aMjyjEKvFmq35k6639uOghk95z4dN99Bqs95nLgQi6yQaMTeoxbidv4zLsq1BN7h5Sdl7poeCS93BMn3JEtQsfy_vEZrgrUjI1gRKidkO1WKjUMU0oRvivIj4_ubvCWNQEdbjyPFYWlYgbR0Red02cHr7SExLzPgUPPwTaS94xGDcdW-vPNS4LcLqS651howtmKLuNo6ffI_mRGKJqvf-nUa7bFJwyXAsbEFkKSbOhli7whunkZ-GvQFLIROC4Bj95hr4yrN8klEENTeTAyTp8Bwrsj9tSOzyg7vRrxL5TLH-RjcTQRl-NtsEwYHoxZ55-nhZ0gDxKRKjxdUwxxw8FKl]--></g></svg>