<svg xmlns="http://www.w3.org/2000/svg" xmlns:xlink="http://www.w3.org/1999/xlink" contentStyleType="text/css" data-diagram-type="ACTIVITY" height="827px" preserveAspectRatio="none" style="width:1613px;height:827px;background:#FEFEFE;" version="1.1" viewBox="0 0 1613 827" width="1613px" zoomAndPan="magnify"><title>Macro-Fluxo do Sistema</title><defs/><g><rect fill="#FEFEFE" height="827" style="stroke:none;stroke-width:1;" width="1613" x="0" y="0"/><text fill="#000000" font-family="Arial" font-size="14" font-weight="bold" lengthAdjust="spacing" textLength="161.8066" x="724.1085" y="33.1318">Macro-Fluxo do Sistema</text><rect fill="none" height="12.6489" style="stroke:none;stroke-width:1;" width="1580.0237" x="15" y="48.0986"/><ellipse cx="200.5044" cy="75.7476" fill="#222222" rx="10" ry="10" style="stroke:#222222;stroke-width:1;"/><line style="stroke:#333333;stroke-width:1.5;" x1="74.9038" x2="321.9302" y1="105.7476" y2="105.7476"/><rect fill="#FFFFFF" height="31.499" rx="12.5" ry="12.5" style="stroke:#333333;stroke-width:0.5;" width="107.8076" x="21" y="125.7476"/><text fill="#000000" font-family="Arial" font-size="10" lengthAdjust="spacing" textLength="87.8076" x="31" y="145.1274">Solicitar / Cadastrar</text><rect fill="#FFFFFF" height="31.499" rx="12.5" ry="12.5" style="stroke:#333333;stroke-width:0.5;" width="115.0439" x="138.8076" y="125.7476"/><text fill="#000000" font-family="Arial" font-size="10" lengthAdjust="spacing" textLength="95.0439" x="148.8076" y="145.1274">Receber Notifica&#231;&#245;es</text><rect fill="#FFFFFF" height="31.499" rx="12.5" ry="12.5" style="stroke:#333333;stroke-width:0.5;" width="116.1572" x="263.8516" y="125.7476"/><text fill="#000000" font-family="Arial" font-size="10" lengthAdjust="spacing" textLength="96.1572" x="273.8516" y="145.1274">Visualizar Resultados</text><line style="stroke:#333333;stroke-width:1.5;" x1="74.9038" x2="321.9302" y1="177.2466" y2="177.2466"/><line style="stroke:#333333;stroke-width:1.5;" x1="15" x2="15" y1="48.0986" y2="815.2388"/><line style="stroke:#333333;stroke-width:1.5;" x1="440.0356" x2="568.0894" y1="197.2466" y2="197.2466"/><rect fill="#FFFFFF" height="31.499" rx="12.5" ry="12.5" style="stroke:#333333;stroke-width:0.5;" width="100.0537" x="390.0088" y="217.2466"/><text fill="#000000" font-family="Arial" font-size="10" lengthAdjust="spacing" textLength="80.0537" x="400.0088" y="236.6265">Agendar Consulta</text><rect fill="#FFFFFF" height="31.499" rx="12.5" ry="12.5" style="stroke:#333333;stroke-width:0.5;" width="113.3691" x="511.4048" y="217.2466"/><text fill="#000000" font-family="Arial" font-size="10" lengthAdjust="spacing" textLength="93.3691" x="521.4048" y="236.6265">Cadastrar Tutor / Pet</text><line style="stroke:#333333;stroke-width:1.5;" x1="440.0356" x2="568.0894" y1="268.7456" y2="268.7456"/><line style="stroke:#333333;stroke-width:1.5;" x1="384.0088" x2="384.0088" y1="48.0986" y2="815.2388"/><rect fill="#FFFFFF" height="31.499" rx="12.5" ry="12.5" style="stroke:#333333;stroke-width:0.5;" width="131.7041" x="743.7959" y="288.7456"/><text fill="#000000" font-family="Arial" font-size="10" lengthAdjust="spacing" textLength="111.7041" x="753.7959" y="308.1255">Fazer Prontu&#225;rio (SOAP)</text><line style="stroke:#333333;stroke-width:1.5;" x1="668.3921" x2="937.2881" y1="340.2446" y2="340.2446"/><rect fill="#FFFFFF" height="31.499" rx="12.5" ry="12.5" style="stroke:#333333;stroke-width:0.5;" width="67.2363" x="634.7739" y="360.2446"/><text fill="#000000" font-family="Arial" font-size="10" lengthAdjust="spacing" textLength="47.2363" x="644.7739" y="379.6245">Prescri&#231;&#227;o</text><rect fill="#FFFFFF" height="31.499" rx="12.5" ry="12.5" style="stroke:#333333;stroke-width:0.5;" width="50.5762" x="712.0103" y="360.2446"/><text fill="#000000" font-family="Arial" font-size="10" lengthAdjust="spacing" textLength="30.5762" x="722.0103" y="379.6245">Vacina</text><rect fill="#FFFFFF" height="31.499" rx="12.5" ry="12.5" style="stroke:#333333;stroke-width:0.5;" width="89.4678" x="790.5864" y="360.2446"/><text fill="#000000" font-family="Arial" font-size="10" lengthAdjust="spacing" textLength="69.4678" x="800.5864" y="379.6245">Solicitar Exame</text><rect fill="#FFFFFF" height="31.499" rx="12.5" ry="12.5" style="stroke:#333333;stroke-width:0.5;" width="94.4678" x="890.0542" y="360.2446"/><text fill="#000000" font-family="Arial" font-size="10" lengthAdjust="spacing" textLength="74.4678" x="900.0542" y="379.6245">Realizar Cirurgia</text><line style="stroke:#333333;stroke-width:1.5;" x1="668.3921" x2="937.2881" y1="411.7437" y2="411.7437"/><line style="stroke:#333333;stroke-width:1.5;" x1="628.7739" x2="628.7739" y1="48.0986" y2="815.2388"/><rect fill="#FFFFFF" height="31.499" rx="12.5" ry="12.5" style="stroke:#333333;stroke-width:0.5;" width="93.3545" x="1051.8303" y="431.7437"/><text fill="#000000" font-family="Arial" font-size="10" lengthAdjust="spacing" textLength="73.3545" x="1061.8303" y="451.1235">Faturar Servi&#231;os</text><polygon fill="#FFFFFF" points="1082.946,483.2427,1114.0691,483.2427,1126.0691,495.2427,1114.0691,507.2427,1082.946,507.2427,1070.946,495.2427,1082.946,483.2427" style="stroke:#333333;stroke-width:0.5;"/><text fill="#000000" font-family="Arial" font-size="10" lengthAdjust="spacing" textLength="31.123" x="1082.946" y="498.873">NFSe?</text><text fill="#000000" font-family="Arial" font-size="9" lengthAdjust="spacing" textLength="18.9976" x="1051.9485" y="493.3354">[sim]</text><text fill="#000000" font-family="Arial" font-size="9" lengthAdjust="spacing" textLength="20.0171" x="1126.0691" y="493.3354">[n&#227;o]</text><rect fill="#FFFFFF" height="31.499" rx="12.5" ry="12.5" style="stroke:#333333;stroke-width:0.5;" width="101.416" x="994.522" y="517.2427"/><text fill="#000000" font-family="Arial" font-size="10" lengthAdjust="spacing" textLength="81.416" x="1004.522" y="536.6226">NFSe + Comiss&#227;o</text><rect fill="#FFFFFF" height="31.499" rx="12.5" ry="12.5" style="stroke:#333333;stroke-width:0.5;" width="71.6943" x="1115.938" y="517.2427"/><text fill="#000000" font-family="Arial" font-size="10" lengthAdjust="spacing" textLength="51.6943" x="1125.938" y="536.6226">Concilia&#231;&#227;o</text><polygon fill="#FFFFFF" points="1098.5076,554.7417,1110.5076,566.7417,1098.5076,578.7417,1086.5076,566.7417,1098.5076,554.7417" style="stroke:#333333;stroke-width:0.5;"/><line style="stroke:#333333;stroke-width:1.5;" x1="988.522" x2="988.522" y1="48.0986" y2="815.2388"/><rect fill="#FFFFFF" height="31.499" rx="12.5" ry="12.5" style="stroke:#333333;stroke-width:0.5;" width="103.3838" x="1203.3306" y="598.7417"/><text fill="#000000" font-family="Arial" font-size="10" lengthAdjust="spacing" textLength="83.3838" x="1213.3306" y="618.1216">Pedido de Compra</text><rect fill="#FFFFFF" height="31.499" rx="12.5" ry="12.5" style="stroke:#333333;stroke-width:0.5;" width="114.7803" x="1197.6323" y="650.2407"/><text fill="#000000" font-family="Arial" font-size="10" lengthAdjust="spacing" textLength="94.7803" x="1207.6323" y="669.6206">Recebimento + Lotes</text><line style="stroke:#333333;stroke-width:1.5;" x1="1191.6323" x2="1191.6323" y1="48.0986" y2="815.2388"/><line style="stroke:#333333;stroke-width:1.5;" x1="1379.9297" x2="1527.9712" y1="701.7397" y2="701.7397"/><rect fill="#FFFFFF" height="31.499" rx="12.5" ry="12.5" style="stroke:#333333;stroke-width:0.5;" width="115.0342" x="1322.4126" y="721.7397"/><text fill="#000000" font-family="Arial" font-size="10" lengthAdjust="spacing" textLength="95.0342" x="1332.4126" y="741.1196">Disparar Notifica&#231;&#245;es</text><rect fill="#FFFFFF" height="31.499" rx="12.5" ry="12.5" style="stroke:#333333;stroke-width:0.5;" width="125.0488" x="1465.4468" y="721.7397"/><text fill="#000000" font-family="Arial" font-size="10" lengthAdjust="spacing" textLength="105.0488" x="1475.4468" y="741.1196">Lembretes Autom&#225;ticos</text><line style="stroke:#333333;stroke-width:1.5;" x1="1379.9297" x2="1527.9712" y1="773.2388" y2="773.2388"/><ellipse cx="1456.4541" cy="804.2388" fill="none" rx="11" ry="11" style="stroke:#222222;stroke-width:1;"/><ellipse cx="1456.4541" cy="804.2388" fill="#222222" rx="6" ry="6" style="stroke:#222222;stroke-width:1;"/><line style="stroke:#333333;stroke-width:1.5;" x1="1316.4126" x2="1316.4126" y1="48.0986" y2="815.2388"/><line style="stroke:#333333;stroke-width:1.5;" x1="1594.4956" x2="1594.4956" y1="48.0986" y2="815.2388"/><line style="stroke:#333333;stroke-width:1;" x1="74.9038" x2="74.9038" y1="107.2476" y2="125.7476"/><polygon fill="#333333" points="70.9038,115.7476,74.9038,125.7476,78.9038,115.7476,74.9038,119.7476" style="stroke:#333333;stroke-width:1;"/><line style="stroke:#333333;stroke-width:1;" x1="196.3296" x2="196.3296" y1="107.2476" y2="125.7476"/><polygon fill="#333333" points="192.3296,115.7476,196.3296,125.7476,200.3296,115.7476,196.3296,119.7476" style="stroke:#333333;stroke-width:1;"/><line style="stroke:#333333;stroke-width:1;" x1="321.9302" x2="321.9302" y1="107.2476" y2="125.7476"/><polygon fill="#333333" points="317.9302,115.7476,321.9302,125.7476,325.9302,115.7476,321.9302,119.7476" style="stroke:#333333;stroke-width:1;"/><line style="stroke:#333333;stroke-width:1;" x1="74.9038" x2="74.9038" y1="157.2466" y2="177.2466"/><polygon fill="#333333" points="70.9038,167.2466,74.9038,177.2466,78.9038,167.2466,74.9038,171.2466" style="stroke:#333333;stroke-width:1;"/><line style="stroke:#333333;stroke-width:1;" x1="196.3296" x2="196.3296" y1="157.2466" y2="177.2466"/><polygon fill="#333333" points="192.3296,167.2466,196.3296,177.2466,200.3296,167.2466,196.3296,171.2466" style="stroke:#333333;stroke-width:1;"/><line style="stroke:#333333;stroke-width:1;" x1="321.9302" x2="321.9302" y1="157.2466" y2="177.2466"/><polygon fill="#333333" points="317.9302,167.2466,321.9302,177.2466,325.9302,167.2466,321.9302,171.2466" style="stroke:#333333;stroke-width:1;"/><line style="stroke:#333333;stroke-width:1;" x1="200.5044" x2="200.5044" y1="85.7476" y2="105.7476"/><polygon fill="#333333" points="196.5044,95.7476,200.5044,105.7476,204.5044,95.7476,200.5044,99.7476" style="stroke:#333333;stroke-width:1;"/><line style="stroke:#333333;stroke-width:1;" x1="440.0356" x2="440.0356" y1="198.7466" y2="217.2466"/><polygon fill="#333333" points="436.0356,207.2466,440.0356,217.2466,444.0356,207.2466,440.0356,211.2466" style="stroke:#333333;stroke-width:1;"/><line style="stroke:#333333;stroke-width:1;" x1="568.0894" x2="568.0894" y1="198.7466" y2="217.2466"/><polygon fill="#333333" points="564.0894,207.2466,568.0894,217.2466,572.0894,207.2466,568.0894,211.2466" style="stroke:#333333;stroke-width:1;"/><line style="stroke:#333333;stroke-width:1;" x1="440.0356" x2="440.0356" y1="248.7456" y2="268.7456"/><polygon fill="#333333" points="436.0356,258.7456,440.0356,268.7456,444.0356,258.7456,440.0356,262.7456" style="stroke:#333333;stroke-width:1;"/><line style="stroke:#333333;stroke-width:1;" x1="568.0894" x2="568.0894" y1="248.7456" y2="268.7456"/><polygon fill="#333333" points="564.0894,258.7456,568.0894,268.7456,572.0894,258.7456,568.0894,262.7456" style="stroke:#333333;stroke-width:1;"/><line style="stroke:#333333;stroke-width:1;" x1="668.3921" x2="668.3921" y1="341.7446" y2="360.2446"/><polygon fill="#333333" points="664.3921,350.2446,668.3921,360.2446,672.3921,350.2446,668.3921,354.2446" style="stroke:#333333;stroke-width:1;"/><line style="stroke:#333333;stroke-width:1;" x1="737.2983" x2="737.2983" y1="341.7446" y2="360.2446"/><polygon fill="#333333" points="733.2983,350.2446,737.2983,360.2446,741.2983,350.2446,737.2983,354.2446" style="stroke:#333333;stroke-width:1;"/><line style="stroke:#333333;stroke-width:1;" x1="835.3203" x2="835.3203" y1="341.7446" y2="360.2446"/><polygon fill="#333333" points="831.3203,350.2446,835.3203,360.2446,839.3203,350.2446,835.3203,354.2446" style="stroke:#333333;stroke-width:1;"/><line style="stroke:#333333;stroke-width:1;" x1="937.2881" x2="937.2881" y1="341.7446" y2="360.2446"/><polygon fill="#333333" points="933.2881,350.2446,937.2881,360.2446,941.2881,350.2446,937.2881,354.2446" style="stroke:#333333;stroke-width:1;"/><line style="stroke:#333333;stroke-width:1;" x1="668.3921" x2="668.3921" y1="391.7437" y2="411.7437"/><polygon fill="#333333" points="664.3921,401.7437,668.3921,411.7437,672.3921,401.7437,668.3921,405.7437" style="stroke:#333333;stroke-width:1;"/><line style="stroke:#333333;stroke-width:1;" x1="737.2983" x2="737.2983" y1="391.7437" y2="411.7437"/><polygon fill="#333333" points="733.2983,401.7437,737.2983,411.7437,741.2983,401.7437,737.2983,405.7437" style="stroke:#333333;stroke-width:1;"/><line style="stroke:#333333;stroke-width:1;" x1="835.3203" x2="835.3203" y1="391.7437" y2="411.7437"/><polygon fill="#333333" points="831.3203,401.7437,835.3203,411.7437,839.3203,401.7437,835.3203,405.7437" style="stroke:#333333;stroke-width:1;"/><line style="stroke:#333333;stroke-width:1;" x1="937.2881" x2="937.2881" y1="391.7437" y2="411.7437"/><polygon fill="#333333" points="933.2881,401.7437,937.2881,411.7437,941.2881,401.7437,937.2881,405.7437" style="stroke:#333333;stroke-width:1;"/><line style="stroke:#333333;stroke-width:1;" x1="809.6479" x2="809.6479" y1="320.2446" y2="340.2446"/><polygon fill="#333333" points="805.6479,330.2446,809.6479,340.2446,813.6479,330.2446,809.6479,334.2446" style="stroke:#333333;stroke-width:1;"/><line style="stroke:#333333;stroke-width:1;" x1="1070.946" x2="1045.23" y1="495.2427" y2="495.2427"/><line style="stroke:#333333;stroke-width:1;" x1="1045.23" x2="1045.23" y1="495.2427" y2="517.2427"/><polygon fill="#333333" points="1041.23,507.2427,1045.23,517.2427,1049.23,507.2427,1045.23,511.2427" style="stroke:#333333;stroke-width:1;"/><line style="stroke:#333333;stroke-width:1;" x1="1126.0691" x2="1151.7852" y1="495.2427" y2="495.2427"/><line style="stroke:#333333;stroke-width:1;" x1="1151.7852" x2="1151.7852" y1="495.2427" y2="517.2427"/><polygon fill="#333333" points="1147.7852,507.2427,1151.7852,517.2427,1155.7852,507.2427,1151.7852,511.2427" style="stroke:#333333;stroke-width:1;"/><line style="stroke:#333333;stroke-width:1;" x1="1045.23" x2="1045.23" y1="548.7417" y2="566.7417"/><line style="stroke:#333333;stroke-width:1;" x1="1045.23" x2="1086.5076" y1="566.7417" y2="566.7417"/><polygon fill="#333333" points="1076.5076,562.7417,1086.5076,566.7417,1076.5076,570.7417,1080.5076,566.7417" style="stroke:#333333;stroke-width:1;"/><line style="stroke:#333333;stroke-width:1;" x1="1151.7852" x2="1151.7852" y1="548.7417" y2="566.7417"/><line style="stroke:#333333;stroke-width:1;" x1="1151.7852" x2="1110.5076" y1="566.7417" y2="566.7417"/><polygon fill="#333333" points="1120.5076,562.7417,1110.5076,566.7417,1120.5076,570.7417,1116.5076,566.7417" style="stroke:#333333;stroke-width:1;"/><line style="stroke:#333333;stroke-width:1;" x1="1098.5076" x2="1098.5076" y1="463.2427" y2="483.2427"/><polygon fill="#333333" points="1094.5076,473.2427,1098.5076,483.2427,1102.5076,473.2427,1098.5076,477.2427" style="stroke:#333333;stroke-width:1;"/><line style="stroke:#333333;stroke-width:1;" x1="1255.0225" x2="1255.0225" y1="630.2407" y2="650.2407"/><polygon fill="#333333" points="1251.0225,640.2407,1255.0225,650.2407,1259.0225,640.2407,1255.0225,644.2407" style="stroke:#333333;stroke-width:1;"/><line style="stroke:#333333;stroke-width:1;" x1="1379.9297" x2="1379.9297" y1="703.2397" y2="721.7397"/><polygon fill="#333333" points="1375.9297,711.7397,1379.9297,721.7397,1383.9297,711.7397,1379.9297,715.7397" style="stroke:#333333;stroke-width:1;"/><line style="stroke:#333333;stroke-width:1;" x1="1527.9712" x2="1527.9712" y1="703.2397" y2="721.7397"/><polygon fill="#333333" points="1523.9712,711.7397,1527.9712,721.7397,1531.9712,711.7397,1527.9712,715.7397" style="stroke:#333333;stroke-width:1;"/><line style="stroke:#333333;stroke-width:1;" x1="1379.9297" x2="1379.9297" y1="753.2388" y2="773.2388"/><polygon fill="#333333" points="1375.9297,763.2388,1379.9297,773.2388,1383.9297,763.2388,1379.9297,767.2388" style="stroke:#333333;stroke-width:1;"/><line style="stroke:#333333;stroke-width:1;" x1="1527.9712" x2="1527.9712" y1="753.2388" y2="773.2388"/><polygon fill="#333333" points="1523.9712,763.2388,1527.9712,773.2388,1531.9712,763.2388,1527.9712,767.2388" style="stroke:#333333;stroke-width:1;"/><line style="stroke:#333333;stroke-width:1;" x1="1456.4541" x2="1456.4541" y1="774.7388" y2="793.2388"/><polygon fill="#333333" points="1452.4541,783.2388,1456.4541,793.2388,1460.4541,783.2388,1456.4541,787.2388" style="stroke:#333333;stroke-width:1;"/><line style="stroke:#333333;stroke-width:1;" x1="200.5044" x2="200.5044" y1="178.7466" y2="182.2466"/><line style="stroke:#333333;stroke-width:1;" x1="200.5044" x2="504.0625" y1="182.2466" y2="182.2466"/><line style="stroke:#333333;stroke-width:1;" x1="504.0625" x2="504.0625" y1="182.2466" y2="197.2466"/><polygon fill="#333333" points="500.0625,187.2466,504.0625,197.2466,508.0625,187.2466,504.0625,191.2466" style="stroke:#333333;stroke-width:1;"/><line style="stroke:#333333;stroke-width:1;" x1="504.0625" x2="504.0625" y1="270.2456" y2="273.7456"/><line style="stroke:#333333;stroke-width:1;" x1="504.0625" x2="809.6479" y1="273.7456" y2="273.7456"/><line style="stroke:#333333;stroke-width:1;" x1="809.6479" x2="809.6479" y1="273.7456" y2="288.7456"/><polygon fill="#333333" points="805.6479,278.7456,809.6479,288.7456,813.6479,278.7456,809.6479,282.7456" style="stroke:#333333;stroke-width:1;"/><line style="stroke:#333333;stroke-width:1;" x1="809.6479" x2="809.6479" y1="413.2437" y2="416.7437"/><line style="stroke:#333333;stroke-width:1;" x1="809.6479" x2="1098.5076" y1="416.7437" y2="416.7437"/><line style="stroke:#333333;stroke-width:1;" x1="1098.5076" x2="1098.5076" y1="416.7437" y2="431.7437"/><polygon fill="#333333" points="1094.5076,421.7437,1098.5076,431.7437,1102.5076,421.7437,1098.5076,425.7437" style="stroke:#333333;stroke-width:1;"/><line style="stroke:#333333;stroke-width:1;" x1="1098.5076" x2="1098.5076" y1="578.7417" y2="583.7417"/><line style="stroke:#333333;stroke-width:1;" x1="1098.5076" x2="1255.0225" y1="583.7417" y2="583.7417"/><line style="stroke:#333333;stroke-width:1;" x1="1255.0225" x2="1255.0225" y1="583.7417" y2="598.7417"/><polygon fill="#333333" points="1251.0225,588.7417,1255.0225,598.7417,1259.0225,588.7417,1255.0225,592.7417" style="stroke:#333333;stroke-width:1;"/><line style="stroke:#333333;stroke-width:1;" x1="1255.0225" x2="1255.0225" y1="681.7397" y2="686.7397"/><line style="stroke:#333333;stroke-width:1;" x1="1255.0225" x2="1456.4541" y1="686.7397" y2="686.7397"/><line style="stroke:#333333;stroke-width:1;" x1="1456.4541" x2="1456.4541" y1="686.7397" y2="701.7397"/><polygon fill="#333333" points="1452.4541,691.7397,1456.4541,701.7397,1460.4541,691.7397,1456.4541,695.7397" style="stroke:#333333;stroke-width:1;"/><text fill="#000000" font-family="Arial" font-size="11" lengthAdjust="spacing" textLength="25.6738" x="186.6675" y="58.4165">Tutor</text><text fill="#000000" font-family="Arial" font-size="11" lengthAdjust="spacing" textLength="69.0938" x="471.8445" y="58.4165">Recepcionista</text><text fill="#000000" font-family="Arial" font-size="11" lengthAdjust="spacing" textLength="53.1953" x="782.0503" y="58.4165">Veterin&#225;rio</text><text fill="#000000" font-family="Arial" font-size="11" lengthAdjust="spacing" textLength="51.3584" x="1064.3979" y="58.4165">Financeiro</text><text fill="#000000" font-family="Arial" font-size="11" lengthAdjust="spacing" textLength="40.3638" x="1233.8406" y="58.4165">Estoque</text><text fill="#000000" font-family="Arial" font-size="11" lengthAdjust="spacing" textLength="39.7354" x="1435.5864" y="58.4165">Sistema</text><!--SRC=[XP9DRjj038NtSmfsPwDekayMXU76gpGLeY2ReYYO4UqGc1-Lmmc2G9S9kkW9UW9Vh9Hbr3KS84jHRnu_Fl8T9nzgH_33vnXpEkjh3CufQo3uWbxoXrMeJncw32qNfOZE3RTLimokA8gwqWTM1t3Uvi2UhGOVOOaT5XMKY-a_u0OvZQeRydHF0jTPUSqUjx-tVwYSoEwuL0pyR6utL6fGxBAfA7LJFpUCHhtdd0mBXmF6OcCYUxRCQVVknFeV6-pcCDg6zCZwZfI4q_P5E0_kV8NF1jn8JbftDPYrNnVD_EBGj14gNjY6-PLFPq7FwPJZaDVb4qPw9Qbz04kMAXl68yQLMIPFB1EXrd6WbkJH8CQaU0spwrLBd-QW3vHWzgrm_3uVZSSolBU08fUo0wPGo1J9FYQ9XUSvCEu7ihwyjgQNHVFFIjQneOxj9knopAONOvisov6IPdE_oZgkrGtxi_blGv-vz3ZYld43LnJlnLPHO66BYjiNPNzy18RJ_mK0]--></g></svg>