<?xml version="1.0" encoding="UTF-8"?>
<svg xmlns="http://www.w3.org/2000/svg" width="1306" height="810" viewBox="-76 -30 1306 810">
<defs><marker id="arrowhead" markerWidth="8" markerHeight="6" refX="8" refY="3" orient="auto"><polygon points="0 0, 8 3, 0 6" fill="#000"/></marker></defs>
<switch><g transform="translate(0.5,0.5)">
























<rect x="10" y="5" width="1180" height="28" rx="4" ry="4" fill="#fff" stroke="#000" stroke-width="1.5"/><text x="600.0" y="19.0" text-anchor="middle" dominant-baseline="central" fill="#000" font-size="10" font-family="Arial">Macro-Fluxo do Sistema</text>
<rect x="30" y="70" width="1170" height="80" fill="#fff" stroke="#000" stroke-width="1.5"/><rect x="30" y="70" width="18" height="80" fill="#fff" stroke="#000" stroke-width="1"/><text x="39" y="110.0" text-anchor="middle" dominant-baseline="central" fill="#000" font-size="9" font-family="Arial" transform="rotate(-90,39,110.0)">Tutor</text>
<rect x="0" y="40" width="1200" height="120" rx="6" ry="6" fill="none" stroke="#000" stroke-width="2"/><rect x="0" y="40" width="28" height="120" fill="#e1d5e7" stroke="#000" stroke-width="2"/><text x="14" y="100.0" text-anchor="middle" dominant-baseline="central" fill="#000" font-size="11" font-family="Arial" transform="rotate(-90,14,100.0)">Tutor (Portal)</text>
<rect x="30" y="205" width="1170" height="80" fill="#fff" stroke="#000" stroke-width="1.5"/><rect x="30" y="205" width="18" height="80" fill="#fff" stroke="#000" stroke-width="1"/><text x="39" y="245.0" text-anchor="middle" dominant-baseline="central" fill="#000" font-size="9" font-family="Arial" transform="rotate(-90,39,245.0)">Recepcionista</text>
<rect x="30" y="285" width="1170" height="80" fill="#fff" stroke="#000" stroke-width="1.5"/><rect x="30" y="285" width="18" height="80" fill="#fff" stroke="#000" stroke-width="1"/><text x="65" y="325.0" text-anchor="middle" dominant-baseline="central" fill="#000" font-size="9" font-family="Arial" transform="rotate(-90,39,325.0)">Veterinário</text>
<rect x="30" y="365" width="1170" height="80" fill="#fff" stroke="#000" stroke-width="1.5"/><rect x="30" y="365" width="18" height="80" fill="#fff" stroke="#000" stroke-width="1"/><text x="39" y="405.0" text-anchor="middle" dominant-baseline="central" fill="#000" font-size="9" font-family="Arial" transform="rotate(-90,39,405.0)">Financeiro</text>
<rect x="30" y="445" width="1170" height="80" fill="#fff" stroke="#000" stroke-width="1.5"/><rect x="30" y="445" width="18" height="80" fill="#fff" stroke="#000" stroke-width="1"/><text x="39" y="485.0" text-anchor="middle" dominant-baseline="central" fill="#000" font-size="9" font-family="Arial" transform="rotate(-90,39,485.0)">Estoque</text>
<rect x="0" y="175" width="1200" height="360" rx="6" ry="6" fill="none" stroke="#000" stroke-width="2"/><rect x="0" y="175" width="28" height="360" fill="#e1d5e7" stroke="#000" stroke-width="2"/><text x="14" y="355.0" text-anchor="middle" dominant-baseline="central" fill="#000" font-size="11" font-family="Arial" transform="rotate(-90,14,355.0)">Clínica</text>
<rect x="30" y="580" width="1170" height="80" fill="#fff" stroke="#000" stroke-width="1.5"/><rect x="30" y="580" width="18" height="80" fill="#fff" stroke="#000" stroke-width="1"/><text x="39" y="620.0" text-anchor="middle" dominant-baseline="central" fill="#000" font-size="9" font-family="Arial" transform="rotate(-90,39,620.0)">Sistema</text>
<rect x="0" y="550" width="1200" height="120" rx="6" ry="6" fill="none" stroke="#000" stroke-width="2"/><rect x="0" y="550" width="28" height="120" fill="#e1d5e7" stroke="#000" stroke-width="2"/><text x="14" y="610.0" text-anchor="middle" dominant-baseline="central" fill="#000" font-size="11" font-family="Arial" transform="rotate(-90,14,610.0)">Sistema</text>
<rect x="60" y="87.0" width="140" height="46" rx="4" ry="4" fill="#fff" stroke="#000" stroke-width="1.5"/><text x="130.0" y="110.0" text-anchor="middle" dominant-baseline="central" fill="#000" font-size="10" font-family="Arial">Solicita/Cadastra</text>
<rect x="300" y="87.0" width="140" height="46" rx="4" ry="4" fill="#fff" stroke="#000" stroke-width="1.5"/><text x="370.0" y="110.0" text-anchor="middle" dominant-baseline="central" fill="#000" font-size="10" font-family="Arial">Recebe Notificações</text>
<rect x="520" y="87.0" width="140" height="46" rx="4" ry="4" fill="#fff" stroke="#000" stroke-width="1.5"/><text x="590.0" y="110.0" text-anchor="middle" dominant-baseline="central" fill="#000" font-size="10" font-family="Arial">Visualiza Resultados</text>
<rect x="60" y="222.0" width="140" height="46" rx="4" ry="4" fill="#fff" stroke="#000" stroke-width="1.5"/><text x="130.0" y="245.0" text-anchor="middle" dominant-baseline="central" fill="#000" font-size="10" font-family="Arial">Agendar Consulta</text>
<rect x="300" y="222.0" width="140" height="46" rx="4" ry="4" fill="#fff" stroke="#000" stroke-width="1.5"/><text x="370.0" y="245.0" text-anchor="middle" dominant-baseline="central" fill="#000" font-size="10" font-family="Arial">Cadastrar Tutor/Pet</text>
<rect x="60" y="302.0" width="140" height="46" rx="4" ry="4" fill="#fff" stroke="#000" stroke-width="1.5"/><text x="130.0" y="325.0" text-anchor="middle" dominant-baseline="central" fill="#000" font-size="10" font-family="Arial">Fazer Prontuário (SOAP)</text>
<polygon points="327.0,298.0 354,325.0 327.0,352.0 300,325.0" fill="#dae8fc" stroke="#6c8ebf" stroke-width="2"/><text x="327.0" y="325.0" text-anchor="middle" dominant-baseline="central" fill="#000" font-size="18" font-family="Arial">+</text>
<rect x="440" y="302.0" width="140" height="46" rx="4" ry="4" fill="#fff" stroke="#000" stroke-width="1.5"/><text x="510.0" y="325.0" text-anchor="middle" dominant-baseline="central" fill="#000" font-size="10" font-family="Arial">Prescrição</text>
<rect x="440" y="302.0" width="140" height="46" rx="4" ry="4" fill="#fff" stroke="#000" stroke-width="1.5"/><text x="510.0" y="325.0" text-anchor="middle" dominant-baseline="central" fill="#000" font-size="10" font-family="Arial">Vacina</text>
<rect x="440" y="302.0" width="140" height="46" rx="4" ry="4" fill="#fff" stroke="#000" stroke-width="1.5"/><text x="510.0" y="325.0" text-anchor="middle" dominant-baseline="central" fill="#000" font-size="10" font-family="Arial">Exame</text>
<rect x="440" y="302.0" width="140" height="46" rx="4" ry="4" fill="#fff" stroke="#000" stroke-width="1.5"/><text x="510.0" y="325.0" text-anchor="middle" dominant-baseline="central" fill="#000" font-size="10" font-family="Arial">Cirurgia</text>
<rect x="60" y="382.0" width="140" height="46" rx="4" ry="4" fill="#fff" stroke="#000" stroke-width="1.5"/><text x="130.0" y="405.0" text-anchor="middle" dominant-baseline="central" fill="#000" font-size="10" font-family="Arial">Faturar Serviços</text>
<polygon points="327.0,378.0 354,405.0 327.0,432.0 300,405.0" fill="#ffe6cc" stroke="#d79b00" stroke-width="2"/><text x="327.0" y="405.0" text-anchor="middle" dominant-baseline="central" fill="#000" font-size="18" font-family="Arial">✕</text>
<rect x="440" y="382.0" width="140" height="46" rx="4" ry="4" fill="#fff" stroke="#000" stroke-width="1.5"/><text x="510.0" y="405.0" text-anchor="middle" dominant-baseline="central" fill="#000" font-size="10" font-family="Arial">NFSe + Comissão</text>
<rect x="660" y="382.0" width="140" height="46" rx="4" ry="4" fill="#fff" stroke="#000" stroke-width="1.5"/><text x="730.0" y="405.0" text-anchor="middle" dominant-baseline="central" fill="#000" font-size="10" font-family="Arial">Conciliação</text>
<rect x="60" y="462.0" width="140" height="46" rx="4" ry="4" fill="#fff" stroke="#000" stroke-width="1.5"/><text x="130.0" y="485.0" text-anchor="middle" dominant-baseline="central" fill="#000" font-size="10" font-family="Arial">Pedido de Compra</text>
<rect x="300" y="462.0" width="140" height="46" rx="4" ry="4" fill="#fff" stroke="#000" stroke-width="1.5"/><text x="370.0" y="485.0" text-anchor="middle" dominant-baseline="central" fill="#000" font-size="10" font-family="Arial">Recebimento + Lotes</text>
<rect x="60" y="597.0" width="140" height="46" rx="4" ry="4" fill="#fff" stroke="#000" stroke-width="1.5"/><text x="130.0" y="620.0" text-anchor="middle" dominant-baseline="central" fill="#000" font-size="10" font-family="Arial">Disparar Notificações</text>
<rect x="300" y="597.0" width="140" height="46" rx="4" ry="4" fill="#fff" stroke="#000" stroke-width="1.5"/><text x="370.0" y="620.0" text-anchor="middle" dominant-baseline="central" fill="#000" font-size="10" font-family="Arial">Lembretes Automáticos</text>
<ellipse cx="65" cy="325.0" rx="11.0" ry="11.0" fill="#d5e8d4" stroke="#82b366" stroke-width="2"/><text x="65" y="348.0" text-anchor="middle" fill="#000" font-size="9" font-family="Arial">Início</text>
<ellipse cx="861.0" cy="405.0" rx="11.0" ry="11.0" fill="#f8cecc" stroke="#b85450" stroke-width="2"/><ellipse cx="861.0" cy="405.0" rx="7.0" ry="7.0" fill="none" stroke="#b85450" stroke-width="2"/><text x="861.0" y="428.0" text-anchor="middle" fill="#000" font-size="9" font-family="Arial">Fim</text>
<path d="M 130 268 L 130 285 L 130 285 L 130 302" fill="none" stroke="#000" stroke-width="1.5" marker-end="url(#arrowhead)"/>
<path d="M 300 245 L 250 245 L 250 325 L 200 325" fill="none" stroke="#000" stroke-width="1.5" marker-end="url(#arrowhead)"/>
<path d="M 56 325 L 65 325 L 51 245 L 60 245" fill="none" stroke="#000" stroke-width="1.5" marker-end="url(#arrowhead)"/>
<path d="M 56 325 L 171 325 L 171 245 L 300 245" fill="none" stroke="#000" stroke-width="1.5" marker-end="url(#arrowhead)"/>
<path d="M 200 325 L 250 325 L 250 325 L 300 325" fill="none" stroke="#000" stroke-width="1.5" marker-end="url(#arrowhead)"/>
<path d="M 354 325 L 397 325 L 397 325 L 440 325" fill="none" stroke="#000" stroke-width="1.5" marker-end="url(#arrowhead)"/>
<path d="M 354 325 L 397 325 L 397 325 L 440 325" fill="none" stroke="#000" stroke-width="1.5" marker-end="url(#arrowhead)"/>
<path d="M 354 325 L 397 325 L 397 325 L 440 325" fill="none" stroke="#000" stroke-width="1.5" marker-end="url(#arrowhead)"/>
<path d="M 354 325 L 397 325 L 397 325 L 440 325" fill="none" stroke="#000" stroke-width="1.5" marker-end="url(#arrowhead)"/>
<path d="M 440 325 L 320 325 L 320 405 L 200 405" fill="none" stroke="#000" stroke-width="1.5" marker-end="url(#arrowhead)"/>
<path d="M 440 325 L 320 325 L 320 405 L 200 405" fill="none" stroke="#000" stroke-width="1.5" marker-end="url(#arrowhead)"/>
<path d="M 440 325 L 320 325 L 320 405 L 200 405" fill="none" stroke="#000" stroke-width="1.5" marker-end="url(#arrowhead)"/>
<path d="M 440 325 L 320 325 L 320 405 L 200 405" fill="none" stroke="#000" stroke-width="1.5" marker-end="url(#arrowhead)"/>
<path d="M 200 405 L 250 405 L 250 405 L 300 405" fill="none" stroke="#000" stroke-width="1.5" marker-end="url(#arrowhead)"/>
<path d="M 354 405 L 397 405 L 397 405 L 440 405" fill="none" stroke="#000" stroke-width="1.5" marker-end="url(#arrowhead)"/>
<path d="M 580 405 L 620 405 L 620 405 L 660 405" fill="none" stroke="#000" stroke-width="1.5" marker-end="url(#arrowhead)"/>
<path d="M 800 405 L 825 405 L 825 405 L 850 405" fill="none" stroke="#000" stroke-width="1.5" marker-end="url(#arrowhead)"/>
<path d="M 440 325 L 320 325 L 320 620 L 200 620" fill="none" stroke="#000" stroke-width="1.5" stroke-dasharray="5,5" marker-end="url(#arrowhead)"/>
<path d="M 200 620 L 250 620 L 250 620 L 300 620" fill="none" stroke="#000" stroke-width="1.5" marker-end="url(#arrowhead)"/>
<path d="M 130 597 L 130 365 L 370 365 L 370 133" fill="none" stroke="#000" stroke-width="1.5" stroke-dasharray="5,5" marker-end="url(#arrowhead)"/>
<path d="M 510 302 L 510 217.5 L 590 217.5 L 590 133" fill="none" stroke="#000" stroke-width="1.5" stroke-dasharray="5,5" marker-end="url(#arrowhead)"/>
<path d="M 370 597 L 370 365 L 370 365 L 370 133" fill="none" stroke="#000" stroke-width="1.5" stroke-dasharray="5,5" marker-end="url(#arrowhead)"/>
<path d="M 65 336 L 31 399 L 130 399 L 130 462" fill="none" stroke="#000" stroke-width="1.5" marker-end="url(#arrowhead)"/>
<path d="M 200 485 L 250 485 L 250 485 L 300 485" fill="none" stroke="#000" stroke-width="1.5" marker-end="url(#arrowhead)"/>
</g>
<foreignObject width="1200" height="750"><div xmlns="http://www.w3.org/1999/xhtml"><mxfile host="Generator" modified="2026-05-21T07:35:39.396801" agent="BPMN-PHASEX" version="24.0.5" type="device"><diagram id="macro-fluxo-sistema.svg" name="Page-1"><mxGraphModel dx="0" dy="0" grid="1" gridSize="10" guides="1" page="0" pageWidth="1200" pageHeight="750" math="0" shadow="0"><root><mxCell id="0"/><mxCell id="1" parent="0"/><mxCell id="c3" value="Macro-Fluxo do Sistema" style="text;html=1;strokeColor=none;fillColor=none;align=center;fontSize=14;fontStyle=1" vertex="1" parent="1"><mxGeometry x="10" y="5" width="1180" height="28" as="geometry"/></mxCell><mxCell id="c4" value="Tutor" style="swimlane;startSize=18;fillColor=#e1d5e7;strokeColor=#000;horizontal=1;" vertex="1" parent="1"><mxGeometry x="30" y="70" width="1170" height="80" as="geometry"/></mxCell><mxCell id="c5" value="Tutor (Portal)" style="swimlane;startSize=0;fillColor=none;strokeColor=#000;" vertex="1" parent="1"><mxGeometry x="0" y="40" width="1200" height="120" as="geometry"/></mxCell><mxCell id="c6" value="Recepcionista" style="swimlane;startSize=18;fillColor=#dae8fc;strokeColor=#000;horizontal=1;" vertex="1" parent="1"><mxGeometry x="30" y="205" width="1170" height="80" as="geometry"/></mxCell><mxCell id="c7" value="Veterinário" style="swimlane;startSize=18;fillColor=#d5e8d4;strokeColor=#000;horizontal=1;" vertex="1" parent="1"><mxGeometry x="30" y="285" width="1170" height="80" as="geometry"/></mxCell><mxCell id="c8" value="Financeiro" style="swimlane;startSize=18;fillColor=#ffe6cc;strokeColor=#000;horizontal=1;" vertex="1" parent="1"><mxGeometry x="30" y="365" width="1170" height="80" as="geometry"/></mxCell><mxCell id="c9" value="Estoque" style="swimlane;startSize=18;fillColor=#fff2cc;strokeColor=#000;horizontal=1;" vertex="1" parent="1"><mxGeometry x="30" y="445" width="1170" height="80" as="geometry"/></mxCell><mxCell id="c10" value="Clínica" style="swimlane;startSize=0;fillColor=none;strokeColor=#000;" vertex="1" parent="1"><mxGeometry x="0" y="175" width="1200" height="360" as="geometry"/></mxCell><mxCell id="c11" value="Sistema" style="swimlane;startSize=18;fillColor=#f5f5f5;strokeColor=#000;horizontal=1;" vertex="1" parent="1"><mxGeometry x="30" y="580" width="1170" height="80" as="geometry"/></mxCell><mxCell id="c12" value="Sistema" style="swimlane;startSize=0;fillColor=none;strokeColor=#000;" vertex="1" parent="1"><mxGeometry x="0" y="550" width="1200" height="120" as="geometry"/></mxCell><mxCell id="c13" value="Solicita/Cadastra" style="rounded=1;whiteSpace=wrap;html=1;" vertex="1" parent="1"><mxGeometry x="60" y="87.0" width="140" height="46" as="geometry"/></mxCell><mxCell id="c14" value="Recebe Notificações" style="rounded=1;whiteSpace=wrap;html=1;" vertex="1" parent="1"><mxGeometry x="300" y="87.0" width="140" height="46" as="geometry"/></mxCell><mxCell id="c15" value="Visualiza Resultados" style="rounded=1;whiteSpace=wrap;html=1;" vertex="1" parent="1"><mxGeometry x="520" y="87.0" width="140" height="46" as="geometry"/></mxCell><mxCell id="c16" value="Agendar Consulta" style="rounded=1;whiteSpace=wrap;html=1;" vertex="1" parent="1"><mxGeometry x="60" y="222.0" width="140" height="46" as="geometry"/></mxCell><mxCell id="c17" value="Cadastrar Tutor/Pet" style="rounded=1;whiteSpace=wrap;html=1;" vertex="1" parent="1"><mxGeometry x="300" y="222.0" width="140" height="46" as="geometry"/></mxCell><mxCell id="c18" value="Fazer Prontuário (SOAP)" style="rounded=1;whiteSpace=wrap;html=1;" vertex="1" parent="1"><mxGeometry x="60" y="302.0" width="140" height="46" as="geometry"/></mxCell><mxCell id="c19" value="" style="rhombus;whiteSpace=wrap;html=1;fillColor=#dae8fc;strokeColor=#6c8ebf;" vertex="1" parent="1"><mxGeometry x="300" y="298.0" width="54" height="54" as="geometry"/></mxCell><mxCell id="c20" value="Prescrição" style="rounded=1;whiteSpace=wrap;html=1;" vertex="1" parent="1"><mxGeometry x="440" y="302.0" width="140" height="46" as="geometry"/></mxCell><mxCell id="c21" value="Vacina" style="rounded=1;whiteSpace=wrap;html=1;" vertex="1" parent="1"><mxGeometry x="440" y="302.0" width="140" height="46" as="geometry"/></mxCell><mxCell id="c22" value="Exame" style="rounded=1;whiteSpace=wrap;html=1;" vertex="1" parent="1"><mxGeometry x="440" y="302.0" width="140" height="46" as="geometry"/></mxCell><mxCell id="c23" value="Cirurgia" style="rounded=1;whiteSpace=wrap;html=1;" vertex="1" parent="1"><mxGeometry x="440" y="302.0" width="140" height="46" as="geometry"/></mxCell><mxCell id="c24" value="Faturar Serviços" style="rounded=1;whiteSpace=wrap;html=1;" vertex="1" parent="1"><mxGeometry x="60" y="382.0" width="140" height="46" as="geometry"/></mxCell><mxCell id="c25" value="NFSe?" style="rhombus;whiteSpace=wrap;html=1;fillColor=#ffe6cc;strokeColor=#d79b00;" vertex="1" parent="1"><mxGeometry x="300" y="378.0" width="54" height="54" as="geometry"/></mxCell><mxCell id="c26" value="NFSe + Comissão" style="rounded=1;whiteSpace=wrap;html=1;" vertex="1" parent="1"><mxGeometry x="440" y="382.0" width="140" height="46" as="geometry"/></mxCell><mxCell id="c27" value="Conciliação" style="rounded=1;whiteSpace=wrap;html=1;" vertex="1" parent="1"><mxGeometry x="660" y="382.0" width="140" height="46" as="geometry"/></mxCell><mxCell id="c28" value="Pedido de Compra" style="rounded=1;whiteSpace=wrap;html=1;" vertex="1" parent="1"><mxGeometry x="60" y="462.0" width="140" height="46" as="geometry"/></mxCell><mxCell id="c29" value="Recebimento + Lotes" style="rounded=1;whiteSpace=wrap;html=1;" vertex="1" parent="1"><mxGeometry x="300" y="462.0" width="140" height="46" as="geometry"/></mxCell><mxCell id="c30" value="Disparar Notificações" style="rounded=1;whiteSpace=wrap;html=1;" vertex="1" parent="1"><mxGeometry x="60" y="597.0" width="140" height="46" as="geometry"/></mxCell><mxCell id="c31" value="Lembretes Automáticos" style="rounded=1;whiteSpace=wrap;html=1;" vertex="1" parent="1"><mxGeometry x="300" y="597.0" width="140" height="46" as="geometry"/></mxCell><mxCell id="c32" value="Início" style="ellipse;whiteSpace=wrap;html=1;fillColor=#d5e8d4;strokeColor=#82b366;" vertex="1" parent="1"><mxGeometry x="20" y="314.0" width="22" height="22" as="geometry"/></mxCell><mxCell id="c33" value="Fim" style="ellipse;whiteSpace=wrap;html=1;fillColor=#f8cecc;strokeColor=#b85450;" vertex="1" parent="1"><mxGeometry x="850" y="394.0" width="22" height="22" as="geometry"/></mxCell><mxCell id="c34" edge="1" parent="1" source="{'id': 'c13'}" target="{'id': 'c16'}" style="edgeStyle=orthogonalEdgeStyle;rounded=0;html=1;dashed=1;"><mxGeometry relative="1" as="geometry"/></mxCell><mxCell id="c35" edge="1" parent="1" source="{'id': 'c13'}" target="{'id': 'c17'}" style="edgeStyle=orthogonalEdgeStyle;rounded=0;html=1;dashed=1;"><mxGeometry relative="1" as="geometry"/></mxCell><mxCell id="c36" edge="1" parent="1" source="c16" target="c18" style="edgeStyle=orthogonalEdgeStyle;rounded=0;html=1;"><mxGeometry relative="1" as="geometry"/></mxCell><mxCell id="c37" edge="1" parent="1" source="c17" target="c18" style="edgeStyle=orthogonalEdgeStyle;rounded=0;html=1;"><mxGeometry relative="1" as="geometry"/></mxCell><mxCell id="c38" edge="1" parent="1" source="c32" target="c16" style="edgeStyle=orthogonalEdgeStyle;rounded=0;html=1;"><mxGeometry relative="1" as="geometry"/></mxCell><mxCell id="c39" edge="1" parent="1" source="c32" target="c17" style="edgeStyle=orthogonalEdgeStyle;rounded=0;html=1;"><mxGeometry relative="1" as="geometry"/></mxCell><mxCell id="c40" edge="1" parent="1" source="c18" target="c19" style="edgeStyle=orthogonalEdgeStyle;rounded=0;html=1;"><mxGeometry relative="1" as="geometry"/></mxCell><mxCell id="c41" edge="1" parent="1" source="c19" target="c20" style="edgeStyle=orthogonalEdgeStyle;rounded=0;html=1;"><mxGeometry relative="1" as="geometry"/></mxCell><mxCell id="c42" edge="1" parent="1" source="c19" target="c21" style="edgeStyle=orthogonalEdgeStyle;rounded=0;html=1;"><mxGeometry relative="1" as="geometry"/></mxCell><mxCell id="c43" edge="1" parent="1" source="c19" target="c22" style="edgeStyle=orthogonalEdgeStyle;rounded=0;html=1;"><mxGeometry relative="1" as="geometry"/></mxCell><mxCell id="c44" edge="1" parent="1" source="c19" target="c23" style="edgeStyle=orthogonalEdgeStyle;rounded=0;html=1;"><mxGeometry relative="1" as="geometry"/></mxCell><mxCell id="c45" edge="1" parent="1" source="c20" target="c24" style="edgeStyle=orthogonalEdgeStyle;rounded=0;html=1;"><mxGeometry relative="1" as="geometry"/></mxCell><mxCell id="c46" edge="1" parent="1" source="c21" target="c24" style="edgeStyle=orthogonalEdgeStyle;rounded=0;html=1;"><mxGeometry relative="1" as="geometry"/></mxCell><mxCell id="c47" edge="1" parent="1" source="c22" target="c24" style="edgeStyle=orthogonalEdgeStyle;rounded=0;html=1;"><mxGeometry relative="1" as="geometry"/></mxCell><mxCell id="c48" edge="1" parent="1" source="c23" target="c24" style="edgeStyle=orthogonalEdgeStyle;rounded=0;html=1;"><mxGeometry relative="1" as="geometry"/></mxCell><mxCell id="c49" edge="1" parent="1" source="c24" target="c25" style="edgeStyle=orthogonalEdgeStyle;rounded=0;html=1;"><mxGeometry relative="1" as="geometry"/></mxCell><mxCell id="c50" edge="1" parent="1" source="c25" target="c26" style="edgeStyle=orthogonalEdgeStyle;rounded=0;html=1;"><mxGeometry relative="1" as="geometry"/></mxCell><mxCell id="c51" edge="1" parent="1" source="c26" target="c27" style="edgeStyle=orthogonalEdgeStyle;rounded=0;html=1;"><mxGeometry relative="1" as="geometry"/></mxCell><mxCell id="c52" edge="1" parent="1" source="c27" target="c33" style="edgeStyle=orthogonalEdgeStyle;rounded=0;html=1;"><mxGeometry relative="1" as="geometry"/></mxCell><mxCell id="c53" edge="1" parent="1" source="c21" target="c30" style="edgeStyle=orthogonalEdgeStyle;rounded=0;html=1;dashed=1;"><mxGeometry relative="1" as="geometry"/></mxCell><mxCell id="c54" edge="1" parent="1" source="c30" target="c31" style="edgeStyle=orthogonalEdgeStyle;rounded=0;html=1;"><mxGeometry relative="1" as="geometry"/></mxCell><mxCell id="c55" edge="1" parent="1" source="c30" target="c14" style="edgeStyle=orthogonalEdgeStyle;rounded=0;html=1;dashed=1;"><mxGeometry relative="1" as="geometry"/></mxCell><mxCell id="c56" edge="1" parent="1" source="c22" target="c15" style="edgeStyle=orthogonalEdgeStyle;rounded=0;html=1;dashed=1;"><mxGeometry relative="1" as="geometry"/></mxCell><mxCell id="c57" edge="1" parent="1" source="c31" target="c14" style="edgeStyle=orthogonalEdgeStyle;rounded=0;html=1;dashed=1;"><mxGeometry relative="1" as="geometry"/></mxCell><mxCell id="c58" edge="1" parent="1" source="c32" target="c28" style="edgeStyle=orthogonalEdgeStyle;rounded=0;html=1;"><mxGeometry relative="1" as="geometry"/></mxCell><mxCell id="c59" edge="1" parent="1" source="c28" target="c29" style="edgeStyle=orthogonalEdgeStyle;rounded=0;html=1;"><mxGeometry relative="1" as="geometry"/></mxCell></root></mxGraphModel></diagram></mxfile></div></foreignObject></switch>
</svg>