<?xml version="1.0" encoding="UTF-8"?>
<svg xmlns="http://www.w3.org/2000/svg" width="1340" height="706" viewBox="-30 -30 1340 706">
<rect x="10" y="5" width="1320" height="28" rx="4" ry="4" fill="#fff" stroke="#000" stroke-width="1.5"/>
<text x="670.0" y="19.0" text-anchor="middle" dominant-baseline="central" fill="#000" font-size="12" font-family="Arial" font-weight="bold">Matriz de Perfis (RACI)</text>
<rect x="140" y="40" width="100" height="28" rx="4" ry="4" fill="#f8cecc" stroke="#000" stroke-width="1.5"/>
<text x="190.0" y="54.0" text-anchor="middle" dominant-baseline="central" fill="#000" font-size="9" font-family="Arial" font-weight="bold">Super Admin</text>
<rect x="240" y="40" width="100" height="28" rx="4" ry="4" fill="#f8cecc" stroke="#000" stroke-width="1.5"/>
<text x="290.0" y="54.0" text-anchor="middle" dominant-baseline="central" fill="#000" font-size="9" font-family="Arial" font-weight="bold">Admin</text>
<rect x="340" y="40" width="100" height="28" rx="4" ry="4" fill="#f8cecc" stroke="#000" stroke-width="1.5"/>
<text x="390.0" y="54.0" text-anchor="middle" dominant-baseline="central" fill="#000" font-size="9" font-family="Arial" font-weight="bold">Branch Admin</text>
<rect x="440" y="40" width="100" height="28" rx="4" ry="4" fill="#d5e8d4" stroke="#000" stroke-width="1.5"/>
<text x="490.0" y="54.0" text-anchor="middle" dominant-baseline="central" fill="#000" font-size="9" font-family="Arial" font-weight="bold">Veterinário</text>
<rect x="540" y="40" width="100" height="28" rx="4" ry="4" fill="#dae8fc" stroke="#000" stroke-width="1.5"/>
<text x="590.0" y="54.0" text-anchor="middle" dominant-baseline="central" fill="#000" font-size="9" font-family="Arial" font-weight="bold">Recepcionista</text>
<rect x="640" y="40" width="100" height="28" rx="4" ry="4" fill="#fff2cc" stroke="#000" stroke-width="1.5"/>
<text x="690.0" y="54.0" text-anchor="middle" dominant-baseline="central" fill="#000" font-size="9" font-family="Arial" font-weight="bold">Técnico</text>
<rect x="740" y="40" width="100" height="28" rx="4" ry="4" fill="#ffe6cc" stroke="#000" stroke-width="1.5"/>
<text x="790.0" y="54.0" text-anchor="middle" dominant-baseline="central" fill="#000" font-size="9" font-family="Arial" font-weight="bold">Financeiro</text>
<rect x="840" y="40" width="100" height="28" rx="4" ry="4" fill="#ffe6cc" stroke="#000" stroke-width="1.5"/>
<text x="890.0" y="54.0" text-anchor="middle" dominant-baseline="central" fill="#000" font-size="9" font-family="Arial" font-weight="bold">Super Financial</text>
<rect x="940" y="40" width="100" height="28" rx="4" ry="4" fill="#fff2cc" stroke="#000" stroke-width="1.5"/>
<text x="990.0" y="54.0" text-anchor="middle" dominant-baseline="central" fill="#000" font-size="9" font-family="Arial" font-weight="bold">Estoque</text>
<rect x="1040" y="40" width="100" height="28" rx="4" ry="4" fill="#fff2cc" stroke="#000" stroke-width="1.5"/>
<text x="1090.0" y="54.0" text-anchor="middle" dominant-baseline="central" fill="#000" font-size="9" font-family="Arial" font-weight="bold">RH</text>
<rect x="1140" y="40" width="100" height="28" rx="4" ry="4" fill="#e1d5e7" stroke="#000" stroke-width="1.5"/>
<text x="1190.0" y="54.0" text-anchor="middle" dominant-baseline="central" fill="#000" font-size="9" font-family="Arial" font-weight="bold">Tutor</text>
<rect x="1240" y="40" width="100" height="28" rx="4" ry="4" fill="#e1d5e7" stroke="#000" stroke-width="1.5"/>
<text x="1290.0" y="54.0" text-anchor="middle" dominant-baseline="central" fill="#000" font-size="9" font-family="Arial" font-weight="bold">Auditor</text>
<rect x="10" y="40" width="140" height="28" rx="4" ry="4" fill="#fff" stroke="#000" stroke-width="1.5"/>
<text x="80.0" y="54.0" text-anchor="middle" dominant-baseline="central" fill="#000" font-size="9" font-family="Arial" font-weight="bold">Módulo / Funcionalidade</text>
<rect x="10" y="78" width="140" height="24" rx="4" ry="4" fill="#fff" stroke="#000" stroke-width="1.5"/>
<text x="80.0" y="90.0" text-anchor="middle" dominant-baseline="central" fill="#000" font-size="9" font-family="Arial">Macro-Fluxo</text>
<rect x="140" y="78" width="100" height="24" rx="4" ry="4" fill="#dae8fc" stroke="#000" stroke-width="1.5"/>
<text x="190.0" y="90.0" text-anchor="middle" dominant-baseline="central" fill="#000" font-size="9" font-family="Arial">I</text>
<rect x="240" y="78" width="100" height="24" rx="4" ry="4" fill="#dae8fc" stroke="#000" stroke-width="1.5"/>
<text x="290.0" y="90.0" text-anchor="middle" dominant-baseline="central" fill="#000" font-size="9" font-family="Arial">I</text>
<rect x="340" y="78" width="100" height="24" rx="4" ry="4" fill="#dae8fc" stroke="#000" stroke-width="1.5"/>
<text x="390.0" y="90.0" text-anchor="middle" dominant-baseline="central" fill="#000" font-size="9" font-family="Arial">I</text>
<rect x="440" y="78" width="100" height="24" rx="4" ry="4" fill="#d5e8d4" stroke="#000" stroke-width="1.5"/>
<text x="490.0" y="90.0" text-anchor="middle" dominant-baseline="central" fill="#000" font-size="9" font-family="Arial" font-weight="bold">R</text>
<rect x="540" y="78" width="100" height="24" rx="4" ry="4" fill="#ffe6cc" stroke="#000" stroke-width="1.5"/>
<text x="590.0" y="90.0" text-anchor="middle" dominant-baseline="central" fill="#000" font-size="9" font-family="Arial">C</text>
<rect x="640" y="78" width="100" height="24" rx="4" ry="4" fill="#ffe6cc" stroke="#000" stroke-width="1.5"/>
<text x="690.0" y="90.0" text-anchor="middle" dominant-baseline="central" fill="#000" font-size="9" font-family="Arial">C</text>
<rect x="740" y="78" width="100" height="24" rx="4" ry="4" fill="#ffe6cc" stroke="#000" stroke-width="1.5"/>
<text x="790.0" y="90.0" text-anchor="middle" dominant-baseline="central" fill="#000" font-size="9" font-family="Arial">C</text>
<rect x="840" y="78" width="100" height="24" rx="4" ry="4" fill="#ffe6cc" stroke="#000" stroke-width="1.5"/>
<text x="890.0" y="90.0" text-anchor="middle" dominant-baseline="central" fill="#000" font-size="9" font-family="Arial">C</text>
<rect x="940" y="78" width="100" height="24" rx="4" ry="4" fill="#ffe6cc" stroke="#000" stroke-width="1.5"/>
<text x="990.0" y="90.0" text-anchor="middle" dominant-baseline="central" fill="#000" font-size="9" font-family="Arial">C</text>
<rect x="1140" y="78" width="100" height="24" rx="4" ry="4" fill="#ffe6cc" stroke="#000" stroke-width="1.5"/>
<text x="1190.0" y="90.0" text-anchor="middle" dominant-baseline="central" fill="#000" font-size="9" font-family="Arial">C</text>
<rect x="1240" y="78" width="100" height="24" rx="4" ry="4" fill="#ffe6cc" stroke="#000" stroke-width="1.5"/>
<text x="1290.0" y="90.0" text-anchor="middle" dominant-baseline="central" fill="#000" font-size="9" font-family="Arial">A</text>
<rect x="10" y="102" width="140" height="24" rx="4" ry="4" fill="#fff" stroke="#000" stroke-width="1.5"/>
<text x="80.0" y="114.0" text-anchor="middle" dominant-baseline="central" fill="#000" font-size="9" font-family="Arial">Prontuário</text>
<rect x="440" y="102" width="100" height="24" rx="4" ry="4" fill="#d5e8d4" stroke="#000" stroke-width="1.5"/>
<text x="490.0" y="114.0" text-anchor="middle" dominant-baseline="central" fill="#000" font-size="9" font-family="Arial" font-weight="bold">R</text>
<rect x="640" y="102" width="100" height="24" rx="4" ry="4" fill="#ffe6cc" stroke="#000" stroke-width="1.5"/>
<text x="690.0" y="114.0" text-anchor="middle" dominant-baseline="central" fill="#000" font-size="9" font-family="Arial">C</text>
<rect x="1140" y="102" width="100" height="24" rx="4" ry="4" fill="#ffe6cc" stroke="#000" stroke-width="1.5"/>
<text x="1190.0" y="114.0" text-anchor="middle" dominant-baseline="central" fill="#000" font-size="9" font-family="Arial">C</text>
<rect x="10" y="126" width="140" height="24" rx="4" ry="4" fill="#fff" stroke="#000" stroke-width="1.5"/>
<text x="80.0" y="138.0" text-anchor="middle" dominant-baseline="central" fill="#000" font-size="9" font-family="Arial">Prescrição</text>
<rect x="440" y="126" width="100" height="24" rx="4" ry="4" fill="#d5e8d4" stroke="#000" stroke-width="1.5"/>
<text x="490.0" y="138.0" text-anchor="middle" dominant-baseline="central" fill="#000" font-size="9" font-family="Arial" font-weight="bold">R</text>
<rect x="1140" y="126" width="100" height="24" rx="4" ry="4" fill="#ffe6cc" stroke="#000" stroke-width="1.5"/>
<text x="1190.0" y="138.0" text-anchor="middle" dominant-baseline="central" fill="#000" font-size="9" font-family="Arial">C</text>
<rect x="10" y="150" width="140" height="24" rx="4" ry="4" fill="#fff" stroke="#000" stroke-width="1.5"/>
<text x="80.0" y="162.0" text-anchor="middle" dominant-baseline="central" fill="#000" font-size="9" font-family="Arial">Vacina</text>
<rect x="440" y="150" width="100" height="24" rx="4" ry="4" fill="#d5e8d4" stroke="#000" stroke-width="1.5"/>
<text x="490.0" y="162.0" text-anchor="middle" dominant-baseline="central" fill="#000" font-size="9" font-family="Arial" font-weight="bold">R</text>
<rect x="540" y="150" width="100" height="24" rx="4" ry="4" fill="#ffe6cc" stroke="#000" stroke-width="1.5"/>
<text x="590.0" y="162.0" text-anchor="middle" dominant-baseline="central" fill="#000" font-size="9" font-family="Arial">C</text>
<rect x="640" y="150" width="100" height="24" rx="4" ry="4" fill="#ffe6cc" stroke="#000" stroke-width="1.5"/>
<text x="690.0" y="162.0" text-anchor="middle" dominant-baseline="central" fill="#000" font-size="9" font-family="Arial">C</text>
<rect x="1140" y="150" width="100" height="24" rx="4" ry="4" fill="#ffe6cc" stroke="#000" stroke-width="1.5"/>
<text x="1190.0" y="162.0" text-anchor="middle" dominant-baseline="central" fill="#000" font-size="9" font-family="Arial">C</text>
<rect x="10" y="174" width="140" height="24" rx="4" ry="4" fill="#fff" stroke="#000" stroke-width="1.5"/>
<text x="80.0" y="186.0" text-anchor="middle" dominant-baseline="central" fill="#000" font-size="9" font-family="Arial">Exame</text>
<rect x="440" y="174" width="100" height="24" rx="4" ry="4" fill="#d5e8d4" stroke="#000" stroke-width="1.5"/>
<text x="490.0" y="186.0" text-anchor="middle" dominant-baseline="central" fill="#000" font-size="9" font-family="Arial" font-weight="bold">R</text>
<rect x="540" y="174" width="100" height="24" rx="4" ry="4" fill="#ffe6cc" stroke="#000" stroke-width="1.5"/>
<text x="590.0" y="186.0" text-anchor="middle" dominant-baseline="central" fill="#000" font-size="9" font-family="Arial">C</text>
<rect x="640" y="174" width="100" height="24" rx="4" ry="4" fill="#ffe6cc" stroke="#000" stroke-width="1.5"/>
<text x="690.0" y="186.0" text-anchor="middle" dominant-baseline="central" fill="#000" font-size="9" font-family="Arial">C</text>
<rect x="1140" y="174" width="100" height="24" rx="4" ry="4" fill="#ffe6cc" stroke="#000" stroke-width="1.5"/>
<text x="1190.0" y="186.0" text-anchor="middle" dominant-baseline="central" fill="#000" font-size="9" font-family="Arial">C</text>
<rect x="10" y="198" width="140" height="24" rx="4" ry="4" fill="#fff" stroke="#000" stroke-width="1.5"/>
<text x="80.0" y="210.0" text-anchor="middle" dominant-baseline="central" fill="#000" font-size="9" font-family="Arial">Cirurgia</text>
<rect x="440" y="198" width="100" height="24" rx="4" ry="4" fill="#d5e8d4" stroke="#000" stroke-width="1.5"/>
<text x="490.0" y="210.0" text-anchor="middle" dominant-baseline="central" fill="#000" font-size="9" font-family="Arial" font-weight="bold">R</text>
<rect x="540" y="198" width="100" height="24" rx="4" ry="4" fill="#ffe6cc" stroke="#000" stroke-width="1.5"/>
<text x="590.0" y="210.0" text-anchor="middle" dominant-baseline="central" fill="#000" font-size="9" font-family="Arial">C</text>
<rect x="640" y="198" width="100" height="24" rx="4" ry="4" fill="#ffe6cc" stroke="#000" stroke-width="1.5"/>
<text x="690.0" y="210.0" text-anchor="middle" dominant-baseline="central" fill="#000" font-size="9" font-family="Arial">C</text>
<rect x="1140" y="198" width="100" height="24" rx="4" ry="4" fill="#ffe6cc" stroke="#000" stroke-width="1.5"/>
<text x="1190.0" y="210.0" text-anchor="middle" dominant-baseline="central" fill="#000" font-size="9" font-family="Arial">C</text>
<rect x="10" y="222" width="140" height="24" rx="4" ry="4" fill="#fff" stroke="#000" stroke-width="1.5"/>
<text x="80.0" y="234.0" text-anchor="middle" dominant-baseline="central" fill="#000" font-size="9" font-family="Arial">Internação</text>
<rect x="440" y="222" width="100" height="24" rx="4" ry="4" fill="#d5e8d4" stroke="#000" stroke-width="1.5"/>
<text x="490.0" y="234.0" text-anchor="middle" dominant-baseline="central" fill="#000" font-size="9" font-family="Arial" font-weight="bold">R</text>
<rect x="640" y="222" width="100" height="24" rx="4" ry="4" fill="#d5e8d4" stroke="#000" stroke-width="1.5"/>
<text x="690.0" y="234.0" text-anchor="middle" dominant-baseline="central" fill="#000" font-size="9" font-family="Arial" font-weight="bold">R</text>
<rect x="1140" y="222" width="100" height="24" rx="4" ry="4" fill="#ffe6cc" stroke="#000" stroke-width="1.5"/>
<text x="1190.0" y="234.0" text-anchor="middle" dominant-baseline="central" fill="#000" font-size="9" font-family="Arial">C</text>
<rect x="10" y="246" width="140" height="24" rx="4" ry="4" fill="#fff" stroke="#000" stroke-width="1.5"/>
<text x="80.0" y="258.0" text-anchor="middle" dominant-baseline="central" fill="#000" font-size="9" font-family="Arial">Farmácia</text>
<rect x="440" y="246" width="100" height="24" rx="4" ry="4" fill="#ffe6cc" stroke="#000" stroke-width="1.5"/>
<text x="490.0" y="258.0" text-anchor="middle" dominant-baseline="central" fill="#000" font-size="9" font-family="Arial">C</text>
<rect x="940" y="246" width="100" height="24" rx="4" ry="4" fill="#d5e8d4" stroke="#000" stroke-width="1.5"/>
<text x="990.0" y="258.0" text-anchor="middle" dominant-baseline="central" fill="#000" font-size="9" font-family="Arial" font-weight="bold">R</text>
<rect x="10" y="270" width="140" height="24" rx="4" ry="4" fill="#fff" stroke="#000" stroke-width="1.5"/>
<text x="80.0" y="282.0" text-anchor="middle" dominant-baseline="central" fill="#000" font-size="9" font-family="Arial">Estoque</text>
<rect x="140" y="270" width="100" height="24" rx="4" ry="4" fill="#ffe6cc" stroke="#000" stroke-width="1.5"/>
<text x="190.0" y="282.0" text-anchor="middle" dominant-baseline="central" fill="#000" font-size="9" font-family="Arial">A</text>
<rect x="240" y="270" width="100" height="24" rx="4" ry="4" fill="#ffe6cc" stroke="#000" stroke-width="1.5"/>
<text x="290.0" y="282.0" text-anchor="middle" dominant-baseline="central" fill="#000" font-size="9" font-family="Arial">A</text>
<rect x="340" y="270" width="100" height="24" rx="4" ry="4" fill="#ffe6cc" stroke="#000" stroke-width="1.5"/>
<text x="390.0" y="282.0" text-anchor="middle" dominant-baseline="central" fill="#000" font-size="9" font-family="Arial">A</text>
<rect x="740" y="270" width="100" height="24" rx="4" ry="4" fill="#ffe6cc" stroke="#000" stroke-width="1.5"/>
<text x="790.0" y="282.0" text-anchor="middle" dominant-baseline="central" fill="#000" font-size="9" font-family="Arial">C</text>
<rect x="940" y="270" width="100" height="24" rx="4" ry="4" fill="#d5e8d4" stroke="#000" stroke-width="1.5"/>
<text x="990.0" y="282.0" text-anchor="middle" dominant-baseline="central" fill="#000" font-size="9" font-family="Arial" font-weight="bold">R</text>
<rect x="10" y="294" width="140" height="24" rx="4" ry="4" fill="#fff" stroke="#000" stroke-width="1.5"/>
<text x="80.0" y="306.0" text-anchor="middle" dominant-baseline="central" fill="#000" font-size="9" font-family="Arial">Financeiro</text>
<rect x="740" y="294" width="100" height="24" rx="4" ry="4" fill="#d5e8d4" stroke="#000" stroke-width="1.5"/>
<text x="790.0" y="306.0" text-anchor="middle" dominant-baseline="central" fill="#000" font-size="9" font-family="Arial" font-weight="bold">R</text>
<rect x="840" y="294" width="100" height="24" rx="4" ry="4" fill="#ffe6cc" stroke="#000" stroke-width="1.5"/>
<text x="890.0" y="306.0" text-anchor="middle" dominant-baseline="central" fill="#000" font-size="9" font-family="Arial">A</text>
<rect x="10" y="318" width="140" height="24" rx="4" ry="4" fill="#fff" stroke="#000" stroke-width="1.5"/>
<text x="80.0" y="330.0" text-anchor="middle" dominant-baseline="central" fill="#000" font-size="9" font-family="Arial">Conciliação</text>
<rect x="740" y="318" width="100" height="24" rx="4" ry="4" fill="#d5e8d4" stroke="#000" stroke-width="1.5"/>
<text x="790.0" y="330.0" text-anchor="middle" dominant-baseline="central" fill="#000" font-size="9" font-family="Arial" font-weight="bold">R</text>
<rect x="840" y="318" width="100" height="24" rx="4" ry="4" fill="#ffe6cc" stroke="#000" stroke-width="1.5"/>
<text x="890.0" y="330.0" text-anchor="middle" dominant-baseline="central" fill="#000" font-size="9" font-family="Arial">C</text>
<rect x="10" y="342" width="140" height="24" rx="4" ry="4" fill="#fff" stroke="#000" stroke-width="1.5"/>
<text x="80.0" y="354.0" text-anchor="middle" dominant-baseline="central" fill="#000" font-size="9" font-family="Arial">NFSe</text>
<rect x="740" y="342" width="100" height="24" rx="4" ry="4" fill="#d5e8d4" stroke="#000" stroke-width="1.5"/>
<text x="790.0" y="354.0" text-anchor="middle" dominant-baseline="central" fill="#000" font-size="9" font-family="Arial" font-weight="bold">R</text>
<rect x="1140" y="342" width="100" height="24" rx="4" ry="4" fill="#ffe6cc" stroke="#000" stroke-width="1.5"/>
<text x="1190.0" y="354.0" text-anchor="middle" dominant-baseline="central" fill="#000" font-size="9" font-family="Arial">C</text>
<rect x="10" y="366" width="140" height="24" rx="4" ry="4" fill="#fff" stroke="#000" stroke-width="1.5"/>
<text x="80.0" y="378.0" text-anchor="middle" dominant-baseline="central" fill="#000" font-size="9" font-family="Arial">Agendamento</text>
<rect x="440" y="366" width="100" height="24" rx="4" ry="4" fill="#ffe6cc" stroke="#000" stroke-width="1.5"/>
<text x="490.0" y="378.0" text-anchor="middle" dominant-baseline="central" fill="#000" font-size="9" font-family="Arial">C</text>
<rect x="540" y="366" width="100" height="24" rx="4" ry="4" fill="#d5e8d4" stroke="#000" stroke-width="1.5"/>
<text x="590.0" y="378.0" text-anchor="middle" dominant-baseline="central" fill="#000" font-size="9" font-family="Arial" font-weight="bold">R</text>
<rect x="640" y="366" width="100" height="24" rx="4" ry="4" fill="#ffe6cc" stroke="#000" stroke-width="1.5"/>
<text x="690.0" y="378.0" text-anchor="middle" dominant-baseline="central" fill="#000" font-size="9" font-family="Arial">C</text>
<rect x="1140" y="366" width="100" height="24" rx="4" ry="4" fill="#ffe6cc" stroke="#000" stroke-width="1.5"/>
<text x="1190.0" y="378.0" text-anchor="middle" dominant-baseline="central" fill="#000" font-size="9" font-family="Arial">C</text>
<rect x="10" y="390" width="140" height="24" rx="4" ry="4" fill="#fff" stroke="#000" stroke-width="1.5"/>
<text x="80.0" y="402.0" text-anchor="middle" dominant-baseline="central" fill="#000" font-size="9" font-family="Arial">Tutor/Pet</text>
<rect x="540" y="390" width="100" height="24" rx="4" ry="4" fill="#d5e8d4" stroke="#000" stroke-width="1.5"/>
<text x="590.0" y="402.0" text-anchor="middle" dominant-baseline="central" fill="#000" font-size="9" font-family="Arial" font-weight="bold">R</text>
<rect x="640" y="390" width="100" height="24" rx="4" ry="4" fill="#d5e8d4" stroke="#000" stroke-width="1.5"/>
<text x="690.0" y="402.0" text-anchor="middle" dominant-baseline="central" fill="#000" font-size="9" font-family="Arial" font-weight="bold">R</text>
<rect x="1140" y="390" width="100" height="24" rx="4" ry="4" fill="#ffe6cc" stroke="#000" stroke-width="1.5"/>
<text x="1190.0" y="402.0" text-anchor="middle" dominant-baseline="central" fill="#000" font-size="9" font-family="Arial">C</text>
<rect x="10" y="414" width="140" height="24" rx="4" ry="4" fill="#fff" stroke="#000" stroke-width="1.5"/>
<text x="80.0" y="426.0" text-anchor="middle" dominant-baseline="central" fill="#000" font-size="9" font-family="Arial">Convênio</text>
<rect x="440" y="414" width="100" height="24" rx="4" ry="4" fill="#ffe6cc" stroke="#000" stroke-width="1.5"/>
<text x="490.0" y="426.0" text-anchor="middle" dominant-baseline="central" fill="#000" font-size="9" font-family="Arial">C</text>
<rect x="740" y="414" width="100" height="24" rx="4" ry="4" fill="#d5e8d4" stroke="#000" stroke-width="1.5"/>
<text x="790.0" y="426.0" text-anchor="middle" dominant-baseline="central" fill="#000" font-size="9" font-family="Arial" font-weight="bold">R</text>
<rect x="1140" y="414" width="100" height="24" rx="4" ry="4" fill="#ffe6cc" stroke="#000" stroke-width="1.5"/>
<text x="1190.0" y="426.0" text-anchor="middle" dominant-baseline="central" fill="#000" font-size="9" font-family="Arial">C</text>
<rect x="10" y="438" width="140" height="24" rx="4" ry="4" fill="#fff" stroke="#000" stroke-width="1.5"/>
<text x="80.0" y="450.0" text-anchor="middle" dominant-baseline="central" fill="#000" font-size="9" font-family="Arial">LGPD</text>
<rect x="1140" y="438" width="100" height="24" rx="4" ry="4" fill="#ffe6cc" stroke="#000" stroke-width="1.5"/>
<text x="1190.0" y="450.0" text-anchor="middle" dominant-baseline="central" fill="#000" font-size="9" font-family="Arial">C</text>
<rect x="1240" y="438" width="100" height="24" rx="4" ry="4" fill="#d5e8d4" stroke="#000" stroke-width="1.5"/>
<text x="1290.0" y="450.0" text-anchor="middle" dominant-baseline="central" fill="#000" font-size="9" font-family="Arial" font-weight="bold">R</text>
<rect x="10" y="462" width="140" height="24" rx="4" ry="4" fill="#fff" stroke="#000" stroke-width="1.5"/>
<text x="80.0" y="474.0" text-anchor="middle" dominant-baseline="central" fill="#000" font-size="9" font-family="Arial">Notificações</text>
<rect x="1140" y="462" width="100" height="24" rx="4" ry="4" fill="#ffe6cc" stroke="#000" stroke-width="1.5"/>
<text x="1190.0" y="474.0" text-anchor="middle" dominant-baseline="central" fill="#000" font-size="9" font-family="Arial">C</text>
<rect x="10" y="486" width="140" height="24" rx="4" ry="4" fill="#fff" stroke="#000" stroke-width="1.5"/>
<text x="80.0" y="498.0" text-anchor="middle" dominant-baseline="central" fill="#000" font-size="9" font-family="Arial">Chat</text>
<rect x="440" y="486" width="100" height="24" rx="4" ry="4" fill="#ffe6cc" stroke="#000" stroke-width="1.5"/>
<text x="490.0" y="498.0" text-anchor="middle" dominant-baseline="central" fill="#000" font-size="9" font-family="Arial">C</text>
<rect x="540" y="486" width="100" height="24" rx="4" ry="4" fill="#ffe6cc" stroke="#000" stroke-width="1.5"/>
<text x="590.0" y="498.0" text-anchor="middle" dominant-baseline="central" fill="#000" font-size="9" font-family="Arial">C</text>
<rect x="640" y="486" width="100" height="24" rx="4" ry="4" fill="#ffe6cc" stroke="#000" stroke-width="1.5"/>
<text x="690.0" y="498.0" text-anchor="middle" dominant-baseline="central" fill="#000" font-size="9" font-family="Arial">C</text>
<rect x="1140" y="486" width="100" height="24" rx="4" ry="4" fill="#d5e8d4" stroke="#000" stroke-width="1.5"/>
<text x="1190.0" y="498.0" text-anchor="middle" dominant-baseline="central" fill="#000" font-size="9" font-family="Arial" font-weight="bold">R</text>
<rect x="10" y="510" width="140" height="24" rx="4" ry="4" fill="#fff" stroke="#000" stroke-width="1.5"/>
<text x="80.0" y="522.0" text-anchor="middle" dominant-baseline="central" fill="#000" font-size="9" font-family="Arial">Auto-Update</text>
<rect x="140" y="510" width="100" height="24" rx="4" ry="4" fill="#d5e8d4" stroke="#000" stroke-width="1.5"/>
<text x="190.0" y="522.0" text-anchor="middle" dominant-baseline="central" fill="#000" font-size="9" font-family="Arial" font-weight="bold">R</text>
<rect x="240" y="510" width="100" height="24" rx="4" ry="4" fill="#ffe6cc" stroke="#000" stroke-width="1.5"/>
<text x="290.0" y="522.0" text-anchor="middle" dominant-baseline="central" fill="#000" font-size="9" font-family="Arial">C</text>
<rect x="10" y="534" width="140" height="24" rx="4" ry="4" fill="#fff" stroke="#000" stroke-width="1.5"/>
<text x="80.0" y="546.0" text-anchor="middle" dominant-baseline="central" fill="#000" font-size="9" font-family="Arial">Emergência</text>
<rect x="440" y="534" width="100" height="24" rx="4" ry="4" fill="#d5e8d4" stroke="#000" stroke-width="1.5"/>
<text x="490.0" y="546.0" text-anchor="middle" dominant-baseline="central" fill="#000" font-size="9" font-family="Arial" font-weight="bold">R</text>
<rect x="640" y="534" width="100" height="24" rx="4" ry="4" fill="#ffe6cc" stroke="#000" stroke-width="1.5"/>
<text x="690.0" y="546.0" text-anchor="middle" dominant-baseline="central" fill="#000" font-size="9" font-family="Arial">C</text>
<rect x="1140" y="534" width="100" height="24" rx="4" ry="4" fill="#ffe6cc" stroke="#000" stroke-width="1.5"/>
<text x="1190.0" y="546.0" text-anchor="middle" dominant-baseline="central" fill="#000" font-size="9" font-family="Arial">C</text>
<rect x="10" y="558" width="140" height="24" rx="4" ry="4" fill="#fff" stroke="#000" stroke-width="1.5"/>
<text x="80.0" y="570.0" text-anchor="middle" dominant-baseline="central" fill="#000" font-size="9" font-family="Arial">Triagem</text>
<rect x="440" y="558" width="100" height="24" rx="4" ry="4" fill="#d5e8d4" stroke="#000" stroke-width="1.5"/>
<text x="490.0" y="570.0" text-anchor="middle" dominant-baseline="central" fill="#000" font-size="9" font-family="Arial" font-weight="bold">R</text>
<rect x="540" y="558" width="100" height="24" rx="4" ry="4" fill="#ffe6cc" stroke="#000" stroke-width="1.5"/>
<text x="590.0" y="570.0" text-anchor="middle" dominant-baseline="central" fill="#000" font-size="9" font-family="Arial">C</text>
<rect x="640" y="558" width="100" height="24" rx="4" ry="4" fill="#ffe6cc" stroke="#000" stroke-width="1.5"/>
<text x="690.0" y="570.0" text-anchor="middle" dominant-baseline="central" fill="#000" font-size="9" font-family="Arial">C</text>
<rect x="1140" y="558" width="100" height="24" rx="4" ry="4" fill="#ffe6cc" stroke="#000" stroke-width="1.5"/>
<text x="1190.0" y="570.0" text-anchor="middle" dominant-baseline="central" fill="#000" font-size="9" font-family="Arial">C</text>
<rect x="10" y="582" width="140" height="24" rx="4" ry="4" fill="#fff" stroke="#000" stroke-width="1.5"/>
<text x="80.0" y="594.0" text-anchor="middle" dominant-baseline="central" fill="#000" font-size="9" font-family="Arial">Hospedagem</text>
<rect x="440" y="582" width="100" height="24" rx="4" ry="4" fill="#ffe6cc" stroke="#000" stroke-width="1.5"/>
<text x="490.0" y="594.0" text-anchor="middle" dominant-baseline="central" fill="#000" font-size="9" font-family="Arial">C</text>
<rect x="540" y="582" width="100" height="24" rx="4" ry="4" fill="#d5e8d4" stroke="#000" stroke-width="1.5"/>
<text x="590.0" y="594.0" text-anchor="middle" dominant-baseline="central" fill="#000" font-size="9" font-family="Arial" font-weight="bold">R</text>
<rect x="640" y="582" width="100" height="24" rx="4" ry="4" fill="#ffe6cc" stroke="#000" stroke-width="1.5"/>
<text x="690.0" y="594.0" text-anchor="middle" dominant-baseline="central" fill="#000" font-size="9" font-family="Arial">C</text>
<rect x="1140" y="582" width="100" height="24" rx="4" ry="4" fill="#ffe6cc" stroke="#000" stroke-width="1.5"/>
<text x="1190.0" y="594.0" text-anchor="middle" dominant-baseline="central" fill="#000" font-size="9" font-family="Arial">C</text>
<rect x="10" y="606" width="140" height="24" rx="4" ry="4" fill="#fff" stroke="#000" stroke-width="1.5"/>
<text x="80.0" y="618.0" text-anchor="middle" dominant-baseline="central" fill="#000" font-size="9" font-family="Arial">Odontologia</text>
<rect x="440" y="606" width="100" height="24" rx="4" ry="4" fill="#d5e8d4" stroke="#000" stroke-width="1.5"/>
<text x="490.0" y="618.0" text-anchor="middle" dominant-baseline="central" fill="#000" font-size="9" font-family="Arial" font-weight="bold">R</text>
<rect x="640" y="606" width="100" height="24" rx="4" ry="4" fill="#ffe6cc" stroke="#000" stroke-width="1.5"/>
<text x="690.0" y="618.0" text-anchor="middle" dominant-baseline="central" fill="#000" font-size="9" font-family="Arial">C</text>
<rect x="1140" y="606" width="100" height="24" rx="4" ry="4" fill="#ffe6cc" stroke="#000" stroke-width="1.5"/>
<text x="1190.0" y="618.0" text-anchor="middle" dominant-baseline="central" fill="#000" font-size="9" font-family="Arial">C</text>
<rect x="10" y="630" width="140" height="24" rx="4" ry="4" fill="#fff" stroke="#000" stroke-width="1.5"/>
<text x="80.0" y="642.0" text-anchor="middle" dominant-baseline="central" fill="#000" font-size="9" font-family="Arial">Zoonoses</text>
<rect x="440" y="630" width="100" height="24" rx="4" ry="4" fill="#d5e8d4" stroke="#000" stroke-width="1.5"/>
<text x="490.0" y="642.0" text-anchor="middle" dominant-baseline="central" fill="#000" font-size="9" font-family="Arial" font-weight="bold">R</text>
<rect x="640" y="630" width="100" height="24" rx="4" ry="4" fill="#ffe6cc" stroke="#000" stroke-width="1.5"/>
<text x="690.0" y="642.0" text-anchor="middle" dominant-baseline="central" fill="#000" font-size="9" font-family="Arial">C</text>
<rect x="1140" y="630" width="100" height="24" rx="4" ry="4" fill="#ffe6cc" stroke="#000" stroke-width="1.5"/>
<text x="1190.0" y="642.0" text-anchor="middle" dominant-baseline="central" fill="#000" font-size="9" font-family="Arial">C</text>
<rect x="10" y="654" width="140" height="24" rx="4" ry="4" fill="#fff" stroke="#000" stroke-width="1.5"/>
<text x="80.0" y="666.0" text-anchor="middle" dominant-baseline="central" fill="#000" font-size="9" font-family="Arial">RH</text>
<rect x="140" y="654" width="100" height="24" rx="4" ry="4" fill="#ffe6cc" stroke="#000" stroke-width="1.5"/>
<text x="190.0" y="666.0" text-anchor="middle" dominant-baseline="central" fill="#000" font-size="9" font-family="Arial">A</text>
<rect x="240" y="654" width="100" height="24" rx="4" ry="4" fill="#ffe6cc" stroke="#000" stroke-width="1.5"/>
<text x="290.0" y="666.0" text-anchor="middle" dominant-baseline="central" fill="#000" font-size="9" font-family="Arial">A</text>
<rect x="340" y="654" width="100" height="24" rx="4" ry="4" fill="#ffe6cc" stroke="#000" stroke-width="1.5"/>
<text x="390.0" y="666.0" text-anchor="middle" dominant-baseline="central" fill="#000" font-size="9" font-family="Arial">C</text>
<rect x="1040" y="654" width="100" height="24" rx="4" ry="4" fill="#d5e8d4" stroke="#000" stroke-width="1.5"/>
<text x="1090.0" y="666.0" text-anchor="middle" dominant-baseline="central" fill="#000" font-size="9" font-family="Arial" font-weight="bold">R</text>
<rect x="10" y="678" width="140" height="24" rx="4" ry="4" fill="#fff" stroke="#000" stroke-width="1.5"/>
<text x="80.0" y="690.0" text-anchor="middle" dominant-baseline="central" fill="#000" font-size="9" font-family="Arial">Relatórios</text>
<rect x="140" y="678" width="100" height="24" rx="4" ry="4" fill="#ffe6cc" stroke="#000" stroke-width="1.5"/>
<text x="190.0" y="690.0" text-anchor="middle" dominant-baseline="central" fill="#000" font-size="9" font-family="Arial">A</text>
<rect x="240" y="678" width="100" height="24" rx="4" ry="4" fill="#ffe6cc" stroke="#000" stroke-width="1.5"/>
<text x="290.0" y="690.0" text-anchor="middle" dominant-baseline="central" fill="#000" font-size="9" font-family="Arial">A</text>
<rect x="340" y="678" width="100" height="24" rx="4" ry="4" fill="#ffe6cc" stroke="#000" stroke-width="1.5"/>
<text x="390.0" y="690.0" text-anchor="middle" dominant-baseline="central" fill="#000" font-size="9" font-family="Arial">A</text>
<rect x="440" y="678" width="100" height="24" rx="4" ry="4" fill="#d5e8d4" stroke="#000" stroke-width="1.5"/>
<text x="490.0" y="690.0" text-anchor="middle" dominant-baseline="central" fill="#000" font-size="9" font-family="Arial" font-weight="bold">R</text>
<rect x="540" y="678" width="100" height="24" rx="4" ry="4" fill="#d5e8d4" stroke="#000" stroke-width="1.5"/>
<text x="590.0" y="690.0" text-anchor="middle" dominant-baseline="central" fill="#000" font-size="9" font-family="Arial" font-weight="bold">R</text>
<rect x="640" y="678" width="100" height="24" rx="4" ry="4" fill="#ffe6cc" stroke="#000" stroke-width="1.5"/>
<text x="690.0" y="690.0" text-anchor="middle" dominant-baseline="central" fill="#000" font-size="9" font-family="Arial">C</text>
<rect x="740" y="678" width="100" height="24" rx="4" ry="4" fill="#d5e8d4" stroke="#000" stroke-width="1.5"/>
<text x="790.0" y="690.0" text-anchor="middle" dominant-baseline="central" fill="#000" font-size="9" font-family="Arial" font-weight="bold">R</text>
<rect x="940" y="678" width="100" height="24" rx="4" ry="4" fill="#d5e8d4" stroke="#000" stroke-width="1.5"/>
<text x="990.0" y="690.0" text-anchor="middle" dominant-baseline="central" fill="#000" font-size="9" font-family="Arial" font-weight="bold">R</text>
<rect x="1040" y="678" width="100" height="24" rx="4" ry="4" fill="#d5e8d4" stroke="#000" stroke-width="1.5"/>
<text x="1090.0" y="690.0" text-anchor="middle" dominant-baseline="central" fill="#000" font-size="9" font-family="Arial" font-weight="bold">R</text>
<rect x="1240" y="678" width="100" height="24" rx="4" ry="4" fill="#ffe6cc" stroke="#000" stroke-width="1.5"/>
<text x="1290.0" y="690.0" text-anchor="middle" dominant-baseline="central" fill="#000" font-size="9" font-family="Arial">A</text>
<rect x="10" y="702" width="140" height="24" rx="4" ry="4" fill="#fff" stroke="#000" stroke-width="1.5"/>
<text x="80.0" y="714.0" text-anchor="middle" dominant-baseline="central" fill="#000" font-size="9" font-family="Arial">Mobile</text>
<rect x="440" y="702" width="100" height="24" rx="4" ry="4" fill="#d5e8d4" stroke="#000" stroke-width="1.5"/>
<text x="490.0" y="714.0" text-anchor="middle" dominant-baseline="central" fill="#000" font-size="9" font-family="Arial" font-weight="bold">R</text>
<rect x="640" y="702" width="100" height="24" rx="4" ry="4" fill="#ffe6cc" stroke="#000" stroke-width="1.5"/>
<text x="690.0" y="714.0" text-anchor="middle" dominant-baseline="central" fill="#000" font-size="9" font-family="Arial">C</text>
<rect x="150" y="736" width="180" height="22" rx="4" ry="4" fill="#d5e8d4" stroke="#000" stroke-width="1.5"/>
<text x="240.0" y="747.0" text-anchor="middle" dominant-baseline="central" fill="#000" font-size="9" font-family="Arial">R = Responsável</text>
<rect x="350" y="736" width="180" height="22" rx="4" ry="4" fill="#ffe6cc" stroke="#000" stroke-width="1.5"/>
<text x="440.0" y="747.0" text-anchor="middle" dominant-baseline="central" fill="#000" font-size="9" font-family="Arial">A = Aprovador</text>
<rect x="550" y="736" width="180" height="22" rx="4" ry="4" fill="#ffe6cc" stroke="#000" stroke-width="1.5"/>
<text x="640.0" y="747.0" text-anchor="middle" dominant-baseline="central" fill="#000" font-size="9" font-family="Arial">C = Consultado</text>
<rect x="750" y="736" width="180" height="22" rx="4" ry="4" fill="#dae8fc" stroke="#000" stroke-width="1.5"/>
<text x="840.0" y="747.0" text-anchor="middle" dominant-baseline="central" fill="#000" font-size="9" font-family="Arial">I = Informado</text>
</svg>