<svg xmlns="http://www.w3.org/2000/svg" xmlns:xlink="http://www.w3.org/1999/xlink" contentStyleType="text/css" data-diagram-type="ACTIVITY" height="729px" preserveAspectRatio="none" style="width:686px;height:729px;background:#FEFEFE;" version="1.1" viewBox="0 0 686 729" width="686px" zoomAndPan="magnify"><title>Fluxo de Recursos Humanos (Admiss&#227;o)</title><defs/><g><rect fill="#FEFEFE" height="729" style="stroke:none;stroke-width:1;" width="686" x="0" y="0"/><text fill="#000000" font-family="Arial" font-size="14" font-weight="bold" lengthAdjust="spacing" textLength="273.0547" x="205.1276" y="33.1318">Fluxo de Recursos Humanos (Admiss&#227;o)</text><rect fill="none" height="12.6489" style="stroke:none;stroke-width:1;" width="653.3098" x="15" y="48.0986"/><ellipse cx="146.7017" cy="75.7476" fill="#222222" rx="10" ry="10" style="stroke:#222222;stroke-width:1;"/><rect fill="#FFFFFF" height="31.499" rx="12.5" ry="12.5" style="stroke:#333333;stroke-width:0.5;" width="93.3594" x="100.022" y="105.7476"/><text fill="#000000" font-family="Arial" font-size="10" lengthAdjust="spacing" textLength="73.3594" x="110.022" y="125.1274">Iniciar Admiss&#227;o</text><line style="stroke:#333333;stroke-width:1.5;" x1="74.9063" x2="214.6079" y1="157.2466" y2="157.2466"/><rect fill="#FFFFFF" height="31.499" rx="12.5" ry="12.5" style="stroke:#333333;stroke-width:0.5;" width="107.8125" x="21" y="177.2466"/><text fill="#000000" font-family="Arial" font-size="10" lengthAdjust="spacing" textLength="87.8125" x="31" y="196.6265">Criar Departamento</text><rect fill="#FFFFFF" height="31.499" rx="12.5" ry="12.5" style="stroke:#333333;stroke-width:0.5;" width="118.9355" x="87.2339" y="248.7456"/><text fill="#000000" font-family="Arial" font-size="10" lengthAdjust="spacing" textLength="98.9355" x="97.2339" y="268.1255">Cadastrar Funcion&#225;rio</text><polygon fill="#FFFFFF" points="101.123,300.2446,192.2803,300.2446,204.2803,312.2446,192.2803,324.2446,101.123,324.2446,89.123,312.2446,101.123,300.2446" style="stroke:#333333;stroke-width:0.5;"/><text fill="#000000" font-family="Arial" font-size="10" lengthAdjust="spacing" textLength="91.1572" x="101.123" y="315.875">Acesso ao Sistema?</text><text fill="#000000" font-family="Arial" font-size="9" lengthAdjust="spacing" textLength="20.0171" x="69.106" y="310.3374">[n&#227;o]</text><text fill="#000000" font-family="Arial" font-size="9" lengthAdjust="spacing" textLength="18.9976" x="204.2803" y="310.3374">[sim]</text><polygon fill="#FFFFFF" points="146.7017,488.7417,158.7017,500.7417,146.7017,512.7417,134.7017,500.7417,146.7017,488.7417" style="stroke:#333333;stroke-width:0.5;"/><polygon fill="#FFFFFF" points="126.9629,532.7417,166.4404,532.7417,178.4404,544.7417,166.4404,556.7417,126.9629,556.7417,114.9629,544.7417,126.9629,532.7417" style="stroke:#333333;stroke-width:0.5;"/><text fill="#000000" font-family="Arial" font-size="10" lengthAdjust="spacing" textLength="39.4775" x="126.9629" y="548.3721">Plant&#227;o?</text><text fill="#000000" font-family="Arial" font-size="9" lengthAdjust="spacing" textLength="20.0171" x="94.9458" y="542.8345">[n&#227;o]</text><text fill="#000000" font-family="Arial" font-size="9" lengthAdjust="spacing" textLength="18.9976" x="178.4404" y="542.8345">[sim]</text><line style="stroke:#333333;stroke-width:1.5;" x1="15" x2="15" y1="48.0986" y2="717.7397"/><rect fill="#FFFFFF" height="31.499" rx="12.5" ry="12.5" style="stroke:#333333;stroke-width:0.5;" width="115.5908" x="259.1362" y="177.2466"/><text fill="#000000" font-family="Arial" font-size="10" lengthAdjust="spacing" textLength="95.5908" x="269.1362" y="196.6265">Criar Cargo / Posi&#231;&#227;o</text><line style="stroke:#333333;stroke-width:1.5;" x1="233.2778" x2="316.9316" y1="228.7456" y2="228.7456"/><rect fill="#FFFFFF" height="31.499" rx="12.5" ry="12.5" style="stroke:#333333;stroke-width:0.5;" width="138.6523" x="247.2778" y="395.7437"/><text fill="#000000" font-family="Arial" font-size="10" lengthAdjust="spacing" textLength="118.6523" x="257.2778" y="415.1235">Atribuir Role + Permiss&#245;es</text><line style="stroke:#333333;stroke-width:1.5;" x1="228.2778" x2="228.2778" y1="48.0986" y2="717.7397"/><rect fill="#FFFFFF" height="31.499" rx="12.5" ry="12.5" style="stroke:#333333;stroke-width:0.5;" width="81.6895" x="426.4326" y="344.2446"/><text fill="#000000" font-family="Arial" font-size="10" lengthAdjust="spacing" textLength="61.6895" x="436.4326" y="363.6245">Definir Escala</text><rect fill="#FFFFFF" height="31.499" rx="12.5" ry="12.5" style="stroke:#333333;stroke-width:0.5;" width="93.3643" x="545.7524" y="344.2446"/><text fill="#000000" font-family="Arial" font-size="10" lengthAdjust="spacing" textLength="73.3643" x="555.7524" y="363.6245">Vincular Usu&#225;rio</text><rect fill="#FFFFFF" height="31.499" rx="12.5" ry="12.5" style="stroke:#333333;stroke-width:0.5;" width="81.6895" x="551.5898" y="447.2427"/><text fill="#000000" font-family="Arial" font-size="10" lengthAdjust="spacing" textLength="61.6895" x="561.5898" y="466.6226">Definir Escala</text><rect fill="#FFFFFF" height="31.499" rx="12.5" ry="12.5" style="stroke:#333333;stroke-width:0.5;" width="128.9258" x="395.9302" y="576.7417"/><text fill="#000000" font-family="Arial" font-size="10" lengthAdjust="spacing" textLength="108.9258" x="405.9302" y="596.1216">Lembretes (staff:remind)</text><ellipse cx="460.3931" cy="639.2407" fill="none" rx="11" ry="11" style="stroke:#222222;stroke-width:1;"/><ellipse cx="460.3931" cy="639.2407" fill="#222222" rx="6" ry="6" style="stroke:#222222;stroke-width:1;"/><rect fill="#FFFFFF" height="31.499" rx="12.5" ry="12.5" style="stroke:#333333;stroke-width:0.5;" width="119.4971" x="539.5703" y="576.7417"/><text fill="#000000" font-family="Arial" font-size="10" lengthAdjust="spacing" textLength="99.4971" x="549.5703" y="596.1216">Configurar Sobreaviso</text><rect fill="#FFFFFF" height="31.499" rx="12.5" ry="12.5" style="stroke:#333333;stroke-width:0.5;" width="128.9258" x="534.856" y="628.2407"/><text fill="#000000" font-family="Arial" font-size="10" lengthAdjust="spacing" textLength="108.9258" x="544.856" y="647.6206">Lembretes (staff:remind)</text><ellipse cx="599.3188" cy="690.7397" fill="none" rx="11" ry="11" style="stroke:#222222;stroke-width:1;"/><ellipse cx="599.3188" cy="690.7397" fill="#222222" rx="6" ry="6" style="stroke:#222222;stroke-width:1;"/><line style="stroke:#333333;stroke-width:1.5;" x1="389.9302" x2="389.9302" y1="48.0986" y2="717.7397"/><line style="stroke:#333333;stroke-width:1.5;" x1="667.7817" x2="667.7817" y1="48.0986" y2="717.7397"/><line style="stroke:#333333;stroke-width:1;" x1="146.7017" x2="146.7017" y1="85.7476" y2="105.7476"/><polygon fill="#333333" points="142.7017,95.7476,146.7017,105.7476,150.7017,95.7476,146.7017,99.7476" style="stroke:#333333;stroke-width:1;"/><line style="stroke:#333333;stroke-width:1;" x1="74.9063" x2="74.9063" y1="158.7466" y2="177.2466"/><polygon fill="#333333" points="70.9063,167.2466,74.9063,177.2466,78.9063,167.2466,74.9063,171.2466" style="stroke:#333333;stroke-width:1;"/><line style="stroke:#333333;stroke-width:1;" x1="146.7017" x2="146.7017" y1="137.2466" y2="157.2466"/><polygon fill="#333333" points="142.7017,147.2466,146.7017,157.2466,150.7017,147.2466,146.7017,151.2466" style="stroke:#333333;stroke-width:1;"/><line style="stroke:#333333;stroke-width:1;" x1="146.7017" x2="146.7017" y1="280.2446" y2="300.2446"/><polygon fill="#333333" points="142.7017,290.2446,146.7017,300.2446,150.7017,290.2446,146.7017,294.2446" style="stroke:#333333;stroke-width:1;"/><line style="stroke:#333333;stroke-width:1;" x1="146.7017" x2="146.7017" y1="512.7417" y2="532.7417"/><polygon fill="#333333" points="142.7017,522.7417,146.7017,532.7417,150.7017,522.7417,146.7017,526.7417" style="stroke:#333333;stroke-width:1;"/><line style="stroke:#333333;stroke-width:1;" x1="316.9316" x2="316.9316" y1="208.7456" y2="228.7456"/><polygon fill="#333333" points="312.9316,218.7456,316.9316,228.7456,320.9316,218.7456,316.9316,222.7456" style="stroke:#333333;stroke-width:1;"/><line style="stroke:#333333;stroke-width:1;" x1="460.3931" x2="460.3931" y1="608.2407" y2="628.2407"/><polygon fill="#333333" points="456.3931,618.2407,460.3931,628.2407,464.3931,618.2407,460.3931,622.2407" style="stroke:#333333;stroke-width:1;"/><line style="stroke:#333333;stroke-width:1;" x1="599.3188" x2="599.3188" y1="608.2407" y2="628.2407"/><polygon fill="#333333" points="595.3188,618.2407,599.3188,628.2407,603.3188,618.2407,599.3188,622.2407" style="stroke:#333333;stroke-width:1;"/><line style="stroke:#333333;stroke-width:1;" x1="599.3188" x2="599.3188" y1="659.7397" y2="679.7397"/><polygon fill="#333333" points="595.3188,669.7397,599.3188,679.7397,603.3188,669.7397,599.3188,673.7397" style="stroke:#333333;stroke-width:1;"/><line style="stroke:#333333;stroke-width:1;" x1="214.6079" x2="214.6079" y1="158.7466" y2="162.2466"/><line style="stroke:#333333;stroke-width:1;" x1="214.6079" x2="316.9316" y1="162.2466" y2="162.2466"/><line style="stroke:#333333;stroke-width:1;" x1="316.9316" x2="316.9316" y1="162.2466" y2="177.2466"/><polygon fill="#333333" points="312.9316,167.2466,316.9316,177.2466,320.9316,167.2466,316.9316,171.2466" style="stroke:#333333;stroke-width:1;"/><line style="stroke:#333333;stroke-width:1;" x1="74.9063" x2="74.9063" y1="208.7456" y2="214.7456"/><line style="stroke:#333333;stroke-width:1;" x1="74.9063" x2="233.2778" y1="214.7456" y2="214.7456"/><line style="stroke:#333333;stroke-width:1;" x1="233.2778" x2="233.2778" y1="214.7456" y2="228.7456"/><polygon fill="#333333" points="229.2778,218.7456,233.2778,228.7456,237.2778,218.7456,233.2778,222.7456" style="stroke:#333333;stroke-width:1;"/><line style="stroke:#333333;stroke-width:1;" x1="249.0254" x2="249.0254" y1="230.2456" y2="233.7456"/><line style="stroke:#333333;stroke-width:1;" x1="249.0254" x2="146.7017" y1="233.7456" y2="233.7456"/><line style="stroke:#333333;stroke-width:1;" x1="146.7017" x2="146.7017" y1="233.7456" y2="248.7456"/><polygon fill="#333333" points="142.7017,238.7456,146.7017,248.7456,150.7017,238.7456,146.7017,242.7456" style="stroke:#333333;stroke-width:1;"/><line style="stroke:#333333;stroke-width:1;" x1="592.4346" x2="592.4346" y1="375.7437" y2="380.7437"/><line style="stroke:#333333;stroke-width:1;" x1="592.4346" x2="316.604" y1="380.7437" y2="380.7437"/><line style="stroke:#333333;stroke-width:1;" x1="316.604" x2="316.604" y1="380.7437" y2="395.7437"/><polygon fill="#333333" points="312.604,385.7437,316.604,395.7437,320.604,385.7437,316.604,389.7437" style="stroke:#333333;stroke-width:1;"/><line style="stroke:#333333;stroke-width:1;" x1="316.604" x2="316.604" y1="427.2427" y2="432.2427"/><line style="stroke:#333333;stroke-width:1;" x1="316.604" x2="592.4346" y1="432.2427" y2="432.2427"/><line style="stroke:#333333;stroke-width:1;" x1="592.4346" x2="592.4346" y1="432.2427" y2="447.2427"/><polygon fill="#333333" points="588.4346,437.2427,592.4346,447.2427,596.4346,437.2427,592.4346,441.2427" style="stroke:#333333;stroke-width:1;"/><line style="stroke:#333333;stroke-width:1;" x1="89.123" x2="77.123" y1="312.2446" y2="312.2446"/><line style="stroke:#333333;stroke-width:1;" x1="77.123" x2="77.123" y1="312.2446" y2="330.2446"/><line style="stroke:#333333;stroke-width:1;" x1="77.123" x2="467.2773" y1="330.2446" y2="330.2446"/><line style="stroke:#333333;stroke-width:1;" x1="467.2773" x2="467.2773" y1="330.2446" y2="344.2446"/><polygon fill="#333333" points="463.2773,334.2446,467.2773,344.2446,471.2773,334.2446,467.2773,338.2446" style="stroke:#333333;stroke-width:1;"/><line style="stroke:#333333;stroke-width:1;" x1="204.2803" x2="592.4346" y1="312.2446" y2="312.2446"/><line style="stroke:#333333;stroke-width:1;" x1="592.4346" x2="592.4346" y1="312.2446" y2="344.2446"/><polygon fill="#333333" points="588.4346,334.2446,592.4346,344.2446,596.4346,334.2446,592.4346,338.2446" style="stroke:#333333;stroke-width:1;"/><line style="stroke:#333333;stroke-width:1;" x1="467.2773" x2="467.2773" y1="375.7437" y2="482.7417"/><line style="stroke:#333333;stroke-width:1;" x1="467.2773" x2="116.7017" y1="482.7417" y2="482.7417"/><line style="stroke:#333333;stroke-width:1;" x1="116.7017" x2="116.7017" y1="482.7417" y2="500.7417"/><line style="stroke:#333333;stroke-width:1;" x1="116.7017" x2="134.7017" y1="500.7417" y2="500.7417"/><polygon fill="#333333" points="124.7017,496.7417,134.7017,500.7417,124.7017,504.7417,128.7017,500.7417" style="stroke:#333333;stroke-width:1;"/><line style="stroke:#333333;stroke-width:1;" x1="592.4346" x2="592.4346" y1="478.7417" y2="500.7417"/><line style="stroke:#333333;stroke-width:1;" x1="592.4346" x2="158.7017" y1="500.7417" y2="500.7417"/><polygon fill="#333333" points="168.7017,496.7417,158.7017,500.7417,168.7017,504.7417,164.7017,500.7417" style="stroke:#333333;stroke-width:1;"/><line style="stroke:#333333;stroke-width:1;" x1="114.9629" x2="102.9629" y1="544.7417" y2="544.7417"/><line style="stroke:#333333;stroke-width:1;" x1="102.9629" x2="102.9629" y1="544.7417" y2="562.7417"/><line style="stroke:#333333;stroke-width:1;" x1="102.9629" x2="460.3931" y1="562.7417" y2="562.7417"/><line style="stroke:#333333;stroke-width:1;" x1="460.3931" x2="460.3931" y1="562.7417" y2="576.7417"/><polygon fill="#333333" points="456.3931,566.7417,460.3931,576.7417,464.3931,566.7417,460.3931,570.7417" style="stroke:#333333;stroke-width:1;"/><line style="stroke:#333333;stroke-width:1;" x1="178.4404" x2="599.3188" y1="544.7417" y2="544.7417"/><line style="stroke:#333333;stroke-width:1;" x1="599.3188" x2="599.3188" y1="544.7417" y2="576.7417"/><polygon fill="#333333" points="595.3188,566.7417,599.3188,576.7417,603.3188,566.7417,599.3188,570.7417" style="stroke:#333333;stroke-width:1;"/><text fill="#000000" font-family="Arial" font-size="11" lengthAdjust="spacing" textLength="15.8877" x="113.6951" y="58.4165">RH</text><text fill="#000000" font-family="Arial" font-size="11" lengthAdjust="spacing" textLength="31.1792" x="293.5144" y="58.4165">Admin</text><text fill="#000000" font-family="Arial" font-size="11" lengthAdjust="spacing" textLength="39.7354" x="508.9883" y="58.4165">Sistema</text><!--SRC=[bP6nIWD148RxVOgnoo5eVoaaN0mHB4A2DYAokPkB0xkpnywkMDpBY8LFu1FanPox14Kjn6gB_v__-sVsXBXskK5ug8FtWS-wx9qnYP93MBZy7435DTOvIX1OPczPtyciyIIoVms5CVrwsHj9DYPJNZ7LP2DywbDZf7EK341PnK6QOwTMwv6JggC8TcU9rT8FSzn_cIiRTm7EOHM4zczZ7d9pI3o0oyesLb9Kyo9pJO7tBv46BhNQiqQH03R0XYIXjnS5f4TacDonfjqN0_GeZTWvjiGKuL9gwwpIdA2QXVnlxwqUBpi5tqW-Gh-jC4kHjbd3ra6lUGehZEDLtb6cVtAveVQuuh38obbEslYl_jVejn4JwX_fbxHj6L7hDCK0b1IwdmkLLU2MTdcutoReg7qY2TF_nmvzFm00]--></g></svg>